<?xml version="1.0" encoding="UTF-8" standalone="no"?>
<svg xmlns:rdf="http://www.w3.org/1999/02/22-rdf-syntax-ns#" style="enable-background:new" xmlns="http://www.w3.org/2000/svg" height="16" width="16" version="1.0" xmlns:cc="http://creativecommons.org/ns#" xmlns:xlink="http://www.w3.org/1999/xlink" xmlns:dc="http://purl.org/dc/elements/1.1/">
 <defs>
  <linearGradient id="linearGradient4256" x1="417" gradientUnits="userSpaceOnUse" y1="148" gradientTransform="matrix(0,-1,1,0,-140,432)" x2="431" y2="148">
   <stop stop-color="#5f5f5f" offset="0"/>
   <stop stop-color="#878787" offset="1"/>
  </linearGradient>
 </defs>
 <metadata>
  <rdf:RDF>
   <cc:Work rdf:about="">
    <dc:format>image/svg+xml</dc:format>
    <dc:type rdf:resource="http://purl.org/dc/dcmitype/StillImage"/>
    <dc:creator>
     <cc:Agent>
      <dc:title>Sam Hewitt</dc:title>
     </cc:Agent>
    </dc:creator>
    <dc:source/>
    <cc:license rdf:resource=""/>
    <dc:title/>
    <dc:subject>
     <rdf:Bag/>
    </dc:subject>
    <dc:date/>
    <dc:rights>
     <cc:Agent>
      <dc:title/>
     </cc:Agent>
    </dc:rights>
    <dc:publisher>
     <cc:Agent>
      <dc:title/>
     </cc:Agent>
    </dc:publisher>
    <dc:identifier/>
    <dc:relation/>
    <dc:language/>
    <dc:coverage/>
    <dc:description/>
    <dc:contributor>
     <cc:Agent>
      <dc:title/>
     </cc:Agent>
    </dc:contributor>
   </cc:Work>
   <cc:Work rdf:about="">
    <dc:format>image/svg+xml</dc:format>
    <dc:type rdf:resource="http://purl.org/dc/dcmitype/StillImage"/>
   </cc:Work>
  </rdf:RDF>
 </metadata>
 <path opacity=".1" style="color:#bebebe;enable-background:accumulate" d="m3 0c-1.662 0-3 1.338-3 3v10c0 1.662 1.338 3 3 3h10c1.662 0 3-1.338 3-3v-10c0-1.662-1.338-3-3-3z"/>
 <path style="color:#bebebe;enable-background:accumulate" fill="url(#linearGradient4256)" d="m3 0.5c-1.38 0-2.5 1.12-2.5 2.5v10c0 1.38 1.12 2.5 2.5 2.5h10c1.38 0 2.5-1.12 2.5-2.5v-10c0-1.38-1.12-2.5-2.5-2.5h-10z"/>
 <path opacity=".2" d="m6 4-0.5 0.375-1.5938 6.313-0.4375-1.3443-0.9375 0.3125l1 3 0.97-0.04 1.91-7.62h6.59v-1h-7zm2.4375 1.75-0.875 0.5 1.8438 3.25-1.8438 3.25 0.875 0.5l1.5625-2.75 1.5625 2.75 0.875-0.5-1.844-3.25 1.844-3.25-0.876-0.5-1.562 2.75-1.5625-2.75z" style="color:#000000;block-progression:tb;enable-background:accumulate;text-transform:none;text-indent:0"/>
 <path d="m6 3-0.5 0.375-1.5938 6.3125-0.4375-1.3438-0.9375 0.3125l1 3 0.97-0.04 1.91-7.62h6.59v-1h-7zm2.4375 1.75-0.875 0.5 1.8438 3.25-1.8438 3.25 0.875 0.5l1.5625-2.75 1.5625 2.75 0.875-0.5-1.844-3.25 1.844-3.25-0.876-0.5-1.562 2.75-1.5625-2.75z" style="color:#000000;block-progression:tb;enable-background:accumulate;text-transform:none;text-indent:0" fill="#fff"/>
 <path opacity="0.13" style="color:#bebebe;enable-background:accumulate" d="m3 1c-1.1253 0-2 0.8747-2 2v1c0-1.1253 0.8747-2 2-2h10c1.1253 0 2 0.8747 2 2v-1c0-1.1253-0.875-2-2-2h-10z" fill="#fff"/>
 <path opacity=".3" d="m13 16c1.1253 0 2-0.8747 2-2v-1c0 1.1253-0.8747 2-2 2h-10c-1.1253 0-2-0.875-2-2v1c0 1.1253 0.8747 2 2 2h10z" style="color:#bebebe;enable-background:accumulate"/>
 <path opacity=".1" style="color:#bebebe;enable-background:accumulate" d="m3 14.5c-1.1253 0-2-0.8747-2-2v-1c0 1.1253 0.8747 2 2 2h10c1.1253 0 2-0.8747 2-2v1c0 1.1253-0.8747 2-2 2h-10z" fill="#fff"/>
 <path opacity="0.41" style="color:#bebebe;enable-background:accumulate" d="m3 0c-1.662 0-3 1.338-3 3v10c0 1.662 1.338 3 3 3h10c1.662 0 3-1.338 3-3v-10c0-1.662-1.338-3-3-3h-10zm0 1h10c1.1253 0 2 0.8747 2 2v10c0 1.1253-0.8747 2-2 2h-10c-1.1253 0-2-0.875-2-2v-10c0-1.1253 0.8747-2 2-2z"/>
</svg>
