<?xml version="1.0" encoding="UTF-8" standalone="no"?>
<!-- Created with Inkscape (http://www.inkscape.org/) -->
<svg xmlns:dc="http://purl.org/dc/elements/1.1/" xmlns:cc="http://creativecommons.org/ns#" xmlns:rdf="http://www.w3.org/1999/02/22-rdf-syntax-ns#" xmlns:svg="http://www.w3.org/2000/svg" xmlns="http://www.w3.org/2000/svg" version="1.1" width="300" height="79.884262" id="svg2">
  <defs id="defs4">
    <clipPath id="clipPath3003">
      <path d="m 0,55.435 216,0 0,-55.375 -216,0 0,55.375 z" id="path3005"/>
    </clipPath>
  </defs>
  <metadata id="metadata7">
    <rdf:RDF>
      <cc:Work rdf:about="">
        <dc:format>image/svg+xml</dc:format>
        <dc:type rdf:resource="http://purl.org/dc/dcmitype/StillImage"/>
        <dc:title/>
      </cc:Work>
    </rdf:RDF>
  </metadata>
  <g transform="translate(-428.71429,-460.51587)" id="layer1">
    <g transform="matrix(1.3703704,0,0,-1.3703704,430.71429,538.48235)" id="g2993">
      <g transform="translate(165.274,21.91)" id="g2995">
        <path d="m 0,0 c -0.738,-0.465 -1.518,-0.863 -2.335,-1.202 -1.098,-0.443 -2.139,-0.675 -3.102,-0.675 -1.478,0 -2.614,0.209 -3.382,0.656 -0.769,0.424 -1.172,1.161 -1.159,2.216 0,1.218 0.281,2.163 0.863,2.904 0.586,0.713 1.457,1.287 2.537,1.715 1.074,0.364 2.395,0.664 3.92,0.879 1.356,0.171 4.037,0.48 4.38,0.482 C 2.065,6.978 2.293,7.167 2.14,6.253 2.072,5.856 1.298,2.678 0.943,1.233 0.84,0.8 0.264,0.169 0,0 z m 10.522,22.336 c -2.258,1.26 -5.79,1.897 -10.623,1.897 -2.39,0 -4.792,-0.192 -7.202,-0.566 -1.769,-0.271 -1.951,-0.316 -3.05,-0.555 -2.261,-0.492 -2.61,-2.756 -2.61,-2.756 l -0.726,-2.986 c -0.412,-1.91 0.676,-1.831 1.161,-1.683 0.987,0.298 1.522,0.594 3.536,1.05 1.925,0.437 3.959,0.764 5.582,0.751 2.38,0 4.19,-0.261 5.393,-0.763 1.204,-0.525 1.8,-1.419 1.8,-2.698 C 3.787,13.723 3.795,13.436 3.685,13.185 3.586,12.951 3.396,12.725 2.827,12.648 -0.57,12.446 -3.008,12.136 -5.944,11.708 -8.841,11.3 -11.376,10.601 -13.495,9.633 -15.754,8.631 -17.444,7.29 -18.609,5.591 c -1.134,-1.707 -1.704,-3.774 -1.707,-6.209 0,-2.301 0.827,-4.178 2.427,-5.635 1.619,-1.438 3.725,-2.15 6.273,-2.15 1.592,0.011 2.838,0.126 3.731,0.349 0.884,0.223 1.848,0.54 2.866,0.981 0.761,0.318 1.582,0.778 2.449,1.355 0.868,0.579 1.469,0.99 2.24,1.495 l 0.028,-0.048 -0.217,-0.957 C -0.52,-5.237 -0.533,-5.242 -0.533,-5.251 l 0.007,-0.018 c -0.248,-1.153 0.445,-2.112 1.587,-2.225 l 0.014,-0.02 0.101,0 0.004,-0.005 c 0.758,0 3.36,0.001 4.576,0.005 l 0.849,0 c 0.056,0 0.062,0.017 0.084,0.03 1.166,0.143 2.284,1.093 2.547,2.233 l 4.343,18.745 c 0.1,0.441 0.179,0.95 0.226,1.536 0.054,0.592 0.118,1.079 0.099,1.431 0.01,2.653 -1.13,4.614 -3.382,5.875" id="path2997" style="fill:#336699;fill-opacity:1;fill-rule:nonzero;stroke:none"/>
      </g>
      <g id="g2999">
        <g clip-path="url(#clipPath3003)" id="g3001">
          <g transform="translate(101.082,45.728)" id="g3007">
            <path d="m 0,0 c -1.274,0 -2.945,-1.031 -3.736,-2.277 0,0 -8.522,-14.61 -9.359,-16.07 -0.455,-0.785 -0.916,-0.286 -0.993,0.006 -0.062,0.355 -2.641,15.968 -2.641,15.968 -0.29,1.257 -1.603,2.336 -3.245,2.331 l -5.314,-0.008 c -1.281,0 -2.08,-1.026 -1.795,-2.266 0,0 4.062,-23.024 4.854,-28.439 0.395,-2.995 -0.041,-3.526 -0.041,-3.526 l -5.266,-9.182 c -0.771,-1.245 -0.349,-2.265 0.926,-2.265 l 6.158,0.005 c 1.275,0 2.964,1.015 3.723,2.262 l 23.69,40.067 c 0,0 2.266,3.423 0.176,3.394 C 5.712,-0.02 0,0 0,0" id="path3009" style="fill:#1c3664;fill-opacity:1;fill-rule:nonzero;stroke:none"/>
          </g>
          <g transform="translate(39.137,49.474)" id="g3011">
            <path d="m 0,0 c -0.739,1.442 -1.847,2.613 -3.261,3.497 -1.467,0.905 -3.173,1.529 -5.162,1.905 -2.001,0.359 -4.338,0.535 -7.019,0.559 L -27.856,5.952 c -1.29,-0.015 -2.554,-1.027 -2.852,-2.267 l -8.371,-36.391 c -0.288,-1.245 0.518,-2.274 1.803,-2.274 l 5.947,0 c 1.286,0 2.56,1.002 2.849,2.274 l 2.049,8.831 c 0.274,1.235 1.545,2.257 2.834,2.257 l 1.7,0 c 7.273,0.007 12.914,1.495 16.968,4.473 4.048,2.972 6.073,6.912 6.063,11.784 C 1.144,-3.221 0.773,-1.43 0,0 m -12.841,-11.89 c -1.793,-1.311 -4.278,-1.968 -7.504,-1.968 l -1.458,0 c -1.285,0 -2.096,1.019 -1.813,2.271 l 1.79,7.714 c 0.273,1.243 1.555,2.274 2.84,2.262 l 1.946,0.012 c 2.273,0 4.001,-0.389 5.167,-1.163 1.149,-0.753 1.733,-1.942 1.713,-3.541 0.034,-2.408 -0.879,-4.272 -2.681,-5.587" id="path3013" style="fill:#1c3664;fill-opacity:1;fill-rule:nonzero;stroke:none"/>
          </g>
        </g>
      </g>
      <g transform="translate(147.108,49.341)" id="g3015">
        <path d="m 0,0 c -0.741,1.442 -1.86,2.603 -3.275,3.507 -1.451,0.902 -3.175,1.531 -5.171,1.898 -1.974,0.346 -4.321,0.544 -6.995,0.55 L -27.883,5.949 c -1.281,-0.022 -2.538,-1.028 -2.834,-2.267 l -8.365,-36.402 c -0.305,-1.237 0.527,-2.268 1.785,-2.261 l 5.97,0.011 c 1.266,-0.011 2.556,1.013 2.855,2.25 l 2.018,8.834 c 0.283,1.238 1.57,2.275 2.857,2.257 l 1.697,0 c 7.282,0 12.928,1.496 16.971,4.474 4.033,2.993 6.063,6.919 6.063,11.802 C 1.121,-3.221 0.758,-1.425 0,0 m -12.836,-11.906 c -1.782,-1.296 -4.283,-1.946 -7.501,-1.946 l -1.48,0 c -1.28,-0.015 -2.107,1.02 -1.803,2.261 l 1.784,7.726 c 0.266,1.222 1.565,2.262 2.827,2.252 l 1.955,0.01 c 2.282,-0.01 3.989,-0.392 5.168,-1.151 1.159,-0.768 1.721,-1.959 1.73,-3.546 0.005,-2.419 -0.89,-4.28 -2.68,-5.606" id="path3017" style="fill:#336699;fill-opacity:1;fill-rule:nonzero;stroke:none"/>
      </g>
      <g transform="translate(57.28,21.938)" id="g3019">
        <path d="m 0,0 c -0.738,-0.465 -1.517,-0.861 -2.334,-1.201 -1.098,-0.441 -2.144,-0.675 -3.104,-0.675 -1.474,0 -2.613,0.21 -3.382,0.655 -0.768,0.425 -1.173,1.162 -1.16,2.218 0,1.215 0.284,2.163 0.865,2.903 0.587,0.714 1.454,1.289 2.534,1.716 1.077,0.366 2.402,0.662 3.922,0.877 1.356,0.171 4.04,0.479 4.382,0.484 C 2.063,6.978 2.292,7.169 2.139,6.255 2.073,5.858 1.298,2.678 0.943,1.234 0.836,0.799 0.26,0.168 0,0 z m 10.522,22.337 c -2.258,1.26 -5.789,1.896 -10.622,1.896 -2.391,0 -4.792,-0.19 -7.203,-0.565 -1.772,-0.269 -1.95,-0.315 -3.05,-0.554 -2.262,-0.494 -2.61,-2.756 -2.61,-2.756 l -0.726,-2.988 c -0.411,-1.909 0.678,-1.83 1.161,-1.682 0.985,0.298 1.523,0.593 3.537,1.051 1.922,0.435 3.959,0.761 5.58,0.75 2.382,0 4.19,-0.26 5.393,-0.762 C 3.187,16.202 3.78,15.306 3.78,14.028 3.788,13.724 3.794,13.436 3.687,13.187 3.586,12.951 3.394,12.726 2.825,12.65 c -3.393,-0.205 -5.83,-0.514 -8.771,-0.942 -2.897,-0.408 -5.431,-1.107 -7.551,-2.074 -2.259,-1.002 -3.947,-2.345 -5.11,-4.043 -1.138,-1.706 -1.707,-3.773 -1.709,-6.209 0,-2.3 0.828,-4.178 2.426,-5.634 1.62,-1.438 3.724,-2.151 6.272,-2.151 1.593,0.011 2.838,0.128 3.734,0.349 0.883,0.225 1.848,0.54 2.862,0.981 0.764,0.318 1.583,0.78 2.451,1.356 0.866,0.578 1.47,0.989 2.244,1.494 L -0.303,-4.27 -0.52,-5.226 c -0.002,-0.009 -0.014,-0.015 -0.014,-0.026 l 0.009,-0.015 c -0.248,-1.156 0.443,-2.114 1.586,-2.225 l 0.014,-0.022 0.1,0 0.003,-0.007 c 0.76,0 3.363,0.004 4.576,0.007 l 0.85,0 c 0.057,0 0.065,0.019 0.083,0.031 1.169,0.147 2.283,1.095 2.549,2.231 l 4.343,18.747 c 0.098,0.44 0.178,0.949 0.222,1.534 0.058,0.595 0.121,1.08 0.104,1.431 0.01,2.655 -1.132,4.616 -3.383,5.877" id="path3021" style="fill:#1c3664;fill-opacity:1;fill-rule:nonzero;stroke:none"/>
      </g>
      <g transform="translate(196.3,54.997)" id="g3023">
        <path d="M 0,0 -5.321,0 C -5.324,0 -5.327,-0.001 -5.329,-0.001 L -5.332,0 c -1.218,0 -2.454,-0.933 -2.799,-2.12 -0.014,-0.048 -0.038,-0.094 -0.049,-0.144 0,0 -0.127,-0.579 -0.347,-1.58 l -7.309,-33.13 c -0.169,-0.749 -0.282,-1.237 -0.316,-1.364 l 0.014,-0.018 c -0.253,-1.158 0.443,-2.116 1.586,-2.223 l 0.015,-0.022 5.523,0 c 1.21,0 2.438,0.924 2.794,2.096 0.017,0.057 0.044,0.11 0.057,0.167 L 1.81,-2.262 1.798,-2.258 C 2.069,-1.024 1.274,0 0,0" id="path3025" style="fill:#336699;fill-opacity:1;fill-rule:nonzero;stroke:none"/>
      </g>
      <g transform="translate(206.375,47.652)" id="g3027">
        <path d="m 0,0 c -0.181,-0.048 -0.379,-0.088 -0.596,-0.119 -0.216,-0.03 -0.41,-0.047 -0.577,-0.047 -0.594,0 -1.042,0.16 -1.349,0.477 -0.308,0.318 -0.461,0.828 -0.461,1.529 l 0,3.077 -0.659,0 0,0.82 0.659,0 0,1.663 0.973,0 0,-1.663 2.01,0 0,-0.82 -2.01,0 0,-2.637 c 0,-0.303 0.009,-0.541 0.021,-0.712 0.015,-0.172 0.063,-0.331 0.146,-0.479 0.075,-0.139 0.179,-0.239 0.313,-0.303 0.134,-0.065 0.337,-0.097 0.61,-0.097 0.158,0 0.324,0.024 0.498,0.071 0.171,0.046 0.296,0.085 0.372,0.116 L 0,0.876 0,0" id="path3029" style="fill:#336699;fill-opacity:1;fill-rule:nonzero;stroke:none"/>
      </g>
      <g transform="translate(216,47.601)" id="g3031">
        <path d="m 0,0 -0.973,0 0,3.296 c 0,0.248 -0.012,0.489 -0.035,0.72 -0.023,0.232 -0.072,0.416 -0.143,0.555 -0.08,0.148 -0.193,0.261 -0.342,0.336 -0.149,0.076 -0.362,0.114 -0.642,0.114 -0.274,0 -0.545,-0.068 -0.819,-0.205 -0.273,-0.136 -0.545,-0.309 -0.818,-0.52 0.01,-0.08 0.018,-0.172 0.025,-0.278 0.008,-0.105 0.011,-0.209 0.011,-0.313 l 0,-3.705 -0.973,0 0,3.296 c 0,0.256 -0.013,0.498 -0.035,0.728 -0.022,0.23 -0.071,0.413 -0.142,0.551 -0.081,0.149 -0.195,0.26 -0.344,0.335 -0.148,0.074 -0.362,0.111 -0.642,0.111 -0.266,0 -0.531,-0.066 -0.8,-0.197 C -6.94,4.693 -7.206,4.526 -7.473,4.322 l 0,-4.322 -0.975,0 0,5.788 0.975,0 0,-0.642 c 0.305,0.252 0.608,0.449 0.91,0.591 0.304,0.14 0.623,0.212 0.966,0.212 0.393,0 0.728,-0.083 1.003,-0.248 0.274,-0.167 0.479,-0.396 0.614,-0.69 0.393,0.332 0.753,0.572 1.078,0.718 0.324,0.146 0.671,0.22 1.041,0.22 0.636,0 1.105,-0.193 1.407,-0.577 C -0.152,4.986 0,4.448 0,3.757 L 0,0" id="path3033" style="fill:#336699;fill-opacity:1;fill-rule:nonzero;stroke:none"/>
      </g>
    </g>
  </g>
</svg>