<svg width="76.000000pt" height="68.000000pt" viewBox="0 0 76.000000 68.000000" xmlns="http://www.w3.org/2000/svg">
  <g transform="translate(0.000000,68.000000) scale(0.100000,-0.100000)" fill="#fefefe" stroke="none">
    <path d="M0 340 l0 -340 380 0 380 0 0 340 0 340 -164 0 -163 0 -6 -50 -6 -51
11 -24 c6 -13 22 -26 35 -30 14 -3 42 -17 64 -30 21 -14 43 -25 47 -25 21 0
73 -33 92 -58 11 -15 25 -33 30 -40 l11 -12 -16 -6 c-17 -7 -107 0 -157 12
l-28 6 0 -15 c0 -8 17 -30 38 -49 20 -18 47 -46 60 -62 l22 -29 0 -36 c0 -48
-9 -79 -25 -85 -7 -2 -46 17 -86 43 -41 26 -82 50 -92 54 -10 4 -37 2 -61 -5
l-42 -11 -49 16 c-27 10 -61 17 -77 17 l-28 0 0 -25 c0 -30 -15 -32 -32 -5
-15 24 -34 25 -81 5 -20 -8 -39 -15 -42 -15 -11 0 -4 28 11 41 27 22 51 82 63
160 l12 75 -10 27 -11 27 10 0 c16 0 12 81 -7 133 l-17 47 -33 0 -33 0 0 -340z" />
  </g>
  <g transform="translate(0.000000,68.000000) scale(0.100000,-0.100000)" fill="#0c0d10" stroke="none">
    <path d="M390 661 c0 -21 13 -41 26 -41 15 0 17 10 8 34 -7 17 -34 22 -34 7z" />
    <path d="M323 503 c-7 -2 -13 -11 -13 -18 0 -8 -9 -19 -20 -25 l-20 -11 0 17
0 17 -48 -5 -48 -5 -22 -19 c-26 -22 -29 -51 -4 -57 l17 -5 -30 -1 -30 -1 -2
-84 -2 -84 24 -27 c14 -14 25 -30 25 -36 0 -5 7 -9 15 -9 l16 0 -3 28 -3 27
22 3 c12 2 35 -4 52 -12 30 -16 97 -21 139 -10 l22 6 0 19 c0 11 -4 19 -10 19
-5 0 -10 5 -10 10 0 22 22 8 33 -20 l11 -30 53 0 53 0 0 15 0 15 -40 0 -41 0
-6 16 -6 17 17 13 17 12 -10 39 -11 38 35 -37 c19 -21 39 -38 45 -38 6 0 9 -4
6 -9 -3 -5 -3 -23 0 -40 l7 -32 15 3 16 3 8 34 9 33 -17 19 c-9 10 -25 21 -35
24 -11 4 -19 11 -19 16 0 6 -7 17 -15 25 -8 9 -15 26 -15 40 l0 24 14 0 c8 0
17 6 19 13 l5 12 1 -17 1 -18 19 0 c30 0 51 -11 51 -27 l0 -14 17 3 c10 2 19
11 21 21 l3 17 -15 0 c-9 0 -16 7 -16 15 l0 15 -27 6 c-15 4 -37 19 -50 33
l-24 25 -21 -13 -21 -13 -6 10 c-3 5 -19 9 -36 9 -16 0 -46 2 -65 6 -19 3 -41
3 -47 0z m-70 -69 l-6 -16 -7 12 -7 11 -28 -7 -28 -7 7 12 c4 6 23 11 41 11
l34 0 -6 -16z m197 -26 l0 -18 -16 0 -16 0 5 -20 c3 -11 1 -20 -3 -20 -5 0
-15 -3 -24 -6 l-16 -6 0 11 c0 6 7 11 15 11 l15 0 0 20 0 20 -20 0 -20 0 0
-20 c0 -11 -5 -20 -11 -20 l-11 0 6 -37 6 -38 -15 -19 c-8 -11 -17 -18 -19
-15 -3 2 1 24 7 47 l11 43 -13 9 -14 8 16 34 16 33 50 0 51 0 0 -17z" />
    <path d="M10 185 c0 -8 7 -15 15 -15 8 0 15 7 15 15 0 8 -7 15 -15 15 -8 0
-15 -7 -15 -15z" />
    <path d="M590 135 c0 -8 7 -15 15 -15 8 0 15 7 15 15 0 8 -7 15 -15 15 -8 0
-15 -7 -15 -15z" />
  </g>
  <g transform="translate(0.000000,68.000000) scale(0.100000,-0.100000)" fill="#111216" stroke="none">
    <path d="M388 673 c-22 -5 -23 -20 -4 -39 16 -16 40 -19 31 -4 -3 6 -1 10 4
10 6 0 11 9 11 20 0 20 -8 22 -42 13z" />
    <path d="M286 495 l-30 -16 -29 7 -30 6 6 -16 c4 -10 3 -15 -1 -12 -4 2 -16
-2 -27 -10 -10 -8 -15 -14 -11 -14 5 0 3 -6 -3 -14 l-11 -13 -25 5 -25 4 0
-26 0 -25 15 5 15 6 -6 -16 c-3 -9 -15 -16 -26 -16 l-20 0 5 -20 c3 -11 1 -20
-4 -20 -5 0 -9 -9 -9 -20 0 -11 5 -20 10 -20 6 0 10 -9 10 -20 l0 -19 -36 -7
c-38 -7 -54 -28 -36 -46 l11 -11 40 15 39 15 16 -19 c9 -11 21 -18 27 -16 6 2
19 18 30 35 l20 31 -12 8 -12 7 6 -10 6 -10 -24 -11 -24 -11 -17 16 -16 16 7
56 7 56 19 20 20 20 -7 -17 -6 -18 11 0 c6 0 11 7 11 15 0 8 4 15 10 15 l10 0
-11 -27 -10 -28 53 56 c29 31 64 62 77 68 l23 13 -6 -11 -7 -11 16 0 17 0 -6
16 -6 15 18 -2 c31 -3 43 1 37 11 l-6 10 15 0 c9 0 16 5 16 10 0 6 -9 10 -20
10 l-20 0 0 -15 c0 -8 -7 -15 -16 -15 l-16 0 6 15 5 15 -17 0 c-9 0 -30 -7
-46 -15z m-66 -90 c-14 -16 -50 -21 -50 -6 0 9 52 31 59 25 2 -2 -2 -10 -9
-19z" />
    <path d="M463 490 l-5 -20 -12 7 -11 7 12 -16 13 -15 -26 -11 c-14 -7 -34 -12
-44 -12 l-19 0 6 16 6 16 -22 -11 c-12 -7 -29 -30 -39 -51 -9 -22 -20 -40 -24
-40 -5 0 -8 -4 -8 -10 0 -5 9 -10 20 -10 11 0 20 -4 20 -9 0 -21 -23 -71 -33
-71 -12 -1 32 -29 46 -30 4 0 7 7 7 15 0 7 6 18 14 22 8 4 13 19 12 33 l-1 25
15 0 c8 0 18 4 21 9 4 5 10 0 13 -12 4 -11 17 -23 29 -26 l22 -6 -17 -11 c-10
-5 -18 -19 -18 -29 l0 -20 -18 18 c-11 9 -17 21 -14 25 2 5 -5 4 -17 -2 -11
-7 -21 -15 -21 -19 0 -4 12 -19 25 -34 l24 -28 54 0 c30 0 69 3 86 6 l31 7 0
14 0 15 -14 -11 -14 -11 -4 25 c-6 27 1 32 19 14 l12 -12 -2 21 c0 11 -5 18
-9 16 -11 -7 -39 22 -30 30 3 4 -1 4 -10 1 l-16 -7 -11 20 c-6 11 -7 23 -3 27
4 3 0 5 -8 3 l-15 -3 -3 28 c-2 15 -7 25 -11 23 -4 -3 -7 9 -6 26 l2 31 27 19
c29 22 26 38 -6 38 l-20 0 -5 -20z m-63 -110 c0 -5 -4 -10 -10 -10 -5 0 -10 5
-10 10 0 6 5 10 10 10 6 0 10 -4 10 -10z m60 -10 c0 -5 -7 -7 -15 -4 -8 4 -15
8 -15 10 0 2 7 4 15 4 8 0 15 -4 15 -10z m-93 -37 c-4 -3 -7 0 -7 7 0 7 3 10
7 7 3 -4 3 -10 0 -14z m82 -12 c-15 -5 -22 6 -14 19 l8 12 8 -13 8 -14 -10 -4z
m-42 -78 c-4 -3 -10 -3 -14 0 -3 4 0 7 7 7 7 0 10 -3 7 -7z m40 -40 c-4 -3 -7
0 -7 7 0 7 3 10 7 7 3 -4 3 -10 0 -14z m60 0 c-4 -3 -10 -3 -14 0 -3 4 0 7 7
7 7 0 10 -3 7 -7z" />
    <path d="M404 458 l-7 -11 11 7 c7 4 12 9 12 12 0 8 -9 4 -16 -8z" />
    <path d="M530 453 c-14 -3 -29 -11 -33 -19 l-8 -14 -12 6 c-7 4 -4 -1 5 -11
l17 -18 40 21 c39 21 71 21 71 0 l0 -10 -14 11 -14 12 -21 -13 c-12 -7 -21
-18 -21 -25 0 -7 16 -15 36 -19 l35 -6 15 18 c9 11 13 14 10 8 l-6 -12 23 -6
c34 -9 37 -8 37 20 l0 26 -20 -5 -20 -5 0 12 c0 10 -69 38 -87 35 -5 -1 -19
-4 -33 -6z" />
    <path d="M290 420 c0 -7 3 -10 7 -7 3 4 3 10 0 14 -4 3 -7 0 -7 -7z" />
    <path d="M225 220 c-8 -13 -1 -24 14 -19 l10 4 -8 14 -8 13 -8 -12z" />
    <path d="M609 173 c0 -10 -2 -26 -4 -35 l-3 -18 13 0 c12 0 25 29 25 58 0 19
-30 14 -31 -5z" />
    <path d="M490 155 c0 -8 7 -15 15 -15 8 0 15 7 15 15 0 8 -7 15 -15 15 -8 0
-15 -7 -15 -15z" />
  </g>
  <g transform="translate(0.000000,68.000000) scale(0.100000,-0.100000)" fill="#adbbc9" stroke="none">
    <path d="M150 670 c0 -5 7 -10 15 -10 22 0 19 -11 -11 -43 l-26 -28 -5 -41 -6
-40 -28 6 c-16 3 -29 4 -29 2 0 -2 7 -20 15 -39 l15 -36 -6 -30 -6 -31 10 0
c6 0 13 13 17 29 l6 30 30 6 c16 4 29 11 29 16 0 5 7 9 15 9 8 0 15 6 15 14 0
7 9 16 20 19 11 3 20 1 20 -4 0 -5 7 -9 15 -9 19 0 30 43 16 68 -6 12 -11 23
-11 26 0 4 25 3 55 0 l55 -7 0 15 c0 22 -22 38 -88 65 -58 23 -132 31 -132 13z
m20 -134 c0 -3 -4 -8 -10 -11 -5 -3 -10 -1 -10 4 0 6 5 11 10 11 6 0 10 -2 10
-4z" />
    <path d="M93 660 c-13 -5 -23 -16 -23 -25 0 -16 12 -18 48 -9 l22 6 0 19 c0
21 -12 23 -47 9z" />
    <path d="M530 495 c0 -8 7 -15 15 -15 8 0 15 4 15 9 0 5 -7 11 -15 15 l-15 5
0 -14z" />
    <path d="M570 470 c0 -5 7 -10 15 -10 8 0 15 5 15 10 0 6 -7 10 -15 10 -8 0
-15 -4 -15 -10z" />
    <path d="M630 446 c0 -9 7 -16 16 -16 9 0 14 5 12 12 -6 18 -28 21 -28 4z" />
    <path d="M510 365 l0 -14 15 5 c8 4 15 10 15 15 0 5 -7 9 -15 9 -8 0 -15 -7
-15 -15z" />
    <path d="M70 330 c0 -16 5 -30 10 -30 6 0 10 14 10 30 0 17 -4 30 -10 30 -5 0
-10 -13 -10 -30z" />
    <path d="M630 351 c0 -13 20 -18 47 -13 36 7 27 22 -12 22 -19 0 -35 -4 -35
-9z" />
    <path d="M30 235 l-12 -15 16 0 c9 0 16 7 16 15 0 8 -2 15 -4 15 -2 0 -9 -7
-16 -15z" />
    <path d="M610 235 c0 -8 7 -15 15 -15 l14 0 -5 15 c-4 8 -10 15 -15 15 -5 0
-9 -7 -9 -15z" />
    <path d="M173 205 c-16 -17 -17 -35 -3 -35 6 0 10 7 10 15 0 8 7 15 15 15 8 0
15 5 15 10 0 15 -23 12 -37 -5z" />
    <path d="M230 200 c0 -5 7 -10 15 -10 8 0 15 5 15 10 0 6 -7 10 -15 10 -8 0
-15 -4 -15 -10z" />
    <path d="M367 193 c-12 -12 -7 -22 8 -17 8 4 15 10 15 15 0 11 -14 12 -23 2z" />
    <path d="M40 180 c0 -5 7 -10 15 -10 8 0 15 5 15 10 0 6 -7 10 -15 10 -8 0
-15 -4 -15 -10z" />
    <path d="M133 163 c9 -9 19 -14 23 -11 10 10 -6 28 -24 28 l-16 0 17 -17z" />
    <path d="M530 121 c0 -5 7 -11 15 -15 l15 -5 0 14 c0 8 -7 15 -15 15 -8 0 -15
-4 -15 -9z" />
    <path d="M600 95 l0 -14 15 5 c8 4 15 10 15 15 0 5 -7 9 -15 9 -8 0 -15 -7
-15 -15z" />
  </g>
  <g transform="translate(0.000000,68.000000) scale(0.100000,-0.100000)" fill="#b4c5d7" stroke="none">
    <path d="M60 667 c0 -8 7 -31 15 -50 8 -20 15 -55 15 -77 l0 -40 10 0 11 0
-10 -18 c-14 -26 -7 -56 12 -60 l17 -3 1 18 c1 10 1 31 0 47 l-1 28 14 -5 c8
-3 21 2 30 12 21 23 20 31 -1 31 l-18 0 25 20 25 20 -22 0 c-27 0 -29 13 -5
31 l17 14 -15 -20 -14 -20 14 13 c8 7 15 25 16 40 l1 27 -69 3 -68 3 0 -14z
m70 -16 c0 -9 -41 -23 -49 -16 -3 4 28 20 47 24 1 1 2 -3 2 -8z m7 -113 l-5
-13 -1 19 c-1 11 2 17 5 13 3 -3 4 -12 1 -19z m-12 -78 c3 -5 2 -10 -4 -10 -5
0 -13 5 -16 10 -3 6 -2 10 4 10 5 0 13 -4 16 -10z" />
    <path d="M260 640 l-14 -9 27 -10 28 -11 -6 -10 c-3 -5 -2 -10 3 -10 6 0 9 11
8 24 l-1 23 -14 -5 -14 -5 7 11 c9 14 -3 15 -24 2z" />
    <path d="M325 590 l-6 -10 16 0 16 0 -6 10 c-3 6 -8 10 -10 10 -2 0 -7 -4 -10
-10z" />
    <path d="M170 501 c0 -5 -3 -17 -7 -27 l-6 -17 13 5 c16 5 22 36 9 44 -5 3 -9
1 -9 -5z" />
    <path d="M200 495 c0 -8 7 -15 15 -15 8 0 15 7 15 15 0 8 -7 15 -15 15 -8 0
-15 -7 -15 -15z" />
  </g>
  <g transform="translate(0.000000,68.000000) scale(0.100000,-0.100000)" fill="#181822" stroke="none">
    <path d="M350 666 c0 -7 7 -19 15 -26 l14 -12 23 6 c13 3 17 3 11 0 -18 -8
-16 -24 2 -24 l15 0 0 35 0 35 -40 0 -40 0 0 -14z m70 -6 c0 -5 -10 -10 -22
-9 l-23 0 20 9 c11 5 21 9 23 9 1 1 2 -3 2 -9z" />
    <path d="M300 500 c0 -5 4 -10 9 -10 6 0 13 5 16 10 l6 10 -15 0 c-9 0 -16 -4
-16 -10z" />
    <path d="M490 505 c0 -2 9 -9 20 -15 l20 -11 0 16 0 15 -20 0 c-11 0 -20 -2
-20 -5z" />
    <path d="M240 487 l0 -14 32 -7 32 -6 10 11 11 12 -22 -6 -22 -5 2 11 c1 6 -8
13 -20 15 l-23 3 0 -14z" />
    <path d="M467 479 c7 -7 15 -10 18 -7 3 3 -2 9 -12 12 l-18 7 12 -12z" />
    <path d="M541 436 l-12 -14 -22 6 -22 5 14 -16 13 -17 -11 0 c-14 0 -15 -37
-1 -45 l10 -6 0 15 c0 9 7 16 15 16 8 0 15 5 15 10 0 6 5 10 10 10 6 0 10 -7
10 -15 0 -8 7 -15 15 -15 19 0 15 20 -8 42 -11 9 -16 22 -12 27 9 16 -1 13
-14 -3z" />
    <path d="M112 418 c-7 -7 -12 -22 -12 -35 0 -13 -4 -23 -9 -23 -5 0 -12 -23
-16 -50 l-7 -50 -24 -19 c-13 -10 -24 -24 -24 -30 0 -6 -4 -11 -10 -11 -5 0
-10 -7 -10 -15 l0 -15 24 0 c14 0 28 5 32 11 l7 11 -23 -7 -22 -7 4 13 c2 7
11 13 19 15 7 1 19 3 24 5 6 1 18 -1 28 -6 22 -9 35 1 19 17 -7 7 -12 25 -12
41 l0 28 -10 -6 c-5 -3 -10 -1 -10 4 0 6 5 11 11 11 l11 0 -5 21 -6 21 14 -6
13 -5 7 16 c3 9 2 19 -3 22 -5 3 -9 14 -9 23 l0 18 12 -10 11 -9 1 20 c2 22
-7 25 -25 7z" />
    <path d="M622 417 l-23 -10 6 -15 c3 -7 5 -18 5 -23 0 -14 38 -11 43 4 l5 12
1 -17 1 -18 20 0 20 0 0 14 c0 7 -9 16 -20 19 l-20 5 6 15 5 14 -13 5 c-7 3
-23 1 -36 -5z m22 -16 c3 -5 0 -11 -7 -14 l-14 -5 0 14 c0 16 13 19 21 5z" />
    <path d="M315 360 c-3 -5 -1 -10 4 -10 6 0 11 5 11 10 0 6 -2 10 -4 10 -3 0
-8 -4 -11 -10z" />
    <path d="M520 325 c0 -8 5 -15 10 -15 6 0 10 7 10 15 0 8 -4 15 -10 15 -5 0
-10 -7 -10 -15z" />
    <path d="M587 264 c-11 -11 -8 -54 3 -54 6 0 13 6 16 14 7 17 -9 50 -19 40z" />
    <path d="M393 243 c-7 -2 -13 -9 -13 -15 0 -6 7 -8 14 -5 l15 6 -6 -15 c-3 -7
-11 -14 -18 -14 -8 0 -16 -4 -19 -9 -4 -5 2 -8 11 -6 10 2 23 4 29 4 15 1 25
27 18 46 -6 16 -11 17 -31 8z" />
    <path d="M545 210 l-6 -10 16 0 16 0 -6 10 c-3 6 -8 10 -10 10 -2 0 -7 -4 -10
-10z" />
    <path d="M250 195 c7 -8 20 -15 29 -15 l16 1 -19 14 c-26 19 -42 19 -26 0z" />
    <path d="M141 186 l-12 -14 10 -6 c14 -9 38 3 38 19 0 19 -21 19 -36 1z m16
-13 c-4 -3 -7 0 -7 7 0 7 3 10 7 7 3 -4 3 -10 0 -14z" />
    <path d="M430 190 c0 -5 7 -10 15 -10 8 0 15 5 15 10 0 6 -7 10 -15 10 -8 0
-15 -4 -15 -10z" />
    <path d="M483 185 c-17 -19 -16 -35 2 -35 8 0 15 7 15 15 0 8 5 15 10 15 6 0
10 5 10 10 0 15 -23 12 -37 -5z" />
    <path d="M580 135 c0 -18 27 -32 38 -20 4 4 1 10 -6 12 -6 3 -10 9 -6 14 3 5
-2 9 -10 9 -9 0 -16 -7 -16 -15z" />
    <path d="M530 127 c0 -8 7 -14 15 -14 8 0 15 6 15 14 0 7 -7 13 -15 13 -8 0
-15 -6 -15 -13z" />
  </g>
  <g transform="translate(0.000000,68.000000) scale(0.100000,-0.100000)" fill="#a2b2c2" stroke="none">
    <path d="M225 664 c22 -9 55 -20 72 -26 18 -6 40 -20 50 -30 l16 -18 -16 0
c-10 0 -17 -4 -17 -10 l0 -10 45 0 45 0 0 12 c0 6 -14 24 -32 40 l-32 28 -26
0 c-14 0 -35 7 -46 15 -10 8 -37 14 -59 14 l-40 0 40 -15z" />
    <path d="M180 615 c-16 -19 -1 -19 24 0 l20 15 -16 0 c-8 0 -21 -7 -28 -15z" />
    <path d="M243 583 c0 -10 6 -24 14 -31 19 -20 16 -32 -9 -33 -57 -2 -97 -17
-70 -26 l13 -5 -18 -14 c-23 -17 -8 -17 42 1 22 7 39 18 38 23 -1 4 11 6 28 4
l29 -4 0 21 c0 11 5 21 10 21 18 0 11 30 -7 31 l-18 1 13 5 c22 9 2 23 -32 23
l-33 0 0 -17z" />
    <path d="M480 520 c0 -5 7 -10 15 -10 8 0 15 5 15 10 0 6 -7 10 -15 10 -8 0
-15 -4 -15 -10z" />
    <path d="M83 475 c-8 -22 6 -33 17 -15 13 20 12 30 0 30 -6 0 -13 -7 -17 -15z" />
    <path d="M135 480 c-3 -5 -1 -10 4 -10 6 0 11 5 11 10 0 6 -2 10 -4 10 -3 0
-8 -4 -11 -10z" />
    <path d="M125 450 l-6 -10 15 0 c9 0 16 5 16 10 0 6 -4 10 -9 10 -6 0 -13 -4
-16 -10z" />
    <path d="M94 432 c3 -6 0 -12 -6 -15 l-13 -4 12 -14 c15 -15 20 -12 25 15 l3
19 -14 5 -14 5 7 -11z" />
    <path d="M528 183 c-21 -5 -24 -33 -4 -33 25 0 46 12 46 26 0 14 -10 16 -42 7z" />
  </g>
  <g transform="translate(0.000000,68.000000) scale(0.100000,-0.100000)" fill="#e5e6e8" stroke="none">
    <path d="M61 654 l1 -19 5 13 c3 7 2 16 -1 19 -3 4 -6 -2 -5 -13z" />
    <path d="M420 650 c0 -11 5 -20 10 -20 6 0 10 9 10 20 0 11 -4 20 -10 20 -5 0
-10 -9 -10 -20z" />
    <path d="M420 595 c0 -13 5 -36 12 -50 l11 -25 24 0 24 0 -6 10 c-3 6 -12 10
-19 10 -17 0 -37 45 -30 65 l6 15 -11 0 c-6 0 -11 -11 -11 -25z" />
    <path d="M80 600 c0 -7 3 -10 7 -7 3 4 3 10 0 14 -4 3 -7 0 -7 -7z" />
    <path d="M92 543 l-2 -32 -15 5 c-8 4 -15 1 -15 -4 0 -16 14 -22 29 -13 l12 8
-4 34 -4 34 -1 -32z" />
    <path d="M500 517 c0 -8 11 -19 25 -25 32 -15 48 -15 40 -2 -4 6 -11 8 -16 5
-5 -4 -9 -2 -9 2 0 5 -9 14 -20 21 l-20 12 0 -13z" />
    <path d="M585 470 l-6 -10 21 0 21 0 -6 10 c-3 6 -10 10 -15 10 -5 0 -12 -4
-15 -10z" />
    <path d="M80 460 c0 -5 5 -10 11 -10 5 0 7 5 4 10 -3 6 -8 10 -11 10 -2 0 -4
-4 -4 -10z" />
    <path d="M630 449 c0 -6 9 -13 21 -16 l20 -6 6 -28 6 -29 14 0 14 0 -12 23
c-14 28 -50 67 -61 67 -4 0 -8 -5 -8 -11z" />
    <path d="M80 409 c0 -5 5 -7 10 -4 6 3 10 8 10 11 0 2 -4 4 -10 4 -5 0 -10 -5
-10 -11z" />
    <path d="M500 367 c0 -20 43 -67 61 -67 l13 0 -27 28 c-27 28 -38 53 -14 34 6
-5 27 -13 45 -17 l32 -7 0 10 c0 5 -13 12 -29 15 -16 3 -40 9 -55 13 l-26 6 0
-15z" />
    <path d="M75 361 c-3 -5 -1 -12 5 -16 l10 -6 0 15 c0 18 -6 21 -15 7z" />
    <path d="M688 348 l12 -12 12 12 12 12 -24 0 -24 0 12 -12z" />
    <path d="M650 339 c0 -5 5 -7 10 -4 6 3 10 8 10 11 0 2 -4 4 -10 4 -5 0 -10
-5 -10 -11z" />
    <path d="M56 281 c-18 -35 -19 -41 -7 -41 11 0 36 59 28 66 -3 3 -13 -8 -21
-25z" />
    <path d="M580 280 c0 -5 3 -10 8 -10 4 0 13 -13 20 -30 13 -29 32 -41 32 -20
0 6 -4 10 -10 10 -5 0 -9 3 -8 8 3 10 -25 52 -34 52 -5 0 -8 -4 -8 -10z" />
    <path d="M6 211 c-4 -7 -5 -15 -2 -18 9 -9 19 4 14 18 l-4 13 -8 -13z" />
    <path d="M196 210 c5 -5 18 -11 29 -13 11 -2 33 -9 48 -15 35 -15 67 -15 67
-2 0 6 -15 10 -32 10 -18 1 -44 7 -58 15 -14 8 -34 14 -44 15 l-20 0 10 -10z" />
    <path d="M71 195 c-18 -8 -42 -15 -52 -15 -11 0 -19 -4 -19 -10 0 -11 33 -14
44 -3 3 4 12 8 19 9 7 2 22 6 35 10 l22 6 0 -11 c0 -6 5 -11 10 -11 l11 0 -11
20 c-6 11 -14 20 -18 20 -4 -1 -22 -7 -41 -15z" />
    <path d="M380 191 c0 -5 11 -8 25 -8 14 0 25 3 25 8 0 5 -11 9 -25 9 -14 0
-25 -4 -25 -9z" />
    <path d="M350 180 c0 -5 5 -10 10 -10 6 0 10 5 10 10 0 6 -4 10 -10 10 -5 0
-10 -4 -10 -10z" />
    <path d="M459 161 c14 -10 37 -26 53 -35 l28 -17 0 11 c0 7 -9 14 -20 17 -11
3 -20 9 -20 14 0 5 -7 9 -15 9 -8 0 -15 5 -15 10 0 6 -8 10 -17 10 l-18 0 24
-19z" />
    <path d="M155 150 c4 -6 11 -8 16 -5 14 9 11 15 -7 15 l-15 0 6 -10z" />
    <path d="M617 119 l-6 -21 -33 7 -33 6 19 -16 c23 -17 46 -20 46 -4 0 5 5 7
10 4 6 -3 10 -2 10 4 0 5 3 16 6 25 3 9 2 16 -4 16 -5 0 -12 -9 -15 -21z" />
  </g>
  <g transform="translate(0.000000,68.000000) scale(0.100000,-0.100000)" fill="#97a8b8" stroke="none">
    <path d="M229 673 c14 -3 34 -11 45 -18 12 -7 35 -16 52 -18 17 -3 43 -16 59
-31 l28 -26 -27 0 c-14 0 -26 -4 -26 -10 0 -5 16 -10 35 -10 l35 0 0 24 0 25
-20 6 c-12 4 -29 16 -40 27 -19 21 -82 38 -135 36 l-30 -1 24 -4z" />
    <path d="M287 593 c-7 -11 4 -28 23 -36 l15 -5 -17 -1 -16 -1 5 -20 5 -20 -19
0 c-11 0 -28 -7 -39 -15 l-19 -15 30 6 c17 3 49 12 73 21 l42 15 0 14 c0 8 -4
14 -9 14 -5 0 -11 10 -14 21 l-6 22 -14 -6 c-8 -3 -19 -1 -25 5 l-10 10 -5 -9z" />
    <path d="M450 520 c0 -5 12 -10 26 -10 l25 0 -6 10 c-3 6 -15 10 -26 10 -10 0
-19 -4 -19 -10z" />
    <path d="M70 492 c0 -4 4 -13 9 -20 l8 -14 6 15 6 15 -15 6 c-8 3 -14 2 -14
-2z" />
    <path d="M130 450 c-8 -5 -12 -12 -9 -15 8 -8 39 5 39 16 0 11 -11 11 -30 -1z" />
    <path d="M91 417 l-11 -14 15 0 c8 0 15 6 15 14 0 7 -2 13 -4 13 -2 0 -9 -6
-15 -13z" />
    <path d="M500 174 c0 -17 22 -14 28 4 2 7 -3 12 -12 12 -9 0 -16 -7 -16 -16z" />
    <path d="M555 181 c3 -5 -4 -12 -15 -16 -11 -3 -20 -11 -20 -17 l0 -10 23 6
c12 3 25 6 30 6 4 0 7 9 7 20 l0 20 -16 0 c-8 0 -13 -4 -9 -9z" />
  </g>
  <g transform="translate(0.000000,68.000000) scale(0.100000,-0.100000)" fill="#1e2230" stroke="none">
    <path d="M330 672 c0 -13 23 -32 38 -32 l14 0 -11 13 c-6 8 -8 17 -4 20 3 4
-3 7 -15 7 -12 0 -22 -4 -22 -8z" />
    <path d="M360 504 c0 -17 22 -14 28 4 2 7 -3 12 -12 12 -9 0 -16 -7 -16 -16z" />
    <path d="M460 494 l0 -16 15 12 c8 7 15 14 15 16 0 2 -7 4 -15 4 -8 0 -15 -7
-15 -16z" />
    <path d="M173 468 c-24 -12 -43 -28 -43 -35 l0 -13 20 12 c11 7 20 16 20 20 0
4 7 5 15 2 l15 -6 0 12 c0 6 4 9 8 6 5 -3 9 1 9 9 0 8 -1 15 -1 15 -1 0 -20
-10 -43 -22z" />
    <path d="M584 445 c22 -17 36 -19 36 -6 0 10 -24 21 -43 21 -7 0 -3 -7 7 -15z" />
    <path d="M637 421 c5 -19 25 -22 40 -7 8 8 -15 26 -34 26 l-11 0 5 -19z" />
    <path d="M505 420 l-6 -10 16 0 16 0 -6 10 c-3 6 -8 10 -10 10 -2 0 -7 -4 -10
-10z" />
    <path d="M496 385 c4 -8 10 -15 15 -15 5 0 9 7 9 15 0 8 -7 15 -15 15 l-14 0
5 -15z" />
    <path d="M583 385 c0 -8 6 -15 12 -15 6 0 12 7 12 15 0 8 -6 15 -12 15 -6 0
-12 -7 -12 -15z" />
    <path d="M100 350 c0 -5 4 -10 9 -10 6 0 13 5 16 10 l6 10 -15 0 c-9 0 -16 -4
-16 -10z" />
    <path d="M53 263 c-7 -15 -11 -29 -8 -31 9 -9 35 20 35 39 0 27 -13 23 -27 -8z" />
    <path d="M403 258 c-26 -12 -30 -28 -8 -28 8 0 19 9 25 20 6 11 9 20 8 19 -2
0 -13 -5 -25 -11z" />
    <path d="M593 250 c3 -10 0 -23 -7 -28 -16 -13 -76 -26 -108 -23 -14 1 -29 -3
-33 -9 l-8 -12 14 -9 c8 -5 20 -7 27 -4 l13 5 -6 -10 c-3 -6 -2 -10 4 -10 5 0
14 6 18 13 4 7 27 18 49 25 23 7 47 19 54 27 l12 14 -7 21 c-3 11 -11 20 -17
20 l-10 0 5 -20z" />
    <path d="M180 215 c-7 -8 -16 -12 -21 -9 -5 3 -9 0 -9 -5 0 -15 21 -13 43 3
l18 14 -9 6 c-5 3 -15 -1 -22 -9z" />
    <path d="M10 204 l0 -15 10 6 c6 3 10 10 10 16 0 5 -4 9 -10 9 -5 0 -10 -7
-10 -16z" />
    <path d="M74 194 l-19 -16 18 6 c10 3 23 6 28 6 5 0 9 5 9 10 0 14 -13 12 -36
-6z" />
    <path d="M405 200 l-6 -10 16 0 16 0 -6 10 c-3 6 -8 10 -10 10 -2 0 -7 -4 -10
-10z" />
    <path d="M152 173 c-6 -2 -10 -9 -6 -14 8 -14 21 -11 21 6 0 8 -1 15 -1 14 -1
0 -7 -3 -14 -6z" />
    <path d="M600 160 c0 -11 2 -20 4 -20 2 0 11 -3 20 -6 l16 -6 0 12 c0 12 -24
40 -34 40 -3 0 -6 -9 -6 -20z" />
    <path d="M503 147 c-7 -12 18 -28 34 -22 6 2 14 -1 17 -8 l4 -12 10 13 9 14 6
-16 c8 -21 37 -21 37 0 0 8 -4 13 -9 9 -5 -3 -16 3 -23 14 l-14 20 -32 -1
c-18 -1 -35 -5 -39 -11z" />
  </g>
  <g transform="translate(0.000000,68.000000) scale(0.100000,-0.100000)" fill="#848d9d" stroke="none">
    <path d="M256 670 c12 -5 36 -11 54 -13 18 -3 43 -16 56 -28 l24 -22 0 15 c0
8 -11 21 -25 28 -14 7 -25 17 -25 22 0 4 -24 8 -52 7 l-53 0 21 -9z" />
    <path d="M400 611 c0 -5 7 -11 15 -15 l15 -5 0 14 c0 8 -7 15 -15 15 -8 0 -15
-4 -15 -9z" />
    <path d="M310 583 c0 -4 12 -17 26 -29 l25 -22 -20 -7 c-22 -7 -29 -25 -11
-25 6 0 24 7 41 15 16 9 34 13 38 10 5 -3 7 -15 3 -27 l-5 -21 24 6 c13 4 27
7 32 7 13 0 7 21 -15 53 l-23 32 -30 0 c-16 1 -42 4 -57 8 -16 4 -28 4 -28 0z" />
    <path d="M245 490 l-6 -10 15 6 c18 7 21 14 7 14 -6 0 -13 -4 -16 -10z" />
    <path d="M550 475 l0 -15 21 0 21 0 -12 15 c-7 8 -16 15 -21 15 -5 0 -9 -7 -9
-15z" />
    <path d="M152 459 c-18 -12 -31 -24 -28 -26 3 -3 18 4 34 16 16 11 32 18 36
14 3 -3 6 -1 6 5 0 17 -10 15 -48 -9z" />
    <path d="M96 405 c-3 -8 -1 -15 3 -15 5 0 11 7 15 15 3 8 1 15 -3 15 -5 0 -11
-7 -15 -15z" />
    <path d="M673 405 c0 -8 4 -15 9 -15 4 0 8 4 8 9 0 6 -4 12 -8 15 -5 3 -9 -1
-9 -9z" />
    <path d="M570 361 c0 -12 56 -25 70 -16 22 13 8 25 -30 25 -22 0 -40 -4 -40
-9z" />
    <path d="M690 360 c0 -5 7 -10 15 -10 8 0 15 5 15 10 0 6 -7 10 -15 10 -8 0
-15 -4 -15 -10z" />
    <path d="M523 325 c0 -8 7 -15 15 -15 l14 0 -12 15 c-7 8 -13 15 -15 15 -1 0
-2 -7 -2 -15z" />
    <path d="M570 292 c0 -12 19 -26 26 -19 2 2 -2 10 -11 17 l-15 12 0 -10z" />
    <path d="M6 205 c-3 -8 -1 -15 3 -15 5 0 11 7 15 15 3 8 1 15 -3 15 -5 0 -11
-7 -15 -15z" />
    <path d="M542 197 l-53 -10 4 -10 c2 -6 9 -13 17 -15 l13 -5 -7 12 -7 11 15
-6 c9 -3 16 -10 16 -15 0 -5 14 -9 31 -9 l32 0 14 18 15 17 -6 -17 c-3 -10 -1
-20 5 -24 l10 -6 -3 33 -3 34 -20 1 c-11 1 -44 -3 -73 -9z m28 -27 c0 -5 -2
-10 -4 -10 -3 0 -8 5 -11 10 -3 6 -1 10 4 10 6 0 11 -4 11 -10z" />
    <path d="M40 180 l-15 -10 12 0 c6 0 15 5 18 10 8 12 4 12 -15 0z" />
    <path d="M165 170 c3 -5 8 -10 11 -10 2 0 4 5 4 10 0 6 -5 10 -11 10 -5 0 -7
-4 -4 -10z" />
    <path d="M500 141 c0 -5 7 -11 15 -15 8 -3 15 -1 15 3 0 5 -7 11 -15 15 -8 3
-15 1 -15 -3z" />
    <path d="M570 101 c0 -5 7 -11 15 -15 l15 -5 0 14 c0 8 -7 15 -15 15 -8 0 -15
-4 -15 -9z" />
  </g>
  <g transform="translate(0.000000,68.000000) scale(0.100000,-0.100000)" fill="#050508" stroke="none">
    <path d="M360 490 c14 -10 36 -22 50 -25 l24 -6 12 15 c6 9 14 13 17 9 4 -3 7
-1 7 6 l0 12 -17 -5 c-10 -3 -31 -8 -47 -12 l-29 -7 5 14 6 15 -27 2 -26 2 25
-20z m77 -17 c-4 -3 -10 -3 -14 0 -3 4 0 7 7 7 7 0 10 -3 7 -7z" />
    <path d="M265 490 l6 -10 -29 6 -29 6 0 -14 0 -14 33 4 c18 2 39 10 45 18 l11
14 -21 0 -22 0 6 -10z" />
    <path d="M520 490 c0 -5 9 -19 21 -31 l21 -21 9 9 9 9 -20 22 c-22 23 -40 29
-40 12z" />
    <path d="M190 470 c0 -5 -3 -9 -7 -9 -5 1 -15 1 -22 0 l-15 -1 10 -10 c14 -14
44 -2 44 16 0 8 -2 14 -5 14 -3 0 -5 -4 -5 -10z" />
    <path d="M486 421 c-4 -5 -2 -12 3 -15 5 -4 12 -2 15 3 4 5 2 12 -3 15 -5 4
-12 2 -15 -3z" />
    <path d="M535 420 c-3 -5 -1 -10 4 -10 6 0 11 5 11 10 0 6 -2 10 -4 10 -3 0
-8 -4 -11 -10z" />
    <path d="M574 418 l-7 -11 11 7 c12 7 16 16 8 16 -3 0 -8 -5 -12 -12z" />
    <path d="M669 418 c0 -2 -2 -10 -4 -19 l-3 -16 14 0 c8 0 14 4 14 9 0 4 -5 8
-11 8 -5 0 -7 5 -4 10 3 6 4 10 1 10 -3 0 -6 -1 -7 -2z" />
    <path d="M603 385 c0 -8 4 -15 9 -15 4 0 8 4 8 9 0 6 -4 12 -8 15 -5 3 -9 -1
-9 -9z" />
    <path d="M635 380 c3 -5 8 -10 11 -10 2 0 4 5 4 10 0 6 -5 10 -11 10 -5 0 -7
-4 -4 -10z" />
    <path d="M115 360 c-3 -5 -1 -10 4 -10 6 0 11 5 11 10 0 6 -2 10 -4 10 -3 0
-8 -4 -11 -10z" />
    <path d="M500 350 c0 -5 5 -10 11 -10 5 0 7 5 4 10 -3 6 -8 10 -11 10 -2 0 -4
-4 -4 -10z" />
    <path d="M538 307 l23 -13 -8 -9 -8 -8 13 7 13 8 -12 14 c-6 8 -19 14 -28 14
l-16 -1 23 -12z" />
    <path d="M186 222 c-3 -5 1 -9 9 -9 8 0 12 4 9 9 -3 4 -7 8 -9 8 -2 0 -6 -4
-9 -8z" />
    <path d="M224 218 l-7 -11 11 7 c12 7 16 16 8 16 -3 0 -8 -5 -12 -12z" />
    <path d="M150 200 c0 -7 3 -10 7 -7 3 4 3 10 0 14 -4 3 -7 0 -7 -7z" />
    <path d="M294 188 c-3 -4 14 -8 37 -8 23 0 39 3 35 7 -10 10 -66 11 -72 1z" />
    <path d="M165 170 c3 -5 8 -10 11 -10 3 0 2 5 -1 10 -3 6 -8 10 -11 10 -3 0
-2 -4 1 -10z" />
    <path d="M610 120 l-11 -20 16 0 15 0 0 20 c0 11 -2 20 -5 20 -2 0 -9 -9 -15
-20z" />
  </g>
  <g transform="translate(0.000000,68.000000) scale(0.100000,-0.100000)" fill="#7a8390" stroke="none">
    <path d="M284 673 c10 -11 36 -12 36 -2 0 5 -10 9 -22 9 -12 0 -18 -3 -14 -7z" />
    <path d="M330 660 c0 -5 6 -10 14 -10 8 0 16 -6 19 -12 2 -7 8 -10 12 -5 5 4
0 14 -11 22 -23 17 -34 19 -34 5z" />
    <path d="M392 621 c4 -13 18 -16 19 -4 0 4 -5 9 -11 12 -7 2 -11 -2 -8 -8z" />
    <path d="M323 574 c0 -7 3 -12 5 -9 8 8 34 -34 27 -45 l-6 -10 25 0 c14 0 28
-4 31 -10 l6 -10 19 13 c11 6 20 17 20 24 l0 12 -14 -5 c-8 -3 -17 -1 -21 5
l-6 11 15 0 c18 0 21 16 6 25 -5 3 -10 2 -10 -2 0 -5 -11 -10 -25 -11 l-25 -2
0 12 c0 6 -3 8 -6 5 -4 -3 -14 -2 -24 3 l-17 9 0 -15z m77 -29 c0 -2 -6 -5
-14 -8 -8 -3 -19 0 -25 7 l-11 13 25 -5 c14 -2 25 -6 25 -7z" />
    <path d="M460 510 c0 -5 -7 -10 -15 -10 -8 0 -15 -4 -15 -10 0 -13 6 -13 31 0
20 11 26 30 9 30 -5 0 -10 -4 -10 -10z" />
    <path d="M500 511 c0 -5 7 -11 15 -15 8 -3 15 -1 15 3 0 5 -7 11 -15 15 -8 3
-15 1 -15 -3z" />
    <path d="M290 500 c0 -5 4 -10 9 -10 6 0 13 5 16 10 l6 10 -15 0 c-9 0 -16 -4
-16 -10z" />
    <path d="M213 483 c4 -3 10 -3 14 0 3 4 0 7 -7 7 -7 0 -10 -3 -7 -7z" />
    <path d="M560 461 c0 -11 59 -26 67 -18 3 3 2 10 -2 16 -8 13 -65 15 -65 2z" />
    <path d="M115 429 c-4 -6 -5 -13 -2 -16 7 -7 27 6 27 18 0 12 -17 12 -25 -2z" />
    <path d="M495 409 c-4 -6 -4 -13 -1 -16 8 -8 36 5 36 17 0 13 -27 13 -35 -1z" />
    <path d="M640 375 c0 -8 7 -15 15 -15 8 0 15 7 15 15 0 8 -7 15 -15 15 -8 0
-15 -7 -15 -15z" />
    <path d="M530 370 c0 -5 7 -10 15 -10 8 0 15 5 15 10 0 6 -7 10 -15 10 -8 0
-15 -4 -15 -10z" />
    <path d="M580 371 c0 -5 9 -11 20 -14 l20 -5 0 14 0 14 -20 0 c-11 0 -20 -4
-20 -9z" />
    <path d="M700 371 c0 -6 5 -13 10 -16 l10 -6 0 15 c0 9 -4 16 -10 16 -5 0 -10
-4 -10 -9z" />
    <path d="M51 264 l-11 -26 11 4 c7 2 16 14 20 26 l8 22 -8 0 c-4 0 -13 -12
-20 -26z" />
    <path d="M610 225 c0 -8 7 -15 16 -15 l16 0 -12 15 c-7 8 -14 15 -16 15 -2 0
-4 -7 -4 -15z" />
    <path d="M254 196 c11 -9 27 -16 35 -15 l16 1 -15 5 c-8 3 -24 10 -35 15 l-20
9 19 -15z" />
    <path d="M120 191 c0 -6 4 -13 10 -16 l10 -6 -6 15 c-7 18 -14 21 -14 7z" />
    <path d="M522 180 l-23 -19 23 -12 23 -12 -13 16 -13 16 19 10 20 11 10 -13
c6 -6 10 -16 11 -22 0 -5 7 -11 15 -13 l16 -3 0 14 c0 9 -3 22 -6 31 l-6 16
-27 0 c-14 -1 -36 -9 -49 -20z m76 -15 c-3 -3 -9 2 -12 12 l-7 18 12 -12 c7
-7 10 -15 7 -18z" />
    <path d="M626 177 c3 -10 9 -15 12 -12 3 3 0 11 -7 18 l-12 12 7 -18z" />
    <path d="M550 111 c0 -5 7 -11 15 -15 l15 -5 0 14 c0 8 -7 15 -15 15 -8 0 -15
-4 -15 -9z" />
  </g>
  <g transform="translate(0.000000,68.000000) scale(0.100000,-0.100000)" fill="#8e9baa" stroke="none">
    <path d="M264 673 c10 -11 37 -12 30 -2 -3 5 -12 9 -21 9 -9 0 -13 -3 -9 -7z" />
    <path d="M310 663 l0 -18 10 15 10 15 0 -13 0 -13 11 7 11 7 -13 8 c-21 13
-29 11 -29 -8z" />
    <path d="M380 620 c0 -9 14 -14 33 -11 4 0 7 -8 7 -18 0 -11 4 -22 8 -25 4 -2
8 8 7 22 l0 27 -15 7 c-23 10 -40 9 -40 -2z" />
    <path d="M300 581 c0 -5 6 -11 13 -14 l14 -5 0 14 c0 8 -6 14 -14 14 -7 0 -13
-4 -13 -9z" />
    <path d="M350 565 c-7 -9 -11 -17 -9 -18 2 -1 13 -9 24 -17 l20 -15 -17 21
-18 20 12 12 c7 7 9 12 6 12 -3 0 -11 -7 -18 -15z" />
    <path d="M340 520 c0 -6 -4 -9 -9 -5 -5 3 -12 1 -16 -5 -4 -6 -10 -8 -15 -5
-5 3 -11 1 -15 -5 -8 -13 13 -12 50 4 l29 12 -12 8 -12 7 0 -11z" />
    <path d="M482 523 c-26 -5 -20 -23 9 -23 l19 0 0 15 c0 8 -1 14 -2 14 -2 -1
-13 -4 -26 -6z" />
    <path d="M425 490 l-6 -10 16 0 16 0 -6 10 c-3 6 -8 10 -10 10 -2 0 -7 -4 -10
-10z" />
    <path d="M85 460 c3 -5 8 -10 11 -10 3 0 2 5 -1 10 -3 6 -8 10 -11 10 -3 0 -2
-4 1 -10z" />
    <path d="M585 460 c-3 -5 -2 -10 4 -10 5 0 13 5 16 10 3 6 2 10 -4 10 -5 0
-13 -4 -16 -10z" />
    <path d="M98 422 c5 -15 34 -12 39 4 l4 12 -24 -2 -24 -1 5 -13z" />
    <path d="M645 430 c3 -5 10 -10 16 -10 5 0 9 5 9 10 0 6 -7 10 -16 10 l-15 0
6 -10z" />
    <path d="M90 390 c0 -5 5 -10 10 -10 6 0 10 5 10 10 0 6 -4 10 -10 10 -5 0
-10 -4 -10 -10z" />
    <path d="M80 354 l0 -15 10 6 c6 3 10 10 10 16 0 5 -4 9 -10 9 -5 0 -10 -7
-10 -16z" />
    <path d="M606 355 l-5 -15 13 0 c7 0 13 7 13 15 0 8 -4 15 -8 15 -4 0 -9 -7
-13 -15z" />
    <path d="M620 205 c0 -8 5 -15 10 -15 6 0 10 7 10 15 0 8 -4 15 -10 15 -5 0
-10 -7 -10 -15z" />
    <path d="M90 200 l-15 -10 18 0 c9 0 17 5 17 10 0 12 -1 12 -20 0z" />
    <path d="M0 185 c0 -8 4 -15 8 -15 5 0 9 7 9 15 0 8 -4 15 -9 15 -4 0 -8 -7
-8 -15z" />
    <path d="M265 190 c3 -5 8 -10 11 -10 3 0 2 5 -1 10 -3 6 -8 10 -11 10 -3 0
-2 -4 1 -10z" />
    <path d="M515 180 c4 -6 11 -8 16 -5 14 9 11 15 -7 15 l-15 0 6 -10z" />
    <path d="M573 173 c4 -3 10 -3 14 0 3 4 0 7 -7 7 -7 0 -10 -3 -7 -7z" />
    <path d="M147 159 c7 -7 15 -10 18 -7 3 3 -2 9 -12 12 l-18 7 12 -12z" />
    <path d="M545 160 l-6 -10 16 0 16 0 -6 10 c-3 6 -8 10 -10 10 -2 0 -7 -4 -10
-10z" />
    <path d="M624 158 l-7 -11 11 7 c12 7 16 16 8 16 -3 0 -8 -5 -12 -12z" />
  </g>
  <g transform="translate(0.000000,68.000000) scale(0.100000,-0.100000)" fill="#2e2933" stroke="none">
    <path d="M416 625 l-5 -15 14 0 c8 0 15 7 15 15 0 8 -4 15 -9 15 -5 0 -11 -7
-15 -15z" />
    <path d="M334 509 l-7 -12 27 5 26 5 17 -13 c26 -20 35 -17 21 6 l-13 20 -32
0 c-17 0 -35 -5 -39 -11z" />
    <path d="M300 500 l-15 -10 12 0 c6 0 15 5 18 10 8 12 4 12 -15 0z" />
    <path d="M233 483 c4 -3 10 -3 14 0 3 4 0 7 -7 7 -7 0 -10 -3 -7 -7z" />
    <path d="M550 472 c0 -12 19 -26 26 -19 2 2 -2 10 -11 17 l-15 12 0 -10z" />
    <path d="M610 440 c0 -5 9 -10 21 -10 l20 0 -6 10 c-3 6 -13 10 -21 10 -8 0
-14 -4 -14 -10z" />
    <path d="M534 409 l-31 -9 0 -15 0 -15 39 0 39 0 -6 10 -6 10 20 0 c12 0 21 5
21 10 0 6 -4 10 -9 10 -5 0 -15 2 -23 4 -7 2 -27 0 -44 -5z" />
    <path d="M656 373 c-3 -8 -6 -17 -6 -19 0 -3 15 -4 33 -2 l34 2 0 13 c0 7 -5
13 -11 14 -6 0 -19 2 -28 4 -9 2 -19 -4 -22 -12z m31 -10 c-4 -3 -10 -3 -14 0
-3 4 0 7 7 7 7 0 10 -3 7 -7z" />
    <path d="M605 370 c3 -5 11 -10 16 -10 6 0 7 5 4 10 -3 6 -11 10 -16 10 -6 0
-7 -4 -4 -10z" />
    <path d="M95 350 c4 -6 11 -8 16 -5 14 9 11 15 -7 15 l-15 0 6 -10z" />
    <path d="M73 324 c3 -4 2 -15 -4 -25 l-10 -19 11 0 c5 0 10 4 10 9 0 5 3 16 6
25 l6 16 -13 0 c-7 0 -9 -3 -6 -6z" />
    <path d="M575 280 c10 -11 20 -18 23 -16 5 6 -23 36 -34 36 -4 0 1 -9 11 -20z" />
    <path d="M53 255 c0 -8 4 -12 9 -9 10 7 10 24 0 24 -5 0 -9 -7 -9 -15z" />
    <path d="M380 251 c0 -11 26 -22 34 -14 3 3 3 10 0 14 -7 12 -34 11 -34 0z" />
    <path d="M175 210 c-3 -5 -1 -10 4 -10 6 0 11 5 11 10 0 6 -2 10 -4 10 -3 0
-8 -4 -11 -10z" />
    <path d="M612 208 c6 -18 25 -21 25 -3 0 8 -7 15 -14 15 -8 0 -13 -5 -11 -12z" />
    <path d="M53 183 c4 -3 10 -3 14 0 3 4 0 7 -7 7 -7 0 -10 -3 -7 -7z" />
    <path d="M340 180 c0 -5 4 -10 9 -10 6 0 13 5 16 10 l6 10 -15 0 c-9 0 -16 -4
-16 -10z" />
    <path d="M454 178 l-7 -11 11 7 c12 7 16 16 8 16 -3 0 -8 -5 -12 -12z" />
    <path d="M477 176 c-5 -13 10 -36 24 -36 4 0 6 8 4 18 -2 9 -4 20 -4 25 -2 12
-19 8 -24 -7z m20 -13 c-4 -3 -10 -3 -14 0 -3 4 0 7 7 7 7 0 10 -3 7 -7z" />
    <path d="M610 156 c0 -2 7 -7 16 -10 l15 -6 -6 10 c-6 10 -25 14 -25 6z" />
    <path d="M527 143 c-10 -9 -9 -23 1 -23 5 0 9 7 9 15 0 17 -1 18 -10 8z" />
  </g>
  <g transform="translate(0.000000,68.000000) scale(0.100000,-0.100000)" fill="#ccced1" stroke="none">
    <path d="M420 656 c0 -14 4 -27 8 -30 5 -3 9 8 9 24 0 17 -4 30 -9 30 -4 0 -8
-11 -8 -24z" />
    <path d="M420 590 c0 -7 3 -10 7 -7 3 4 3 10 0 14 -4 3 -7 0 -7 -7z" />
    <path d="M436 547 c3 -10 9 -15 12 -12 3 3 0 11 -7 18 l-12 12 7 -18z" />
    <path d="M66 497 c3 -10 9 -15 12 -12 3 3 0 11 -7 18 l-12 12 7 -18z" />
    <path d="M520 500 c0 -5 5 -10 11 -10 5 0 7 5 4 10 -3 6 -8 10 -11 10 -2 0 -4
-4 -4 -10z" />
    <path d="M550 479 c0 -5 5 -7 10 -4 6 3 10 8 10 11 0 2 -4 4 -10 4 -5 0 -10
-5 -10 -11z" />
    <path d="M615 454 c9 -9 19 -13 23 -10 3 4 0 11 -8 16 -24 15 -33 11 -15 -6z" />
    <path d="M656 431 c-3 -5 1 -11 9 -15 8 -3 15 -1 15 4 0 13 -18 22 -24 11z" />
    <path d="M82 385 c-1 -13 3 -27 8 -30 l10 -6 0 25 c0 32 -15 42 -18 11z" />
    <path d="M608 343 c6 -2 18 -2 25 0 6 3 1 5 -13 5 -14 0 -19 -2 -12 -5z" />
    <path d="M75 330 c-3 -5 -1 -10 4 -10 6 0 11 5 11 10 0 6 -2 10 -4 10 -3 0 -8
-4 -11 -10z" />
    <path d="M555 300 c3 -5 11 -10 16 -10 6 0 7 5 4 10 -3 6 -11 10 -16 10 -6 0
-7 -4 -4 -10z" />
    <path d="M64 288 l-7 -11 11 7 c12 7 16 16 8 16 -3 0 -8 -5 -12 -12z" />
    <path d="M53 263 c4 -3 10 -3 14 0 3 4 0 7 -7 7 -7 0 -10 -3 -7 -7z" />
    <path d="M15 220 c-3 -5 -2 -10 4 -10 5 0 13 5 16 10 3 6 2 10 -4 10 -5 0 -13
-4 -16 -10z" />
    <path d="M215 210 c3 -5 11 -10 16 -10 6 0 7 5 4 10 -3 6 -11 10 -16 10 -6 0
-7 -4 -4 -10z" />
    <path d="M623 213 c4 -3 10 -3 14 0 3 4 0 7 -7 7 -7 0 -10 -3 -7 -7z" />
    <path d="M100 199 c0 -5 5 -7 10 -4 6 3 10 8 10 11 0 2 -4 4 -10 4 -5 0 -10
-5 -10 -11z" />
    <path d="M3 193 c4 -3 10 -3 14 0 3 4 0 7 -7 7 -7 0 -10 -3 -7 -7z" />
    <path d="M410 196 c0 -1 23 -17 50 -34 59 -37 67 -29 9 11 -35 24 -59 34 -59
23z" />
    <path d="M325 180 c7 -12 32 -13 39 -2 2 4 -7 9 -20 10 l-25 2 6 -10z" />
    <path d="M15 170 c4 -6 11 -8 16 -5 14 9 11 15 -7 15 l-15 0 6 -10z" />
    <path d="M627 143 c-4 -3 -7 -11 -7 -17 l0 -10 12 12 c6 6 9 14 7 17 -3 3 -9
2 -12 -2z" />
    <path d="M523 123 c4 -3 10 -3 14 0 3 4 0 7 -7 7 -7 0 -10 -3 -7 -7z" />
    <path d="M550 109 c0 -5 5 -7 10 -4 6 3 10 1 10 -5 0 -6 5 -8 10 -5 6 3 10 1
10 -5 l0 -11 11 7 12 7 -24 13 c-29 16 -39 17 -39 3z" />
  </g>
  <g transform="translate(0.000000,68.000000) scale(0.100000,-0.100000)" fill="#616677" stroke="none">
    <path d="M325 670 c3 -5 11 -10 16 -10 6 0 7 5 4 10 -3 6 -11 10 -16 10 -6 0
-7 -4 -4 -10z" />
    <path d="M338 514 l-33 -13 48 6 47 6 0 -11 c0 -5 7 -12 15 -15 l14 -6 -10 22
-10 23 -19 0 c-10 0 -33 -6 -52 -12z" />
    <path d="M268 493 c7 -3 16 -2 19 1 4 3 -2 6 -13 5 l-19 -1 13 -5z" />
    <path d="M554 472 c4 -6 20 -19 35 -26 l27 -15 15 10 c8 5 12 9 9 10 -3 0 -18
2 -33 4 -16 2 -36 10 -45 17 l-16 13 8 -13z" />
    <path d="M139 443 l-14 -18 18 14 c9 7 17 15 17 17 0 8 -8 3 -21 -13z" />
    <path d="M650 426 c0 -2 7 -7 16 -10 l15 -6 -6 10 c-6 10 -25 14 -25 6z" />
    <path d="M520 412 c0 -12 59 -22 66 -10 3 4 -1 8 -8 8 -7 0 -23 3 -35 6 l-23
6 0 -10z" />
    <path d="M85 390 l-6 -10 16 0 16 0 -6 10 c-3 6 -8 10 -10 10 -2 0 -7 -4 -10
-10z" />
    <path d="M640 381 c0 -5 -8 -12 -17 -14 l-18 -5 18 -1 c10 0 16 -5 13 -9 -2
-4 4 -9 15 -9 22 -2 24 7 7 26 l-13 14 13 -7 12 -7 0 10 c0 6 -7 11 -15 11 -8
0 -15 -4 -15 -9z" />
    <path d="M552 368 c6 -18 28 -21 28 -4 0 9 -7 16 -16 16 -9 0 -14 -5 -12 -12z" />
    <path d="M565 204 l-30 -15 41 4 41 5 -11 -23 -10 -22 -18 5 c-10 2 -25 2 -33
-2 l-16 -6 7 -11 7 -11 8 13 9 14 9 -14 8 -13 22 11 c12 7 19 16 16 21 -3 5
-1 11 4 15 5 3 9 14 8 25 l-1 20 -16 -1 c-8 0 -28 -7 -45 -15z" />
    <path d="M100 206 c0 -2 7 -7 16 -10 l15 -6 -6 10 c-6 10 -25 14 -25 6z" />
    <path d="M63 183 c4 -3 10 -3 14 0 3 4 0 7 -7 7 -7 0 -10 -3 -7 -7z" />
    <path d="M298 183 c7 -3 16 -2 19 1 4 3 -2 6 -13 5 l-19 -1 13 -5z" />
    <path d="M490 181 c0 -5 9 -7 20 -4 11 3 20 7 20 9 0 2 -9 4 -20 4 -11 0 -20
-4 -20 -9z" />
    <path d="M500 150 l-15 -10 12 0 c6 0 15 5 18 10 8 12 4 12 -15 0z" />
    <path d="M585 100 c3 -5 10 -10 16 -10 5 0 9 5 9 10 0 6 -7 10 -16 10 l-15 0
6 -10z" />
  </g>
  <g transform="translate(0.000000,68.000000) scale(0.100000,-0.100000)" fill="#717883" stroke="none">
    <path d="M268 673 c7 -3 16 -2 19 1 4 3 -2 6 -13 5 l-19 -1 13 -5z" />
    <path d="M313 673 c4 -3 10 -3 14 0 3 4 0 7 -7 7 -7 0 -10 -3 -7 -7z" />
    <path d="M375 630 c3 -5 13 -10 21 -10 8 0 12 5 9 10 -3 6 -13 10 -21 10 -8 0
-12 -4 -9 -10z" />
    <path d="M430 560 c0 -7 3 -10 7 -7 3 4 3 10 0 14 -4 3 -7 0 -7 -7z" />
    <path d="M403 553 c4 -3 10 -3 14 0 3 4 0 7 -7 7 -7 0 -10 -3 -7 -7z" />
    <path d="M375 529 l-6 -9 15 6 14 5 4 -18 4 -18 5 20 6 21 -18 1 c-10 1 -21
-2 -24 -8z" />
    <path d="M465 500 l-6 -10 15 6 c18 7 21 14 7 14 -6 0 -13 -4 -16 -10z" />
    <path d="M520 496 c0 -2 7 -7 16 -10 l15 -6 -6 10 c-6 10 -25 14 -25 6z" />
    <path d="M595 459 c-4 -6 -5 -12 -2 -15 2 -3 7 2 10 11 7 17 1 20 -8 4z" />
    <path d="M153 453 c4 -3 10 -3 14 0 3 4 0 7 -7 7 -7 0 -10 -3 -7 -7z" />
    <path d="M620 456 c0 -2 8 -10 18 -17 l17 -14 -14 18 c-13 16 -21 21 -21 13z" />
    <path d="M103 413 c4 -3 10 -3 14 0 3 4 0 7 -7 7 -7 0 -10 -3 -7 -7z" />
    <path d="M535 410 c3 -5 11 -10 16 -10 6 0 7 5 4 10 -3 6 -11 10 -16 10 -6 0
-7 -4 -4 -10z" />
    <path d="M680 385 c0 -8 4 -15 10 -15 5 0 7 7 4 15 -4 8 -8 15 -10 15 -2 0 -4
-7 -4 -15z" />
    <path d="M90 380 c0 -5 5 -10 10 -10 6 0 10 5 10 10 0 6 -4 10 -10 10 -5 0
-10 -4 -10 -10z" />
    <path d="M525 370 c4 -6 11 -8 16 -5 14 9 11 15 -7 15 l-15 0 6 -10z" />
    <path d="M570 364 l0 -16 15 12 14 12 12 -8 12 -7 -7 11 c-4 7 -16 12 -27 12
l-19 0 0 -16z" />
    <path d="M515 340 c3 -5 8 -10 11 -10 3 0 2 5 -1 10 -3 6 -8 10 -11 10 -3 0
-2 -4 1 -10z" />
    <path d="M70 300 c0 -7 3 -10 7 -7 3 4 3 10 0 14 -4 3 -7 0 -7 -7z" />
    <path d="M606 247 c3 -10 9 -15 12 -12 3 3 0 11 -7 18 l-12 12 7 -18z" />
    <path d="M215 210 c27 -12 43 -12 25 0 -8 5 -22 9 -30 9 l-15 0 20 -9z" />
    <path d="M393 193 c9 -2 23 -2 30 0 6 3 -1 5 -18 5 l-30 0 18 -5z" />
    <path d="M620 189 c0 -5 5 -7 10 -4 6 3 10 8 10 11 0 2 -4 4 -10 4 -5 0 -10
-5 -10 -11z" />
    <path d="M165 160 c-3 -5 -1 -10 4 -10 6 0 11 5 11 10 0 6 -2 10 -4 10 -3 0
-8 -4 -11 -10z" />
    <path d="M470 166 c0 -2 8 -10 18 -17 l17 -14 -14 18 c-13 16 -21 21 -21 13z" />
    <path d="M576 152 c-3 -5 1 -9 9 -9 8 0 12 4 9 9 -3 4 -7 8 -9 8 -2 0 -6 -4
-9 -8z" />
    <path d="M534 128 l-7 -11 11 7 c12 7 16 16 8 16 -3 0 -8 -5 -12 -12z" />
    <path d="M621 123 c-1 -6 -9 -13 -18 -15 l-18 -3 10 -7 c16 -10 38 7 32 23
l-5 14 -1 -12z" />
  </g>
  <g transform="translate(0.000000,68.000000) scale(0.100000,-0.100000)" fill="#3a3f4b" stroke="none">
    <path d="M330 676 c0 -2 8 -10 18 -17 l17 -14 -14 18 c-13 16 -21 21 -21 13z" />
    <path d="M420 669 c0 -5 5 -7 10 -4 6 3 10 8 10 11 0 2 -4 4 -10 4 -5 0 -10
-5 -10 -11z" />
    <path d="M370 642 c0 -6 9 -12 20 -15 11 -3 20 -3 20 -1 0 2 -9 8 -20 14 l-20
11 0 -9z" />
    <path d="M420 641 c0 -6 4 -13 10 -16 l10 -6 -6 15 c-7 18 -14 21 -14 7z" />
    <path d="M323 503 c4 -3 10 -3 14 0 3 4 0 7 -7 7 -7 0 -10 -3 -7 -7z" />
    <path d="M400 500 c0 -7 3 -10 7 -7 3 4 3 10 0 14 -4 3 -7 0 -7 -7z" />
    <path d="M283 493 c4 -3 10 -3 14 0 3 4 0 7 -7 7 -7 0 -10 -3 -7 -7z" />
    <path d="M453 493 c4 -3 10 -3 14 0 3 4 0 7 -7 7 -7 0 -10 -3 -7 -7z" />
    <path d="M645 430 c3 -5 8 -10 11 -10 3 0 2 5 -1 10 -3 6 -8 10 -11 10 -3 0
-2 -4 1 -10z" />
    <path d="M120 420 l-15 -10 12 0 c6 0 15 5 18 10 8 12 4 12 -15 0z" />
    <path d="M497 413 c-10 -10 -8 -23 4 -23 5 0 7 4 4 10 l-6 10 30 -4 31 -3 -6
8 c-6 11 -48 12 -57 2z" />
    <path d="M585 400 c3 -5 11 -10 16 -10 6 0 7 5 4 10 -3 6 -11 10 -16 10 -6 0
-7 -4 -4 -10z" />
    <path d="M86 354 c-4 -15 -5 -29 -1 -32 3 -3 5 2 5 11 0 10 7 17 15 17 l14 0
-5 15 c-9 23 -21 18 -28 -11z" />
    <path d="M400 250 c0 -7 3 -10 7 -7 3 4 3 10 0 14 -4 3 -7 0 -7 -7z" />
    <path d="M40 239 c0 -5 5 -7 10 -4 6 3 10 8 10 11 0 2 -4 4 -10 4 -5 0 -10 -5
-10 -11z" />
    <path d="M591 219 c-13 -11 -22 -21 -20 -23 2 -2 16 2 31 8 l27 12 -7 11 -7
11 -24 -19z" />
    <path d="M430 191 c0 -5 7 -12 16 -15 l17 -6 -13 15 c-14 17 -20 19 -20 6z" />
    <path d="M620 190 c0 -7 3 -10 7 -7 3 4 3 10 0 14 -4 3 -7 0 -7 -7z" />
    <path d="M495 170 c10 -11 20 -20 22 -20 2 0 -2 9 -9 20 -7 11 -17 20 -22 20
-5 0 -1 -9 9 -20z" />
    <path d="M18 173 c7 -3 16 -2 19 1 4 3 -2 6 -13 5 l-19 -1 13 -5z" />
    <path d="M135 170 c3 -5 8 -10 11 -10 3 0 2 5 -1 10 -3 6 -8 10 -11 10 -3 0
-2 -4 1 -10z" />
    <path d="M562 129 l-11 -17 15 -6 c9 -3 28 -6 42 -5 l27 0 -24 10 -23 9 5 13
5 14 -13 0 c-7 0 -17 -8 -23 -18z" />
  </g>
  <g transform="translate(0.000000,68.000000) scale(0.100000,-0.100000)" fill="#4a4c56" stroke="none">
    <path d="M423 665 c-3 -9 -3 -18 -1 -21 3 -3 8 4 11 16 6 23 -1 27 -10 5z" />
    <path d="M350 656 c0 -2 7 -9 15 -16 l15 -12 0 10 c0 5 -7 12 -15 16 -8 3 -15
4 -15 2z" />
    <path d="M406 618 c3 -4 12 -8 20 -8 8 0 14 4 14 8 0 4 -9 8 -19 8 -11 0 -17
-4 -15 -8z" />
    <path d="M223 483 c4 -3 10 -3 14 0 3 4 0 7 -7 7 -7 0 -10 -3 -7 -7z" />
    <path d="M423 483 c4 -3 10 -3 14 0 3 4 0 7 -7 7 -7 0 -10 -3 -7 -7z" />
    <path d="M525 410 l-6 -10 15 6 c18 7 21 14 7 14 -6 0 -13 -4 -16 -10z" />
    <path d="M587 399 c7 -7 15 -10 18 -7 3 3 -2 9 -12 12 l-18 7 12 -12z" />
    <path d="M536 382 c-3 -5 3 -13 13 -19 l18 -11 0 14 c0 15 -24 27 -31 16z" />
    <path d="M644 380 c2 -16 20 -14 24 2 l4 13 -10 -14 -10 -13 -5 11 -5 12 2
-11z" />
    <path d="M683 373 c4 -3 10 -3 14 0 3 4 0 7 -7 7 -7 0 -10 -3 -7 -7z" />
    <path d="M595 260 c3 -5 8 -10 11 -10 2 0 4 5 4 10 0 6 -5 10 -11 10 -5 0 -7
-4 -4 -10z" />
    <path d="M36 233 l-7 -18 12 12 c7 7 10 15 7 18 -3 3 -9 -2 -12 -12z" />
    <path d="M601 223 c-16 -17 -11 -25 8 -14 7 5 12 13 10 19 l-4 10 -14 -15z" />
    <path d="M565 200 c-3 -5 -1 -10 4 -10 6 0 11 5 11 10 0 6 -2 10 -4 10 -3 0
-8 -4 -11 -10z" />
    <path d="M74 188 l-7 -11 11 7 c7 4 12 9 12 12 0 8 -9 4 -16 -8z" />
    <path d="M425 190 c3 -5 8 -10 11 -10 2 0 4 5 4 10 0 6 -5 10 -11 10 -5 0 -7
-4 -4 -10z" />
    <path d="M328 183 c7 -3 16 -2 19 1 4 3 -2 6 -13 5 l-19 -1 13 -5z" />
    <path d="M3 173 c4 -3 10 -3 14 0 3 4 0 7 -7 7 -7 0 -10 -3 -7 -7z" />
    <path d="M544 149 c-7 -12 12 -29 34 -29 l13 0 -11 20 c-12 22 -25 26 -36 9z
m23 -6 c-4 -3 -10 -3 -14 0 -3 4 0 7 7 7 7 0 10 -3 7 -7z" />
    <path d="M593 143 c4 -3 10 -3 14 0 3 4 0 7 -7 7 -7 0 -10 -3 -7 -7z" />
    <path d="M620 130 c0 -7 3 -10 7 -7 3 4 3 10 0 14 -4 3 -7 0 -7 -7z" />
  </g>
  <g transform="translate(0.000000,68.000000) scale(0.100000,-0.100000)" fill="#2f3342" stroke="none">
    <path d="M323 673 c4 -3 10 -3 14 0 3 4 0 7 -7 7 -7 0 -10 -3 -7 -7z" />
    <path d="M370 640 c0 -7 3 -10 7 -7 3 4 3 10 0 14 -4 3 -7 0 -7 -7z" />
    <path d="M440 490 l-15 -10 12 0 c6 0 15 5 18 10 8 12 4 12 -15 0z" />
    <path d="M545 480 c3 -5 8 -10 11 -10 2 0 4 5 4 10 0 6 -5 10 -11 10 -5 0 -7
-4 -4 -10z" />
    <path d="M164 458 l-7 -11 11 7 c7 4 12 9 12 12 0 8 -9 4 -16 -8z" />
    <path d="M130 430 c0 -7 3 -10 7 -7 3 4 3 10 0 14 -4 3 -7 0 -7 -7z" />
    <path d="M574 398 l-7 -11 11 7 c7 4 12 9 12 12 0 8 -9 4 -16 -8z" />
    <path d="M513 385 c0 -8 7 -15 15 -15 l14 0 -12 15 c-7 8 -13 15 -15 15 -1 0
-2 -7 -2 -15z" />
    <path d="M85 380 c3 -5 11 -10 16 -10 6 0 7 5 4 10 -3 6 -11 10 -16 10 -6 0
-7 -4 -4 -10z" />
    <path d="M593 373 c4 -3 10 -3 14 0 3 4 0 7 -7 7 -7 0 -10 -3 -7 -7z" />
    <path d="M590 210 c0 -7 3 -10 7 -7 3 4 3 10 0 14 -4 3 -7 0 -7 -7z" />
    <path d="M570 200 c0 -7 3 -10 7 -7 3 4 3 10 0 14 -4 3 -7 0 -7 -7z" />
    <path d="M430 190 c0 -7 3 -10 7 -7 3 4 3 10 0 14 -4 3 -7 0 -7 -7z" />
    <path d="M614 178 l-7 -11 11 7 c12 7 16 16 8 16 -3 0 -8 -5 -12 -12z" />
    <path d="M553 153 c4 -3 10 -3 14 0 3 4 0 7 -7 7 -7 0 -10 -3 -7 -7z" />
    <path d="M604 148 l-7 -11 11 7 c12 7 16 16 8 16 -3 0 -8 -5 -12 -12z" />
    <path d="M624 138 l-7 -11 11 7 c7 4 12 9 12 12 0 8 -9 4 -16 -8z" />
    <path d="M558 122 c9 -10 26 -18 37 -19 l20 -2 -24 20 c-13 10 -29 19 -37 19
l-14 0 18 -18z" />
  </g>
  <g transform="translate(0.000000,68.000000) scale(0.100000,-0.100000)" fill="#abaaae" stroke="none">
    <path d="M430 620 c0 -7 3 -10 7 -7 3 4 3 10 0 14 -4 3 -7 0 -7 -7z" />
    <path d="M550 480 c0 -7 3 -10 7 -7 3 4 3 10 0 14 -4 3 -7 0 -7 -7z" />
    <path d="M500 365 c0 -8 2 -15 4 -15 2 0 6 7 10 15 3 8 1 15 -4 15 -6 0 -10
-7 -10 -15z" />
    <path d="M698 373 c7 -3 16 -2 19 1 4 3 -2 6 -13 5 l-19 -1 13 -5z" />
    <path d="M565 360 c-3 -5 -1 -10 4 -10 6 0 11 5 11 10 0 6 -2 10 -4 10 -3 0
-8 -4 -11 -10z" />
    <path d="M655 350 c-3 -5 -2 -10 4 -10 5 0 13 5 16 10 3 6 2 10 -4 10 -5 0
-13 -4 -16 -10z" />
    <path d="M563 293 c4 -3 10 -3 14 0 3 4 0 7 -7 7 -7 0 -10 -3 -7 -7z" />
    <path d="M590 270 c0 -5 5 -10 11 -10 5 0 7 5 4 10 -3 6 -8 10 -11 10 -2 0 -4
-4 -4 -10z" />
    <path d="M170 199 c0 -5 5 -7 10 -4 6 3 10 8 10 11 0 2 -4 4 -10 4 -5 0 -10
-5 -10 -11z" />
    <path d="M457 169 c7 -7 15 -10 18 -7 3 3 -2 9 -12 12 l-18 7 12 -12z" />
    <path d="M163 153 c4 -3 10 -3 14 0 3 4 0 7 -7 7 -7 0 -10 -3 -7 -7z" />
  </g>
  <g transform="translate(0.000000,68.000000) scale(0.100000,-0.100000)" fill="#4b566a" stroke="none">
    <path d="M488 503 c7 -3 16 -2 19 1 4 3 -2 6 -13 5 l-19 -1 13 -5z" />
    <path d="M530 190 l-15 -10 12 0 c6 0 15 5 18 10 8 12 4 12 -15 0z" />
    <path d="M490 180 c0 -7 3 -10 7 -7 3 4 3 10 0 14 -4 3 -7 0 -7 -7z" />
    <path d="M566 115 c4 -8 8 -15 10 -15 2 0 4 7 4 15 0 8 -4 15 -10 15 -5 0 -7
-7 -4 -15z" />
  </g>
  <g transform="translate(0.000000,68.000000) scale(0.100000,-0.100000)" fill="#5f5961" stroke="none">
    <path d="M509 412 l13 -10 -11 -5 -11 -5 11 1 c15 3 13 21 -3 25 l-13 4 14
-10z" />
    <path d="M540 384 c0 -2 9 -8 19 -14 l20 -10 5 9 c3 5 -5 11 -19 13 -14 3 -25
4 -25 2z" />
    <path d="M508 373 c7 -3 16 -2 19 1 4 3 -2 6 -13 5 l-19 -1 13 -5z" />
    <path d="M640 371 c0 -5 7 -12 16 -15 l17 -6 -13 15 c-14 17 -20 19 -20 6z" />
    <path d="M505 350 c3 -5 8 -10 11 -10 3 0 2 5 -1 10 -3 6 -8 10 -11 10 -3 0
-2 -4 1 -10z" />
    <path d="M683 353 c4 -3 10 -3 14 0 3 4 0 7 -7 7 -7 0 -10 -3 -7 -7z" />
    <path d="M540 316 c0 -2 8 -10 18 -17 l17 -14 -14 18 c-13 16 -21 21 -21 13z" />
    <path d="M24 218 l-7 -11 11 7 c12 7 16 16 8 16 -3 0 -8 -5 -12 -12z" />
    <path d="M313 183 c4 -3 10 -3 14 0 3 4 0 7 -7 7 -7 0 -10 -3 -7 -7z" />
  </g>
  <g transform="translate(0.000000,68.000000) scale(0.100000,-0.100000)" fill="#523c4b" stroke="none">
    <path d="M530 380 l-15 -10 12 0 c6 0 15 5 18 10 8 12 4 12 -15 0z" />
    <path d="M583 373 c4 -3 10 -3 14 0 3 4 0 7 -7 7 -7 0 -10 -3 -7 -7z" />
    <path d="M635 370 c-3 -5 -1 -10 4 -10 6 0 11 5 11 10 0 6 -2 10 -4 10 -3 0
-8 -4 -11 -10z" />
    <path d="M668 353 c7 -3 16 -2 19 1 4 3 -2 6 -13 5 l-19 -1 13 -5z" />
  </g>
</svg>