<svg width="76.000000pt" height="68.000000pt" viewBox="0 0 76.000000 68.000000" xmlns="http://www.w3.org/2000/svg">
  <g transform="translate(0.000000,68.000000) scale(0.100000,-0.100000)" fill="#fefefe" stroke="none">
    <path d="M0 340 l0 -340 164 0 163 0 6 50 6 51 -11 24 c-6 13 -22 26 -35 30
-14 3 -42 17 -64 30 -21 14 -43 25 -47 25 -21 0 -73 33 -92 58 -11 15 -24 33
-30 39 l-10 13 26 6 c24 6 87 1 147 -12 l27 -6 0 15 c0 8 -17 30 -37 49 -21
18 -48 46 -60 62 l-23 29 0 36 c0 48 9 79 25 85 7 2 48 -18 91 -46 l79 -51 25
1 c14 0 39 4 57 7 l32 7 47 -16 c26 -9 60 -16 76 -16 l28 0 0 25 c0 30 15 32
32 5 15 -24 34 -25 81 -5 20 8 39 15 42 15 11 0 4 -28 -11 -41 -27 -22 -51
-82 -63 -160 l-12 -75 10 -27 11 -27 -10 0 c-16 0 -12 -81 7 -132 l17 -48 33
0 33 0 0 340 0 340 -380 0 -380 0 0 -340z" />
  </g>
  <g transform="translate(0.000000,68.000000) scale(0.100000,-0.100000)" fill="#0c0d10" stroke="none">
    <path d="M140 545 c0 -8 7 -15 15 -15 8 0 15 7 15 15 0 8 -7 15 -15 15 -8 0
-15 -7 -15 -15z" />
    <path d="M582 503 l3 -28 -22 -3 c-12 -2 -35 4 -52 12 l-30 16 -53 0 c-29 0
-59 -4 -67 -9 l-14 -9 7 -28 6 -29 -15 19 c-8 11 -15 26 -15 33 l0 13 -55 0
-55 0 0 -15 0 -15 40 0 41 0 6 -16 6 -17 -17 -13 -17 -12 10 -39 11 -38 -35
38 c-19 20 -39 37 -45 37 -6 0 -9 4 -6 9 3 5 3 23 0 40 l-7 32 -15 -3 -16 -3
-8 -34 -9 -33 17 -19 c9 -10 25 -21 35 -24 11 -4 19 -11 19 -16 0 -6 7 -17 15
-25 8 -9 15 -26 15 -40 l0 -24 -14 0 c-8 0 -17 -6 -19 -12 l-5 -13 -1 18 -1
17 -19 0 c-30 0 -51 11 -51 27 l0 14 -17 -3 c-10 -2 -19 -11 -21 -21 l-3 -17
15 0 c9 0 16 -7 16 -15 l0 -15 27 -6 c15 -4 37 -19 50 -33 l24 -25 21 13 21
13 7 -13 c5 -6 14 -9 22 -6 8 3 36 1 61 -4 52 -9 77 -4 77 17 0 7 9 18 20 24
l20 11 0 -17 0 -17 48 5 48 5 22 19 c26 22 29 51 5 57 l-18 5 30 1 30 1 2 84
2 84 -24 27 c-14 14 -25 30 -25 36 0 5 -7 9 -15 9 l-16 0 3 -27z m-147 -90
c-3 -10 -9 -31 -12 -47 l-6 -28 13 -8 13 -8 -17 -36 c-17 -37 -36 -55 -36 -35
l0 12 -40 -6 -40 -5 0 19 0 19 16 0 16 0 -5 19 -5 19 19 5 c11 3 19 1 19 -4 0
-5 -4 -9 -10 -9 -5 0 -10 -9 -10 -20 l0 -20 15 0 15 0 0 20 0 20 15 0 15 0 0
20 c0 11 -4 20 -10 20 -16 0 -12 28 8 49 22 25 36 26 27 4z m120 -167 l28 7
-7 -12 c-4 -6 -23 -11 -41 -11 l-34 0 6 16 6 16 7 -12 7 -11 28 7z" />
    <path d="M720 495 c0 -8 7 -15 15 -15 8 0 15 7 15 15 0 8 -7 15 -15 15 -8 0
-15 -7 -15 -15z" />
    <path d="M330 51 c0 -21 13 -41 26 -41 15 0 17 10 8 34 -7 17 -34 22 -34 7z" />
  </g>
  <g transform="translate(0.000000,68.000000) scale(0.100000,-0.100000)" fill="#111216" stroke="none">
    <path d="M126 538 c-9 -36 -7 -48 9 -48 8 0 15 8 16 18 0 9 2 25 4 35 l3 17
-13 0 c-7 0 -15 -10 -19 -22z" />
    <path d="M240 525 c0 -8 7 -15 15 -15 8 0 15 7 15 15 0 8 -7 15 -15 15 -8 0
-15 -7 -15 -15z" />
    <path d="M594 508 c-4 -7 -14 -23 -21 -35 l-14 -21 12 -8 12 -7 -6 10 -6 10
24 11 24 11 17 -16 16 -16 -7 -56 -7 -56 -19 -20 -20 -20 7 18 6 17 -11 0 c-6
0 -11 -7 -11 -15 0 -8 -4 -15 -10 -15 l-10 0 11 28 10 27 -53 -56 c-29 -31
-64 -62 -77 -68 l-23 -13 6 11 7 11 -16 0 -17 0 6 -16 6 -16 -21 5 c-25 7 -51
-2 -43 -14 3 -5 0 -9 -5 -9 -6 0 -11 -4 -11 -10 0 -5 7 -10 15 -10 8 0 15 7
15 15 l0 15 21 0 21 0 -6 -15 -5 -15 17 0 c9 0 30 7 46 15 l30 16 29 -7 30 -6
-6 16 c-4 10 -3 15 1 12 4 -2 16 2 27 10 10 8 15 14 11 14 -5 0 -3 6 3 14 l11
13 25 -5 25 -4 0 16 c0 9 -6 19 -14 22 l-15 6 6 14 c3 8 14 14 25 14 l20 0 -5
20 c-3 11 -1 20 4 20 5 0 9 9 9 20 0 11 -4 20 -10 20 -5 0 -10 9 -10 20 l0 19
36 7 c38 7 54 28 36 46 l-11 11 -40 -15 -39 -15 -16 18 c-18 22 -32 24 -42 7z
m-4 -227 c0 -5 -13 -14 -30 -20 -31 -10 -39 -4 -18 17 14 14 48 16 48 3z" />
    <path d="M234 482 c2 -4 -11 -6 -30 -4 l-34 4 0 -17 0 -17 14 11 14 11 4 -25
c6 -27 -1 -32 -19 -14 l-12 12 2 -21 c0 -11 5 -18 9 -16 11 7 39 -22 30 -30
-3 -4 1 -4 10 -1 l16 7 11 -20 c6 -11 7 -23 3 -27 -4 -3 0 -5 8 -3 l15 3 3
-28 c2 -15 7 -25 11 -23 4 3 7 -9 6 -26 l-2 -31 -27 -19 c-29 -22 -26 -38 6
-38 l20 0 5 20 5 20 12 -7 11 -7 -12 16 -13 15 26 11 c14 7 31 12 39 12 l14 0
-5 -15 -6 -15 23 9 24 8 20 39 c11 21 23 41 28 42 15 7 6 22 -13 22 -11 0 -20
4 -20 9 0 21 23 71 33 71 12 1 -32 29 -44 30 -4 0 -9 -9 -12 -20 -3 -11 -12
-20 -21 -20 l-15 0 2 -25 c1 -13 -2 -24 -7 -24 -5 0 -12 -5 -16 -11 l-8 -13
-6 21 c-4 11 -17 23 -29 26 l-22 6 18 11 c9 5 17 19 17 29 l0 20 18 -17 c11
-10 16 -22 13 -28 -2 -5 3 -4 12 4 9 7 17 17 17 22 0 4 -11 19 -24 33 l-23 26
-52 0 c-29 0 -50 -4 -47 -8z m33 -9 c-4 -3 -10 -3 -14 0 -3 4 0 7 7 7 7 0 10
-3 7 -7z m50 -10 c-4 -3 -7 0 -7 7 0 7 3 10 7 7 3 -4 3 -10 0 -14z m13 -112
c0 -17 -18 -21 -24 -6 l-5 15 14 0 c8 0 15 -4 15 -9z m70 -11 c0 -5 -4 -10
-10 -10 -5 0 -10 5 -10 10 0 6 5 10 10 10 6 0 10 -4 10 -10z m-70 -36 c0 -2
-7 -4 -15 -4 -8 0 -15 4 -15 10 0 5 7 7 15 4 8 -4 15 -8 15 -10z m37 -11 c-4
-3 -7 0 -7 7 0 7 3 10 7 7 3 -4 3 -10 0 -14z" />
    <path d="M516 465 c4 -8 10 -12 15 -9 14 8 10 24 -6 24 l-14 0 5 -15z" />
    <path d="M110 311 c0 -5 -9 -7 -20 -4 l-20 5 0 -27 0 -27 20 5 20 5 0 -12 c0
-6 18 -17 39 -23 l40 -13 33 7 c18 3 37 12 41 20 5 7 14 10 20 7 7 -4 4 1 -5
11 l-17 18 -40 -21 c-39 -21 -71 -21 -71 0 l0 10 14 -11 14 -12 21 13 c12 7
21 18 21 25 l0 11 -50 11 c-61 13 -60 13 -60 2z m30 -15 c0 -3 -5 -8 -12 -12
l-11 -7 7 11 c7 12 16 16 16 8z" />
    <path d="M460 260 c0 -7 3 -10 7 -7 3 4 3 10 0 14 -4 3 -7 0 -7 -7z" />
    <path d="M344 218 l-7 -11 11 7 c7 4 12 9 12 12 0 8 -9 4 -16 -8z" />
    <path d="M345 50 c3 -5 1 -10 -4 -10 -6 0 -11 -9 -11 -20 0 -21 16 -26 39 -11
l13 9 -7 21 c-3 11 -13 21 -21 21 -8 0 -12 -4 -9 -10z" />
  </g>
  <g transform="translate(0.000000,68.000000) scale(0.100000,-0.100000)" fill="#adbbc9" stroke="none">
    <path d="M143 593 c-18 -7 -16 -23 2 -23 8 0 15 7 15 15 0 8 -1 15 -2 14 -2 0
-9 -3 -15 -6z" />
    <path d="M200 565 c0 -8 7 -15 15 -15 8 0 15 4 15 9 0 5 -7 11 -15 15 l-15 5
0 -14z" />
    <path d="M602 518 c3 -7 13 -15 24 -17 l18 -3 -13 16 c-16 19 -34 21 -29 4z" />
    <path d="M370 500 c-8 -5 -11 -12 -7 -16 4 -4 13 -2 19 4 6 6 10 14 7 16 -2 3
-11 1 -19 -4z" />
    <path d="M580 495 c0 -8 -7 -15 -15 -15 -8 0 -15 -4 -15 -10 0 -15 19 -12 36
4 16 17 19 36 4 36 -5 0 -10 -7 -10 -15z" />
    <path d="M690 500 c0 -5 7 -10 15 -10 8 0 15 5 15 10 0 6 -7 10 -15 10 -8 0
-15 -4 -15 -10z" />
    <path d="M500 480 c0 -5 7 -10 15 -10 8 0 15 5 15 10 0 6 -7 10 -15 10 -8 0
-15 -4 -15 -10z" />
    <path d="M126 445 c4 -8 10 -15 15 -15 5 0 9 7 9 15 0 8 -7 15 -15 15 l-14 0
5 -15z" />
    <path d="M710 444 l0 -16 15 12 c8 7 15 14 15 16 0 2 -7 4 -15 4 -8 0 -15 -7
-15 -16z" />
    <path d="M670 350 c0 -16 5 -30 10 -30 6 0 10 14 10 30 0 17 -4 30 -10 30 -5
0 -10 -13 -10 -30z" />
    <path d="M83 342 c-36 -5 -27 -22 12 -22 19 0 35 4 35 9 0 12 -20 18 -47 13z" />
    <path d="M233 323 c-18 -7 -16 -23 2 -23 8 0 15 7 15 15 0 8 -1 15 -2 14 -2 0
-9 -3 -15 -6z" />
    <path d="M655 271 l-6 -30 -30 -6 c-16 -4 -29 -11 -29 -16 0 -5 -7 -9 -15 -9
-8 0 -15 -6 -15 -14 0 -7 -9 -16 -20 -19 -11 -3 -20 -1 -20 4 0 5 -7 9 -15 9
-19 0 -30 -43 -16 -68 6 -12 11 -23 11 -26 0 -4 -25 -3 -55 0 l-55 7 0 -15 c0
-22 22 -38 88 -65 58 -23 132 -31 132 -13 0 6 -10 10 -22 10 l-21 0 17 19 18
19 -3 46 c-2 25 0 48 4 52 4 4 7 -2 7 -14 l0 -22 15 0 15 0 0 26 0 27 30 -6
c17 -4 30 -4 30 -1 0 10 -23 49 -33 55 l-9 6 11 21 c13 25 14 52 2 52 -5 0
-12 -13 -16 -29z" />
    <path d="M102 238 c6 -18 28 -21 28 -4 0 9 -7 16 -16 16 -9 0 -14 -5 -12 -12z" />
    <path d="M160 210 c0 -5 7 -10 15 -10 8 0 15 5 15 10 0 6 -7 10 -15 10 -8 0
-15 -4 -15 -10z" />
    <path d="M200 191 c0 -5 7 -11 15 -15 l15 -5 0 14 c0 8 -7 15 -15 15 -8 0 -15
-4 -15 -9z" />
    <path d="M620 35 l0 -15 30 0 30 0 0 15 0 15 -30 0 -30 0 0 -15z" />
  </g>
  <g transform="translate(0.000000,68.000000) scale(0.100000,-0.100000)" fill="#b2c2d3" stroke="none">
    <path d="M80 256 c0 -2 7 -9 15 -16 l15 -12 0 16 c0 9 -7 16 -15 16 -8 0 -15
-2 -15 -4z" />
    <path d="M646 228 l7 -23 -18 15 -19 15 8 -13 8 -13 -27 3 -28 3 -2 -17 c-2
-10 1 -20 6 -24 5 -3 9 2 9 10 l0 15 20 -2 c11 -1 20 -7 20 -14 0 -7 -6 -10
-12 -8 -7 2 -26 -7 -43 -20 l-30 -25 23 0 c28 0 29 -16 1 -23 l-21 -6 6 -10
c4 -6 14 -7 24 -4 l17 7 -17 -18 c-10 -9 -18 -20 -18 -23 0 -3 8 1 18 8 l17
13 -21 -24 c-12 -14 -24 -30 -27 -35 l-6 -11 57 -1 c31 -1 64 3 75 8 l18 10
-3 22 -3 22 -27 -3 c-30 -3 -32 1 -18 33 5 11 9 14 9 8 1 -18 21 -16 21 2 0 8
-4 15 -10 15 -15 0 -12 63 4 85 16 22 10 45 -11 45 l-14 0 7 -22z m-19 -95
c-4 -3 -7 0 -7 7 0 7 3 10 7 7 3 -4 3 -10 0 -14z m36 -100 c-7 -2 -19 -2 -25
0 -7 3 -2 5 12 5 14 0 19 -2 13 -5z" />
    <path d="M530 185 c0 -8 7 -15 15 -15 8 0 15 7 15 15 0 8 -7 15 -15 15 -8 0
-15 -7 -15 -15z" />
    <path d="M428 80 l24 -19 -7 -12 -8 -11 23 7 23 7 -6 -9 -6 -10 29 1 c17 1 30
4 30 8 0 4 -16 12 -34 19 -19 7 -32 17 -29 22 l6 9 -23 -7 -23 -7 7 11 7 11
-18 0 -18 -1 23 -19z" />
  </g>
  <g transform="translate(0.000000,68.000000) scale(0.100000,-0.100000)" fill="#a2b2c2" stroke="none">
    <path d="M203 523 c-14 -5 -18 -33 -5 -33 24 1 52 14 52 26 0 14 -23 17 -47 7z" />
    <path d="M646 265 l-6 -25 -15 0 c-8 0 -15 -5 -15 -11 l0 -10 19 6 18 5 13
-15 13 -16 -13 3 c-7 2 -15 -3 -17 -10 l-5 -14 21 11 c25 14 28 41 4 41 l-18
0 15 10 c8 5 11 10 5 10 -5 0 -4 4 4 9 7 5 10 14 7 20 -12 18 -23 13 -30 -14z" />
    <path d="M540 205 c-19 -8 -34 -17 -33 -22 1 -5 -11 -7 -28 -5 l-29 4 0 -21
c0 -11 -4 -21 -10 -21 -18 0 -11 -30 8 -31 l17 -1 -13 -5 c-22 -9 -2 -23 32
-23 l33 0 0 17 c0 10 -6 24 -14 31 -19 20 -16 32 10 33 56 2 96 17 69 26 l-13
5 18 14 18 13 -15 -1 c-8 0 -31 -6 -50 -13z" />
    <path d="M610 199 c0 -5 5 -7 10 -4 6 3 10 8 10 11 0 2 -4 4 -10 4 -5 0 -10
-5 -10 -11z" />
    <path d="M250 160 c0 -5 7 -10 15 -10 8 0 15 5 15 10 0 6 -7 10 -15 10 -8 0
-15 -4 -15 -10z" />
    <path d="M340 98 c1 -7 9 -23 20 -36 l18 -22 47 -9 c26 -5 52 -14 58 -20 6 -6
29 -11 51 -11 l41 1 -40 15 c-22 9 -55 20 -72 26 -18 6 -40 20 -50 30 l-16 18
16 0 c10 0 17 5 17 10 l0 10 -45 0 -45 0 0 -12z" />
    <path d="M556 65 l-20 -15 16 0 c8 0 21 7 28 15 16 19 1 19 -24 0z" />
  </g>
  <g transform="translate(0.000000,68.000000) scale(0.100000,-0.100000)" fill="#171822" stroke="none">
    <path d="M140 561 c0 -6 5 -11 11 -11 5 0 7 -4 4 -10 l-6 -10 16 0 16 0 -3 17
c-4 19 -38 31 -38 14z" />
    <path d="M200 553 c0 -7 7 -13 15 -13 8 0 15 6 15 13 0 8 -7 14 -15 14 -8 0
-15 -6 -15 -14z" />
    <path d="M260 516 l0 -14 -35 -12 c-19 -6 -33 -15 -30 -20 l5 -8 33 11 c36 13
57 30 57 46 0 6 -7 11 -15 11 -8 0 -15 -6 -15 -14z" />
    <path d="M604 501 l0 -20 13 11 c7 6 10 14 7 19 -9 15 -20 10 -20 -10z" />
    <path d="M704 499 l-7 -11 23 7 22 7 -4 -13 c-2 -7 -11 -13 -19 -15 -7 -1 -18
-3 -24 -5 -5 -1 -18 1 -28 6 -22 9 -35 -1 -19 -17 7 -7 12 -25 12 -41 l0 -28
10 6 c6 3 10 1 10 -4 0 -6 -5 -11 -11 -11 l-11 0 5 -21 6 -21 -14 6 -13 5 -7
-16 c-3 -9 -2 -19 2 -22 4 -3 9 -14 9 -24 l2 -18 -12 10 -12 10 -1 -20 c-1
-10 2 -19 6 -19 15 0 31 25 31 47 0 13 4 23 9 23 5 0 12 23 16 50 l7 50 24 19
c13 10 24 24 24 30 0 6 5 11 10 11 6 0 10 7 10 15 l0 15 -24 0 c-14 0 -28 -5
-32 -11z" />
    <path d="M300 489 c0 -5 6 -9 14 -9 8 0 17 -12 20 -26 l7 -25 11 3 c7 3 14 10
16 18 l5 13 -12 -7 c-18 -11 -13 1 8 21 l19 18 -44 1 c-24 1 -44 -3 -44 -7z" />
    <path d="M484 485 c26 -19 42 -19 26 0 -7 8 -20 15 -29 15 l-16 -1 19 -14z" />
    <path d="M155 460 c-9 -14 4 -52 16 -45 12 8 12 55 0 55 -6 0 -13 -5 -16 -10z" />
    <path d="M220 355 c0 -8 5 -15 10 -15 6 0 10 7 10 15 0 8 -4 15 -10 15 -5 0
-10 -7 -10 -15z" />
    <path d="M60 316 c0 -7 9 -16 21 -19 l21 -6 -7 -11 -8 -12 13 -8 13 -8 24 11
24 11 -6 14 c-3 7 -5 18 -5 23 0 5 -7 9 -16 9 l-15 0 8 -12 c11 -19 13 -38 3
-38 -15 0 -21 18 -8 23 7 3 3 6 -9 6 l-23 1 0 15 c0 8 -7 15 -15 15 -8 0 -15
-6 -15 -14z" />
    <path d="M250 306 c0 -14 5 -26 10 -26 6 0 10 9 10 19 0 11 -4 23 -10 26 l-10
6 0 -25z" />
    <path d="M430 319 c0 -5 5 -7 10 -4 6 3 10 8 10 11 0 2 -4 4 -10 4 -5 0 -10
-5 -10 -11z" />
    <path d="M173 298 c1 -7 10 -21 20 -30 l19 -17 -8 -13 -8 -13 19 15 c10 8 27
14 38 12 l19 -4 -6 10 c-3 5 -19 12 -36 15 l-30 7 0 15 c0 8 -7 15 -15 15 -8
0 -14 -6 -12 -12z" />
    <path d="M445 209 l-8 -12 21 5 22 6 0 -14 0 -14 20 0 20 0 0 15 c0 8 -6 15
-12 15 -7 0 -23 3 -34 6 l-22 6 -7 -13z" />
    <path d="M270 206 c0 -2 7 -7 16 -10 l15 -6 -6 10 c-6 10 -25 14 -25 6z" />
    <path d="M240 180 c0 -5 7 -10 16 -10 l15 0 -6 10 c-3 6 -10 10 -16 10 -5 0
-9 -4 -9 -10z" />
    <path d="M435 180 l-6 -10 15 0 c9 0 16 5 16 10 0 6 -4 10 -9 10 -6 0 -13 -4
-16 -10z" />
    <path d="M330 34 l0 -35 28 3 27 3 0 20 0 20 -25 -2 c-14 -1 -19 1 -12 3 17 8
15 24 -3 24 l-15 0 0 -36z m40 -8 c0 -2 -7 -6 -15 -10 -8 -3 -15 -1 -15 4 0 6
7 10 15 10 8 0 15 -2 15 -4z" />
  </g>
  <g transform="translate(0.000000,68.000000) scale(0.100000,-0.100000)" fill="#e5e6e7" stroke="none">
    <path d="M150 589 c0 -5 -4 -7 -10 -4 -5 3 -10 2 -10 -4 0 -5 -3 -16 -6 -25
-3 -9 -2 -16 4 -16 5 0 12 9 15 21 l6 21 33 -7 33 -6 -19 16 c-23 17 -46 20
-46 4z" />
    <path d="M220 560 c0 -7 9 -14 20 -17 11 -3 20 -9 20 -14 0 -5 7 -9 15 -9 8 0
15 -4 15 -10 0 -5 8 -10 18 -10 l17 0 -24 19 c-14 10 -37 26 -53 35 l-28 17 0
-11z" />
    <path d="M585 530 l-6 -10 16 0 16 0 -6 10 c-3 6 -8 10 -10 10 -2 0 -7 -4 -10
-10z" />
    <path d="M716 513 c-4 -5 -11 -8 -14 -8 -4 -1 -18 -5 -31 -9 l-23 -8 -9 13
c-4 7 -10 11 -13 8 -3 -3 0 -13 7 -23 l13 -18 38 16 c21 9 47 16 57 16 11 0
19 5 19 10 0 12 -33 14 -44 3z" />
    <path d="M380 500 c0 -5 7 -10 15 -10 8 0 15 5 15 10 0 6 -7 10 -15 10 -8 0
-15 -4 -15 -10z" />
    <path d="M420 500 c0 -5 15 -10 33 -10 17 -1 43 -7 57 -15 14 -8 34 -14 45
-15 l19 0 -10 10 c-5 5 -18 11 -29 13 -11 2 -33 9 -48 15 -35 15 -67 15 -67 2z" />
    <path d="M330 489 c0 -5 9 -9 20 -9 11 0 20 4 20 8 0 4 -9 8 -20 9 -11 1 -20
-2 -20 -8z" />
    <path d="M740 474 l0 -15 10 6 c6 3 10 10 10 16 0 5 -4 9 -10 9 -5 0 -10 -7
-10 -16z" />
    <path d="M120 460 c0 -5 5 -10 10 -10 6 0 9 -3 8 -7 -5 -13 31 -57 39 -49 4 4
3 10 -2 14 -6 4 -16 19 -24 35 -14 27 -31 36 -31 17z" />
    <path d="M690 410 c-17 -41 -6 -50 14 -11 18 35 19 41 7 41 -5 0 -14 -14 -21
-30z" />
    <path d="M213 352 c27 -28 38 -53 15 -34 -7 5 -28 13 -45 17 l-33 7 0 -10 c0
-5 13 -12 29 -15 16 -3 40 -9 55 -13 l26 -6 0 15 c0 20 -43 67 -61 67 l-13 0
27 -28z" />
    <path d="M95 340 c-3 -5 -1 -10 4 -10 6 0 11 5 11 10 0 6 -2 10 -4 10 -3 0 -8
-4 -11 -10z" />
    <path d="M55 330 l-6 -10 16 0 16 0 -6 10 c-3 6 -8 10 -10 10 -2 0 -7 -4 -10
-10z" />
    <path d="M670 324 l0 -15 10 6 c6 4 8 11 5 16 -9 14 -15 11 -15 -7z" />
    <path d="M65 279 c9 -17 18 -29 20 -27 2 1 1 15 -2 31 l-5 27 -14 0 -15 0 16
-31z" />
    <path d="M665 270 c-3 -5 -1 -10 4 -10 6 0 11 5 11 10 0 6 -2 10 -4 10 -3 0
-8 -4 -11 -10z" />
    <path d="M102 239 c2 -7 10 -15 17 -17 l14 -4 -5 13 c-2 7 -10 15 -17 17 l-13
5 4 -14z" />
    <path d="M665 220 c3 -5 8 -10 11 -10 2 0 4 5 4 10 0 6 -5 10 -11 10 -5 0 -7
-4 -4 -10z" />
    <path d="M148 208 l12 -12 12 12 12 12 -24 0 -24 0 12 -12z" />
    <path d="M195 190 c4 -6 11 -8 16 -5 5 4 9 2 9 -2 0 -5 9 -14 20 -21 l20 -12
0 13 c0 8 -11 19 -25 25 -32 15 -48 15 -40 2z" />
    <path d="M668 183 l-18 -4 0 -35 c0 -19 5 -34 10 -34 6 0 10 13 10 30 l0 29
15 -5 c8 -4 15 -1 15 4 0 14 -11 19 -32 15z" />
    <path d="M275 150 c3 -5 12 -10 19 -10 17 0 37 -45 30 -65 l-6 -15 11 0 c14 0
14 42 -1 75 l-11 25 -24 0 -24 0 6 -10z" />
    <path d="M660 80 c0 -11 5 -20 10 -20 6 0 10 -11 10 -25 0 -14 5 -25 10 -25 6
0 10 4 10 9 0 13 -29 81 -35 81 -3 0 -5 -9 -5 -20z" />
    <path d="M320 30 c0 -11 5 -20 10 -20 6 0 10 9 10 20 0 11 -4 20 -10 20 -5 0
-10 -9 -10 -20z" />
  </g>
  <g transform="translate(0.000000,68.000000) scale(0.100000,-0.100000)" fill="#1e202d" stroke="none">
    <path d="M167 546 l18 -25 33 1 c18 1 35 6 39 11 7 12 -18 28 -34 22 -6 -2
-14 1 -17 8 l-4 12 -11 -15 -11 -15 0 13 c0 6 -7 12 -15 12 l-16 0 18 -24z" />
    <path d="M120 539 c0 -11 24 -39 34 -39 3 0 6 9 6 19 0 10 -7 22 -16 25 -21 8
-24 8 -24 -5z" />
    <path d="M253 517 c-4 -7 -27 -19 -50 -25 l-43 -13 -11 -20 -10 -20 16 -25
c21 -33 37 -31 20 3 l-14 27 10 12 c12 14 73 28 111 25 14 -1 29 3 33 9 l8 12
-14 9 c-8 5 -20 7 -27 4 l-13 -5 6 10 c3 6 2 10 -4 10 -5 0 -14 -6 -18 -13z" />
    <path d="M585 501 c3 -5 -4 -16 -16 -24 l-20 -15 9 -6 c5 -3 15 1 22 9 7 8 16
12 21 9 11 -6 11 -1 3 20 -3 9 -10 16 -16 16 -5 0 -7 -4 -3 -9z" />
    <path d="M668 493 c-10 -2 -18 -9 -18 -14 0 -13 13 -11 36 6 19 14 14 17 -18
8z" />
    <path d="M335 480 c4 -6 11 -8 16 -5 14 9 11 15 -7 15 l-15 0 6 -10z" />
    <path d="M736 481 c-4 -7 -5 -15 -2 -18 9 -9 19 4 14 18 l-4 13 -8 -13z" />
    <path d="M340 429 l-12 -21 21 12 c12 6 21 15 21 20 0 18 -19 11 -30 -11z" />
    <path d="M692 438 c-14 -14 -16 -48 -3 -48 5 0 11 8 15 18 3 9 9 23 12 30 7
15 -8 16 -24 0z" />
    <path d="M73 315 l0 -15 19 0 18 0 0 15 0 15 -18 0 -19 0 0 -15z" />
    <path d="M153 289 l-2 -20 11 3 c15 5 19 38 4 38 -6 0 -12 -9 -13 -21z" />
    <path d="M230 300 l-15 -9 11 -18 c11 -18 31 -19 27 -2 -2 5 1 9 7 9 5 0 7 7
4 15 -7 17 -13 18 -34 5z" />
    <path d="M83 267 c-6 -10 15 -27 34 -27 l11 0 -5 18 c-5 20 -30 25 -40 9z" />
    <path d="M604 242 c-11 -10 -25 -17 -32 -14 -6 2 -12 -1 -12 -8 0 -6 -4 -9 -8
-6 -5 3 -9 -1 -9 -9 0 -8 3 -13 6 -11 3 1 23 10 44 20 20 9 37 23 37 31 0 8
-1 15 -3 15 -2 0 -12 -8 -23 -18z" />
    <path d="M160 230 c0 -5 7 -10 16 -10 l15 0 -6 10 c-3 6 -10 10 -16 10 -5 0
-9 -4 -9 -10z" />
    <path d="M450 206 c0 -2 7 -7 16 -10 l15 -6 -6 10 c-6 10 -25 14 -25 6z" />
    <path d="M230 185 c0 -8 7 -15 16 -15 l16 0 -12 15 c-7 8 -14 15 -16 15 -2 0
-4 -7 -4 -15z" />
    <path d="M280 185 l-12 -15 16 0 c9 0 16 7 16 15 0 8 -2 15 -4 15 -2 0 -9 -7
-16 -15z" />
    <path d="M367 183 c-12 -11 -8 -23 8 -23 8 0 15 7 15 15 0 16 -12 20 -23 8z" />
    <path d="M373 20 l-2 -20 30 0 c16 0 29 4 29 8 0 13 -23 32 -40 32 l-16 0 -1
-20z" />
  </g>
  <g transform="translate(0.000000,68.000000) scale(0.100000,-0.100000)" fill="#97a8b8" stroke="none">
    <path d="M198 533 l-18 -4 0 -20 0 -19 16 0 c8 0 13 4 9 9 -3 5 4 12 15 16 11
3 20 11 20 16 0 9 -12 10 -42 2z" />
    <path d="M237 513 c-12 -11 -8 -23 8 -23 8 0 15 7 15 15 0 16 -12 20 -23 8z" />
    <path d="M650 263 c0 -7 -6 -13 -14 -13 -7 0 -20 -7 -27 -16 l-14 -17 25 8
c14 4 25 8 25 9 0 0 8 10 18 22 l17 21 -15 0 c-8 0 -15 -6 -15 -14z" />
    <path d="M667 207 l-6 -15 15 -6 c16 -6 18 2 5 22 l-8 14 -6 -15z" />
    <path d="M495 193 c-11 -2 -39 -11 -62 -19 l-43 -16 0 -14 c0 -8 4 -14 9 -14
5 0 11 -10 14 -21 l6 -22 15 6 c8 3 18 2 21 -4 9 -14 25 -1 19 16 -3 8 -13 16
-22 18 l-17 5 17 1 16 1 -5 20 -5 20 19 0 c11 0 28 7 39 15 19 15 15 16 -21 8z" />
    <path d="M265 160 c3 -5 15 -10 26 -10 10 0 19 5 19 10 0 6 -12 10 -26 10
l-25 0 6 -10z" />
    <path d="M330 97 l0 -22 21 -13 c28 -18 37 -7 14 18 l-18 20 21 0 c12 0 22 5
22 10 0 6 -13 10 -30 10 l-30 0 0 -23z" />
    <path d="M390 40 c0 -17 35 -28 100 -34 36 -3 54 -2 41 1 -14 2 -34 11 -45 18
-12 7 -38 16 -58 19 l-38 6 0 -10z" />
  </g>
  <g transform="translate(0.000000,68.000000) scale(0.100000,-0.100000)" fill="#848d9d" stroke="none">
    <path d="M160 585 c0 -8 7 -15 15 -15 8 0 15 4 15 9 0 5 -7 11 -15 15 l-15 5
0 -14z" />
    <path d="M230 546 c0 -7 7 -13 15 -13 8 0 15 4 15 8 0 4 -7 9 -15 13 l-15 5 0
-13z" />
    <path d="M120 511 c0 -16 4 -32 10 -36 5 -3 39 0 75 6 l65 13 -3 10 c-2 5 -9
12 -17 14 l-13 5 7 -12 7 -11 -15 6 c-9 3 -16 10 -16 15 0 5 -14 9 -31 9 l-32
0 -14 -17 -15 -18 6 17 c3 10 1 20 -4 23 l-10 6 0 -30z m85 -1 c3 -5 1 -10 -4
-10 -6 0 -11 5 -11 10 0 6 2 10 4 10 3 0 8 -4 11 -10z" />
    <path d="M580 510 c0 -5 5 -10 11 -10 5 0 7 5 4 10 -3 6 -8 10 -11 10 -2 0 -4
-4 -4 -10z" />
    <path d="M705 500 l-6 -10 15 6 c18 7 21 14 7 14 -6 0 -13 -4 -16 -10z" />
    <path d="M736 475 c-3 -8 -1 -15 3 -15 5 0 11 7 15 15 3 8 1 15 -3 15 -5 0
-11 -7 -15 -15z" />
    <path d="M160 406 c0 -2 7 -9 15 -16 l15 -12 0 10 c0 5 -7 12 -15 16 -8 3 -15
4 -15 2z" />
    <path d="M117 333 c-16 -15 -5 -23 33 -23 43 0 54 14 18 24 -30 8 -43 7 -51
-1z" />
    <path d="M40 320 c0 -5 7 -10 15 -10 8 0 15 5 15 10 0 6 -7 10 -15 10 -8 0
-15 -4 -15 -10z" />
    <path d="M70 281 c0 -6 4 -12 8 -15 5 -3 9 1 9 9 0 8 -4 15 -9 15 -4 0 -8 -4
-8 -9z" />
    <path d="M646 275 c-3 -8 -1 -15 3 -15 5 0 11 7 15 15 3 8 1 15 -3 15 -5 0
-11 -7 -15 -15z" />
    <path d="M600 231 c-13 -11 -28 -17 -32 -15 -4 3 -8 0 -8 -5 0 -6 3 -11 6 -11
9 0 74 41 74 46 0 9 -16 3 -40 -15z" />
    <path d="M180 205 c7 -8 16 -15 21 -15 5 0 9 7 9 15 l0 15 -21 0 -21 0 12 -15z" />
    <path d="M308 193 c-10 -2 -18 -9 -18 -14 0 -18 45 -76 56 -72 6 2 31 -1 55
-6 24 -5 46 -8 48 -5 3 3 -7 15 -22 29 l-28 23 20 7 c21 6 29 25 12 25 -5 0
-25 -7 -45 -15 -36 -15 -40 -14 -37 18 l2 17 -13 -1 c-7 -1 -21 -3 -30 -6z" />
    <path d="M500 190 l-15 -10 12 0 c6 0 15 5 18 10 8 12 4 12 -15 0z" />
    <path d="M330 76 c0 -9 7 -16 15 -16 8 0 15 -4 15 -10 0 -5 6 -10 13 -10 7 0
23 -9 35 -20 l21 -20 48 1 48 0 -21 9 c-12 5 -36 11 -53 13 -18 3 -46 16 -64
29 -18 14 -38 28 -44 32 l-13 7 0 -15z" />
  </g>
  <g transform="translate(0.000000,68.000000) scale(0.100000,-0.100000)" fill="#050508" stroke="none">
    <path d="M130 559 l0 -21 15 12 c8 7 15 16 15 21 0 5 -7 9 -15 9 l-15 0 0 -21z" />
    <path d="M586 508 c3 -5 10 -6 15 -3 13 9 11 12 -6 12 -8 0 -12 -4 -9 -9z" />
    <path d="M394 493 c10 -10 66 -11 72 -1 3 4 -14 8 -37 8 -23 0 -39 -3 -35 -7z" />
    <path d="M600 480 c0 -7 3 -10 7 -7 3 4 3 10 0 14 -4 3 -7 0 -7 -7z" />
    <path d="M524 458 l-7 -11 11 7 c12 7 16 16 8 16 -3 0 -8 -5 -12 -12z" />
    <path d="M556 458 c3 -5 10 -6 15 -3 13 9 11 12 -6 12 -8 0 -12 -4 -9 -9z" />
    <path d="M196 391 c-3 -4 3 -16 13 -25 l19 -17 6 10 c4 5 -3 12 -14 16 -11 4
-18 11 -15 16 4 5 4 9 1 9 -3 0 -7 -4 -10 -9z" />
    <path d="M245 330 c3 -5 8 -10 11 -10 2 0 4 5 4 10 0 6 -5 10 -11 10 -5 0 -7
-4 -4 -10z" />
    <path d="M637 333 c-4 -3 -7 -11 -7 -17 l0 -10 12 12 c6 6 9 14 7 17 -3 3 -9
2 -12 -2z" />
    <path d="M110 300 c0 -5 5 -10 11 -10 5 0 7 5 4 10 -3 6 -8 10 -11 10 -2 0 -4
-4 -4 -10z" />
    <path d="M140 301 c0 -6 4 -12 8 -15 5 -3 9 1 9 9 0 8 -4 15 -9 15 -4 0 -8 -4
-8 -9z" />
    <path d="M70 288 c0 -4 5 -8 11 -8 l10 0 -7 -12 -7 -13 8 8 c15 13 14 34 -1
34 -8 0 -14 -4 -14 -9z" />
    <path d="M256 271 c-4 -5 -2 -12 3 -15 5 -4 12 -2 15 3 4 5 2 12 -3 15 -5 4
-12 2 -15 -3z" />
    <path d="M174 258 l-7 -11 11 7 c12 7 16 16 8 16 -3 0 -8 -5 -12 -12z" />
    <path d="M210 259 c0 -5 5 -7 10 -4 6 3 10 8 10 11 0 2 -4 4 -10 4 -5 0 -10
-5 -10 -11z" />
    <path d="M186 232 c-6 -10 30 -52 44 -52 16 0 11 19 -10 40 -22 22 -27 24 -34
12z" />
    <path d="M573 233 c-7 -2 -13 -12 -13 -21 l0 -17 9 13 c4 8 11 13 15 13 20 -3
26 0 21 9 -7 11 -13 11 -32 3z" />
    <path d="M314 205 c-4 -8 -10 -12 -15 -9 -5 3 -9 0 -9 -6 l0 -11 20 5 c11 3
30 9 42 12 l21 6 -5 -14 -6 -14 29 -2 c16 -1 29 0 29 2 0 6 -79 46 -91 46 -5
0 -12 -7 -15 -15z m23 -2 c-4 -3 -10 -3 -14 0 -3 4 0 7 7 7 7 0 10 -3 7 -7z" />
    <path d="M513 213 c-17 -2 -37 -11 -43 -19 l-12 -14 21 0 22 0 -6 10 -6 10 29
-6 29 -6 0 16 c0 9 -1 15 -1 14 -1 0 -15 -3 -33 -5z" />
  </g>
  <g transform="translate(0.000000,68.000000) scale(0.100000,-0.100000)" fill="#7b8390" stroke="none">
    <path d="M180 575 c0 -8 7 -15 15 -15 8 0 15 4 15 9 0 5 -7 11 -15 15 l-15 5
0 -14z" />
    <path d="M150 527 c0 -9 3 -22 6 -31 l6 -16 25 0 c14 0 35 8 48 19 l24 18 -12
12 c-16 16 -32 14 -18 -3 l12 -15 -19 -10 -20 -11 -10 13 c-6 6 -10 17 -11 22
0 6 -7 11 -15 13 l-16 3 0 -14z m24 -23 l6 -15 -10 6 c-6 3 -10 10 -10 16 0
14 7 11 14 -7z" />
    <path d="M120 511 c0 -6 4 -13 10 -16 l10 -6 -6 15 c-7 18 -14 21 -14 7z" />
    <path d="M626 497 c3 -10 9 -15 12 -12 3 3 0 11 -7 18 l-12 12 7 -18z" />
    <path d="M470 493 c8 -3 24 -10 35 -15 l20 -9 -19 15 c-11 9 -27 16 -35 15
l-16 -1 15 -5z" />
    <path d="M120 466 c0 -2 7 -9 15 -16 l15 -12 0 16 c0 9 -7 16 -15 16 -8 0 -15
-2 -15 -4z" />
    <path d="M693 423 c-3 -10 -8 -21 -10 -25 -2 -5 0 -8 5 -8 5 0 14 11 20 25
l12 25 -11 0 c-5 0 -12 -8 -16 -17z" />
    <path d="M210 366 c0 -2 8 -10 18 -17 l17 -14 -14 18 c-13 16 -21 21 -21 13z" />
    <path d="M40 316 c0 -9 5 -16 10 -16 6 0 10 4 10 9 0 6 -4 13 -10 16 l-10 6 0
-15z" />
    <path d="M136 323 c-3 -3 -3 -10 0 -14 7 -12 44 -12 44 0 0 10 -36 21 -44 14z" />
    <path d="M97 313 c-12 -11 -8 -23 8 -23 8 0 15 7 15 15 0 16 -12 20 -23 8z" />
    <path d="M200 310 c0 -5 7 -10 15 -10 8 0 15 5 15 10 0 6 -7 10 -15 10 -8 0
-15 -4 -15 -10z" />
    <path d="M235 279 c-4 -6 -4 -13 -1 -16 8 -8 36 5 36 17 0 13 -27 13 -35 -1z" />
    <path d="M627 263 c-12 -11 -8 -23 8 -23 8 0 15 7 15 15 0 16 -12 20 -23 8z" />
    <path d="M132 228 c5 -15 68 -24 68 -10 0 10 -32 22 -58 22 -8 0 -12 -6 -10
-12z" />
    <path d="M294 186 l-19 -14 9 -9 9 -8 4 13 c3 6 11 12 19 12 8 0 14 5 14 10 0
14 -13 12 -36 -4z" />
    <path d="M230 181 c0 -5 7 -11 15 -15 8 -3 15 -1 15 3 0 5 -7 11 -15 15 -8 3
-15 1 -15 -3z" />
    <path d="M328 176 c-21 -16 -24 -38 -4 -30 8 3 17 1 21 -5 l6 -11 -15 0 c-18
0 -21 -16 -6 -25 6 -3 10 -2 10 2 0 5 9 9 20 10 11 1 20 -3 20 -8 0 -6 6 -9
13 -6 6 2 19 1 28 -4 l16 -8 0 15 c0 7 -3 12 -5 9 -8 -8 -34 34 -27 45 l6 10
-30 0 c-16 0 -31 4 -33 9 l-3 10 -17 -13z m82 -50 c0 -2 -11 -1 -25 2 -14 2
-22 8 -19 13 l5 9 20 -10 c10 -6 19 -12 19 -14z" />
    <path d="M445 180 l-6 -10 15 0 c9 0 16 5 16 10 0 6 -4 10 -9 10 -6 0 -13 -4
-16 -10z" />
    <path d="M347 73 c-6 -10 13 -28 51 -50 26 -16 32 -16 32 -3 0 6 -7 10 -15 10
-8 0 -15 5 -15 10 0 6 -5 10 -11 10 -7 0 -17 7 -24 17 l-12 16 -6 -10z" />
    <path d="M440 9 c0 -5 10 -9 22 -9 12 0 18 3 14 7 -10 11 -36 12 -36 2z" />
  </g>
  <g transform="translate(0.000000,68.000000) scale(0.100000,-0.100000)" fill="#b8cade" stroke="none">
    <path d="M636 251 c-7 -11 22 -36 31 -27 3 3 1 6 -6 6 l-13 0 6 15 c6 16 -9
21 -18 6z" />
    <path d="M637 154 c-4 -27 -9 -63 -13 -81 l-6 -32 28 8 29 8 -3 14 c-2 8 -6
34 -9 59 -3 25 -9 51 -13 59 l-7 14 -6 -49z" />
    <path d="M668 28 c-10 -10 -18 -20 -18 -23 0 -3 11 -5 25 -5 26 0 28 4 17 30
l-7 16 -17 -18z" />
  </g>
  <g transform="translate(0.000000,68.000000) scale(0.100000,-0.100000)" fill="#2a2a36" stroke="none">
    <path d="M140 575 c0 -2 9 -9 20 -15 l20 -11 0 16 0 15 -20 0 c-11 0 -20 -2
-20 -5z" />
    <path d="M223 549 c3 -16 41 -55 60 -62 l15 -6 6 15 6 15 -10 -6 c-5 -3 -18
-1 -27 5 l-18 12 19 -6 19 -6 -13 15 c-7 9 -19 14 -27 11 l-13 -5 0 14 c0 8
-4 15 -10 15 -5 0 -9 -5 -7 -11z" />
    <path d="M123 525 l0 -13 16 6 16 5 -17 -20 c-20 -22 -24 -43 -8 -43 6 0 10
-8 10 -17 l0 -17 11 11 11 11 -11 20 -11 21 10 6 c15 9 12 23 -8 34 l-19 10 0
-14z" />
    <path d="M595 520 c3 -5 11 -10 16 -10 6 0 7 5 4 10 -3 6 -11 10 -16 10 -6 0
-7 -4 -4 -10z" />
    <path d="M395 500 l-6 -10 15 0 c9 0 16 5 16 10 0 6 -4 10 -9 10 -6 0 -13 -4
-16 -10z" />
    <path d="M693 493 c4 -3 10 -3 14 0 3 4 0 7 -7 7 -7 0 -10 -3 -7 -7z" />
    <path d="M570 469 c0 -5 5 -7 10 -4 6 3 10 8 10 11 0 2 -4 4 -10 4 -5 0 -10
-5 -10 -11z" />
    <path d="M346 442 c-3 -6 -1 -14 5 -17 15 -10 25 3 12 16 l-11 11 -6 -10z" />
    <path d="M697 433 c-10 -9 -9 -23 1 -23 5 0 9 7 9 15 0 17 -1 18 -10 8z" />
    <path d="M180 390 c0 -5 5 -10 11 -10 5 0 7 5 4 10 -3 6 -8 10 -11 10 -2 0 -4
-4 -4 -10z" />
    <path d="M680 391 c0 -5 -3 -16 -6 -25 l-6 -16 13 0 c7 0 9 3 6 6 -3 4 -2 15
4 25 l10 19 -11 0 c-5 0 -10 -4 -10 -9z" />
    <path d="M642 331 c4 -13 18 -16 19 -4 0 4 -5 9 -11 12 -7 2 -11 -2 -8 -8z" />
    <path d="M43 313 c0 -7 5 -13 11 -14 6 0 19 -2 29 -4 9 -2 17 1 17 6 0 5 -7 9
-16 9 -8 0 -13 4 -9 9 l5 10 -18 -2 c-10 0 -19 -7 -19 -14z" />
    <path d="M137 309 c7 -7 15 -10 18 -7 3 3 -2 9 -12 12 l-18 7 12 -12z" />
    <path d="M185 300 l6 -10 -15 0 c-9 0 -16 -4 -16 -9 0 -16 27 -20 63 -10 l34
9 0 15 0 15 -39 0 -39 0 6 -10z" />
    <path d="M627 263 c-10 -9 -9 -23 1 -23 5 0 9 7 9 15 0 17 -1 18 -10 8z" />
    <path d="M115 240 c3 -5 17 -10 31 -10 l25 0 -6 10 c-3 6 -17 10 -31 10 l-25
0 6 -10z" />
    <path d="M190 215 c7 -9 15 -13 17 -11 7 7 -7 26 -19 26 l-10 0 12 -15z" />
    <path d="M585 220 l-6 -10 15 6 c18 7 21 14 7 14 -6 0 -13 -4 -16 -10z" />
    <path d="M305 191 l-6 -10 21 4 21 4 6 -14 5 -15 33 0 c19 0 37 5 41 11 l7 12
-32 -5 -31 -5 -11 14 c-13 15 -45 17 -54 4z" />
    <path d="M513 193 c4 -3 10 -3 14 0 3 4 0 7 -7 7 -7 0 -10 -3 -7 -7z" />
    <path d="M446 182 c-3 -5 1 -9 9 -9 8 0 15 4 15 9 0 4 -4 8 -9 8 -6 0 -12 -4
-15 -8z" />
    <path d="M320 55 c0 -8 4 -15 9 -15 5 0 11 7 15 15 l5 15 -14 0 c-8 0 -15 -7
-15 -15z" />
  </g>
  <g transform="translate(0.000000,68.000000) scale(0.100000,-0.100000)" fill="#8e9baa" stroke="none">
    <path d="M195 520 c4 -6 11 -8 16 -5 14 9 11 15 -7 15 l-15 0 6 -10z" />
    <path d="M590 526 c0 -2 7 -7 16 -10 l15 -6 -6 10 c-6 10 -25 14 -25 6z" />
    <path d="M173 503 c4 -3 10 -3 14 0 3 4 0 7 -7 7 -7 0 -10 -3 -7 -7z" />
    <path d="M225 500 l-6 -10 16 0 16 0 -6 10 c-3 6 -8 10 -10 10 -2 0 -7 -4 -10
-10z" />
    <path d="M743 495 c0 -8 4 -15 9 -15 4 0 8 7 8 15 0 8 -4 15 -8 15 -5 0 -9 -7
-9 -15z" />
    <path d="M485 490 c3 -5 8 -10 11 -10 3 0 2 5 -1 10 -3 6 -8 10 -11 10 -3 0
-2 -4 1 -10z" />
    <path d="M120 475 c0 -8 4 -15 8 -15 5 0 9 7 9 15 0 8 -4 15 -9 15 -4 0 -8 -7
-8 -15z" />
    <path d="M650 480 c0 -5 7 -7 15 -4 8 4 15 8 15 10 0 2 -7 4 -15 4 -8 0 -15
-4 -15 -10z" />
    <path d="M133 325 l0 -15 14 11 c7 6 13 13 13 15 0 2 -6 4 -13 4 -8 0 -14 -7
-14 -15z" />
    <path d="M666 331 c-4 -7 -5 -15 -2 -18 9 -9 19 4 14 18 l-4 13 -8 -13z" />
    <path d="M650 290 c0 -5 5 -10 10 -10 6 0 10 5 10 10 0 6 -4 10 -10 10 -5 0
-10 -4 -10 -10z" />
    <path d="M634 261 c4 -5 0 -11 -6 -14 -7 -2 -1 -4 13 -3 l26 1 -4 13 c-3 6
-12 12 -20 12 -8 0 -12 -4 -9 -9z" />
    <path d="M95 250 c3 -5 11 -10 16 -10 6 0 7 5 4 10 -3 6 -11 10 -16 10 -6 0
-7 -4 -4 -10z" />
    <path d="M155 220 c-3 -5 -2 -10 4 -10 5 0 13 5 16 10 3 6 2 10 -4 10 -5 0
-13 -4 -16 -10z" />
    <path d="M665 220 c3 -5 8 -10 11 -10 3 0 2 5 -1 10 -3 6 -8 10 -11 10 -3 0
-2 -4 1 -10z" />
    <path d="M320 189 c0 -5 5 -7 10 -4 6 3 10 8 10 11 0 2 -4 4 -10 4 -5 0 -10
-5 -10 -11z" />
    <path d="M460 179 c0 -5 5 -7 10 -4 6 3 10 8 10 11 0 2 -4 4 -10 4 -5 0 -10
-5 -10 -11z" />
    <path d="M250 166 l0 -13 25 5 c28 5 24 22 -6 22 l-19 0 0 -14z" />
    <path d="M411 171 l-13 -8 11 -7 11 -7 0 11 c0 6 4 9 9 5 5 -3 12 -1 16 5 8
12 -15 13 -34 1z" />
    <path d="M389 142 l24 -19 -19 -11 c-10 -6 -14 -12 -8 -12 11 0 34 20 34 30 0
4 -12 12 -27 19 l-28 12 24 -19z" />
    <path d="M325 92 l0 -27 19 -8 c22 -9 31 -3 21 12 -3 6 -11 9 -16 6 -5 -4 -9
3 -9 14 0 11 -4 22 -8 25 -4 2 -8 -8 -7 -22z" />
    <path d="M433 104 c0 -8 6 -14 14 -14 7 0 13 4 13 9 0 5 -6 11 -13 14 l-14 5
0 -14z" />
    <path d="M416 22 c-4 -7 -5 -12 -2 -12 2 0 11 -3 20 -6 l16 -6 0 18 0 19 -9
-14 -9 -13 -4 13 -4 13 -8 -12z" />
    <path d="M466 9 c3 -5 12 -9 21 -9 19 0 9 13 -12 16 -8 1 -13 -2 -9 -7z" />
  </g>
  <g transform="translate(0.000000,68.000000) scale(0.100000,-0.100000)" fill="#616677" stroke="none">
    <path d="M155 590 c-8 -13 -1 -24 14 -19 l10 4 -8 14 -8 13 -8 -12z" />
    <path d="M158 539 l-17 -10 5 -14 c4 -8 1 -15 -4 -15 -6 0 -10 -9 -9 -20 2
-24 14 -25 58 -5 l34 16 -41 -4 -41 -5 11 23 10 22 18 -5 c10 -2 25 -2 33 2
l16 6 -7 11 -6 11 -10 -13 -10 -14 -5 13 c-6 14 -12 15 -35 1z" />
    <path d="M250 540 c0 -5 5 -10 11 -10 5 0 7 5 4 10 -3 6 -8 10 -11 10 -2 0 -4
-4 -4 -10z" />
    <path d="M255 511 c3 -5 -3 -12 -12 -14 l-18 -5 29 -1 28 -1 -12 15 c-14 16
-25 21 -15 6z" />
    <path d="M448 493 c7 -3 16 -2 19 1 4 3 -2 6 -13 5 l-19 -1 13 -5z" />
    <path d="M683 493 c4 -3 10 -3 14 0 3 4 0 7 -7 7 -7 0 -10 -3 -7 -7z" />
    <path d="M636 478 c3 -4 9 -8 15 -8 5 0 9 4 9 8 0 5 -7 9 -15 9 -8 0 -12 -4
-9 -9z" />
    <path d="M90 331 c0 -4 6 -13 13 -20 l12 -14 -12 7 -13 7 0 -10 c0 -16 19 -13
36 4 l15 15 -11 0 c-6 0 -9 4 -6 8 2 4 -4 9 -15 9 -10 1 -19 -2 -19 -6z" />
    <path d="M177 324 c-13 -13 -7 -24 14 -24 l21 0 -4 12 c-5 14 -22 21 -31 12z" />
    <path d="M650 296 c0 -2 6 -9 13 -15 l14 -11 0 15 c0 8 -6 15 -14 15 -7 0 -13
-2 -13 -4z" />
    <path d="M174 278 c-3 -4 1 -8 8 -8 7 0 23 -3 36 -6 l22 -6 0 10 c0 12 -59 22
-66 10z" />
    <path d="M80 260 c0 -6 7 -10 15 -10 8 0 15 2 15 4 0 2 -7 6 -15 10 -8 3 -15
1 -15 -4z" />
    <path d="M133 243 c-20 -7 -15 -25 5 -19 9 3 30 -1 45 -9 15 -8 25 -10 22 -5
-10 16 -59 38 -72 33z" />
    <path d="M609 233 l-14 -18 18 14 c16 13 21 21 13 21 -2 0 -10 -8 -17 -17z" />
    <path d="M334 182 c0 -9 5 -20 10 -23 10 -8 59 -1 90 11 l21 9 -47 -6 -48 -6
0 11 c0 5 -6 12 -14 15 l-14 5 2 -16z" />
    <path d="M478 183 c7 -3 16 -2 19 1 4 3 -2 6 -13 5 l-19 -1 13 -5z" />
    <path d="M415 10 c3 -5 11 -10 16 -10 6 0 7 5 4 10 -3 6 -11 10 -16 10 -6 0
-7 -4 -4 -10z" />
  </g>
  <g transform="translate(0.000000,68.000000) scale(0.100000,-0.100000)" fill="#ccced0" stroke="none">
    <path d="M154 588 l-7 -11 11 7 c12 7 16 16 8 16 -3 0 -8 -5 -12 -12z" />
    <path d="M176 582 c-4 -7 -5 -12 -2 -12 2 0 11 -3 20 -6 l16 -6 0 12 c0 6 -4
9 -9 6 -5 -4 -11 -1 -13 6 l-4 12 -8 -12z" />
    <path d="M127 553 c-4 -3 -7 -11 -7 -17 l0 -10 12 12 c6 6 9 14 7 17 -3 3 -9
2 -12 -2z" />
    <path d="M223 553 c4 -3 10 -3 14 0 3 4 0 7 -7 7 -7 0 -10 -3 -7 -7z" />
    <path d="M285 515 c22 -19 46 -35 53 -35 6 0 12 2 12 4 0 1 -24 17 -52 35
l-53 31 40 -35z" />
    <path d="M725 510 l-6 -10 16 0 16 0 -6 10 c-3 6 -8 10 -10 10 -2 0 -7 -4 -10
-10z" />
    <path d="M396 502 c-2 -4 7 -9 20 -10 l25 -2 -6 10 c-7 12 -32 13 -39 2z" />
    <path d="M650 480 c0 -7 3 -10 7 -7 3 4 3 10 0 14 -4 3 -7 0 -7 -7z" />
    <path d="M743 483 c4 -3 10 -3 14 0 3 4 0 7 -7 7 -7 0 -10 -3 -7 -7z" />
    <path d="M525 470 c3 -5 11 -10 16 -10 6 0 7 5 4 10 -3 6 -11 10 -16 10 -6 0
-7 -4 -4 -10z" />
    <path d="M123 463 c4 -3 10 -3 14 0 3 4 0 7 -7 7 -7 0 -10 -3 -7 -7z" />
    <path d="M725 460 c-3 -5 -2 -10 4 -10 5 0 13 5 16 10 3 6 2 10 -4 10 -5 0
-13 -4 -16 -10z" />
    <path d="M693 413 c4 -3 10 -3 14 0 3 4 0 7 -7 7 -7 0 -10 -3 -7 -7z" />
    <path d="M684 388 l-7 -11 11 7 c7 4 12 9 12 12 0 8 -9 4 -16 -8z" />
    <path d="M185 380 c3 -5 11 -10 16 -10 6 0 7 5 4 10 -3 6 -11 10 -16 10 -6 0
-7 -4 -4 -10z" />
    <path d="M670 349 c0 -5 5 -7 10 -4 6 3 10 8 10 11 0 2 -4 4 -10 4 -5 0 -10
-5 -10 -11z" />
    <path d="M128 333 c6 -2 18 -2 25 0 6 3 1 5 -13 5 -14 0 -19 -2 -12 -5z" />
    <path d="M660 311 c0 -12 5 -21 10 -21 6 0 10 6 10 14 0 8 -4 18 -10 21 l-10
6 0 -20z" />
    <path d="M120 231 c0 -9 30 -24 36 -18 2 1 -6 8 -16 15 -11 7 -20 8 -20 3z" />
    <path d="M195 200 c-3 -5 -1 -10 4 -10 6 0 11 5 11 10 0 6 -2 10 -4 10 -3 0
-8 -4 -11 -10z" />
    <path d="M680 191 c0 -6 4 -13 10 -16 l10 -6 -6 15 c-7 18 -14 21 -14 7z" />
    <path d="M225 180 c3 -5 8 -10 11 -10 2 0 4 5 4 10 0 6 -5 10 -11 10 -5 0 -7
-4 -4 -10z" />
    <path d="M310 141 c0 -6 4 -13 10 -16 l10 -6 -6 15 c-7 18 -14 21 -14 7z" />
    <path d="M330 90 c0 -7 3 -10 7 -7 3 4 3 10 0 14 -4 3 -7 0 -7 -7z" />
    <path d="M323 30 c0 -17 4 -30 9 -30 4 0 8 11 8 24 0 14 -4 27 -8 30 -5 3 -9
-8 -9 -24z" />
  </g>
  <g transform="translate(0.000000,68.000000) scale(0.100000,-0.100000)" fill="#717884" stroke="none">
    <path d="M143 583 c-7 -3 -13 -12 -13 -21 l0 -17 8 11 c4 6 14 13 22 16 l14 4
-9 6 c-6 3 -16 3 -22 1z" />
    <path d="M214 548 l-7 -11 11 7 c12 7 16 16 8 16 -3 0 -8 -5 -12 -12z" />
    <path d="M166 528 c3 -5 10 -6 15 -3 13 9 11 12 -6 12 -8 0 -12 -4 -9 -9z" />
    <path d="M260 536 c0 -2 8 -10 18 -17 l17 -14 -14 18 c-13 16 -21 21 -21 13z" />
    <path d="M580 519 c0 -5 5 -7 10 -4 6 3 10 8 10 11 0 2 -4 4 -10 4 -5 0 -10
-5 -10 -11z" />
    <path d="M125 490 c-3 -5 -1 -10 4 -10 6 0 11 5 11 10 0 6 -2 10 -4 10 -3 0
-8 -4 -11 -10z" />
    <path d="M338 483 c6 -2 18 -2 25 0 6 3 1 5 -13 5 -14 0 -19 -2 -12 -5z" />
    <path d="M520 470 c8 -5 22 -9 30 -9 l15 0 -20 9 c-27 12 -43 12 -25 0z" />
    <path d="M140 441 c0 -6 4 -13 10 -16 l10 -6 -6 15 c-7 18 -14 21 -14 7z" />
    <path d="M680 380 c0 -7 3 -10 7 -7 3 4 3 10 0 14 -4 3 -7 0 -7 -7z" />
    <path d="M235 340 c3 -5 8 -10 11 -10 3 0 2 5 -1 10 -3 6 -8 10 -11 10 -3 0
-2 -4 1 -10z" />
    <path d="M170 315 l-12 -15 14 0 c8 0 15 7 15 15 0 8 -1 15 -2 15 -2 0 -8 -7
-15 -15z" />
    <path d="M215 310 l-6 -10 16 0 16 0 -6 10 c-3 6 -8 10 -10 10 -2 0 -7 -4 -10
-10z" />
    <path d="M66 295 c4 -8 8 -15 10 -15 2 0 4 7 4 15 0 8 -4 15 -10 15 -5 0 -7
-7 -4 -15z" />
    <path d="M650 300 c0 -5 5 -10 10 -10 6 0 10 5 10 10 0 6 -4 10 -10 10 -5 0
-10 -4 -10 -10z" />
    <path d="M205 270 c3 -5 11 -10 16 -10 6 0 7 5 4 10 -3 6 -11 10 -16 10 -6 0
-7 -4 -4 -10z" />
    <path d="M643 263 c4 -3 10 -3 14 0 3 4 0 7 -7 7 -7 0 -10 -3 -7 -7z" />
    <path d="M110 246 c0 -2 8 -10 18 -17 l17 -14 -14 18 c-13 16 -21 21 -21 13z" />
    <path d="M156 223 l-7 -18 12 12 c7 7 10 15 7 18 -3 3 -9 -2 -12 -12z" />
    <path d="M217 189 c7 -7 15 -10 18 -7 3 3 -2 9 -12 12 l-18 7 12 -12z" />
    <path d="M533 193 c4 -3 10 -3 14 0 3 4 0 7 -7 7 -7 0 -10 -3 -7 -7z" />
    <path d="M280 180 l-15 -10 12 0 c6 0 15 5 18 10 8 12 4 12 -15 0z" />
    <path d="M340 170 l-15 -10 13 0 c7 0 11 -4 8 -9 -7 -11 21 -8 31 4 l8 8 -12
-7 -11 -6 -4 15 -3 14 -15 -9z" />
    <path d="M320 120 c0 -7 3 -10 7 -7 3 4 3 10 0 14 -4 3 -7 0 -7 -7z" />
    <path d="M343 123 c4 -3 10 -3 14 0 3 4 0 7 -7 7 -7 0 -10 -3 -7 -7z" />
    <path d="M355 50 c3 -5 11 -10 16 -10 6 0 7 5 4 10 -3 6 -11 10 -16 10 -6 0
-7 -4 -4 -10z" />
    <path d="M433 3 c4 -3 10 -3 14 0 3 4 0 7 -7 7 -7 0 -10 -3 -7 -7z" />
    <path d="M478 3 c7 -3 16 -2 19 1 4 3 -2 6 -13 5 l-19 -1 13 -5z" />
  </g>
  <g transform="translate(0.000000,68.000000) scale(0.100000,-0.100000)" fill="#595963" stroke="none">
    <path d="M170 570 c0 -5 7 -10 16 -10 l15 0 -6 10 c-3 6 -10 10 -16 10 -5 0
-9 -4 -9 -10z" />
    <path d="M187 529 c7 -7 15 -10 18 -7 3 3 -2 9 -12 12 l-18 7 12 -12z" />
    <path d="M583 523 c4 -3 10 -3 14 0 3 4 0 7 -7 7 -7 0 -10 -3 -7 -7z" />
    <path d="M281 517 c2 -1 13 -9 24 -17 l20 -15 -14 18 c-7 9 -18 17 -24 17 -6
0 -8 -1 -6 -3z" />
    <path d="M615 510 c3 -5 8 -10 11 -10 3 0 2 5 -1 10 -3 6 -8 10 -11 10 -3 0
-2 -4 1 -10z" />
    <path d="M723 503 c4 -3 10 -3 14 0 3 4 0 7 -7 7 -7 0 -10 -3 -7 -7z" />
    <path d="M215 490 l-6 -10 15 6 c18 7 21 14 7 14 -6 0 -13 -4 -16 -10z" />
    <path d="M263 493 c4 -3 10 -3 14 0 3 4 0 7 -7 7 -7 0 -10 -3 -7 -7z" />
    <path d="M383 493 c4 -3 10 -3 14 0 3 4 0 7 -7 7 -7 0 -10 -3 -7 -7z" />
    <path d="M428 493 c7 -3 16 -2 19 1 4 3 -2 6 -13 5 l-19 -1 13 -5z" />
    <path d="M175 480 c-3 -5 -2 -10 4 -10 5 0 13 5 16 10 3 6 2 10 -4 10 -5 0
-13 -4 -16 -10z" />
    <path d="M575 480 c-3 -5 -1 -10 4 -10 6 0 11 5 11 10 0 6 -2 10 -4 10 -3 0
-8 -4 -11 -10z" />
    <path d="M719 453 l-14 -18 18 14 c16 13 21 21 13 21 -2 0 -10 -8 -17 -17z" />
    <path d="M190 386 c0 -2 8 -10 18 -17 l17 -14 -14 18 c-13 16 -21 21 -21 13z" />
    <path d="M246 326 c3 -9 2 -16 -4 -16 -5 0 -9 -11 -9 -25 l0 -26 15 3 c8 2 17
9 20 16 l4 12 -19 1 -18 1 13 5 c14 6 16 29 2 38 l-10 6 6 -15z m11 -53 c-4
-3 -10 -3 -14 0 -3 4 0 7 7 7 7 0 10 -3 7 -7z" />
    <path d="M63 323 c4 -3 10 -3 14 0 3 4 0 7 -7 7 -7 0 -10 -3 -7 -7z" />
    <path d="M93 306 c0 -11 1 -15 4 -8 3 6 9 10 14 6 5 -3 9 -1 9 4 0 6 -6 12
-13 15 l-13 5 -1 -22z" />
    <path d="M185 310 l-19 -7 27 -5 c15 -3 27 -2 27 3 0 13 -14 17 -35 9z" />
    <path d="M105 250 c3 -5 8 -10 11 -10 3 0 2 5 -1 10 -3 6 -8 10 -11 10 -3 0
-2 -4 1 -10z" />
    <path d="M200 200 c0 -5 5 -10 11 -10 5 0 7 5 4 10 -3 6 -8 10 -11 10 -2 0 -4
-4 -4 -10z" />
    <path d="M323 193 c4 -3 10 -3 14 0 3 4 0 7 -7 7 -7 0 -10 -3 -7 -7z" />
    <path d="M523 193 c4 -3 10 -3 14 0 3 4 0 7 -7 7 -7 0 -10 -3 -7 -7z" />
    <path d="M463 183 c4 -3 10 -3 14 0 3 4 0 7 -7 7 -7 0 -10 -3 -7 -7z" />
    <path d="M258 173 c7 -3 16 -2 19 1 4 3 -2 6 -13 5 l-19 -1 13 -5z" />
    <path d="M423 3 c4 -3 10 -3 14 0 3 4 0 7 -7 7 -7 0 -10 -3 -7 -7z" />
  </g>
  <g transform="translate(0.000000,68.000000) scale(0.100000,-0.100000)" fill="#3c3f4b" stroke="none">
    <path d="M138 573 c7 -3 16 -2 19 1 4 3 -2 6 -13 5 l-19 -1 13 -5z" />
    <path d="M171 552 l-10 -19 13 0 c7 0 18 9 25 19 l11 18 -15 0 c-8 0 -19 -8
-24 -18z" />
    <path d="M733 503 c4 -3 10 -3 14 0 3 4 0 7 -7 7 -7 0 -10 -3 -7 -7z" />
    <path d="M130 490 c0 -7 3 -10 7 -7 3 4 3 10 0 14 -4 3 -7 0 -7 -7z" />
    <path d="M315 490 c3 -5 11 -10 16 -10 6 0 7 5 4 10 -3 6 -11 10 -16 10 -6 0
-7 -4 -4 -10z" />
    <path d="M160 470 c0 -5 7 -7 15 -4 8 4 15 8 15 10 0 2 -7 4 -15 4 -8 0 -15
-4 -15 -10z" />
    <path d="M705 440 c-3 -5 -1 -10 4 -10 6 0 11 5 11 10 0 6 -2 10 -4 10 -3 0
-8 -4 -11 -10z" />
    <path d="M350 430 c0 -7 3 -10 7 -7 3 4 3 10 0 14 -4 3 -7 0 -7 -7z" />
    <path d="M670 347 c0 -9 -4 -17 -10 -17 -5 0 -10 -7 -10 -15 0 -8 4 -15 9 -15
10 0 25 50 16 58 -3 3 -5 -2 -5 -11z" />
    <path d="M210 299 c0 -5 5 -7 10 -4 6 3 10 8 10 11 0 2 -4 4 -10 4 -5 0 -10
-5 -10 -11z" />
    <path d="M155 280 c3 -5 11 -10 16 -10 6 0 7 5 4 10 -3 6 -11 10 -16 10 -6 0
-7 -4 -4 -10z" />
    <path d="M260 280 c0 -7 3 -10 7 -7 3 4 3 10 0 14 -4 3 -7 0 -7 -7z" />
    <path d="M206 268 c3 -4 12 -8 20 -8 8 0 14 4 14 8 0 4 -9 8 -19 8 -11 0 -17
-4 -15 -8z" />
    <path d="M633 263 c4 -3 10 -3 14 0 3 4 0 7 -7 7 -7 0 -10 -3 -7 -7z" />
    <path d="M350 180 c0 -7 3 -10 7 -7 3 4 3 10 0 14 -4 3 -7 0 -7 -7z" />
    <path d="M423 173 c4 -3 10 -3 14 0 3 4 0 7 -7 7 -7 0 -10 -3 -7 -7z" />
    <path d="M320 63 c0 -5 5 -15 11 -23 l11 -15 -6 18 c-7 21 7 22 24 2 7 -9 15
-13 18 -10 7 7 -29 34 -45 35 -7 0 -13 -3 -13 -7z" />
    <path d="M400 26 c0 -2 8 -10 18 -17 l17 -14 -14 18 c-13 16 -21 21 -21 13z" />
    <path d="M325 10 c-3 -5 -1 -10 4 -10 6 0 11 5 11 10 0 6 -2 10 -4 10 -3 0 -8
-4 -11 -10z" />
  </g>
  <g transform="translate(0.000000,68.000000) scale(0.100000,-0.100000)" fill="#474f5e" stroke="none">
    <path d="M170 571 c0 -5 3 -16 6 -25 l6 -15 15 6 16 6 -8 -13 -8 -13 11 7 c7
4 12 10 12 14 -1 11 -50 44 -50 33z" />
    <path d="M153 533 c4 -3 10 -3 14 0 3 4 0 7 -7 7 -7 0 -10 -3 -7 -7z" />
    <path d="M743 503 c4 -3 10 -3 14 0 3 4 0 7 -7 7 -7 0 -10 -3 -7 -7z" />
    <path d="M674 488 l-7 -11 11 7 c7 4 12 9 12 12 0 8 -9 4 -16 -8z" />
    <path d="M184 478 l-7 -11 11 7 c12 7 16 16 8 16 -3 0 -8 -5 -12 -12z" />
    <path d="M148 471 l-17 -6 8 -13 8 -13 13 16 c15 19 11 25 -12 16z" />
    <path d="M710 440 c0 -7 3 -10 7 -7 3 4 3 10 0 14 -4 3 -7 0 -7 -7z" />
    <path d="M207 309 c7 -7 15 -10 18 -7 3 3 -2 9 -12 12 l-18 7 12 -12z" />
    <path d="M63 303 c4 -3 10 -3 14 0 3 4 0 7 -7 7 -7 0 -10 -3 -7 -7z" />
    <path d="M655 300 c3 -5 8 -10 11 -10 2 0 4 5 4 10 0 6 -5 10 -11 10 -5 0 -7
-4 -4 -10z" />
    <path d="M213 263 c4 -3 10 -3 14 0 3 4 0 7 -7 7 -7 0 -10 -3 -7 -7z" />
    <path d="M293 183 c4 -3 10 -3 14 0 3 4 0 7 -7 7 -7 0 -10 -3 -7 -7z" />
    <path d="M370 42 c0 -6 9 -12 20 -15 11 -3 20 -3 20 -1 0 2 -9 8 -20 14 l-20
11 0 -9z" />
    <path d="M331 24 l1 -19 5 13 c3 7 2 16 -1 19 -3 4 -6 -2 -5 -13z" />
  </g>
  <g transform="translate(0.000000,68.000000) scale(0.100000,-0.100000)" fill="#303445" stroke="none">
    <path d="M156 573 c5 -5 12 -12 16 -18 l8 -10 0 18 0 17 -17 0 -16 0 9 -7z" />
    <path d="M126 543 l-7 -18 12 12 c7 7 10 15 7 18 -3 3 -9 -2 -12 -12z" />
    <path d="M198 543 c7 -3 16 -2 19 1 4 3 -2 6 -13 5 l-19 -1 13 -5z" />
    <path d="M144 528 l-7 -11 11 7 c12 7 16 16 8 16 -3 0 -8 -5 -12 -12z" />
    <path d="M320 490 c0 -7 3 -10 7 -7 3 4 3 10 0 14 -4 3 -7 0 -7 -7z" />
    <path d="M154 458 l-7 -11 11 7 c7 4 12 9 12 12 0 8 -9 4 -16 -8z" />
    <path d="M653 323 c4 -3 10 -3 14 0 3 4 0 7 -7 7 -7 0 -10 -3 -7 -7z" />
    <path d="M153 303 c4 -3 10 -3 14 0 3 4 0 7 -7 7 -7 0 -10 -3 -7 -7z" />
    <path d="M225 300 c3 -5 8 -10 11 -10 2 0 4 5 4 10 0 6 -5 10 -11 10 -5 0 -7
-4 -4 -10z" />
    <path d="M660 300 c0 -5 5 -10 11 -10 5 0 7 5 4 10 -3 6 -8 10 -11 10 -2 0 -4
-4 -4 -10z" />
    <path d="M150 285 c0 -7 30 -13 34 -7 3 4 -4 9 -15 9 -10 1 -19 0 -19 -2z" />
    <path d="M203 193 c4 -3 10 -3 14 0 3 4 0 7 -7 7 -7 0 -10 -3 -7 -7z" />
  </g>
  <g transform="translate(0.000000,68.000000) scale(0.100000,-0.100000)" fill="#abaaae" stroke="none">
    <path d="M574 478 l-7 -11 11 7 c7 4 12 9 12 12 0 8 -9 4 -16 -8z" />
    <path d="M150 421 c0 -5 5 -13 10 -16 6 -3 10 -2 10 4 0 5 -4 13 -10 16 -5 3
-10 2 -10 -4z" />
    <path d="M183 383 c4 -3 10 -3 14 0 3 4 0 7 -7 7 -7 0 -10 -3 -7 -7z" />
    <path d="M85 330 c-3 -5 -2 -10 4 -10 5 0 13 5 16 10 3 6 2 10 -4 10 -5 0 -13
-4 -16 -10z" />
    <path d="M180 326 c0 -2 7 -7 16 -10 l15 -6 -6 10 c-6 10 -25 14 -25 6z" />
    <path d="M48 303 c7 -3 16 -2 19 1 4 3 -2 6 -13 5 l-19 -1 13 -5z" />
    <path d="M320 60 c0 -7 3 -10 7 -7 3 4 3 10 0 14 -4 3 -7 0 -7 -7z" />
    <path d="M324 8 l-7 -11 11 7 c12 7 16 16 8 16 -3 0 -8 -5 -12 -12z" />
  </g>
  <g transform="translate(0.000000,68.000000) scale(0.100000,-0.100000)" fill="#4f414d" stroke="none">
    <path d="M413 493 c4 -3 10 -3 14 0 3 4 0 7 -7 7 -7 0 -10 -3 -7 -7z" />
    <path d="M155 420 c3 -5 8 -10 11 -10 3 0 2 5 -1 10 -3 6 -8 10 -11 10 -3 0
-2 -4 1 -10z" />
    <path d="M78 323 c7 -3 16 -2 19 1 4 3 -2 6 -13 5 l-19 -1 13 -5z" />
    <path d="M110 305 c0 -8 2 -15 4 -15 2 0 6 7 10 15 3 8 1 15 -4 15 -6 0 -10
-7 -10 -15z" />
    <path d="M163 303 c4 -3 10 -3 14 0 3 4 0 7 -7 7 -7 0 -10 -3 -7 -7z" />
    <path d="M223 303 c4 -3 10 -3 14 0 3 4 0 7 -7 7 -7 0 -10 -3 -7 -7z" />
  </g>
</svg>