<svg width="76.000000pt" height="68.000000pt" viewBox="0 0 76.000000 68.000000" xmlns="http://www.w3.org/2000/svg">
  <g transform="translate(0.000000,68.000000) scale(0.100000,-0.100000)" fill="#fefefe" stroke="none">
    <path d="M0 340 l0 -340 300 0 c165 0 300 4 300 8 0 4 -37 41 -82 81 l-81 73
-61 -4 -61 -5 -32 20 c-18 10 -61 46 -96 78 -34 32 -72 68 -84 80 -13 12 -23
31 -23 43 0 13 11 33 24 45 13 13 27 37 30 55 l6 33 -14 35 c-8 19 -18 58 -22
86 l-7 52 -48 0 -49 0 0 -340z" />
    <path d="M475 663 c4 -10 11 -43 16 -73 13 -78 73 -225 112 -274 18 -22 45
-65 61 -94 l28 -54 -6 -41 c-7 -43 -41 -107 -57 -107 -5 0 -9 -4 -9 -10 l0
-10 70 0 70 0 0 340 0 340 -146 0 -146 0 7 -17z" />
  </g>
  <g transform="translate(0.000000,68.000000) scale(0.100000,-0.100000)" fill="#141211" stroke="none">
    <path d="M202 661 l3 -16 33 -3 32 -3 0 10 c0 6 5 11 10 11 l11 0 -5 -57 c-3
-32 -5 -66 -5 -75 l-1 -18 -20 0 c-11 0 -20 -4 -20 -9 0 -5 -10 -11 -22 -13
l-23 -3 -3 -18 -4 -18 39 7 c21 3 42 10 47 15 13 12 36 12 36 0 0 -5 -13 -11
-30 -14 l-30 -6 0 -20 c0 -23 19 -31 75 -31 l43 0 -5 -20 -5 -20 10 0 c6 0 17
3 26 6 l16 6 0 34 0 34 -29 0 c-16 0 -37 3 -46 7 l-17 6 23 12 23 13 28 -10
c15 -5 33 -8 40 -5 7 2 21 0 31 -5 25 -13 67 -2 67 17 0 8 -4 15 -10 15 -5 0
-10 6 -10 14 0 8 -6 21 -13 28 -8 7 -17 26 -21 41 l-6 27 15 6 c23 9 18 33
-10 44 -14 5 -25 14 -25 20 0 5 -9 10 -20 10 l-21 0 3 -16 c2 -10 -3 -19 -9
-21 l-13 -5 0 16 0 16 -22 4 c-13 3 -56 4 -96 3 l-73 -1 3 -15z m218 -71 c0
-5 -7 -7 -15 -4 -8 4 -15 8 -15 10 0 2 7 4 15 4 8 0 15 -4 15 -10z" />
    <path d="M524 418 c3 -13 6 -26 6 -30 0 -5 7 -8 15 -8 17 0 18 4 9 38 -4 12
-13 22 -21 22 l-15 0 6 -22z" />
    <path d="M148 413 c-10 -2 -18 -11 -18 -19 l0 -14 -20 0 -20 0 0 -15 c0 -8 5
-15 10 -15 6 0 10 -7 10 -15 0 -24 29 -17 42 10 13 28 28 33 28 9 l0 -16 27 7
c16 4 30 8 31 10 2 2 1 13 -3 24 -7 23 -25 27 -42 10 l-12 -12 6 22 5 21 -13
-1 c-8 -1 -22 -3 -31 -6z" />
    <path d="M470 349 l0 -20 17 3 c10 2 19 11 21 21 l3 17 -20 0 -21 0 0 -21z" />
    <path d="M590 275 c0 -8 7 -15 15 -15 8 0 15 7 15 15 0 8 -7 15 -15 15 -8 0
-15 -7 -15 -15z" />
    <path d="M406 256 l-6 -25 -42 2 -42 2 -3 -16 -4 -15 51 -1 c27 0 50 3 50 8 0
5 7 9 15 9 l15 0 0 30 0 30 -14 0 c-8 0 -17 -11 -20 -24z" />
    <path d="M200 245 c0 -8 7 -15 15 -15 8 0 15 7 15 15 0 8 -7 15 -15 15 -8 0
-15 -7 -15 -15z" />
    <path d="M610 241 c0 -23 14 -41 31 -41 20 0 23 8 13 34 -6 17 -44 23 -44 7z" />
    <path d="M260 185 c0 -8 7 -15 15 -15 8 0 15 -4 15 -10 0 -5 7 -10 15 -10 8 0
15 7 15 15 0 8 -7 15 -15 15 -8 0 -15 5 -15 10 0 6 -7 10 -15 10 -8 0 -15 -7
-15 -15z" />
  </g>
  <g transform="translate(0.000000,68.000000) scale(0.100000,-0.100000)" fill="#191413" stroke="none">
    <path d="M235 672 c-14 -9 -13 -28 3 -44 l12 -12 21 12 20 12 -7 -27 c-4 -16
-11 -34 -16 -40 -6 -7 -7 -20 -4 -29 l6 -16 14 5 14 6 6 -22 6 -22 10 15 c11
17 14 37 3 27 -3 -4 -12 5 -20 19 l-13 27 10 12 c5 6 7 15 3 18 -3 4 0 14 8
24 l14 17 -12 -8 c-19 -11 -15 5 5 20 l17 13 -20 1 c-12 0 -26 -5 -33 -12
l-12 -12 0 12 c0 13 -19 16 -35 4z" />
    <path d="M473 615 l-22 -15 -6 10 c-9 15 -25 12 -25 -6 0 -8 3 -13 8 -11 4 3
16 -5 27 -16 11 -11 14 -17 7 -12 l-13 7 13 -21 c17 -28 32 -27 24 3 l-6 24
11 4 c6 2 9 14 7 26 l-3 23 -22 -16z" />
    <path d="M340 540 c0 -7 3 -10 7 -7 3 4 3 10 0 14 -4 3 -7 0 -7 -7z" />
    <path d="M250 512 c0 -14 11 -21 26 -15 21 8 17 23 -6 23 -11 0 -20 -4 -20 -8z" />
    <path d="M500 485 c0 -14 -3 -25 -8 -25 -4 0 -18 7 -31 16 l-23 17 -7 -12 -7
-11 -32 11 -31 11 -17 -10 -18 -10 -14 15 -14 14 -24 -15 c-12 -9 -29 -13 -37
-10 -20 7 -29 -10 -22 -39 l6 -23 45 -12 c57 -15 74 -15 74 1 l0 13 -29 -2
c-15 -1 -35 2 -42 7 l-14 9 15 10 c8 6 24 7 35 4 11 -3 36 -8 56 -11 l37 -5
-2 -24 c-1 -23 -8 -28 -34 -25 -20 3 -42 -19 -42 -40 0 -24 18 -24 50 1 14 11
31 20 38 20 6 0 12 5 12 11 l0 11 15 -12 15 -13 -21 -18 -21 -18 5 -14 5 -14
-37 -16 c-21 -10 -43 -17 -49 -17 -14 0 -15 -29 -3 -49 l10 -15 23 11 c13 6
38 8 56 6 l32 -5 0 16 c0 9 4 16 10 16 5 0 12 16 16 35 l6 35 14 0 c8 0 14 7
14 15 0 8 5 15 10 15 18 0 10 20 -20 48 -16 16 -30 34 -30 39 l0 10 25 -5 c14
-2 25 -11 25 -18 0 -16 26 -19 35 -4 8 13 -18 66 -32 63 l-11 -2 5 19 5 20
-11 0 c-6 0 -11 -11 -11 -25z m0 -129 c0 -3 -4 -8 -10 -11 -5 -3 -10 -1 -10 4
0 6 5 11 10 11 6 0 10 -2 10 -4z m-73 -123 c-4 -3 -10 -3 -14 0 -3 4 0 7 7 7
7 0 10 -3 7 -7z m-70 -9 c-3 -3 -12 -4 -19 -1 l-13 5 19 1 c11 1 17 -2 13 -5z" />
    <path d="M163 473 c-7 -2 -13 -11 -13 -20 l0 -14 22 3 23 3 3 18 3 17 -13 -1
c-7 0 -19 -3 -25 -6z" />
    <path d="M155 417 l-18 -14 11 -7 c6 -3 13 -2 16 3 3 5 15 7 26 4 l20 -5 0 16
0 16 -18 0 c-10 0 -26 -6 -37 -13z" />
    <path d="M355 410 l-6 -10 16 0 16 0 -6 10 c-3 6 -8 10 -10 10 -2 0 -7 -4 -10
-10z" />
    <path d="M115 392 c-6 -4 -12 -20 -13 -35 l-2 -29 13 5 c6 2 11 11 11 20 -1 9
2 15 6 12 10 -6 21 21 13 29 -8 8 -16 7 -28 -2z" />
    <path d="M209 369 c-11 -11 -18 -23 -15 -26 8 -9 38 6 32 16 l-6 9 20 -5 20
-5 0 16 c0 22 -26 20 -51 -5z" />
    <path d="M146 364 c-4 -9 -4 -19 -2 -21 8 -8 26 8 26 23 0 19 -16 18 -24 -2z" />
    <path d="M560 335 c0 -8 7 -15 15 -15 8 0 15 7 15 15 0 8 -7 15 -15 15 -8 0
-15 -7 -15 -15z" />
    <path d="M580 290 c0 -16 35 -79 44 -80 4 0 6 7 2 15 -3 8 -1 15 3 15 5 0 11
-7 15 -15 3 -8 1 -15 -4 -15 -16 0 -11 -27 6 -34 27 -10 34 -7 34 19 l0 25
-27 30 c-15 17 -33 28 -39 26 l-13 -5 6 15 5 14 -16 0 c-9 0 -16 -4 -16 -10z" />
    <path d="M224 276 l-19 -15 11 -11 12 -12 21 14 c23 14 28 38 8 38 -7 0 -22
-6 -33 -14z" />
    <path d="M520 270 l0 -20 15 0 15 0 0 20 0 20 -15 0 -15 0 0 -20z" />
    <path d="M513 215 c-7 -8 -13 -19 -13 -26 l0 -11 23 6 c12 3 28 6 35 6 6 0 12
9 12 20 l0 20 -22 0 c-13 -1 -29 -7 -35 -15z" />
    <path d="M290 185 c0 -8 7 -15 15 -15 8 0 15 -4 15 -10 0 -5 7 -10 15 -10 8 0
15 7 15 15 0 8 -7 15 -15 15 -8 0 -15 5 -15 10 0 6 -7 10 -15 10 -8 0 -15 -7
-15 -15z" />
    <path d="M610 145 c0 -8 7 -15 15 -15 8 0 15 7 15 15 0 8 -7 15 -15 15 -8 0
-15 -7 -15 -15z" />
  </g>
  <g transform="translate(0.000000,68.000000) scale(0.100000,-0.100000)" fill="#1c1817" stroke="none">
    <path d="M190 669 c0 -12 55 -69 67 -69 4 0 8 -16 9 -35 1 -36 9 -53 20 -42 4
4 2 13 -4 20 l-12 13 11 11 c6 6 12 29 12 52 1 22 6 41 11 41 5 0 6 3 2 7 -4
5 -23 9 -42 9 l-35 2 4 -12 c2 -6 9 -11 15 -11 7 0 12 -3 12 -7 0 -5 0 -10 0
-13 0 -3 -11 2 -25 11 -14 9 -22 20 -19 25 3 5 -2 9 -10 9 -9 0 -16 -5 -16
-11z" />
    <path d="M490 521 c0 -6 5 -13 10 -16 l10 -6 0 15 c0 9 -4 16 -10 16 -5 0 -10
-4 -10 -9z" />
    <path d="M210 497 c-33 -15 -33 -14 -25 -26 l6 -11 12 7 c7 4 17 8 22 9 6 0
15 2 21 2 6 1 11 9 11 17 0 17 -12 18 -47 2z" />
    <path d="M205 460 c-4 -7 -9 -23 -11 -36 l-2 -23 15 -5 c8 -3 11 -10 8 -16 -3
-5 -1 -10 6 -10 l13 0 -20 -15 -19 -14 12 -1 c7 0 24 5 38 12 l26 12 -4 18 -5
18 24 -6 24 -6 -5 15 -6 14 -42 -3 -42 -3 23 19 22 19 -10 6 c-5 3 -14 4 -19
1 -5 -4 -11 -1 -13 6 l-4 12 -9 -14z" />
    <path d="M335 461 c-6 -11 9 -23 19 -14 9 9 7 23 -3 23 -6 0 -12 -4 -16 -9z" />
    <path d="M460 445 c0 -8 -6 -15 -12 -15 -7 0 7 -19 31 -42 l45 -42 4 13 c2 7
-4 18 -14 26 l-19 13 8 8 8 8 8 -13 c9 -14 31 -7 31 10 0 6 -5 7 -11 3 l-11
-7 6 20 6 20 -24 -4 c-13 -3 -27 0 -30 6 -10 16 -26 13 -26 -4z" />
    <path d="M131 411 l-13 -9 7 -22 7 -23 8 13 8 12 6 -11 c9 -15 53 -10 53 6 0
15 -28 27 -36 15 -3 -5 -14 -9 -25 -9 l-18 0 23 18 24 19 -15 0 c-8 0 -21 -4
-29 -9z" />
    <path d="M361 394 c-7 -8 -11 -18 -8 -20 6 -7 47 18 47 28 0 13 -24 8 -39 -8z" />
    <path d="M410 380 c0 -6 -5 -10 -11 -10 -6 0 -24 -9 -39 -20 l-28 -20 -4 12
-4 12 -12 -8 c-15 -9 -16 -46 -2 -46 6 0 10 -13 10 -30 l0 -29 18 5 c9 4 32
13 50 21 l33 14 19 -6 c23 -7 27 -25 5 -25 l-14 0 6 -17 6 -16 -15 6 c-9 3
-19 3 -22 0 -9 -9 22 -33 44 -33 l21 0 5 30 c7 33 24 31 24 -3 l0 -23 26 -2
26 -2 -12 15 -12 15 11 0 c6 0 11 5 11 10 0 6 -7 10 -15 10 -17 0 -20 25 -5
35 15 9 12 41 -6 56 l-16 13 -8 -15 -9 -14 -15 20 c-14 18 -19 31 -18 45 0 3
-10 7 -24 8 -13 1 -24 -3 -24 -8z m60 -96 c0 -9 -20 -3 -34 12 l-16 15 12 13
12 13 13 -25 c7 -13 13 -26 13 -28z m-80 42 c0 -2 -7 -6 -15 -10 -8 -3 -15 -1
-15 4 0 6 7 10 15 10 8 0 15 -2 15 -4z m120 -46 c0 -5 -4 -10 -10 -10 -5 0
-10 5 -10 10 0 6 5 10 10 10 6 0 10 -4 10 -10z" />
    <path d="M550 376 c0 -9 7 -16 16 -16 17 0 14 22 -4 28 -7 2 -12 -3 -12 -12z" />
    <path d="M200 233 c0 -7 7 -13 15 -13 8 0 15 6 15 13 0 8 -7 14 -15 14 -8 0
-15 -6 -15 -14z" />
    <path d="M650 230 c0 -5 5 -10 10 -10 6 0 10 5 10 10 0 6 -4 10 -10 10 -5 0
-10 -4 -10 -10z" />
    <path d="M345 210 l-6 -10 26 0 26 0 -6 10 c-3 6 -12 10 -20 10 -8 0 -17 -4
-20 -10z" />
    <path d="M290 184 l0 -25 10 6 10 6 0 -15 c0 -9 7 -16 15 -16 16 0 20 16 6 24
-5 3 -7 15 -4 26 l5 20 -21 0 -21 0 0 -26z" />
    <path d="M590 145 c0 -8 5 -15 10 -15 6 0 10 -7 10 -15 0 -20 26 -19 34 1 10
26 7 36 -9 30 -8 -3 -15 -1 -15 4 0 6 -7 10 -15 10 -8 0 -15 -7 -15 -15z" />
  </g>
  <g transform="translate(0.000000,68.000000) scale(0.100000,-0.100000)" fill="#221a18" stroke="none">
    <path d="M260 670 c0 -5 5 -10 11 -10 5 0 7 5 4 10 -3 6 -8 10 -11 10 -2 0 -4
-4 -4 -10z" />
    <path d="M210 639 c0 -14 58 -71 63 -62 2 5 7 20 11 35 l6 27 -12 7 -11 7 6
-10 c4 -6 0 -16 -8 -23 -8 -7 -15 -8 -15 -4 0 5 -9 15 -20 22 l-20 12 0 -11z" />
    <path d="M260 553 c0 -19 11 -43 21 -43 13 0 11 14 -6 36 -8 10 -15 14 -15 7z" />
    <path d="M478 544 c-3 -3 5 -17 18 -31 13 -14 28 -23 32 -19 4 4 -1 13 -11 20
-9 7 -17 18 -17 25 0 12 -13 15 -22 5z" />
    <path d="M160 469 l0 -11 16 6 15 6 -6 -11 -7 -10 -20 7 -20 6 4 -19 4 -18
-20 -18 c-10 -9 -16 -20 -13 -23 3 -4 13 1 22 10 9 9 23 16 30 16 7 0 21 7 29
16 l16 15 0 -14 c0 -8 -10 -17 -22 -20 -12 -4 -19 -9 -15 -13 4 -4 -5 -21 -20
-37 l-28 -30 25 6 c14 4 28 7 33 7 4 0 7 8 7 18 l0 19 26 13 25 14 9 -14 9
-15 -16 -9 -15 -8 13 -9 14 -9 -12 0 c-7 0 -13 -7 -13 -15 l0 -15 19 0 19 0
-5 -21 -6 -22 26 7 26 6 3 -42 3 -43 13 0 c6 0 11 5 10 10 -2 6 -5 9 -8 8 -3
-1 -4 16 -2 38 l4 40 13 -11 12 -10 24 9 24 10 -20 1 -20 1 18 13 c18 14 24
46 7 46 -5 0 -13 -7 -18 -16 -8 -14 -62 -28 -62 -16 0 3 12 19 28 35 l27 29
-38 -7 -38 -7 5 26 5 26 -9 -5 c-5 -3 -21 -3 -35 1 l-26 6 5 14 5 14 -15 0
-15 0 7 12 7 11 -11 -7 c-6 -3 -13 -2 -17 4 -8 14 -35 13 -35 -1z" />
    <path d="M480 415 c0 -8 10 -25 21 -36 l21 -21 -13 -9 -13 -8 16 -18 c8 -10
19 -29 22 -43 l7 -25 -12 20 c-14 23 -29 35 -45 35 l-11 0 5 -25 c2 -14 0 -25
-4 -25 -5 0 -9 -11 -9 -26 l0 -25 17 5 18 4 -6 -25 -7 -25 29 3 c16 1 37 1 47
1 l17 -2 0 -16 0 -16 16 6 15 6 -6 -10 -6 -10 16 0 16 0 -7 12 -7 11 11 -7 12
-7 -11 -20 c-12 -24 -3 -59 16 -59 l14 0 -1 43 c0 23 -5 48 -10 54 -6 7 -23
13 -38 13 l-28 0 -6 23 c-3 12 -6 32 -6 44 0 12 -4 23 -9 25 -5 2 -12 23 -15
48 l-7 45 9 -14 10 -14 12 8 13 8 -7 -11 c-3 -5 0 -13 6 -15 l13 -5 -12 -1
c-18 -1 -16 -28 3 -35 l15 -6 -7 13 c-4 6 5 1 19 -12 l27 -24 0 16 c0 9 -4 17
-10 17 -5 0 -10 9 -10 20 0 11 -4 20 -10 20 -5 0 -10 6 -10 13 0 7 -9 18 -20
25 -11 7 -20 19 -20 26 0 8 -5 18 -12 22 l-11 7 7 -14 c4 -8 0 -5 -8 5 -9 11
-25 21 -36 23 l-20 3 0 -15z m80 -206 c0 -5 -7 -9 -15 -9 -8 0 -15 7 -15 15
l0 14 15 -5 c8 -4 15 -10 15 -15z m-43 -16 c-4 -3 -7 0 -7 7 0 7 3 10 7 7 3
-4 3 -10 0 -14z" />
    <path d="M327 406 l-6 -14 27 -5 c15 -3 34 -1 42 4 l15 8 -12 1 c-22 0 -27 2
-45 11 l-16 9 -5 -14z" />
    <path d="M233 265 c0 -8 7 -15 15 -15 7 0 12 5 10 12 -6 18 -25 21 -25 3z" />
    <path d="M215 230 c-10 -16 21 -40 49 -40 l26 0 0 25 0 25 -13 0 c-7 0 -18 -5
-25 -12 l-12 -12 0 12 c0 15 -16 16 -25 2z" />
    <path d="M397 213 c-9 -8 24 -32 46 -33 9 0 17 5 17 10 0 6 -7 10 -15 10 -8 0
-15 5 -15 10 0 11 -23 14 -33 3z" />
    <path d="M643 195 l0 -16 13 5 13 5 -6 -15 -5 -14 16 0 c29 0 16 43 -15 48
l-16 2 0 -15z" />
    <path d="M530 75 c0 -8 7 -15 15 -15 8 0 15 7 15 15 0 8 -7 15 -15 15 -8 0
-15 -7 -15 -15z" />
  </g>
  <g transform="translate(0.000000,68.000000) scale(0.100000,-0.100000)" fill="#272120" stroke="none">
    <path d="M218 668 l12 -12 12 12 12 12 -24 0 -24 0 12 -12z" />
    <path d="M260 670 c0 -7 3 -10 7 -7 3 4 3 10 0 14 -4 3 -7 0 -7 -7z" />
    <path d="M460 670 c0 -5 7 -10 16 -10 l15 0 -6 10 c-3 6 -10 10 -16 10 -5 0
-9 -4 -9 -10z" />
    <path d="M180 660 c0 -6 5 -16 10 -23 40 -47 50 -62 56 -80 8 -26 29 -48 38
-40 3 3 1 12 -5 19 -11 14 -9 51 6 89 l7 20 -17 -23 -17 -23 -19 20 c-10 11
-19 24 -19 30 0 5 -7 12 -16 15 -21 8 -24 8 -24 -4z" />
    <path d="M212 508 c-7 -7 -12 -18 -12 -26 l0 -14 17 13 17 14 -8 -15 c-4 -8 0
-6 8 4 9 11 16 23 16 28 0 12 -24 10 -38 -4z" />
    <path d="M210 420 c0 -5 -7 -10 -16 -10 -8 0 -12 -4 -9 -10 l6 -9 28 5 29 6 6
-11 c4 -6 12 -9 17 -6 5 4 9 3 9 0 0 -3 -17 -13 -37 -22 l-38 -16 23 -8 c12
-5 22 -11 22 -14 0 -4 -4 -3 -10 0 l-10 6 0 -15 c0 -9 6 -16 13 -17 6 0 2 -5
-10 -11 l-23 -11 5 -31 c2 -17 4 -35 4 -40 1 -4 8 -6 16 -2 l15 5 -3 -12 -2
-12 17 1 c10 1 16 -3 15 -8 -1 -6 4 -13 11 -15 l12 -5 0 20 c0 11 5 22 10 24
6 2 13 18 15 36 l4 32 -21 19 -20 20 46 44 c25 25 46 48 46 51 0 3 -7 6 -15 6
-8 0 -15 -4 -15 -9 l0 -8 -49 8 c-27 4 -59 13 -70 19 l-21 11 0 -11z m100 -70
c0 -5 -7 -10 -15 -10 l-15 0 4 -25 5 -25 -12 -6 c-7 -4 -9 -4 -5 1 4 4 3 16
-3 27 l-11 20 19 14 c22 16 33 18 33 4z m-53 -83 c0 -7 -9 -13 -19 -13 l-19 0
17 13 c10 7 18 13 19 13 1 0 2 -6 2 -13z m23 -53 l0 -15 -10 6 c-6 4 -8 11 -5
16 9 14 15 11 15 -7z" />
    <path d="M103 395 c-9 -25 2 -27 22 -5 l18 20 -17 0 c-9 0 -19 -7 -23 -15z" />
    <path d="M160 343 c0 -7 7 -13 15 -13 8 0 15 6 15 13 0 8 -7 14 -15 14 -8 0
-15 -6 -15 -14z" />
    <path d="M123 334 c0 -8 6 -14 14 -14 17 0 17 16 0 23 l-14 5 0 -14z" />
    <path d="M350 326 c0 -17 14 -29 23 -20 8 8 -3 34 -14 34 -5 0 -9 -6 -9 -14z" />
    <path d="M540 260 c0 -5 5 -10 10 -10 6 0 10 5 10 10 0 6 -4 10 -10 10 -5 0
-10 -4 -10 -10z" />
    <path d="M475 240 c3 -5 -4 -20 -15 -32 l-21 -23 -12 15 c-12 15 -67 22 -67 9
0 -4 -10 -9 -22 -11 l-23 -3 -3 -21 -3 -21 15 0 c8 0 13 4 10 9 -3 4 2 8 10 8
9 0 16 5 16 11 l0 11 50 -7 51 -7 14 12 15 12 0 -21 0 -21 15 0 c8 0 15 5 15
10 0 6 7 10 15 10 8 0 15 -4 15 -10 0 -5 7 -10 15 -10 8 0 15 7 15 17 0 9 -3
13 -6 10 -4 -3 -15 -2 -25 3 l-18 10 -6 -10 c-11 -18 -23 -11 -18 10 3 11 0
27 -7 35 -14 17 -35 21 -25 5z" />
    <path d="M560 225 c0 -8 5 -15 10 -15 6 0 10 7 10 15 0 8 -4 15 -10 15 -5 0
-10 -7 -10 -15z" />
  </g>
  <g transform="translate(0.000000,68.000000) scale(0.100000,-0.100000)" fill="#31241e" stroke="none">
    <path d="M464 575 l1 -25 13 0 13 0 -3 22 c-2 12 -8 23 -14 25 l-12 4 2 -26z" />
    <path d="M490 531 c0 -6 5 -13 10 -16 l10 -6 0 15 c0 9 -4 16 -10 16 -5 0 -10
-4 -10 -9z" />
    <path d="M112 440 c-6 -11 -12 -29 -12 -40 l0 -19 35 20 c19 12 35 23 35 26 0
8 -28 33 -37 33 -4 0 -14 -9 -21 -20z" />
    <path d="M182 444 c2 -10 10 -19 18 -19 8 -1 14 -6 13 -13 -4 -14 13 -16 22
-2 3 6 2 10 -4 10 -6 0 -8 7 -5 15 4 8 2 15 -4 15 -6 0 -18 3 -27 6 l-17 7 4
-19z" />
    <path d="M323 398 c-33 -9 -46 -28 -18 -28 8 0 15 6 15 13 l0 12 9 -14 8 -13
22 11 c23 13 28 28 9 28 -7 0 -28 -4 -45 -9z" />
    <path d="M538 374 c-3 -3 -4 -27 -2 -54 3 -45 24 -95 47 -111 5 -4 -3 -9 -17
-13 -14 -3 -26 -11 -26 -16 0 -14 17 -12 23 3 3 6 4 -4 2 -24 -2 -43 -11 -59
-31 -59 -8 0 -14 -7 -14 -16 l0 -16 15 6 15 5 0 -20 0 -20 53 6 c28 4 58 8 65
11 l13 4 -2 64 c-1 36 -5 65 -8 64 -18 -2 -32 3 -28 10 3 4 -10 18 -28 32 -18
14 -35 35 -38 47 l-4 21 19 5 c10 3 16 2 13 -3 -5 -8 65 -93 72 -86 2 2 -12
29 -31 59 l-36 56 -22 3 c-13 2 -22 9 -20 16 1 6 -3 12 -9 12 -5 0 -7 5 -4 10
6 10 -8 14 -17 4z m100 -227 c6 -5 12 -13 12 -19 l0 -10 -15 12 c-8 6 -18 9
-24 6 -5 -3 -11 1 -15 9 l-5 15 17 -3 c9 -1 23 -6 30 -10z m10 -72 c-3 -3 -9
2 -12 12 l-7 18 12 -12 c7 -7 10 -15 7 -18z" />
    <path d="M80 351 l0 -21 16 0 15 0 -3 17 c-2 9 -9 18 -15 21 l-13 4 0 -21z" />
    <path d="M360 325 c0 -8 5 -15 10 -15 6 0 10 7 10 15 0 8 -4 15 -10 15 -5 0
-10 -7 -10 -15z" />
    <path d="M210 222 c0 -12 19 -26 26 -19 2 2 -2 10 -11 17 l-15 12 0 -10z" />
  </g>
  <g transform="translate(0.000000,68.000000) scale(0.100000,-0.100000)" fill="#100e0c" stroke="none">
    <path d="M216 668 c3 -4 9 -8 15 -8 5 0 9 4 9 8 0 5 -7 9 -15 9 -8 0 -12 -4
-9 -9z" />
    <path d="M363 667 l17 -14 0 -33 0 -33 18 -13 c9 -7 20 -14 25 -14 4 0 6 26 5
58 l-3 57 -40 3 -40 2 18 -13z m44 -54 c-4 -3 -7 0 -7 7 0 7 3 10 7 7 3 -4 3
-10 0 -14z" />
    <path d="M442 658 c19 -29 36 -34 44 -13 l7 17 -14 9 c-8 5 -22 9 -33 9 l-18
0 14 -22z" />
    <path d="M340 650 c0 -7 3 -10 7 -7 3 4 3 10 0 14 -4 3 -7 0 -7 -7z" />
    <path d="M450 590 c0 -5 5 -10 10 -10 6 0 10 5 10 10 0 6 -4 10 -10 10 -5 0
-10 -4 -10 -10z" />
    <path d="M468 553 c6 -2 9 -10 6 -15 l-7 -11 12 7 c13 9 5 26 -12 25 l-12 -1
13 -5z" />
    <path d="M500 523 c0 -16 33 -93 40 -93 4 0 6 -14 5 -30 l-2 -31 15 6 15 5
-13 -15 -12 -15 11 0 c7 0 9 -4 6 -10 l-6 -10 16 6 c9 4 15 9 13 13 -2 3 -18
45 -37 94 -18 48 -38 87 -42 87 -5 0 -9 -3 -9 -7z" />
    <path d="M256 498 l7 -11 -16 6 -15 6 -7 -17 -6 -16 -9 14 c-5 8 -12 11 -16 7
-12 -11 -14 -37 -3 -37 5 0 9 5 9 12 0 6 3 9 6 5 10 -9 66 22 59 33 -4 6 -8
10 -11 10 -3 0 -2 -5 2 -12z" />
    <path d="M176 401 c-4 -5 -2 -12 3 -15 5 -4 12 -2 15 3 4 5 2 12 -3 15 -5 4
-12 2 -15 -3z" />
    <path d="M99 378 c0 -2 -2 -15 -4 -30 l-4 -28 18 0 c10 0 18 7 18 15 0 8 -5
11 -10 8 l-10 -6 6 16 c3 9 2 19 -3 22 -6 4 -10 5 -11 3z" />
    <path d="M167 361 c23 -22 39 -28 28 -11 -3 5 -16 15 -28 21 l-22 11 22 -21z" />
    <path d="M585 331 c-6 -11 9 -23 19 -14 9 9 7 23 -3 23 -6 0 -12 -4 -16 -9z" />
    <path d="M193 255 c-3 -9 -2 -19 2 -23 4 -4 10 -1 12 6 3 6 9 10 14 7 l9 -6
-6 15 c-8 20 -23 20 -31 1z" />
    <path d="M353 208 c-13 -22 -12 -38 3 -38 l14 0 0 25 c0 28 -5 31 -17 13z" />
    <path d="M633 203 c4 -3 10 -3 14 0 3 4 0 7 -7 7 -7 0 -10 -3 -7 -7z" />
    <path d="M670 196 c0 -8 5 -18 10 -21 l10 -6 0 20 c0 12 -4 21 -10 21 -5 0
-10 -6 -10 -14z" />
    <path d="M306 165 c-3 -8 -1 -15 3 -15 5 0 11 7 15 15 3 8 1 15 -3 15 -5 0
-11 -7 -15 -15z" />
  </g>
  <g transform="translate(0.000000,68.000000) scale(0.100000,-0.100000)" fill="#2a1d18" stroke="none">
    <path d="M460 593 c0 -6 5 -15 10 -18 6 -4 8 -10 5 -15 -3 -5 -1 -11 5 -15 15
-9 12 18 -5 41 l-14 19 -1 -12z" />
    <path d="M143 468 c-4 -7 -8 -19 -9 -27 l-3 -13 25 23 c13 12 24 24 24 26 0 9
-30 1 -37 -9z" />
    <path d="M175 447 c-6 -7 -15 -19 -20 -27 l-9 -15 17 13 c9 8 21 11 26 8 l10
-6 -2 20 c-1 23 -7 25 -22 7z" />
    <path d="M216 433 l-7 -18 12 12 c7 7 10 15 7 18 -3 3 -9 -2 -12 -12z" />
    <path d="M117 414 c3 -7 9 -14 14 -14 14 0 10 17 -5 23 l-15 6 6 -15z" />
    <path d="M355 400 c3 -5 8 -10 11 -10 3 0 2 5 -1 10 -3 6 -8 10 -11 10 -3 0
-2 -4 1 -10z" />
    <path d="M318 393 c7 -3 16 -2 19 1 4 3 -2 6 -13 5 l-19 -1 13 -5z" />
    <path d="M90 374 l0 -15 10 6 c6 3 10 10 10 16 0 5 -4 9 -10 9 -5 0 -10 -7
-10 -16z" />
    <path d="M531 344 l-2 -44 13 2 13 3 -3 -19 -3 -18 9 6 c6 3 19 -6 30 -21 11
-16 23 -25 27 -21 4 4 -3 21 -15 37 -12 17 -17 31 -11 31 5 0 15 -8 20 -17 6
-10 11 -13 11 -8 0 6 6 -1 13 -14 6 -14 18 -26 26 -29 l14 -5 -5 14 c-3 8 -10
13 -16 12 l-11 -3 5 15 c8 20 -14 45 -32 38 l-16 -6 4 19 3 19 -28 -1 -28 -1
5 13 c3 8 1 14 -5 14 -6 0 -8 4 -4 9 3 5 2 12 -3 15 -5 3 -9 -15 -11 -40z m69
-18 c0 -3 -5 -8 -12 -12 l-11 -7 7 11 c7 12 16 16 16 8z" />
    <path d="M363 325 c0 -8 4 -15 9 -15 4 0 8 7 8 15 0 8 -4 15 -8 15 -5 0 -9 -7
-9 -15z" />
    <path d="M565 217 c-4 -10 -5 -21 -1 -24 10 -10 18 4 13 24 l-4 18 -8 -18z" />
    <path d="M620 199 c0 -5 5 -7 10 -4 6 3 10 8 10 11 0 2 -4 4 -10 4 -5 0 -10
-5 -10 -11z" />
    <path d="M240 190 c0 -5 7 -10 16 -10 l15 0 -6 10 c-3 6 -10 10 -16 10 -5 0
-9 -4 -9 -10z" />
    <path d="M596 183 c-4 -5 -12 -8 -17 -8 -5 0 -9 -3 -9 -7 0 -5 2 -8 5 -8 34 0
48 3 37 7 -6 2 -10 9 -6 14 6 11 0 12 -10 2z" />
    <path d="M645 180 c-3 -5 -1 -10 4 -10 6 0 11 5 11 10 0 6 -2 10 -4 10 -3 0
-8 -4 -11 -10z" />
    <path d="M673 161 l-6 -23 -8 14 -9 13 0 -16 c0 -9 6 -19 14 -22 l14 -6 7 26
c3 14 3 28 0 31 -3 3 -8 -4 -12 -17z" />
    <path d="M590 140 c0 -5 11 -20 24 -35 l23 -25 13 15 c7 9 10 18 6 22 -3 3 -6
1 -6 -5 l0 -11 -15 5 c-8 4 -15 10 -15 16 0 5 5 6 12 2 l11 -7 -6 10 c-9 14
-47 24 -47 13z" />
    <path d="M662 87 c-7 -8 -9 -17 -5 -20 3 -4 -1 -7 -11 -7 -16 0 -44 -45 -34
-55 12 -12 36 9 52 46 19 42 17 60 -2 36z" />
    <path d="M520 76 c0 -9 6 -16 13 -17 6 0 22 -2 35 -3 12 -2 21 1 20 6 -2 5 -8
10 -13 10 -6 0 -16 5 -24 11 l-15 12 9 -15 9 -15 -17 14 -17 13 0 -16z" />
  </g>
  <g transform="translate(0.000000,68.000000) scale(0.100000,-0.100000)" fill="#474243" stroke="none">
    <path d="M105 659 l7 -21 -11 -7 -10 -7 6 -23 6 -22 23 5 24 6 0 -14 c0 -8 -7
-16 -15 -20 -19 -7 -20 -41 -2 -58 8 -7 12 -20 9 -30 l-4 -18 33 17 c19 9 40
21 48 27 7 6 21 11 29 11 8 0 17 6 19 13 l5 12 -16 0 -15 0 6 30 6 30 -17 0
-16 0 0 19 c0 11 -6 26 -14 34 l-15 14 12 12 11 11 -58 0 -57 0 6 -21z m65
-39 c0 -5 -4 -10 -10 -10 -5 0 -10 5 -10 10 0 6 5 10 10 10 6 0 10 -4 10 -10z
m29 -95 c0 -5 -4 -3 -9 5 -5 8 -9 22 -9 30 l0 15 9 -20 c5 -11 9 -24 9 -30z" />
    <path d="M220 351 c-14 -4 -26 -14 -28 -22 -1 -8 6 -25 17 -38 l19 -22 31 16
c17 8 31 20 31 26 l0 11 -25 -6 -26 -7 7 26 c3 14 5 25 3 24 -2 -1 -15 -4 -29
-8z" />
    <path d="M100 320 c0 -5 9 -10 20 -10 11 0 20 5 20 10 0 6 -9 10 -20 10 -11 0
-20 -4 -20 -10z" />
    <path d="M162 258 c6 -18 28 -21 28 -4 0 9 -7 16 -16 16 -9 0 -14 -5 -12 -12z" />
    <path d="M650 251 c0 -5 5 -13 10 -16 6 -3 10 -2 10 4 0 5 -4 13 -10 16 -5 3
-10 2 -10 -4z" />
    <path d="M327 203 c-12 -12 -7 -22 8 -17 8 4 15 10 15 15 0 11 -14 12 -23 2z" />
    <path d="M470 195 l0 -15 -25 0 c-14 0 -25 5 -25 10 0 6 -7 10 -15 10 -8 0
-15 -7 -15 -15 0 -8 7 -15 15 -15 8 0 15 -4 15 -9 0 -5 16 -12 35 -15 19 -4
35 -11 35 -16 0 -6 7 -10 15 -10 9 0 18 -7 21 -15 4 -8 12 -15 20 -15 8 0 14
7 14 15 0 8 5 15 10 15 16 0 12 40 -5 46 -8 4 -26 7 -40 8 l-25 1 0 18 0 17
-15 0 c-8 0 -15 -7 -15 -15z" />
    <path d="M353 183 c-18 -7 -16 -23 2 -23 8 0 15 7 15 15 0 8 -1 15 -2 14 -2 0
-9 -3 -15 -6z" />
    <path d="M280 171 c0 -13 28 -33 41 -29 l12 4 -27 17 c-14 10 -26 13 -26 8z" />
    <path d="M660 65 l-12 -15 16 0 c9 0 16 7 16 15 0 8 -2 15 -4 15 -2 0 -9 -7
-16 -15z" />
  </g>
  <g transform="translate(0.000000,68.000000) scale(0.100000,-0.100000)" fill="#3e3b3b" stroke="none">
    <path d="M90 651 c0 -35 9 -63 19 -57 4 3 5 -11 3 -30 l-4 -34 10 0 c6 0 14 5
18 11 l6 11 12 -24 c7 -12 18 -22 25 -20 7 1 18 -1 25 -6 13 -11 45 -7 59 7
l10 10 -17 46 c-10 25 -21 45 -25 45 -5 0 -12 10 -18 22 l-9 22 -8 -12 -7 -12
10 0 c6 0 11 -7 11 -15 l0 -14 -13 5 c-7 2 -14 15 -15 28 l-2 23 23 11 22 12
-20 -3 c-11 -1 -28 -11 -38 -22 -10 -11 -16 -14 -12 -7 3 6 1 12 -4 12 -6 0
-11 -10 -11 -22 l0 -23 -9 15 c-6 8 -7 18 -4 23 5 9 -14 27 -29 27 -5 0 -8
-13 -8 -29z m94 -60 c3 -5 -1 -11 -9 -15 -15 -6 -29 7 -18 18 9 9 21 8 27 -3z
m56 -21 c0 -5 -5 -10 -11 -10 -5 0 -7 -4 -4 -10 l6 -10 -15 6 -15 6 6 14 c6
16 33 19 33 4z m-63 -47 c-4 -3 -10 -3 -14 0 -3 4 0 7 7 7 7 0 10 -3 7 -7z
m57 -9 l6 -17 -15 13 c-17 14 -19 20 -6 20 5 0 12 -7 15 -16z" />
    <path d="M480 651 c0 -6 4 -13 10 -16 l10 -6 -6 15 c-7 18 -14 21 -14 7z" />
    <path d="M140 486 c0 -9 7 -16 16 -16 17 0 14 22 -4 28 -7 2 -12 -3 -12 -12z" />
    <path d="M520 491 c0 -6 4 -13 10 -16 l10 -6 -6 15 c-7 18 -14 21 -14 7z" />
    <path d="M195 399 c-11 -17 1 -21 15 -4 l12 15 -10 0 c-6 0 -14 -5 -17 -11z" />
    <path d="M240 345 l0 -16 -19 11 c-25 13 -31 13 -31 0 0 -5 6 -10 14 -10 8 0
18 -4 21 -10 l6 -10 -15 6 -16 6 0 -10 c0 -6 9 -9 20 -7 l21 4 6 -16 6 -16 11
15 c6 8 15 15 21 16 5 0 11 6 14 13 l4 12 -17 -6 c-9 -4 -23 -10 -31 -13 l-15
-6 0 10 c0 6 5 14 10 17 6 3 10 10 10 16 0 5 -4 9 -10 9 -5 0 -10 -7 -10 -15z" />
    <path d="M200 231 c0 -5 5 -13 10 -16 6 -3 10 -2 10 4 0 5 -4 13 -10 16 -5 3
-10 2 -10 -4z" />
    <path d="M350 200 c0 -5 7 -10 16 -10 l15 0 -6 10 c-3 6 -10 10 -16 10 -5 0
-9 -4 -9 -10z" />
    <path d="M467 199 c-10 -6 -27 -9 -38 -6 -20 5 -23 -1 -13 -28 6 -14 76 -55
96 -55 4 0 8 7 8 16 l0 15 -11 -7 -11 -6 4 19 c2 11 -4 28 -12 38 -8 11 -10
16 -3 12 6 -4 14 -3 18 3 8 13 -15 12 -38 -1z m-10 -35 c-3 -3 -12 -4 -19 -1
l-13 5 19 1 c11 1 17 -2 13 -5z m33 2 c0 -3 -5 -8 -12 -12 l-11 -7 7 11 c7 12
16 16 16 8z" />
    <path d="M519 188 c0 -2 -2 -11 -4 -21 l-3 -17 10 6 c6 4 14 0 19 -7 l9 -14 9
14 9 14 -13 14 c-12 11 -34 18 -36 11z" />
    <path d="M333 165 c0 -8 7 -15 15 -15 7 0 12 5 10 12 -6 18 -25 21 -25 3z" />
  </g>
  <g transform="translate(0.000000,68.000000) scale(0.100000,-0.100000)" fill="#2f2929" stroke="none">
    <path d="M205 630 c3 -5 8 -10 11 -10 3 0 2 5 -1 10 -3 6 -8 10 -11 10 -3 0
-2 -4 1 -10z" />
    <path d="M137 596 c-6 -15 1 -26 15 -26 11 0 10 27 -1 34 -5 3 -11 0 -14 -8z" />
    <path d="M235 583 c7 -16 16 -39 20 -52 l7 -24 -10 7 c-12 7 -42 -3 -42 -13 0
-4 7 -8 15 -8 8 0 12 4 9 9 -4 5 0 9 7 7 28 -3 39 1 39 16 0 8 -4 15 -10 15
-5 0 -9 3 -8 8 2 11 -24 62 -33 62 -4 0 -2 -12 6 -27z" />
    <path d="M176 563 c-11 -11 -6 -23 9 -23 8 0 15 4 15 9 0 13 -16 22 -24 14z" />
    <path d="M130 493 c0 -8 5 -13 12 -11 18 6 21 25 3 25 -8 0 -15 -7 -15 -14z" />
    <path d="M175 480 c3 -5 8 -10 11 -10 2 0 4 5 4 10 0 6 -5 10 -11 10 -5 0 -7
-4 -4 -10z" />
    <path d="M165 369 l-19 -20 14 -9 c20 -13 40 -12 40 1 l0 11 -15 -6 c-18 -6
-20 5 -3 22 6 6 9 14 6 17 -2 3 -13 -4 -23 -16z" />
    <path d="M290 380 c0 -6 7 -10 15 -10 8 0 15 2 15 4 0 2 -7 6 -15 10 -8 3 -15
1 -15 -4z" />
    <path d="M256 360 l-20 -7 10 -6 c10 -6 42 9 34 16 -3 3 -14 1 -24 -3z" />
    <path d="M570 361 c0 -5 5 -13 10 -16 6 -3 10 -2 10 4 0 5 -4 13 -10 16 -5 3
-10 2 -10 -4z" />
    <path d="M80 342 c0 -12 19 -26 26 -19 2 2 -2 10 -11 17 l-15 12 0 -10z" />
    <path d="M285 321 c3 -5 1 -12 -5 -16 -5 -3 -10 -2 -10 4 l0 10 -17 -6 -17 -7
12 -4 12 -4 -7 -11 c-4 -7 4 -5 17 4 27 18 38 39 20 39 -6 0 -9 -4 -5 -9z" />
    <path d="M216 301 c-4 -7 -5 -15 -2 -18 9 -9 19 4 14 18 l-4 13 -8 -13z" />
    <path d="M254 264 l-39 -23 33 -1 33 0 -6 10 c-9 15 11 12 23 -3 l11 -13 -9
-14 c-16 -25 -11 -36 5 -13 17 24 16 70 -1 77 -6 2 -29 -6 -50 -20z" />
    <path d="M187 263 c-12 -12 -7 -31 9 -37 l16 -6 -5 14 c-3 7 0 19 6 25 l11 11
-15 0 c-9 0 -19 -3 -22 -7z" />
    <path d="M469 203 l-14 -17 18 7 c10 4 23 7 28 7 5 0 9 5 9 10 0 16 -26 12
-41 -7z" />
    <path d="M225 200 c3 -5 11 -10 16 -10 6 0 7 5 4 10 -3 6 -11 10 -16 10 -6 0
-7 -4 -4 -10z" />
    <path d="M375 200 c-3 -5 -3 -10 2 -11 4 0 16 -2 26 -4 21 -4 23 11 1 19 -21
8 -22 8 -29 -4z" />
    <path d="M315 180 c-3 -5 -1 -10 4 -10 6 0 11 5 11 10 0 6 -2 10 -4 10 -3 0
-8 -4 -11 -10z" />
    <path d="M515 180 l-6 -10 15 6 16 6 0 -11 c0 -6 7 -11 16 -11 l16 0 -12 15
c-14 17 -36 20 -45 5z" />
    <path d="M460 133 c0 -14 27 -29 36 -21 2 3 2 12 -1 20 -7 18 -35 19 -35 1z" />
  </g>
  <g transform="translate(0.000000,68.000000) scale(0.100000,-0.100000)" fill="#373231" stroke="none">
    <path d="M90 661 l0 -22 10 6 c6 3 10 0 10 -7 l0 -13 10 15 c11 17 13 37 3 27
-3 -4 -12 -2 -20 4 l-13 11 0 -21z" />
    <path d="M177 673 c-4 -3 -7 -11 -7 -17 l0 -10 12 12 c6 6 9 14 7 17 -3 3 -9
2 -12 -2z" />
    <path d="M190 629 c0 -5 5 -7 10 -4 6 3 10 8 10 11 0 2 -4 4 -10 4 -5 0 -10
-5 -10 -11z" />
    <path d="M139 607 l14 -18 -11 -11 c-17 -17 -15 -28 3 -22 20 8 19 38 -2 55
l-18 14 14 -18z" />
    <path d="M225 600 c3 -5 8 -10 11 -10 3 0 2 5 -1 10 -3 6 -8 10 -11 10 -3 0
-2 -4 1 -10z" />
    <path d="M125 590 c3 -5 8 -10 11 -10 3 0 2 5 -1 10 -3 6 -8 10 -11 10 -3 0
-2 -4 1 -10z" />
    <path d="M179 564 l-13 -16 13 -7 13 -8 -22 -16 -22 -15 8 -14 8 -13 -17 14
-17 13 0 -17 0 -16 18 3 c9 2 17 9 17 16 0 8 9 20 19 28 20 14 29 51 15 59 -3
3 -13 -2 -20 -11z m21 2 c0 -3 -5 -8 -12 -12 l-11 -7 7 11 c7 12 16 16 16 8z" />
    <path d="M237 563 c-2 -4 -1 -17 3 -28 l8 -20 7 18 8 18 -11 11 c-5 5 -12 6
-15 1z" />
    <path d="M204 488 l-7 -11 11 7 c12 7 16 16 8 16 -3 0 -8 -5 -12 -12z" />
    <path d="M550 411 c0 -6 4 -13 10 -16 l10 -6 -6 15 c-7 18 -14 21 -14 7z" />
    <path d="M182 385 c-12 -14 -18 -25 -13 -25 6 0 16 8 23 18 7 11 20 21 28 25
l15 5 -16 1 c-8 1 -25 -10 -37 -24z" />
    <path d="M90 384 l0 -15 10 6 c6 3 10 10 10 16 0 5 -4 9 -10 9 -5 0 -10 -7
-10 -16z" />
    <path d="M246 345 l-6 -16 -11 7 -12 7 8 -12 7 -13 16 16 c9 8 13 18 10 21 -3
3 -8 -1 -12 -10z" />
    <path d="M138 333 l-13 -16 25 6 c14 4 34 7 44 7 26 0 12 13 -18 16 l-25 3
-13 -16z" />
    <path d="M215 300 c-3 -5 -3 -10 2 -10 4 0 1 -4 -7 -10 -19 -11 -8 -23 14 -14
l17 6 -11 13 c-5 6 -7 15 -3 18 3 4 4 7 0 7 -3 0 -9 -4 -12 -10z" />
    <path d="M481 206 l-12 -14 12 -8 12 -7 -7 11 c-3 5 0 12 6 15 7 2 10 7 7 11
-3 4 -12 0 -18 -8z" />
    <path d="M250 181 c0 -11 31 -24 39 -16 3 3 -1 10 -9 15 -19 12 -30 12 -30 1z" />
    <path d="M320 180 c0 -5 5 -10 11 -10 5 0 7 5 4 10 -3 6 -8 10 -11 10 -2 0 -4
-4 -4 -10z" />
    <path d="M425 180 l-6 -10 23 0 23 -1 -18 -10 -18 -11 40 -26 c23 -15 41 -32
41 -39 0 -7 5 -13 10 -13 6 0 10 5 10 11 0 5 5 7 10 4 6 -3 10 -1 10 4 0 6 7
11 16 11 8 0 13 4 9 9 -3 6 3 14 12 20 l18 10 -20 15 c-11 8 -27 15 -35 15
l-15 -1 18 -5 c18 -5 24 -33 7 -33 -5 0 -10 -8 -10 -17 l-1 -18 -13 18 c-8 10
-20 16 -27 15 -8 -2 -14 4 -14 12 0 8 5 14 11 13 6 -1 11 5 11 12 l0 15 -14
-11 -13 -11 -25 16 c-29 19 -32 19 -40 6z m58 -42 l6 -23 -13 17 c-7 10 -17
14 -21 10 -5 -4 -5 -1 -1 6 11 19 23 14 29 -10z" />
  </g>
  <g transform="translate(0.000000,68.000000) scale(0.100000,-0.100000)" fill="#4f4a4a" stroke="none">
    <path d="M92 660 c0 -14 2 -19 5 -12 2 6 2 18 0 25 -3 6 -5 1 -5 -13z" />
    <path d="M133 673 c-20 -7 -15 -19 7 -20 11 -1 20 2 20 7 0 12 -13 18 -27 13z" />
    <path d="M173 664 c-3 -9 -21 -30 -39 -48 -19 -18 -34 -38 -34 -45 0 -22 16
-11 27 19 l11 30 26 0 25 0 -5 -15 -6 -14 26 -24 c14 -13 26 -32 26 -41 0 -9
5 -16 10 -16 19 0 10 37 -15 58 l-25 22 0 24 c0 14 -5 28 -11 31 -6 4 -8 13
-5 21 3 8 3 14 0 14 -2 0 -7 -7 -11 -16z" />
    <path d="M487 594 c-4 -4 -7 -18 -7 -31 l0 -23 15 0 c16 0 18 14 6 43 -3 10
-10 15 -14 11z" />
    <path d="M110 541 c0 -5 5 -13 10 -16 6 -3 10 -2 10 4 0 5 -4 13 -10 16 -5 3
-10 2 -10 -4z" />
    <path d="M155 510 c-3 -5 -1 -10 5 -10 6 0 8 -4 5 -10 l-6 -10 15 0 c18 0 19
2 10 24 -7 18 -20 21 -29 6z" />
    <path d="M120 455 l0 -14 15 5 c8 4 15 10 15 15 0 5 -7 9 -15 9 -8 0 -15 -7
-15 -15z" />
    <path d="M70 355 c0 -8 4 -15 9 -15 5 0 11 7 15 15 l5 15 -14 0 c-8 0 -15 -7
-15 -15z" />
    <path d="M145 330 c-3 -5 0 -10 8 -10 8 0 17 -7 21 -15 l5 -15 -14 0 c-8 0
-15 -7 -15 -15 0 -8 6 -15 14 -15 8 0 16 -4 18 -9 2 -5 13 -1 26 9 l23 19 -16
25 -16 24 18 5 c10 3 -1 5 -24 6 -23 0 -45 -3 -48 -9z" />
    <path d="M90 320 c0 -5 7 -10 16 -10 l15 0 -6 10 c-3 6 -10 10 -16 10 -5 0 -9
-4 -9 -10z" />
    <path d="M260 300 c0 -7 3 -10 7 -7 3 4 3 10 0 14 -4 3 -7 0 -7 -7z" />
    <path d="M630 291 c0 -5 5 -13 10 -16 6 -3 10 -2 10 4 0 5 -4 13 -10 16 -5 3
-10 2 -10 -4z" />
    <path d="M230 190 c0 -5 7 -10 16 -10 l15 0 -6 10 c-3 6 -10 10 -16 10 -5 0
-9 -4 -9 -10z" />
    <path d="M356 175 l-16 -25 10 0 c6 0 19 6 30 13 l21 12 9 -15 10 -15 8 13 c5
7 19 11 32 10 12 -2 24 2 26 7 l4 10 -45 -3 -45 -4 0 11 c0 20 -27 11 -44 -14z" />
    <path d="M680 186 c0 -9 5 -16 10 -16 6 0 10 4 10 9 0 6 -4 13 -10 16 l-10 6
0 -15z" />
    <path d="M536 122 c-3 -5 1 -9 9 -9 8 0 15 4 15 9 0 4 -4 8 -9 8 -6 0 -12 -4
-15 -8z" />
    <path d="M670 114 c0 -9 5 -14 12 -12 18 6 21 28 4 28 -9 0 -16 -7 -16 -16z" />
    <path d="M540 63 c0 -13 53 -63 67 -63 7 0 13 9 13 20 l0 21 -30 6 c-16 3 -30
9 -30 14 0 5 -4 9 -10 9 -5 0 -10 -3 -10 -7z" />
  </g>
  <g transform="translate(0.000000,68.000000) scale(0.100000,-0.100000)" fill="#3a2b24" stroke="none">
    <path d="M472 572 c14 -32 48 -71 48 -55 0 6 -7 18 -15 27 -8 8 -15 21 -15 29
0 8 -7 17 -15 20 l-14 6 11 -27z" />
    <path d="M110 436 c0 -8 -4 -16 -8 -18 -5 -1 -12 -15 -16 -30 l-6 -28 9 0 c5
0 12 14 16 31 4 17 13 33 21 36 8 3 11 9 8 14 -8 14 -24 11 -24 -5z" />
    <path d="M363 393 c4 -3 10 -3 14 0 3 4 0 7 -7 7 -7 0 -10 -3 -7 -7z" />
    <path d="M551 274 l1 -19 5 13 c3 7 2 16 -1 19 -3 4 -6 -2 -5 -13z" />
    <path d="M570 237 l0 -45 22 -6 c13 -3 27 -1 32 4 l9 9 -20 37 c-11 21 -25 40
-31 42 l-12 4 0 -45z m50 -39 c0 -4 -9 1 -20 12 -11 11 -20 23 -20 27 0 3 9
-2 20 -12 11 -10 20 -22 20 -27z" />
    <path d="M670 211 c0 -5 5 -13 10 -16 6 -3 10 -2 10 4 0 5 -4 13 -10 16 -5 3
-10 2 -10 -4z" />
    <path d="M350 196 c0 -2 7 -9 15 -16 l15 -12 0 16 c0 9 -7 16 -15 16 -8 0 -15
-2 -15 -4z" />
    <path d="M635 170 l-6 -10 15 6 c18 7 21 14 7 14 -6 0 -13 -4 -16 -10z" />
    <path d="M676 161 c-4 -7 -5 -15 -2 -18 9 -9 19 4 14 18 l-4 13 -8 -13z" />
    <path d="M583 143 c-19 -7 -16 -19 6 -20 l20 -2 -6 15 c-3 8 -6 14 -7 13 0 0
-7 -3 -13 -6z" />
    <path d="M670 105 c0 -14 4 -25 10 -25 5 0 9 11 8 25 -1 14 -6 25 -10 25 -4 0
-8 -11 -8 -25z" />
    <path d="M480 111 c0 -5 7 -14 15 -21 l15 -12 15 12 c9 7 13 15 10 18 -9 9
-55 11 -55 3z" />
    <path d="M549 111 c-1 -3 -3 -18 -5 -34 l-3 -27 10 5 c5 4 9 15 9 26 l0 20 21
-11 21 -12 -4 18 -3 17 -22 2 c-13 1 -24 -1 -24 -4z" />
    <path d="M580 57 c0 -4 7 -10 15 -13 8 -4 15 -12 15 -18 0 -7 6 -13 14 -13 7
0 13 7 12 16 0 9 5 15 12 14 6 -2 12 2 12 7 0 11 -4 12 -50 14 -16 0 -30 -3
-30 -7z" />
  </g>
  <g transform="translate(0.000000,68.000000) scale(0.100000,-0.100000)" fill="#575353" stroke="none">
    <path d="M140 671 c0 -6 5 -13 10 -16 l10 -6 0 15 c0 9 -4 16 -10 16 -5 0 -10
-4 -10 -9z" />
    <path d="M172 650 c0 -14 2 -19 5 -12 2 6 2 18 0 25 -3 6 -5 1 -5 -13z" />
    <path d="M90 640 c0 -7 3 -10 7 -7 3 4 3 10 0 14 -4 3 -7 0 -7 -7z" />
    <path d="M100 584 l0 -15 10 6 c6 4 8 11 5 16 -9 14 -15 11 -15 -7z" />
    <path d="M195 580 c3 -5 8 -10 11 -10 3 0 2 5 -1 10 -3 6 -8 10 -11 10 -3 0
-2 -4 1 -10z" />
    <path d="M230 536 c0 -8 5 -18 10 -21 6 -3 10 1 10 9 0 8 -4 18 -10 21 -5 3
-10 -1 -10 -9z" />
    <path d="M123 494 c-1 -20 -8 -43 -17 -53 -18 -20 -20 -31 -6 -31 6 0 15 11
21 24 6 13 25 31 42 40 l32 17 -27 -6 -28 -5 0 19 c0 36 -16 31 -17 -5z" />
    <path d="M540 441 c0 -6 4 -13 10 -16 l10 -6 -6 15 c-7 18 -14 21 -14 7z" />
    <path d="M143 330 c-27 -11 -29 -25 -8 -46 l15 -15 11 7 12 7 -7 -12 -8 -12
12 -14 c16 -19 31 -19 24 -1 -3 8 0 17 6 21 l11 7 -13 16 -13 16 13 -8 12 -7
0 16 0 17 -15 -6 c-8 -3 -15 -1 -15 4 0 5 10 11 23 13 l22 4 -30 1 c-16 0 -40
-3 -52 -8z" />
    <path d="M330 195 c-7 -9 -10 -18 -6 -22 3 -3 6 -1 6 5 0 7 9 12 21 12 l20 0
-6 10 c-9 14 -21 12 -35 -5z" />
    <path d="M245 180 c3 -5 11 -10 16 -10 6 0 7 5 4 10 -3 6 -11 10 -16 10 -6 0
-7 -4 -4 -10z" />
    <path d="M393 182 c-12 -2 -27 -10 -33 -18 l-12 -14 30 0 c16 0 35 6 41 14 14
17 5 23 -26 18z" />
    <path d="M455 130 c3 -5 11 -10 16 -10 6 0 7 5 4 10 -3 6 -11 10 -16 10 -6 0
-7 -4 -4 -10z" />
  </g>
  <g transform="translate(0.000000,68.000000) scale(0.100000,-0.100000)" fill="#45322b" stroke="none">
    <path d="M484 588 l-7 -11 11 7 c7 4 12 9 12 12 0 8 -9 4 -16 -8z" />
    <path d="M480 560 c0 -7 3 -10 7 -7 3 4 3 10 0 14 -4 3 -7 0 -7 -7z" />
    <path d="M135 460 c3 -5 8 -10 11 -10 2 0 4 5 4 10 0 6 -5 10 -11 10 -5 0 -7
-4 -4 -10z" />
    <path d="M97 433 c-4 -3 -7 -13 -7 -21 l0 -14 15 12 c8 7 15 16 15 21 0 11
-14 12 -23 2z" />
    <path d="M80 374 l0 -15 10 6 c6 3 10 10 10 16 0 5 -4 9 -10 9 -5 0 -10 -7
-10 -16z" />
    <path d="M580 262 c0 -5 10 -17 21 -28 l22 -19 -12 22 c-12 24 -31 39 -31 25z" />
    <path d="M573 203 c4 -3 10 -3 14 0 3 4 0 7 -7 7 -7 0 -10 -3 -7 -7z" />
    <path d="M366 185 c4 -8 10 -15 16 -15 5 0 7 4 4 9 -4 5 0 12 6 14 7 3 3 6 -9
6 l-22 1 5 -15z" />
    <path d="M682 167 c-15 -35 -15 -47 -2 -47 14 0 22 24 18 52 l-4 23 -12 -28z" />
    <path d="M570 140 c0 -6 7 -10 15 -10 8 0 15 2 15 4 0 2 -7 6 -15 10 -8 3 -15
1 -15 -4z" />
    <path d="M510 130 c0 -5 10 -19 22 -30 l23 -21 -15 -9 c-8 -5 -11 -12 -7 -17
5 -4 12 -1 17 7 12 19 13 53 1 45 -5 -3 -12 4 -16 15 -6 20 -25 28 -25 10z" />
    <path d="M672 84 l-2 -25 10 6 c12 7 14 45 2 45 -4 0 -9 -11 -10 -26z" />
    <path d="M574 49 c-3 -5 0 -9 6 -9 6 0 8 -4 5 -10 l-6 -10 17 7 17 6 -6 -16
-6 -17 13 0 14 0 -2 17 -1 18 12 -2 12 -3 -4 13 c-6 14 -63 19 -71 6z" />
  </g>
  <g transform="translate(0.000000,68.000000) scale(0.100000,-0.100000)" fill="#645d5b" stroke="none">
    <path d="M96 607 c3 -10 9 -15 12 -12 3 3 0 11 -7 18 l-12 12 7 -18z" />
    <path d="M490 600 c0 -7 3 -10 7 -7 3 4 3 10 0 14 -4 3 -7 0 -7 -7z" />
    <path d="M100 571 c0 -5 5 -13 10 -16 6 -3 10 -2 10 4 0 5 -4 13 -10 16 -5 3
-10 2 -10 -4z" />
    <path d="M490 546 c0 -2 7 -9 15 -16 l15 -13 -6 17 c-3 9 -10 16 -15 16 -5 0
-9 -2 -9 -4z" />
    <path d="M125 510 c3 -5 8 -10 11 -10 3 0 2 5 -1 10 -3 6 -8 10 -11 10 -3 0
-2 -4 1 -10z" />
    <path d="M120 470 l0 -21 21 12 22 11 -14 9 c-22 14 -29 11 -29 -11z" />
    <path d="M530 471 c0 -6 4 -13 10 -16 l10 -6 -6 15 c-7 18 -14 21 -14 7z" />
    <path d="M70 395 c0 -8 7 -15 15 -15 8 0 15 7 15 15 0 8 -7 15 -15 15 -8 0
-15 -7 -15 -15z" />
    <path d="M70 351 c0 -5 5 -13 10 -16 6 -3 10 -2 10 4 0 5 -4 13 -10 16 -5 3
-10 2 -10 -4z" />
    <path d="M590 335 c7 -9 15 -13 17 -11 7 7 -7 26 -19 26 l-10 0 12 -15z" />
    <path d="M161 335 c-1 -6 -11 -11 -22 -12 -41 -3 -39 -25 2 -27 12 0 24 -7 27
-15 l5 -14 -12 7 c-6 4 -11 3 -11 -3 0 -5 5 -13 10 -16 6 -3 10 -2 10 3 0 6 8
8 19 5 10 -3 22 0 25 6 l7 11 -20 0 c-12 0 -20 3 -19 8 0 4 -4 18 -10 32 -6
14 -11 20 -11 15z" />
    <path d="M340 199 c0 -5 5 -7 10 -4 6 3 10 8 10 11 0 2 -4 4 -10 4 -5 0 -10
-5 -10 -11z" />
    <path d="M393 183 c-13 -2 -23 -8 -23 -13 0 -5 7 -6 17 -3 l16 6 -7 -11 -7
-12 15 0 15 0 -2 20 c-1 11 -1 19 -2 19 0 -1 -10 -4 -22 -6z" />
    <path d="M325 150 l-6 -10 15 0 c9 0 16 5 16 10 0 6 -4 10 -9 10 -6 0 -13 -4
-16 -10z" />
    <path d="M680 131 c0 -6 5 -13 10 -16 l10 -6 0 15 c0 9 -4 16 -10 16 -5 0 -10
-4 -10 -9z" />
    <path d="M608 3 c7 -3 16 -2 19 1 4 3 -2 6 -13 5 l-19 -1 13 -5z" />
  </g>
  <g transform="translate(0.000000,68.000000) scale(0.100000,-0.100000)" fill="#e4e4e4" stroke="none">
    <path d="M490 630 c0 -7 3 -10 7 -7 3 4 3 10 0 14 -4 3 -7 0 -7 -7z" />
    <path d="M90 620 c0 -7 3 -10 7 -7 3 4 3 10 0 14 -4 3 -7 0 -7 -7z" />
    <path d="M100 576 c0 -8 4 -17 9 -20 l9 -6 -5 20 c-6 23 -13 26 -13 6z" />
    <path d="M500 560 c0 -7 3 -10 7 -7 3 4 3 10 0 14 -4 3 -7 0 -7 -7z" />
    <path d="M115 481 c-3 -5 -1 -12 5 -16 l10 -6 0 15 c0 18 -6 21 -15 7z" />
    <path d="M540 450 c0 -7 3 -10 7 -7 3 4 3 10 0 14 -4 3 -7 0 -7 -7z" />
    <path d="M77 413 c-4 -3 -7 -11 -7 -17 l0 -10 12 12 c6 6 9 14 7 17 -3 3 -9 2
-12 -2z" />
    <path d="M560 396 c0 -11 22 -49 37 -64 20 -21 16 -7 -12 34 -14 20 -25 34
-25 30z" />
    <path d="M90 321 c0 -6 4 -11 9 -11 5 0 26 -18 47 -40 21 -22 41 -40 45 -40 8
0 -57 69 -83 89 l-18 13 0 -11z" />
    <path d="M636 287 c3 -10 9 -15 12 -12 3 3 0 11 -7 18 l-12 12 7 -18z" />
    <path d="M656 247 c3 -10 9 -15 12 -12 3 3 0 11 -7 18 l-12 12 7 -18z" />
    <path d="M230 190 c0 -5 5 -10 11 -10 5 0 7 5 4 10 -3 6 -8 10 -11 10 -2 0 -4
-4 -4 -10z" />
    <path d="M686 187 c3 -10 9 -15 12 -12 3 3 0 11 -7 18 l-12 12 7 -18z" />
    <path d="M370 159 c0 -5 9 -9 20 -9 11 0 20 2 20 4 0 2 -9 6 -20 9 -11 3 -20
1 -20 -4z" />
    <path d="M296 148 c3 -4 16 -8 29 -8 13 0 26 4 29 8 2 4 -10 8 -29 8 -19 0
-31 -4 -29 -8z" />
    <path d="M690 150 c-1 -3 -3 -15 -4 -28 l-3 -23 10 10 c5 5 7 17 4 27 -3 11
-6 17 -7 14z" />
    <path d="M490 96 c24 -25 49 -46 54 -46 13 0 -53 69 -79 82 -11 6 0 -10 25
-36z" />
    <path d="M656 49 c-9 -11 -16 -25 -14 -31 2 -6 12 2 22 17 21 33 17 42 -8 14z" />
    <path d="M585 10 c3 -5 11 -10 16 -10 6 0 7 5 4 10 -3 6 -11 10 -16 10 -6 0
-7 -4 -4 -10z" />
  </g>
  <g transform="translate(0.000000,68.000000) scale(0.100000,-0.100000)" fill="#4b3b34" stroke="none">
    <path d="M486 548 c3 -4 9 -8 15 -8 5 0 9 4 9 8 0 5 -7 9 -15 9 -8 0 -12 -4
-9 -9z" />
    <path d="M105 440 c-3 -5 -1 -10 4 -10 6 0 11 5 11 10 0 6 -2 10 -4 10 -3 0
-8 -4 -11 -10z" />
    <path d="M84 404 l6 -15 -10 6 -10 6 0 -28 1 -28 14 19 c18 23 20 56 4 56
l-11 0 6 -16z" />
    <path d="M640 271 c0 -6 4 -13 10 -16 l10 -6 -6 15 c-7 18 -14 21 -14 7z" />
    <path d="M357 199 c7 -7 15 -10 18 -7 3 3 -2 9 -12 12 l-18 7 12 -12z" />
    <path d="M405 160 l-6 -10 16 0 16 0 -6 10 c-3 6 -8 10 -10 10 -2 0 -7 -4 -10
-10z" />
    <path d="M570 140 c0 -7 3 -10 7 -7 3 4 3 10 0 14 -4 3 -7 0 -7 -7z" />
    <path d="M684 138 l-7 -11 11 7 c7 4 12 9 12 12 0 8 -9 4 -16 -8z" />
    <path d="M510 136 c0 -2 7 -9 15 -16 l15 -13 -6 17 c-3 9 -10 16 -15 16 -5 0
-9 -2 -9 -4z" />
    <path d="M547 111 l-6 -24 11 11 c5 5 8 16 6 23 l-4 13 -7 -23z" />
    <path d="M646 44 c-9 -24 -7 -28 9 -14 17 14 20 30 6 30 -5 0 -12 -7 -15 -16z" />
    <path d="M566 41 c-3 -5 5 -8 18 -7 13 0 22 4 19 9 -6 10 -31 9 -37 -2z" />
  </g>
  <g transform="translate(0.000000,68.000000) scale(0.100000,-0.100000)" fill="#85807f" stroke="none">
    <path d="M480 660 c0 -7 3 -10 7 -7 3 4 3 10 0 14 -4 3 -7 0 -7 -7z" />
    <path d="M100 590 c0 -7 3 -10 7 -7 3 4 3 10 0 14 -4 3 -7 0 -7 -7z" />
    <path d="M111 550 c0 -8 4 -22 9 -30 12 -18 12 -2 0 25 l-9 20 0 -15z" />
    <path d="M500 550 c0 -7 3 -10 7 -7 3 4 3 10 0 14 -4 3 -7 0 -7 -7z" />
    <path d="M117 461 l-6 -24 11 11 c5 5 8 16 6 23 l-4 13 -7 -23z" />
    <path d="M550 420 c0 -7 3 -10 7 -7 3 4 3 10 0 14 -4 3 -7 0 -7 -7z" />
    <path d="M74 395 c-4 -14 -4 -29 0 -32 3 -4 6 3 6 13 0 11 5 25 12 32 l12 12
-12 0 c-6 0 -14 -11 -18 -25z" />
    <path d="M605 320 c3 -5 8 -10 11 -10 3 0 2 5 -1 10 -3 6 -8 10 -11 10 -3 0
-2 -4 1 -10z" />
    <path d="M100 316 c0 -2 12 -12 28 -21 l27 -18 -19 21 c-17 20 -36 29 -36 18z" />
    <path d="M210 216 c0 -2 8 -10 18 -17 l17 -14 -14 18 c-13 16 -21 21 -21 13z" />
    <path d="M680 200 c0 -7 3 -10 7 -7 3 4 3 10 0 14 -4 3 -7 0 -7 -7z" />
    <path d="M250 176 c0 -2 7 -6 15 -10 8 -3 15 -1 15 4 0 6 -7 10 -15 10 -8 0
-15 -2 -15 -4z" />
    <path d="M290 156 c0 -2 7 -7 16 -10 l15 -6 -6 10 c-6 10 -25 14 -25 6z" />
    <path d="M411 156 c2 -2 15 -9 29 -15 l25 -12 -19 15 c-11 9 -24 16 -30 16 -5
0 -7 -2 -5 -4z" />
    <path d="M500 95 c19 -19 36 -35 39 -35 3 0 -10 16 -29 35 -19 19 -36 35 -39
35 -3 0 10 -16 29 -35z" />
    <path d="M646 35 c-9 -14 -13 -25 -9 -25 10 0 36 40 30 46 -2 3 -12 -7 -21
-21z" />
    <path d="M570 32 c0 -12 19 -26 26 -19 2 2 -2 10 -11 17 l-15 12 0 -10z" />
  </g>
  <g transform="translate(0.000000,68.000000) scale(0.100000,-0.100000)" fill="#a09d9d" stroke="none">
    <path d="M90 630 c0 -7 3 -10 7 -7 3 4 3 10 0 14 -4 3 -7 0 -7 -7z" />
    <path d="M491 614 l1 -19 5 13 c3 7 2 16 -1 19 -3 4 -6 -2 -5 -13z" />
    <path d="M110 540 c0 -7 3 -10 7 -7 3 4 3 10 0 14 -4 3 -7 0 -7 -7z" />
    <path d="M520 500 c0 -7 3 -10 7 -7 3 4 3 10 0 14 -4 3 -7 0 -7 -7z" />
    <path d="M70 390 c0 -7 3 -10 7 -7 3 4 3 10 0 14 -4 3 -7 0 -7 -7z" />
    <path d="M71 359 c-1 -9 9 -24 22 -35 l22 -19 -16 20 c-9 11 -19 27 -22 35
l-5 15 -1 -16z" />
    <path d="M610 316 c0 -2 8 -10 18 -17 l17 -14 -14 18 c-13 16 -21 21 -21 13z" />
    <path d="M145 280 c3 -5 8 -10 11 -10 3 0 2 5 -1 10 -3 6 -8 10 -11 10 -3 0
-2 -4 1 -10z" />
    <path d="M165 250 c3 -5 8 -10 11 -10 3 0 2 5 -1 10 -3 6 -8 10 -11 10 -3 0
-2 -4 1 -10z" />
    <path d="M190 236 c0 -2 8 -10 18 -17 l17 -14 -14 18 c-13 16 -21 21 -21 13z" />
    <path d="M665 230 c3 -5 8 -10 11 -10 3 0 2 5 -1 10 -3 6 -8 10 -11 10 -3 0
-2 -4 1 -10z" />
    <path d="M235 190 c3 -5 8 -10 11 -10 3 0 2 5 -1 10 -3 6 -8 10 -11 10 -3 0
-2 -4 1 -10z" />
    <path d="M270 171 c0 -5 7 -12 16 -15 l17 -6 -13 15 c-14 17 -20 19 -20 6z" />
    <path d="M691 164 l1 -19 5 13 c3 7 2 16 -1 19 -3 4 -6 -2 -5 -13z" />
    <path d="M348 153 c7 -3 16 -2 19 1 4 3 -2 6 -13 5 l-19 -1 13 -5z" />
    <path d="M670 65 c-7 -9 -11 -17 -9 -20 3 -2 10 5 17 15 14 24 10 26 -8 5z" />
    <path d="M535 60 c3 -5 8 -10 11 -10 3 0 2 5 -1 10 -3 6 -8 10 -11 10 -3 0 -2
-4 1 -10z" />
    <path d="M595 10 c3 -5 8 -10 11 -10 3 0 2 5 -1 10 -3 6 -8 10 -11 10 -3 0 -2
-4 1 -10z" />
    <path d="M624 8 l-7 -11 11 7 c12 7 16 16 8 16 -3 0 -8 -5 -12 -12z" />
  </g>
  <g transform="translate(0.000000,68.000000) scale(0.100000,-0.100000)" fill="#bcb9b8" stroke="none">
    <path d="M510 520 c0 -7 3 -10 7 -7 3 4 3 10 0 14 -4 3 -7 0 -7 -7z" />
    <path d="M95 430 c-10 -11 -14 -20 -9 -20 5 0 15 9 22 20 7 11 11 20 9 20 -2
0 -12 -9 -22 -20z" />
    <path d="M245 180 c3 -5 8 -10 11 -10 3 0 2 5 -1 10 -3 6 -8 10 -11 10 -3 0
-2 -4 1 -10z" />
    <path d="M365 160 c-3 -5 -1 -10 4 -10 6 0 11 5 11 10 0 6 -2 10 -4 10 -3 0
-8 -4 -11 -10z" />
    <path d="M403 153 c4 -3 10 -3 14 0 3 4 0 7 -7 7 -7 0 -10 -3 -7 -7z" />
    <path d="M690 150 c0 -7 3 -10 7 -7 3 4 3 10 0 14 -4 3 -7 0 -7 -7z" />
    <path d="M681 94 l1 -19 5 13 c3 7 2 16 -1 19 -3 4 -6 -2 -5 -13z" />
    <path d="M540 56 c0 -2 8 -10 18 -17 l17 -14 -14 18 c-13 16 -21 21 -21 13z" />
    <path d="M654 38 l-7 -11 11 7 c7 4 12 9 12 12 0 8 -9 4 -16 -8z" />
  </g>
  <g transform="translate(0.000000,68.000000) scale(0.100000,-0.100000)" fill="#d2d1d0" stroke="none">
    <path d="M515 510 c3 -5 8 -10 11 -10 3 0 2 5 -1 10 -3 6 -8 10 -11 10 -3 0
-2 -4 1 -10z" />
    <path d="M90 420 c0 -7 3 -10 7 -7 3 4 3 10 0 14 -4 3 -7 0 -7 -7z" />
    <path d="M583 343 c4 -3 10 -3 14 0 3 4 0 7 -7 7 -7 0 -10 -3 -7 -7z" />
    <path d="M105 310 c3 -5 8 -10 11 -10 3 0 2 5 -1 10 -3 6 -8 10 -11 10 -3 0
-2 -4 1 -10z" />
    <path d="M670 221 c0 -6 4 -13 10 -16 l10 -6 -6 15 c-7 18 -14 21 -14 7z" />
    <path d="M270 170 c0 -7 3 -10 7 -7 3 4 3 10 0 14 -4 3 -7 0 -7 -7z" />
    <path d="M364 158 l-7 -11 11 7 c12 7 16 16 8 16 -3 0 -8 -5 -12 -12z" />
    <path d="M313 143 c4 -3 10 -3 14 0 3 4 0 7 -7 7 -7 0 -10 -3 -7 -7z" />
    <path d="M680 80 c0 -7 3 -10 7 -7 3 4 3 10 0 14 -4 3 -7 0 -7 -7z" />
    <path d="M570 25 c7 -8 17 -15 22 -15 5 0 3 7 -6 15 -8 8 -18 15 -22 15 -3 0
-1 -7 6 -15z" />
    <path d="M633 13 c4 -3 10 -3 14 0 3 4 0 7 -7 7 -7 0 -10 -3 -7 -7z" />
  </g>
  <g transform="translate(0.000000,68.000000) scale(0.100000,-0.100000)" fill="#776f6c" stroke="none">
    <path d="M183 263 c4 -3 10 -3 14 0 3 4 0 7 -7 7 -7 0 -10 -3 -7 -7z" />
    <path d="M375 170 l-6 -10 15 6 c18 7 21 14 7 14 -6 0 -13 -4 -16 -10z" />
    <path d="M485 110 c3 -5 8 -10 11 -10 3 0 2 5 -1 10 -3 6 -8 10 -11 10 -3 0
-2 -4 1 -10z" />
  </g>
</svg>