<svg width="76.000000pt" height="68.000000pt" viewBox="0 0 76.000000 68.000000" xmlns="http://www.w3.org/2000/svg">
  <g transform="translate(0.000000,68.000000) scale(0.100000,-0.100000)" fill="#fefefe" stroke="none">
    <path d="M0 340 l0 -340 146 0 146 0 -7 18 c-4 9 -11 42 -16 72 -13 78 -72
222 -111 272 -19 24 -47 67 -62 96 l-28 54 6 41 c7 43 41 107 57 107 5 0 9 5
9 10 l0 10 -70 0 -70 0 0 -340z" />
    <path d="M160 672 c0 -4 37 -41 82 -81 l81 -73 61 4 61 5 32 -20 c18 -10 61
-46 96 -78 34 -32 72 -68 85 -80 12 -12 22 -31 22 -43 0 -13 -11 -33 -24 -45
-13 -13 -27 -37 -30 -55 l-6 -33 14 -35 c8 -19 18 -58 22 -86 l7 -52 48 0 49
0 0 340 0 340 -300 0 c-165 0 -300 -4 -300 -8z" />
  </g>
  <g transform="translate(0.000000,68.000000) scale(0.100000,-0.100000)" fill="#141211" stroke="none">
    <path d="M440 515 c0 -8 7 -15 15 -15 8 0 15 -4 15 -10 0 -5 7 -10 15 -10 8 0
15 7 15 15 0 8 -7 15 -15 15 -8 0 -15 5 -15 10 0 6 -7 10 -15 10 -8 0 -15 -7
-15 -15z" />
    <path d="M100 471 c0 -23 14 -41 31 -41 20 0 23 8 13 34 -6 17 -44 23 -44 7z" />
    <path d="M350 470 c0 -5 -7 -10 -15 -10 l-15 0 0 -30 0 -30 14 0 c8 0 17 11
20 25 4 14 11 25 16 25 6 0 10 7 10 15 0 8 -7 15 -15 15 -8 0 -15 -4 -15 -10z" />
    <path d="M408 473 c-10 -2 -18 -11 -18 -19 l0 -15 27 3 28 3 3 18 3 17 -13 -1
c-7 -1 -21 -3 -30 -6z" />
    <path d="M530 435 c0 -8 7 -15 15 -15 8 0 15 7 15 15 0 8 -7 15 -15 15 -8 0
-15 -7 -15 -15z" />
    <path d="M140 405 c0 -8 7 -15 15 -15 8 0 15 7 15 15 0 8 -7 15 -15 15 -8 0
-15 -7 -15 -15z" />
    <path d="M608 335 c-13 -28 -28 -33 -28 -9 l0 16 -27 -7 c-16 -4 -30 -8 -31
-10 -2 -2 -1 -13 3 -24 7 -23 25 -27 42 -10 l12 12 -6 -23 -6 -23 24 6 c13 4
27 7 32 7 4 0 7 7 7 15 l0 15 20 0 20 0 0 15 c0 8 -4 15 -10 15 -5 0 -10 7
-10 15 0 24 -29 17 -42 -10z" />
    <path d="M257 343 c-14 -13 -6 -33 13 -33 l20 0 0 20 0 20 -13 0 c-8 0 -17 -3
-20 -7z" />
    <path d="M357 313 c-4 -3 -7 -21 -7 -40 l0 -33 33 0 c17 0 38 -4 45 -8 l13 -9
-26 -11 -26 -12 -20 11 c-11 5 -27 9 -37 8 -9 -2 -27 1 -39 5 -29 9 -63 -1
-63 -20 0 -8 5 -14 10 -14 6 0 10 -6 10 -14 0 -8 6 -21 13 -28 8 -7 17 -26 21
-41 l6 -27 -15 -6 c-8 -4 -15 -11 -15 -16 0 -17 50 -58 71 -58 l19 0 1 23 0
22 9 -22 9 -22 96 2 96 2 -3 15 -3 15 -33 3 -32 3 0 -10 c0 -6 -5 -11 -10 -11
l-11 0 5 58 c3 31 5 65 5 75 l1 17 20 0 c11 0 20 4 20 9 0 5 10 11 22 13 l23
3 3 18 4 18 -39 -7 c-21 -3 -42 -10 -47 -15 -13 -12 -36 -12 -36 0 0 5 14 11
30 15 l30 6 0 19 c0 24 -19 31 -80 31 l-48 0 5 20 5 20 -14 0 c-8 0 -18 -3
-21 -7z" />
    <path d="M204 278 c3 -13 6 -26 6 -30 0 -5 7 -8 15 -8 17 0 18 4 9 38 -4 12
-13 22 -21 22 l-15 0 6 -22z" />
  </g>
  <g transform="translate(0.000000,68.000000) scale(0.100000,-0.100000)" fill="#191413" stroke="none">
    <path d="M120 535 c0 -8 7 -15 15 -15 8 0 15 7 15 15 0 8 -7 15 -15 15 -8 0
-15 -7 -15 -15z" />
    <path d="M410 515 c0 -8 7 -15 15 -15 8 0 15 -4 15 -10 0 -5 7 -10 15 -10 8 0
15 7 15 15 0 8 -7 15 -15 15 -8 0 -15 5 -15 10 0 6 -7 10 -15 10 -8 0 -15 -7
-15 -15z" />
    <path d="M80 485 l0 -25 27 -30 c15 -17 33 -28 39 -26 l13 5 -6 -15 -5 -14 16
0 c20 0 20 11 -1 54 -17 34 -41 51 -29 21 3 -8 1 -15 -3 -15 -5 0 -11 7 -15
15 -3 8 -1 15 4 15 16 0 11 27 -6 34 -27 10 -34 7 -34 -19z" />
    <path d="M213 493 l-23 -4 0 -20 0 -19 21 0 c22 0 49 22 49 39 0 11 -7 12 -47
4z" />
    <path d="M397 473 c-4 -3 -25 -6 -47 -5 l-40 2 0 -15 c0 -8 -4 -15 -10 -15 -5
0 -12 -16 -16 -35 l-6 -35 -14 0 c-8 0 -14 -7 -14 -15 0 -8 -4 -15 -10 -15
-18 0 -10 -20 20 -48 17 -16 30 -34 30 -39 l0 -10 -25 5 c-14 2 -25 11 -25 18
0 16 -26 19 -35 4 -8 -13 18 -66 32 -63 l11 2 -5 -19 -5 -20 11 0 c6 0 11 11
11 25 0 14 3 25 8 25 4 0 18 -7 31 -16 l23 -17 7 12 8 12 26 -12 27 -12 23 10
22 10 14 -14 13 -14 23 15 c13 9 30 13 38 10 20 -7 29 10 22 39 l-6 23 -45 12
c-57 15 -74 15 -74 -1 l0 -13 29 2 c15 1 35 -2 42 -7 l14 -9 -15 -10 c-8 -6
-24 -7 -35 -4 -11 3 -37 8 -57 11 -21 3 -38 10 -38 15 l0 10 16 -6 c9 -3 21
-3 27 1 l12 7 -23 6 c-28 6 -27 26 0 22 11 -2 26 2 34 8 15 14 19 50 5 50 -16
0 -91 -44 -91 -53 0 -5 -7 -4 -15 3 l-15 13 21 18 c12 10 19 24 17 31 l-5 13
29 18 c16 9 37 17 48 17 l20 0 0 14 c0 37 -24 59 -43 39z m30 -19 c-3 -3 -12
-4 -19 -1 l-13 5 19 1 c11 1 17 -2 13 -5z m-80 -11 c-4 -3 -10 -3 -14 0 -3 4
0 7 7 7 7 0 10 -3 7 -7z m-67 -113 c0 -5 -5 -10 -11 -10 -5 0 -7 5 -4 10 3 6
8 10 11 10 2 0 4 -4 4 -10z" />
    <path d="M508 426 c-37 -28 -11 -50 27 -23 l18 14 -7 11 c-9 15 -17 15 -38 -2z" />
    <path d="M210 410 l0 -20 15 0 15 0 0 20 0 20 -15 0 -15 0 0 -20z" />
    <path d="M170 345 c0 -8 7 -15 15 -15 8 0 15 7 15 15 0 8 -7 15 -15 15 -8 0
-15 -7 -15 -15z" />
    <path d="M635 340 c-3 -5 -3 -15 1 -22 l7 -11 -10 6 c-6 4 -13 0 -17 -8 -6
-17 7 -27 27 -20 l14 6 1 29 c1 30 -11 40 -23 20z" />
    <path d="M539 333 c-1 -5 -1 -11 -1 -14 1 -4 -8 -5 -18 -2 l-20 5 0 -16 c0 -9
5 -16 11 -16 18 0 46 19 53 35 l5 15 -14 0 c-8 0 -16 -3 -16 -7z" />
    <path d="M593 325 c-8 -22 6 -33 17 -15 13 20 12 30 0 30 -6 0 -13 -7 -17 -15z" />
    <path d="M568 283 c-22 -6 -24 -33 -2 -33 24 0 55 20 48 31 l-6 10 -16 -13
-16 -13 8 13 c4 6 6 11 4 11 -2 -1 -11 -3 -20 -6z" />
    <path d="M563 225 c-3 -9 -3 -18 0 -21 10 -10 47 7 47 22 l0 14 -20 0 c-11 0
-23 -7 -27 -15z" />
    <path d="M483 183 c-20 -7 -15 -23 7 -23 11 0 20 4 20 9 0 13 -12 19 -27 14z" />
    <path d="M436 164 c-4 -9 -4 -19 -1 -22 3 -3 5 -1 5 4 0 5 7 -4 15 -20 l15
-29 -8 -11 c-4 -6 -7 -22 -6 -36 1 -14 -3 -28 -9 -32 -6 -4 -8 -10 -4 -15 4
-4 16 -2 27 5 l19 11 3 -11 4 -11 21 7 21 7 -2 14 c-1 9 -8 21 -14 27 l-12 12
-21 -12 -20 -12 7 27 c4 16 11 34 16 40 6 7 7 20 4 29 l-6 16 -15 -6 -15 -5 0
14 c0 21 -17 27 -24 9z" />
    <path d="M274 125 l6 -25 -10 0 c-5 0 -10 -12 -10 -26 l0 -26 24 16 25 16 6
-10 c9 -15 25 -12 25 6 0 8 -3 13 -7 11 -5 -3 -17 5 -28 16 -11 11 -14 17 -7
12 l13 -7 -13 21 c-18 29 -32 26 -24 -4z" />
    <path d="M410 140 c0 -7 3 -10 7 -7 3 4 3 10 0 14 -4 3 -7 0 -7 -7z" />
  </g>
  <g transform="translate(0.000000,68.000000) scale(0.100000,-0.100000)" fill="#211a18" stroke="none">
    <path d="M102 578 c0 -24 5 -49 10 -55 6 -7 23 -13 38 -13 l28 0 6 -22 c3 -13
6 -33 6 -45 0 -12 4 -23 10 -25 5 -1 12 -23 15 -48 l7 -45 -10 14 -10 14 -12
-8 -13 -8 7 11 c3 5 0 13 -6 15 l-13 5 13 1 c17 1 15 28 -4 35 l-15 6 7 -13
c4 -6 -5 -1 -19 12 l-27 24 0 -16 c0 -9 5 -17 10 -17 6 0 10 -9 10 -20 0 -11
5 -20 10 -20 6 0 10 -4 10 -10 0 -10 7 -19 50 -67 11 -13 20 -27 20 -33 0 -5
6 -10 13 -10 6 0 22 -3 35 -6 l22 -6 0 20 c0 11 -13 34 -29 51 -16 17 -25 31
-20 31 5 0 9 7 9 15 l0 15 21 0 21 0 -6 15 c-3 8 -1 26 4 40 5 14 7 32 3 41
l-6 16 -18 -5 -19 -5 6 25 7 25 -29 -3 c-48 -4 -64 0 -64 16 l0 15 -26 6 -25
6 6 16 c8 21 -4 52 -20 52 l-14 0 1 -42z m123 -108 l6 -10 -15 0 c-9 0 -16 5
-16 10 0 6 4 10 9 10 6 0 13 -4 16 -10z m2 -67 c-4 -3 -7 0 -7 7 0 7 3 10 7 7
3 -4 3 -10 0 -14z" />
    <path d="M200 605 c0 -8 7 -15 15 -15 8 0 15 7 15 15 0 8 -7 15 -15 15 -8 0
-15 -7 -15 -15z" />
    <path d="M70 508 c0 -19 13 -33 31 -36 l16 -2 0 15 0 16 -13 -5 -13 -5 6 15 5
14 -16 0 c-9 0 -16 -6 -16 -12z" />
    <path d="M300 487 c0 -8 11 -19 24 -25 l24 -10 10 10 11 11 -17 13 c-22 17
-52 18 -52 1z" />
    <path d="M420 485 c-11 -13 -7 -19 11 -17 4 1 5 -7 2 -18 l-5 -20 -39 -10 -39
-11 0 -44 0 -45 15 0 15 0 0 20 c0 21 16 26 40 10 l14 -9 -19 -21 -20 -22 38
7 38 7 -6 -24 -6 -24 33 1 c18 1 46 2 61 3 l28 2 6 18 c3 9 15 28 27 41 l21
24 -30 -7 c-16 -4 -30 -8 -30 -9 0 -1 -5 -11 -11 -22 -6 -11 -15 -18 -19 -17
-4 2 -11 -2 -15 -8 l-7 -12 -6 17 -7 16 10 -6 c6 -3 10 1 10 9 0 9 -4 16 -10
16 -5 0 -10 9 -10 20 0 11 -4 20 -9 20 -5 0 -7 10 -4 21 l6 22 -27 -7 -28 -7
4 47 3 47 -11 4 c-6 2 -17 -3 -24 -12z" />
    <path d="M488 483 l-18 -4 0 -20 c0 -21 20 -25 38 -7 l12 12 0 -12 c0 -7 7
-12 15 -12 19 0 19 17 1 36 -15 14 -19 15 -48 7z" />
    <path d="M502 418 c6 -18 25 -21 25 -3 0 8 -7 15 -14 15 -8 0 -13 -5 -11 -12z" />
    <path d="M371 296 c-8 -9 -11 -19 -7 -23 9 -9 29 13 24 27 l-4 12 -13 -16z" />
    <path d="M625 300 c3 -5 -9 -17 -27 -26 -18 -9 -37 -22 -41 -28 l-9 -11 -5 13
-5 13 -14 -12 c-19 -15 -18 -33 1 -25 8 3 15 1 15 -5 0 -6 4 -8 9 -4 5 3 12 1
16 -5 8 -14 35 -13 35 1 l0 11 -16 -6 -15 -6 6 11 7 10 20 -7 21 -6 -5 20 -5
19 18 14 c23 16 24 25 3 33 l-15 6 6 -10z" />
    <path d="M400 281 c0 -5 6 -11 14 -14 l14 -6 6 15 5 14 -19 0 c-11 0 -20 -4
-20 -9z" />
    <path d="M230 180 c0 -6 7 -13 15 -16 8 -4 15 -12 15 -20 0 -14 12 -19 22 -8
6 6 -35 54 -46 54 -3 0 -6 -5 -6 -10z" />
    <path d="M470 156 c0 -7 7 -19 15 -26 l15 -12 0 10 c0 18 -12 42 -21 42 -5 0
-9 -6 -9 -14z" />
    <path d="M470 57 l0 -52 30 -1 31 -2 -4 12 c-2 6 -9 11 -15 11 -7 0 -12 3 -12
8 0 4 0 10 0 14 0 4 5 2 12 -5 15 -15 38 -16 38 -1 0 14 -55 69 -69 69 l-11 0
0 -53z" />
  </g>
  <g transform="translate(0.000000,68.000000) scale(0.100000,-0.100000)" fill="#1c1817" stroke="none">
    <path d="M118 556 l-5 -23 20 5 20 5 -7 -11 -7 -12 15 6 c18 7 22 24 6 24 -5
0 -10 7 -10 15 0 24 -27 17 -32 -9z" />
    <path d="M420 533 c1 -16 27 -42 36 -35 4 4 2 -1 -5 -10 l-13 -18 16 0 16 0 0
26 0 25 -10 -6 -10 -6 0 15 c0 9 -7 16 -15 16 -8 0 -15 -3 -15 -7z" />
    <path d="M220 480 c0 -7 3 -10 7 -7 3 4 3 10 0 14 -4 3 -7 0 -7 -7z" />
    <path d="M249 488 c-6 -21 -5 -38 2 -38 5 0 9 9 9 20 0 11 -2 20 -5 20 -3 0
-5 -1 -6 -2z" />
    <path d="M289 481 c0 -3 -2 -15 -3 -26 l-2 -21 23 -2 24 -2 -6 10 c-3 5 -2 18
4 27 l9 18 -24 1 c-13 1 -24 -1 -25 -5z" />
    <path d="M365 470 c3 -5 15 -10 25 -10 10 0 22 5 25 10 l6 10 -31 0 -31 0 6
-10z" />
    <path d="M340 460 c0 -7 3 -10 7 -7 3 4 3 10 0 14 -4 3 -7 0 -7 -7z" />
    <path d="M90 450 c0 -5 5 -10 10 -10 6 0 10 5 10 10 0 6 -4 10 -10 10 -5 0
-10 -4 -10 -10z" />
    <path d="M214 448 l-7 -11 11 7 c12 7 16 16 8 16 -3 0 -8 -5 -12 -12z" />
    <path d="M537 453 c-11 -11 -8 -20 8 -20 8 0 15 6 15 14 0 14 -12 17 -23 6z" />
    <path d="M362 413 l-23 -16 -25 11 -25 12 -5 -15 c-3 -8 -2 -19 2 -26 l7 -12
-21 5 c-12 4 -25 2 -28 -3 -3 -5 3 -9 13 -9 l19 0 17 -29 c9 -15 15 -30 12
-32 -2 -3 7 -6 20 -7 14 -1 25 2 25 6 0 5 18 18 40 30 l40 21 5 -10 c8 -12 27
-1 23 13 -5 14 -58 20 -58 7 0 -5 -6 -9 -14 -9 -8 0 -17 -6 -19 -12 -3 -7 -6
-3 -6 9 -1 12 4 25 11 29 l11 7 -8 -13 -8 -13 13 8 13 8 -17 12 -17 13 17 6
c24 9 36 7 29 -4 l-6 -10 13 2 c14 3 28 18 28 31 0 13 -54 6 -78 -10z m-38
-29 l16 -15 -12 -13 -12 -13 -13 25 c-7 13 -13 26 -13 28 0 9 20 3 34 -12z" />
    <path d="M220 379 c0 -5 5 -7 10 -4 6 3 10 8 10 11 0 2 -4 4 -10 4 -5 0 -10
-5 -10 -11z" />
    <path d="M515 327 l-20 -12 -2 -26 -2 -26 26 5 25 5 -4 -19 -4 -19 -18 3 -18
3 7 -11 c4 -6 13 -9 21 -6 l14 5 0 -12 c0 -6 6 -3 14 8 17 26 17 55 -2 55
l-14 0 6 15 5 15 -11 0 c-7 0 -3 7 8 15 l19 14 -15 0 c-8 0 -24 -5 -35 -12z
m-4 -30 l-12 -12 7 18 c3 10 9 15 12 12 3 -3 0 -11 -7 -18z" />
    <path d="M182 309 c2 -7 10 -15 17 -17 l14 -4 -5 13 c-2 7 -10 15 -17 17 l-13
5 4 -14z" />
    <path d="M248 313 c11 -4 42 -54 42 -67 0 -2 -13 -1 -29 4 -28 8 -41 5 -41
-10 0 -4 11 -5 24 -3 13 3 27 0 30 -6 10 -16 26 -13 26 4 0 8 5 15 11 15 7 0
-3 16 -22 35 -19 19 -38 34 -44 34 -5 0 -4 -3 3 -6z" />
    <path d="M550 314 c0 -2 7 -10 16 -19 l17 -16 7 12 c8 13 30 4 30 -12 0 -6 -4
-7 -10 -4 -5 3 -10 1 -10 -4 0 -14 11 -14 30 0 l15 11 -12 4 c-7 3 -11 11 -9
17 1 7 1 9 -1 4 -3 -4 -10 -4 -16 0 -11 7 -57 12 -57 7z" />
    <path d="M372 290 l-12 -20 10 0 c5 0 10 5 10 10 0 6 7 10 15 10 8 0 15 5 15
10 0 17 -25 11 -38 -10z" />
    <path d="M456 275 c4 -8 7 -15 9 -15 2 0 5 7 9 15 l5 15 -14 0 -14 0 5 -15z" />
    <path d="M210 269 c0 -5 5 -7 10 -4 6 3 10 8 10 11 0 2 -4 4 -10 4 -5 0 -10
-5 -10 -11z" />
    <path d="M405 229 c-10 -15 3 -25 16 -12 l11 11 -10 6 c-6 3 -14 1 -17 -5z" />
    <path d="M555 211 c-3 -6 -12 -8 -20 -5 l-13 6 -12 -21 c-6 -12 -7 -21 -4 -21
17 0 74 25 74 31 0 13 -18 20 -25 10z" />
    <path d="M250 166 c0 -9 5 -16 10 -16 6 0 10 4 10 9 0 6 -4 13 -10 16 l-10 6
0 -15z" />
    <path d="M470 150 c0 -5 5 -10 10 -10 6 0 10 5 10 10 0 6 -4 10 -10 10 -5 0
-10 -4 -10 -10z" />
    <path d="M480 115 c-6 -8 -13 -33 -13 -55 -1 -22 -6 -40 -11 -40 l-10 0 11
-11 12 -12 16 17 17 17 16 -13 16 -13 -8 14 -9 14 14 -5 c8 -3 13 -11 11 -17
-1 -6 5 -11 13 -11 21 0 19 17 -4 41 l-19 21 -11 -7 c-6 -3 -9 -10 -7 -14 3
-4 -5 -7 -17 -8 -12 0 -16 1 -9 4 14 5 37 44 25 42 -19 -3 -33 2 -33 12 0 5 5
7 10 4 l10 -6 0 20 c0 12 -2 21 -4 21 -2 0 -9 -7 -16 -15z m20 -49 c0 -3 -5
-8 -12 -12 l-11 -7 7 11 c7 12 16 16 16 8z" />
  </g>
  <g transform="translate(0.000000,68.000000) scale(0.100000,-0.100000)" fill="#272120" stroke="none">
    <path d="M426 518 c3 -4 -2 -8 -10 -8 -9 0 -16 -7 -16 -16 l0 -15 23 3 22 3 3
21 3 21 -15 0 c-8 0 -13 -4 -10 -9z" />
    <path d="M180 503 c0 -9 3 -13 6 -10 4 3 15 2 25 -3 l18 -10 6 10 c11 18 23
11 18 -10 -3 -11 0 -27 7 -35 14 -17 35 -21 25 -5 -3 5 4 20 15 32 l21 23 12
-15 c7 -8 22 -15 35 -16 l22 -1 0 13 0 13 -45 7 -45 6 -15 -12 -15 -12 0 21 0
21 -15 0 c-8 0 -15 -4 -15 -10 0 -5 -7 -10 -15 -10 -8 0 -15 5 -15 10 0 6 -7
10 -15 10 -8 0 -15 -7 -15 -17z" />
    <path d="M460 502 c0 -11 -5 -22 -10 -24 -6 -2 -13 -18 -15 -36 l-4 -33 19
-16 19 -16 -20 -28 c-11 -16 -33 -36 -49 -46 -35 -20 -38 -33 -10 -33 11 0 20
4 20 9 l0 8 51 -8 c28 -4 58 -14 67 -21 l15 -13 4 13 c3 6 11 12 19 12 9 0 12
4 9 10 l-6 9 -28 -5 -29 -6 -6 11 c-4 6 -12 9 -17 6 -5 -4 -9 -3 -9 0 0 3 17
13 38 22 l37 16 -12 4 c-7 3 -13 13 -13 24 0 10 -6 19 -12 20 -7 0 -3 5 9 11
l23 11 -5 31 c-2 17 -4 35 -4 40 -1 4 -8 6 -16 2 l-15 -5 3 12 2 12 -17 -1
c-10 -1 -16 3 -15 8 1 6 -4 13 -10 15 l-13 5 0 -20z m40 -36 c0 -3 -4 -8 -10
-11 -5 -3 -10 -1 -10 4 0 6 5 11 10 11 6 0 10 -2 10 -4z m40 -43 c0 -1 -8 -7
-18 -12 l-19 -10 0 12 c0 7 9 13 19 13 10 0 18 -1 18 -3z m-53 -29 c-3 -4 -2
-15 4 -26 l11 -20 -19 -14 c-22 -16 -33 -18 -33 -4 0 6 7 10 15 10 l15 0 -4
24 c-4 23 1 36 12 36 3 0 2 -3 -1 -6z" />
    <path d="M180 455 c0 -8 5 -15 10 -15 6 0 10 7 10 15 0 8 -4 15 -10 15 -5 0
-10 -7 -10 -15z" />
    <path d="M207 436 c-4 -10 -5 -21 -2 -24 9 -9 17 6 13 25 l-4 18 -7 -19z" />
    <path d="M377 374 c-3 -4 1 -13 9 -21 17 -18 29 -11 21 12 -7 16 -19 20 -30 9z" />
    <path d="M610 351 c0 -5 6 -11 13 -14 l14 -5 0 14 c0 8 -6 14 -14 14 -7 0 -13
-4 -13 -9z" />
    <path d="M570 337 c0 -8 7 -14 15 -14 8 0 15 6 15 14 0 7 -7 13 -15 13 -8 0
-15 -6 -15 -13z" />
    <path d="M635 290 l-18 -20 17 0 c9 0 19 7 23 15 9 25 -2 27 -22 5z" />
    <path d="M520 189 c-7 -11 -9 -24 -5 -27 10 -10 40 13 44 34 l3 18 -18 -14
-18 -15 8 13 c4 6 5 12 2 12 -3 0 -10 -9 -16 -21z" />
    <path d="M476 163 c-3 -3 -1 -12 5 -19 11 -14 9 -51 -6 -89 l-7 -20 17 23 17
23 19 -20 c10 -11 19 -24 19 -30 0 -7 23 -21 36 -21 8 0 4 21 -6 33 -40 47
-50 62 -56 80 -8 26 -29 48 -38 40z" />
    <path d="M275 10 c3 -5 10 -10 16 -10 5 0 9 5 9 10 0 6 -7 10 -16 10 l-15 0 6
-10z" />
    <path d="M515 10 l-6 -10 21 0 21 0 -6 10 c-3 6 -10 10 -15 10 -5 0 -12 -4
-15 -10z" />
  </g>
  <g transform="translate(0.000000,68.000000) scale(0.100000,-0.100000)" fill="#31241e" stroke="none">
    <path d="M130 631 l-45 -6 -1 -67 c-1 -37 1 -67 5 -66 17 2 32 -3 28 -9 -3 -5
10 -19 28 -33 18 -14 35 -35 38 -47 l4 -21 -19 -5 c-10 -3 -16 -1 -13 3 3 5
-13 28 -36 52 -22 23 -39 39 -37 33 2 -5 17 -33 33 -62 l30 -52 25 -3 25 -3
-2 -12 c-2 -7 2 -13 8 -13 5 0 7 -4 4 -10 -3 -5 0 -10 9 -10 l14 0 -4 58 c-7
82 -7 82 -16 76 -4 -3 -8 -1 -8 5 0 5 -7 16 -15 24 l-14 15 24 6 c14 4 25 11
25 16 0 14 -17 12 -23 -2 -3 -7 -4 3 -2 23 2 43 11 59 31 59 8 0 14 7 14 16
l0 16 -15 -6 -15 -5 0 19 0 20 -17 -2 c-10 0 -38 -4 -63 -7z m-6 -37 l6 -15
-10 6 c-6 3 -10 10 -10 16 0 14 7 11 14 -7z m25 -50 c5 3 11 -1 15 -9 l5 -15
-17 3 c-24 4 -42 16 -42 29 l0 10 15 -12 c8 -6 18 -9 24 -6z" />
    <path d="M530 465 c7 -9 15 -13 17 -11 7 7 -7 26 -19 26 l-10 0 12 -15z" />
    <path d="M370 355 c0 -8 7 -15 15 -15 8 0 15 7 15 15 0 8 -7 15 -15 15 -8 0
-15 -7 -15 -15z" />
    <path d="M652 333 c2 -9 9 -18 16 -21 l12 -4 0 21 0 21 -16 0 -15 0 3 -17z" />
    <path d="M393 300 c-34 -14 -28 -28 9 -24 45 6 68 14 68 25 0 14 -28 11 -33
-3 l-5 -13 -1 13 c-1 14 -7 14 -38 2z" />
    <path d="M627 280 c-15 -9 -30 -20 -33 -23 -7 -7 20 -37 34 -37 12 0 35 45 30
62 l-3 15 -28 -17z" />
    <path d="M528 274 c-8 -7 2 -44 12 -44 5 0 16 -3 25 -6 l17 -7 -4 19 c-2 10
-10 19 -18 19 -8 1 -14 6 -12 13 2 12 -10 16 -20 6z" />
    <path d="M250 156 c0 -9 5 -16 10 -16 6 0 10 4 10 9 0 6 -4 13 -10 16 l-10 6
0 -15z" />
    <path d="M272 108 c2 -12 8 -23 14 -25 l12 -4 -2 26 -1 25 -13 0 -13 0 3 -22z" />
  </g>
  <g transform="translate(0.000000,68.000000) scale(0.100000,-0.100000)" fill="#2a1d18" stroke="none">
    <path d="M124 672 c-12 -8 -44 -70 -44 -85 l0 -9 15 12 c8 7 12 16 9 21 -3 5
2 9 10 9 8 0 20 9 26 19 18 35 10 51 -16 33z" />
    <path d="M173 616 c2 -6 8 -11 13 -11 5 0 15 -4 23 -9 l14 -9 -8 14 -9 14 17
-14 17 -13 0 16 c0 9 -6 16 -12 17 -7 0 -23 2 -36 3 l-23 3 4 -11z" />
    <path d="M110 585 c-7 -9 -10 -18 -6 -22 3 -3 6 -1 6 5 l0 11 15 -5 c8 -4 15
-10 15 -16 0 -5 -5 -6 -12 -2 l-11 7 6 -10 c9 -14 47 -24 47 -13 0 5 -11 20
-24 35 l-23 25 -13 -15z" />
    <path d="M75 533 c-3 -14 -3 -28 0 -31 3 -3 8 4 12 17 l6 23 8 -14 9 -13 0 16
c0 9 -6 19 -14 22 l-14 6 -7 -26z" />
    <path d="M160 519 c-14 -4 -19 -7 -12 -8 l13 -1 -7 -12 -8 -13 15 12 c8 6 18
11 22 11 13 0 19 9 10 14 -4 3 -19 2 -33 -3z" />
    <path d="M100 499 c0 -5 5 -7 10 -4 6 3 10 8 10 11 0 2 -4 4 -10 4 -5 0 -10
-5 -10 -11z" />
    <path d="M495 490 c3 -5 10 -10 16 -10 5 0 9 5 9 10 0 6 -7 10 -16 10 l-15 0
6 -10z" />
    <path d="M120 480 l-15 -10 18 0 c9 0 17 5 17 10 0 12 -1 12 -20 0z" />
    <path d="M180 469 l0 -20 10 6 c6 3 10 13 10 21 0 8 -4 14 -10 14 -5 0 -10 -9
-10 -21z" />
    <path d="M93 439 c2 -8 9 -13 15 -12 l11 3 -5 -15 c-8 -20 14 -45 32 -38 l16
6 -4 -19 -3 -19 28 1 c15 1 27 -3 27 -8 0 -6 -7 -8 -15 -5 l-14 6 10 -23 c6
-12 17 -23 25 -23 l14 0 -1 51 c0 28 -3 45 -6 38 -2 -6 -9 -10 -13 -7 -5 3 -6
13 -3 22 l6 16 -10 -6 -11 -7 -20 27 c-11 16 -23 25 -27 21 -4 -4 3 -21 15
-37 12 -17 17 -31 11 -31 -5 0 -15 8 -20 18 -6 9 -11 13 -11 7 0 -5 -6 1 -13
14 -6 14 -18 26 -26 29 l-13 5 5 -14z m124 -126 c-4 -3 -10 -3 -14 0 -3 4 0 7
7 7 7 0 10 -3 7 -7z" />
    <path d="M370 355 l0 -15 18 1 17 1 -13 5 c-6 2 -10 9 -6 14 3 5 0 9 -5 9 -6
0 -11 -7 -11 -15z" />
    <path d="M647 303 c3 -7 9 -13 14 -13 5 0 9 6 9 13 0 8 -6 14 -14 14 l-14 0 5
-14z" />
    <path d="M395 280 c3 -5 8 -10 11 -10 3 0 2 5 -1 10 -3 6 -8 10 -11 10 -3 0
-2 -4 1 -10z" />
    <path d="M428 283 c7 -3 16 -2 19 1 4 3 -2 6 -13 5 l-19 -1 13 -5z" />
    <path d="M620 271 c0 -5 7 -11 14 -14 l15 -6 -6 15 c-6 15 -23 19 -23 5z" />
    <path d="M595 259 c-4 -6 -13 -8 -20 -5 l-12 4 0 -25 0 -25 23 27 c13 16 24
30 24 32 0 7 -9 3 -15 -8z" />
    <path d="M530 245 c0 -8 2 -15 4 -15 2 0 6 7 10 15 3 8 1 15 -4 15 -6 0 -10
-7 -10 -15z" />
    <path d="M600 225 l-23 -25 16 0 c16 0 30 15 33 38 1 6 1 12 0 12 -1 0 -13
-11 -26 -25z" />
    <path d="M270 127 c0 -7 6 -22 14 -33 l14 -19 9 8 8 9 -19 10 -18 10 12 8 12
7 -16 6 -16 6 0 -12z" />
  </g>
  <g transform="translate(0.000000,68.000000) scale(0.100000,-0.100000)" fill="#474243" stroke="none">
    <path d="M80 614 l0 -16 15 12 c8 7 15 14 15 16 0 2 -7 4 -15 4 -8 0 -15 -7
-15 -16z" />
    <path d="M200 575 c0 -8 -4 -15 -10 -15 -16 0 -12 -40 5 -46 8 -4 26 -7 40 -8
l25 -1 0 -17 0 -18 15 0 c8 0 15 7 15 15 l0 15 25 0 c14 0 25 -4 25 -10 0 -5
7 -10 15 -10 8 0 15 7 15 15 0 8 -7 15 -15 15 -8 0 -15 4 -15 9 0 5 -16 12
-35 15 -19 4 -35 11 -35 16 0 6 -7 10 -15 10 -9 0 -18 7 -21 15 -4 8 -12 15
-20 15 -8 0 -14 -7 -14 -15z" />
    <path d="M437 525 c3 -9 8 -13 11 -11 3 3 11 1 19 -5 l13 -11 0 9 c0 13 -22
33 -37 33 l-12 0 6 -15z" />
    <path d="M390 504 c0 -17 22 -14 28 4 2 7 -3 12 -12 12 -9 0 -16 -7 -16 -16z" />
    <path d="M420 490 c-8 -5 -11 -12 -7 -16 4 -4 13 -2 19 4 6 6 10 14 7 16 -2 3
-11 1 -19 -4z" />
    <path d="M90 441 c0 -5 5 -13 10 -16 6 -3 10 -2 10 4 0 5 -4 13 -10 16 -5 3
-10 2 -10 -4z" />
    <path d="M570 426 c0 -9 7 -16 16 -16 9 0 14 5 12 12 -6 18 -28 21 -28 4z" />
    <path d="M498 394 c-16 -8 -28 -19 -28 -25 l0 -11 25 6 26 7 -7 -25 -6 -25 29
8 c15 4 29 14 31 22 2 13 -29 60 -39 59 -2 -1 -16 -8 -31 -16z" />
    <path d="M620 361 c0 -5 7 -12 16 -15 22 -9 24 -8 24 9 l0 15 -20 0 c-11 0
-20 -4 -20 -9z" />
    <path d="M605 221 c-6 -5 -19 -11 -30 -13 -11 -1 -25 -10 -32 -18 -6 -8 -19
-15 -29 -15 -9 0 -19 -6 -21 -12 l-5 -13 16 0 16 0 -6 -30 -6 -30 16 0 16 0 0
-19 c0 -11 6 -26 14 -34 l15 -14 -12 -12 -11 -11 58 0 57 0 -6 21 -7 21 11 7
10 7 -6 23 -6 22 -23 -5 -24 -6 0 14 c0 8 7 16 15 20 19 7 20 41 2 58 -8 7
-12 20 -9 30 5 20 1 23 -13 9z m-26 -101 l0 -15 -9 20 c-12 27 -12 43 0 25 5
-8 9 -22 9 -30z m31 -60 c0 -5 -4 -10 -10 -10 -5 0 -10 5 -10 10 0 6 5 10 10
10 6 0 10 -4 10 -10z" />
  </g>
  <g transform="translate(0.000000,68.000000) scale(0.100000,-0.100000)" fill="#3e3b3b" stroke="none">
    <path d="M240 554 l0 -15 11 7 11 6 -4 -19 c-2 -11 4 -28 12 -38 8 -11 10 -16
3 -12 l-12 7 -7 -11 -7 -12 24 8 c13 4 36 8 52 9 28 1 31 4 21 31 -6 14 -76
55 -96 55 -4 0 -8 -7 -8 -16z m50 -28 c0 -3 -5 -8 -12 -12 l-11 -7 7 11 c7 12
16 16 16 8z m37 -12 c-3 -3 -12 -4 -19 -1 l-13 5 19 1 c11 1 17 -2 13 -5z" />
    <path d="M198 528 c-6 -16 18 -41 34 -36 6 2 12 11 14 20 l2 17 -14 -6 c-8 -3
-14 0 -14 6 0 15 -17 14 -22 -1z" />
    <path d="M404 515 l6 -16 -20 -7 -19 -7 8 -14 c10 -16 31 -6 31 15 0 8 4 14 8
14 5 0 9 7 9 15 0 8 -7 15 -15 15 l-14 0 6 -15z" />
    <path d="M540 461 c0 -5 5 -13 10 -16 6 -3 10 -2 10 4 0 5 -4 13 -10 16 -5 3
-10 2 -10 -4z" />
    <path d="M492 384 c-6 -10 -14 -18 -19 -16 -4 2 -9 -2 -12 -9 l-4 -12 17 6 c9
4 23 10 31 13 l15 6 0 -10 c0 -6 -4 -14 -10 -17 -5 -3 -10 -10 -10 -16 0 -5 5
-9 10 -9 6 0 10 7 10 15 l0 16 19 -11 c25 -13 31 -13 31 0 0 6 -6 10 -14 10
-8 0 -18 4 -21 10 l-6 10 15 -6 16 -6 0 10 c0 6 -9 9 -20 7 l-20 -4 -9 16 -8
16 -11 -19z" />
    <path d="M550 285 l-12 -15 10 0 c12 0 26 19 19 26 -2 2 -10 -2 -17 -11z" />
    <path d="M226 196 c3 -9 11 -16 16 -16 13 0 5 23 -10 28 l-12 4 6 -16z" />
    <path d="M592 198 c6 -18 28 -21 28 -4 0 9 -7 16 -16 16 -9 0 -14 -5 -12 -12z" />
    <path d="M504 175 l-18 -12 18 -47 c10 -25 21 -46 25 -46 5 0 12 -10 18 -22
l9 -22 8 12 7 12 -10 0 c-6 0 -11 7 -11 15 l0 14 13 -5 c7 -2 14 -15 15 -28
l2 -23 -23 -11 -22 -12 20 3 c11 1 28 11 38 22 10 11 16 14 12 8 -3 -7 -1 -13
4 -13 6 0 11 10 11 23 l0 22 9 -15 c6 -8 7 -18 4 -23 -5 -9 14 -27 30 -27 8 0
9 52 1 74 -3 9 -9 14 -13 12 -4 -3 -5 11 -3 30 l4 34 -10 0 c-6 0 -14 -5 -18
-11 l-6 -11 -12 24 c-6 12 -18 23 -26 24 -8 1 -17 2 -20 3 -19 9 -41 7 -56 -4z
m36 -10 l12 -15 -10 0 c-5 0 -12 7 -16 15 -3 8 -4 15 -2 15 2 0 9 -7 16 -15z
m57 -12 c-4 -3 -10 -3 -14 0 -3 4 0 7 7 7 7 0 10 -3 7 -7z m-44 -39 c-6 -16
-33 -19 -33 -4 0 6 5 10 11 10 5 0 7 4 4 10 l-6 10 15 -6 15 -6 -6 -14z m49
-26 c-6 -6 -16 -7 -22 -3 l-12 8 13 8 c7 4 17 5 22 2 l9 -5 -10 -10z" />
    <path d="M267 33 c7 -17 23 -17 23 0 0 8 -6 14 -14 14 l-14 0 5 -14z" />
  </g>
  <g transform="translate(0.000000,68.000000) scale(0.100000,-0.100000)" fill="#100d0c" stroke="none">
    <path d="M440 515 l-12 -15 10 0 c5 0 12 7 16 15 3 8 4 15 2 15 -2 0 -9 -7
-16 -15z" />
    <path d="M70 491 c0 -12 5 -21 10 -21 6 0 10 6 10 14 0 8 -4 18 -10 21 l-10 6
0 -20z" />
    <path d="M392 493 l6 -22 -12 -5 -11 -4 11 -1 c6 -1 17 5 23 13 l11 13 -17 14
-16 14 5 -22z" />
    <path d="M550 439 c0 -5 -4 -7 -10 -4 l-10 6 6 -16 c4 -9 12 -14 18 -12 15 5
21 37 7 37 -6 0 -11 -5 -11 -11z" />
    <path d="M150 354 c0 -3 7 -12 15 -20 8 -8 24 -41 36 -74 12 -33 25 -60 30
-60 5 0 6 -6 4 -12 -6 -16 11 -45 21 -36 8 9 -26 98 -38 98 -5 0 -7 4 -4 9 9
13 -12 63 -34 83 -20 18 -30 23 -30 12z" />
    <path d="M639 343 l-14 -17 14 9 14 8 -5 -15 -6 -15 11 0 c7 0 13 11 13 24 2
27 -8 30 -27 6z" />
    <path d="M565 330 c3 -5 16 -15 28 -21 l22 -11 -22 21 c-23 22 -39 28 -28 11z" />
    <path d="M566 291 c-4 -5 -2 -12 3 -15 5 -4 12 -2 15 3 4 5 2 12 -3 15 -5 4
-12 2 -15 -3z" />
    <path d="M524 206 l-17 -13 10 -6 11 -7 6 17 7 17 9 -14 10 -15 0 13 0 13 13
-7 12 -7 -8 8 c-12 14 -34 14 -53 1z" />
    <path d="M495 180 c3 -5 8 -10 11 -10 3 0 2 5 -1 10 -3 6 -8 10 -11 10 -3 0
-2 -4 1 -10z" />
    <path d="M274 138 l-7 -11 11 7 c12 7 16 16 8 16 -3 0 -8 -5 -12 -12z" />
    <path d="M334 68 c3 -29 5 -56 5 -60 1 -5 18 -8 39 -7 l37 0 -22 9 c-13 5 -23
16 -23 24 0 8 -6 17 -12 19 l-13 5 13 10 14 9 -13 22 c-8 11 -17 21 -22 21 -4
0 -6 -24 -3 -52z" />
    <path d="M295 90 c-3 -5 -1 -10 4 -10 6 0 11 5 11 10 0 6 -2 10 -4 10 -3 0 -8
-4 -11 -10z" />
    <path d="M276 34 c-3 -9 -6 -17 -6 -19 0 -7 32 -15 41 -10 l9 6 -13 19 c-14
24 -23 25 -31 4z" />
    <path d="M520 12 c0 -5 7 -9 15 -9 8 0 12 4 9 9 -3 4 -9 8 -15 8 -5 0 -9 -4
-9 -8z" />
  </g>
  <g transform="translate(0.000000,68.000000) scale(0.100000,-0.100000)" fill="#2f2929" stroke="none">
    <path d="M260 563 c0 -13 14 -28 28 -31 l14 -3 -4 18 c-3 17 -38 32 -38 16z" />
    <path d="M200 505 c14 -17 36 -20 45 -5 l6 10 -15 -6 -16 -6 0 11 c0 6 -7 11
-16 11 l-16 0 12 -15z" />
    <path d="M430 499 c0 -5 5 -7 10 -4 6 3 10 8 10 11 0 2 -4 4 -10 4 -5 0 -10
-5 -10 -11z" />
    <path d="M340 489 c0 -5 5 -9 10 -9 6 0 12 0 15 0 3 0 6 3 8 7 1 3 -6 7 -15 9
-10 1 -18 -2 -18 -7z" />
    <path d="M268 483 c-10 -2 -18 -9 -18 -14 0 -14 26 -11 40 6 13 15 9 16 -22 8z" />
    <path d="M452 467 c-14 -27 -12 -65 4 -71 6 -2 29 6 50 20 l39 23 -33 1 -33 0
6 -10 c9 -14 -8 -13 -23 2 l-11 11 10 19 c6 11 9 22 6 24 -2 2 -9 -6 -15 -19z" />
    <path d="M515 480 c3 -5 11 -10 16 -10 6 0 7 5 4 10 -3 6 -11 10 -16 10 -6 0
-7 -4 -4 -10z" />
    <path d="M553 446 c3 -7 0 -19 -6 -26 l-12 -12 20 4 c25 4 31 33 9 42 l-16 6
5 -14z" />
    <path d="M482 384 c-23 -16 -29 -34 -11 -34 5 0 8 4 4 9 -3 5 -1 12 5 16 5 3
10 2 10 -4 l0 -10 17 6 17 7 -12 4 c-7 2 -10 8 -6 13 8 13 2 11 -24 -7z" />
    <path d="M530 384 l0 -15 10 6 c6 3 10 10 10 16 0 5 -4 9 -10 9 -5 0 -10 -7
-10 -16z" />
    <path d="M660 345 c7 -9 15 -13 17 -11 7 7 -7 26 -19 26 l-10 0 12 -15z" />
    <path d="M560 339 l0 -11 15 6 c17 6 21 -9 5 -19 -5 -3 -10 -11 -10 -18 0 -6
10 -1 23 11 l22 23 -15 9 c-20 13 -40 12 -40 -1z" />
    <path d="M170 331 c0 -5 5 -13 10 -16 6 -3 10 -2 10 4 0 5 -4 13 -10 16 -5 3
-10 2 -10 -4z" />
    <path d="M490 330 c-20 -12 -10 -19 14 -10 l20 7 -10 6 c-6 3 -16 2 -24 -3z" />
    <path d="M440 306 c0 -2 7 -6 15 -10 8 -3 15 -1 15 4 0 6 -7 10 -15 10 -8 0
-15 -2 -15 -4z" />
    <path d="M570 200 c0 -5 5 -10 11 -10 5 0 7 5 4 10 -3 6 -8 10 -11 10 -2 0 -4
-4 -4 -10z" />
    <path d="M607 193 c-11 -11 -8 -20 8 -20 8 0 15 6 15 14 0 14 -12 17 -23 6z" />
    <path d="M526 178 c4 -5 0 -9 -7 -7 -28 3 -39 -1 -39 -16 0 -8 4 -15 10 -15 6
0 9 -3 8 -7 -2 -12 24 -63 33 -63 4 0 2 12 -6 28 -7 15 -16 38 -20 51 l-7 24
10 -7 c12 -7 42 3 42 13 0 4 -7 8 -15 8 -8 0 -12 -4 -9 -9z" />
    <path d="M562 129 c2 -6 8 -10 13 -10 5 0 11 4 13 10 2 6 -4 11 -13 11 -9 0
-15 -5 -13 -11z" />
    <path d="M600 96 c0 -8 4 -17 9 -20 10 -7 23 19 14 28 -11 11 -23 6 -23 -8z" />
    <path d="M545 50 c3 -5 8 -10 11 -10 3 0 2 5 -1 10 -3 6 -8 10 -11 10 -3 0 -2
-4 1 -10z" />
    <path d="M383 3 c4 -3 10 -3 14 0 3 4 0 7 -7 7 -7 0 -10 -3 -7 -7z" />
  </g>
  <g transform="translate(0.000000,68.000000) scale(0.100000,-0.100000)" fill="#373231" stroke="none">
    <path d="M230 599 c0 -5 -4 -7 -10 -4 -5 3 -10 1 -10 -4 0 -6 -7 -11 -16 -11
-8 0 -13 -4 -9 -9 3 -6 -3 -14 -12 -20 l-18 -10 20 -15 c11 -8 27 -15 35 -15
l15 1 -17 5 c-19 5 -25 33 -8 33 6 0 10 8 10 18 l1 17 13 -18 c8 -10 20 -16
27 -15 8 2 14 -4 14 -12 0 -8 -5 -14 -11 -13 -6 1 -11 -5 -11 -12 l0 -15 14
11 13 11 26 -17 26 -17 11 11 11 11 -24 0 -25 1 18 10 18 11 -40 26 c-23 15
-41 32 -41 39 0 7 -4 13 -10 13 -5 0 -10 -5 -10 -11z m75 -61 c5 4 5 1 1 -5
-11 -20 -23 -15 -29 10 l-6 22 13 -17 c7 -10 17 -14 21 -10z" />
    <path d="M470 511 c0 -11 31 -24 39 -16 3 3 -1 10 -9 15 -19 12 -30 12 -30 1z" />
    <path d="M425 500 c3 -5 8 -10 11 -10 2 0 4 5 4 10 0 6 -5 10 -11 10 -5 0 -7
-4 -4 -10z" />
    <path d="M274 492 c3 -5 0 -12 -6 -15 -7 -2 -10 -7 -7 -11 3 -4 12 0 18 8 l12
14 -12 8 -12 7 7 -11z" />
    <path d="M531 411 l-13 -8 11 -7 c6 -4 8 -12 5 -18 l-7 -11 12 7 c6 4 9 12 6
17 -4 5 -1 9 4 9 6 0 11 5 11 10 0 12 -10 13 -29 1z" />
    <path d="M512 348 c-7 -7 -12 -17 -12 -22 0 -6 5 -3 11 7 l10 17 11 -6 11 -7
-7 11 c-9 15 -9 15 -24 0z" />
    <path d="M575 350 c-33 -8 -32 -10 7 -15 l27 -4 12 15 11 14 -13 -1 c-8 -1
-27 -5 -44 -9z" />
    <path d="M568 302 c-7 -11 -20 -21 -28 -25 l-15 -5 16 -1 c8 -1 25 10 37 24
12 14 18 25 13 25 -6 0 -16 -8 -23 -18z" />
    <path d="M656 301 c-4 -7 -5 -15 -2 -18 9 -9 19 4 14 18 l-4 13 -8 -13z" />
    <path d="M196 277 c3 -10 9 -15 12 -12 3 3 0 11 -7 18 l-12 12 7 -18z" />
    <path d="M599 205 c-1 -3 -2 -10 -3 -16 0 -6 -10 -17 -20 -25 -20 -14 -29 -51
-15 -59 3 -3 13 2 20 11 l13 16 -13 7 -13 8 22 16 22 15 -8 14 -8 13 17 -14
17 -13 0 16 c0 9 -7 16 -15 16 -8 0 -16 -2 -16 -5z m-19 -79 c0 -3 -5 -8 -12
-12 l-11 -7 7 11 c7 12 16 16 16 8z" />
    <path d="M544 188 l-7 -11 11 7 c12 7 16 16 8 16 -3 0 -8 -5 -12 -12z" />
    <path d="M505 147 l-8 -18 11 -11 c14 -14 21 3 12 27 l-8 20 -7 -18z" />
    <path d="M613 123 c-19 -7 -16 -38 5 -54 l17 -14 -14 18 -13 17 12 15 c14 17
11 24 -7 18z" />
    <path d="M625 90 c3 -5 8 -10 11 -10 3 0 2 5 -1 10 -3 6 -8 10 -11 10 -3 0 -2
-4 1 -10z" />
    <path d="M525 80 c3 -5 8 -10 11 -10 3 0 2 5 -1 10 -3 6 -8 10 -11 10 -3 0 -2
-4 1 -10z" />
    <path d="M555 50 c-3 -5 -1 -10 4 -10 6 0 11 5 11 10 0 6 -2 10 -4 10 -3 0 -8
-4 -11 -10z" />
    <path d="M637 36 c-4 -11 -5 -21 -2 -24 3 -3 5 -2 5 3 0 4 7 2 15 -5 l15 -12
0 21 c0 12 -4 20 -9 17 -5 -4 -11 -1 -13 6 l-4 12 -7 -18z" />
    <path d="M577 23 c-4 -3 -7 -11 -7 -17 l0 -10 12 12 c6 6 9 14 7 17 -3 3 -9 2
-12 -2z" />
  </g>
  <g transform="translate(0.000000,68.000000) scale(0.100000,-0.100000)" fill="#3a2b24" stroke="none">
    <path d="M124 651 c1 -9 -5 -15 -11 -13 -7 1 -13 -2 -13 -8 0 -11 4 -12 50
-14 32 -1 40 11 15 20 -8 4 -15 12 -15 18 0 7 -6 13 -14 13 -7 0 -13 -7 -12
-16z" />
    <path d="M200 605 l0 -26 -21 11 -21 12 4 -18 3 -17 23 -2 c12 -1 23 1 23 4 7
34 6 61 -2 61 -5 0 -9 -11 -9 -25z" />
    <path d="M70 575 c0 -14 5 -25 10 -25 6 0 10 11 10 25 0 14 -4 25 -10 25 -5 0
-10 -11 -10 -25z" />
    <path d="M230 585 c-7 -8 -11 -15 -9 -16 57 -10 71 -5 47 19 -16 16 -23 15
-38 -3z" />
    <path d="M156 545 l6 -14 14 6 c20 7 17 18 -5 20 l-20 2 5 -14z" />
    <path d="M70 524 l0 -15 10 6 c6 3 10 10 10 16 0 5 -4 9 -10 9 -5 0 -10 -7
-10 -16z" />
    <path d="M110 510 l-15 -10 12 0 c6 0 15 5 18 10 8 12 4 12 -15 0z" />
    <path d="M370 495 l0 -15 20 0 19 0 -5 15 c-4 8 -12 15 -20 15 -8 0 -14 -7
-14 -15z" />
    <path d="M135 490 c-8 -13 26 -82 43 -88 l12 -4 0 46 c0 25 -4 46 -9 46 -5 0
-16 3 -24 6 -8 3 -18 0 -22 -6z m45 -47 c0 -3 -9 2 -20 12 -11 10 -20 22 -20
27 0 4 9 -1 20 -12 11 -11 20 -23 20 -27z" />
    <path d="M70 481 c0 -5 5 -13 10 -16 6 -3 10 -2 10 4 0 5 -4 13 -10 16 -5 3
-10 2 -10 -4z" />
    <path d="M201 404 l1 -19 5 13 c3 7 2 16 -1 19 -3 4 -6 -2 -5 -13z" />
    <path d="M383 363 c4 -3 10 -3 14 0 3 4 0 7 -7 7 -7 0 -10 -3 -7 -7z" />
    <path d="M660 306 c-5 -15 -10 -32 -10 -37 0 -5 -7 -12 -15 -15 -8 -4 -12 -10
-9 -15 8 -14 24 -10 24 6 0 8 4 15 9 15 9 0 24 60 16 68 -2 3 -9 -7 -15 -22z" />
    <path d="M378 283 c7 -3 16 -2 19 1 4 3 -2 6 -13 5 l-19 -1 13 -5z" />
    <path d="M245 155 c4 -11 10 -30 12 -42 3 -11 13 -23 23 -26 l19 -5 -12 27
c-6 14 -19 35 -30 46 l-20 20 8 -20z" />
  </g>
  <g transform="translate(0.000000,68.000000) scale(0.100000,-0.100000)" fill="#4f4a4a" stroke="none">
    <path d="M140 660 l0 -20 28 -6 c15 -4 33 -11 40 -17 l12 -9 0 9 c0 13 -54 63
-68 63 -7 0 -12 -9 -12 -20z" />
    <path d="M67 573 c-11 -11 -8 -23 6 -23 8 0 14 7 14 15 0 16 -9 19 -20 8z" />
    <path d="M200 558 c0 -4 4 -8 9 -8 6 0 12 4 15 8 3 5 -1 9 -9 9 -8 0 -15 -4
-15 -9z" />
    <path d="M330 520 l0 -11 -26 3 c-15 2 -29 -2 -31 -7 l-3 -11 41 4 41 4 8 -12
8 -13 28 27 29 26 -13 0 c-7 0 -23 -5 -35 -11 l-21 -12 -4 12 c-5 14 -22 15
-22 1z" />
    <path d="M60 501 c0 -6 5 -13 10 -16 l10 -6 0 15 c0 9 -4 16 -10 16 -5 0 -10
-4 -10 -9z" />
    <path d="M505 490 c3 -5 10 -10 16 -10 5 0 9 5 9 10 0 6 -7 10 -16 10 l-15 0
6 -10z" />
    <path d="M552 420 l-23 -19 16 -25 16 -24 -18 -5 c-10 -3 1 -5 24 -6 23 0 45
4 48 9 3 6 0 10 -8 10 -8 0 -17 7 -21 15 l-5 15 14 0 c8 0 15 7 15 15 0 8 -6
15 -14 15 -8 0 -16 4 -18 9 -1 5 -13 1 -26 -9z" />
    <path d="M110 401 c0 -5 5 -13 10 -16 6 -3 10 -2 10 4 0 5 -4 13 -10 16 -5 3
-10 2 -10 -4z" />
    <path d="M490 380 c0 -7 3 -10 7 -7 3 4 3 10 0 14 -4 3 -7 0 -7 -7z" />
    <path d="M645 360 c3 -5 10 -10 16 -10 5 0 9 5 9 10 0 6 -7 10 -16 10 l-15 0
6 -10z" />
    <path d="M670 325 c0 -8 5 -15 10 -15 6 0 10 7 10 15 0 8 -4 15 -10 15 -5 0
-10 -7 -10 -15z" />
    <path d="M623 233 c-18 -7 -16 -23 2 -23 8 0 15 7 15 15 0 8 -1 15 -2 14 -2 0
-9 -3 -15 -6z" />
    <path d="M570 193 c0 -5 5 -15 10 -23 l9 -15 13 13 12 12 -13 0 c-7 0 -9 5 -6
10 l6 10 -15 0 c-9 0 -16 -3 -16 -7z" />
    <path d="M510 152 c0 -10 11 -28 25 -40 l25 -22 0 -24 c0 -14 5 -28 11 -31 6
-4 8 -14 5 -22 l-6 -14 10 6 c6 3 10 10 10 15 0 5 16 24 35 43 19 19 35 39 35
46 0 22 -16 11 -27 -19 l-11 -30 -26 0 -25 0 5 15 6 14 -26 24 c-14 13 -26 32
-26 41 0 9 -4 16 -10 16 -5 0 -10 -8 -10 -18z" />
    <path d="M630 151 c0 -5 5 -13 10 -16 6 -3 10 -2 10 4 0 5 -4 13 -10 16 -5 3
-10 2 -10 -4z" />
    <path d="M251 128 c1 -23 15 -52 20 -42 9 17 4 47 -8 51 -7 3 -13 -1 -12 -9z" />
    <path d="M662 20 c0 -14 2 -19 5 -12 2 6 2 18 0 25 -3 6 -5 1 -5 -13z" />
    <path d="M600 21 c0 -13 12 -20 26 -14 20 8 17 19 -6 20 -11 1 -20 -2 -20 -6z" />
  </g>
  <g transform="translate(0.000000,68.000000) scale(0.100000,-0.100000)" fill="#575253" stroke="none">
    <path d="M285 550 c3 -5 11 -10 16 -10 6 0 7 5 4 10 -3 6 -11 10 -16 10 -6 0
-7 -4 -4 -10z" />
    <path d="M341 516 c-7 -8 -8 -16 -4 -19 9 -6 73 19 73 28 0 11 -58 4 -69 -9z" />
    <path d="M430 502 c0 -7 -10 -12 -22 -12 l-22 0 12 -12 12 -12 17 17 c9 9 14
20 10 23 -4 4 -7 2 -7 -4z" />
    <path d="M495 500 c3 -5 11 -10 16 -10 6 0 7 5 4 10 -3 6 -11 10 -16 10 -6 0
-7 -4 -4 -10z" />
    <path d="M566 436 c3 -8 0 -17 -6 -21 l-11 -7 13 -16 13 -16 -12 8 -13 7 0
-16 0 -17 15 6 c8 3 15 1 15 -4 0 -5 -10 -11 -22 -13 l-23 -4 27 -2 c34 -1 78
15 78 29 0 6 -7 18 -15 26 l-15 15 -11 -7 -12 -7 7 12 8 12 -12 14 c-16 19
-31 19 -24 1z" />
    <path d="M639 246 c-6 -13 -25 -31 -42 -40 l-32 -17 28 6 27 5 0 -19 c0 -36
16 -31 17 5 1 20 8 43 17 53 18 20 20 31 6 31 -6 0 -15 -11 -21 -24z" />
    <path d="M206 247 c3 -10 9 -15 12 -12 3 3 0 11 -7 18 l-12 12 7 -18z" />
    <path d="M510 156 c0 -8 5 -18 10 -21 6 -3 10 1 10 9 0 8 -4 18 -10 21 -5 3
-10 -1 -10 -9z" />
    <path d="M540 116 c0 -2 8 -10 18 -17 l17 -14 -14 18 c-13 16 -21 21 -21 13z" />
    <path d="M645 101 c-3 -5 -1 -12 5 -16 l10 -6 0 15 c0 18 -6 21 -15 7z" />
    <path d="M560 60 c0 -7 3 -10 7 -7 3 4 3 10 0 14 -4 3 -7 0 -7 -7z" />
    <path d="M582 30 c0 -14 2 -19 5 -12 2 6 2 18 0 25 -3 6 -5 1 -5 -13z" />
    <path d="M660 40 c0 -7 3 -10 7 -7 3 4 3 10 0 14 -4 3 -7 0 -7 -7z" />
    <path d="M600 16 c0 -9 5 -16 10 -16 6 0 10 4 10 9 0 6 -4 13 -10 16 l-10 6 0
-15z" />
  </g>
  <g transform="translate(0.000000,68.000000) scale(0.100000,-0.100000)" fill="#45322b" stroke="none">
    <path d="M134 663 l1 -18 -12 2 c-7 2 -10 -3 -8 -10 6 -13 59 -17 71 -4 4 4 2
7 -5 7 -7 0 -9 4 -6 10 l6 10 -17 -7 -17 -6 6 16 6 17 -13 0 -14 0 2 -17z" />
    <path d="M206 614 c-9 -24 -7 -46 3 -39 5 3 12 -4 16 -15 3 -11 11 -20 16 -20
16 0 10 18 -13 41 l-23 22 13 4 c14 5 17 23 3 23 -5 0 -12 -7 -15 -16z" />
    <path d="M77 613 c-10 -9 -9 -43 1 -43 4 0 9 11 10 25 2 26 0 29 -11 18z" />
    <path d="M67 553 c-4 -3 -7 -20 -7 -37 l0 -30 9 10 c5 5 13 21 16 37 l7 27 -9
0 c-5 0 -13 -3 -16 -7z" />
    <path d="M160 546 c0 -2 7 -6 15 -10 8 -3 15 -1 15 4 0 6 -7 10 -15 10 -8 0
-15 -2 -15 -4z" />
    <path d="M363 495 c0 -8 6 -15 13 -15 l13 0 -5 15 c-4 8 -9 15 -13 15 -4 0 -8
-7 -8 -15z" />
    <path d="M173 473 c4 -3 10 -3 14 0 3 4 0 7 -7 7 -7 0 -10 -3 -7 -7z" />
    <path d="M149 443 c12 -24 31 -39 31 -25 0 5 -10 17 -21 28 l-22 19 12 -22z" />
    <path d="M666 311 c-4 -7 -5 -15 -2 -18 9 -9 19 4 14 18 l-4 13 -8 -13z" />
    <path d="M651 266 c-8 -9 -11 -19 -7 -23 9 -9 29 13 24 27 l-4 12 -13 -16z" />
    <path d="M610 220 c0 -5 5 -10 11 -10 5 0 7 5 4 10 -3 6 -8 10 -11 10 -2 0 -4
-4 -4 -10z" />
    <path d="M270 120 c0 -7 3 -10 7 -7 3 4 3 10 0 14 -4 3 -7 0 -7 -7z" />
    <path d="M264 88 l-7 -11 11 7 c12 7 16 16 8 16 -3 0 -8 -5 -12 -12z" />
  </g>
  <g transform="translate(0.000000,68.000000) scale(0.100000,-0.100000)" fill="#645c5b" stroke="none">
    <path d="M138 673 c7 -3 16 -2 19 1 4 3 -2 6 -13 5 l-19 -1 13 -5z" />
    <path d="M60 556 c0 -9 5 -16 10 -16 6 0 10 4 10 9 0 6 -4 13 -10 16 l-10 6 0
-15z" />
    <path d="M410 530 c0 -5 4 -10 9 -10 6 0 13 5 16 10 l6 10 -15 0 c-9 0 -16 -4
-16 -10z" />
    <path d="M343 512 l1 -19 18 5 c22 5 19 26 -5 30 l-16 3 2 -19z" />
    <path d="M405 480 c-3 -5 -1 -10 4 -10 6 0 11 5 11 10 0 6 -2 10 -4 10 -3 0
-8 -4 -11 -10z" />
    <path d="M590 422 c0 -6 -8 -8 -19 -5 -10 3 -22 0 -25 -6 l-7 -11 20 0 c12 0
20 -3 19 -7 0 -5 4 -19 10 -33 6 -14 11 -20 11 -15 1 6 11 11 22 12 41 3 39
25 -2 27 -12 0 -24 7 -27 15 l-5 14 12 -7 c6 -4 11 -3 11 3 0 5 -4 13 -10 16
-5 3 -10 2 -10 -3z" />
    <path d="M150 352 c0 -12 19 -26 26 -19 2 2 -2 10 -11 17 l-15 12 0 -10z" />
    <path d="M670 341 c0 -5 5 -13 10 -16 6 -3 10 -2 10 4 0 5 -4 13 -10 16 -5 3
-10 2 -10 -4z" />
    <path d="M660 285 c0 -8 7 -15 15 -15 8 0 15 7 15 15 0 8 -7 15 -15 15 -8 0
-15 -7 -15 -15z" />
    <path d="M216 217 c3 -10 9 -15 12 -12 3 3 0 11 -7 18 l-12 12 7 -18z" />
    <path d="M616 217 l-19 -14 18 -7 c22 -8 28 -3 23 19 l-3 16 -19 -14z" />
    <path d="M625 170 c3 -5 8 -10 11 -10 3 0 2 5 -1 10 -3 6 -8 10 -11 10 -3 0
-2 -4 1 -10z" />
    <path d="M246 145 c4 -8 11 -15 16 -15 l10 0 -12 15 c-7 8 -14 15 -16 15 -2 0
-1 -7 2 -15z" />
    <path d="M640 121 c0 -5 5 -13 10 -16 6 -3 10 -2 10 4 0 5 -4 13 -10 16 -5 3
-10 2 -10 -4z" />
    <path d="M260 80 c0 -7 3 -10 7 -7 3 4 3 10 0 14 -4 3 -7 0 -7 -7z" />
    <path d="M650 81 c0 -6 4 -13 10 -16 l10 -6 -6 15 c-7 18 -14 21 -14 7z" />
  </g>
  <g transform="translate(0.000000,68.000000) scale(0.100000,-0.100000)" fill="#e5e5e5" stroke="none">
    <path d="M155 670 c3 -5 11 -10 16 -10 6 0 7 5 4 10 -3 6 -11 10 -16 10 -6 0
-7 -4 -4 -10z" />
    <path d="M97 647 c-23 -36 -21 -45 4 -19 11 13 19 28 17 34 -2 6 -12 -1 -21
-15z" />
    <path d="M241 594 c18 -20 43 -40 54 -46 11 -6 0 10 -25 36 -24 25 -49 46 -54
46 -5 0 6 -16 25 -36z" />
    <path d="M67 573 c-10 -9 -9 -33 1 -33 4 0 8 9 8 20 0 23 0 22 -9 13z" />
    <path d="M406 532 c-2 -4 10 -8 29 -8 19 0 31 4 29 8 -3 4 -16 8 -29 8 -13 0
-26 -4 -29 -8z" />
    <path d="M350 526 c0 -2 7 -6 15 -10 8 -3 15 -1 15 4 0 6 -7 10 -15 10 -8 0
-15 -2 -15 -4z" />
    <path d="M60 501 c0 -6 4 -13 10 -16 l10 -6 -6 15 c-7 18 -14 21 -14 7z" />
    <path d="M515 490 c3 -5 8 -10 11 -10 2 0 4 5 4 10 0 6 -5 10 -11 10 -5 0 -7
-4 -4 -10z" />
    <path d="M90 441 c0 -6 4 -13 10 -16 l10 -6 -6 15 c-7 18 -14 21 -14 7z" />
    <path d="M611 399 c28 -28 54 -48 57 -44 4 4 -1 11 -11 16 -10 6 -32 26 -49
45 -17 19 -35 34 -40 34 -4 0 15 -23 43 -51z" />
    <path d="M110 401 c0 -6 4 -13 10 -16 l10 -6 -6 15 c-7 18 -14 21 -14 7z" />
    <path d="M140 362 c0 -6 5 -14 11 -18 6 -3 19 -20 30 -38 20 -33 26 -29 8 7
-16 29 -49 63 -49 49z" />
    <path d="M677 283 c-4 -3 -7 -11 -7 -17 l0 -10 12 12 c6 6 9 14 7 17 -3 3 -9
2 -12 -2z" />
    <path d="M210 230 c0 -7 3 -10 7 -7 3 4 3 10 0 14 -4 3 -7 0 -7 -7z" />
    <path d="M630 204 l0 -15 10 6 c6 4 8 11 5 16 -9 14 -15 11 -15 -7z" />
    <path d="M250 120 c0 -7 3 -10 7 -7 3 4 3 10 0 14 -4 3 -7 0 -7 -7z" />
    <path d="M647 109 l7 -23 4 13 c2 7 -1 18 -6 23 l-11 11 6 -24z" />
    <path d="M660 60 c0 -7 3 -10 7 -7 3 4 3 10 0 14 -4 3 -7 0 -7 -7z" />
    <path d="M260 50 c0 -7 3 -10 7 -7 3 4 3 10 0 14 -4 3 -7 0 -7 -7z" />
  </g>
  <g transform="translate(0.000000,68.000000) scale(0.100000,-0.100000)" fill="#4b3b34" stroke="none">
    <path d="M102 648 c-14 -14 -16 -28 -3 -28 9 0 24 30 18 36 -2 2 -9 -2 -15 -8z" />
    <path d="M157 638 c6 -11 31 -10 37 1 3 5 -5 8 -18 7 -13 0 -22 -4 -19 -8z" />
    <path d="M203 575 c-3 -9 -3 -18 -1 -21 3 -3 8 4 11 16 6 23 -1 27 -10 5z" />
    <path d="M226 555 c4 -8 11 -15 16 -15 l10 0 -12 15 c-7 8 -14 15 -16 15 -2 0
-1 -7 2 -15z" />
    <path d="M60 539 c0 -5 5 -7 10 -4 6 3 10 8 10 11 0 2 -4 4 -10 4 -5 0 -10 -5
-10 -11z" />
    <path d="M180 540 c0 -7 3 -10 7 -7 3 4 3 10 0 14 -4 3 -7 0 -7 -7z" />
    <path d="M335 520 c4 -6 11 -8 16 -5 14 9 11 15 -7 15 l-15 0 6 -10z" />
    <path d="M370 486 c0 -2 9 -6 20 -9 l20 -5 -6 9 c-5 9 -34 13 -34 5z" />
    <path d="M106 417 c3 -10 9 -15 12 -12 3 3 0 11 -7 18 l-12 12 7 -18z" />
    <path d="M670 311 c-13 -26 -13 -51 1 -51 l11 0 -6 16 -6 15 10 -6 10 -6 0 25
c0 14 -2 26 -5 26 -2 0 -9 -9 -15 -19z" />
    <path d="M640 239 c0 -5 5 -7 10 -4 6 3 10 8 10 11 0 2 -4 4 -10 4 -5 0 -10
-5 -10 -11z" />
    <path d="M250 132 c0 -5 7 -9 15 -9 8 0 12 4 9 9 -7 10 -24 10 -24 0z" />
  </g>
  <g transform="translate(0.000000,68.000000) scale(0.100000,-0.100000)" fill="#d2d1d1" stroke="none">
    <path d="M92 634 c-13 -19 -21 -41 -18 -47 l4 -12 1 13 c1 7 13 29 27 48 15
19 22 34 18 34 -5 0 -19 -16 -32 -36z" />
    <path d="M165 660 c3 -5 16 -15 28 -21 l22 -12 -19 22 c-19 21 -43 30 -31 11z" />
    <path d="M60 540 c0 -7 3 -10 7 -7 3 4 3 10 0 14 -4 3 -7 0 -7 -7z" />
    <path d="M310 536 c0 -2 7 -7 16 -10 l15 -6 -6 10 c-6 10 -25 14 -25 6z" />
    <path d="M430 536 c0 -2 7 -7 16 -10 l15 -6 -6 10 c-6 10 -25 14 -25 6z" />
    <path d="M370 521 c0 -5 9 -7 20 -4 11 3 20 7 20 9 0 2 -9 4 -20 4 -11 0 -20
-4 -20 -9z" />
    <path d="M474 511 c3 -5 16 -11 28 -14 l23 -6 -19 14 c-22 17 -40 20 -32 6z" />
    <path d="M70 484 c0 -6 7 -19 16 -30 l15 -19 -12 25 c-14 31 -19 36 -19 24z" />
    <path d="M656 352 c16 -15 31 -26 33 -25 7 5 -41 53 -52 53 -5 0 3 -12 19 -28z" />
    <path d="M163 333 c4 -3 10 -3 14 0 3 4 0 7 -7 7 -7 0 -10 -3 -7 -7z" />
    <path d="M200 260 c0 -7 3 -10 7 -7 3 4 3 10 0 14 -4 3 -7 0 -7 -7z" />
    <path d="M646 242 l-19 -27 26 24 c28 26 32 31 20 31 -5 0 -17 -13 -27 -28z" />
    <path d="M230 181 c0 -6 4 -13 10 -16 l10 -6 -6 15 c-7 18 -14 21 -14 7z" />
    <path d="M636 147 c3 -10 9 -15 12 -12 3 3 0 11 -7 18 l-12 12 7 -18z" />
    <path d="M260 60 c0 -7 3 -10 7 -7 3 4 3 10 0 14 -4 3 -7 0 -7 -7z" />
  </g>
  <g transform="translate(0.000000,68.000000) scale(0.100000,-0.100000)" fill="#85807f" stroke="none">
    <path d="M113 658 c-15 -20 -25 -38 -20 -38 3 0 12 11 21 25 17 26 16 35 -1
13z" />
    <path d="M160 666 c0 -2 8 -10 18 -17 l17 -14 -14 18 c-13 16 -21 21 -21 13z" />
    <path d="M250 585 c19 -19 36 -35 39 -35 3 0 -10 16 -29 35 -19 19 -36 35 -39
35 -3 0 10 -16 29 -35z" />
    <path d="M305 540 c3 -5 8 -10 11 -10 3 0 2 5 -1 10 -3 6 -8 10 -11 10 -3 0
-2 -4 1 -10z" />
    <path d="M333 523 c4 -3 10 -3 14 0 3 4 0 7 -7 7 -7 0 -10 -3 -7 -7z" />
    <path d="M453 523 c4 -3 10 -3 14 0 3 4 0 7 -7 7 -7 0 -10 -3 -7 -7z" />
    <path d="M483 503 c4 -3 10 -3 14 0 3 4 0 7 -7 7 -7 0 -10 -3 -7 -7z" />
    <path d="M520 486 c0 -2 8 -10 18 -17 l17 -14 -14 18 c-13 16 -21 21 -21 13z" />
    <path d="M625 380 c10 -11 20 -20 23 -20 3 0 -3 9 -13 20 -10 11 -20 20 -23
20 -3 0 3 -9 13 -20z" />
    <path d="M145 360 c3 -5 8 -10 11 -10 3 0 2 5 -1 10 -3 6 -8 10 -11 10 -3 0
-2 -4 1 -10z" />
    <path d="M680 304 c0 -11 -5 -25 -12 -32 l-12 -12 12 0 c13 0 28 47 18 57 -3
4 -6 -3 -6 -13z" />
    <path d="M631 214 l1 -19 5 13 c3 7 2 16 -1 19 -3 4 -6 -2 -5 -13z" />
    <path d="M630 160 c0 -7 3 -10 7 -7 3 4 3 10 0 14 -4 3 -7 0 -7 -7z" />
    <path d="M250 130 c0 -7 3 -10 7 -7 3 4 3 10 0 14 -4 3 -7 0 -7 -7z" />
    <path d="M640 130 c0 -7 3 -10 7 -7 3 4 3 10 0 14 -4 3 -7 0 -7 -7z" />
    <path d="M650 90 c0 -7 3 -10 7 -7 3 4 3 10 0 14 -4 3 -7 0 -7 -7z" />
    <path d="M270 20 c0 -7 3 -10 7 -7 3 4 3 10 0 14 -4 3 -7 0 -7 -7z" />
  </g>
  <g transform="translate(0.000000,68.000000) scale(0.100000,-0.100000)" fill="#a09d9d" stroke="none">
    <path d="M124 668 l-7 -11 11 7 c12 7 16 16 8 16 -3 0 -8 -5 -12 -12z" />
    <path d="M155 670 c3 -5 8 -10 11 -10 3 0 2 5 -1 10 -3 6 -8 10 -11 10 -3 0
-2 -4 1 -10z" />
    <path d="M84 618 l-7 -11 11 7 c12 7 16 16 8 16 -3 0 -8 -5 -12 -12z" />
    <path d="M215 620 c3 -5 8 -10 11 -10 3 0 2 5 -1 10 -3 6 -8 10 -11 10 -3 0
-2 -4 1 -10z" />
    <path d="M61 514 l1 -19 5 13 c3 7 2 16 -1 19 -3 4 -6 -2 -5 -13z" />
    <path d="M403 523 c4 -3 10 -3 14 0 3 4 0 7 -7 7 -7 0 -10 -3 -7 -7z" />
    <path d="M460 526 c0 -2 8 -10 18 -17 l17 -14 -14 18 c-13 16 -21 21 -21 13z" />
    <path d="M515 490 c3 -5 8 -10 11 -10 3 0 2 5 -1 10 -3 6 -8 10 -11 10 -3 0
-2 -4 1 -10z" />
    <path d="M540 466 c0 -2 8 -10 18 -17 l17 -14 -14 18 c-13 16 -21 21 -21 13z" />
    <path d="M585 430 c3 -5 8 -10 11 -10 3 0 2 5 -1 10 -3 6 -8 10 -11 10 -3 0
-2 -4 1 -10z" />
    <path d="M605 400 c3 -5 8 -10 11 -10 3 0 2 5 -1 10 -3 6 -8 10 -11 10 -3 0
-2 -4 1 -10z" />
    <path d="M120 386 c0 -2 8 -10 18 -17 l17 -14 -14 18 c-13 16 -21 21 -21 13z" />
    <path d="M665 350 c3 -5 8 -10 11 -10 3 0 2 5 -1 10 -3 6 -8 10 -11 10 -3 0
-2 -4 1 -10z" />
    <path d="M680 320 c0 -7 3 -10 7 -7 3 4 3 10 0 14 -4 3 -7 0 -7 -7z" />
    <path d="M680 290 c0 -7 3 -10 7 -7 3 4 3 10 0 14 -4 3 -7 0 -7 -7z" />
    <path d="M260 70 c0 -7 3 -10 7 -7 3 4 3 10 0 14 -4 3 -7 0 -7 -7z" />
    <path d="M660 50 c0 -7 3 -10 7 -7 3 4 3 10 0 14 -4 3 -7 0 -7 -7z" />
  </g>
  <g transform="translate(0.000000,68.000000) scale(0.100000,-0.100000)" fill="#bcb9b8" stroke="none">
    <path d="M205 630 c3 -5 8 -10 11 -10 3 0 2 5 -1 10 -3 6 -8 10 -11 10 -3 0
-2 -4 1 -10z" />
    <path d="M70 580 c0 -7 3 -10 7 -7 3 4 3 10 0 14 -4 3 -7 0 -7 -7z" />
    <path d="M60 530 c0 -7 3 -10 7 -7 3 4 3 10 0 14 -4 3 -7 0 -7 -7z" />
    <path d="M343 523 c4 -3 10 -3 14 0 3 4 0 7 -7 7 -7 0 -10 -3 -7 -7z" />
    <path d="M370 520 c0 -7 3 -10 7 -7 3 4 3 10 0 14 -4 3 -7 0 -7 -7z" />
    <path d="M663 263 c4 -3 10 -3 14 0 3 4 0 7 -7 7 -7 0 -10 -3 -7 -7z" />
    <path d="M240 160 c0 -7 3 -10 7 -7 3 4 3 10 0 14 -4 3 -7 0 -7 -7z" />
  </g>
  <g transform="translate(0.000000,68.000000) scale(0.100000,-0.100000)" fill="#766e6c" stroke="none">
    <path d="M265 570 c3 -5 8 -10 11 -10 3 0 2 5 -1 10 -3 6 -8 10 -11 10 -3 0
-2 -4 1 -10z" />
    <path d="M364 508 l-7 -11 11 7 c7 4 12 9 12 12 0 8 -9 4 -16 -8z" />
    <path d="M563 413 c4 -3 10 -3 14 0 3 4 0 7 -7 7 -7 0 -10 -3 -7 -7z" />
  </g>
</svg>