<svg width="76.000000pt" height="68.000000pt" viewBox="0 0 76.000000 68.000000" xmlns="http://www.w3.org/2000/svg">
  <g transform="translate(0.000000,68.000000) scale(0.100000,-0.100000)" fill="#fefefe" stroke="none">
    <path d="M0 340 l0 -340 84 0 84 0 16 41 17 41 -7 59 c-4 33 -10 59 -14 59 -5
0 -6 9 -3 20 l5 20 -15 0 c-9 0 -25 -12 -36 -26 -12 -15 -21 -22 -21 -16 0 12
57 62 71 62 5 0 9 7 9 15 0 8 -7 15 -15 15 -8 0 -15 5 -15 10 0 6 7 10 15 10
l15 0 0 23 c0 12 10 51 21 87 l21 65 -7 67 -6 67 11 21 c6 11 17 20 25 20 7 0
22 -11 33 -25 11 -14 25 -25 31 -25 6 0 11 -8 11 -18 0 -26 32 -49 78 -57 l39
-6 18 17 17 17 8 -13 8 -14 21 10 c12 5 38 32 59 59 l38 50 21 3 22 3 10 -35
9 -36 -5 -192 -5 -193 16 -61 c9 -34 16 -80 16 -103 l0 -41 30 0 30 0 0 340 0
340 -380 0 -380 0 0 -340z m101 -183 l-12 -12 7 18 c3 10 9 15 12 12 3 -3 0
-11 -7 -18z m50 -8 c-5 -13 -10 -19 -10 -12 -1 15 10 45 15 40 3 -2 0 -15 -5
-28z" />
    <path d="M267 453 c-4 -3 -7 -15 -7 -25 l0 -19 18 3 17 3 3 23 3 22 -14 0 c-7
0 -17 -3 -20 -7z" />
  </g>
  <g transform="translate(0.000000,68.000000) scale(0.100000,-0.100000)" fill="#25292c" stroke="none">
    <path d="M473 465 c-16 -17 -17 -35 -3 -35 6 0 10 -7 10 -15 0 -8 7 -15 15
-15 8 0 15 7 15 15 0 8 -4 15 -10 15 -5 0 -10 5 -10 10 0 16 27 12 34 -5 3 -8
12 -15 21 -15 l15 0 0 20 0 20 -20 0 c-11 0 -20 5 -20 10 0 15 -33 11 -47 -5z" />
    <path d="M640 466 l0 -14 -20 5 -20 5 0 -11 c0 -15 32 -51 46 -51 14 0 24 23
24 56 l0 24 -15 0 c-8 0 -15 -6 -15 -14z" />
    <path d="M363 375 c-17 -19 -16 -35 2 -35 8 0 15 5 15 10 0 6 7 10 15 10 8 0
15 7 15 15 l0 15 -17 0 c-10 -1 -24 -7 -30 -15z" />
    <path d="M628 363 l-18 -4 0 -31 0 -30 -16 6 c-9 3 -18 6 -20 6 -2 0 -4 10 -4
21 l0 21 -22 -6 c-13 -3 -31 -6 -40 -6 l-17 0 2 -37 2 -38 -27 -3 -28 -3 0
-14 c0 -7 6 -16 13 -18 l12 -5 -17 -1 c-10 -1 -18 4 -18 9 0 6 -7 10 -15 10
l-15 0 0 -25 0 -25 -15 0 c-8 0 -15 -7 -15 -16 l0 -16 35 6 c38 8 105 -2 105
-14 0 -4 -11 -11 -25 -14 l-25 -6 0 -16 0 -16 30 7 30 7 0 -15 c0 -8 10 -17
23 -21 32 -8 37 -8 37 8 0 15 45 30 61 21 l9 -6 -12 -13 c-7 -7 -21 -15 -30
-19 l-18 -6 0 -24 0 -24 31 -7 c17 -3 44 -6 60 -6 l29 0 0 45 c0 24 -7 70 -16
102 -8 32 -16 94 -17 138 l-2 80 -15 1 c-8 1 -23 0 -32 -3z m-61 -220 c-4 -3
-7 0 -7 7 0 7 3 10 7 7 3 -4 3 -10 0 -14z m-17 -23 c0 -5 -4 -10 -10 -10 -5 0
-10 5 -10 10 0 6 5 10 10 10 6 0 10 -4 10 -10z" />
    <path d="M320 285 c0 -8 7 -15 15 -15 8 0 15 7 15 15 0 8 -7 15 -15 15 -8 0
-15 -7 -15 -15z" />
    <path d="M420 75 c0 -8 7 -15 15 -15 8 0 15 7 15 15 0 8 -7 15 -15 15 -8 0
-15 -7 -15 -15z" />
    <path d="M498 63 c-20 -5 -25 -33 -5 -33 29 0 57 13 57 26 l0 14 -17 -1 c-10
-1 -26 -3 -35 -6z" />
  </g>
  <g transform="translate(0.000000,68.000000) scale(0.100000,-0.100000)" fill="#2d3235" stroke="none">
    <path d="M552 543 l3 -18 23 -3 22 -3 0 14 c0 14 -20 27 -42 27 -5 0 -8 -8 -6
-17z" />
    <path d="M470 465 l0 -15 30 0 30 0 0 15 0 15 -30 0 -30 0 0 -15z m37 -2 c-4
-3 -10 -3 -14 0 -3 4 0 7 7 7 7 0 10 -3 7 -7z" />
    <path d="M602 420 c0 -28 -3 -54 -6 -57 -3 -4 -6 3 -6 15 0 12 -4 22 -9 22
-23 0 -41 -14 -41 -31 l0 -19 -20 0 -20 0 -6 -25 c-3 -14 -10 -25 -15 -25 -5
0 -9 -7 -9 -15 0 -8 -6 -15 -14 -15 -8 0 -17 -6 -19 -12 l-5 -13 -1 18 c-1 9
-8 17 -16 17 l-14 0 -7 -35 c-3 -19 -11 -35 -18 -35 -11 0 -42 -58 -35 -64 2
-2 28 -1 57 1 l52 6 0 13 0 14 -20 0 c-11 0 -20 6 -20 13 0 7 9 13 20 13 11 0
20 -5 20 -10 l0 -10 12 12 c15 15 28 15 28 1 0 -14 20 -33 44 -42 l19 -8 -19
-14 c-22 -16 -48 -20 -39 -5 l6 10 -15 0 c-18 0 -21 -16 -6 -25 6 -3 10 -19
10 -35 l0 -28 14 -5 15 -6 3 27 3 27 23 3 22 3 0 -15 c0 -9 -7 -16 -15 -16 -8
0 -15 -7 -15 -15 l0 -15 28 0 c15 0 33 5 39 11 6 6 19 9 29 6 l19 -5 -22 -1
c-13 0 -23 -6 -23 -12 l0 -11 20 5 20 5 9 -15 8 -15 7 17 6 18 -11 13 c-6 8
-9 15 -5 15 3 1 11 3 16 4 6 1 13 3 18 4 4 0 -8 10 -26 21 -18 11 -38 18 -43
14 l-11 -6 4 23 3 24 -17 18 c-10 9 -20 16 -21 15 -2 -2 -11 3 -20 10 l-16 14
-12 -8 -12 -7 18 -14 c11 -7 14 -13 8 -13 -13 0 -45 35 -37 43 6 5 -29 28 -37
24 -2 -1 2 4 10 10 l14 13 14 -11 c7 -6 11 -15 8 -19 -3 -5 -1 -11 4 -15 5 -3
15 3 20 12 l11 18 14 -17 c7 -10 17 -18 21 -18 5 0 17 -7 27 -16 l18 -17 13
12 c8 6 17 8 20 4 4 -3 7 6 7 21 0 15 -4 25 -8 22 -4 -2 -14 -1 -22 4 l-13 8
-18 -11 -17 -11 -39 27 c-22 15 -44 27 -51 27 -7 0 -12 4 -12 9 l0 10 37 -16
c21 -8 48 -17 60 -19 l22 -4 -5 15 -6 15 18 0 18 0 -12 12 c-15 15 -16 48 -1
48 5 0 8 -4 4 -9 -3 -5 0 -13 6 -17 l12 -7 -7 11 -7 12 11 0 11 0 -7 13 -8 12
19 -15 18 -15 -6 34 c-4 18 -7 48 -7 65 l0 32 -34 2 -35 3 1 -51z m50 13 c-6
-3 -9 -10 -6 -15 l7 -11 -12 7 -12 8 12 14 c6 8 15 12 18 8 3 -4 0 -9 -7 -11z
m-92 -103 c0 -5 -8 -10 -17 -10 l-18 0 15 10 c19 12 20 12 20 0z m-45 -10 c3
-5 4 -10 1 -10 -3 0 -8 5 -11 10 -3 6 -4 10 -1 10 3 0 8 -4 11 -10z m61 -25
l19 -14 -23 6 c-12 3 -25 9 -28 14 -8 14 10 11 32 -6z m79 -76 c4 -6 4 -13 0
-17 -4 -4 -10 -1 -12 6 -3 6 -9 10 -14 6 -5 -3 -9 0 -9 5 0 14 27 14 35 0z
m-258 -46 c-4 -3 -10 -3 -14 0 -3 4 0 7 7 7 7 0 10 -3 7 -7z m197 -8 c3 -8 1
-15 -4 -15 -6 0 -10 7 -10 15 0 8 2 15 4 15 2 0 6 -7 10 -15z m-3 -42 l14 -18
-17 14 -18 13 0 -12 c0 -8 -3 -11 -6 -7 -5 5 3 27 10 27 2 0 10 -8 17 -17z
m26 -50 c-4 -3 -10 -3 -14 0 -3 4 0 7 7 7 7 0 10 -3 7 -7z" />
    <path d="M286 434 c-4 -9 -4 -19 -2 -22 10 -9 36 8 36 23 0 20 -26 19 -34 -1z" />
    <path d="M530 423 c0 -7 7 -13 15 -13 8 0 15 6 15 13 0 8 -7 14 -15 14 -8 0
-15 -6 -15 -14z" />
    <path d="M430 415 c0 -8 7 -15 15 -15 8 0 15 7 15 15 0 8 -7 15 -15 15 -8 0
-15 -7 -15 -15z" />
    <path d="M335 310 c-8 -14 3 -30 21 -30 l14 0 0 20 0 20 -14 0 c-8 0 -18 -4
-21 -10z" />
    <path d="M310 276 c0 -9 7 -16 16 -16 9 0 14 5 12 12 -6 18 -28 21 -28 4z" />
    <path d="M665 281 c-3 -5 -1 -12 5 -16 l10 -6 0 15 c0 18 -6 21 -15 7z" />
    <path d="M505 240 c3 -5 8 -10 11 -10 3 0 2 5 -1 10 -3 6 -8 10 -11 10 -3 0
-2 -4 1 -10z" />
    <path d="M680 144 l0 -16 -15 12 -15 13 6 -16 c7 -18 44 -19 44 0 0 6 -4 15
-10 18 l-10 6 0 -17z" />
    <path d="M390 65 c0 -8 7 -15 15 -15 8 0 15 7 15 15 0 8 -7 15 -15 15 -8 0
-15 -7 -15 -15z" />
    <path d="M450 55 c0 -8 7 -15 15 -15 8 0 15 7 15 15 0 8 -7 15 -15 15 -8 0
-15 -7 -15 -15z" />
    <path d="M694 40 l0 -20 10 10 10 10 -10 10 -10 10 0 -20z" />
    <path d="M360 15 c0 -8 7 -15 15 -15 8 0 15 7 15 15 0 8 -7 15 -15 15 -8 0
-15 -7 -15 -15z" />
    <path d="M480 15 l0 -15 20 0 20 0 0 15 0 15 -20 0 -20 0 0 -15z" />
    <path d="M530 16 l0 -16 62 0 62 0 -10 10 c-6 6 -34 13 -62 17 l-52 6 0 -17z" />
  </g>
  <g transform="translate(0.000000,68.000000) scale(0.100000,-0.100000)" fill="#343a3d" stroke="none">
    <path d="M598 649 c-10 -5 -18 -17 -18 -26 l0 -15 23 7 c12 4 32 6 45 6 l22
-1 0 20 0 20 -27 0 c-16 0 -36 -5 -45 -11z" />
    <path d="M556 559 c-7 -35 -1 -49 20 -49 19 0 18 10 -3 26 l-18 14 18 -6 17
-6 0 26 0 26 -14 0 -13 0 -7 -31z" />
    <path d="M610 489 c0 -5 -7 -9 -15 -9 -8 0 -15 -5 -15 -11 l0 -11 -24 6 c-14
3 -32 3 -40 0 l-16 -6 0 -24 0 -24 15 0 15 0 0 20 c0 11 5 20 10 20 6 0 10 -4
10 -9 0 -5 10 -11 22 -13 12 -2 23 -9 26 -15 l4 -13 -17 0 c-9 0 -14 -4 -11
-9 l5 -8 -24 5 -25 4 -6 -16 c-3 -9 -3 -24 1 -33 l6 -18 14 18 13 18 25 -6 24
-6 7 16 c3 9 4 21 0 26 -10 16 13 9 40 -12 l28 -22 -3 57 c-1 30 0 59 4 63 15
14 5 20 -33 20 -22 0 -40 -4 -40 -8z m50 -54 l0 -36 -21 11 c-22 12 -35 37
-25 48 4 3 11 0 16 -8 l9 -14 7 17 c3 9 8 17 10 17 2 0 4 -16 4 -35z" />
    <path d="M430 427 c0 -8 7 -14 15 -14 8 0 15 6 15 14 0 7 -7 13 -15 13 -8 0
-15 -6 -15 -13z" />
    <path d="M394 373 c2 -10 11 -20 20 -21 l18 -4 -4 18 c-2 11 -11 20 -20 22
l-16 3 2 -18z" />
    <path d="M340 346 c0 -9 7 -16 16 -16 17 0 14 22 -4 28 -7 2 -12 -3 -12 -12z" />
    <path d="M468 319 c-10 -10 -18 -23 -18 -29 0 -5 -9 -14 -20 -20 l-20 -10 6
15 c4 8 2 15 -2 15 -5 0 -19 3 -31 6 l-23 6 0 -16 c0 -9 7 -16 15 -16 l15 0 0
-20 0 -19 16 6 17 6 -5 -14 -5 -14 -33 3 -33 4 7 -24 c4 -12 8 -29 8 -35 1 -7
8 -13 15 -13 8 0 12 4 8 10 -3 5 5 21 17 35 l23 26 25 -6 25 -5 -17 13 -17 13
10 15 9 14 0 -14 0 -14 18 16 18 17 12 -12 c17 -17 27 -1 11 18 l-14 17 30 -6
30 -7 -33 17 -33 17 5 13 c8 19 -16 14 -36 -8z" />
    <path d="M595 330 c3 -5 8 -10 11 -10 2 0 4 5 4 10 0 6 -5 10 -11 10 -5 0 -7
-4 -4 -10z" />
    <path d="M573 315 c0 -8 4 -12 9 -9 5 3 6 10 3 15 -9 13 -12 11 -12 -6z" />
    <path d="M300 266 c0 -9 7 -16 16 -16 9 0 14 5 12 12 -6 18 -28 21 -28 4z" />
    <path d="M541 236 c-13 -16 -7 -36 10 -36 l10 0 -7 13 -8 12 17 -14 c19 -15
23 -26 5 -15 l-11 7 7 -11 7 -12 -18 7 -18 7 18 -18 c9 -10 15 -21 12 -26 -7
-11 -45 -8 -45 3 0 5 7 7 15 3 8 -3 15 -1 15 4 0 6 -7 10 -16 10 l-16 0 12 15
c7 8 10 16 6 16 -3 1 -12 2 -18 3 -7 1 -12 8 -10 15 1 7 -2 10 -7 7 -5 -4 -12
0 -14 6 l-5 13 -1 -12 c-1 -6 3 -14 9 -18 5 -3 6 -13 3 -22 l-6 -16 11 7 c7 4
12 3 12 -2 0 -14 -28 -23 -35 -12 -4 6 -13 10 -21 10 -15 0 -18 -18 -6 -37 l8
-12 81 -5 81 -4 5 20 6 20 -22 -18 c-12 -11 -19 -15 -15 -10 4 5 0 15 -10 22
l-17 12 24 26 24 26 -14 1 c-8 1 -17 1 -21 0 -5 0 -7 4 -5 10 3 18 -19 21 -32
5z" />
    <path d="M670 201 c0 -6 4 -13 10 -16 l10 -6 -6 15 c-7 18 -14 21 -14 7z" />
    <path d="M406 165 l-5 -15 13 0 c7 0 13 7 13 15 0 8 -4 15 -8 15 -4 0 -9 -7
-13 -15z" />
    <path d="M300 155 c0 -8 7 -15 15 -15 8 0 15 7 15 15 0 8 -7 15 -15 15 -8 0
-15 -7 -15 -15z" />
    <path d="M507 113 c-11 -10 -8 -18 13 -41 12 -12 17 -22 13 -23 -4 -1 3 -5 17
-9 l25 -8 -27 -1 c-34 -1 -59 9 -52 20 3 5 -2 9 -10 9 -9 0 -16 -4 -16 -10 0
-5 -9 -10 -20 -10 l-20 0 0 14 0 15 -20 -2 -20 -1 0 -18 c0 -10 -4 -18 -10
-18 -5 0 -10 7 -10 15 0 8 -7 15 -15 15 -23 0 -18 -27 6 -33 12 -3 19 -9 16
-14 -3 -4 52 -9 121 -10 70 -1 120 1 112 5 -8 4 -15 17 -15 30 l1 23 28 14 28
15 -4 -25 -5 -24 8 5 c5 3 9 14 9 25 l0 20 13 -6 c6 -4 1 3 -12 15 -24 21 -42
23 -44 5 -1 -18 -27 -37 -42 -31 -8 3 -15 10 -15 15 0 5 -7 12 -16 15 l-15 6
6 -13 c4 -6 0 -4 -8 5 -8 10 -17 15 -20 11z m60 -60 c-4 -3 -10 -3 -14 0 -3 4
0 7 7 7 7 0 10 -3 7 -7z m-60 -40 c-4 -3 -10 -3 -14 0 -3 4 0 7 7 7 7 0 10 -3
7 -7z" />
    <path d="M443 85 c-3 -9 -3 -18 0 -22 10 -10 37 6 37 22 0 20 -29 20 -37 0z" />
    <path d="M613 43 c4 -3 10 -3 14 0 3 4 0 7 -7 7 -7 0 -10 -3 -7 -7z" />
    <path d="M695 10 c3 -5 8 -10 11 -10 2 0 4 5 4 10 0 6 -5 10 -11 10 -5 0 -7
-4 -4 -10z" />
  </g>
  <g transform="translate(0.000000,68.000000) scale(0.100000,-0.100000)" fill="#51565a" stroke="none">
    <path d="M640 656 c0 -15 -35 -32 -58 -27 l-12 2 -6 -31 c-4 -16 -12 -30 -18
-30 -6 0 -16 -12 -23 -26 l-12 -26 6 -29 5 -28 18 -6 c10 -3 30 0 44 6 l27 12
11 -11 11 -11 13 17 13 17 1 -17 c0 -9 5 -20 11 -24 l12 -7 -5 26 c-3 15 -2
24 2 22 10 -6 5 143 -5 168 -9 21 -35 23 -35 3z m11 -49 l-11 -11 0 20 c0 27
14 41 18 19 2 -9 -1 -22 -7 -28z m-61 -72 c-12 -15 -30 -12 -30 6 0 5 10 9 21
9 l21 0 -12 -15z" />
    <path d="M220 610 l0 -30 15 0 15 0 0 30 0 30 -15 0 -15 0 0 -30z" />
    <path d="M280 475 c0 -8 7 -15 15 -15 8 0 15 7 15 15 0 8 -7 15 -15 15 -8 0
-15 -7 -15 -15z" />
    <path d="M415 470 c-4 -12 -5 -23 -3 -25 1 -2 15 -6 31 -10 l27 -7 0 11 0 11
26 -6 27 -7 -7 12 c-4 6 -14 11 -22 11 -8 0 -13 6 -11 13 l2 12 -32 3 -31 3
-7 -21z" />
    <path d="M570 427 c0 -8 -11 -19 -24 -25 l-24 -11 5 18 4 18 -15 0 -16 0 -7
-26 c-3 -14 -13 -31 -21 -37 l-14 -11 6 -21 c4 -12 15 -22 23 -22 9 0 14 2 11
5 -11 11 51 65 81 71 32 7 35 11 25 38 -7 19 -34 21 -34 3z" />
    <path d="M403 397 l2 -34 12 0 c7 0 15 7 18 15 8 21 -4 52 -20 52 l-14 0 2
-33z" />
    <path d="M332 364 c1 -9 10 -18 19 -20 l17 -2 -2 17 c-2 9 -11 18 -20 19 l-18
4 4 -18z" />
    <path d="M420 325 c0 -8 -4 -15 -10 -15 -17 0 -11 -26 9 -44 l19 -17 8 12 8
13 -12 4 c-15 5 -16 32 -2 32 6 0 10 7 10 15 0 8 -7 15 -15 15 -8 0 -15 -7
-15 -15z" />
    <path d="M354 295 c-1 -14 2 -25 7 -25 18 0 9 -31 -16 -56 -27 -27 -28 -28
-19 -62 7 -23 36 -32 33 -9 -3 28 1 67 9 66 22 -4 32 3 32 22 l0 20 10 -6 c6
-3 10 -2 10 3 0 11 -30 38 -39 35 -3 -1 -5 7 -3 17 l3 20 -13 0 -13 0 -1 -25z" />
    <path d="M307 293 c-4 -3 -7 -12 -7 -19 0 -18 33 -10 36 9 2 17 -16 23 -29 10z" />
    <path d="M670 210 c0 -7 3 -10 7 -7 3 4 3 10 0 14 -4 3 -7 0 -7 -7z" />
    <path d="M423 162 l-23 -3 0 -20 c0 -10 3 -19 8 -19 4 0 12 -11 19 -25 l11
-25 -15 0 c-8 0 -11 -4 -8 -10 l6 -10 -31 6 -30 6 0 -16 0 -16 25 0 24 0 -5
-15 -6 -15 41 0 c39 0 55 13 29 23 l-13 5 18 1 c9 1 16 6 15 13 -4 16 40 26
95 20 l47 -5 0 18 c0 10 -3 15 -7 12 -3 -4 -12 -2 -20 4 -7 6 -13 7 -13 2 0
-5 -9 -9 -19 -10 l-20 -2 6 15 5 14 -17 0 c-9 0 -14 -4 -11 -9 3 -5 -3 -11
-15 -14 l-20 -5 12 14 11 14 -13 1 c-8 1 -20 1 -28 0 l-13 -2 7 10 c3 6 13 11
21 11 l15 0 -3 18 -3 17 -22 3 -21 3 2 -17 c0 -9 -6 -19 -14 -21 l-15 -5 15
11 15 10 -10 9 c-6 4 -20 6 -32 4z m47 -76 c0 -3 -5 -8 -12 -12 l-11 -7 7 11
c7 12 16 16 16 8z m-25 -55 c-3 -6 -11 -8 -17 -5 l-10 7 13 8 c16 10 23 4 14
-10z" />
    <path d="M680 161 c0 -6 4 -13 10 -16 l10 -6 -6 15 c-7 18 -14 21 -14 7z" />
    <path d="M260 135 c0 -8 7 -15 15 -15 8 0 15 7 15 15 0 8 -7 15 -15 15 -8 0
-15 -7 -15 -15z" />
    <path d="M690 121 c0 -6 4 -13 10 -16 l10 -6 -6 15 c-7 18 -14 21 -14 7z" />
    <path d="M510 35 l0 -15 30 0 c32 0 40 14 14 24 -27 10 -44 7 -44 -9z" />
    <path d="M330 10 c0 -5 7 -10 15 -10 8 0 15 5 15 10 0 6 -7 10 -15 10 -8 0
-15 -4 -15 -10z" />
  </g>
  <g transform="translate(0.000000,68.000000) scale(0.100000,-0.100000)" fill="#464b4e" stroke="none">
    <path d="M612 626 l-19 -25 -13 12 -13 12 7 -18 6 -19 -19 -5 -19 -5 2 -24 c0
-13 6 -24 11 -24 6 0 3 -5 -5 -11 l-15 -11 15 5 c8 2 14 11 12 21 -3 19 9 21
26 4 17 -17 28 0 14 22 l-12 19 19 11 19 10 6 -17 7 -17 19 29 c11 17 20 36
20 44 l0 13 -15 -12 -15 -12 0 11 c0 19 -17 12 -38 -13z m18 0 c0 -3 -5 -8
-12 -12 l-11 -7 7 11 c7 12 16 16 16 8z m-43 -51 c0 -8 -4 -15 -9 -15 -10 0
-11 14 -1 23 9 10 10 9 10 -8z" />
    <path d="M675 573 l-7 -22 -22 9 -23 8 0 -13 c0 -8 5 -12 11 -9 6 3 2 -2 -8
-10 l-20 -16 12 0 c7 0 12 -9 12 -19 0 -33 14 -31 39 4 l22 33 -4 29 -4 28 -8
-22z" />
    <path d="M568 508 c-20 -20 -24 -33 -8 -23 6 3 10 1 10 -6 l0 -11 -30 5 -29 6
5 -14 c3 -7 12 -11 19 -9 8 3 22 1 32 -5 l18 -10 -17 -1 c-10 0 -18 -5 -18
-11 l0 -10 19 6 19 6 5 -15 6 -15 -12 4 c-7 3 -28 -1 -47 -8 l-35 -12 -2 -26
-2 -27 20 5 c21 6 20 30 0 25 l-12 -2 6 10 c3 6 11 8 16 5 5 -4 9 -2 9 3 0 5
15 8 34 7 l34 -3 6 21 5 21 -12 8 c-7 4 -8 8 -3 8 5 0 1 9 -9 20 l-19 21 20
-7 c10 -4 25 -12 32 -17 l12 -10 -5 16 c-4 8 -18 18 -31 21 l-25 7 6 10 7 10
14 -12 c8 -6 14 -7 14 -3 0 5 -8 14 -17 20 l-18 10 -17 -18z" />
    <path d="M435 490 c-3 -5 -3 -10 2 -10 4 0 0 -5 -9 -11 -19 -11 -25 -49 -8
-49 6 0 10 -7 10 -15 l0 -15 24 0 24 0 6 16 c3 8 10 12 16 9 l10 -6 0 20 0 21
-15 0 c-8 0 -15 -6 -15 -14 0 -7 -9 -16 -20 -19 l-21 -5 7 21 c4 12 9 24 13
27 3 3 7 13 9 23 l3 17 -15 0 c-8 0 -18 -4 -21 -10z" />
    <path d="M674 482 c-12 -7 -11 -39 2 -50 4 -4 4 0 2 8 -3 8 -1 23 4 33 10 19
8 20 -8 9z" />
    <path d="M354 378 l-8 -12 13 -4 12 -4 -15 -17 c-8 -9 -17 -29 -20 -44 l-5
-27 15 0 c8 0 14 5 14 10 0 6 -5 10 -12 10 -6 0 -2 9 10 20 12 12 22 26 23 33
0 7 2 20 4 30 l3 17 -13 0 c-8 0 -17 -5 -21 -12z" />
    <path d="M450 325 l0 -35 -15 0 c-8 0 -15 -4 -15 -9 0 -5 -3 -18 -6 -28 l-6
-18 10 13 c5 8 12 13 16 13 17 -2 37 13 32 25 l-5 13 15 -6 c7 -3 14 -8 14
-12 0 -4 14 -17 30 -29 17 -13 30 -20 30 -17 0 3 -17 22 -37 42 l-38 35 20 -6
20 -7 -23 21 c-12 12 -20 25 -17 31 4 5 -1 9 -9 9 l-16 0 0 -35z" />
    <path d="M373 280 l-2 -20 14 0 c7 0 16 7 19 16 9 23 8 24 -12 24 l-18 0 -1
-20z" />
    <path d="M565 280 c3 -5 8 -10 11 -10 3 0 2 5 -1 10 -3 6 -8 10 -11 10 -3 0
-2 -4 1 -10z" />
    <path d="M345 190 l4 -20 -30 0 -29 0 0 -15 0 -15 23 0 c13 0 32 9 42 20 l17
19 -5 16 c-9 22 -27 18 -22 -5z" />
    <path d="M360 150 c0 -5 7 -10 15 -10 8 0 15 5 15 10 0 6 -7 10 -15 10 -8 0
-15 -4 -15 -10z" />
    <path d="M476 149 c2 -4 -2 -10 -8 -13 l-13 -6 12 -6 11 -5 -5 -30 -4 -29 15
0 c15 0 29 16 32 38 1 6 -2 10 -7 6 -5 -3 -7 -9 -4 -14 3 -5 1 -11 -4 -14 l-9
-6 3 17 c1 10 -2 23 -7 30 -5 7 -7 17 -3 23 l6 10 17 -9 c9 -5 30 -11 46 -12
l29 -4 4 12 4 11 -35 -3 c-20 -2 -36 1 -36 6 0 5 -11 8 -24 7 -14 -1 -23 -5
-20 -9z" />
    <path d="M400 115 c0 -8 7 -15 15 -15 8 0 15 7 15 15 0 8 -7 15 -15 15 -8 0
-15 -7 -15 -15z" />
    <path d="M604 121 l7 -11 -33 -1 c-18 -1 -37 0 -43 1 -5 1 -7 -2 -3 -5 4 -4 3
-15 -2 -24 l-8 -17 23 -2 23 -2 6 16 c3 8 10 12 16 9 5 -3 10 -1 10 4 0 6 7
11 16 11 18 0 14 22 -6 28 l-13 5 7 -12z m-34 -31 c0 -5 -8 -10 -17 -10 l-18
0 15 10 c19 12 20 12 20 0z" />
    <path d="M390 81 c0 -5 -8 -11 -18 -13 -22 -6 -25 -38 -5 -38 8 0 12 4 9 9 -6
9 22 26 37 23 4 -1 7 5 7 13 0 8 -7 15 -15 15 -8 0 -15 -4 -15 -9z" />
    <path d="M616 75 l-5 -15 13 0 c7 0 13 7 13 15 0 8 -4 15 -8 15 -4 0 -9 -7
-13 -15z" />
    <path d="M422 28 l3 -23 15 0 15 0 0 20 0 20 -18 3 -19 4 4 -24z m15 -15 c-4
-3 -7 0 -7 7 0 7 3 10 7 7 3 -4 3 -10 0 -14z" />
    <path d="M540 40 l0 -9 -32 5 -33 5 25 -15 25 -15 9 9 c5 5 23 6 40 3 l31 -5
-20 15 c-23 18 -45 22 -45 7z" />
    <path d="M470 10 c0 -5 5 -10 11 -10 5 0 7 5 4 10 -3 6 -8 10 -11 10 -2 0 -4
-4 -4 -10z" />
    <path d="M543 3 c4 -3 10 -3 14 0 3 4 0 7 -7 7 -7 0 -10 -3 -7 -7z" />
  </g>
  <g transform="translate(0.000000,68.000000) scale(0.100000,-0.100000)" fill="#929a9e" stroke="none">
    <path d="M215 639 c-4 -6 -5 -13 -2 -16 7 -7 27 6 27 18 0 12 -17 12 -25 -2z" />
    <path d="M666 635 c-3 -8 -1 -15 4 -15 6 0 10 7 10 15 0 8 -2 15 -4 15 -2 0
-6 -7 -10 -15z" />
    <path d="M575 629 c-11 -17 1 -21 15 -4 l12 15 -10 0 c-6 0 -14 -5 -17 -11z" />
    <path d="M250 611 l0 -21 21 0 20 0 -3 17 c-2 10 -11 19 -21 21 l-17 3 0 -20z" />
    <path d="M300 616 c0 -8 4 -16 10 -18 5 -1 11 -14 12 -28 l3 -25 -34 3 -34 4
-8 -14 -9 -13 0 13 c0 6 -4 12 -10 12 -17 0 -11 -22 10 -40 l20 -18 -25 -6
-25 -6 0 -15 c0 -8 7 -15 15 -15 15 0 19 -10 15 -43 l-2 -19 19 4 18 4 -2 19
c-1 11 3 35 8 53 l11 33 18 -21 c24 -27 40 -25 40 5 l0 25 -12 0 -13 0 11 8
c6 4 13 14 17 24 l6 16 -18 34 c-18 35 -41 48 -41 24z m-13 -103 c-4 -3 -10
-3 -14 0 -3 4 0 7 7 7 7 0 10 -3 7 -7z" />
    <path d="M681 574 l1 -19 5 13 c3 7 2 16 -1 19 -3 4 -6 -2 -5 -13z" />
    <path d="M364 528 c3 -13 6 -30 6 -39 l0 -17 25 -6 24 -6 21 17 c24 21 26 33
5 33 -8 0 -15 -4 -15 -10 0 -5 -4 -10 -10 -10 -21 0 -9 20 15 26 14 3 25 11
25 18 l0 12 -51 2 -51 2 6 -22z" />
    <path d="M676 541 c-4 -7 -5 -15 -2 -18 9 -9 19 4 14 18 l-4 13 -8 -13z" />
    <path d="M470 495 l0 -15 20 0 20 0 0 15 0 15 -20 0 -20 0 0 -15z" />
    <path d="M545 420 c-4 -6 -10 -8 -15 -5 -5 3 -12 1 -15 -5 l-7 -11 -16 13 -15
13 -4 -12 c-3 -7 -11 -13 -19 -13 -8 0 -14 -7 -14 -15 l0 -15 19 0 c11 0 22 6
24 13 l5 12 1 -13 1 -13 23 12 c12 7 22 11 22 9 0 -2 10 0 23 4 12 4 22 14 22
22 0 16 -26 19 -35 4z" />
    <path d="M671 414 l1 -19 5 13 c3 7 2 16 -1 19 -3 4 -6 -2 -5 -13z" />
    <path d="M358 403 c-10 -2 -18 -8 -18 -11 0 -4 -3 -17 -6 -29 l-6 -23 12 0 12
0 -6 16 -6 15 9 -6 c5 -3 12 -1 16 5 3 5 15 10 26 10 l19 0 0 15 0 15 -17 -1
c-10 -1 -26 -3 -35 -6z" />
    <path d="M280 385 c0 -8 7 -15 15 -15 8 0 15 7 15 15 0 8 -7 15 -15 15 -8 0
-15 -7 -15 -15z" />
    <path d="M369 353 c-5 -40 -5 -63 2 -63 4 0 14 3 23 6 17 7 22 34 6 34 -5 0
-10 7 -10 15 0 15 -19 22 -21 8z" />
    <path d="M140 319 c0 -14 26 -39 39 -39 21 0 11 27 -14 38 l-25 12 0 -11z" />
    <path d="M210 315 l0 -15 20 0 20 0 0 15 0 15 -20 0 -20 0 0 -15z" />
    <path d="M310 315 l0 -15 -20 0 -20 0 0 -30 0 -30 15 0 c8 0 15 -5 15 -11 l0
-11 -30 7 -30 7 0 -15 c0 -8 -12 -25 -27 -38 l-28 -24 0 -77 0 -78 47 0 48 0
0 13 c0 7 -5 18 -11 24 l-10 10 15 6 16 6 0 -14 0 -15 24 0 25 0 6 19 6 19 18
-5 19 -5 0 36 0 36 -19 0 -19 0 -1 -17 -1 -18 -5 13 c-2 6 -13 12 -24 12 -10
0 -19 5 -19 10 l0 10 -25 -6 -25 -6 0 20 0 21 34 6 34 7 11 24 c6 13 15 24 21
24 5 0 10 7 10 15 l0 15 -25 0 c-31 0 -32 13 -3 32 l21 14 -7 12 c-10 17 -36
15 -36 -3z" />
    <path d="M124 276 c-10 -8 -16 -17 -13 -20 3 -3 14 1 25 8 10 8 16 17 13 20
-3 3 -14 -1 -25 -8z" />
    <path d="M671 274 l1 -19 5 13 c3 7 2 16 -1 19 -3 4 -6 -2 -5 -13z" />
    <path d="M140 234 c0 -17 22 -14 28 4 2 7 -3 12 -12 12 -9 0 -16 -7 -16 -16z" />
    <path d="M167 223 c-12 -11 -8 -23 8 -23 8 0 15 7 15 15 0 16 -12 20 -23 8z" />
    <path d="M66 134 l-6 -16 12 4 c15 5 23 28 10 28 -5 0 -13 -7 -16 -16z" />
    <path d="M426 134 c-4 -9 -4 -19 -2 -21 8 -8 26 8 26 23 0 19 -16 18 -24 -2z" />
    <path d="M445 100 l-6 -10 15 0 c9 0 16 5 16 10 0 6 -4 10 -9 10 -6 0 -13 -4
-16 -10z" />
    <path d="M402 88 c6 -18 28 -21 28 -4 0 9 -7 16 -16 16 -9 0 -14 -5 -12 -12z" />
    <path d="M383 43 c-18 -2 -33 -9 -33 -14 l0 -10 35 3 35 2 0 13 c0 7 -1 12 -2
11 -2 0 -18 -3 -35 -5z" />
    <path d="M310 10 c0 -5 7 -10 15 -10 8 0 15 5 15 10 0 6 -7 10 -15 10 -8 0
-15 -4 -15 -10z" />
  </g>
  <g transform="translate(0.000000,68.000000) scale(0.100000,-0.100000)" fill="#99a3a7" stroke="none">
    <path d="M260 656 c0 -9 7 -16 16 -16 9 0 14 5 12 12 -6 18 -28 21 -28 4z" />
    <path d="M605 659 c-4 -6 -5 -12 -3 -14 7 -7 48 7 48 16 0 13 -37 11 -45 -2z" />
    <path d="M376 644 l-6 -15 17 3 c9 2 18 9 21 16 6 18 -25 15 -32 -4z" />
    <path d="M333 546 l6 -15 -16 6 -16 6 7 -12 8 -12 -21 -6 c-20 -5 -30 -33 -12
-33 5 0 13 -9 16 -20 8 -24 21 -25 41 -5 l15 15 -6 20 -6 20 30 0 c17 0 31 5
31 10 0 6 -9 10 -20 10 -11 0 -23 7 -26 15 -4 8 -13 15 -21 15 l-15 0 5 -14z" />
    <path d="M483 553 c-18 -2 -33 -8 -33 -13 0 -5 -6 -7 -14 -4 l-13 5 -6 -28
c-6 -34 -1 -44 18 -37 8 4 12 10 9 15 l-5 9 15 -6 c9 -3 16 -10 16 -15 0 -5 7
-9 15 -9 21 0 19 16 -2 25 l-18 6 33 16 c17 8 32 22 32 29 0 8 -3 13 -7 12 -5
0 -23 -3 -40 -5z" />
    <path d="M229 535 c-4 -5 -10 -29 -14 -52 l-7 -43 11 0 c6 0 11 -9 11 -20 0
-11 4 -20 9 -20 12 0 44 50 36 58 -3 4 -10 0 -15 -8 l-9 -14 -5 25 c-3 13 -7
38 -8 54 -2 17 -6 26 -9 20z" />
    <path d="M366 448 c-8 -32 -7 -38 5 -38 16 0 39 26 39 44 l0 16 -19 0 -19 0
-6 -22z" />
    <path d="M513 453 c-18 -7 -16 -23 2 -23 8 0 15 7 15 15 0 8 -1 15 -2 14 -2 0
-9 -3 -15 -6z" />
    <path d="M462 419 c2 -6 8 -10 13 -10 5 0 11 4 13 10 2 6 -4 11 -13 11 -9 0
-15 -5 -13 -11z" />
    <path d="M260 390 c0 -11 -4 -20 -10 -20 -5 0 -10 -7 -10 -15 0 -8 -7 -15 -15
-15 -8 0 -15 -6 -15 -14 l0 -14 30 11 30 11 0 18 c0 10 5 18 10 18 6 0 10 9
10 20 l0 20 -15 0 -15 0 0 -20z" />
    <path d="M483 392 c-3 -7 -2 -16 2 -20 4 -4 10 -2 12 4 l4 12 19 -5 20 -5 0
15 0 15 -26 -2 c-15 0 -29 -7 -31 -14z" />
    <path d="M320 374 c0 -17 22 -14 28 4 2 7 -3 12 -12 12 -9 0 -16 -7 -16 -16z" />
    <path d="M82 338 c5 -15 28 -23 28 -10 0 5 -7 13 -16 16 l-16 6 4 -12z" />
    <path d="M306 324 c-10 -27 -7 -34 15 -34 l21 0 -11 14 -11 13 24 -2 c14 -2
30 -6 37 -11 l12 -7 -8 13 -8 13 16 -6 17 -6 0 14 0 15 -49 0 -49 0 -6 -16z" />
    <path d="M168 316 c-10 -7 -18 -20 -18 -28 l0 -15 25 5 25 4 0 24 c0 27 -7 29
-32 10z" />
    <path d="M250 303 c0 -5 4 -25 9 -46 l9 -37 -11 -7 -10 -6 7 11 7 12 -15 0
c-9 0 -16 -4 -16 -10 0 -5 -5 -10 -11 -10 -6 0 -17 -7 -25 -15 l-16 -15 7 -33
c10 -44 15 -50 30 -37 l14 12 -9 22 -8 22 20 13 20 12 -7 -13 c-3 -7 3 -2 14
11 12 13 21 20 21 16 0 -4 7 -2 15 5 8 7 15 25 15 41 l0 29 -15 0 c-8 0 -15 7
-15 15 0 8 -7 15 -15 15 -8 0 -15 -3 -15 -7z m47 -50 c-4 -3 -10 -3 -14 0 -3
4 0 7 7 7 7 0 10 -3 7 -7z" />
    <path d="M670 290 c0 -7 3 -10 7 -7 3 4 3 10 0 14 -4 3 -7 0 -7 -7z" />
    <path d="M220 255 c0 -8 7 -15 15 -15 8 0 15 7 15 15 0 8 -7 15 -15 15 -8 0
-15 -7 -15 -15z" />
    <path d="M325 233 l0 -28 18 -3 17 -3 0 15 c0 8 -5 18 -10 21 -6 4 -8 11 -5
16 4 5 0 9 -7 9 l-14 0 1 -27z" />
    <path d="M100 189 l0 -21 13 4 c6 3 13 12 15 21 l3 17 -15 0 -16 0 0 -21z" />
    <path d="M295 130 c-3 -5 -13 -6 -23 -3 l-17 6 18 -20 c9 -11 14 -23 10 -26
-3 -4 -1 -7 5 -7 6 0 15 8 21 17 5 10 13 15 16 11 11 -11 -24 -41 -40 -34 -8
3 -15 1 -15 -3 0 -5 -8 -12 -17 -15 l-17 -7 17 19 c19 20 23 37 7 27 l-10 -6
0 15 c0 18 -15 21 -25 7 -3 -5 -1 -13 5 -16 l11 -7 -10 -12 c-6 -7 -7 -17 -3
-21 l7 -8 -12 7 -13 7 0 -12 c0 -7 -3 -9 -7 -6 -3 4 2 16 12 27 l18 20 -16 0
-16 0 -25 -42 -26 -43 16 -3 c9 -2 20 2 25 10 l8 13 21 -12 c24 -16 40 -17 40
-2 l0 11 -15 -6 c-8 -3 -15 -1 -15 4 0 15 21 12 41 -6 l18 -16 30 7 31 7 0 19
c0 17 11 24 33 20 4 0 7 6 7 15 0 8 -4 13 -9 9 -5 -3 -12 -1 -16 5 -4 6 -12 7
-18 4 l-12 -7 13 14 c6 7 12 21 12 31 l0 18 -29 0 c-17 0 -32 -4 -36 -10z m39
-75 c-4 -8 -8 -15 -10 -15 -2 0 -4 7 -4 15 0 8 4 15 10 15 5 0 7 -7 4 -15z" />
  </g>
  <g transform="translate(0.000000,68.000000) scale(0.100000,-0.100000)" fill="#869095" stroke="none">
    <path d="M330 555 c0 -6 7 -12 15 -12 8 0 15 6 15 12 0 6 -7 12 -15 12 -8 0
-15 -6 -15 -12z" />
    <path d="M494 544 c-10 -8 -13 -12 -5 -8 l14 7 -7 -11 c-4 -6 -13 -9 -20 -6
-19 7 -25 -7 -15 -34 l9 -23 22 3 23 3 0 24 c0 14 6 26 13 29 16 5 15 32 -1
32 -7 0 -22 -7 -33 -16z m6 -48 c0 -3 -4 -8 -10 -11 -5 -3 -10 -1 -10 4 0 6 5
11 10 11 6 0 10 -2 10 -4z" />
    <path d="M418 532 l4 -13 -13 3 -14 3 3 -14 3 -13 -16 5 -15 6 0 -14 0 -14 13
4 12 5 1 -25 2 -25 -12 0 c-7 0 -13 -7 -13 -16 l0 -16 23 5 24 4 5 -18 c8 -25
-2 -40 -22 -32 l-16 6 6 -30 6 -31 -17 -7 -17 -7 20 -8 20 -7 12 16 c7 9 13
23 13 32 l0 17 25 6 25 6 0 25 0 24 -20 -4 -20 -4 0 15 c0 8 -4 14 -10 14 -16
0 -11 40 6 47 l16 6 -13 8 -13 8 23 25 24 25 -30 -2 -30 -2 5 -13z m32 4 c0
-3 -5 -8 -12 -12 l-11 -7 7 11 c7 12 16 16 16 8z m-20 -50 c0 -3 -4 -8 -10
-11 -5 -3 -10 -1 -10 4 0 6 5 11 10 11 6 0 10 -2 10 -4z m37 -103 c-4 -3 -10
-3 -14 0 -3 4 0 7 7 7 7 0 10 -3 7 -7z" />
    <path d="M229 496 c-3 -3 -3 -23 -1 -45 l4 -39 20 3 20 4 -14 -16 -13 -17 19
7 18 7 -6 -15 -5 -15 13 0 c7 0 13 7 13 15 0 8 -4 15 -8 15 -4 0 -11 9 -14 20
-3 11 -12 20 -19 20 l-13 0 3 30 c3 27 -5 38 -17 26z" />
    <path d="M267 488 l-12 -7 14 -13 14 -13 4 13 5 12 11 -7 c18 -11 38 -12 31
-2 -3 5 0 9 5 9 6 0 11 4 11 8 0 10 -68 10 -83 0z" />
    <path d="M360 390 c0 -5 -6 -7 -14 -4 l-14 5 3 -43 c3 -55 4 -56 16 -35 l11
19 -11 11 c-17 17 -13 26 9 22 l21 -4 -6 10 c-4 5 -1 9 5 9 6 0 8 5 5 10 -8
13 -25 13 -25 0z" />
    <path d="M279 273 c0 -5 -2 -16 -4 -26 l-3 -17 11 1 c24 3 37 -1 37 -12 0 -5
-4 -7 -10 -4 l-10 6 6 -14 5 -14 -25 -5 -25 -5 5 8 c3 5 1 9 -5 9 -6 0 -15
-15 -20 -32 -5 -18 -10 -27 -10 -20 -2 20 -21 13 -21 -8 0 -11 5 -20 11 -20 5
0 7 -5 3 -11 l-6 -11 19 11 c11 5 28 10 39 10 10 0 31 3 47 7 l27 6 0 -11 0
-10 -15 5 -15 6 5 -14 c3 -7 15 -19 26 -26 l21 -13 -8 13 -8 13 17 -14 17 -13
0 11 c0 6 7 11 15 11 13 0 20 -18 16 -42 0 -5 5 -8 13 -8 l15 0 -2 19 -1 20
-11 -7 c-5 -3 -4 2 4 11 7 9 18 14 24 10 l10 -6 -6 17 c-4 10 -7 24 -7 32 0 8
-7 14 -15 14 l-16 0 11 -19 c5 -11 10 -22 10 -25 0 -10 -28 -7 -35 4 l-6 10
15 -6 c28 -11 17 5 -15 21 -16 9 -38 15 -47 14 -34 -3 -62 1 -62 9 0 5 9 19
20 32 11 12 17 26 15 30 -3 5 4 6 15 3 l20 -5 0 16 c0 19 -5 20 -30 6 l-19
-10 -6 10 -6 10 20 0 21 0 0 15 c0 18 -12 19 -28 3 l-12 -12 0 12 c0 13 -29
17 -31 5z m21 -13 c0 -5 -5 -10 -11 -10 -5 0 -7 5 -4 10 3 6 8 10 11 10 2 0 4
-4 4 -10z m-15 -130 c3 -5 4 -10 1 -10 -3 0 -8 5 -11 10 -3 6 -4 10 -1 10 3 0
8 -4 11 -10z m92 -17 c-4 -3 -10 -3 -14 0 -3 4 0 7 7 7 7 0 10 -3 7 -7z" />
    <path d="M670 260 c0 -7 3 -10 7 -7 3 4 3 10 0 14 -4 3 -7 0 -7 -7z" />
    <path d="M122 223 c-5 -10 -7 -24 -5 -31 l5 -12 18 22 c18 22 18 38 0 38 -5 0
-13 -8 -18 -17z" />
    <path d="M90 154 c0 -17 22 -14 28 4 2 7 -3 12 -12 12 -9 0 -16 -7 -16 -16z" />
    <path d="M186 141 c-4 -7 -5 -15 -2 -18 9 -9 19 4 14 18 l-4 13 -8 -13z" />
    <path d="M217 83 c-2 -5 -3 -15 -2 -23 1 -8 3 -25 3 -37 1 -13 6 -23 10 -23
11 0 9 31 -3 49 l-8 14 22 -6 23 -6 -18 20 c-19 21 -21 22 -27 12z" />
    <path d="M285 80 c3 -5 11 -10 16 -10 6 0 7 5 4 10 -3 6 -11 10 -16 10 -6 0
-7 -4 -4 -10z" />
    <path d="M177 57 l-5 -14 14 0 c8 0 14 6 14 14 0 7 -4 13 -9 13 -5 0 -11 -6
-14 -13z" />
    <path d="M326 42 c-3 -5 -17 -12 -31 -14 l-24 -5 -4 10 c-2 6 -6 3 -10 -7 l-7
-17 9 6 c5 3 12 1 16 -5 l6 -10 18 10 c10 5 21 7 24 3 10 -10 87 -14 87 -4 0
5 -10 7 -22 4 l-23 -5 15 11 c8 6 13 11 10 12 -3 0 -13 2 -22 4 -10 2 -20 -1
-24 -6 -3 -5 -11 -9 -17 -9 l-12 0 15 10 c8 5 12 12 8 15 -3 4 -9 2 -12 -3z" />
    <path d="M157 17 l-5 -14 14 0 c16 0 19 13 5 21 -5 3 -11 0 -14 -7z" />
  </g>
  <g transform="translate(0.000000,68.000000) scale(0.100000,-0.100000)" fill="#6d7274" stroke="none">
    <path d="M613 657 c0 -8 6 -14 14 -14 7 0 12 5 10 11 -5 15 -24 18 -24 3z" />
    <path d="M650 666 c0 -2 7 -9 15 -16 l15 -13 -6 17 c-3 9 -10 16 -15 16 -5 0
-9 -2 -9 -4z" />
    <path d="M229 658 c0 -2 -2 -10 -4 -18 l-3 -16 19 -1 19 -2 0 20 0 19 -15 0
c-8 0 -15 -1 -16 -2z" />
    <path d="M283 595 l-1 -54 19 -6 c10 -4 23 -4 28 -1 12 8 21 46 10 46 -4 0 -6
7 -3 15 l6 15 -15 0 c-8 0 -17 9 -20 20 -10 38 -23 20 -24 -35z" />
    <path d="M552 590 c-9 -16 -21 -30 -25 -30 -5 0 -6 -4 -3 -9 3 -5 -9 -16 -28
-25 -18 -8 -39 -23 -47 -33 l-14 -17 12 7 c23 14 20 -8 -4 -33 l-25 -25 6 26
6 26 -13 0 -13 0 1 -21 c0 -12 4 -27 9 -35 l9 -14 -11 7 -12 7 0 -20 c0 -12 5
-21 10 -21 l10 0 -2 -31 c-1 -17 -6 -33 -10 -35 -10 -7 -10 -25 0 -22 4 0 15
-2 26 -7 l18 -8 8 13 c4 7 6 24 4 36 l-4 24 25 6 26 6 -12 14 -11 14 11 0 c7
0 10 4 7 8 -2 4 -1 13 2 19 l8 12 14 -9 14 -8 -13 -16 -13 -16 11 0 c6 0 11 5
11 11 l0 11 13 -10 12 -11 2 31 1 30 -11 -11 -11 -11 -13 22 c-7 13 -12 17
-13 10 0 -7 -4 -10 -10 -7 l-10 6 0 -20 c0 -30 -17 -34 -35 -9 l-16 23 16 3
c8 2 13 8 10 13 l-6 9 23 0 c34 0 68 11 68 22 0 5 -4 7 -9 4 -5 -3 -14 1 -20
8 l-12 14 13 9 c7 4 13 15 13 23 0 8 6 14 13 13 6 -2 12 0 13 5 0 4 2 17 5 30
2 12 1 22 -2 22 -2 0 -13 -13 -22 -30z m-47 -100 c-3 -5 -13 -10 -21 -10 -8 0
-14 5 -14 10 0 6 9 10 21 10 l20 0 -6 -10z m-42 -117 l-18 -14 -3 11 c-2 6 2
18 9 26 7 8 8 14 3 13 -18 -3 -25 1 -18 13 l7 11 19 -23 20 -24 -19 -13z" />
    <path d="M580 595 c0 -3 10 -10 23 -15 l22 -9 -17 0 c-19 -1 -24 -16 -9 -25
13 -8 34 21 27 39 -3 8 -15 15 -26 15 -11 0 -20 -2 -20 -5z" />
    <path d="M224 538 c2 -24 5 -45 6 -48 1 -3 2 -7 2 -10 0 -3 8 -6 18 -7 l18 -2
-12 31 -11 31 13 4 c6 3 12 11 12 18 0 12 -21 25 -41 25 l-9 0 4 -42z" />
    <path d="M269 464 l-11 -14 13 1 c16 0 57 17 49 19 -26 8 -41 6 -51 -6z" />
    <path d="M285 430 c-8 -26 -1 -35 20 -26 l16 6 -3 17 c-5 25 -25 27 -33 3z
m25 6 c0 -3 -5 -8 -12 -12 l-11 -7 7 11 c7 12 16 16 16 8z" />
    <path d="M344 318 c-4 -5 -3 -12 0 -15 3 -4 6 -1 6 6 0 7 4 10 9 6 5 -3 12 -2
15 3 3 5 -2 9 -10 9 -8 0 -17 -4 -20 -9z" />
    <path d="M160 310 c0 -5 5 -10 10 -10 6 0 10 5 10 10 0 6 -4 10 -10 10 -5 0
-10 -4 -10 -10z" />
    <path d="M340 281 c-13 -11 -28 -17 -32 -15 -4 3 -8 0 -8 -5 0 -14 13 -14 26
-1 l10 10 12 -20 12 -20 -11 0 c-5 0 -7 -4 -4 -10 l6 -10 -15 6 -15 6 -7 -26
-6 -26 -15 0 c-8 0 -11 -4 -8 -10 l6 -10 -20 0 c-22 0 -28 -14 -11 -25 6 -3
10 -2 10 3 0 5 15 8 34 6 l35 -2 5 14 c3 7 1 16 -4 19 -14 9 1 37 16 31 l13
-5 -6 15 -5 14 11 0 c6 0 11 9 11 20 0 11 6 20 13 20 6 1 1 7 -12 14 l-24 13
14 6 c8 3 10 6 4 6 -5 0 -21 -8 -35 -18z m-23 -128 c-4 -3 -10 -3 -14 0 -3 4
0 7 7 7 7 0 10 -3 7 -7z" />
    <path d="M672 230 c0 -14 2 -19 5 -12 2 6 2 18 0 25 -3 6 -5 1 -5 -13z" />
    <path d="M418 162 c-16 -2 -28 -8 -28 -13 0 -5 9 -18 21 -30 l21 -21 -11 -11
c-16 -16 -13 -27 7 -28 l17 -1 -12 -5 c-7 -2 -13 -10 -13 -15 0 -6 3 -8 7 -5
3 4 12 2 20 -4 l13 -11 0 12 c0 8 -8 22 -17 32 l-17 19 14 9 15 10 -13 0 -13
0 7 11 7 12 19 -24 c11 -13 17 -18 13 -11 -3 6 -1 12 4 12 6 0 11 4 11 10 l0
9 -17 -6 -18 -7 11 15 11 14 -16 15 -16 15 -27 -3z m21 -21 l13 -8 -11 -7
c-13 -8 -31 1 -31 15 0 11 11 11 29 0z" />
    <path d="M180 131 c0 -5 5 -13 10 -16 6 -3 10 -2 10 4 0 5 -4 13 -10 16 -5 3
-10 2 -10 -4z" />
    <path d="M565 100 c3 -5 8 -10 11 -10 2 0 4 5 4 10 0 6 -5 10 -11 10 -5 0 -7
-4 -4 -10z" />
    <path d="M380 75 c0 -14 5 -25 10 -25 6 0 10 4 10 9 0 5 3 16 6 25 l6 16 -16
0 -16 0 0 -25z" />
    <path d="M190 80 c-8 -5 -11 -12 -7 -16 4 -4 13 -2 19 4 15 15 7 24 -12 12z" />
    <path d="M493 71 l-2 -18 15 0 c17 0 18 11 1 25 l-13 11 -1 -18z" />
    <path d="M696 75 c8 -19 14 -19 14 0 0 8 -4 15 -10 15 -5 0 -7 -7 -4 -15z" />
    <path d="M350 60 c0 -5 5 -10 10 -10 6 0 10 5 10 10 0 6 -4 10 -10 10 -5 0
-10 -4 -10 -10z" />
    <path d="M583 63 c4 -3 10 -3 14 0 3 4 0 7 -7 7 -7 0 -10 -3 -7 -7z" />
    <path d="M334 27 l1 -23 23 -2 22 -2 -16 25 c-9 14 -20 25 -24 25 -4 0 -7 -10
-6 -23z" />
  </g>
  <g transform="translate(0.000000,68.000000) scale(0.100000,-0.100000)" fill="#5f666b" stroke="none">
    <path d="M610 630 c-8 -5 -12 -12 -9 -15 4 -3 12 1 19 10 14 17 11 19 -10 5z" />
    <path d="M220 595 l0 -32 15 0 15 0 0 32 0 32 -15 0 -15 0 0 -32z m17 -2 c-4
-3 -7 0 -7 7 0 7 3 10 7 7 3 -4 3 -10 0 -14z" />
    <path d="M327 593 c-9 -9 -9 -41 1 -46 4 -3 7 8 7 24 1 16 0 29 0 29 -1 0 -5
-3 -8 -7z" />
    <path d="M585 590 c3 -5 8 -10 11 -10 3 0 2 5 -1 10 -3 6 -8 10 -11 10 -3 0
-2 -4 1 -10z" />
    <path d="M620 574 l-11 -28 -10 14 -11 15 4 -14 c2 -8 12 -15 22 -17 10 -1 15
0 12 3 -3 3 -1 14 5 25 6 11 8 22 5 25 -3 3 -10 -7 -16 -23z" />
    <path d="M544 538 l-7 -11 11 7 c7 4 12 9 12 12 0 8 -9 4 -16 -8z" />
    <path d="M650 542 c0 -5 7 -9 15 -9 8 0 12 4 9 9 -3 4 -9 8 -15 8 -5 0 -9 -4
-9 -8z" />
    <path d="M519 526 l12 -14 -12 -4 -13 -4 9 -20 c4 -10 8 -22 7 -26 -1 -4 5 -5
13 -2 l14 6 -15 15 -15 16 10 10 c11 11 4 37 -11 37 l-10 0 11 -14z" />
    <path d="M445 509 c-3 -3 1 -12 9 -18 l14 -11 4 18 5 19 -14 0 c-8 0 -16 -4
-18 -8z" />
    <path d="M544 488 l-7 -11 11 7 c7 4 12 9 12 12 0 8 -9 4 -16 -8z" />
    <path d="M276 464 l-5 -14 24 0 c30 0 33 16 6 23 l-20 5 -5 -14z" />
    <path d="M411 458 c-16 -26 -13 -37 4 -14 8 11 17 17 21 14 9 -10 -16 -49 -27
-43 -5 4 -9 -1 -9 -10 l0 -17 -16 6 -15 6 6 -10 c8 -13 35 -13 35 0 0 6 5 10
10 10 l10 0 -6 -27 c-4 -16 -4 -25 1 -21 4 3 8 22 10 42 2 19 6 40 10 46 l7
11 13 -11 c14 -11 35 -6 35 9 0 4 -17 12 -39 17 l-38 11 -12 -19z" />
    <path d="M670 430 c0 -7 3 -10 7 -7 3 4 3 10 0 14 -4 3 -7 0 -7 -7z" />
    <path d="M246 414 l-6 -17 15 13 c17 14 19 20 6 20 -5 0 -12 -7 -15 -16z" />
    <path d="M565 413 l-5 -14 17 3 c9 2 18 8 20 14 5 16 -25 13 -32 -3z" />
    <path d="M320 366 c0 -9 5 -16 10 -16 6 0 10 4 10 9 0 6 -4 13 -10 16 l-10 6
0 -15z" />
    <path d="M464 365 c-4 -8 -11 -12 -17 -8 l-10 6 7 -11 c4 -7 4 -17 1 -23 l-7
-10 -19 17 c-10 9 -16 21 -13 25 3 5 -4 9 -15 9 -29 0 -26 -19 4 -30 l26 -10
-11 -21 c-7 -11 -9 -23 -7 -26 3 -2 18 -7 35 -9 l29 -5 -2 26 -3 25 11 0 12 0
-13 8 -13 9 7 16 c3 9 10 14 15 11 5 -3 9 0 9 5 0 16 -20 13 -26 -4z m-8 -50
c-1 -8 -5 -17 -8 -21 -4 -3 -5 2 -3 13 5 23 4 23 9 23 2 0 3 -7 2 -15z m-26
-9 c0 -3 -5 -8 -12 -12 l-11 -7 7 11 c7 12 16 16 16 8z" />
    <path d="M345 330 c3 -5 8 -10 11 -10 2 0 4 5 4 10 0 6 -5 10 -11 10 -5 0 -7
-4 -4 -10z" />
    <path d="M330 300 l-15 -10 12 0 c6 0 15 5 18 10 8 12 4 12 -15 0z" />
    <path d="M354 288 l-7 -11 11 7 c12 7 16 16 8 16 -3 0 -8 -5 -12 -12z" />
    <path d="M358 272 c-22 -4 -23 -21 -4 -28 l15 -6 -22 -23 c-12 -12 -25 -20
-29 -18 -5 2 -8 -2 -8 -9 0 -16 19 -47 20 -33 0 6 6 2 14 -7 l13 -17 21 6 c29
7 28 25 -1 19 -12 -2 -31 2 -42 10 l-19 14 18 0 c9 0 15 4 11 9 -3 5 4 16 16
24 l21 15 -4 24 -3 23 -17 -3z" />
    <path d="M430 160 l-15 -10 23 -6 c12 -4 22 -11 22 -16 0 -5 -4 -6 -10 -3 -14
9 -12 -1 3 -13 l13 -11 1 20 c1 11 -5 23 -13 26 -7 3 -11 9 -8 14 7 11 3 11
-16 -1z" />
    <path d="M270 144 c0 -1 6 -7 14 -13 l14 -12 5 14 5 13 -19 0 c-11 0 -19 -1
-19 -2z" />
    <path d="M409 125 c-1 -3 -2 -9 -3 -14 0 -5 -4 -13 -8 -17 -12 -11 -10 -26 2
-19 6 3 10 1 10 -6 l0 -11 19 5 18 4 -3 -36 -3 -36 14 18 c8 11 11 25 9 32
l-6 14 21 -6 21 -5 0 11 c0 11 -4 12 -55 15 l-30 1 1 28 c1 15 0 27 -2 27 -2
0 -5 -2 -5 -5z" />
    <path d="M190 104 l0 -15 10 6 c6 4 8 11 5 16 -9 14 -15 11 -15 -7z" />
    <path d="M480 110 c0 -5 5 -10 10 -10 6 0 10 5 10 10 0 6 -4 10 -10 10 -5 0
-10 -4 -10 -10z" />
    <path d="M548 99 c-24 -13 -13 -34 20 -36 15 -1 22 1 15 3 -7 3 -10 11 -7 19
7 18 -8 25 -28 14z m22 -9 c0 -5 -8 -10 -17 -10 l-18 0 15 10 c19 12 20 12 20
0z" />
    <path d="M333 93 c4 -3 10 -3 14 0 3 4 0 7 -7 7 -7 0 -10 -3 -7 -7z" />
    <path d="M507 49 l-5 -20 15 -6 15 -6 16 17 16 16 -22 0 -23 0 6 10 c3 6 2 10
-3 10 -5 0 -12 -9 -15 -21z m30 -16 c-4 -3 -10 -3 -14 0 -3 4 0 7 7 7 7 0 10
-3 7 -7z" />
    <path d="M413 30 l5 -19 -27 16 -26 17 23 -23 c12 -12 27 -19 32 -16 14 8 13
45 -1 45 l-11 0 5 -20z" />
    <path d="M325 10 c3 -5 8 -10 11 -10 3 0 2 5 -1 10 -3 6 -8 10 -11 10 -3 0 -2
-4 1 -10z" />
    <path d="M355 10 c-3 -5 -1 -10 4 -10 6 0 11 5 11 10 0 6 -2 10 -4 10 -3 0 -8
-4 -11 -10z" />
  </g>
  <g transform="translate(0.000000,68.000000) scale(0.100000,-0.100000)" fill="#3e4346" stroke="none">
    <path d="M628 650 l6 -15 -16 13 -16 13 -5 -15 c-4 -9 -1 -18 5 -22 l11 -7 -7
11 -7 12 19 -3 c11 -2 27 -9 35 -15 l15 -13 7 11 6 10 -17 0 -16 0 5 19 5 20
-18 -2 -18 -1 6 -16z" />
    <path d="M633 599 c-1 -10 2 -19 8 -19 11 0 12 27 1 34 -4 2 -9 -4 -9 -15z" />
    <path d="M556 577 c3 -10 9 -15 12 -12 3 3 0 11 -7 18 l-12 12 7 -18z" />
    <path d="M594 538 l-7 -11 11 7 c12 7 16 16 8 16 -3 0 -8 -5 -12 -12z" />
    <path d="M640 540 c0 -5 5 -10 10 -10 6 0 10 5 10 10 0 6 -4 10 -10 10 -5 0
-10 -4 -10 -10z" />
    <path d="M673 533 c-3 -10 -7 -21 -9 -24 -2 -3 3 -6 11 -6 l15 0 -2 24 c-1 13
-4 23 -5 23 -2 0 -6 -8 -10 -17z" />
    <path d="M533 513 c4 -3 10 -3 14 0 3 4 0 7 -7 7 -7 0 -10 -3 -7 -7z" />
    <path d="M630 491 c0 -5 -8 -12 -17 -14 l-18 -5 26 1 26 1 0 13 c0 7 -4 13 -9
13 -4 0 -8 -4 -8 -9z" />
    <path d="M420 476 c0 -3 9 -10 20 -16 11 -6 20 -8 20 -6 0 3 -9 10 -20 16 -11
6 -20 8 -20 6z" />
    <path d="M560 460 c0 -7 3 -10 7 -7 3 4 3 10 0 14 -4 3 -7 0 -7 -7z" />
    <path d="M485 450 c3 -5 11 -10 16 -10 6 0 7 5 4 10 -3 6 -11 10 -16 10 -6 0
-7 -4 -4 -10z" />
    <path d="M583 443 c-13 -2 -23 -9 -23 -15 0 -5 -7 -8 -15 -4 l-15 5 0 -14 c0
-19 10 -19 34 0 10 8 22 12 26 10 5 -3 10 2 14 10 3 8 4 14 3 14 -1 -1 -12 -4
-24 -6z" />
    <path d="M450 419 l0 -21 15 12 c8 7 15 16 15 21 0 5 -7 9 -15 9 l-15 0 0 -21z" />
    <path d="M610 420 c0 -7 3 -10 7 -7 3 4 3 10 0 14 -4 3 -7 0 -7 -7z" />
    <path d="M595 390 c-3 -5 -1 -10 4 -10 6 0 11 5 11 10 0 6 -2 10 -4 10 -3 0
-8 -4 -11 -10z" />
    <path d="M665 391 c-3 -5 -1 -12 5 -16 l10 -6 0 15 c0 18 -6 21 -15 7z" />
    <path d="M522 365 c4 -4 0 -14 -10 -21 l-17 -13 23 6 c24 6 29 18 10 29 -7 4
-10 4 -6 -1z" />
    <path d="M343 333 c4 -3 10 -3 14 0 3 4 0 7 -7 7 -7 0 -10 -3 -7 -7z" />
    <path d="M445 300 c3 -5 8 -10 11 -10 3 0 2 5 -1 10 -3 6 -8 10 -11 10 -3 0
-2 -4 1 -10z" />
    <path d="M553 283 c4 -3 10 -3 14 0 3 4 0 7 -7 7 -7 0 -10 -3 -7 -7z" />
    <path d="M448 273 c7 -3 16 -2 19 1 4 3 -2 6 -13 5 l-19 -1 13 -5z" />
    <path d="M525 260 c3 -5 8 -10 11 -10 3 0 2 5 -1 10 -3 6 -8 10 -11 10 -3 0
-2 -4 1 -10z" />
    <path d="M534 228 l-7 -11 11 7 c12 7 16 16 8 16 -3 0 -8 -5 -12 -12z" />
    <path d="M499 203 l-14 -18 18 14 c9 7 17 15 17 17 0 8 -8 3 -21 -13z" />
    <path d="M364 198 l-7 -11 11 7 c7 4 12 9 12 12 0 8 -9 4 -16 -8z" />
    <path d="M564 178 l-7 -11 11 7 c12 7 16 16 8 16 -3 0 -8 -5 -12 -12z" />
    <path d="M349 163 l-14 -17 13 8 12 7 0 -10 c0 -6 5 -11 11 -11 l11 0 -11 13
c-6 8 -8 17 -4 20 3 4 4 7 1 7 -3 0 -12 -8 -19 -17z" />
    <path d="M435 170 c4 -6 10 -8 15 -5 5 3 11 1 15 -5 4 -6 10 -8 15 -5 5 3 12
0 17 -7 4 -7 18 -14 30 -14 l23 -1 -6 9 c-3 5 -8 7 -11 4 -3 -3 -18 3 -33 14
-16 11 -38 20 -50 20 l-21 0 6 -10z" />
    <path d="M315 160 c3 -5 8 -10 11 -10 2 0 4 5 4 10 0 6 -5 10 -11 10 -5 0 -7
-4 -4 -10z" />
    <path d="M575 139 c-11 -17 1 -21 15 -4 l12 15 -10 0 c-6 0 -14 -5 -17 -11z" />
    <path d="M610 120 l15 -10 -17 0 c-10 0 -18 -4 -18 -9 0 -5 10 -7 22 -3 l21 5
-7 -11 c-11 -18 3 -14 22 5 l17 17 -17 -6 -16 -7 -6 15 c-3 8 -11 14 -18 14
l-13 0 15 -10z" />
    <path d="M570 90 c0 -7 3 -10 7 -7 3 4 3 10 0 14 -4 3 -7 0 -7 -7z" />
    <path d="M380 80 c0 -5 5 -10 10 -10 6 0 10 5 10 10 0 6 -4 10 -10 10 -5 0
-10 -4 -10 -10z" />
    <path d="M470 79 c0 -5 5 -7 10 -4 6 3 10 8 10 11 0 2 -4 4 -10 4 -5 0 -10 -5
-10 -11z" />
    <path d="M436 72 c-2 -4 -1 -14 3 -21 l9 -13 6 11 7 11 -11 0 c-6 0 -8 5 -5
10 3 6 4 10 1 10 -3 0 -7 -4 -10 -8z" />
    <path d="M540 70 c0 -7 3 -10 7 -7 3 4 3 10 0 14 -4 3 -7 0 -7 -7z" />
    <path d="M517 63 c-10 -9 -9 -23 1 -23 5 0 9 7 9 15 0 17 -1 18 -10 8z" />
    <path d="M618 63 c7 -3 16 -2 19 1 4 3 -2 6 -13 5 l-19 -1 13 -5z" />
    <path d="M694 58 l-7 -11 11 7 c7 4 12 9 12 12 0 8 -9 4 -16 -8z" />
    <path d="M339 43 c-7 -10 -9 -15 -5 -11 5 4 15 0 23 -10 l14 -17 -10 21 c-6
12 -7 24 -4 28 3 3 4 6 1 6 -3 0 -12 -8 -19 -17z" />
    <path d="M383 53 c4 -3 10 -3 14 0 3 4 0 7 -7 7 -7 0 -10 -3 -7 -7z" />
    <path d="M550 46 c0 -2 6 -9 14 -15 l14 -12 6 16 5 15 -19 0 c-11 0 -20 -2
-20 -4z" />
    <path d="M406 24 c-8 -22 -4 -25 11 -9 l13 14 -9 5 c-5 3 -12 -1 -15 -10z" />
    <path d="M468 33 c7 -3 16 -2 19 1 4 3 -2 6 -13 5 l-19 -1 13 -5z" />
    <path d="M440 10 c0 -7 3 -10 7 -7 3 4 3 10 0 14 -4 3 -7 0 -7 -7z" />
    <path d="M483 3 c4 -3 10 -3 14 0 3 4 0 7 -7 7 -7 0 -10 -3 -7 -7z" />
  </g>
  <g transform="translate(0.000000,68.000000) scale(0.100000,-0.100000)" fill="#a2aaaf" stroke="none">
    <path d="M240 660 c0 -5 7 -10 15 -10 8 0 15 5 15 10 0 6 -7 10 -15 10 -8 0
-15 -4 -15 -10z" />
    <path d="M480 581 c-14 -27 -13 -41 5 -41 l15 0 0 30 c0 17 -2 30 -5 30 -2 0
-9 -9 -15 -19z" />
    <path d="M546 584 l-6 -17 15 13 c17 14 19 20 6 20 -5 0 -12 -7 -15 -16z" />
    <path d="M346 534 l-6 -16 -20 5 -20 5 6 -9 c3 -5 -4 -9 -15 -9 -11 0 -26 -9
-34 -20 -8 -11 -17 -18 -20 -15 -4 3 -5 2 -2 -2 3 -3 0 -12 -6 -19 l-10 -12 7
-26 6 -26 16 0 16 0 -16 -12 c-21 -18 -28 -44 -15 -57 l11 -11 -12 0 c-7 0
-12 5 -12 10 0 6 -4 10 -10 10 -5 0 -10 -7 -10 -15 0 -7 -7 -18 -16 -23 l-17
-9 13 -8 12 -8 9 14 9 14 0 -20 c0 -11 -5 -27 -10 -35 l-10 -15 0 18 0 17 -15
0 c-17 0 -20 -25 -5 -35 6 -4 8 -10 6 -13 -2 -4 2 -18 10 -32 7 -14 13 -19 14
-11 l0 13 14 -5 15 -6 6 19 c4 11 3 25 -1 31 l-6 11 21 -11 21 -12 0 20 c0 11
5 23 10 26 6 3 10 11 10 16 l0 10 -12 -7 -11 -7 7 11 c4 7 13 12 21 12 14 0
31 33 18 37 -4 2 -15 8 -23 14 l-15 11 13 5 c16 6 15 23 -1 23 -21 0 -49 36
-45 57 2 10 10 17 16 16 7 -2 11 3 10 10 l-3 12 14 -3 14 -3 -12 14 -12 15 31
-2 c16 -1 30 1 30 5 0 4 8 6 17 5 10 0 18 4 18 9 0 6 4 16 8 23 l8 12 -14 0
c-8 0 -18 -7 -21 -16z m-89 -191 c-4 -3 -7 0 -7 7 0 7 3 10 7 7 3 -4 3 -10 0
-14z m7 -35 c-1 -13 -3 -26 -3 -30 -1 -5 -5 -8 -9 -8 -5 0 -7 14 -4 30 5 35
20 41 16 8z m-37 -115 c-4 -3 -10 -3 -14 0 -3 4 0 7 7 7 7 0 10 -3 7 -7z" />
    <path d="M394 518 l-7 -11 11 7 c7 4 12 9 12 12 0 8 -9 4 -16 -8z" />
    <path d="M434 519 c-8 -14 14 -19 25 -6 l11 14 -16 0 c-8 0 -17 -4 -20 -8z" />
    <path d="M220 511 c0 -6 4 -13 10 -16 l10 -6 -6 15 c-7 18 -14 21 -14 7z" />
    <path d="M405 497 l-8 -18 -30 7 -30 6 7 -11 c4 -6 2 -11 -3 -11 -6 0 -11 -5
-11 -11 l0 -11 16 6 16 6 -2 -33 c-3 -47 -1 -51 15 -37 8 6 19 9 25 5 l10 -6
0 15 0 16 -22 1 c-13 0 -17 3 -10 6 6 2 10 9 6 14 -3 5 4 18 17 28 l22 17 -5
15 -6 14 -7 -18z" />
    <path d="M520 426 c0 -9 5 -16 10 -16 6 0 10 4 10 9 0 6 -4 13 -10 16 l-10 6
0 -15z" />
    <path d="M186 385 l-5 -15 14 0 c8 0 15 7 15 15 0 8 -4 15 -9 15 -5 0 -11 -7
-15 -15z" />
    <path d="M470 385 c0 -8 4 -15 9 -15 5 0 11 7 15 15 l5 15 -14 0 c-8 0 -15 -7
-15 -15z" />
    <path d="M50 352 c0 -5 11 -14 25 -20 29 -13 31 -10 9 12 -17 17 -34 21 -34 8z" />
    <path d="M375 339 c-11 -17 0 -20 21 -4 l19 14 -17 1 c-9 0 -20 -5 -23 -11z" />
    <path d="M170 320 c-8 -5 -12 -12 -9 -15 4 -3 12 1 19 10 14 17 11 19 -10 5z" />
    <path d="M670 300 c0 -7 3 -10 7 -7 3 4 3 10 0 14 -4 3 -7 0 -7 -7z" />
    <path d="M85 280 c-3 -6 0 -17 9 -25 19 -19 26 -19 26 1 0 8 4 13 8 10 12 -7
38 12 29 21 -5 4 -11 3 -15 -2 -10 -14 -32 -17 -32 -5 0 13 -17 13 -25 0z" />
    <path d="M120 235 l-12 -15 16 0 c9 0 16 7 16 15 0 8 -2 15 -4 15 -2 0 -9 -7
-16 -15z" />
    <path d="M342 241 l-13 -8 15 -12 15 -13 -2 21 c-1 12 -1 21 -2 21 0 0 -6 -4
-13 -9z" />
    <path d="M295 230 c-3 -5 -2 -10 4 -10 5 0 13 5 16 10 3 6 2 10 -4 10 -5 0
-13 -4 -16 -10z" />
    <path d="M100 173 c0 -17 16 -17 23 0 l5 14 -14 0 c-8 0 -14 -6 -14 -14z" />
    <path d="M180 135 c0 -5 5 -17 10 -25 5 -8 10 -10 10 -5 0 6 -5 17 -10 25 -5
8 -10 11 -10 5z" />
    <path d="M287 126 c-6 -14 0 -26 14 -26 8 0 6 26 -3 35 -3 3 -8 -1 -11 -9z" />
    <path d="M323 113 c4 -3 10 -3 14 0 3 4 0 7 -7 7 -7 0 -10 -3 -7 -7z" />
    <path d="M413 85 l0 -15 14 11 c7 6 13 13 13 15 0 2 -6 4 -13 4 -8 0 -14 -7
-14 -15z" />
    <path d="M269 64 c-24 -14 -46 -28 -48 -30 -3 -2 7 -3 22 -2 14 1 23 6 21 10
-3 4 2 5 10 2 9 -3 16 -2 16 3 0 6 10 14 22 20 l22 9 -10 7 c-6 3 -30 -6 -55
-19z" />
    <path d="M185 61 l7 -24 -11 7 -11 7 7 -17 6 -17 -11 7 -12 7 7 -17 7 -18 15
32 15 32 -13 13 -13 12 7 -24z" />
    <path d="M213 65 c0 -8 4 -12 9 -9 5 3 6 10 3 15 -9 13 -12 11 -12 -6z" />
    <path d="M351 71 l-13 -8 10 -7 c6 -3 14 -1 17 5 9 14 2 20 -14 10z" />
    <path d="M275 20 c-4 -6 -9 -9 -13 -6 -4 2 -16 0 -27 -5 l-20 -8 38 0 37 -1 0
11 0 11 14 -11 14 -12 7 11 c3 5 5 10 3 11 -31 7 -48 7 -53 -1z" />
  </g>
  <g transform="translate(0.000000,68.000000) scale(0.100000,-0.100000)" fill="#abb2b6" stroke="none">
    <path d="M501 649 c-13 -39 -14 -49 -2 -49 5 0 12 11 15 24 3 13 9 31 12 40
l6 16 -10 0 c-6 0 -15 -14 -21 -31z" />
    <path d="M220 649 l-12 -21 21 12 c12 6 21 15 21 20 0 18 -19 11 -30 -11z" />
    <path d="M388 643 c-21 -5 -24 -23 -4 -23 8 0 16 7 20 15 3 8 4 14 3 14 -1 -1
-10 -3 -19 -6z" />
    <path d="M566 613 l-7 -18 12 12 c7 7 10 15 7 18 -3 3 -9 -2 -12 -12z" />
    <path d="M325 600 c3 -5 8 -10 11 -10 2 0 4 5 4 10 0 6 -5 10 -11 10 -5 0 -7
-4 -4 -10z" />
    <path d="M336 572 c7 -4 13 -15 15 -24 l4 -17 13 8 13 8 -16 17 c-9 9 -22 16
-28 16 l-12 0 11 -8z" />
    <path d="M475 568 c-2 -7 -5 -22 -7 -32 l-3 -19 14 -5 14 -5 -7 11 c-3 6 -2
13 4 17 13 8 13 45 0 45 -6 0 -13 -6 -15 -12z" />
    <path d="M680 520 c0 -7 3 -10 7 -7 3 4 3 10 0 14 -4 3 -7 0 -7 -7z" />
    <path d="M280 509 c0 -11 37 -12 43 -1 3 4 -6 8 -19 8 -13 1 -24 -2 -24 -7z" />
    <path d="M343 502 c-3 -7 3 -19 13 -26 l18 -14 38 21 c39 23 48 37 23 37 -8 0
-19 -9 -25 -20 -6 -11 -15 -20 -20 -20 -14 0 -12 27 3 33 6 3 -1 5 -17 4 -15
-1 -31 -7 -33 -15z" />
    <path d="M221 486 l-12 -14 7 -41 c4 -22 10 -41 15 -41 5 0 6 -7 3 -15 -4 -8
-12 -15 -20 -15 l-14 0 0 -21 0 -21 16 6 c9 3 18 6 20 6 2 0 4 6 4 14 0 21 21
31 31 15 l8 -13 8 8 8 9 -12 4 c-7 3 -13 11 -13 19 l0 13 15 -5 15 -6 0 12 0
12 -30 -7 -30 -7 -1 19 c-1 10 -1 21 0 26 0 4 -3 7 -9 7 -5 0 -10 7 -10 16 0
8 4 13 8 10 5 -3 9 1 9 9 0 18 -2 18 -16 1z" />
    <path d="M250 490 c0 -5 5 -10 10 -10 6 0 10 5 10 10 0 6 -4 10 -10 10 -5 0
-10 -4 -10 -10z" />
    <path d="M332 458 c-16 -16 -15 -28 2 -28 8 0 16 -5 18 -11 4 -13 58 -20 58
-6 0 5 -9 7 -20 4 l-20 -5 0 15 0 14 13 -7 c6 -4 3 2 -7 14 -11 12 -22 22 -26
22 -3 0 -11 -5 -18 -12z" />
    <path d="M285 450 c3 -5 10 -10 16 -10 5 0 9 5 9 10 0 6 -7 10 -16 10 l-15 0
6 -10z" />
    <path d="M670 400 c0 -7 3 -10 7 -7 3 4 3 10 0 14 -4 3 -7 0 -7 -7z" />
    <path d="M330 390 c0 -5 4 -10 9 -10 6 0 13 5 16 10 l6 10 -15 0 c-9 0 -16 -4
-16 -10z" />
    <path d="M390 346 c0 -2 7 -7 16 -10 l15 -6 -6 10 c-6 10 -25 14 -25 6z" />
    <path d="M260 325 c0 -8 7 -15 15 -15 8 0 15 -5 15 -11 0 -5 5 -7 10 -4 6 3
10 15 10 26 l0 19 -25 0 -25 0 0 -15z" />
    <path d="M370 330 c0 -7 3 -10 7 -7 3 4 3 10 0 14 -4 3 -7 0 -7 -7z" />
    <path d="M670 310 c0 -7 3 -10 7 -7 3 4 3 10 0 14 -4 3 -7 0 -7 -7z" />
    <path d="M196 295 l-6 -16 -11 7 -12 7 7 -11 7 -12 -10 0 c-6 0 -11 -8 -11
-18 0 -10 -6 -24 -12 -31 l-13 -12 11 3 c6 2 20 -6 30 -17 11 -12 18 -19 17
-17 -3 6 18 24 42 38 10 6 21 16 23 24 l5 13 -16 -6 -15 -6 -7 17 -6 16 -9
-14 c-5 -8 -11 -12 -14 -9 -3 2 -1 11 4 19 l9 15 13 -13 c6 -6 22 -12 35 -12
l22 0 -6 16 -6 15 -15 -6 c-8 -3 -23 2 -32 10 l-18 16 -6 -16z m-6 -71 c0 -14
-12 -19 -23 -8 -9 9 4 35 14 28 5 -3 9 -12 9 -20z" />
    <path d="M101 291 l-13 -8 10 -7 c6 -3 14 -1 17 5 9 14 2 20 -14 10z" />
    <path d="M130 295 c0 -2 7 -8 15 -15 l15 -12 0 14 c0 8 -7 15 -15 15 -8 0 -15
-1 -15 -2z" />
    <path d="M121 235 c-13 -14 -18 -25 -11 -25 15 0 42 28 38 40 -2 5 -14 -2 -27
-15z" />
    <path d="M50 234 c0 -17 22 -14 28 4 2 7 -3 12 -12 12 -9 0 -16 -7 -16 -16z" />
    <path d="M267 233 c-13 -13 -7 -20 18 -20 28 0 33 12 9 21 -19 7 -19 7 -27 -1z" />
    <path d="M96 191 c-4 -7 -5 -15 -2 -18 9 -9 19 4 14 18 l-4 13 -8 -13z" />
    <path d="M142 174 l-13 -14 6 -20 c8 -27 21 -25 29 3 12 47 3 60 -22 31z" />
    <path d="M681 174 l1 -19 5 13 c3 7 2 16 -1 19 -3 4 -6 -2 -5 -13z" />
    <path d="M70 130 l-15 -10 12 0 c6 0 15 5 18 10 8 12 4 12 -15 0z" />
    <path d="M695 90 c-3 -5 -1 -10 4 -10 6 0 11 5 11 10 0 6 -2 10 -4 10 -3 0 -8
-4 -11 -10z" />
    <path d="M200 80 c0 -6 -4 -8 -10 -5 l-10 6 6 -16 c4 -9 9 -12 13 -8 3 4 10
11 15 14 l8 7 -11 6 -11 7 0 -11z" />
    <path d="M285 67 l-18 -14 9 -6 c5 -3 21 3 34 14 l25 19 -16 0 c-8 0 -23 -6
-34 -13z" />
    <path d="M336 28 c7 -10 24 -10 24 0 0 5 -7 9 -15 9 -8 0 -12 -4 -9 -9z" />
    <path d="M260 14 l-25 -14 16 0 c9 0 22 7 29 15 15 18 13 18 -20 -1z" />
    <path d="M305 10 c3 -5 8 -10 11 -10 3 0 2 5 -1 10 -3 6 -8 10 -11 10 -3 0 -2
-4 1 -10z" />
  </g>
  <g transform="translate(0.000000,68.000000) scale(0.100000,-0.100000)" fill="#b2babf" stroke="none">
    <path d="M255 660 c-3 -5 -2 -10 4 -10 5 0 13 5 16 10 3 6 2 10 -4 10 -5 0
-13 -4 -16 -10z" />
    <path d="M496 634 c-9 -23 -7 -34 4 -34 5 0 7 7 4 15 l-6 15 11 0 c6 0 11 5
11 10 0 16 -17 12 -24 -6z" />
    <path d="M680 590 c0 -7 3 -10 7 -7 3 4 3 10 0 14 -4 3 -7 0 -7 -7z" />
    <path d="M480 575 c7 -9 10 -18 6 -22 -3 -3 -6 0 -6 7 l0 14 -11 -11 c-6 -6
-8 -16 -5 -21 l6 -10 35 11 c19 6 35 14 35 19 l0 9 -19 -10 -19 -11 -5 20 c-3
11 -11 20 -17 20 l-12 0 12 -15z" />
    <path d="M358 543 c6 -2 18 -2 25 0 6 3 1 5 -13 5 -14 0 -19 -2 -12 -5z" />
    <path d="M290 516 c0 -3 9 -10 20 -16 11 -6 20 -8 20 -6 0 3 -9 10 -20 16 -11
6 -20 8 -20 6z" />
    <path d="M354 498 l6 -23 -23 -17 -22 -17 24 4 c13 2 26 7 30 10 3 4 6 20 7
36 l2 29 -15 0 -15 0 6 -22z" />
    <path d="M416 501 l-17 -19 16 -6 16 -6 -6 9 c-3 6 2 14 11 19 l17 9 -10 6
c-6 4 -18 -2 -27 -12z" />
    <path d="M203 433 c-3 -10 -8 -21 -10 -25 -2 -5 5 -8 16 -8 l21 0 0 25 c0 29
-18 34 -27 8z" />
    <path d="M350 421 c0 -7 -4 -10 -10 -6 -5 3 -21 3 -34 -1 l-26 -6 7 -12 c4 -6
9 -20 10 -31 l3 -20 -9 15 -10 14 -7 -17 c-9 -23 -35 -22 -41 3 l-5 20 -24 0
c-27 0 -29 -8 -13 -44 13 -28 32 -26 22 2 l-7 17 17 -14 c9 -7 17 -22 17 -33
l0 -20 -20 5 -20 5 0 -15 c0 -20 -22 -40 -40 -36 l-15 4 23 -19 c22 -20 31
-39 12 -27 -5 3 -10 1 -10 -4 0 -6 7 -11 15 -11 13 0 20 18 16 43 -2 11 14 8
27 -5 l12 -12 0 14 0 14 12 -12 c7 -7 21 -12 32 -12 l20 0 -20 16 -19 15 13 5
c17 8 15 25 -2 18 l-14 -6 2 19 3 18 22 -1 c20 -1 24 5 22 36 l0 15 5 -12 c3
-7 12 -13 20 -13 l15 0 -11 19 c-16 31 -12 41 15 41 28 0 32 12 10 30 l-15 12
0 -11z m-53 -97 c-3 -3 -12 -4 -19 -1 l-13 5 19 1 c11 1 17 -2 13 -5z m-55
-69 c0 -5 -5 -11 -11 -13 -6 -2 -11 4 -11 13 0 9 5 15 11 13 6 -2 11 -8 11
-13z" />
    <path d="M250 390 c0 -5 5 -10 11 -10 5 0 7 5 4 10 -3 6 -8 10 -11 10 -2 0 -4
-4 -4 -10z" />
    <path d="M670 390 c0 -7 3 -10 7 -7 3 4 3 10 0 14 -4 3 -7 0 -7 -7z" />
    <path d="M95 330 l-6 -10 20 0 c23 0 28 -16 9 -23 l-13 -5 19 -18 20 -19 -13
18 -13 17 11 0 c17 0 13 37 -5 44 -21 8 -22 8 -29 -4z" />
    <path d="M670 320 c0 -7 3 -10 7 -7 3 4 3 10 0 14 -4 3 -7 0 -7 -7z" />
    <path d="M155 310 c-3 -5 -1 -10 4 -10 6 0 11 5 11 10 0 6 -2 10 -4 10 -3 0
-8 -4 -11 -10z" />
    <path d="M57 253 c-11 -11 -8 -20 8 -20 8 0 15 6 15 14 0 14 -12 17 -23 6z" />
    <path d="M113 223 c-7 -3 -13 -9 -13 -14 0 -13 38 -11 46 3 l7 11 -11 -7 c-5
-3 -12 -2 -14 2 -1 5 -9 7 -15 5z" />
    <path d="M90 173 l0 -20 15 0 c8 0 15 4 15 7 0 4 -7 13 -15 20 l-15 12 0 -19z" />
    <path d="M691 134 l1 -19 5 13 c3 7 2 16 -1 19 -3 4 -6 -2 -5 -13z" />
    <path d="M130 115 c0 -8 2 -15 4 -15 2 0 6 7 10 15 3 8 1 15 -4 15 -6 0 -10
-7 -10 -15z" />
    <path d="M190 101 c0 -6 4 -13 10 -16 l10 -6 -6 15 c-7 18 -14 21 -14 7z" />
    <path d="M290 65 c-19 -23 -8 -25 14 -4 11 11 15 19 9 19 -6 0 -16 -7 -23 -15z" />
    <path d="M350 59 c0 -5 5 -7 10 -4 6 3 10 8 10 11 0 2 -4 4 -10 4 -5 0 -10 -5
-10 -11z" />
    <path d="M350 30 c0 -7 3 -10 7 -7 3 4 3 10 0 14 -4 3 -7 0 -7 -7z" />
  </g>
  <g transform="translate(0.000000,68.000000) scale(0.100000,-0.100000)" fill="#bac2c7" stroke="none">
    <path d="M235 660 c3 -5 11 -10 16 -10 6 0 7 5 4 10 -3 6 -11 10 -16 10 -6 0
-7 -4 -4 -10z" />
    <path d="M613 663 c4 -3 10 -3 14 0 3 4 0 7 -7 7 -7 0 -10 -3 -7 -7z" />
    <path d="M357 579 l-5 -20 11 4 c15 5 22 37 9 37 -5 0 -12 -9 -15 -21z" />
    <path d="M488 568 l5 -21 -11 7 c-6 3 -13 2 -16 -3 -4 -5 -2 -12 3 -15 5 -4
13 -2 16 4 l7 11 12 -10 13 -11 0 15 c0 8 -4 12 -9 9 -4 -3 -8 2 -8 10 0 8 -4
17 -9 20 l-9 6 6 -22z" />
    <path d="M350 500 c0 -7 3 -10 7 -7 3 4 3 10 0 14 -4 3 -7 0 -7 -7z" />
    <path d="M414 498 l-7 -11 11 7 c7 4 12 9 12 12 0 8 -9 4 -16 -8z" />
    <path d="M352 464 c-7 -8 -10 -19 -7 -24 3 -6 -1 -10 -9 -10 -20 0 -21 -14 -2
-29 l14 -12 7 10 c6 10 17 81 12 81 -1 -1 -8 -7 -15 -16z" />
    <path d="M465 430 c3 -5 10 -10 16 -10 5 0 9 5 9 10 0 6 -7 10 -16 10 l-15 0
6 -10z" />
    <path d="M275 420 c-3 -5 -1 -10 4 -10 6 0 11 5 11 10 0 6 -2 10 -4 10 -3 0
-8 -4 -11 -10z" />
    <path d="M200 410 c-7 -4 -9 -13 -6 -19 4 -6 3 -11 -2 -11 l-9 0 4 -54 5 -53
-25 -7 c-14 -3 -27 -12 -30 -19 l-5 -14 33 1 33 1 -6 9 -5 9 15 -6 16 -5 -2
16 -1 17 20 1 c36 2 40 4 25 14 l-14 9 17 7 c9 3 15 10 12 14 -3 4 2 11 11 14
l16 6 -6 -16 -6 -17 22 15 c27 18 35 38 14 38 -9 0 -16 5 -16 10 0 18 -22 10
-27 -9 -3 -11 -11 -22 -19 -25 l-15 -6 -5 15 c-4 9 -1 22 6 30 7 9 11 16 9 18
-2 1 -13 7 -25 14 l-21 11 -13 -8z m20 -54 c0 -8 6 -16 13 -18 6 -3 12 -16 12
-29 l1 -25 -18 0 -18 0 -1 26 c0 14 -2 33 -4 43 -2 9 1 17 6 17 5 0 9 -6 9
-14z m-43 -113 c-4 -3 -7 0 -7 7 0 7 3 10 7 7 3 -4 3 -10 0 -14z" />
    <path d="M100 330 l-15 -10 12 0 c6 0 15 5 18 10 8 12 4 12 -15 0z" />
    <path d="M670 330 c0 -7 3 -10 7 -7 3 4 3 10 0 14 -4 3 -7 0 -7 -7z" />
    <path d="M130 312 l0 -19 15 0 c17 0 17 0 9 21 -8 22 -24 20 -24 -2z" />
    <path d="M72 268 l-11 -14 8 -12 8 -13 13 16 13 16 -10 10 -10 10 -11 -13z" />
    <path d="M259 253 l-14 -18 18 14 c16 13 21 21 13 21 -2 0 -10 -8 -17 -17z" />
    <path d="M100 210 c0 -5 5 -10 11 -10 5 0 7 5 4 10 -3 6 -8 10 -11 10 -2 0 -4
-4 -4 -10z" />
    <path d="M152 204 c-5 -11 -13 -34 -17 -51 l-7 -33 16 0 15 0 -5 15 -6 15 12
0 c6 0 8 5 5 10 -4 6 -1 18 6 26 l12 15 -10 10 -11 11 -10 -18z" />
    <path d="M190 210 c0 -7 3 -10 7 -7 3 4 3 10 0 14 -4 3 -7 0 -7 -7z" />
    <path d="M86 171 c-4 -7 -5 -15 -2 -18 9 -9 19 4 14 18 l-4 13 -8 -13z" />
    <path d="M110 160 c0 -7 3 -10 7 -7 3 4 3 10 0 14 -4 3 -7 0 -7 -7z" />
    <path d="M132 90 c0 -14 2 -19 5 -12 2 6 2 18 0 25 -3 6 -5 1 -5 -13z" />
  </g>
  <g transform="translate(0.000000,68.000000) scale(0.100000,-0.100000)" fill="#777f84" stroke="none">
    <path d="M492 525 c-13 -7 -20 -15 -15 -18 4 -3 19 3 32 14 26 21 18 24 -17 4z" />
    <path d="M320 490 c0 -7 3 -10 7 -7 3 4 3 10 0 14 -4 3 -7 0 -7 -7z" />
    <path d="M505 490 l-6 -10 16 0 16 0 -6 10 c-3 6 -8 10 -10 10 -2 0 -7 -4 -10
-10z" />
    <path d="M446 451 c-4 -5 -2 -12 3 -15 5 -4 12 -2 15 3 4 5 2 12 -3 15 -5 4
-12 2 -15 -3z" />
    <path d="M390 440 l-15 -10 18 0 c9 0 17 5 17 10 0 12 -1 12 -20 0z" />
    <path d="M255 430 c-3 -5 -1 -10 4 -10 6 0 11 5 11 10 0 6 -2 10 -4 10 -3 0
-8 -4 -11 -10z" />
    <path d="M425 421 c-3 -5 -2 -12 3 -15 5 -3 9 1 9 9 0 17 -3 19 -12 6z" />
    <path d="M555 420 c-4 -6 -11 -8 -16 -5 -5 4 -9 -1 -9 -10 l0 -16 -10 6 c-5 3
-10 1 -10 -4 0 -16 16 -13 30 4 6 8 17 13 22 12 6 -1 13 4 15 11 6 14 -13 16
-22 2z" />
    <path d="M401 404 l1 -19 5 13 c3 7 2 16 -1 19 -3 4 -6 -2 -5 -13z" />
    <path d="M465 370 l-6 -10 15 6 c18 7 21 14 7 14 -6 0 -13 -4 -16 -10z" />
    <path d="M416 343 l-6 -13 20 10 c24 13 25 17 5 17 -8 0 -16 -6 -19 -14z" />
    <path d="M335 340 c3 -5 8 -10 11 -10 3 0 2 5 -1 10 -3 6 -8 10 -11 10 -3 0
-2 -4 1 -10z" />
    <path d="M410 312 c0 -4 9 -8 19 -8 11 0 17 4 15 8 -3 4 -12 8 -20 8 -8 0 -14
-4 -14 -8z" />
    <path d="M151 284 l1 -19 5 13 c3 7 2 16 -1 19 -3 4 -6 -2 -5 -13z" />
    <path d="M340 254 c0 -2 9 -8 20 -14 l20 -11 0 9 c0 6 -9 12 -20 15 -11 3 -20
3 -20 1z" />
    <path d="M670 250 c0 -7 3 -10 7 -7 3 4 3 10 0 14 -4 3 -7 0 -7 -7z" />
    <path d="M341 207 l-13 -22 18 17 c10 10 16 20 13 22 -3 3 -11 -5 -18 -17z" />
    <path d="M115 210 c-3 -5 -1 -10 4 -10 6 0 11 5 11 10 0 6 -2 10 -4 10 -3 0
-8 -4 -11 -10z" />
    <path d="M300 186 c-6 -8 -17 -13 -24 -10 -7 3 -18 -1 -24 -9 l-12 -14 16 -19
c8 -10 13 -13 9 -6 l-6 12 13 0 13 0 -15 10 c-16 11 -9 13 32 10 l26 -1 -5 20
c-3 12 -7 21 -8 21 -1 0 -8 -6 -15 -14z" />
    <path d="M355 139 c-4 -6 -4 -13 0 -17 4 -4 10 -2 12 5 2 7 11 9 19 6 8 -3 14
0 14 6 0 14 -37 14 -45 0z" />
    <path d="M323 133 c4 -3 10 -3 14 0 3 4 0 7 -7 7 -7 0 -10 -3 -7 -7z" />
    <path d="M413 110 l-2 -20 15 0 15 0 -11 20 c-6 11 -12 20 -13 20 -2 0 -3 -9
-4 -20z" />
    <path d="M485 60 c-3 -5 -1 -10 4 -10 6 0 11 5 11 10 0 6 -2 10 -4 10 -3 0 -8
-4 -11 -10z" />
    <path d="M440 50 c0 -7 3 -10 7 -7 3 4 3 10 0 14 -4 3 -7 0 -7 -7z" />
    <path d="M304 18 l-7 -11 11 7 c7 4 12 9 12 12 0 8 -9 4 -16 -8z" />
  </g>
  <g transform="translate(0.000000,68.000000) scale(0.100000,-0.100000)" fill="#c5cbce" stroke="none">
    <path d="M320 643 c0 -18 5 -33 10 -33 13 0 13 30 0 50 l-10 15 0 -32z" />
    <path d="M500 651 c0 -5 5 -13 10 -16 6 -3 10 -2 10 4 0 5 -4 13 -10 16 -5 3
-10 2 -10 -4z" />
    <path d="M369 623 c0 -10 -3 -29 -5 -43 l-5 -25 9 10 c5 6 12 22 16 37 l6 27
-10 6 -10 6 -1 -18z" />
    <path d="M458 575 l-4 -35 10 3 c13 4 19 67 7 67 -5 0 -11 -16 -13 -35z" />
    <path d="M490 599 c0 -5 5 -7 10 -4 6 3 10 8 10 11 0 2 -4 4 -10 4 -5 0 -10
-5 -10 -11z" />
    <path d="M555 600 c-3 -5 -1 -10 4 -10 6 0 11 5 11 10 0 6 -2 10 -4 10 -3 0
-8 -4 -11 -10z" />
    <path d="M680 600 c0 -7 3 -10 7 -7 3 4 3 10 0 14 -4 3 -7 0 -7 -7z" />
    <path d="M537 573 c-4 -3 -7 -11 -7 -17 l0 -10 12 12 c6 6 9 14 7 17 -3 3 -9
2 -12 -2z" />
    <path d="M680 510 c0 -7 3 -10 7 -7 3 4 3 10 0 14 -4 3 -7 0 -7 -7z" />
    <path d="M349 453 c-9 -10 -14 -23 -12 -30 2 -6 -1 -15 -8 -19 l-12 -7 8 13 8
13 -12 -7 c-6 -4 -9 -11 -6 -16 3 -4 -2 -13 -11 -21 -8 -7 -20 -22 -26 -33
l-11 -21 19 17 19 17 20 -10 20 -10 -18 14 -18 15 15 5 c16 6 49 74 43 90 -1
4 -10 0 -18 -10z" />
    <path d="M265 439 c-4 -6 -5 -12 -2 -15 2 -3 7 2 10 11 7 17 1 20 -8 4z" />
    <path d="M204 424 c3 -8 -2 -30 -10 -49 -8 -20 -12 -45 -9 -56 10 -30 25 -12
18 21 l-5 30 10 12 c5 7 12 22 16 34 l6 21 -15 0 -16 0 5 -13z" />
    <path d="M670 380 c0 -7 3 -10 7 -7 3 4 3 10 0 14 -4 3 -7 0 -7 -7z" />
    <path d="M50 349 c0 -5 5 -7 10 -4 6 3 10 8 10 11 0 2 -4 4 -10 4 -5 0 -10 -5
-10 -11z" />
    <path d="M373 345 l0 -13 14 5 c7 3 13 6 13 8 0 2 -6 5 -13 8 l-14 5 0 -13z" />
    <path d="M74 338 l-7 -11 11 7 c12 7 16 16 8 16 -3 0 -8 -5 -12 -12z" />
    <path d="M670 340 c0 -7 3 -10 7 -7 3 4 3 10 0 14 -4 3 -7 0 -7 -7z" />
    <path d="M304 328 l-7 -11 11 7 c7 4 12 9 12 12 0 8 -9 4 -16 -8z" />
    <path d="M131 304 l1 -19 5 13 c3 7 2 16 -1 19 -3 4 -6 -2 -5 -13z" />
    <path d="M150 299 c0 -5 5 -7 10 -4 6 3 10 8 10 11 0 2 -4 4 -10 4 -5 0 -10
-5 -10 -11z" />
    <path d="M102 280 c-7 -12 -17 -18 -22 -15 l-10 6 7 -17 6 -16 18 23 c16 21
24 39 16 39 -1 0 -8 -9 -15 -20z" />
    <path d="M190 274 l0 -15 10 6 c6 4 8 11 5 16 -9 14 -15 11 -15 -7z" />
    <path d="M150 260 c-8 -6 -10 -10 -5 -10 6 0 2 -5 -8 -11 l-18 -11 18 -13 c10
-7 22 -11 28 -8 5 2 2 -2 -7 -10 -24 -19 -23 -30 1 -18 l19 10 0 27 0 27 -10
-17 c-5 -9 -14 -14 -19 -10 l-10 6 17 19 c20 22 16 33 -6 19z" />
    <path d="M191 224 l1 -19 5 13 c3 7 2 16 -1 19 -3 4 -6 -2 -5 -13z" />
    <path d="M86 173 c-8 -24 -7 -33 1 -33 5 0 9 11 10 25 2 29 -3 33 -11 8z" />
    <path d="M140 144 l0 -16 15 12 c8 7 15 14 15 16 0 2 -7 4 -15 4 -8 0 -15 -7
-15 -16z" />
  </g>
  <g transform="translate(0.000000,68.000000) scale(0.100000,-0.100000)" fill="#191d1f" stroke="none">
    <path d="M462 448 c-7 -7 -12 -18 -12 -25 l0 -14 14 13 c8 7 12 16 9 21 -2 4
1 7 7 7 6 0 15 -10 20 -22 l9 -23 0 21 1 22 -16 6 c-20 8 -18 8 -32 -6z" />
    <path d="M370 361 c0 -5 9 -7 20 -4 11 3 20 7 20 9 0 2 -9 4 -20 4 -11 0 -20
-4 -20 -9z" />
    <path d="M513 207 c6 -13 17 -24 24 -24 l13 0 -22 24 c-12 13 -23 23 -24 23
-1 0 3 -10 9 -23z" />
    <path d="M550 205 c13 -14 26 -25 28 -25 3 0 -5 11 -18 25 -13 14 -26 25 -28
25 -3 0 5 -11 18 -25z" />
    <path d="M572 214 c10 -10 20 -15 24 -12 3 4 -5 12 -18 18 l-23 12 17 -18z" />
    <path d="M430 183 l-25 -13 40 0 c22 0 36 4 30 8 -5 4 -12 10 -15 13 -3 3 -16
0 -30 -8z" />
    <path d="M490 190 c0 -7 3 -10 7 -7 3 4 3 10 0 14 -4 3 -7 0 -7 -7z" />
    <path d="M483 113 c4 -3 10 -3 14 0 3 4 0 7 -7 7 -7 0 -10 -3 -7 -7z" />
    <path d="M593 103 c4 -3 10 -3 14 0 3 4 0 7 -7 7 -7 0 -10 -3 -7 -7z" />
    <path d="M543 93 c4 -3 10 -3 14 0 3 4 0 7 -7 7 -7 0 -10 -3 -7 -7z" />
    <path d="M694 88 l-7 -11 11 7 c7 4 12 9 12 12 0 8 -9 4 -16 -8z" />
    <path d="M478 83 c7 -3 16 -2 19 1 4 3 -2 6 -13 5 l-19 -1 13 -5z" />
    <path d="M623 83 c4 -3 10 -3 14 0 3 4 0 7 -7 7 -7 0 -10 -3 -7 -7z" />
    <path d="M650 64 c0 -12 50 -58 56 -52 2 3 -10 17 -26 33 -17 16 -30 24 -30
19z" />
    <path d="M478 53 c7 -3 16 -2 19 1 4 3 -2 6 -13 5 l-19 -1 13 -5z" />
    <path d="M533 43 c15 -2 37 -2 50 0 12 2 0 4 -28 4 -27 0 -38 -2 -22 -4z" />
  </g>
  <g transform="translate(0.000000,68.000000) scale(0.100000,-0.100000)" fill="#8b8c86" stroke="none">
    <path d="M224 658 c-5 -8 3 -12 20 -9 5 1 6 -5 2 -14 -3 -9 -7 -33 -7 -53 -1
-20 -3 -29 -6 -19 -2 9 -9 17 -14 17 -15 0 -10 -26 7 -41 l15 -13 -4 -17 c-8
-30 15 -28 61 4 23 17 42 32 42 34 0 2 -4 2 -9 -1 -5 -4 -16 -4 -24 0 l-15 5
4 49 3 50 -12 7 c-16 9 -57 10 -63 1z m51 -48 c3 -5 1 -10 -4 -10 -6 0 -11 5
-11 10 0 6 2 10 4 10 3 0 8 -4 11 -10z m12 -76 c-3 -3 -12 -4 -19 -1 l-13 5
19 1 c11 1 17 -2 13 -5z" />
    <path d="M648 663 c7 -3 16 -2 19 1 4 3 -2 6 -13 5 l-19 -1 13 -5z" />
    <path d="M590 645 l-12 -15 10 0 c12 0 26 19 19 26 -2 2 -10 -2 -17 -11z" />
    <path d="M210 621 c0 -12 5 -21 10 -21 6 0 10 6 10 14 0 8 -4 18 -10 21 l-10
6 0 -20z" />
    <path d="M315 610 l-6 -10 15 0 c9 0 16 5 16 10 0 6 -4 10 -9 10 -6 0 -13 -4
-16 -10z" />
    <path d="M490 600 c0 -7 3 -10 7 -7 3 4 3 10 0 14 -4 3 -7 0 -7 -7z" />
    <path d="M553 593 c4 -3 10 -3 14 0 3 4 0 7 -7 7 -7 0 -10 -3 -7 -7z" />
    <path d="M534 558 l-7 -11 11 7 c12 7 16 16 8 16 -3 0 -8 -5 -12 -12z" />
    <path d="M680 550 c0 -7 3 -10 7 -7 3 4 3 10 0 14 -4 3 -7 0 -7 -7z" />
    <path d="M265 450 c4 -6 11 -8 16 -4 5 3 16 0 24 -6 l15 -12 0 16 0 16 -31 0
-30 0 6 -10z" />
    <path d="M475 430 c3 -5 8 -10 11 -10 2 0 4 5 4 10 0 6 -5 10 -11 10 -5 0 -7
-4 -4 -10z" />
    <path d="M520 410 c0 -5 -12 -10 -27 -11 l-28 -1 25 -7 c14 -4 27 -4 28 1 2 4
8 6 13 2 5 -3 9 2 9 10 0 9 -4 16 -10 16 -5 0 -10 -4 -10 -10z" />
    <path d="M350 129 c0 -5 5 -7 10 -4 6 3 10 8 10 11 0 2 -4 4 -10 4 -5 0 -10
-5 -10 -11z" />
  </g>
  <g transform="translate(0.000000,68.000000) scale(0.100000,-0.100000)" fill="#e8e7e7" stroke="none">
    <path d="M515 670 c3 -5 8 -10 11 -10 3 0 2 5 -1 10 -3 6 -8 10 -11 10 -3 0
-2 -4 1 -10z" />
    <path d="M224 658 l-7 -11 11 7 c12 7 16 16 8 16 -3 0 -8 -5 -12 -12z" />
    <path d="M273 656 c0 -8 5 -14 11 -13 6 1 10 -4 9 -10 -2 -7 2 -13 7 -13 16 0
12 15 -8 33 l-19 17 0 -14z" />
    <path d="M589 643 l-24 -28 28 24 c15 14 27 26 27 28 0 8 -8 1 -31 -24z" />
    <path d="M395 650 c3 -5 8 -10 11 -10 2 0 4 5 4 10 0 6 -5 10 -11 10 -5 0 -7
-4 -4 -10z" />
    <path d="M323 627 l-11 -24 13 0 13 0 0 24 c0 13 -1 23 -3 23 -1 0 -7 -10 -12
-23z" />
    <path d="M211 595 l0 -50 11 22 10 21 -10 29 -10 28 -1 -50z" />
    <path d="M380 620 c0 -5 5 -10 10 -10 6 0 10 5 10 10 0 6 -4 10 -10 10 -5 0
-10 -4 -10 -10z" />
    <path d="M463 595 c0 -8 6 -15 13 -15 l13 0 -5 15 c-4 8 -9 15 -13 15 -4 0 -8
-7 -8 -15z" />
    <path d="M366 573 l-7 -18 12 12 c7 7 10 15 7 18 -3 3 -9 -2 -12 -12z" />
    <path d="M456 554 c-11 -8 -16 -14 -10 -14 13 0 39 18 34 24 -3 2 -14 -2 -24
-10z" />
    <path d="M490 560 c0 -7 3 -10 7 -7 3 4 3 10 0 14 -4 3 -7 0 -7 -7z" />
    <path d="M398 543 c7 -3 16 -2 19 1 4 3 -2 6 -13 5 l-19 -1 13 -5z" />
    <path d="M681 494 l1 -19 5 13 c3 7 2 16 -1 19 -3 4 -6 -2 -5 -13z" />
    <path d="M200 430 c0 -7 3 -10 7 -7 3 4 3 10 0 14 -4 3 -7 0 -7 -7z" />
    <path d="M267 414 c6 -15 23 -19 23 -5 0 5 -7 11 -14 14 l-15 6 6 -15z" />
    <path d="M195 400 c3 -5 8 -10 11 -10 3 0 2 5 -1 10 -3 6 -8 10 -11 10 -3 0
-2 -4 1 -10z" />
    <path d="M672 360 c0 -14 2 -19 5 -12 2 6 2 18 0 25 -3 6 -5 1 -5 -13z" />
    <path d="M54 348 l-7 -11 11 7 c7 4 12 9 12 12 0 8 -9 4 -16 -8z" />
    <path d="M180 340 c0 -5 5 -10 11 -10 5 0 7 5 4 10 -3 6 -8 10 -11 10 -2 0 -4
-4 -4 -10z" />
    <path d="M134 318 l-7 -11 11 7 c12 7 16 16 8 16 -3 0 -8 -5 -12 -12z" />
    <path d="M87 284 c-3 -3 -3 -12 -1 -18 3 -7 -3 -19 -12 -27 l-18 -14 7 18 7
18 -10 -6 c-12 -8 -13 -35 -1 -35 5 0 14 6 21 14 6 8 18 12 25 10 l14 -6 -6
21 c-6 23 -17 34 -26 25z" />
    <path d="M155 270 c3 -5 8 -10 11 -10 3 0 2 5 -1 10 -3 6 -8 10 -11 10 -3 0
-2 -4 1 -10z" />
    <path d="M135 260 c3 -5 8 -10 11 -10 3 0 2 5 -1 10 -3 6 -8 10 -11 10 -3 0
-2 -4 1 -10z" />
    <path d="M115 215 c-35 -36 -31 -45 5 -10 17 16 30 30 30 32 0 8 -11 1 -35
-22z" />
    <path d="M170 200 c0 -7 3 -10 7 -7 3 4 3 10 0 14 -4 3 -7 0 -7 -7z" />
    <path d="M139 178 c-5 -19 -4 -50 3 -54 4 -3 8 1 8 10 0 8 4 16 9 18 5 2 3 9
-5 16 -8 7 -14 11 -15 10z" />
    <path d="M700 100 c0 -7 3 -10 7 -7 3 4 3 10 0 14 -4 3 -7 0 -7 -7z" />
  </g>
  <g transform="translate(0.000000,68.000000) scale(0.100000,-0.100000)" fill="#d3d6d9" stroke="none">
    <path d="M383 653 c4 -3 10 -3 14 0 3 4 0 7 -7 7 -7 0 -10 -3 -7 -7z" />
    <path d="M284 638 l-7 -11 11 7 c12 7 16 16 8 16 -3 0 -8 -5 -12 -12z" />
    <path d="M584 638 l-7 -11 11 7 c12 7 16 16 8 16 -3 0 -8 -5 -12 -12z" />
    <path d="M383 623 c4 -3 10 -3 14 0 3 4 0 7 -7 7 -7 0 -10 -3 -7 -7z" />
    <path d="M330 610 c0 -7 3 -10 7 -7 3 4 3 10 0 14 -4 3 -7 0 -7 -7z" />
    <path d="M365 590 c3 -5 8 -10 11 -10 3 0 2 5 -1 10 -3 6 -8 10 -11 10 -3 0
-2 -4 1 -10z" />
    <path d="M484 588 l-7 -11 11 7 c7 4 12 9 12 12 0 8 -9 4 -16 -8z" />
    <path d="M383 543 c4 -3 10 -3 14 0 3 4 0 7 -7 7 -7 0 -10 -3 -7 -7z" />
    <path d="M485 439 c-4 -6 -5 -12 -2 -15 2 -3 7 2 10 11 7 17 1 20 -8 4z" />
    <path d="M330 431 c0 -17 18 -21 24 -6 l5 15 -14 0 c-8 0 -15 -4 -15 -9z" />
    <path d="M205 420 c3 -5 8 -10 11 -10 3 0 2 5 -1 10 -3 6 -8 10 -11 10 -3 0
-2 -4 1 -10z" />
    <path d="M200 390 c0 -7 3 -10 7 -7 3 4 3 10 0 14 -4 3 -7 0 -7 -7z" />
    <path d="M309 380 l-24 -20 28 11 c15 7 27 16 27 21 0 12 -5 10 -31 -12z" />
    <path d="M187 355 c-4 -8 -3 -16 1 -19 4 -3 9 4 9 15 2 23 -3 25 -10 4z" />
    <path d="M192 290 c0 -14 2 -19 5 -12 2 6 2 18 0 25 -3 6 -5 1 -5 -13z" />
    <path d="M69 263 l-14 -18 18 14 c9 7 17 15 17 17 0 8 -8 3 -21 -13z" />
    <path d="M116 213 l-7 -18 12 12 c7 7 10 15 7 18 -3 3 -9 -2 -12 -12z" />
    <path d="M165 210 c3 -5 8 -10 11 -10 3 0 2 5 -1 10 -3 6 -8 10 -11 10 -3 0
-2 -4 1 -10z" />
    <path d="M135 171 c-6 -11 13 -26 22 -17 4 3 1 6 -6 6 -7 0 -9 5 -6 10 3 6 4
10 1 10 -3 0 -7 -4 -11 -9z" />
  </g>
  <g transform="translate(0.000000,68.000000) scale(0.100000,-0.100000)" fill="#84807a" stroke="none">
    <path d="M250 651 c0 -6 7 -11 15 -11 22 0 30 -27 15 -55 l-13 -23 -12 4 c-16
6 -29 -26 -16 -39 l9 -9 -1 18 -2 19 23 -1 c12 -1 22 3 22 8 0 5 7 16 15 24
19 19 11 36 -25 58 l-30 17 0 -10z" />
    <path d="M241 614 l1 -19 5 13 c3 7 2 16 -1 19 -3 4 -6 -2 -5 -13z" />
    <path d="M222 590 c0 -14 2 -19 5 -12 2 6 2 18 0 25 -3 6 -5 1 -5 -13z" />
    <path d="M680 560 c0 -7 3 -10 7 -7 3 4 3 10 0 14 -4 3 -7 0 -7 -7z" />
    <path d="M278 523 c-10 -2 -18 -9 -18 -14 0 -13 12 -11 34 6 20 15 16 17 -16
8z" />
    <path d="M305 460 c-3 -5 -1 -10 4 -10 6 0 11 5 11 10 0 6 -2 10 -4 10 -3 0
-8 -4 -11 -10z" />
    <path d="M493 443 c4 -3 10 -3 14 0 3 4 0 7 -7 7 -7 0 -10 -3 -7 -7z" />
  </g>
  <g transform="translate(0.000000,68.000000) scale(0.100000,-0.100000)" fill="#c5c1a3" stroke="none">
    <path d="M276 451 l-6 -9 21 5 21 6 -4 -19 c-2 -10 -8 -19 -15 -19 -6 0 -15
-3 -19 -7 -4 -5 4 -8 18 -8 14 0 31 7 38 15 l12 15 -12 15 c-14 17 -46 20 -54
6z" />
    <path d="M520 423 l0 -22 -17 -4 -18 -5 16 -1 c9 0 21 5 27 12 l11 13 -9 14
-10 15 0 -22z" />
  </g>
  <g transform="translate(0.000000,68.000000) scale(0.100000,-0.100000)" fill="#e2ddb4" stroke="none">
    <path d="M303 448 l17 -13 -8 -11 c-4 -6 -14 -14 -22 -17 l-15 -5 21 -1 22 -1
6 16 c7 18 -10 44 -27 44 -6 0 -3 -6 6 -12z" />
  </g>
</svg>