<svg width="76.000000pt" height="68.000000pt" viewBox="0 0 76.000000 68.000000" xmlns="http://www.w3.org/2000/svg">
  <g transform="translate(0.000000,68.000000) scale(0.100000,-0.100000)" fill="#fefefe" stroke="none">
    <path d="M0 340 l0 -340 380 0 380 0 0 340 0 340 -84 0 -84 0 -16 -41 -17 -41
7 -59 c4 -33 10 -59 14 -59 5 0 6 -9 3 -20 l-5 -20 15 0 c9 0 25 12 36 26 12
15 21 22 21 16 0 -12 -57 -62 -71 -62 -5 0 -9 -7 -9 -15 0 -8 7 -15 15 -15 8
0 15 -4 15 -10 0 -5 -7 -10 -15 -10 l-15 0 0 -22 c0 -13 -10 -52 -21 -88 l-21
-65 7 -67 6 -67 -11 -21 c-6 -11 -17 -20 -25 -20 -7 0 -22 11 -33 25 -11 14
-25 25 -31 25 -6 0 -11 9 -11 20 l0 21 -17 6 c-10 4 -20 10 -23 14 -3 4 -21
10 -41 14 l-36 7 -17 -18 -18 -17 -8 13 -8 14 -21 -10 c-12 -5 -38 -31 -59
-59 l-38 -50 -21 -3 -22 -3 -9 33 -9 33 5 195 4 195 -16 61 c-9 34 -16 80 -16
103 l0 41 -30 0 -30 0 0 -340z m610 173 l-12 -18 6 18 c3 10 6 24 7 30 l1 12
4 -12 c3 -7 0 -20 -6 -30z m53 2 c-3 -9 -8 -14 -10 -11 -3 3 -2 9 2 15 9 16
15 13 8 -4z" />
    <path d="M467 263 c-4 -3 -7 -15 -7 -25 l0 -19 18 3 17 3 3 23 3 22 -14 0 c-7
0 -17 -3 -20 -7z" />
  </g>
  <g transform="translate(0.000000,68.000000) scale(0.100000,-0.100000)" fill="#25292c" stroke="none">
    <path d="M50 635 c0 -24 7 -70 16 -102 l15 -58 -1 -77 -1 -76 10 -6 c6 -4 22
-4 36 0 l25 6 0 30 0 30 16 -6 c9 -3 18 -6 20 -6 2 0 4 -10 4 -21 l0 -21 23 6
c12 3 30 6 39 6 l17 0 -2 38 -2 37 28 3 27 3 0 14 c0 7 -6 16 -12 18 l-13 5
18 1 c9 1 17 -3 17 -9 0 -5 7 -10 15 -10 l15 0 0 25 c0 14 5 25 10 25 6 0 10
7 10 16 l0 16 -29 -7 c-33 -7 -101 3 -101 15 0 4 11 11 25 14 l25 6 0 16 0 16
-30 -7 -30 -7 0 15 c0 8 -10 17 -22 21 -33 8 -38 8 -38 -8 0 -15 -45 -30 -61
-21 l-9 6 12 13 c7 7 21 15 31 19 l17 6 0 24 0 25 -31 6 c-17 3 -44 6 -60 6
l-29 0 0 -45z m180 -75 c0 -5 -4 -10 -10 -10 -5 0 -10 5 -10 10 0 6 5 10 10
10 6 0 10 -4 10 -10z m-33 -37 c-4 -3 -7 0 -7 7 0 7 3 10 7 7 3 -4 3 -10 0
-14z" />
    <path d="M228 643 c-20 -5 -25 -33 -5 -33 29 0 57 13 57 26 l0 14 -17 -1 c-10
-1 -26 -3 -35 -6z" />
    <path d="M310 605 c0 -8 7 -15 15 -15 8 0 15 7 15 15 0 8 -7 15 -15 15 -8 0
-15 -7 -15 -15z" />
    <path d="M410 395 c0 -8 7 -15 15 -15 8 0 15 7 15 15 0 8 -7 15 -15 15 -8 0
-15 -7 -15 -15z" />
    <path d="M363 325 c-17 -19 -16 -35 2 -35 8 0 15 5 15 10 0 6 7 10 15 10 8 0
15 7 15 15 l0 15 -17 0 c-10 -1 -24 -7 -30 -15z" />
    <path d="M96 264 c-3 -9 -6 -27 -6 -40 l0 -24 15 0 c8 0 15 6 15 14 l0 14 20
-5 20 -5 0 11 c0 15 -32 51 -46 51 -7 0 -15 -7 -18 -16z" />
    <path d="M250 265 c0 -8 5 -15 10 -15 6 0 10 -4 10 -10 0 -16 -27 -12 -34 5
-3 8 -12 15 -21 15 l-15 0 0 -20 0 -20 20 0 c11 0 20 -4 20 -10 0 -15 29 -12
46 4 16 17 19 36 4 36 -5 0 -10 7 -10 15 0 8 -7 15 -15 15 -8 0 -15 -7 -15
-15z" />
  </g>
  <g transform="translate(0.000000,68.000000) scale(0.100000,-0.100000)" fill="#2d3235" stroke="none">
    <path d="M116 670 c6 -6 34 -13 62 -17 l52 -6 0 17 0 16 -62 0 -62 0 10 -10z" />
    <path d="M240 665 l0 -15 20 0 20 0 0 15 0 15 -20 0 -20 0 0 -15z" />
    <path d="M360 665 c0 -8 7 -15 15 -15 8 0 15 7 15 15 0 8 -7 15 -15 15 -8 0
-15 -7 -15 -15z" />
    <path d="M86 655 l-6 -18 11 -13 c6 -8 9 -15 5 -15 -3 -1 -10 -3 -16 -4 -5 -1
-13 -3 -17 -4 -5 0 7 -10 25 -21 18 -11 38 -18 43 -14 l11 6 -4 -23 -3 -24 20
-20 c11 -11 22 -20 25 -20 3 0 11 -4 18 -8 6 -5 17 -5 24 -1 l11 7 -18 14
c-11 7 -14 13 -8 13 13 0 45 -35 37 -43 -6 -5 29 -28 37 -24 2 1 -2 -4 -10
-10 l-14 -13 -14 11 c-7 6 -11 15 -8 19 3 5 1 11 -4 15 -5 3 -15 -3 -20 -12
l-11 -18 -14 18 c-7 9 -17 17 -21 17 -5 0 -17 7 -27 16 l-18 17 -13 -12 c-8
-6 -17 -8 -20 -4 -4 3 -7 -6 -7 -21 0 -15 4 -25 8 -22 4 2 14 1 22 -4 l13 -8
18 11 17 11 39 -27 c22 -15 44 -27 51 -27 7 0 12 -4 12 -9 l0 -10 -37 16 c-21
8 -48 17 -60 19 l-22 4 5 -15 6 -15 -18 0 -18 0 12 -12 c15 -15 16 -48 1 -48
-5 0 -8 4 -4 9 3 5 0 13 -6 17 l-12 7 7 -11 7 -12 -11 0 -11 0 7 -12 8 -13
-19 15 -18 15 6 -34 c4 -18 7 -48 7 -65 l0 -32 34 -2 35 -3 -1 51 c0 28 3 54
6 57 3 4 6 -3 6 -15 0 -12 4 -22 9 -22 23 0 41 14 41 31 l0 19 20 0 20 0 6 25
c3 14 10 25 15 25 5 0 9 7 9 15 0 8 6 15 14 15 8 0 17 6 19 13 l5 12 1 -17 c1
-10 8 -18 16 -18 l14 0 7 35 c3 19 10 35 15 35 5 0 9 6 9 14 0 8 7 16 15 20 8
3 15 13 15 22 l0 16 -22 -6 c-13 -3 -38 -6 -55 -6 l-33 0 0 -15 0 -15 20 0
c11 0 20 -6 20 -13 0 -7 -9 -13 -20 -13 -11 0 -20 5 -20 10 l0 10 -12 -12
c-15 -15 -28 -15 -28 -1 0 14 -20 33 -44 42 l-19 8 19 14 c22 16 48 20 39 5
l-6 -10 15 0 c18 0 21 16 6 25 -5 3 -10 19 -10 35 l0 28 -14 5 -15 6 -3 -27
-3 -27 -22 -3 -23 -3 0 15 c0 9 7 16 15 16 8 0 15 7 15 15 l0 15 -28 0 c-15 0
-33 -5 -39 -11 -6 -6 -19 -9 -29 -6 l-19 5 23 1 c12 0 22 6 22 12 l0 11 -20
-5 -20 -5 -9 15 -8 15 -7 -17z m71 -52 c-4 -3 -10 -3 -14 0 -3 4 0 7 7 7 7 0
10 -3 7 -7z m36 -41 l5 13 1 -12 c2 -20 -16 -24 -30 -5 l-14 17 17 -13 16 -13
5 13z m-13 -47 c0 -8 -2 -15 -4 -15 -2 0 -6 7 -10 15 -3 8 -1 15 4 15 6 0 10
-7 10 -15z m-60 -46 c0 -5 5 -7 10 -4 6 3 10 1 10 -5 0 -15 -32 -9 -38 8 -2 6
1 12 7 12 6 0 11 -5 11 -11z m96 -90 c8 -14 -10 -11 -32 6 l-19 14 23 -6 c12
-3 25 -9 28 -14z m39 -19 c3 -5 4 -10 1 -10 -3 0 -8 5 -11 10 -3 6 -4 10 -1
10 3 0 8 -4 11 -10z m-25 -4 c0 -2 -7 -6 -15 -10 -8 -3 -15 -1 -15 4 0 6 7 10
15 10 8 0 15 -2 15 -4z m-111 -112 c-6 -8 -15 -12 -18 -8 -3 4 0 9 7 11 6 3 9
10 6 15 l-7 11 12 -7 12 -8 -12 -14z" />
    <path d="M54 649 c-3 -6 -2 -15 3 -20 l9 -9 0 20 c0 23 -2 24 -12 9z" />
    <path d="M280 625 c0 -8 7 -15 15 -15 8 0 15 7 15 15 0 8 -7 15 -15 15 -8 0
-15 -7 -15 -15z" />
    <path d="M340 615 c0 -8 7 -15 15 -15 8 0 15 7 15 15 0 8 -7 15 -15 15 -8 0
-15 -7 -15 -15z" />
    <path d="M60 543 c0 -6 5 -15 10 -18 l10 -6 0 17 0 16 15 -12 15 -13 -6 16
c-7 18 -44 19 -44 0z" />
    <path d="M245 440 c3 -5 8 -10 11 -10 3 0 2 5 -1 10 -3 6 -8 10 -11 10 -3 0
-2 -4 1 -10z" />
    <path d="M80 404 l0 -15 10 6 c6 4 8 11 5 16 -9 14 -15 11 -15 -7z" />
    <path d="M422 408 c6 -18 28 -21 28 -4 0 9 -7 16 -16 16 -9 0 -14 -5 -12 -12z" />
    <path d="M390 380 l0 -21 18 3 c9 2 17 10 17 18 0 8 -8 16 -17 18 l-18 3 0
-21z" />
    <path d="M300 265 c0 -8 7 -15 15 -15 8 0 15 7 15 15 0 8 -7 15 -15 15 -8 0
-15 -7 -15 -15z" />
    <path d="M200 257 c0 -8 7 -14 15 -14 8 0 15 6 15 14 0 7 -7 13 -15 13 -8 0
-15 -6 -15 -13z" />
    <path d="M447 263 c-12 -11 -7 -33 7 -33 12 0 26 20 26 36 0 7 -26 5 -33 -3z" />
    <path d="M230 215 l0 -15 30 0 30 0 0 15 0 15 -30 0 -30 0 0 -15z m37 -2 c-4
-3 -10 -3 -14 0 -3 4 0 7 7 7 7 0 10 -3 7 -7z" />
    <path d="M160 146 c0 -15 37 -32 47 -22 11 11 -7 36 -27 36 l-20 0 0 -14z" />
  </g>
  <g transform="translate(0.000000,68.000000) scale(0.100000,-0.100000)" fill="#343a3d" stroke="none">
    <path d="M50 670 c0 -5 5 -10 11 -10 5 0 7 5 4 10 -3 6 -8 10 -11 10 -2 0 -4
-4 -4 -10z" />
    <path d="M150 672 c8 -4 15 -17 15 -30 l-1 -23 -28 -14 -28 -15 4 25 5 24 -8
-5 c-5 -3 -9 -14 -9 -25 l0 -20 -12 6 c-7 4 -2 -3 11 -15 24 -21 42 -23 44 -5
0 6 7 16 14 23 15 15 43 9 43 -9 l0 -11 15 6 16 6 5 -15 c4 -8 10 -12 15 -9
14 8 11 18 -11 42 -12 12 -17 22 -13 23 4 1 -3 5 -17 9 l-25 8 27 1 c34 1 59
-9 52 -20 -3 -5 2 -9 10 -9 9 0 16 5 16 10 0 6 9 10 20 10 l20 0 0 -14 0 -15
20 2 20 1 1 16 c0 8 2 22 4 30 l2 15 -121 2 c-66 1 -114 -1 -106 -5z m117 -9
c-4 -3 -10 -3 -14 0 -3 4 0 7 7 7 7 0 10 -3 7 -7z m-60 -40 c-4 -3 -10 -3 -14
0 -3 4 0 7 7 7 7 0 10 -3 7 -7z" />
    <path d="M390 635 c0 -8 7 -15 15 -15 8 0 15 7 15 15 0 8 -7 15 -15 15 -8 0
-15 -7 -15 -15z" />
    <path d="M133 633 c4 -3 10 -3 14 0 3 4 0 7 -7 7 -7 0 -10 -3 -7 -7z" />
    <path d="M283 605 c-3 -9 -3 -18 0 -22 10 -10 37 6 37 22 0 20 -29 20 -37 0z" />
    <path d="M137 538 l-6 -20 22 18 c12 11 19 15 15 10 -4 -5 0 -15 10 -22 l17
-12 -24 -26 -24 -26 14 -1 c8 -1 18 -1 22 0 5 1 6 -3 3 -8 -11 -17 15 -24 31
-8 15 15 11 37 -8 37 -6 0 -7 -4 -4 -10 10 -16 -1 -11 -16 7 l-14 17 14 -9 14
-8 -7 11 -7 12 18 -7 18 -7 -18 18 c-9 10 -15 21 -12 26 7 11 45 8 45 -3 0 -5
-7 -7 -15 -3 -8 3 -15 1 -15 -4 0 -6 7 -10 16 -10 l16 0 -12 -15 c-7 -8 -10
-16 -6 -16 3 -1 12 -2 19 -3 6 -1 11 -8 9 -15 -1 -7 2 -10 7 -7 5 4 12 0 14
-6 l5 -13 1 12 c1 6 -3 14 -9 18 -5 3 -6 13 -3 22 l6 16 -11 -7 c-7 -4 -12 -3
-12 2 0 14 28 23 35 12 4 -6 13 -10 21 -10 15 0 18 18 6 37 l-8 12 -81 5 -81
4 -5 -20z" />
    <path d="M430 525 c0 -8 7 -15 15 -15 8 0 15 7 15 15 0 8 -7 15 -15 15 -8 0
-15 -7 -15 -15z" />
    <path d="M333 515 c0 -18 14 -20 20 -2 2 6 8 9 12 5 4 -4 0 -19 -9 -34 l-18
-26 -26 6 -27 6 17 -13 17 -13 -10 -15 -9 -14 0 14 0 14 -18 -16 -18 -17 -12
12 c-17 17 -27 1 -11 -18 l14 -17 -30 6 -30 7 33 -17 33 -17 -5 -13 c-3 -7 -1
-13 4 -13 13 0 50 37 50 50 0 5 10 14 21 21 l21 11 -7 -12 -8 -12 14 -9 c21
-13 39 -11 39 6 0 8 -4 15 -10 15 -5 0 -10 9 -10 20 l0 19 -16 -6 -17 -6 5 14
5 14 31 -3 32 -4 0 12 c0 6 -7 18 -15 27 -8 8 -13 19 -10 24 l6 9 -29 0 -29 0
0 -15z" />
    <path d="M76 487 c3 -10 9 -15 12 -12 3 3 0 11 -7 18 l-12 12 7 -18z" />
    <path d="M432 418 c6 -18 28 -21 28 -4 0 9 -7 16 -16 16 -9 0 -14 -5 -12 -12z" />
    <path d="M175 371 c-3 -5 -2 -12 3 -15 5 -3 9 1 9 9 0 17 -3 19 -12 6z" />
    <path d="M150 350 c0 -5 5 -10 11 -10 5 0 7 5 4 10 -3 6 -8 10 -11 10 -2 0 -4
-4 -4 -10z" />
    <path d="M214 336 l-7 -17 -27 6 -27 6 -7 -16 c-3 -9 -4 -21 0 -26 10 -16 -13
-9 -40 12 l-28 22 3 -55 c1 -30 -1 -60 -5 -66 -9 -14 -11 -13 37 -17 l37 -4 0
10 c0 5 7 9 15 9 8 0 15 5 15 11 l0 11 24 -6 c14 -3 32 -3 40 0 l16 6 0 24 0
24 -15 0 -15 0 0 -20 c0 -11 -4 -20 -10 -20 -5 0 -10 4 -10 9 0 5 -10 11 -22
13 -12 2 -23 9 -26 16 l-4 12 17 0 c9 0 14 4 11 8 -2 4 7 8 22 7 l26 0 4 19
c2 10 -1 23 -7 29 l-10 10 -7 -17z m-67 -92 c7 -20 -6 -32 -16 -15 l-9 13 -11
-18 -10 -19 -1 38 0 38 21 -11 c11 -6 23 -18 26 -26z" />
    <path d="M392 338 c6 -18 28 -21 28 -4 0 9 -7 16 -16 16 -9 0 -14 -5 -12 -12z" />
    <path d="M332 314 c2 -11 11 -20 20 -22 l16 -3 -2 18 c-2 10 -11 20 -20 21
l-18 4 4 -18z" />
    <path d="M300 253 c0 -7 7 -13 15 -13 8 0 15 6 15 13 0 8 -7 14 -15 14 -8 0
-15 -6 -15 -14z" />
    <path d="M170 164 c0 -4 8 -13 18 -20 l17 -14 -17 6 -18 6 0 -26 0 -26 14 0
14 0 6 31 c3 17 3 35 0 40 -6 10 -34 12 -34 3z" />
    <path d="M141 61 c-7 -5 -22 -6 -32 -4 l-19 5 0 -21 0 -21 26 0 c33 0 64 17
64 35 0 17 -18 19 -39 6z" />
  </g>
  <g transform="translate(0.000000,68.000000) scale(0.100000,-0.100000)" fill="#51565a" stroke="none">
    <path d="M280 671 c0 -5 6 -12 13 -14 l12 -5 -17 -1 c-10 -1 -17 -6 -15 -13 3
-16 -41 -26 -95 -20 l-48 5 0 -18 c0 -10 3 -15 7 -12 3 4 12 2 20 -4 7 -6 13
-7 13 -2 0 5 9 9 19 10 l20 2 -6 -15 -5 -14 17 0 c9 0 14 4 11 9 -3 5 3 11 13
14 l20 5 -6 -13 -5 -13 24 -5 23 -4 -23 -8 -23 -8 3 -16 c2 -9 13 -17 25 -19
l21 -3 -2 17 c0 9 6 19 14 21 l15 5 -14 -10 c-20 -14 -5 -30 24 -24 l25 4 0
19 c0 11 -3 19 -7 19 -5 0 -13 11 -20 25 l-11 25 15 0 14 0 -6 10 -7 11 26 -7
26 -6 0 16 0 16 -20 0 -19 0 5 15 6 15 -41 0 c-23 0 -41 -4 -41 -9z m49 -32
c-16 -10 -23 -4 -14 10 3 6 11 8 17 5 l10 -6 -13 -9z m-19 -33 c0 -3 -5 -8
-12 -12 l-11 -7 7 11 c7 12 16 16 16 8z" />
    <path d="M400 670 c0 -5 7 -10 15 -10 8 0 15 5 15 10 0 6 -7 10 -15 10 -8 0
-15 -4 -15 -10z" />
    <path d="M190 651 c0 -10 24 -21 46 -21 8 0 14 7 14 15 l0 15 -30 0 c-16 0
-30 -4 -30 -9z" />
    <path d="M56 567 c3 -10 9 -15 12 -12 3 3 0 11 -7 18 l-12 12 7 -18z" />
    <path d="M470 545 c0 -8 7 -15 15 -15 8 0 15 7 15 15 0 8 -7 15 -15 15 -8 0
-15 -7 -15 -15z" />
    <path d="M401 538 c1 -7 1 -26 0 -41 l-1 -28 -17 3 -18 3 -3 -23 c-2 -12 -8
-20 -13 -17 -5 4 -9 1 -9 -4 0 -6 8 -16 19 -22 l18 -12 -5 -19 -4 -18 18 0 19
0 1 25 2 25 -14 0 -14 0 0 20 c0 11 5 20 11 20 12 0 49 38 49 49 0 3 -3 16 -6
29 -7 23 -36 32 -33 10z" />
    <path d="M66 527 c3 -10 9 -15 12 -12 3 3 0 11 -7 18 l-12 12 7 -18z" />
    <path d="M80 470 c0 -7 3 -10 7 -7 3 4 3 10 0 14 -4 3 -7 0 -7 -7z" />
    <path d="M314 419 l-8 -13 12 -4 c15 -5 16 -32 2 -32 -5 0 -10 -7 -10 -15 0
-8 7 -15 15 -15 8 0 15 7 15 15 0 8 5 15 10 15 17 0 11 26 -9 44 l-19 17 -8
-12z" />
    <path d="M423 393 c0 -7 6 -13 14 -13 7 0 13 6 13 13 0 8 -6 14 -13 14 -8 0
-14 -6 -14 -14z" />
    <path d="M262 365 c11 -11 -51 -65 -81 -71 -32 -7 -35 -11 -25 -38 7 -19 34
-21 34 -3 0 8 11 19 24 25 l24 11 -5 -18 -4 -18 15 0 16 0 7 26 c3 14 13 31
21 37 l14 11 -6 21 c-4 12 -15 22 -23 22 -9 0 -14 -2 -11 -5z" />
    <path d="M394 321 c2 -9 11 -18 20 -19 l18 -4 -4 18 c-1 9 -10 18 -19 20 l-17
2 2 -17z" />
    <path d="M325 300 c-7 -23 4 -50 20 -50 l14 0 -2 33 -2 34 -12 0 c-7 0 -15 -8
-18 -17z" />
    <path d="M290 241 l0 -11 -26 6 -27 7 7 -12 c4 -6 14 -11 22 -11 8 0 13 -6 12
-12 l-3 -13 32 -3 31 -3 7 21 c4 12 5 23 3 25 -1 2 -15 6 -31 10 l-27 7 0 -11z" />
    <path d="M78 215 l-5 -24 10 6 10 6 -8 -14 c-12 -19 -14 -97 -3 -141 l9 -38
14 0 c8 0 15 6 15 14 0 15 35 32 58 27 l12 -2 6 31 c4 16 12 30 18 30 6 0 16
12 23 26 l12 26 -6 29 -5 28 -21 7 -20 6 -12 -15 -11 -16 -25 13 -24 12 -12
-15 -12 -16 -1 17 c0 27 -17 30 -22 3z m122 -76 c0 -5 -10 -9 -21 -9 l-21 0
12 15 c12 15 30 12 30 -6z m-89 -102 l-11 -11 0 20 c0 27 14 41 18 19 2 -9 -1
-22 -7 -28z" />
    <path d="M450 205 c0 -8 7 -15 15 -15 8 0 15 7 15 15 0 8 -7 15 -15 15 -8 0
-15 -7 -15 -15z" />
    <path d="M510 70 l0 -30 15 0 15 0 0 30 0 30 -15 0 -15 0 0 -30z" />
  </g>
  <g transform="translate(0.000000,68.000000) scale(0.100000,-0.100000)" fill="#464b4f" stroke="none">
    <path d="M203 673 c4 -3 10 -3 14 0 3 4 0 7 -7 7 -7 0 -10 -3 -7 -7z" />
    <path d="M275 670 c3 -5 8 -10 11 -10 2 0 4 5 4 10 0 6 -5 10 -11 10 -5 0 -7
-4 -4 -10z" />
    <path d="M304 666 c-7 -19 3 -36 22 -36 l15 0 -3 22 c-4 26 -26 36 -34 14z
m23 -13 c-4 -3 -7 0 -7 7 0 7 3 10 7 7 3 -4 3 -10 0 -14z" />
    <path d="M225 660 l-6 -9 -32 6 -32 5 20 -15 c23 -18 45 -22 45 -7 l0 10 33
-7 c35 -6 35 -2 0 16 l-22 11 -6 -10z" />
    <path d="M373 643 c6 -10 -19 -34 -27 -26 -3 4 -6 -1 -6 -10 0 -9 7 -17 15
-17 8 0 15 4 15 9 0 5 8 12 18 15 10 4 19 13 19 21 l0 15 -19 0 c-11 0 -17 -3
-15 -7z" />
    <path d="M123 605 c0 -8 4 -15 8 -15 4 0 9 7 13 15 l5 15 -13 0 c-7 0 -13 -7
-13 -15z" />
    <path d="M186 604 c-3 -8 -10 -12 -16 -9 -5 3 -10 1 -10 -4 0 -6 -7 -11 -16
-11 -18 0 -14 -22 6 -28 l13 -5 -7 12 -7 11 33 1 c18 1 38 0 43 -1 6 -1 7 2 3
5 -4 4 -3 15 2 24 l8 17 -23 2 -23 2 -6 -16z m34 -8 c0 -2 -7 -6 -15 -10 -8
-3 -15 -1 -15 4 0 6 7 10 15 10 8 0 15 -2 15 -4z" />
    <path d="M253 608 c-11 -19 -12 -38 -2 -39 27 -5 33 -2 36 24 l4 27 -15 0 c-8
0 -18 -6 -23 -12z m14 -13 c0 -8 -4 -12 -9 -9 -5 3 -6 10 -3 15 9 13 12 11 12
-6z" />
    <path d="M330 565 c0 -8 7 -15 15 -15 8 0 15 7 15 15 0 8 -7 15 -15 15 -8 0
-15 -7 -15 -15z" />
    <path d="M176 552 c-14 -13 -3 -20 29 -17 19 2 35 -1 35 -6 0 -5 11 -8 24 -7
14 1 23 5 20 9 -2 4 2 9 8 12 l13 4 -8 9 -9 9 -9 -18 c-6 -9 -15 -14 -21 -11
-17 11 -76 22 -82 16z" />
    <path d="M360 530 c0 -5 7 -10 15 -10 8 0 15 5 15 10 0 6 -7 10 -15 10 -8 0
-15 -4 -15 -10z" />
    <path d="M403 521 c-27 -23 -29 -37 -7 -45 23 -9 23 -8 19 14 l-4 20 30 0 29
0 0 15 0 15 -22 0 c-13 -1 -33 -9 -45 -19z" />
    <path d="M210 445 c0 -3 17 -22 38 -42 l37 -35 -20 6 -20 7 23 -21 c12 -12 20
-25 17 -31 -4 -5 1 -9 9 -9 l16 0 0 35 0 35 15 0 c8 0 15 4 15 9 0 5 3 18 6
28 l6 18 -10 -13 c-5 -8 -13 -14 -18 -14 -22 -1 -35 -12 -30 -24 l5 -13 -15 6
c-7 3 -14 8 -14 12 0 4 -13 17 -30 29 -16 13 -30 20 -30 17z" />
    <path d="M369 448 c0 -2 -2 -10 -4 -18 -2 -8 -6 -23 -10 -32 l-7 -18 14 0 14
0 2 35 c2 19 0 35 -3 35 -3 0 -5 -1 -6 -2z" />
    <path d="M418 412 c-20 -4 -24 -22 -5 -22 6 0 0 -10 -15 -23 -15 -13 -29 -35
-32 -50 -5 -28 0 -32 28 -21 21 8 21 24 0 24 l-16 0 21 18 c11 9 22 27 24 39
3 24 17 44 17 25 0 -7 5 -12 10 -12 6 0 10 6 10 13 0 14 -11 16 -42 9z" />
    <path d="M185 400 c3 -5 8 -10 11 -10 3 0 2 5 -1 10 -3 6 -8 10 -11 10 -3 0
-2 -4 1 -10z" />
    <path d="M237 343 c-20 -5 -17 -30 2 -25 l12 2 -6 -10 c-3 -6 -11 -8 -16 -5
-5 4 -9 2 -9 -3 0 -5 -15 -8 -34 -7 l-34 3 -6 -21 -5 -21 12 -8 c7 -4 8 -8 3
-8 -5 0 -3 -7 4 -15 l12 -15 -14 0 c-8 0 -20 6 -27 13 l-12 12 6 -17 c4 -9 18
-19 31 -22 l25 -7 -6 -10 -7 -10 -14 12 c-8 6 -14 8 -14 4 0 -4 7 -13 17 -20
l16 -12 19 19 c19 19 24 33 8 23 -5 -3 -10 -1 -10 6 l0 12 30 -6 29 -6 -5 14
c-3 7 -12 11 -19 9 -8 -3 -22 -1 -32 5 l-18 10 18 1 c9 0 17 5 17 11 l0 10
-19 -6 -19 -6 -5 15 -6 15 12 -4 c7 -3 28 1 47 8 l35 12 2 28 c1 15 1 26 0 26
-1 -1 -10 -3 -20 -6z" />
    <path d="M276 274 c-3 -8 -10 -12 -16 -9 l-10 6 0 -20 0 -21 15 0 c8 0 15 6
15 14 0 7 9 16 20 19 l21 5 -7 -21 c-4 -12 -9 -24 -13 -27 -3 -3 -7 -13 -9
-23 l-3 -19 16 4 c9 1 15 7 15 12 -1 5 5 13 14 18 17 10 22 48 6 48 -5 0 -10
7 -10 15 l0 15 -24 0 -24 0 -6 -16z" />
    <path d="M82 240 c3 -8 1 -23 -4 -32 l-8 -18 14 6 15 6 -4 20 c-3 11 -7 23
-11 27 -4 3 -4 -1 -2 -9z" />
    <path d="M91 175 l-22 -33 4 -29 4 -28 8 22 7 22 22 -9 23 -8 0 13 c0 8 -5 11
-10 8 l-10 -6 7 11 c11 18 20 14 33 -13 l11 -25 -18 -10 -18 -10 -6 17 -7 17
-19 -29 c-11 -17 -20 -36 -20 -44 l0 -13 14 11 14 12 5 -13 6 -13 24 27 25 26
12 -11 13 -12 -7 18 -6 19 19 5 19 5 -2 24 c0 13 -5 24 -11 24 -5 0 -3 5 5 11
l15 11 -15 -5 -15 -4 3 -18 c2 -9 0 -15 -5 -13 -4 2 -20 10 -35 17 l-28 14 0
18 c0 31 -15 29 -39 -6z m99 -64 c0 -6 -4 -12 -8 -15 -5 -3 -9 1 -9 9 0 8 4
15 9 15 4 0 8 -4 8 -9z m-40 -45 c0 -3 -5 -8 -12 -12 l-11 -7 7 11 c7 12 16
16 16 8z" />
  </g>
  <g transform="translate(0.000000,68.000000) scale(0.100000,-0.100000)" fill="#929a9e" stroke="none">
    <path d="M420 670 c0 -5 7 -10 15 -10 8 0 15 5 15 10 0 6 -7 10 -15 10 -8 0
-15 -4 -15 -10z" />
    <path d="M480 667 c0 -7 5 -18 11 -24 l10 -10 -15 -6 -16 -6 0 14 0 15 -24 0
-25 0 -6 -20 -6 -20 -25 6 -24 6 0 -11 0 -10 -15 5 -15 6 0 -17 0 -17 19 5 18
4 -4 -18 -5 -19 26 0 26 0 1 18 1 17 5 -12 c2 -7 13 -13 24 -13 10 0 19 -5 19
-10 l0 -10 25 6 25 6 0 -20 0 -21 -34 -6 -34 -7 -11 -24 c-6 -13 -15 -24 -21
-24 -5 0 -10 -7 -10 -15 l0 -15 25 0 c31 0 32 -13 3 -32 l-21 -14 7 -12 c10
-17 36 -15 36 3 l0 15 20 0 20 0 0 30 0 30 -15 0 c-8 0 -15 5 -15 11 l0 11 30
-7 30 -7 0 15 c0 8 12 25 28 38 l27 24 0 78 0 77 -47 0 -48 0 0 -13z" />
    <path d="M340 645 l0 -11 35 4 c19 2 35 8 35 13 0 5 -16 9 -35 7 -19 -1 -35
-7 -35 -13z" />
    <path d="M290 580 c0 -5 4 -10 9 -10 6 0 13 5 16 10 l6 10 -15 0 c-9 0 -16 -4
-16 -10z" />
    <path d="M313 555 c-8 -22 6 -33 17 -15 13 20 12 30 0 30 -6 0 -13 -7 -17 -15z" />
    <path d="M677 553 c-10 -9 -9 -23 2 -23 5 0 11 7 15 15 5 15 -5 20 -17 8z" />
    <path d="M570 464 c0 -17 22 -14 28 4 2 7 -3 12 -12 12 -9 0 -16 -7 -16 -16z" />
    <path d="M597 453 c-12 -11 -8 -23 8 -23 8 0 15 7 15 15 0 16 -12 20 -23 8z" />
    <path d="M624 416 c-10 -8 -16 -17 -13 -20 3 -3 14 1 25 8 10 8 16 17 13 20
-3 3 -14 -1 -25 -8z" />
    <path d="M81 404 l1 -19 5 13 c3 7 2 16 -1 19 -3 4 -6 -2 -5 -13z" />
    <path d="M570 387 c0 -8 11 -19 25 -25 l25 -12 0 11 c0 14 -26 39 -39 39 -6 0
-11 -6 -11 -13z" />
    <path d="M355 380 c-8 -12 5 -60 16 -60 10 0 10 0 13 43 l3 27 -13 0 c-7 0
-15 -4 -19 -10z" />
    <path d="M510 365 l0 -15 20 0 20 0 0 15 0 15 -20 0 -20 0 0 -15z" />
    <path d="M414 325 l5 -15 -11 3 c-7 1 -14 -6 -16 -15 l-3 -18 14 0 c8 0 17 10
21 23 8 31 7 37 -5 37 l-11 0 6 -15z" />
    <path d="M258 304 c-4 -3 -12 -7 -20 -8 -35 -6 -58 -19 -58 -32 0 -16 26 -19
35 -4 4 6 10 8 15 5 5 -3 12 -1 15 5 l7 11 16 -13 15 -13 4 13 c3 6 11 12 19
12 8 0 14 7 14 15 l0 15 -20 0 c-11 0 -20 -6 -20 -12 l0 -13 -8 13 c-5 7 -11
10 -14 6z" />
    <path d="M450 295 c0 -8 7 -15 15 -15 8 0 15 7 15 15 0 8 -7 15 -15 15 -8 0
-15 -7 -15 -15z" />
    <path d="M350 285 c0 -8 7 -15 15 -15 8 0 15 7 15 15 0 8 -7 15 -15 15 -8 0
-15 -7 -15 -15z" />
    <path d="M485 280 c-3 -5 -3 -15 0 -20 4 -6 1 -26 -5 -46 l-12 -35 -18 21
c-24 27 -40 25 -40 -5 l0 -25 13 0 12 0 -11 -8 c-6 -4 -13 -14 -17 -24 l-6
-16 18 -34 c9 -18 23 -34 29 -35 14 -3 16 24 2 29 -5 2 -11 14 -12 28 l-3 25
34 -3 34 -4 8 14 9 13 0 -12 c0 -7 5 -13 10 -13 17 0 11 22 -10 40 l-20 18 25
6 25 6 0 15 c0 8 -7 15 -15 15 -15 0 -19 10 -16 43 l2 17 -15 0 c-8 0 -18 -4
-21 -10z m2 -117 c-4 -3 -10 -3 -14 0 -3 4 0 7 7 7 7 0 10 -3 7 -7z" />
    <path d="M81 264 l1 -19 5 13 c3 7 2 16 -1 19 -3 4 -6 -2 -5 -13z" />
    <path d="M318 201 c-22 -22 -23 -31 -3 -31 8 0 15 5 15 10 0 6 5 10 10 10 21
0 9 -20 -15 -26 -14 -3 -25 -11 -25 -18 l0 -12 45 -2 46 -2 -7 38 c-10 54 -34
66 -66 33z" />
    <path d="M250 185 l0 -15 20 0 20 0 0 15 0 15 -20 0 -20 0 0 -15z" />
    <path d="M70 144 l0 -15 10 6 c6 3 10 10 10 16 0 5 -4 9 -10 9 -5 0 -10 -7
-10 -16z" />
    <path d="M70 105 c0 -8 2 -15 4 -15 2 0 6 7 10 15 3 8 1 15 -4 15 -6 0 -10 -7
-10 -15z" />
    <path d="M472 73 c2 -10 11 -19 21 -21 l17 -3 0 20 0 21 -21 0 -20 0 3 -17z" />
    <path d="M170 55 l-12 -15 10 0 c12 0 26 19 19 26 -2 2 -10 -2 -17 -11z" />
    <path d="M80 45 c0 -8 2 -15 4 -15 2 0 6 7 10 15 3 8 1 15 -4 15 -6 0 -10 -7
-10 -15z" />
    <path d="M525 49 c-4 -6 -5 -13 -2 -16 7 -7 27 6 27 18 0 12 -17 12 -25 -2z" />
  </g>
  <g transform="translate(0.000000,68.000000) scale(0.100000,-0.100000)" fill="#99a3a7" stroke="none">
    <path d="M428 673 c-9 -2 -18 -14 -20 -26 l-3 -22 -22 1 -23 1 0 -12 c0 -6 7
-12 15 -13 8 -1 22 -3 30 -4 l16 -1 -11 -11 c-5 -5 -10 -18 -10 -28 l0 -18 29
0 c17 0 32 4 36 10 3 5 13 6 23 3 l17 -6 -18 20 c-9 11 -14 23 -10 26 3 4 1 7
-5 7 -6 0 -15 -8 -21 -17 -5 -10 -13 -15 -16 -11 -11 11 24 41 40 34 8 -3 15
-1 15 3 0 5 8 12 17 15 l17 7 -17 -19 c-19 -20 -23 -37 -7 -27 l10 6 0 -15 c0
-18 15 -21 25 -7 3 5 1 13 -5 16 l-11 7 10 12 c6 7 7 17 3 21 l-7 8 13 -7 12
-7 0 12 c0 7 3 9 7 6 3 -4 -2 -16 -12 -27 l-18 -20 16 0 16 0 25 43 26 42 -16
3 c-9 2 -20 -2 -25 -10 l-8 -13 -21 13 c-24 15 -40 16 -40 1 l0 -11 15 6 c8 3
15 1 15 -4 0 -15 -26 -12 -40 5 -12 15 -29 17 -62 8z m12 -48 c0 -8 -4 -15
-10 -15 -5 0 -7 7 -4 15 4 8 8 15 10 15 2 0 4 -7 4 -15z" />
    <path d="M542 568 l-11 -11 9 -21 8 -22 -20 -13 -20 -12 7 13 c3 7 -3 2 -14
-11 -12 -13 -21 -20 -21 -16 0 4 -7 2 -15 -5 -8 -7 -15 -25 -15 -41 l0 -29 15
0 c8 0 15 -7 15 -15 0 -8 7 -15 15 -15 17 0 18 2 6 53 l-9 37 11 7 10 6 -7
-11 -7 -12 15 0 c9 0 16 5 16 10 0 6 5 10 11 10 6 0 17 7 25 15 l15 15 -7 35
c-7 40 -16 49 -32 33z m-65 -145 c-4 -3 -10 -3 -14 0 -3 4 0 7 7 7 7 0 10 -3
7 -7z" />
    <path d="M637 503 c-13 -12 -7 -33 8 -33 l15 0 0 20 c0 20 -11 26 -23 13z" />
    <path d="M400 466 c0 -8 5 -18 10 -21 6 -4 8 -11 5 -16 -4 -5 0 -9 7 -9 l14 0
-1 27 0 28 -17 3 -18 3 0 -15z" />
    <path d="M510 425 c0 -8 7 -15 15 -15 8 0 15 7 15 15 0 8 -7 15 -15 15 -8 0
-15 -7 -15 -15z" />
    <path d="M583 402 l-23 -3 0 -25 c0 -13 3 -24 8 -24 16 1 44 29 40 42 l-3 13
-22 -3z" />
    <path d="M80 390 c0 -7 3 -10 7 -7 3 4 3 10 0 14 -4 3 -7 0 -7 -7z" />
    <path d="M429 376 l11 -13 -29 3 c-16 2 -35 5 -42 6 -7 2 -15 -5 -17 -14 l-3
-18 49 0 50 0 6 16 c10 27 7 34 -15 34 l-21 0 11 -14z" />
    <path d="M518 357 l-28 -11 0 -18 c0 -10 -4 -18 -10 -18 -5 0 -10 -9 -10 -20
l0 -20 15 0 15 0 0 20 c0 11 5 20 10 20 6 0 10 7 10 15 0 8 7 15 15 15 8 0 15
7 15 15 0 8 -1 15 -2 14 -2 -1 -15 -6 -30 -12z" />
    <path d="M650 352 c0 -5 7 -13 16 -16 l16 -6 -4 12 c-5 15 -28 23 -28 10z" />
    <path d="M417 313 c-12 -11 -8 -23 8 -23 8 0 15 7 15 15 0 16 -12 20 -23 8z" />
    <path d="M260 301 c0 -5 -9 -7 -20 -4 l-20 5 0 -15 0 -16 28 3 27 3 3 17 c2 9
-1 16 -7 16 -6 0 -11 -4 -11 -9z" />
    <path d="M276 273 c-11 -11 -6 -23 9 -23 8 0 15 4 15 9 0 13 -16 22 -24 14z" />
    <path d="M495 254 c-9 -14 -14 -29 -10 -32 3 -4 10 -1 14 7 l8 13 7 -17 c3 -9
6 -33 6 -53 l0 -36 9 10 c5 5 12 28 16 52 l7 42 -11 0 c-6 0 -11 9 -11 20 0
27 -14 25 -35 -6z" />
    <path d="M356 254 c-10 -27 -7 -44 9 -44 8 0 15 3 15 8 0 4 3 17 6 30 l6 22
-15 0 c-8 0 -18 -7 -21 -16z" />
    <path d="M230 235 l0 -14 15 5 c8 4 15 10 15 15 0 5 -7 9 -15 9 -8 0 -15 -7
-15 -15z" />
    <path d="M412 224 l-13 -14 6 -20 6 -20 -30 0 c-37 0 -41 -15 -6 -24 14 -4 25
-11 25 -16 0 -6 7 -10 16 -10 l16 0 -5 14 -6 15 16 -6 16 -6 -7 12 -8 12 21 6
c20 5 30 33 12 33 -5 0 -13 9 -16 20 -7 23 -25 25 -43 4z" />
    <path d="M260 201 c0 -5 8 -12 17 -16 l18 -6 -33 -16 c-17 -8 -32 -21 -32 -29
l0 -13 38 6 c20 3 38 10 40 14 2 4 9 6 16 3 l13 -5 6 28 c6 34 1 44 -18 37 -8
-4 -12 -10 -9 -15 l5 -9 -15 6 c-9 3 -16 10 -16 15 0 5 -7 9 -15 9 -8 0 -15
-4 -15 -9z" />
    <path d="M357 43 c-10 -9 -9 -23 2 -23 5 0 11 7 15 15 5 15 -5 20 -17 8z" />
    <path d="M128 33 c-10 -2 -18 -9 -18 -14 0 -15 43 -7 48 9 4 12 0 13 -30 5z" />
    <path d="M472 28 c6 -18 28 -21 28 -4 0 9 -7 16 -16 16 -9 0 -14 -5 -12 -12z" />
  </g>
  <g transform="translate(0.000000,68.000000) scale(0.100000,-0.100000)" fill="#6d7274" stroke="none">
    <path d="M389 654 l32 -27 12 12 11 11 -12 0 c-6 0 -9 6 -6 13 l5 13 -37 2
-36 3 31 -27z" />
    <path d="M300 647 c0 -8 7 -20 15 -27 l15 -13 -11 -13 -12 -14 -15 12 -16 13
8 -12 7 -13 -10 0 c-6 0 -11 -4 -11 -10 l0 -9 18 6 17 6 -12 -13 -11 -12 16
-17 17 -17 28 4 27 4 0 19 0 19 -14 0 c-19 0 -27 25 -13 40 l12 13 -12 4 -12
4 6 17 6 17 -8 -7 c-4 -4 -14 -3 -22 3 l-13 11 0 -15z m25 -76 c-3 -6 3 -14
12 -20 l18 -9 -8 -9 -9 -8 -14 19 c-17 23 -18 36 -3 36 5 0 8 -4 4 -9z" />
    <path d="M240 620 c0 -4 6 -12 13 -18 l13 -11 1 18 2 18 -15 0 c-8 0 -14 -4
-14 -7z" />
    <path d="M357 609 c-10 -35 -9 -39 8 -39 16 0 18 14 6 44 l-8 20 -6 -25z" />
    <path d="M380 620 c0 -5 7 -10 15 -10 8 0 15 5 15 10 0 6 -7 10 -15 10 -8 0
-15 -4 -15 -10z" />
    <path d="M50 605 c0 -8 4 -15 10 -15 5 0 7 7 4 15 -4 8 -8 15 -10 15 -2 0 -4
-7 -4 -15z" />
    <path d="M163 613 c4 -3 10 -3 14 0 3 4 0 7 -7 7 -7 0 -10 -3 -7 -7z" />
    <path d="M557 613 c-12 -12 -7 -22 8 -17 8 4 15 10 15 15 0 11 -14 12 -23 2z" />
    <path d="M180 580 c0 -5 5 -10 11 -10 5 0 7 5 4 10 -3 6 -8 10 -11 10 -2 0 -4
-4 -4 -10z" />
    <path d="M560 556 c0 -9 5 -16 10 -16 6 0 10 4 10 9 0 6 -4 13 -10 16 l-10 6
0 -15z" />
    <path d="M484 552 c2 -4 -14 -6 -37 -3 l-42 4 15 -19 15 -18 -15 9 -15 9 12
-15 12 -15 -8 -13 c-5 -8 -14 -11 -20 -7 l-11 7 6 -15 6 -16 -15 0 -15 0 -5
-26 -5 -26 22 -8 21 -8 23 14 22 14 0 -10 c0 -5 4 -10 8 -10 4 0 8 9 8 19 l0
20 -28 -6 -27 -5 2 20 1 21 13 -11 13 -10 6 29 6 29 29 13 c31 13 40 41 13 41
-8 0 -13 -3 -10 -8z m-27 -29 c-4 -3 -10 -3 -14 0 -3 4 0 7 7 7 7 0 10 -3 7
-7z" />
    <path d="M82 450 c0 -14 2 -19 5 -12 2 6 2 18 0 25 -3 6 -5 1 -5 -13z" />
    <path d="M299 388 c-1 -7 -1 -23 -1 -35 l1 -23 -25 -6 -25 -6 12 -14 11 -14
-11 0 c-7 0 -10 -4 -7 -8 2 -4 1 -13 -2 -19 l-8 -12 -14 9 -14 8 13 16 13 16
-11 0 c-6 0 -11 -5 -11 -11 l0 -11 -13 10 -12 11 -2 -31 -1 -30 11 11 11 11
13 -22 c7 -13 12 -17 13 -10 0 7 5 10 10 7 l10 -6 0 20 c0 30 17 34 34 9 l16
-23 -17 -6 -17 -6 12 -7 13 -8 19 24 19 23 1 -17 c0 -9 -7 -24 -15 -32 l-16
-16 -18 12 -18 11 -36 -7 c-21 -4 -37 -11 -37 -17 0 -6 4 -8 9 -5 5 3 14 -1
20 -8 l12 -14 -13 -9 c-7 -4 -13 -15 -13 -23 0 -8 -6 -14 -12 -13 -7 2 -13 0
-14 -5 0 -4 -2 -18 -5 -32 l-4 -25 18 21 c9 12 23 31 31 42 8 11 26 26 40 34
14 7 36 23 49 35 14 13 28 20 33 17 l9 -5 0 50 0 51 -11 0 -11 0 6 28 c4 15
17 36 29 46 l22 19 -28 -5 c-15 -3 -30 -1 -33 3 -8 13 -34 11 -35 -3z m8 -94
c-3 -3 -12 -4 -19 -1 l-13 5 19 1 c11 1 17 -2 13 -5z m13 -32 l0 -14 -15 12
c-8 7 -15 13 -15 15 0 1 7 2 15 2 8 0 15 -7 15 -15z m-40 -72 c0 -5 -5 -10
-11 -10 -5 0 -7 5 -4 10 3 6 8 10 11 10 2 0 4 -4 4 -10z" />
    <path d="M410 371 c0 -6 -6 -8 -14 -5 -8 3 -16 1 -19 -3 -6 -10 38 -11 48 -2
3 4 2 10 -4 14 -6 3 -11 2 -11 -4z" />
    <path d="M580 370 c0 -5 5 -10 10 -10 6 0 10 5 10 10 0 6 -4 10 -10 10 -5 0
-10 -4 -10 -10z" />
    <path d="M443 264 c-3 -8 0 -21 6 -27 l12 -12 9 15 c5 8 10 21 10 28 0 17 -30
15 -37 -4z m27 -8 c0 -3 -5 -8 -12 -12 l-11 -7 7 11 c7 12 16 16 16 8z" />
    <path d="M460 222 c-20 -9 -24 -32 -4 -32 8 0 13 4 10 9 l-6 9 20 -5 20 -5 7
-26 6 -26 -11 -4 c-17 -5 -15 -29 4 -36 9 -3 20 -6 25 -6 l9 0 -4 43 c-2 23
-4 48 -5 55 -1 6 -4 11 -8 11 -20 -3 -34 2 -28 11 7 11 -12 12 -35 2z" />
    <path d="M423 138 c-11 -19 -13 -38 -2 -38 4 0 6 -7 3 -15 l-6 -15 15 0 c8 0
17 -9 20 -20 10 -38 23 -20 24 33 l1 52 -12 7 c-17 11 -34 9 -43 -4z" />
    <path d="M140 125 c-16 -20 -5 -45 20 -45 26 0 25 8 -2 20 l-23 9 18 0 c18 1
23 16 8 25 -5 3 -14 -1 -21 -9z" />
    <path d="M500 39 l0 -20 17 3 c9 2 17 10 18 18 l3 16 -19 1 -19 2 0 -20z" />
    <path d="M86 25 c4 -8 11 -15 16 -15 l10 0 -12 15 c-16 19 -21 19 -14 0z" />
    <path d="M123 26 c5 -15 24 -18 24 -3 0 8 -6 14 -14 14 -7 0 -12 -5 -10 -11z" />
  </g>
  <g transform="translate(0.000000,68.000000) scale(0.100000,-0.100000)" fill="#869095" stroke="none">
    <path d="M350 671 c0 -24 61 -35 112 -20 l27 7 4 -11 3 -11 7 18 7 17 -9 -6
c-5 -3 -12 -1 -16 5 l-6 10 -18 -10 -18 -9 -11 11 -12 12 0 -10 c0 -6 -13 -11
-30 -11 -16 0 -27 4 -24 9 3 4 0 8 -5 8 -6 0 -11 -4 -11 -9z m87 -18 c-4 -3
-10 -3 -14 0 -3 4 0 7 7 7 7 0 10 -3 7 -7z" />
    <path d="M525 662 c0 -9 5 -24 10 -31 l8 -14 -22 6 -23 6 17 -19 c21 -24 33
-18 30 12 -1 13 -3 31 -4 41 0 9 -5 17 -9 17 -5 0 -8 -8 -7 -18z" />
    <path d="M580 669 c0 -15 18 -19 23 -6 l5 14 -14 0 c-8 0 -14 -4 -14 -8z" />
    <path d="M315 612 c2 -13 12 -31 22 -39 10 -8 12 -12 6 -8 -7 3 -13 1 -13 -4
0 -6 7 -11 15 -11 8 0 15 -4 15 -10 0 -14 27 -12 33 3 3 6 6 7 6 2 1 -11 55
-11 84 0 l18 8 -31 -31 c-31 -32 -37 -47 -20 -57 l10 -6 -6 14 -5 14 25 5 25
5 -5 -8 c-3 -5 -1 -9 5 -9 6 0 15 15 20 33 5 17 10 26 10 20 2 -21 21 -14 21
7 0 11 -5 20 -11 20 -5 0 -7 5 -3 11 l6 11 -19 -11 c-11 -5 -28 -10 -39 -10
-10 0 -31 -3 -46 -7 l-28 -6 0 11 0 10 15 -5 15 -6 -6 15 c-6 17 -29 30 -57
32 l-18 2 5 -13 5 -13 -25 11 c-13 6 -21 14 -17 17 14 10 12 28 -2 28 l-15 0
5 -25z m82 -19 c-4 -3 -10 -3 -14 0 -3 4 0 7 7 7 7 0 10 -3 7 -7z m0 -29 c-3
-3 -12 -4 -19 -1 l-13 5 19 1 c11 1 17 -2 13 -5z" />
    <path d="M560 623 c0 -7 4 -13 9 -13 5 0 11 6 14 13 l5 14 -14 0 c-8 0 -14 -6
-14 -14z" />
    <path d="M455 600 c3 -5 11 -10 16 -10 6 0 7 5 4 10 -3 6 -11 10 -16 10 -6 0
-7 -4 -4 -10z" />
    <path d="M300 565 c6 -8 9 -19 5 -25 l-6 -10 15 0 16 0 -12 25 c-6 14 -16 25
-21 25 l-9 0 12 -15z" />
    <path d="M567 553 c-4 -3 -7 -11 -7 -17 l0 -10 12 12 c6 6 9 14 7 17 -3 3 -9
2 -12 -2z" />
    <path d="M647 533 c-12 -11 -8 -23 8 -23 8 0 15 7 15 15 0 16 -12 20 -23 8z" />
    <path d="M618 475 c-16 -21 -15 -35 3 -35 13 0 28 35 21 47 l-7 11 -17 -23z" />
    <path d="M393 445 c0 -18 2 -18 27 -5 l19 10 6 -10 6 -10 -20 0 c-12 0 -21 -5
-21 -11 l0 -11 18 7 c9 4 26 9 37 12 l20 4 -19 -15 -20 -16 17 0 c9 0 17 3 18
8 0 4 2 15 4 24 l3 17 -16 0 c-10 0 -31 2 -48 6 l-31 6 0 -16z" />
    <path d="M80 420 c0 -7 3 -10 7 -7 3 4 3 10 0 14 -4 3 -7 0 -7 -7z" />
    <path d="M344 382 c-4 -9 -9 -28 -10 -42 l-3 -26 24 -2 24 -2 -9 25 c-5 14 -7
31 -4 39 8 21 -13 29 -22 8z" />
    <path d="M414 372 c3 -5 0 -12 -6 -15 l-13 -4 13 -14 c13 -14 17 -33 4 -25 -4
2 -18 -1 -31 -8 l-24 -13 13 -8 12 -7 10 10 c6 6 16 8 23 6 l12 -5 0 41 c0 22
-5 44 -10 47 l-10 6 7 -11z" />
    <path d="M310 322 c0 -7 -5 -10 -10 -7 -6 3 -13 -1 -17 -10 l-6 -17 14 -8 c19
-12 27 -1 9 11 l-15 11 15 -4 c8 -3 17 -15 20 -29 l6 -24 7 12 c4 6 0 26 -8
44 -8 19 -14 28 -15 21z" />
    <path d="M463 295 c0 -8 4 -15 8 -15 4 0 11 -9 14 -20 3 -11 12 -20 19 -20
l13 0 -2 -30 c-1 -17 2 -29 7 -28 5 2 9 7 9 11 -1 4 -1 22 -1 41 l0 35 -21 -4
-21 -4 14 16 13 17 -19 -7 -18 -7 6 15 5 15 -13 0 c-7 0 -13 -7 -13 -15z" />
    <path d="M348 253 c0 -10 0 -28 1 -40 1 -13 -3 -23 -9 -23 l-11 0 7 13 7 12
-9 -8 c-4 -4 -8 -20 -9 -35 l0 -27 -12 0 c-6 0 -15 -3 -19 -7 -4 -4 7 -6 23
-5 l30 2 -5 15 c-3 8 -2 12 3 8 11 -10 35 10 35 29 0 8 -3 12 -7 10 -5 -3 -9
6 -9 19 -1 13 1 24 5 24 4 0 8 7 8 15 0 21 -27 19 -29 -2z" />
    <path d="M426 208 c3 -4 0 -8 -5 -8 -6 0 -11 -4 -11 -8 0 -10 78 -7 88 3 3 3
0 10 -8 15 l-15 9 -3 -9 c-2 -6 -10 -10 -18 -10 -9 0 -13 4 -10 8 3 5 -1 9 -9
9 -8 0 -12 -4 -9 -9z" />
    <path d="M258 202 c-10 -2 -18 -11 -18 -19 l0 -16 19 17 19 17 5 -15 c4 -9 3
-15 -1 -13 -9 2 -46 -24 -56 -40 l-7 -13 13 0 c8 0 23 7 34 16 10 8 13 12 5 8
l-14 -7 6 10 c4 6 17 9 30 8 l24 -3 -11 24 c-12 26 -23 32 -48 26z" />
    <path d="M400 122 l0 -14 15 12 c8 7 15 13 15 15 0 1 -7 2 -15 2 -8 0 -15 -7
-15 -15z" />
  </g>
  <g transform="translate(0.000000,68.000000) scale(0.100000,-0.100000)" fill="#3e4346" stroke="none">
    <path d="M263 673 c4 -3 10 -3 14 0 3 4 0 7 -7 7 -7 0 -10 -3 -7 -7z" />
    <path d="M303 666 c-4 -7 -15 -16 -23 -19 l-15 -5 18 -1 c20 -1 24 -21 4 -21
-8 0 -14 -7 -14 -15 0 -8 4 -15 9 -15 4 0 8 5 8 10 0 6 6 10 13 9 6 -1 18 -1
25 0 l13 1 -16 16 -16 16 6 19 c7 22 0 25 -12 5z" />
    <path d="M337 673 c-11 -10 -8 -33 4 -33 l11 0 -6 16 -6 17 15 -13 15 -13 -6
17 c-6 17 -16 20 -27 9z" />
    <path d="M380 674 c0 -3 7 -12 15 -21 8 -8 13 -19 10 -24 -10 -15 2 -10 16 8
l14 17 -12 -8 -13 -7 -1 13 c-1 7 -1 16 0 21 0 4 -6 7 -14 7 -8 0 -15 -3 -15
-6z" />
    <path d="M176 645 l-5 -15 21 0 20 0 -12 15 c-7 8 -14 15 -15 15 -2 0 -5 -7
-9 -15z" />
    <path d="M233 625 c0 -8 4 -15 9 -15 4 0 8 7 8 15 0 8 -4 15 -8 15 -5 0 -9 -7
-9 -15z" />
    <path d="M54 618 l-7 -11 11 7 c12 7 16 16 8 16 -3 0 -8 -5 -12 -12z" />
    <path d="M128 613 c7 -3 16 -2 19 1 4 3 -2 6 -13 5 l-19 -1 13 -5z" />
    <path d="M206 611 c-3 -5 1 -11 9 -14 l14 -6 -6 15 c-6 16 -10 17 -17 5z" />
    <path d="M357 603 c-4 -3 -7 -11 -7 -17 l0 -10 12 12 c6 6 9 14 7 17 -3 3 -9
2 -12 -2z" />
    <path d="M110 583 l-14 -17 16 6 16 7 6 -15 c3 -8 11 -14 18 -14 l13 0 -15 10
-15 10 18 0 c9 0 17 4 17 9 0 5 -10 7 -22 3 l-21 -5 7 11 c11 18 -7 14 -24 -5z" />
    <path d="M180 591 c0 -6 4 -13 10 -16 l10 -6 -6 15 c-7 18 -14 21 -14 7z" />
    <path d="M170 545 l-12 -15 10 0 c12 0 26 19 19 26 -2 2 -10 -2 -17 -11z" />
    <path d="M216 538 c3 -5 8 -7 11 -4 3 3 18 -3 33 -14 16 -11 37 -20 47 -20
l20 0 0 15 0 15 -13 -11 -12 -10 -7 11 c-3 6 -10 8 -15 5 -5 -3 -12 0 -17 7
-4 7 -18 14 -30 14 l-23 1 6 -9z" />
    <path d="M375 529 c4 -6 14 -8 24 -5 l16 6 -19 -15 c-11 -8 -15 -15 -9 -15 7
0 14 4 17 9 3 5 16 7 28 3 l21 -5 -7 12 c-4 6 -11 9 -16 6 -5 -3 -11 -1 -15 5
-3 5 -15 10 -26 10 l-20 0 6 -11z" />
    <path d="M184 498 l-7 -11 11 7 c12 7 16 16 8 16 -3 0 -8 -5 -12 -12z" />
    <path d="M249 473 l-14 -18 18 14 c9 7 17 15 17 17 0 8 -8 3 -21 -13z" />
    <path d="M375 480 l-6 -10 15 6 c18 7 21 14 7 14 -6 0 -13 -4 -16 -10z" />
    <path d="M214 448 l-7 -11 11 7 c12 7 16 16 8 16 -3 0 -8 -5 -12 -12z" />
    <path d="M225 420 c3 -5 8 -10 11 -10 3 0 2 5 -1 10 -3 6 -8 10 -11 10 -3 0
-2 -4 1 -10z" />
    <path d="M294 392 c0 -10 6 -19 13 -19 7 0 10 4 7 9 -3 4 0 8 6 8 6 0 8 5 5
10 -10 17 -31 11 -31 -8z" />
    <path d="M193 393 c4 -3 10 -3 14 0 3 4 0 7 -7 7 -7 0 -10 -3 -7 -7z" />
    <path d="M390 390 l-15 -10 12 0 c6 0 15 5 18 10 8 12 4 12 -15 0z" />
    <path d="M400 350 c0 -5 5 -10 11 -10 5 0 7 5 4 10 -3 6 -8 10 -11 10 -2 0 -4
-4 -4 -10z" />
    <path d="M238 343 c-21 -5 -23 -19 -5 -29 6 -4 9 -4 5 1 -4 4 0 14 10 21 18
14 17 14 -10 7z" />
    <path d="M80 294 l0 -15 10 6 c6 4 8 11 5 16 -9 14 -15 11 -15 -7z" />
    <path d="M150 289 c0 -5 5 -7 10 -4 6 3 10 8 10 11 0 2 -4 4 -10 4 -5 0 -10
-5 -10 -11z" />
    <path d="M190 262 l-24 -17 8 13 7 12 -9 0 c-5 0 -12 -8 -14 -18 l-5 -19 23 5
c13 2 24 9 24 14 0 6 7 8 15 4 l15 -5 0 14 c0 19 -9 18 -40 -3z" />
    <path d="M288 260 c-7 -11 -19 -20 -27 -20 l-15 0 13 -12 14 -13 4 13 c3 6 11
12 19 12 l14 0 0 20 c0 11 -2 20 -5 20 -3 0 -10 -9 -17 -20z" />
    <path d="M140 260 c0 -7 3 -10 7 -7 3 4 3 10 0 14 -4 3 -7 0 -7 -7z" />
    <path d="M190 220 c0 -7 3 -10 7 -7 3 4 3 10 0 14 -4 3 -7 0 -7 -7z" />
    <path d="M300 221 c0 -5 9 -11 20 -14 24 -6 27 8 4 17 -21 8 -24 8 -24 -3z" />
    <path d="M113 193 c0 -7 4 -13 9 -13 4 0 8 4 8 9 0 5 8 12 18 14 l17 5 -26 -1
-26 -1 0 -13z" />
    <path d="M72 143 c0 -18 4 -33 9 -33 4 0 6 6 3 14 l-6 15 21 -6 21 -5 0 12 0
12 -16 -6 -16 -6 4 18 5 19 -12 0 -13 0 0 -34z" />
    <path d="M222 171 l-14 -8 14 -6 15 -5 0 14 c0 8 -1 14 -1 14 -1 0 -7 -4 -14
-9z" />
    <path d="M151 137 l-11 -14 13 0 c8 0 14 6 14 14 0 7 -1 13 -2 13 -2 0 -8 -6
-14 -13z" />
    <path d="M204 138 l-7 -11 11 7 c12 7 16 16 8 16 -3 0 -8 -5 -12 -12z" />
    <path d="M190 111 c0 -6 4 -13 10 -16 l10 -6 -6 15 c-7 18 -14 21 -14 7z" />
    <path d="M123 103 c-7 -3 -13 -11 -13 -18 0 -8 6 -17 13 -21 l12 -7 -7 8 c-4
4 -3 14 4 22 13 15 9 22 -9 16z" />
    <path d="M85 61 l-6 -11 17 0 16 0 -5 -19 -5 -20 18 2 18 1 -6 16 -6 15 16
-13 16 -13 5 14 c3 8 2 19 -2 26 l-8 12 -13 -16 -13 -16 -17 16 -18 16 -7 -10z
m72 -18 c-4 -3 -10 -3 -14 0 -3 4 0 7 7 7 7 0 10 -3 7 -7z" />
  </g>
  <g transform="translate(0.000000,68.000000) scale(0.100000,-0.100000)" fill="#5f666b" stroke="none">
    <path d="M335 670 l-6 -10 15 6 c18 7 21 14 7 14 -6 0 -13 -4 -16 -10z" />
    <path d="M388 673 c7 -3 16 -2 19 1 4 3 -2 6 -13 5 l-19 -1 13 -5z" />
    <path d="M425 670 c3 -5 8 -10 11 -10 3 0 2 5 -1 10 -3 6 -8 10 -11 10 -3 0
-2 -4 1 -10z" />
    <path d="M302 648 l5 -28 -23 6 -24 6 0 -10 c0 -5 13 -12 29 -14 l29 -4 -4 29
c-2 16 -6 32 -10 36 -4 3 -5 -6 -2 -21z" />
    <path d="M210 645 l-14 -17 30 4 c16 1 28 8 27 13 -3 17 -29 17 -43 0z m27 -2
c-4 -3 -10 -3 -14 0 -3 4 0 7 7 7 7 0 10 -3 7 -7z" />
    <path d="M365 650 c3 -5 8 -10 11 -10 3 0 2 5 -1 10 -3 6 -8 10 -11 10 -3 0
-2 -4 1 -10z" />
    <path d="M330 640 c0 -5 5 -10 10 -10 6 0 10 5 10 10 0 6 -4 10 -10 10 -5 0
-10 -4 -10 -10z" />
    <path d="M178 613 c6 -2 10 -9 7 -14 l-6 -9 15 6 c20 8 11 24 -12 23 l-17 -1
13 -5z" />
    <path d="M337 608 c5 -7 8 -23 7 -35 0 -12 2 -20 6 -18 6 4 7 26 1 58 0 4 -6
7 -12 7 l-11 0 9 -12z" />
    <path d="M204 584 l-19 -15 23 11 c12 6 22 13 22 15 0 8 -5 6 -26 -11z" />
    <path d="M413 583 c4 -3 10 -3 14 0 3 4 0 7 -7 7 -7 0 -10 -3 -7 -7z" />
    <path d="M555 581 c-3 -5 -1 -12 5 -16 l10 -6 0 15 c0 18 -6 21 -15 7z" />
    <path d="M260 570 c0 -5 5 -10 10 -10 6 0 10 5 10 10 0 6 -4 10 -10 10 -5 0
-10 -4 -10 -10z" />
    <path d="M293 560 l-2 -20 20 -11 c12 -6 24 -8 27 -4 3 3 -4 8 -16 12 -12 3
-22 10 -22 15 l0 9 13 -7 12 -8 -14 17 c-7 9 -14 17 -15 17 -1 0 -2 -9 -3 -20z" />
    <path d="M457 547 l-5 -13 19 0 18 0 -11 13 c-6 7 -12 13 -13 13 -2 0 -5 -6
-8 -13z" />
    <path d="M390 540 c0 -5 5 -10 10 -10 6 0 10 5 10 10 0 6 -4 10 -10 10 -5 0
-10 -4 -10 -10z" />
    <path d="M360 529 c0 -5 5 -7 10 -4 6 3 10 8 10 11 0 2 -4 4 -10 4 -5 0 -10
-5 -10 -11z" />
    <path d="M430 511 l15 -11 -17 0 c-10 0 -17 -5 -15 -12 1 -7 -8 -17 -20 -23
l-23 -10 0 -26 0 -26 25 5 c31 5 32 20 3 32 l-23 9 15 0 c9 1 22 10 30 20 7
11 18 17 23 14 l9 -5 -4 17 c-1 10 -10 20 -18 22 l-15 5 15 -11z" />
    <path d="M315 399 c-11 -4 -14 -8 -7 -8 7 -1 10 -6 7 -11 -4 -6 -11 -7 -17 -4
l-11 7 7 -11 7 -12 -13 0 -13 0 13 -8 13 -9 -7 -16 c-3 -9 -10 -14 -15 -11 -5
3 -9 0 -9 -5 0 -16 20 -13 26 4 4 8 11 12 17 8 l10 -6 -7 11 c-4 7 -4 17 -1
23 l7 10 19 -17 c10 -9 16 -21 13 -25 -3 -5 2 -9 10 -9 22 0 20 17 -4 30 l-20
11 10 19 c5 10 10 21 10 23 0 10 -26 14 -45 6z m35 -13 c0 -3 -5 -8 -12 -12
l-11 -7 7 11 c7 12 16 16 16 8z m-30 -20 c0 -3 -5 -8 -12 -12 l-11 -7 7 11 c7
12 16 16 16 8z" />
    <path d="M415 380 l-6 -10 15 6 c18 7 21 14 7 14 -6 0 -13 -4 -16 -10z" />
    <path d="M405 350 c3 -5 8 -10 11 -10 3 0 2 5 -1 10 -3 6 -8 10 -11 10 -3 0
-2 -4 1 -10z" />
    <path d="M328 318 c0 -7 -2 -25 -3 -39 -1 -14 -5 -31 -9 -38 l-8 -12 -13 11
c-15 12 -39 4 -30 -9 2 -5 14 -11 25 -14 l20 -5 16 29 c8 16 19 27 24 24 6 -4
10 1 10 10 l0 16 13 -7 12 -7 -14 14 -13 14 -5 -12 c-3 -7 -9 -13 -14 -13 l-9
0 6 25 c3 14 3 25 0 25 -3 0 -7 -6 -8 -12z" />
    <path d="M420 321 c0 -6 5 -13 10 -16 l10 -6 0 15 c0 9 -4 16 -10 16 -5 0 -10
-4 -10 -9z" />
    <path d="M166 271 c-3 -5 0 -11 8 -14 l14 -6 6 15 5 14 -14 0 c-7 0 -16 -4
-19 -9z" />
    <path d="M500 265 l-12 -15 10 0 c5 0 12 7 16 15 3 8 4 15 2 15 -2 0 -9 -7
-16 -15z" />
    <path d="M80 250 c0 -7 3 -10 7 -7 3 4 3 10 0 14 -4 3 -7 0 -7 -7z" />
    <path d="M341 232 c-17 -31 -13 -40 5 -14 9 13 14 26 11 29 -3 2 -10 -4 -16
-15z" />
    <path d="M223 223 l-13 -5 15 -15 c8 -8 13 -19 10 -24 -4 -5 -1 -9 4 -9 14 0
14 27 1 35 -6 4 -8 11 -5 16 7 10 6 10 -12 2z" />
    <path d="M440 221 c0 -5 9 -11 19 -14 l20 -5 5 14 5 14 -24 0 c-14 0 -25 -4
-25 -9z" />
    <path d="M204 188 l-7 -11 11 7 c12 7 16 16 8 16 -3 0 -8 -5 -12 -12z" />
    <path d="M287 181 l-5 -19 14 2 c22 3 26 12 10 25 l-14 11 -5 -19z" />
    <path d="M230 150 c0 -5 5 -10 11 -10 5 0 7 5 4 10 -3 6 -8 10 -11 10 -2 0 -4
-4 -4 -10z" />
    <path d="M132 114 c-1 -13 0 -24 2 -24 7 0 14 40 7 44 -4 3 -8 -6 -9 -20z" />
    <path d="M425 110 c-1 -16 3 -26 7 -24 10 7 10 41 0 47 -4 3 -7 -8 -7 -23z" />
    <path d="M160 120 c0 -7 3 -10 7 -7 3 4 3 10 0 14 -4 3 -7 0 -7 -7z" />
    <path d="M510 85 l0 -32 15 0 15 0 0 32 0 32 -15 0 -15 0 0 -32z m17 -12 c-4
-3 -7 0 -7 7 0 7 3 10 7 7 3 -4 3 -10 0 -14z" />
    <path d="M165 90 c3 -5 8 -10 11 -10 3 0 2 5 -1 10 -3 6 -8 10 -11 10 -3 0 -2
-4 1 -10z" />
    <path d="M144 58 l-7 -11 11 7 c7 4 12 9 12 12 0 8 -9 4 -16 -8z" />
  </g>
  <g transform="translate(0.000000,68.000000) scale(0.100000,-0.100000)" fill="#a2aaaf" stroke="none">
    <path d="M435 670 c-3 -5 -5 -10 -3 -11 25 -6 44 -7 52 -1 6 3 20 8 30 9 35 6
30 13 -7 13 l-37 0 0 -11 0 -11 -14 11 -14 12 -7 -11z" />
    <path d="M570 649 l-13 -30 13 -12 12 -12 -7 24 -7 24 11 -7 11 -7 -7 17 -6
17 11 -7 12 -7 -6 15 c-3 9 -7 16 -9 16 -1 0 -8 -14 -15 -31z" />
    <path d="M467 628 c-11 -10 -24 -18 -29 -18 -5 0 -6 -4 -3 -10 l6 -10 37 20
c20 10 44 24 52 30 l15 10 -29 -2 c-15 -2 -37 -11 -49 -20z" />
    <path d="M390 620 c-20 -12 -5 -24 16 -12 l17 9 -10 6 c-5 3 -15 2 -23 -3z" />
    <path d="M535 621 c-3 -5 -2 -12 3 -15 5 -3 9 1 9 9 0 17 -3 19 -12 6z" />
    <path d="M330 595 l-12 -15 14 0 c8 0 15 7 15 15 0 8 -1 15 -2 15 -2 0 -8 -7
-15 -15z" />
    <path d="M455 563 c2 -10 4 -20 4 -23 1 -3 5 2 10 10 10 15 6 30 -9 30 -4 0
-7 -8 -5 -17z" />
    <path d="M560 575 c0 -5 5 -17 10 -25 5 -8 10 -10 10 -5 0 6 -5 17 -10 25 -5
8 -10 11 -10 5z" />
    <path d="M423 563 c4 -3 10 -3 14 0 3 4 0 7 -7 7 -7 0 -10 -3 -7 -7z" />
    <path d="M560 511 l0 -13 -14 5 -15 6 -6 -19 c-4 -11 -3 -25 1 -31 l6 -11 -21
11 -21 12 0 -20 c0 -11 -4 -23 -10 -26 -5 -3 -10 -11 -10 -16 l0 -10 12 7 11
7 -7 -11 c-4 -7 -13 -12 -21 -12 -7 0 -16 -8 -19 -17 l-7 -16 13 -9 c7 -4 18
-10 23 -13 l10 -5 -12 -6 c-17 -8 -16 -24 0 -24 21 0 49 -36 45 -57 -2 -10
-10 -17 -16 -16 -7 2 -11 -3 -9 -10 l2 -12 -14 3 -14 3 12 -14 12 -15 -31 2
c-16 1 -30 -1 -30 -5 0 -4 -6 -6 -12 -5 -7 0 -13 -2 -13 -6 0 -4 -9 -14 -20
-22 l-20 -15 21 -1 22 0 6 16 6 16 20 -5 20 -5 -6 9 c-3 5 4 9 15 9 11 0 26 9
34 20 8 11 17 18 20 15 4 -3 5 -2 2 2 -3 3 0 12 6 19 l10 12 -7 26 -6 26 -16
0 -16 0 16 13 c21 17 28 43 15 56 l-11 11 12 0 c7 0 12 -4 12 -10 0 -5 5 -10
10 -10 6 0 10 7 10 15 0 7 7 18 16 23 l17 9 -13 8 -12 8 -9 -14 -9 -14 0 20
c0 11 5 27 10 35 l10 15 0 -17 0 -18 15 0 c17 0 20 25 5 35 -6 4 -8 10 -6 13
2 4 -2 18 -10 32 -7 14 -13 19 -14 11z m-13 -28 c-4 -3 -10 -3 -14 0 -3 4 0 7
7 7 7 0 10 -3 7 -7z m-35 -103 c-5 -35 -20 -41 -16 -7 1 12 3 25 3 30 1 4 5 7
9 7 5 0 7 -13 4 -30z m-5 -57 c-4 -3 -7 0 -7 7 0 7 3 10 7 7 3 -4 3 -10 0 -14z" />
    <path d="M637 507 l-5 -14 14 0 c8 0 14 6 14 14 0 7 -4 13 -9 13 -5 0 -11 -6
-14 -13z" />
    <path d="M403 451 l1 -19 13 5 14 5 -12 14 c-15 19 -18 18 -16 -5z" />
    <path d="M445 450 c-3 -5 -2 -10 4 -10 5 0 13 5 16 10 3 6 2 10 -4 10 -5 0
-13 -4 -16 -10z" />
    <path d="M620 444 l0 -16 15 12 c8 7 15 14 15 16 0 2 -7 4 -15 4 -8 0 -15 -7
-15 -16z" />
    <path d="M640 424 c0 -8 -4 -13 -8 -10 -12 7 -38 -12 -29 -21 5 -4 12 -2 16 6
10 16 22 16 32 -1 l8 -13 12 12 12 12 -16 15 c-20 20 -27 20 -27 0z" />
    <path d="M80 380 c0 -7 3 -10 7 -7 3 4 3 10 0 14 -4 3 -7 0 -7 -7z" />
    <path d="M580 365 l-13 -15 17 6 c9 3 16 10 16 15 0 13 -6 11 -20 -6z" />
    <path d="M360 345 l-12 -15 10 0 c12 0 26 19 19 26 -2 2 -10 -2 -17 -11z" />
    <path d="M660 355 c0 -7 32 -35 41 -35 18 0 9 17 -16 28 -14 6 -25 10 -25 7z" />
    <path d="M266 295 l-5 -15 14 0 c8 0 15 7 15 15 0 8 -4 15 -9 15 -5 0 -11 -7
-15 -15z" />
    <path d="M550 295 c0 -8 4 -15 9 -15 5 0 11 7 15 15 l5 15 -14 0 c-8 0 -15 -7
-15 -15z" />
    <path d="M375 290 c-4 -6 -11 -8 -16 -5 -5 4 -9 -1 -9 -9 l0 -16 18 -1 17 -1
-12 -4 c-7 -3 -10 -11 -7 -18 3 -7 -2 -19 -11 -26 -8 -7 -15 -19 -15 -28 l0
-16 22 24 22 23 4 -11 c2 -7 10 -12 18 -12 9 0 12 5 9 10 -3 6 -1 10 4 10 6 0
11 5 11 11 l0 10 -20 -6 -20 -6 0 30 c0 17 5 31 11 31 5 0 7 5 4 10 -8 13 -22
13 -30 0z" />
    <path d="M220 261 c0 -6 5 -13 10 -16 l10 -6 0 15 c0 9 -4 16 -10 16 -5 0 -10
-4 -10 -9z" />
    <path d="M526 177 c3 -10 9 -15 12 -12 3 3 0 11 -7 18 l-12 12 7 -18z" />
    <path d="M301 166 l-12 -14 13 2 c14 2 23 15 15 22 -2 2 -10 -2 -16 -10z" />
    <path d="M354 158 l-7 -11 11 7 c12 7 16 16 8 16 -3 0 -8 -5 -12 -12z" />
    <path d="M260 108 l1 -33 14 19 c19 25 19 46 0 46 l-15 0 0 -32z" />
    <path d="M200 95 l-12 -15 10 0 c5 0 12 7 16 15 3 8 4 15 2 15 -2 0 -9 -7 -16
-15z" />
    <path d="M490 20 c0 -5 7 -10 15 -10 8 0 15 5 15 10 0 6 -7 10 -15 10 -8 0
-15 -4 -15 -10z" />
  </g>
  <g transform="translate(0.000000,68.000000) scale(0.100000,-0.100000)" fill="#b2bbbf" stroke="none">
    <path d="M498 673 c7 -3 16 -2 19 1 4 3 -2 6 -13 5 l-19 -1 13 -5z" />
    <path d="M450 619 l-25 -19 16 0 c8 0 23 6 34 13 l18 14 -9 6 c-5 3 -21 -3
-34 -14z" />
    <path d="M390 620 l-15 -10 18 0 c9 0 17 5 17 10 0 12 -1 12 -20 0z" />
    <path d="M553 615 l-12 -13 12 -10 12 -10 1 24 c1 13 1 24 0 24 0 -1 -6 -7
-13 -15z" />
    <path d="M616 565 c-3 -8 -1 -15 4 -15 6 0 10 7 10 15 0 8 -2 15 -4 15 -2 0
-6 -7 -10 -15z" />
    <path d="M61 544 l1 -19 5 13 c3 7 2 16 -1 19 -3 4 -6 -2 -5 -13z" />
    <path d="M645 513 c3 -8 5 -17 5 -19 0 -2 5 -4 10 -4 6 0 10 8 10 18 l0 19
-15 0 -16 0 6 -14z" />
    <path d="M558 488 c-22 -21 -58 -39 -58 -29 0 5 -11 9 -25 9 -30 0 -33 -14 -5
-23 21 -7 28 -25 10 -25 -5 0 -10 -5 -10 -11 0 -5 4 -8 9 -5 5 3 11 -1 15 -9
7 -18 -14 -32 -24 -15 l-8 13 -10 -19 c-5 -11 -8 -25 -6 -32 1 -7 0 -8 -3 -2
-2 5 -11 10 -19 10 l-15 0 11 -19 c12 -23 13 -41 3 -40 -26 4 -52 -3 -57 -17
l-6 -15 10 6 c6 3 10 1 10 -4 0 -6 7 -11 15 -11 8 0 15 3 15 8 0 4 14 7 30 8
34 1 50 11 35 22 -6 4 -11 16 -13 26 l-4 19 16 -16 c9 -8 16 -20 16 -26 0 -6
5 -11 10 -11 6 0 10 7 10 15 0 8 -4 15 -10 15 -5 0 -10 7 -10 15 0 22 31 18
37 -5 l5 -20 24 0 24 0 0 13 c-1 6 -7 23 -14 36 l-13 24 -7 -12 c-11 -18 -26
-13 -26 10 l0 20 20 -6 20 -6 0 16 c0 22 22 43 39 37 l14 -5 -6 11 c-4 5 -1
15 7 21 l14 12 4 -12 4 -13 12 8 c7 4 12 11 12 17 0 14 -36 11 -50 -5 l-11
-15 -16 6 -15 6 14 8 13 8 -11 11 -11 11 -15 -13z m-25 -62 l6 -15 -14 6 c-8
3 -12 9 -9 14 7 12 11 11 17 -5z" />
    <path d="M680 434 c0 -17 22 -14 28 4 2 7 -3 12 -12 12 -9 0 -16 -7 -16 -16z" />
    <path d="M633 393 c-19 -7 -16 -40 4 -47 9 -4 21 -2 27 4 l10 10 -22 0 c-24 0
-30 15 -9 23 6 2 10 7 7 9 -3 3 -11 3 -17 1z" />
    <path d="M81 364 l1 -19 5 13 c3 7 2 16 -1 19 -3 4 -6 -2 -5 -13z" />
    <path d="M590 369 c0 -5 5 -7 10 -4 6 3 10 8 10 11 0 2 -4 4 -10 4 -5 0 -10
-5 -10 -11z" />
    <path d="M81 284 l1 -19 5 13 c3 7 2 16 -1 19 -3 4 -6 -2 -5 -13z" />
    <path d="M522 255 c1 -13 8 -27 14 -29 l12 -5 11 30 10 29 -24 0 -25 0 2 -25z" />
    <path d="M391 227 l-24 -12 -2 -27 -1 -28 23 0 c26 0 35 11 23 30 l-8 13 21
18 22 18 -15 1 c-8 0 -26 -6 -39 -13z" />
    <path d="M335 200 c3 -6 -1 -13 -9 -16 -20 -8 -21 -24 -1 -24 8 0 19 9 24 19
l11 19 -16 6 -15 6 6 -10z" />
    <path d="M433 176 c0 -7 9 -12 19 -12 10 0 18 3 18 7 0 4 -8 9 -18 11 l-19 5
0 -11z" />
    <path d="M248 137 c-16 -6 -28 -15 -28 -19 0 -5 9 -4 19 1 l19 11 6 -23 6 -22
15 23 c9 12 13 27 10 32 -7 12 -11 11 -47 -3z" />
    <path d="M380 140 l-25 -6 23 -8 c24 -8 37 -3 31 12 -2 4 -15 5 -29 2z" />
    <path d="M70 90 c0 -7 3 -10 7 -7 3 4 3 10 0 14 -4 3 -7 0 -7 -7z" />
    <path d="M247 58 c-4 -12 -4 -24 -1 -27 6 -7 24 20 24 37 0 21 -17 13 -23 -10z" />
    <path d="M485 20 c-3 -5 -2 -10 4 -10 5 0 13 5 16 10 3 6 2 10 -4 10 -5 0 -13
-4 -16 -10z" />
  </g>
  <g transform="translate(0.000000,68.000000) scale(0.100000,-0.100000)" fill="#abb2b6" stroke="none">
    <path d="M445 670 c3 -5 8 -10 11 -10 3 0 2 5 -1 10 -3 6 -8 10 -11 10 -3 0
-2 -4 1 -10z" />
    <path d="M479 663 l-14 -18 18 14 c9 7 17 15 17 17 0 8 -8 3 -21 -13z" />
    <path d="M400 652 c0 -5 7 -9 15 -9 8 0 12 4 9 9 -3 4 -9 8 -15 8 -5 0 -9 -4
-9 -8z" />
    <path d="M466 618 c3 -5 10 -6 15 -3 13 9 11 12 -6 12 -8 0 -12 -4 -9 -9z" />
    <path d="M434 608 l-7 -11 11 7 c7 4 12 9 12 12 0 8 -9 4 -16 -8z" />
    <path d="M550 610 l-15 -9 22 2 c12 0 19 5 17 9 -6 10 -6 10 -24 -2z" />
    <path d="M50 589 c0 -5 5 -7 10 -4 6 3 10 8 10 11 0 2 -4 4 -10 4 -5 0 -10 -5
-10 -11z" />
    <path d="M560 580 c0 -7 3 -10 7 -7 3 4 3 10 0 14 -4 3 -7 0 -7 -7z" />
    <path d="M594 525 l-6 -36 -17 13 -16 13 15 -19 15 -20 -17 7 -18 6 0 -9 c0
-6 -7 -10 -15 -10 -8 0 -19 -9 -25 -20 l-10 -20 16 7 17 6 -5 -14 c-3 -8 -14
-14 -26 -13 l-20 0 5 -13 c3 -7 8 -13 11 -13 3 0 16 10 29 22 l23 21 -16 11
-15 12 20 0 c11 0 18 -3 15 -7 -2 -4 1 -9 7 -11 l12 -4 -12 -22 -12 -23 -12 8
-12 7 14 -18 14 -17 9 16 9 15 11 -6 11 -7 -7 11 -7 12 10 0 c6 0 11 7 11 15
0 8 -5 14 -12 13 -6 -2 -14 5 -16 16 l-4 18 13 -4 c11 -4 36 -37 55 -75 3 -6
12 -9 20 -6 8 3 11 9 8 14 -3 5 -9 7 -14 4 -4 -3 -13 2 -19 9 l-12 14 21 19
20 20 -15 0 c-8 0 -15 -4 -15 -9 0 -4 -5 -8 -11 -8 l-10 0 7 12 7 11 -11 -7
c-21 -13 -23 16 -2 34 l22 19 -7 20 c-10 32 -23 25 -31 -14z" />
    <path d="M675 550 l-6 -10 15 6 c18 7 21 14 7 14 -6 0 -13 -4 -16 -10z" />
    <path d="M71 504 l1 -19 5 13 c3 7 2 16 -1 19 -3 4 -6 -2 -5 -13z" />
    <path d="M657 503 c-4 -3 -7 -11 -7 -17 l0 -10 12 12 c6 6 9 14 7 17 -3 3 -9
2 -12 -2z" />
    <path d="M450 459 c0 -5 5 -7 10 -4 6 3 10 8 10 11 0 2 -4 4 -10 4 -5 0 -10
-5 -10 -11z" />
    <path d="M483 463 c4 -3 10 -3 14 0 3 4 0 7 -7 7 -7 0 -10 -3 -7 -7z" />
    <path d="M687 453 c-11 -11 -8 -20 8 -20 8 0 15 6 15 14 0 14 -12 17 -23 6z" />
    <path d="M600 397 c0 -8 7 -14 15 -14 l15 0 -11 14 c-6 7 -13 13 -15 13 -2 0
-4 -6 -4 -13z" />
    <path d="M461 383 c-1 -6 -3 -17 -6 -25 l-5 -14 25 -2 25 -2 0 15 c0 18 -20
20 -21 3 -1 -7 -5 -2 -9 12 -4 14 -8 20 -9 13z" />
    <path d="M370 351 l0 -13 -17 7 -18 6 13 -12 12 -13 12 12 c6 6 9 15 5 19 -4
3 -7 1 -7 -6z" />
    <path d="M525 334 l-25 -27 -15 13 -15 12 0 -10 c0 -5 7 -13 16 -16 8 -3 12
-10 9 -16 -4 -6 -10 -8 -15 -5 -5 3 -12 0 -16 -6 l-7 -11 32 7 31 7 1 -19 c1
-10 1 -22 0 -26 -1 -5 3 -6 8 -3 11 7 11 56 -1 56 l-9 0 11 20 c6 11 14 18 18
16 5 -3 9 4 9 15 1 10 0 19 -3 19 -3 0 -16 -12 -29 -26z" />
    <path d="M410 290 c0 -5 5 -10 10 -10 6 0 10 5 10 10 0 6 -4 10 -10 10 -5 0
-10 -4 -10 -10z" />
    <path d="M350 270 c0 -5 5 -10 11 -10 5 0 7 5 4 10 -3 6 -8 10 -11 10 -2 0 -4
-4 -4 -10z" />
    <path d="M388 257 c-8 -9 -19 -13 -24 -9 -5 4 -2 -1 6 -12 l14 -18 4 11 c4 12
23 15 21 4 -3 -20 2 -23 16 -9 19 18 19 26 1 26 -8 0 -16 5 -18 11 l-4 12 -16
-16z" />
    <path d="M450 230 c0 -5 7 -10 16 -10 l15 0 -6 10 c-3 6 -10 10 -16 10 -5 0
-9 -4 -9 -10z" />
    <path d="M541 217 c-1 -10 -5 -16 -9 -13 -5 3 -9 -2 -9 -10 l0 -15 15 15 c8 8
12 20 9 28 l-5 13 -1 -18z" />
    <path d="M368 192 l6 -16 4 12 c5 17 22 15 22 -3 0 -8 5 -15 10 -15 11 0 14
29 3 31 -5 1 -18 3 -30 4 l-21 2 6 -15z" />
    <path d="M490 190 c0 -5 5 -10 10 -10 6 0 10 5 10 10 0 6 -4 10 -10 10 -5 0
-10 -4 -10 -10z" />
    <path d="M326 174 l-20 -14 16 0 c9 0 20 5 23 11 11 17 2 18 -19 3z" />
    <path d="M460 170 c0 -5 5 -10 10 -10 6 0 10 5 10 10 0 6 -4 10 -10 10 -5 0
-10 -4 -10 -10z" />
    <path d="M70 160 c0 -7 3 -10 7 -7 3 4 3 10 0 14 -4 3 -7 0 -7 -7z" />
    <path d="M272 158 c0 -7 -4 -23 -7 -36 l-7 -22 16 6 17 7 -5 13 c-3 7 -1 16 5
19 5 4 7 11 4 16 -9 13 -22 11 -23 -3z" />
    <path d="M380 120 c0 -5 4 -10 9 -10 5 0 18 -3 28 -7 l18 -7 -17 17 c-18 19
-38 22 -38 7z" />
    <path d="M420 80 c0 -5 5 -10 11 -10 5 0 7 5 4 10 -3 6 -8 10 -11 10 -2 0 -4
-4 -4 -10z" />
    <path d="M185 69 c-4 -6 -5 -12 -2 -15 2 -3 7 2 10 11 7 17 1 20 -8 4z" />
    <path d="M242 43 c-6 -20 -9 -39 -6 -42 8 -8 24 23 19 37 -2 6 -1 12 4 12 4 0
8 7 8 15 0 27 -13 16 -25 -22z" />
    <path d="M357 46 l-6 -15 15 6 c7 3 14 9 14 14 0 14 -17 10 -23 -5z" />
    <path d="M528 39 c-19 -11 -24 -29 -8 -29 5 0 14 9 20 20 12 23 12 23 -12 9z" />
  </g>
  <g transform="translate(0.000000,68.000000) scale(0.100000,-0.100000)" fill="#bac2c7" stroke="none">
    <path d="M622 590 c0 -14 2 -19 5 -12 2 6 2 18 0 25 -3 6 -5 1 -5 -13z" />
    <path d="M606 545 l6 -15 -12 0 c-6 0 -8 -5 -5 -10 4 -6 1 -18 -6 -26 l-12
-15 10 -10 11 -11 10 18 c5 11 13 34 17 52 l7 32 -16 0 -15 0 5 -15z" />
    <path d="M640 520 c0 -7 3 -10 7 -7 3 4 3 10 0 14 -4 3 -7 0 -7 -7z" />
    <path d="M660 514 l0 -15 10 6 c6 3 10 10 10 16 0 5 -4 9 -10 9 -5 0 -10 -7
-10 -16z" />
    <path d="M560 470 c0 -7 3 -10 7 -7 3 4 3 10 0 14 -4 3 -7 0 -7 -7z" />
    <path d="M645 470 c3 -5 8 -10 11 -10 2 0 4 5 4 10 0 6 -5 10 -11 10 -5 0 -7
-4 -4 -10z" />
    <path d="M568 436 l5 -9 -15 6 -16 5 2 -16 1 -17 -20 -1 c-36 -2 -40 -4 -25
-14 l14 -9 -17 -7 c-9 -3 -15 -10 -12 -14 3 -4 -2 -11 -11 -14 l-16 -6 6 16 6
17 -22 -15 c-27 -18 -35 -38 -14 -38 9 0 16 -4 16 -10 0 -18 22 -10 27 9 3 11
11 22 19 25 l15 6 5 -15 c4 -9 1 -22 -6 -30 -7 -9 -11 -16 -9 -18 2 -1 13 -7
25 -14 l21 -11 13 8 c7 4 9 13 6 19 -4 6 -3 11 2 11 l9 0 -4 54 -5 53 25 7
c14 3 27 12 30 19 l5 14 -33 -1 -33 -1 6 -9z m19 -13 c-4 -3 -7 0 -7 7 0 7 3
10 7 7 3 -4 3 -10 0 -14z m-36 -53 c0 -14 2 -33 4 -42 2 -10 -1 -18 -6 -18 -5
0 -9 6 -9 14 0 8 -6 16 -12 18 -7 3 -13 16 -13 29 l-1 25 18 0 18 0 1 -26z" />
    <path d="M670 435 l-13 -16 10 -10 10 -10 11 13 11 14 -8 12 -8 13 -13 -16z" />
    <path d="M489 423 l-14 -18 18 14 c9 7 17 15 17 17 0 8 -8 3 -21 -13z" />
    <path d="M605 373 c3 -8 5 -17 5 -19 0 -2 5 -4 10 -4 6 0 10 8 10 18 l0 19
-15 0 -16 0 6 -14z" />
    <path d="M80 350 c0 -7 3 -10 7 -7 3 4 3 10 0 14 -4 3 -7 0 -7 -7z" />
    <path d="M645 350 l-6 -10 15 6 c18 7 21 14 7 14 -6 0 -13 -4 -16 -10z" />
    <path d="M403 274 c-3 -11 -11 -22 -17 -26 l-11 -8 15 -10 c22 -14 33 -12 26
5 l-5 15 14 0 c19 0 19 14 0 30 l-15 12 -7 -18z" />
    <path d="M470 259 c0 -5 5 -7 10 -4 6 3 10 8 10 11 0 2 -4 4 -10 4 -5 0 -10
-5 -10 -11z" />
    <path d="M270 250 c0 -5 7 -10 16 -10 l15 0 -6 10 c-3 6 -10 10 -16 10 -5 0
-9 -4 -9 -10z" />
    <path d="M380 210 c0 -5 5 -10 10 -10 6 0 10 5 10 10 0 6 -4 10 -10 10 -5 0
-10 -4 -10 -10z" />
    <path d="M334 178 l-7 -11 11 7 c7 4 12 9 12 12 0 8 -9 4 -16 -8z" />
    <path d="M400 180 c0 -7 3 -10 7 -7 3 4 3 10 0 14 -4 3 -7 0 -7 -7z" />
    <path d="M243 135 c0 -8 4 -12 9 -9 4 3 8 -2 8 -10 0 -8 4 -17 9 -20 l9 -6 -6
22 -5 21 11 -7 c6 -3 13 -2 16 3 4 5 2 12 -3 15 -5 4 -13 2 -16 -4 l-7 -11
-12 10 -13 11 0 -15z" />
    <path d="M383 113 c-17 -6 -16 -33 1 -33 7 0 16 9 19 20 5 20 2 22 -20 13z" />
    <path d="M505 20 c3 -5 11 -10 16 -10 6 0 7 5 4 10 -3 6 -11 10 -16 10 -6 0
-7 -4 -4 -10z" />
    <path d="M133 13 c4 -3 10 -3 14 0 3 4 0 7 -7 7 -7 0 -10 -3 -7 -7z" />
  </g>
  <g transform="translate(0.000000,68.000000) scale(0.100000,-0.100000)" fill="#777f84" stroke="none">
    <path d="M444 658 l-7 -11 11 7 c12 7 16 16 8 16 -3 0 -8 -5 -12 -12z" />
    <path d="M310 630 c0 -7 3 -10 7 -7 3 4 3 10 0 14 -4 3 -7 0 -7 -7z" />
    <path d="M260 619 c0 -5 5 -7 10 -4 6 3 10 8 10 11 0 2 -4 4 -10 4 -5 0 -10
-5 -10 -11z" />
    <path d="M330 570 c6 -11 12 -20 13 -20 2 0 3 9 4 20 l2 20 -15 0 -15 0 11
-20z" />
    <path d="M380 549 c0 -5 -4 -7 -10 -4 -5 3 -10 1 -10 -5 l0 -11 22 3 c12 2 23
9 26 16 l4 12 -16 0 c-9 0 -16 -5 -16 -11z" />
    <path d="M495 553 l6 -13 -13 0 -13 0 15 -10 c16 -11 9 -13 -32 -10 l-26 1 5
-21 6 -21 16 14 c9 8 21 13 27 10 6 -2 16 2 22 10 l12 14 -16 19 c-8 10 -13
13 -9 7z" />
    <path d="M423 543 c4 -3 10 -3 14 0 3 4 0 7 -7 7 -7 0 -10 -3 -7 -7z" />
    <path d="M410 475 c-7 -9 -11 -17 -9 -20 3 -2 10 5 17 15 14 24 10 26 -8 5z" />
    <path d="M630 469 c0 -5 5 -7 10 -4 6 3 10 8 10 11 0 2 -4 4 -10 4 -5 0 -10
-5 -10 -11z" />
    <path d="M370 440 c0 -4 11 -10 25 -12 13 -3 22 -2 20 2 -7 11 -45 20 -45 10z" />
    <path d="M80 430 c0 -7 3 -10 7 -7 3 4 3 10 0 14 -4 3 -7 0 -7 -7z" />
    <path d="M601 394 l1 -19 5 13 c3 7 2 16 -1 19 -3 4 -6 -2 -5 -13z" />
    <path d="M316 368 c3 -4 12 -8 20 -8 8 0 14 4 14 8 0 4 -9 8 -19 8 -11 0 -17
-4 -15 -8z" />
    <path d="M326 337 l-19 -14 16 0 c9 0 18 6 21 14 3 7 4 13 3 13 -2 0 -11 -6
-21 -13z" />
    <path d="M415 340 c3 -5 8 -10 11 -10 3 0 2 5 -1 10 -3 6 -8 10 -11 10 -3 0
-2 -4 1 -10z" />
    <path d="M280 310 l-15 -10 12 0 c6 0 15 5 18 10 8 12 4 12 -15 0z" />
    <path d="M222 288 c-7 -7 -18 -13 -24 -13 -6 0 -13 -6 -15 -12 -5 -15 13 -17
22 -3 4 6 11 8 16 5 5 -4 9 1 9 10 l0 16 10 -6 c6 -3 10 -1 10 4 0 15 -13 14
-28 -1z" />
    <path d="M351 274 l1 -19 5 13 c3 7 2 16 -1 19 -3 4 -6 -2 -5 -13z" />
    <path d="M323 265 c0 -8 4 -12 9 -9 5 3 6 10 3 15 -9 13 -12 11 -12 -6z" />
    <path d="M490 249 c0 -5 5 -7 10 -4 6 3 10 8 10 11 0 2 -4 4 -10 4 -5 0 -10
-5 -10 -11z" />
    <path d="M296 241 c-4 -5 -2 -12 3 -15 5 -4 12 -2 15 3 4 5 2 12 -3 15 -5 4
-12 2 -15 -3z" />
    <path d="M350 239 c0 -5 5 -7 10 -4 6 3 10 8 10 11 0 2 -4 4 -10 4 -5 0 -10
-5 -10 -11z" />
    <path d="M235 190 c4 -6 11 -8 16 -5 14 9 11 15 -7 15 l-15 0 6 -10z" />
    <path d="M430 190 c0 -7 3 -10 7 -7 3 4 3 10 0 14 -4 3 -7 0 -7 -7z" />
    <path d="M251 159 c-28 -23 -23 -24 14 -5 14 8 23 16 18 19 -4 3 -19 -3 -32
-14z" />
  </g>
  <g transform="translate(0.000000,68.000000) scale(0.100000,-0.100000)" fill="#c5cbce" stroke="none">
    <path d="M600 535 l-12 -15 16 0 c9 0 16 7 16 15 0 8 -2 15 -4 15 -2 0 -9 -7
-16 -15z" />
    <path d="M669 548 c-3 -8 -8 -60 -5 -57 2 2 8 14 15 26 l11 22 -10 6 c-5 3
-11 5 -11 3z" />
    <path d="M600 500 c-8 -5 -16 -21 -17 -36 l-2 -26 13 17 13 18 6 -10 c4 -6 0
-16 -8 -23 -19 -16 -19 -31 0 -24 8 4 13 10 10 14 -3 4 3 11 12 14 l16 7 -19
13 c-10 8 -23 12 -29 9 -5 -2 -1 3 9 11 22 18 18 30 -4 16z" />
    <path d="M561 454 l1 -19 5 13 c3 7 2 16 -1 19 -3 4 -6 -2 -5 -13z" />
    <path d="M656 415 c-21 -31 -21 -47 0 -17 8 12 20 20 25 17 l9 -6 -6 15 c-3 9
-7 16 -9 16 -1 0 -10 -11 -19 -25z" />
    <path d="M555 411 c-3 -5 -1 -12 5 -16 l10 -6 0 15 c0 18 -6 21 -15 7z" />
    <path d="M595 380 c-3 -5 -1 -10 4 -10 6 0 11 5 11 10 0 6 -2 10 -4 10 -3 0
-8 -4 -11 -10z" />
    <path d="M621 374 l1 -19 5 13 c3 7 2 16 -1 19 -3 4 -6 -2 -5 -13z" />
    <path d="M557 374 c-3 -3 -3 -19 0 -35 3 -16 1 -35 -5 -41 -5 -7 -12 -22 -16
-34 l-6 -21 15 0 16 0 -5 13 c-3 7 2 31 11 52 l15 40 -9 16 c-5 9 -12 14 -16
10z" />
    <path d="M444 348 l-7 -11 11 7 c12 7 16 16 8 16 -3 0 -8 -5 -12 -12z" />
    <path d="M80 340 c0 -7 3 -10 7 -7 3 4 3 10 0 14 -4 3 -7 0 -7 -7z" />
    <path d="M365 341 c-3 -5 -2 -12 3 -15 5 -3 9 1 9 9 0 17 -3 19 -12 6z" />
    <path d="M470 335 l-12 -15 -22 11 -21 10 18 -14 18 -15 -16 -6 c-9 -3 -21
-19 -26 -36 -6 -16 -15 -30 -20 -30 -5 0 -9 -7 -9 -15 0 -19 9 -19 31 1 10 9
15 22 13 29 -3 7 0 16 7 21 l12 7 -8 -13 -8 -13 12 7 c6 4 9 11 6 16 -3 4 2
13 11 21 15 13 38 49 31 49 -3 0 -10 -7 -17 -15z" />
    <path d="M674 338 l-7 -11 11 7 c7 4 12 9 12 12 0 8 -9 4 -16 -8z" />
    <path d="M695 330 c-3 -5 -1 -10 4 -10 6 0 11 5 11 10 0 6 -2 10 -4 10 -3 0
-8 -4 -11 -10z" />
    <path d="M80 300 c0 -7 3 -10 7 -7 3 4 3 10 0 14 -4 3 -7 0 -7 -7z" />
    <path d="M486 243 l-7 -18 12 12 c7 7 10 15 7 18 -3 3 -9 -2 -12 -12z" />
    <path d="M70 170 c0 -7 3 -10 7 -7 3 4 3 10 0 14 -4 3 -7 0 -7 -7z" />
    <path d="M289 138 c-1 -2 -2 -18 -4 -35 -4 -44 12 -42 17 2 2 19 0 35 -4 35
-4 0 -8 -1 -9 -2z" />
    <path d="M217 123 c-4 -3 -7 -11 -7 -17 l0 -10 12 12 c6 6 9 14 7 17 -3 3 -9
2 -12 -2z" />
    <path d="M377 113 c-2 -5 -7 -20 -11 -35 l-6 -27 10 -6 10 -6 1 23 c1 13 1 26
0 31 0 4 4 7 9 7 6 0 10 5 10 10 0 12 -17 13 -23 3z" />
    <path d="M70 80 c0 -7 3 -10 7 -7 3 4 3 10 0 14 -4 3 -7 0 -7 -7z" />
    <path d="M190 79 c0 -5 5 -7 10 -4 6 3 10 8 10 11 0 2 -4 4 -10 4 -5 0 -10 -5
-10 -11z" />
    <path d="M255 80 c-3 -5 -1 -10 4 -10 6 0 11 5 11 10 0 6 -2 10 -4 10 -3 0 -8
-4 -11 -10z" />
    <path d="M420 53 c0 -10 5 -25 10 -33 l10 -15 0 33 c0 17 -4 32 -10 32 -5 0
-10 -8 -10 -17z" />
    <path d="M240 41 c0 -5 5 -13 10 -16 6 -3 10 -2 10 4 0 5 -4 13 -10 16 -5 3
-10 2 -10 -4z" />
  </g>
  <g transform="translate(0.000000,68.000000) scale(0.100000,-0.100000)" fill="#8b8c86" stroke="none">
    <path d="M390 550 l-15 -10 18 0 c9 0 17 5 17 10 0 12 -1 12 -20 0z" />
    <path d="M240 288 c0 -5 -4 -6 -10 -3 l-10 6 0 -15 c0 -9 5 -16 10 -16 6 0 10
4 10 9 0 5 12 11 28 13 l27 3 -27 6 -28 6 0 -9z" />
    <path d="M270 251 c0 -5 7 -11 15 -15 8 -3 15 -1 15 3 0 5 -7 11 -15 15 -8 3
-15 1 -15 -3z" />
    <path d="M440 236 l0 -16 31 0 30 0 -6 10 c-4 6 -11 8 -16 4 -5 -3 -16 0 -24
6 l-15 12 0 -16z" />
    <path d="M466 169 c-40 -30 -59 -47 -39 -36 6 4 18 5 26 1 l15 -5 -4 -49 -3
-50 12 -7 c17 -10 57 -9 56 3 -1 5 -6 8 -11 6 l-10 -3 6 16 c3 9 7 33 7 53 1
20 3 29 6 20 2 -10 9 -18 14 -18 15 0 10 26 -7 41 l-15 13 4 17 c8 29 -17 29
-57 -2z m31 -25 c-3 -3 -12 -4 -19 -1 l-13 5 19 1 c11 1 17 -2 13 -5z m3 -74
c0 -5 -2 -10 -4 -10 -3 0 -8 5 -11 10 -3 6 -1 10 4 10 6 0 11 -4 11 -10z" />
    <path d="M70 130 c0 -7 3 -10 7 -7 3 4 3 10 0 14 -4 3 -7 0 -7 -7z" />
    <path d="M214 118 l-7 -11 11 7 c12 7 16 16 8 16 -3 0 -8 -5 -12 -12z" />
    <path d="M193 83 c4 -3 10 -3 14 0 3 4 0 7 -7 7 -7 0 -10 -3 -7 -7z" />
    <path d="M260 80 c0 -7 3 -10 7 -7 3 4 3 10 0 14 -4 3 -7 0 -7 -7z" />
    <path d="M420 70 c0 -5 4 -10 9 -10 6 0 13 5 16 10 l6 10 -15 0 c-9 0 -16 -4
-16 -10z" />
    <path d="M530 66 c0 -8 5 -18 10 -21 l10 -6 0 20 c0 12 -4 21 -10 21 -5 0 -10
-6 -10 -14z" />
    <path d="M155 39 c-11 -17 1 -21 15 -4 l12 15 -10 0 c-6 0 -14 -5 -17 -11z" />
    <path d="M98 13 c7 -3 16 -2 19 1 4 3 -2 6 -13 5 l-19 -1 13 -5z" />
  </g>
  <g transform="translate(0.000000,68.000000) scale(0.100000,-0.100000)" fill="#191d1f" stroke="none">
    <path d="M75 640 c16 -16 31 -27 34 -25 6 6 -44 55 -55 55 -4 0 5 -13 21 -30z" />
    <path d="M183 633 c15 -2 37 -2 50 0 12 2 0 4 -28 4 -27 0 -38 -2 -22 -4z" />
    <path d="M268 623 c7 -3 16 -2 19 1 4 3 -2 6 -13 5 l-19 -1 13 -5z" />
    <path d="M54 588 l-7 -11 11 7 c12 7 16 16 8 16 -3 0 -8 -5 -12 -12z" />
    <path d="M123 593 c4 -3 10 -3 14 0 3 4 0 7 -7 7 -7 0 -10 -3 -7 -7z" />
    <path d="M268 593 c7 -3 16 -2 19 1 4 3 -2 6 -13 5 l-19 -1 13 -5z" />
    <path d="M203 583 c4 -3 10 -3 14 0 3 4 0 7 -7 7 -7 0 -10 -3 -7 -7z" />
    <path d="M153 573 c4 -3 10 -3 14 0 3 4 0 7 -7 7 -7 0 -10 -3 -7 -7z" />
    <path d="M263 563 c4 -3 10 -3 14 0 3 4 0 7 -7 7 -7 0 -10 -3 -7 -7z" />
    <path d="M292 496 l13 -14 10 8 c6 4 17 10 25 13 8 3 -2 6 -23 6 l-38 1 13
-14z" />
    <path d="M200 475 c13 -14 26 -25 28 -25 3 0 -5 11 -18 25 -13 14 -26 25 -28
25 -3 0 5 -11 18 -25z" />
    <path d="M232 473 c12 -12 23 -23 24 -23 1 0 -3 11 -9 23 -6 13 -17 24 -24 24
l-13 0 22 -24z" />
    <path d="M260 490 c0 -7 3 -10 7 -7 3 4 3 10 0 14 -4 3 -7 0 -7 -7z" />
    <path d="M160 475 c0 -2 10 -10 23 -16 l22 -12 -14 16 c-13 16 -31 23 -31 12z" />
    <path d="M360 320 l-15 -10 18 0 c9 0 17 5 17 10 0 12 -1 12 -20 0z" />
    <path d="M251 254 l-1 -22 16 -6 c20 -8 44 11 43 33 l0 16 -11 -22 c-6 -13
-15 -23 -20 -23 -5 0 -13 10 -18 23 l-9 22 0 -21z" />
  </g>
  <g transform="translate(0.000000,68.000000) scale(0.100000,-0.100000)" fill="#e7e7e7" stroke="none">
    <path d="M50 580 c0 -7 3 -10 7 -7 3 4 3 10 0 14 -4 3 -7 0 -7 -7z" />
    <path d="M610 547 c0 -9 -5 -17 -10 -17 l-11 0 13 -14 c16 -18 25 -13 23 13
-2 25 -15 41 -15 18z" />
    <path d="M635 470 c-16 -16 -26 -30 -22 -30 7 0 57 48 57 55 0 9 -7 5 -35 -25z" />
    <path d="M580 480 c0 -7 3 -10 7 -7 3 4 3 10 0 14 -4 3 -7 0 -7 -7z" />
    <path d="M680 446 c-6 -8 -18 -12 -26 -9 l-14 5 7 -20 c9 -23 30 -29 25 -8 -1
7 5 20 15 27 l17 14 -7 -18 -7 -18 10 6 c12 8 13 35 1 35 -5 0 -14 -6 -21 -14z" />
    <path d="M615 420 c3 -5 8 -10 11 -10 3 0 2 5 -1 10 -3 6 -8 10 -11 10 -3 0
-2 -4 1 -10z" />
    <path d="M595 410 c3 -5 8 -10 11 -10 3 0 2 5 -1 10 -3 6 -8 10 -11 10 -3 0
-2 -4 1 -10z" />
    <path d="M614 358 l-7 -11 11 7 c12 7 16 16 8 16 -3 0 -8 -5 -12 -12z" />
    <path d="M565 340 c3 -5 8 -10 11 -10 2 0 4 5 4 10 0 6 -5 10 -11 10 -5 0 -7
-4 -4 -10z" />
    <path d="M82 320 c0 -14 2 -19 5 -12 2 6 2 18 0 25 -3 6 -5 1 -5 -13z" />
    <path d="M694 328 l-7 -11 11 7 c7 4 12 9 12 12 0 8 -9 4 -16 -8z" />
    <path d="M555 280 c3 -5 8 -10 11 -10 3 0 2 5 -1 10 -3 6 -8 10 -11 10 -3 0
-2 -4 1 -10z" />
    <path d="M470 271 c0 -5 7 -11 14 -14 l15 -6 -6 15 c-6 15 -23 19 -23 5z" />
    <path d="M550 250 c0 -7 3 -10 7 -7 3 4 3 10 0 14 -4 3 -7 0 -7 -7z" />
    <path d="M290 130 c-8 -5 -12 -11 -10 -14 3 -2 14 2 24 10 22 15 10 19 -14 4z" />
    <path d="M348 133 c7 -3 16 -2 19 1 4 3 -2 6 -13 5 l-19 -1 13 -5z" />
    <path d="M260 120 c0 -7 3 -10 7 -7 3 4 3 10 0 14 -4 3 -7 0 -7 -7z" />
    <path d="M535 107 c-3 -12 -2 -34 4 -47 l10 -25 0 48 c1 51 -5 61 -14 24z" />
    <path d="M375 109 c-4 -6 -5 -12 -2 -15 2 -3 7 2 10 11 7 17 1 20 -8 4z" />
    <path d="M277 83 c7 -17 20 -17 20 0 0 8 -6 14 -13 14 l-12 0 5 -14z" />
    <path d="M423 53 c0 -27 0 -26 15 3 l11 21 -13 0 -13 0 0 -24z" />
    <path d="M360 60 c0 -7 3 -10 7 -7 3 4 3 10 0 14 -4 3 -7 0 -7 -7z" />
    <path d="M159 33 l-24 -28 28 24 c15 14 27 26 27 28 0 8 -8 1 -31 -24z" />
    <path d="M450 52 c0 -5 8 -16 18 -25 l19 -17 0 14 c0 8 -5 14 -11 13 -6 -1
-10 4 -8 11 1 6 -2 12 -8 12 -5 0 -10 -4 -10 -8z" />
    <path d="M350 30 c0 -5 5 -10 11 -10 5 0 7 5 4 10 -3 6 -8 10 -11 10 -2 0 -4
-4 -4 -10z" />
    <path d="M524 18 l-7 -11 11 7 c12 7 16 16 8 16 -3 0 -8 -5 -12 -12z" />
    <path d="M235 10 c3 -5 8 -10 11 -10 3 0 2 5 -1 10 -3 6 -8 10 -11 10 -3 0 -2
-4 1 -10z" />
  </g>
  <g transform="translate(0.000000,68.000000) scale(0.100000,-0.100000)" fill="#d3d6d9" stroke="none">
    <path d="M608 523 c6 -2 9 -10 6 -15 l-7 -11 12 7 c13 9 5 26 -12 25 l-12 -1
13 -5z" />
    <path d="M585 470 c3 -5 8 -10 11 -10 3 0 2 5 -1 10 -3 6 -8 10 -11 10 -3 0
-2 -4 1 -10z" />
    <path d="M635 469 c-4 -6 -5 -12 -2 -15 2 -3 7 2 10 11 7 17 1 20 -8 4z" />
    <path d="M679 413 l-14 -18 18 14 c16 13 21 21 13 21 -2 0 -10 -8 -17 -17z" />
    <path d="M562 390 c0 -14 2 -19 5 -12 2 6 2 18 0 25 -3 6 -5 1 -5 -13z" />
    <path d="M563 329 c-2 -23 3 -25 10 -4 4 8 3 16 -1 19 -4 3 -9 -4 -9 -15z" />
    <path d="M443 308 c-13 -6 -23 -15 -23 -20 l0 -9 19 11 c11 5 23 15 26 20 7
12 7 12 -22 -2z" />
    <path d="M550 290 c0 -7 3 -10 7 -7 3 4 3 10 0 14 -4 3 -7 0 -7 -7z" />
    <path d="M406 255 l-5 -15 14 0 c16 0 20 16 6 24 -5 3 -11 -1 -15 -9z" />
    <path d="M545 260 c3 -5 8 -10 11 -10 3 0 2 5 -1 10 -3 6 -8 10 -11 10 -3 0
-2 -4 1 -10z" />
    <path d="M266 243 l-7 -18 12 12 c7 7 10 15 7 18 -3 3 -9 -2 -12 -12z" />
    <path d="M383 113 c4 -3 10 -3 14 0 3 4 0 7 -7 7 -7 0 -10 -3 -7 -7z" />
    <path d="M264 88 l-7 -11 11 7 c12 7 16 16 8 16 -3 0 -8 -5 -12 -12z" />
    <path d="M377 89 c7 -7 15 -10 18 -7 3 3 -2 9 -12 12 l-18 7 12 -12z" />
    <path d="M420 70 c0 -7 3 -10 7 -7 3 4 3 10 0 14 -4 3 -7 0 -7 -7z" />
    <path d="M164 38 l-7 -11 11 7 c7 4 12 9 12 12 0 8 -9 4 -16 -8z" />
    <path d="M464 38 l-7 -11 11 7 c12 7 16 16 8 16 -3 0 -8 -5 -12 -12z" />
  </g>
  <g transform="translate(0.000000,68.000000) scale(0.100000,-0.100000)" fill="#84807a" stroke="none">
    <path d="M253 233 c4 -3 10 -3 14 0 3 4 0 7 -7 7 -7 0 -10 -3 -7 -7z" />
    <path d="M440 219 c0 -5 5 -7 10 -4 6 3 10 8 10 11 0 2 -4 4 -10 4 -5 0 -10
-5 -10 -11z" />
    <path d="M465 163 l-20 -16 18 7 c10 3 23 6 28 6 5 0 9 5 9 10 0 14 -12 12
-35 -7z" />
    <path d="M513 144 l2 -19 -22 1 c-13 1 -23 -3 -23 -8 0 -5 -7 -16 -15 -24 -19
-19 -11 -36 25 -58 l30 -17 0 10 c0 6 -7 11 -15 11 -22 0 -30 27 -15 55 l13
23 12 -4 c16 -6 29 26 16 39 l-9 9 1 -18z" />
    <path d="M70 120 c0 -7 3 -10 7 -7 3 4 3 10 0 14 -4 3 -7 0 -7 -7z" />
    <path d="M532 90 c0 -14 2 -19 5 -12 2 6 2 18 0 25 -3 6 -5 1 -5 -13z" />
    <path d="M511 64 l1 -19 5 13 c3 7 2 16 -1 19 -3 4 -6 -2 -5 -13z" />
  </g>
  <g transform="translate(0.000000,68.000000) scale(0.100000,-0.100000)" fill="#c5c1a3" stroke="none">
    <path d="M232 277 l-11 -13 9 -14 10 -15 0 22 0 22 18 4 17 5 -16 1 c-9 0 -21
-5 -27 -12z" />
    <path d="M430 265 l-12 -15 12 -15 c14 -17 46 -20 54 -6 l6 9 -21 -5 -21 -6 4
19 c2 10 8 19 15 19 6 0 15 3 19 8 4 4 -4 7 -18 7 -14 0 -31 -7 -38 -15z" />
  </g>
  <g transform="translate(0.000000,68.000000) scale(0.100000,-0.100000)" fill="#e2ddb4" stroke="none">
    <path d="M436 264 c-7 -18 10 -44 27 -44 6 0 3 6 -6 13 l-17 12 8 11 c4 6 14
14 22 17 l15 5 -21 1 -22 1 -6 -16z" />
  </g>
</svg>