<?xml version="1.0" encoding="UTF-8" standalone="no"?>
<svg xmlns:rdf="http://www.w3.org/1999/02/22-rdf-syntax-ns#" xmlns="http://www.w3.org/2000/svg" height="24" width="24" version="1.1" xmlns:cc="http://creativecommons.org/ns#" xmlns:dc="http://purl.org/dc/elements/1.1/" viewBox="0 0 24 24">
 <path fill="#404552" d="m8.035 10.978-2.29-3.966c1.466-1.835 3.722-3.012 6.254-3.012 2.929 0 5.489 1.574 6.883 3.922h-6.528c-0.117-0.01-0.236-0.016-0.356-0.016-1.904 0-3.509 1.307-3.964 3.071zm6.828-1.899h4.585c0.355 0.905 0.551 1.891 0.551 2.922 0 4.388-3.533 7.95-7.909 7.999l3.272-5.667c0.461-0.662 0.731-1.466 0.731-2.332 0-1.143-0.471-2.178-1.23-2.922zm-5.77 2.922c0-1.603 1.304-2.906 2.906-2.906s2.906 1.304 2.906 2.906-1.304 2.906-2.906 2.906-2.906-1.304-2.906-2.906zm4.003 3.944-2.29 3.967c-3.852-0.576-6.806-3.899-6.806-7.911 0-1.425 0.373-2.763 1.026-3.922l3.266 5.657c0.654 1.392 2.07 2.359 3.707 2.359 0.38 0 0.747-0.052 1.097-0.149z"/>
</svg>
