<?xml version="1.0" encoding="UTF-8" standalone="no"?>
<svg xmlns:rdf="http://www.w3.org/1999/02/22-rdf-syntax-ns#" xmlns="http://www.w3.org/2000/svg" height="24" width="24" version="1.0" xmlns:cc="http://creativecommons.org/ns#" xmlns:dc="http://purl.org/dc/elements/1.1/">
 <metadata>
  <rdf:RDF>
   <cc:Work rdf:about="">
    <dc:format>image/svg+xml</dc:format>
    <dc:type rdf:resource="http://purl.org/dc/dcmitype/StillImage"/>
    <dc:title/>
   </cc:Work>
  </rdf:RDF>
 </metadata>
 <g fill="#404552">
  <path d="m11.986 3c-1.4216 0-2.7094 0.58-3.6416 1.5173-1.2861 1.4686-1.6519 2.5143-1.7446 4.3949 0.00674 0.88786-0.20768 1.6756-1.98 3.0601-1.7723 1.3846-1.9329 1.7219-2.049 2.1601-0.11564 0.43541-0.21764 1.3808 0.79614 0.71314 1.2041-0.79284 2.1386-1.1005 2.139-1.1007-0.12459 2.4882 0.96884 4.3535 2.5114 5.4973-0.79378-1.0342-1.2737-2.378-1.2737-3.8463 0-2.0283 0.91565-3.8189 2.3096-4.8837a2.0476 2.5923 0 0 0 0.944 0.295 2.0476 2.5923 0 0 0 1.7808 -1.3151c0.04307-0.00229 0.08626-0.00409 0.1296-0.00523a2.2988 1.9728 0 0 0 1.932 0.90404 2.2988 1.9728 0 0 0 0.80727 -0.12672c1.5808 1.0156 2.6533 2.9215 2.6759 5.0985l-0.00018-0.00018c0 1.6283-0.58988 3.1379-1.5438 4.2076 1.5361-0.97244 2.639-2.7741 2.6644-5.8796 0.83038 0.20521 0.93779 0.29021 2.1601 1.163 0.98369 0.70254 0.98099-0.14412 0.77538-0.77538-0.20336-0.62434-0.77752-1.2521-2.049-2.1601-1.8305-1.3068-1.7246-1.8522-1.9176-2.7073-0.393-1.7963-0.626-3.2036-1.805-4.7153-0.931-0.9234-2.21-1.4939-3.621-1.4939zm-1.989 2.9016a1.8267 2.3127 0 0 1 1.826 2.3129 1.8267 2.3127 0 0 1 -1.826 2.3125 1.8267 2.3127 0 0 1 -1.8272 -2.3125 1.8267 2.3127 0 0 1 1.8272 -2.3129zm3.842 0.81919a1.9766 1.6963 0 0 1 1.9766 1.6961v0.00018a1.9766 1.6963 0 0 1 -1.977 1.6959 1.9766 1.6963 0 0 1 -1.977 -1.6959 1.9766 1.6963 0 0 1 1.977 -1.6964zm0.90305 13.363c-1.304 0.35068-3.4231 0.38901-4.9052 0.11491 0.71469 0.24567 1.4571 0.36789 2.1767 0.35938 0.92942-0.01103 1.8672-0.14834 2.7285-0.47427z"/>
  <path d="m19.194 20.27c0 0.32761-0.09263 0.44594-0.26014 0.72992h-6.0968c-0.16762-0.28462-0.25987-0.40274-0.25987-0.73012 0-1.3105 1.4822-2.3741 3.3086-2.3741 1.8263 0 3.3086 1.0635 3.3086 2.3738"/>
  <path d="m11.53 20.27c0 0.32761-0.09263 0.44594-0.26014 0.72992h-6.0966c-0.1682-0.285-0.2609-0.403-0.2609-0.73 0-1.3105 1.4822-2.3741 3.3086-2.3741 1.8263 0 3.3086 1.0635 3.3086 2.3738"/>
  <path d="m12.02 12.289 0.1843-0.0035s0.20049-0.22176 0.89744-0.95039c0.46463-0.528 0.61248-0.87648 0.61248-0.87648s0.09504-0.34848-0.35904-0.70751c-0.59596-0.2959-0.89744-0.29567-1.3381-0.29395-0.44061 0.00173-0.76782 0.054535-1.3381 0.29742-0.57024 0.24287-0.47519 0.72863-0.47519 0.72863s0.04224 0.23232 0.73919 0.96092c0.69696 0.72863 1.0769 0.84478 1.0769 0.84478z" fill-rule="evenodd"/>
  <path d="m11.646 8.4185a0.52312 0.76827 0 0 1 -0.523 0.7682 0.52312 0.76827 0 0 1 -0.523 -0.7682 0.52312 0.76827 0 0 1 0.523 -0.7683 0.52312 0.76827 0 0 1 0.523 0.7683"/>
  <path d="m13.109 8.4185a0.52312 0.76827 0 0 1 -0.523 0.7682 0.52312 0.76827 0 0 1 -0.524 -0.7682 0.52312 0.76827 0 0 1 0.524 -0.7683 0.52312 0.76827 0 0 1 0.523 0.7683"/>
 </g>
</svg>
