<?xml version="1.0" encoding="UTF-8" standalone="no"?>
<!-- Created with Inkscape (http://www.inkscape.org/) -->
<svg id="svg4275" xmlns:rdf="http://www.w3.org/1999/02/22-rdf-syntax-ns#" xmlns="http://www.w3.org/2000/svg" height="16" width="16" version="1.1" xmlns:cc="http://creativecommons.org/ns#" xmlns:dc="http://purl.org/dc/elements/1.1/" viewBox="0 0 16 16">
 <metadata id="metadata4280">
  <rdf:RDF>
   <cc:Work rdf:about="">
    <dc:format>image/svg+xml</dc:format>
    <dc:type rdf:resource="http://purl.org/dc/dcmitype/StillImage"/>
    <dc:title/>
   </cc:Work>
  </rdf:RDF>
 </metadata>
 <g id="layer1" transform="translate(0 -1036.4)">
  <path id="path3351" style="fill:#fff" d="m8 1036.4a8 8 0 0 0 -8 8 8 8 0 0 0 8 8 8 8 0 0 0 8 -8 8 8 0 0 0 -8 -8zm-2.5 5a3.5 3.5 0 0 1 2.4726 1.0273l-1.0586 1.0586a2 2 0 0 0 -1.414 -0.6 2 2 0 0 0 -2 2 2 2 0 0 0 2 2 2 2 0 0 0 1.9336 -1.5h-1.4336v-1h1.4355 0.56446 0.95898a3.5 3.5 0 0 1 0.041 0.5 3.5 3.5 0 0 1 -3.5 3.5 3.5 3.5 0 0 1 -3.5 -3.5 3.5 3.5 0 0 1 3.5 -3.5zm5.5 2h1v1h1v1h-1v1h-1v-1h-1v-1h1v-1z"/>
 </g>
</svg>
