<?xml version="1.0" encoding="UTF-8" standalone="no"?>
<!-- Created with Inkscape (http://www.inkscape.org/) -->
<svg id="svg3359" xmlns:rdf="http://www.w3.org/1999/02/22-rdf-syntax-ns#" xmlns="http://www.w3.org/2000/svg" height="16" width="16" version="1.1" xmlns:cc="http://creativecommons.org/ns#" xmlns:dc="http://purl.org/dc/elements/1.1/" viewBox="0 0 16 16">
 <metadata id="metadata3364">
  <rdf:RDF>
   <cc:Work rdf:about="">
    <dc:format>image/svg+xml</dc:format>
    <dc:type rdf:resource="http://purl.org/dc/dcmitype/StillImage"/>
    <dc:title/>
   </cc:Work>
  </rdf:RDF>
 </metadata>
 <g id="layer1" transform="translate(0 -1036.4)">
  <path id="XMLID_70_" style="fill:#fff" d="m8.0996 0c-4.5 0-8.0996 3.6004-8.0996 7.9004 0 4.3996 3.6004 7.9996 7.9004 8.0996 4.4996 0 8.0996-3.5 8.0996-8 0-4.4-3.6-8-7.9004-8zm-3.4746 2.4473c0.0438 0.0093 0.1008 0.0277 0.1758 0.0527 0.4 0.1 0.7992 0.3 1.1992 0.5 0.2 0.1 0.2996 0.1996 0.5996 0.0996 0.9-0.2 1.9008-0.2 2.8008 0h0.2988c0.3998-0.2 0.8018-0.4 1.1018-0.5 0.6-0.2 0.599-0.0996 0.699 0.4004 0.1 0.3 0 0.7 0 1 0 0.1 0 0.2008 0.1 0.3008 0.6 0.7 0.801 1.6 0.701 2.5 0 0.2-0.102 0.4992-0.102 0.6992 1 0 2.102 0.0008 3.102 0.3008v0.0996h-0.102c-0.9-0.2-1.799-0.2012-2.699-0.2012h-0.1c-0.2 0-0.3 0.1008-0.3 0.3008 1-0.1 2.099 0.0004 3.099 0.4004h-0.099c-1-0.3-2-0.4004-3-0.4004-0.1 0-0.199-0.0004-0.299 0.0996-0.3 0.6-0.902 0.9996-1.602 1.0996-0.2998 0.2-0.5998 0.2008-0.9998 0.3008 0.5 0.4 0.5016 0.9 0.6016 1.5v1.4c0 0.2 0.0988 0.4 0.2992 0.6 0 0 0.099 0 0.099 0.1l0.201 0.201c-0.1 0-0.2 0.099-0.3 0.099-0.2004 0-0.4-0.101-0.6-0.201s-0.3008-0.299-0.3008-0.599v-1.6c0-0.2 0.0008-0.3-0.1992-0.5v0.1 2c-0.2 0.2 0 0.399 0 0.599l0.0996 0.102v0.199s-0.0992 0.1-0.1992 0c-0.5-0.1-0.8008-0.5-0.8008-1v-2-0.199h-0.1992v0.099 1.7c0 0.2 0.0004 0.501-0.0996 0.701-0.1 0.4-0.4008 0.699-0.8008 0.699-0.1 0-0.0992 0-0.1992-0.1 0-0.1-0.0004-0.101 0.0996-0.201 0.1 0 0.1992-0.199 0.1992-0.299 0-0.8 0.1-1.6 0-2.4-0.1 0.1-0.0996 0.2-0.0996 0.4v1.6c0 0.5-0.5996 1.001-1.0996 0.801-0.1 0-0.1-0.101 0-0.201 0-0.1-0.0004-0.1 0.0996-0.2 0.2-0.1 0.3008-0.3 0.3008-0.5v-1.099h-0.8008c-0.6 0-0.9992-0.301-1.1992-0.801-0.2-0.4-0.4008-0.8-0.8008-1 0 0-0.0996-0.0992-0.0996-0.1992 0.1 0 0.0992-0.1016 0.1992-0.1016 0.3-0.1 0.6008 0.1008 0.8008 0.3008 0 0.1 0.0988 0.3 0.2988 0.5 0.3 0.4 0.7016 0.5 1.1016 0.5h0.1992c0.2 0 0.3004-0.101 0.4004-0.301l0.2988-0.5994c-0.3-0.2-0.6996-0.3004-1.0996-0.4004-0.7-0.2-1.2-0.5996-1.5-1.0996 0-0.1-0.0992-0.0996-0.1992-0.0996-1 0-1.9004 0.2004-2.9004 0.4004h-0.19922c1-0.4 2.0992-0.5 3.1992-0.5 0-0.2-0.1008-0.3012-0.3008-0.2012-0.9 0-1.7 0.1016-2.5 0.1016-0.1 0-0.1984-0.0004-0.39842 0.0996v-0.0996l0.09961-0.1016c0.40001-0.1 0.79881-0.0996 1.2988-0.0996 0.5 0 1.1016-0.0996 1.6016-0.0996 0-0.4-0.1016-0.7992-0.1016-1.1992-0.1-0.7 0.1-1.3004 0.5-1.9004 0.1-0.1 0.1016-0.2008 0.1016-0.3008-0.1-0.5-0.1004-1.0004 0.0996-1.4004 0.075-0.225 0.0934-0.2801 0.2246-0.2519zm1.3867 3.3496c-0.45 0.0656-0.7867 0.3281-1.0117 0.7031-0.3 0.6-0.3004 1.4004 0.0996 1.9004 0.3 0.3 0.7012 0.5996 1.2012 0.5996 0.6 0.1 1.1996 0.0996 1.5996 0.0996 0.7 0 1.0996 0.0004 1.5996-0.0996 0.9-0.1 1.599-0.4996 1.699-1.5996 0.1-0.9-0.499-1.6996-1.699-1.5996-1 0.1-2 0.1-3 0-0.175-0.025-0.3383-0.0258-0.4883-0.0039zm0.2754 0.8535c0.0875 0 0.1629 0.0504 0.2129 0.1504 0.1 0.1 0.1992 0.2996 0.1992 0.5996 0 0.1-0.0992 0.3004-0.1992 0.4004-0.1 0.2-0.3 0.2-0.5 0-0.3-0.2-0.3-0.8 0-1 0.1-0.1 0.1996-0.1504 0.2871-0.1504zm3.5762 0c0.1125 0 0.2357 0.0504 0.3357 0.1504 0.1 0.3 0.1 0.7 0 1-0.1998 0.2-0.499 0.1984-0.699-0.1016-0.1-0.1-0.0996-0.1984-0.0996-0.3984s0.0992-0.3 0.1992-0.5c0.05-0.1 0.1512-0.1504 0.2637-0.1504z" transform="translate(0 1036.4)"/>
 </g>
</svg>
