<?xml version="1.0" encoding="UTF-8" standalone="no"?>
<!-- Created with Inkscape (http://www.inkscape.org/) -->
<svg id="svg4225" xmlns:rdf="http://www.w3.org/1999/02/22-rdf-syntax-ns#" xmlns="http://www.w3.org/2000/svg" height="16" width="16" version="1.1" xmlns:cc="http://creativecommons.org/ns#" xmlns:dc="http://purl.org/dc/elements/1.1/" viewBox="0 0 16 16">
 <metadata id="metadata4230">
  <rdf:RDF>
   <cc:Work rdf:about="">
    <dc:format>image/svg+xml</dc:format>
    <dc:type rdf:resource="http://purl.org/dc/dcmitype/StillImage"/>
    <dc:title/>
   </cc:Work>
  </rdf:RDF>
 </metadata>
 <g id="layer1" transform="translate(0 -1036.4)">
  <path id="XMLID_138_" style="fill:#fff" d="m8 1036.4c-4.4 0-8 3.6-8 8s3.6 8 8 8 8-3.6 8-8-3.6-8-8-8zm4 3a1 1 0 0 1 1 1 1 1 0 0 1 -1 1 1 1 0 0 1 -0.99023 -0.8769l-2.01-0.3-0.80078 2.3984c1.4 0 2.5 0.4016 3.5 1.1016 0.2-0.3 0.50039-0.4004 0.90039-0.4004 0.3 0 0.60078 0.099 0.80078 0.2988 0.2 0.2 0.29883 0.5008 0.29883 0.8008 0 0.2 0.00078 0.3996-0.19922 0.5996-0.1 0.2-0.3 0.4-0.5 0.5 0 0.2 0.0996 0.3 0.0996 0.5 0 0.6-0.19922 1.2012-0.69922 1.7012s-1.1004 0.8992-1.9004 1.1992-1.5996 0.4004-2.5996 0.4004c-0.9 0-1.7996-0.1004-2.5996-0.4004s-1.4004-0.6992-1.9004-1.1992-0.70117-1.1012-0.70117-1.7012c0-0.2 0.002-0.3 0.10156-0.5-0.1-0.1-0.20039-0.3-0.40039-0.5-0.1-0.1-0.0996-0.3996-0.0996-0.5996 0-0.3 0.0988-0.6008 0.29883-0.8008 0.2-0.2 0.50078-0.2988 0.80078-0.2988s0.59883 0.1004 0.79883 0.4004c1-0.7 2.1-1 3.5-1l0.90039-2.8008c0-0.1 0.0996-0.1 0.0996-0.1h0.20117l2.1426 0.3164a1 1 0 0 1 0.957 -0.7zm0 0.5a0.5 0.5 0 0 0 -0.5 0.5 0.5 0.5 0 0 0 0.5 0.5 0.5 0.5 0 0 0 0.5 -0.5 0.5 0.5 0 0 0 -0.5 -0.5zm-6 4.5a1 1 0 0 0 -1 1 1 1 0 0 0 1 1 1 1 0 0 0 1 -1 1 1 0 0 0 -1 -1zm4 0a1 1 0 0 0 -1 1 1 1 0 0 0 1 1 1 1 0 0 0 1 -1 1 1 0 0 0 -1 -1zm-3.8008 2.9004c-0.1 0-0.0992-0.0004-0.19922 0.1v0.1c0 0.1-0.00039 0.1012 0.0996 0.2012 0.4 0.4 1.0004 0.5996 1.9004 0.5996s1.5004-0.1996 1.9004-0.5996c0 0 0.0996-0.1012 0.0996-0.2012s0.00039-0.099-0.0996-0.1992h-0.0996c-0.1 0-0.10117-0.0004-0.20117 0.1-0.3 0.3-0.79961 0.5-1.5996 0.5-0.8 0-1.2996-0.2-1.5996-0.5 0 0-0.10117-0.1-0.20117-0.1z"/>
 </g>
</svg>
