<?xml version="1.0" encoding="UTF-8" standalone="no"?>
<svg id="svg2" xmlns:rdf="http://www.w3.org/1999/02/22-rdf-syntax-ns#" xmlns="http://www.w3.org/2000/svg" height="16" width="16" version="1.1" xmlns:cc="http://creativecommons.org/ns#" xmlns:dc="http://purl.org/dc/elements/1.1/" viewBox="0 0 16 16">
 <metadata id="metadata10">
  <rdf:RDF>
   <cc:Work rdf:about="">
    <dc:format>image/svg+xml</dc:format>
    <dc:type rdf:resource="http://purl.org/dc/dcmitype/StillImage"/>
    <dc:title/>
   </cc:Work>
  </rdf:RDF>
 </metadata>
 <path id="path3338" style="fill:#fff" d="m8 0a8 8 0 0 0 -8 8 8 8 0 0 0 8 8 8 8 0 0 0 8 -8 8 8 0 0 0 -8 -8zm4.582 4.0039c0.3 0.0338 0.507 0.3283 0.379 0.8281l-1.66 7.623c-0.116 0.542-0.45 0.674-0.914 0.424l-2.5276-1.822-1.2149 1.148c-0.1403 0.137-0.2556 0.25-0.5058 0.25l0.1699-2.5175 4.6874-4.1172c0.208-0.1845-0.042-0.2739-0.316-0.1133l-5.7874 3.5645-2.502-0.7735c-0.537-0.1487-0.5422-0.5116 0.1231-0.7734l9.7463-3.666c0.111-0.0491 0.222-0.0659 0.322-0.0547z"/>
</svg>
