<?xml version="1.0" encoding="UTF-8" standalone="no"?>
<!-- Created with Inkscape (http://www.inkscape.org/) -->
<svg id="svg4186" xmlns:rdf="http://www.w3.org/1999/02/22-rdf-syntax-ns#" xmlns="http://www.w3.org/2000/svg" height="16" width="16" version="1.1" xmlns:cc="http://creativecommons.org/ns#" xmlns:dc="http://purl.org/dc/elements/1.1/" viewBox="0 0 16 16">
 <metadata id="metadata4191">
  <rdf:RDF>
   <cc:Work rdf:about="">
    <dc:format>image/svg+xml</dc:format>
    <dc:type rdf:resource="http://purl.org/dc/dcmitype/StillImage"/>
    <dc:title/>
   </cc:Work>
  </rdf:RDF>
 </metadata>
 <g id="layer1" transform="translate(0 -1036.4)">
  <path id="path3382" style="fill:#fff" d="m8 1036.4c-4.4 0-8 3.6-8 8s3.6 8 8 8 8-3.6 8-8-3.6-8-8-8zm2.0508 3.668c0.62906 0 1.1969 0.2664 1.5957 0.6914 0.49843-0.098 0.96612-0.2805 1.3887-0.5313-0.16331 0.5106-0.50945 0.9402-0.96094 1.211 0.44236-0.053 0.86381-0.1718 1.2559-0.3457-0.29339 0.4387-0.66464 0.8242-1.0918 1.1328 0.004 0.094 0.006 0.1884 0.006 0.2832 0 2.8904-2.1978 6.2226-6.2207 6.2226-1.2353 0-2.3852-0.3618-3.3535-0.9824 0.17124 0.02 0.34506 0.029 0.52148 0.029 1.0248 0 1.9676-0.3488 2.7168-0.9355-0.95725-0.018-1.7645-0.6507-2.043-1.5196 0.13378 0.026 0.27103 0.039 0.41211 0.039 0.19949 0 0.39085-0.026 0.57422-0.076-1.0005-0.201-1.754-1.0846-1.754-2.1445 0-0.01-0.00033-0.018 0-0.027 0.2949 0.1639 0.63368 0.2622 0.99219 0.2734-0.58704-0.3923-0.97461-1.0614-0.97461-1.8203 0-0.4009 0.1086-0.7767 0.29688-1.0996 1.0788 1.3231 2.69 2.1941 4.5078 2.2852-0.0374-0.16-0.0566-0.3266-0.0566-0.4981 0-1.2079 0.97952-2.1875 2.1875-2.1875z"/>
 </g>
</svg>
