<svg width="68.000000pt" height="66.000000pt" viewBox="0 0 68.000000 66.000000" xmlns="http://www.w3.org/2000/svg">
  <g transform="translate(0.000000,66.000000) scale(0.100000,-0.100000)" fill="#c689c6" stroke="none">
    <path d="M195 635 l-60 -24 -51 -55 -52 -54 -16 -48 -16 -48 0 -76 0 -76 17
-49 16 -49 56 -57 56 -57 58 -21 58 -21 79 0 79 0 58 21 58 21 56 57 56 57 16
49 17 49 0 76 0 76 -17 49 -16 49 -56 57 -56 57 -58 21 -58 21 -82 0 -82 0
-60 -25z m230 -100 l30 -13 -17 -1 c-10 -1 -18 -6 -18 -13 l0 -11 -23 21 c-13
12 -29 22 -35 22 l-12 0 0 -40 0 -40 35 0 35 0 0 18 1 17 10 -17 10 -18 24 0
25 0 0 13 c0 7 -6 19 -12 26 l-13 14 27 -17 c15 -10 33 -27 41 -39 l14 -22
-43 4 -44 3 0 -28 c0 -16 3 -39 6 -51 l6 -23 45 0 46 0 -6 42 -6 42 10 -15
c11 -18 11 -140 0 -158 l-10 -15 6 42 6 42 -46 0 -45 0 -6 -22 c-3 -13 -6 -36
-6 -52 l0 -28 44 3 44 4 -8 -16 c-5 -9 -16 -21 -24 -29 l-16 -12 0 16 0 16
-30 0 -29 0 -10 -18 -10 -17 -1 18 0 17 -35 0 -35 0 0 -40 0 -40 12 0 c6 0 22
10 35 22 l23 21 0 -11 c0 -7 8 -12 18 -12 l17 -1 -25 -14 -25 -14 -60 0 c-33
0 -73 6 -90 14 l-30 13 18 1 c9 1 17 6 17 13 l0 11 23 -21 c13 -12 29 -22 35
-22 l12 0 0 40 0 40 -35 0 -35 0 0 -17 -1 -18 -10 18 -10 17 -24 0 -25 0 0
-13 c0 -7 6 -19 13 -26 6 -8 0 -6 -15 4 -29 18 -74 82 -65 91 3 3 8 -4 12 -15
l6 -21 45 0 44 0 1 13 1 12 5 -12 5 -13 44 0 44 0 0 50 0 50 -50 0 -50 0 -1
-37 c-1 -39 -3 -38 -13 10 l-6 27 -45 0 -44 0 -4 -27 c-2 -16 -4 1 -4 37 0 36
2 53 4 38 l4 -28 44 0 45 0 6 28 c10 47 12 48 13 10 l1 -38 50 0 50 0 0 50 0
50 -45 0 -45 0 -1 -12 -1 -13 -5 13 -5 12 -43 0 -44 0 -6 -21 c-4 -11 -9 -18
-12 -15 -9 9 36 73 65 91 15 10 21 12 15 4 -7 -7 -13 -19 -13 -26 l0 -13 25 0
24 0 10 18 10 17 1 -17 0 -18 35 0 35 0 0 18 c0 9 3 27 6 40 l6 22 -18 0 c-10
0 -28 -10 -41 -22 l-23 -21 0 12 0 13 -20 -5 c-31 -8 -24 2 13 18 41 18 133
18 172 0z m65 -369 c0 -3 -5 -8 -12 -12 l-11 -7 7 11 c7 12 16 16 16 8z" />
    <path d="M350 390 l0 -50 50 0 50 0 0 34 c0 19 -3 41 -6 50 l-6 16 -44 0 -44
0 0 -50z" />
    <path d="M350 270 l0 -50 44 0 44 0 6 16 c3 9 6 31 6 50 l0 34 -50 0 -50 0 0
-50z" />
  </g>
  <g transform="translate(0.000000,66.000000) scale(0.100000,-0.100000)" fill="#fefefe" stroke="none">
    <path d="M1 523 l0 -138 11 25 c38 88 54 113 96 152 l48 45 49 18 c28 10 54
22 60 27 l9 8 -137 0 -137 0 1 -137z" />
    <path d="M416 652 c5 -5 32 -17 59 -27 l50 -18 56 -57 56 -56 13 -40 c7 -21
16 -43 21 -48 l9 -10 0 132 0 132 -137 0 -137 0 10 -8z" />
    <path d="M252 550 c-13 -5 -43 -23 -67 -40 l-43 -30 -21 -43 -21 -43 0 -64 0
-64 21 -44 21 -43 56 -37 55 -37 81 -3 81 -4 62 41 62 40 21 40 20 40 0 72 0
72 -25 42 -24 43 -53 33 -53 34 -75 2 c-41 2 -85 -2 -98 -7z m70 -50 l-4 -30
-24 0 c-13 0 -24 3 -24 7 0 9 42 53 50 53 4 0 5 -13 2 -30z m88 -22 c0 -4 -11
-8 -25 -8 l-25 0 0 32 0 31 25 -23 c14 -13 25 -27 25 -32z m-170 12 c-6 -11
-18 -20 -28 -20 l-17 1 24 19 c13 11 25 20 27 20 3 0 0 -9 -6 -20z m225 0 l18
-20 -16 0 c-9 0 -21 9 -27 20 l-11 20 9 0 c5 0 17 -9 27 -20z m-249 -72 c-3
-7 -7 -25 -10 -40 l-6 -28 -35 0 -35 0 0 15 c0 8 5 26 12 40 l11 25 33 0 33 0
-3 -12z m104 -28 l0 -40 -40 0 -40 0 0 24 c0 13 3 31 6 40 l6 16 34 0 34 0 0
-40z m114 24 c3 -9 6 -27 6 -40 l0 -24 -40 0 -40 0 0 40 0 40 34 0 34 0 6 -16z
m106 -10 c6 -14 10 -32 10 -40 l0 -14 -34 0 -34 0 -6 23 c-3 12 -6 30 -6 40
l0 17 30 0 30 0 10 -26z m-334 -121 c3 -16 7 -34 10 -40 l3 -13 -33 0 -33 0
-11 25 c-7 14 -12 32 -12 40 l0 15 35 0 35 0 6 -27z m114 -13 l0 -40 -34 0
-34 0 -6 16 c-3 9 -6 27 -6 40 l0 24 40 0 40 0 0 -40z m120 16 c0 -13 -3 -31
-6 -40 l-6 -16 -34 0 -34 0 0 40 0 40 40 0 40 0 0 -24z m110 10 c0 -8 -4 -26
-10 -40 l-10 -26 -30 0 -30 0 0 18 c0 9 3 27 6 40 l6 22 34 0 34 0 0 -14z
m-310 -126 l11 -20 -9 0 c-5 0 -17 9 -27 20 l-18 20 16 0 c9 0 21 -9 27 -20z
m80 -12 l0 -31 -25 23 c-14 13 -25 27 -25 32 0 4 11 8 25 8 l25 0 0 -32z m90
24 c0 -5 -11 -19 -25 -32 l-25 -23 0 31 0 32 25 0 c14 0 25 -4 25 -8z m57 -12
c-14 -11 -28 -20 -31 -20 -4 0 -2 9 4 20 l11 20 21 0 21 0 -26 -20z" />
    <path d="M654 218 l-17 -52 -56 -56 -56 -57 -50 -18 c-27 -10 -54 -22 -59 -27
l-10 -8 137 0 137 0 0 135 c0 74 -2 135 -4 135 -3 0 -12 -23 -22 -52z" />
    <path d="M0 132 l0 -132 137 0 137 0 -9 8 c-6 5 -32 17 -60 27 l-50 18 -56 57
-56 56 -13 40 c-7 21 -16 43 -21 49 l-9 9 0 -132z" />
  </g>
  <g transform="translate(0.000000,66.000000) scale(0.100000,-0.100000)" fill="#dbb5db" stroke="none">
    <path d="M238 643 c7 -3 16 -2 19 1 4 3 -2 6 -13 5 l-19 -1 13 -5z" />
    <path d="M428 643 c7 -3 16 -2 19 1 4 3 -2 6 -13 5 l-19 -1 13 -5z" />
    <path d="M190 630 l-15 -10 12 0 c6 0 15 5 18 10 8 12 4 12 -15 0z" />
    <path d="M477 629 c7 -7 15 -10 18 -7 3 3 -2 9 -12 12 l-18 7 12 -12z" />
    <path d="M129 593 l-14 -18 18 14 c9 7 17 15 17 17 0 8 -8 3 -21 -13z" />
    <path d="M530 606 c0 -2 8 -10 18 -17 l17 -14 -14 18 c-13 16 -21 21 -21 13z" />
    <path d="M59 523 l-14 -18 18 14 c9 7 17 15 17 17 0 8 -8 3 -21 -13z" />
    <path d="M600 536 c0 -2 8 -10 18 -17 l17 -14 -14 18 c-13 16 -21 21 -21 13z" />
    <path d="M26 473 l-7 -18 12 12 c7 7 10 15 7 18 -3 3 -9 -2 -12 -12z" />
    <path d="M640 481 c0 -6 4 -13 10 -16 l10 -6 -6 15 c-7 18 -14 21 -14 7z" />
    <path d="M11 424 l1 -19 5 13 c3 7 2 16 -1 19 -3 4 -6 -2 -5 -13z" />
    <path d="M661 424 l1 -19 5 13 c3 7 2 16 -1 19 -3 4 -6 -2 -5 -13z" />
    <path d="M11 234 l1 -19 5 13 c3 7 2 16 -1 19 -3 4 -6 -2 -5 -13z" />
    <path d="M661 234 l1 -19 5 13 c3 7 2 16 -1 19 -3 4 -6 -2 -5 -13z" />
    <path d="M26 187 c3 -10 9 -15 12 -12 3 3 0 11 -7 18 l-12 12 7 -18z" />
    <path d="M645 189 c-4 -6 -5 -12 -2 -15 2 -3 7 2 10 11 7 17 1 20 -8 4z" />
    <path d="M50 146 c0 -2 8 -10 18 -17 l17 -14 -14 18 c-13 16 -21 21 -21 13z" />
    <path d="M609 133 l-14 -18 18 14 c16 13 21 21 13 21 -2 0 -10 -8 -17 -17z" />
    <path d="M539 63 l-14 -18 18 14 c16 13 21 21 13 21 -2 0 -10 -8 -17 -17z" />
    <path d="M180 36 c0 -2 7 -7 16 -10 l15 -6 -6 10 c-6 10 -25 14 -25 6z" />
    <path d="M475 30 l-6 -10 15 6 c18 7 21 14 7 14 -6 0 -13 -4 -16 -10z" />
    <path d="M238 13 c7 -3 16 -2 19 1 4 3 -2 6 -13 5 l-19 -1 13 -5z" />
    <path d="M428 13 c7 -3 16 -2 19 1 4 3 -2 6 -13 5 l-19 -1 13 -5z" />
  </g>
  <g transform="translate(0.000000,66.000000) scale(0.100000,-0.100000)" fill="#ca93ca" stroke="none">
    <path d="M308 653 c7 -3 16 -2 19 1 4 3 -2 6 -13 5 l-19 -1 13 -5z" />
    <path d="M358 653 c7 -3 16 -2 19 1 4 3 -2 6 -13 5 l-19 -1 13 -5z" />
    <path d="M105 579 c-11 -17 1 -21 15 -4 l12 15 -10 0 c-6 0 -14 -5 -17 -11z" />
    <path d="M560 575 c7 -9 15 -13 17 -11 7 7 -7 26 -19 26 l-10 0 12 -15z" />
    <path d="M46 503 l-7 -18 12 12 c7 7 10 15 7 18 -3 3 -9 -2 -12 -12z" />
    <path d="M620 511 c0 -6 4 -13 10 -16 l10 -6 -6 15 c-7 18 -14 21 -14 7z" />
    <path d="M16 443 l-7 -18 12 12 c7 7 10 15 7 18 -3 3 -9 -2 -12 -12z" />
    <path d="M650 451 c0 -6 4 -13 10 -16 l10 -6 -6 15 c-7 18 -14 21 -14 7z" />
    <path d="M671 354 l1 -19 5 13 c3 7 2 16 -1 19 -3 4 -6 -2 -5 -13z" />
    <path d="M0 350 c0 -7 3 -10 7 -7 3 4 3 10 0 14 -4 3 -7 0 -7 -7z" />
    <path d="M0 310 c0 -7 3 -10 7 -7 3 4 3 10 0 14 -4 3 -7 0 -7 -7z" />
    <path d="M16 217 c3 -10 9 -15 12 -12 3 3 0 11 -7 18 l-12 12 7 -18z" />
    <path d="M655 219 c-4 -6 -5 -12 -2 -15 2 -3 7 2 10 11 7 17 1 20 -8 4z" />
    <path d="M46 157 c3 -10 9 -15 12 -12 3 3 0 11 -7 18 l-12 12 7 -18z" />
    <path d="M625 159 c-4 -6 -5 -12 -2 -15 2 -3 7 2 10 11 7 17 1 20 -8 4z" />
    <path d="M70 122 c0 -12 19 -26 26 -19 2 2 -2 10 -11 17 l-15 12 0 -10z" />
    <path d="M590 115 l-12 -15 10 0 c12 0 26 19 19 26 -2 2 -10 -2 -17 -11z" />
    <path d="M140 56 c0 -2 7 -7 16 -10 l15 -6 -6 10 c-6 10 -25 14 -25 6z" />
    <path d="M515 50 l-6 -10 15 6 c18 7 21 14 7 14 -6 0 -13 -4 -16 -10z" />
    <path d="M445 20 l-6 -10 15 6 c18 7 21 14 7 14 -6 0 -13 -4 -16 -10z" />
    <path d="M308 3 c7 -3 16 -2 19 1 4 3 -2 6 -13 5 l-19 -1 13 -5z" />
  </g>
  <g transform="translate(0.000000,66.000000) scale(0.100000,-0.100000)" fill="#cc96cc" stroke="none">
    <path d="M254 648 l-7 -11 11 7 c12 7 16 16 8 16 -3 0 -8 -5 -12 -12z" />
    <path d="M415 650 c3 -5 8 -10 11 -10 3 0 2 5 -1 10 -3 6 -8 10 -11 10 -3 0
-2 -4 1 -10z" />
    <path d="M220 640 l-15 -10 12 0 c6 0 15 5 18 10 8 12 4 12 -15 0z" />
    <path d="M447 639 c7 -7 15 -10 18 -7 3 3 -2 9 -12 12 l-18 7 12 -12z" />
    <path d="M150 610 l-15 -10 12 0 c6 0 15 5 18 10 8 12 4 12 -15 0z" />
    <path d="M517 609 c7 -7 15 -10 18 -7 3 3 -2 9 -12 12 l-18 7 12 -12z" />
    <path d="M75 549 c-11 -17 1 -21 15 -4 l12 15 -10 0 c-6 0 -14 -5 -17 -11z" />
    <path d="M590 545 c7 -9 15 -13 17 -11 7 7 -7 26 -19 26 l-10 0 12 -15z" />
    <path d="M4 408 l-7 -11 11 7 c12 7 16 16 8 16 -3 0 -8 -5 -12 -12z" />
    <path d="M665 410 c3 -5 8 -10 11 -10 3 0 2 5 -1 10 -3 6 -8 10 -11 10 -3 0
-2 -4 1 -10z" />
    <path d="M670 370 c0 -7 3 -10 7 -7 3 4 3 10 0 14 -4 3 -7 0 -7 -7z" />
    <path d="M0 360 c0 -7 3 -10 7 -7 3 4 3 10 0 14 -4 3 -7 0 -7 -7z" />
    <path d="M671 304 l1 -19 5 13 c3 7 2 16 -1 19 -3 4 -6 -2 -5 -13z" />
    <path d="M1 294 l1 -19 5 13 c3 7 2 16 -1 19 -3 4 -6 -2 -5 -13z" />
    <path d="M5 250 c3 -5 8 -10 11 -10 3 0 2 5 -1 10 -3 6 -8 10 -11 10 -3 0 -2
-4 1 -10z" />
    <path d="M664 248 l-7 -11 11 7 c7 4 12 9 12 12 0 8 -9 4 -16 -8z" />
    <path d="M100 92 c0 -12 19 -26 26 -19 2 2 -2 10 -11 17 l-15 12 0 -10z" />
    <path d="M560 85 l-12 -15 10 0 c12 0 26 19 19 26 -2 2 -10 -2 -17 -11z" />
    <path d="M210 26 c0 -2 7 -7 16 -10 l15 -6 -6 10 c-6 10 -25 14 -25 6z" />
    <path d="M255 10 c3 -5 8 -10 11 -10 3 0 2 5 -1 10 -3 6 -8 10 -11 10 -3 0 -2
-4 1 -10z" />
    <path d="M414 8 l-7 -11 11 7 c12 7 16 16 8 16 -3 0 -8 -5 -12 -12z" />
    <path d="M358 3 c7 -3 16 -2 19 1 4 3 -2 6 -13 5 l-19 -1 13 -5z" />
  </g>
  <g transform="translate(0.000000,66.000000) scale(0.100000,-0.100000)" fill="#dfbfdf" stroke="none">
    <path d="M278 653 c7 -3 16 -2 19 1 4 3 -2 6 -13 5 l-19 -1 13 -5z" />
    <path d="M388 653 c7 -3 16 -2 19 1 4 3 -2 6 -13 5 l-19 -1 13 -5z" />
    <path d="M203 633 c4 -3 10 -3 14 0 3 4 0 7 -7 7 -7 0 -10 -3 -7 -7z" />
    <path d="M463 633 c4 -3 10 -3 14 0 3 4 0 7 -7 7 -7 0 -10 -3 -7 -7z" />
    <path d="M170 620 l-15 -10 12 0 c6 0 15 5 18 10 8 12 4 12 -15 0z" />
    <path d="M34 488 l-7 -11 11 7 c12 7 16 16 8 16 -3 0 -8 -5 -12 -12z" />
    <path d="M20 460 c0 -7 3 -10 7 -7 3 4 3 10 0 14 -4 3 -7 0 -7 -7z" />
    <path d="M650 460 c0 -7 3 -10 7 -7 3 4 3 10 0 14 -4 3 -7 0 -7 -7z" />
    <path d="M672 390 c0 -14 2 -19 5 -12 2 6 2 18 0 25 -3 6 -5 1 -5 -13z" />
    <path d="M2 380 c0 -14 2 -19 5 -12 2 6 2 18 0 25 -3 6 -5 1 -5 -13z" />
    <path d="M672 280 c0 -14 2 -19 5 -12 2 6 2 18 0 25 -3 6 -5 1 -5 -13z" />
    <path d="M2 270 c0 -14 2 -19 5 -12 2 6 2 18 0 25 -3 6 -5 1 -5 -13z" />
    <path d="M20 200 c0 -7 3 -10 7 -7 3 4 3 10 0 14 -4 3 -7 0 -7 -7z" />
    <path d="M650 200 c0 -7 3 -10 7 -7 3 4 3 10 0 14 -4 3 -7 0 -7 -7z" />
    <path d="M203 23 c4 -3 10 -3 14 0 3 4 0 7 -7 7 -7 0 -10 -3 -7 -7z" />
    <path d="M463 23 c4 -3 10 -3 14 0 3 4 0 7 -7 7 -7 0 -10 -3 -7 -7z" />
    <path d="M278 3 c7 -3 16 -2 19 1 4 3 -2 6 -13 5 l-19 -1 13 -5z" />
    <path d="M388 3 c7 -3 16 -2 19 1 4 3 -2 6 -13 5 l-19 -1 13 -5z" />
  </g>
  <g transform="translate(0.000000,66.000000) scale(0.100000,-0.100000)" fill="#eddbed" stroke="none">
    <path d="M135 60 c3 -5 8 -10 11 -10 3 0 2 5 -1 10 -3 6 -8 10 -11 10 -3 0 -2
-4 1 -10z" />
  </g>
  <g transform="translate(0.000000,66.000000) scale(0.100000,-0.100000)" fill="#d09ed0" stroke="none">
    <path d="M293 653 c4 -3 10 -3 14 0 3 4 0 7 -7 7 -7 0 -10 -3 -7 -7z" />
    <path d="M373 653 c4 -3 10 -3 14 0 3 4 0 7 -7 7 -7 0 -10 -3 -7 -7z" />
    <path d="M113 583 c4 -3 10 -3 14 0 3 4 0 7 -7 7 -7 0 -10 -3 -7 -7z" />
    <path d="M553 583 c4 -3 10 -3 14 0 3 4 0 7 -7 7 -7 0 -10 -3 -7 -7z" />
    <path d="M70 540 c0 -7 3 -10 7 -7 3 4 3 10 0 14 -4 3 -7 0 -7 -7z" />
    <path d="M600 540 c0 -7 3 -10 7 -7 3 4 3 10 0 14 -4 3 -7 0 -7 -7z" />
    <path d="M0 370 c0 -7 3 -10 7 -7 3 4 3 10 0 14 -4 3 -7 0 -7 -7z" />
    <path d="M670 370 c0 -7 3 -10 7 -7 3 4 3 10 0 14 -4 3 -7 0 -7 -7z" />
    <path d="M0 290 c0 -7 3 -10 7 -7 3 4 3 10 0 14 -4 3 -7 0 -7 -7z" />
    <path d="M670 290 c0 -7 3 -10 7 -7 3 4 3 10 0 14 -4 3 -7 0 -7 -7z" />
    <path d="M70 120 c0 -7 3 -10 7 -7 3 4 3 10 0 14 -4 3 -7 0 -7 -7z" />
    <path d="M600 120 c0 -7 3 -10 7 -7 3 4 3 10 0 14 -4 3 -7 0 -7 -7z" />
    <path d="M110 76 c0 -2 7 -7 16 -10 l15 -6 -6 10 c-6 10 -25 14 -25 6z" />
    <path d="M553 73 c4 -3 10 -3 14 0 3 4 0 7 -7 7 -7 0 -10 -3 -7 -7z" />
    <path d="M293 3 c4 -3 10 -3 14 0 3 4 0 7 -7 7 -7 0 -10 -3 -7 -7z" />
    <path d="M373 3 c4 -3 10 -3 14 0 3 4 0 7 -7 7 -7 0 -10 -3 -7 -7z" />
  </g>
  <g transform="translate(0.000000,66.000000) scale(0.100000,-0.100000)" fill="#c88fc8" stroke="none">
    <path d="M90 565 l-12 -15 10 0 c12 0 26 19 19 26 -2 2 -10 -2 -17 -11z" />
    <path d="M570 572 c0 -12 19 -26 26 -19 2 2 -2 10 -11 17 l-15 12 0 -10z" />
    <path d="M90 95 c7 -9 15 -13 17 -11 7 7 -7 26 -19 26 l-10 0 12 -15z" />
    <path d="M575 99 c-11 -17 1 -21 15 -4 l12 15 -10 0 c-6 0 -14 -5 -17 -11z" />
  </g>
  <g transform="translate(0.000000,66.000000) scale(0.100000,-0.100000)" fill="#f8f1f8" stroke="none">
    <path d="M104 578 l-7 -11 11 7 c12 7 16 16 8 16 -3 0 -8 -5 -12 -12z" />
    <path d="M565 580 c3 -5 8 -10 11 -10 3 0 2 5 -1 10 -3 6 -8 10 -11 10 -3 0
-2 -4 1 -10z" />
    <path d="M74 548 l-7 -11 11 7 c12 7 16 16 8 16 -3 0 -8 -5 -12 -12z" />
    <path d="M595 550 c3 -5 8 -10 11 -10 3 0 2 5 -1 10 -3 6 -8 10 -11 10 -3 0
-2 -4 1 -10z" />
    <path d="M105 80 c3 -5 8 -10 11 -10 3 0 2 5 -1 10 -3 6 -8 10 -11 10 -3 0 -2
-4 1 -10z" />
  </g>
  <g transform="translate(0.000000,66.000000) scale(0.100000,-0.100000)" fill="#f7eff7" stroke="none">
    <path d="M263 653 c4 -3 10 -3 14 0 3 4 0 7 -7 7 -7 0 -10 -3 -7 -7z" />
    <path d="M403 653 c4 -3 10 -3 14 0 3 4 0 7 -7 7 -7 0 -10 -3 -7 -7z" />
    <path d="M495 620 c3 -5 8 -10 11 -10 3 0 2 5 -1 10 -3 6 -8 10 -11 10 -3 0
-2 -4 1 -10z" />
    <path d="M0 400 c0 -7 3 -10 7 -7 3 4 3 10 0 14 -4 3 -7 0 -7 -7z" />
    <path d="M670 400 c0 -7 3 -10 7 -7 3 4 3 10 0 14 -4 3 -7 0 -7 -7z" />
    <path d="M0 260 c0 -7 3 -10 7 -7 3 4 3 10 0 14 -4 3 -7 0 -7 -7z" />
    <path d="M670 260 c0 -7 3 -10 7 -7 3 4 3 10 0 14 -4 3 -7 0 -7 -7z" />
    <path d="M75 110 c3 -5 8 -10 11 -10 3 0 2 5 -1 10 -3 6 -8 10 -11 10 -3 0 -2
-4 1 -10z" />
    <path d="M594 108 l-7 -11 11 7 c7 4 12 9 12 12 0 8 -9 4 -16 -8z" />
    <path d="M564 78 l-7 -11 11 7 c7 4 12 9 12 12 0 8 -9 4 -16 -8z" />
    <path d="M263 3 c4 -3 10 -3 14 0 3 4 0 7 -7 7 -7 0 -10 -3 -7 -7z" />
    <path d="M403 3 c4 -3 10 -3 14 0 3 4 0 7 -7 7 -7 0 -10 -3 -7 -7z" />
  </g>
  <g transform="translate(0.000000,66.000000) scale(0.100000,-0.100000)" fill="#debdde" stroke="none">
    <path d="M503 613 c4 -3 10 -3 14 0 3 4 0 7 -7 7 -7 0 -10 -3 -7 -7z" />
    <path d="M635 490 c3 -5 8 -10 11 -10 3 0 2 5 -1 10 -3 6 -8 10 -11 10 -3 0
-2 -4 1 -10z" />
    <path d="M35 170 c3 -5 8 -10 11 -10 3 0 2 5 -1 10 -3 6 -8 10 -11 10 -3 0 -2
-4 1 -10z" />
    <path d="M634 168 l-7 -11 11 7 c7 4 12 9 12 12 0 8 -9 4 -16 -8z" />
    <path d="M160 46 c0 -2 7 -7 16 -10 l15 -6 -6 10 c-6 10 -25 14 -25 6z" />
    <path d="M495 40 l-6 -10 15 6 c18 7 21 14 7 14 -6 0 -13 -4 -16 -10z" />
  </g>
  <g transform="translate(0.000000,66.000000) scale(0.100000,-0.100000)" fill="#f2e6f2" stroke="none">
    <path d="M89 563 l-14 -18 18 14 c9 7 17 15 17 17 0 8 -8 3 -21 -13z" />
    <path d="M570 576 c0 -2 8 -10 18 -17 l17 -14 -14 18 c-13 16 -21 21 -21 13z" />
    <path d="M80 106 c0 -2 8 -10 18 -17 l17 -14 -14 18 c-13 16 -21 21 -21 13z" />
    <path d="M579 93 l-14 -18 18 14 c16 13 21 21 13 21 -2 0 -10 -8 -17 -17z" />
  </g>
  <g transform="translate(0.000000,66.000000) scale(0.100000,-0.100000)" fill="#f5ecf5" stroke="none" />
  <g transform="translate(0.000000,66.000000) scale(0.100000,-0.100000)" fill="#d7add7" stroke="none" />
  <g transform="translate(0.000000,66.000000) scale(0.100000,-0.100000)" fill="#ead4ea" stroke="none" />
  <g transform="translate(0.000000,66.000000) scale(0.100000,-0.100000)" fill="#000000" stroke="none" />
  <g transform="translate(0.000000,66.000000) scale(0.100000,-0.100000)" fill="#000000" stroke="none" />
  <g transform="translate(0.000000,66.000000) scale(0.100000,-0.100000)" fill="#000000" stroke="none" />
  <g transform="translate(0.000000,66.000000) scale(0.100000,-0.100000)" fill="#000000" stroke="none" />
  <g transform="translate(0.000000,66.000000) scale(0.100000,-0.100000)" fill="#000000" stroke="none" />
  <g transform="translate(0.000000,66.000000) scale(0.100000,-0.100000)" fill="#000000" stroke="none" />
  <g transform="translate(0.000000,66.000000) scale(0.100000,-0.100000)" fill="#000000" stroke="none" />
  <g transform="translate(0.000000,66.000000) scale(0.100000,-0.100000)" fill="#000000" stroke="none" />
  <g transform="translate(0.000000,66.000000) scale(0.100000,-0.100000)" fill="#000000" stroke="none" />
</svg>