<?xml version="1.0" encoding="UTF-8" standalone="no"?>
<svg xmlns:rdf="http://www.w3.org/1999/02/22-rdf-syntax-ns#" xmlns="http://www.w3.org/2000/svg" height="43" width="245" version="1.1" xmlns:cc="http://creativecommons.org/ns#" xmlns:dc="http://purl.org/dc/elements/1.1/" viewBox="0 0 245 43.000001">
 <title>budgie-remix Wordmark</title>
 <metadata>
  <rdf:RDF>
   <cc:Work rdf:about="">
    <dc:format>image/svg+xml</dc:format>
    <dc:type rdf:resource="http://purl.org/dc/dcmitype/StillImage"/>
    <dc:title>budgie-remix Wordmark</dc:title>
    <dc:creator>
     <cc:Agent>
      <dc:title>HEXcube</dc:title>
     </cc:Agent>
    </dc:creator>
    <cc:license rdf:resource="http://creativecommons.org/licenses/by-sa/4.0/"/>
    <dc:source>Ubuntu font and budgie-remix Logo</dc:source>
    <dc:description>Official wordmark for budgie-remix</dc:description>
   </cc:Work>
  </rdf:RDF>
 </metadata>
 <g fill="#404552">
  <path d="m34.72 27.11q0-2.31-0.93-3.66-0.9-1.35-2.88-1.35-0.9 0-1.71 0.27-0.78 0.27-1.26 0.6v9.03q0.39 0.09 0.99 0.18 0.63 0.06 1.5 0.06 2.01 0 3.15-1.35 1.14-1.38 1.14-3.78zm3.72 0.06q0 1.89-0.57 3.42-0.54 1.5-1.59 2.58-1.02 1.08-2.49 1.65t-3.33 0.57q-1.8 0-3.45-0.27-1.62-0.27-2.7-0.6v-22.2l3.63-0.6v8.13q0.63-0.33 1.53-0.6 0.93-0.27 2.04-0.27 1.65 0 2.94 0.6 1.32 0.57 2.19 1.65t1.32 2.61q0.48 1.5 0.48 3.33z"/>
  <path d="m55.051 34.52q-1.05 0.27-2.73 0.54-1.68 0.3-3.69 0.3-1.89 0-3.18-0.54-1.26-0.54-2.04-1.5-0.75-0.96-1.08-2.28-0.33-1.35-0.33-2.94v-8.79h3.63v8.22q0 2.52 0.72 3.6 0.75 1.08 2.58 1.08 0.66 0 1.38-0.06 0.75-0.06 1.11-0.15v-12.69h3.63v15.21z"/>
  <path d="m62.551 27.11q0 2.4 1.14 3.78 1.14 1.35 3.15 1.35 0.87 0 1.47-0.06 0.63-0.09 1.02-0.18v-9q-0.48-0.33-1.29-0.6-0.78-0.3-1.68-0.3-1.98 0-2.91 1.35-0.9 1.35-0.9 3.66zm10.41 7.41q-1.08 0.33-2.73 0.6-1.62 0.27-3.42 0.27-1.86 0-3.33-0.57t-2.52-1.62q-1.02-1.08-1.59-2.58-0.54-1.53-0.54-3.42 0-1.86 0.45-3.36 0.48-1.53 1.38-2.61t2.19-1.65q1.29-0.6 2.97-0.6 1.14 0 2.01 0.27t1.5 0.6v-7.53l3.63-0.6v22.8z"/>
  <path d="m80.422 26.75q0 2.31 0.99 3.39 1.02 1.05 2.61 1.05 0.87 0 1.62-0.24 0.78-0.24 1.26-0.57v-8.13q-0.39-0.09-0.96-0.15-0.57-0.09-1.44-0.09-1.98 0-3.03 1.32-1.05 1.29-1.05 3.42zm10.11 6.66q0 3.75-1.92 5.49-1.89 1.74-5.82 1.74-1.44 0-2.82-0.24-1.35-0.24-2.46-0.63l0.66-3.09q0.93 0.39 2.1 0.63 1.2 0.24 2.58 0.24 2.19 0 3.12-0.9t0.93-2.67v-0.6q-0.54 0.27-1.44 0.54-0.87 0.27-2.01 0.27-1.5 0-2.76-0.48-1.23-0.48-2.13-1.41-0.87-0.93-1.38-2.31-0.48-1.41-0.48-3.24 0-1.71 0.51-3.15 0.54-1.44 1.53-2.46 1.02-1.02 2.46-1.59t3.27-0.57q1.77 0 3.36 0.27t2.7 0.57v13.59z"/>
  <path d="m98.81 35h-3.63v-15.69h3.63v15.69zm0.39-20.28q0 1.02-0.66 1.62t-1.56 0.6q-0.93 0-1.59-0.6t-0.66-1.62q0-1.05 0.66-1.65t1.59-0.6q0.9 0 1.56 0.6t0.66 1.65z"/>
  <path d="m102.54 27.23q0-2.07 0.6-3.63 0.63-1.56 1.65-2.58 1.02-1.05 2.34-1.56 1.32-0.54 2.7-0.54 3.24 0 5.04 2.01 1.83 2.01 1.83 6 0 0.3-0.03 0.69 0 0.36-0.03 0.66h-10.35q0.15 1.89 1.32 2.94 1.2 1.02 3.45 1.02 1.32 0 2.4-0.24 1.11-0.24 1.74-0.51l0.48 2.97q-0.3 0.15-0.84 0.33-0.51 0.15-1.2 0.27-0.66 0.15-1.44 0.24t-1.59 0.09q-2.07 0-3.6-0.6-1.53-0.63-2.52-1.71-0.99-1.11-1.47-2.58-0.48-1.5-0.48-3.27zm10.53-1.62q0-0.75-0.21-1.41-0.21-0.69-0.63-1.17-0.39-0.51-0.99-0.78-0.57-0.3-1.38-0.3-0.84 0-1.47 0.33-0.63 0.3-1.08 0.81-0.42 0.51-0.66 1.17t-0.33 1.35h6.75z"/>
  <path d="m118.9 24.77h8.07v3.33h-8.07v-3.33z"/>
  <path d="m138.89 22.58q-0.45-0.15-1.26-0.3-0.78-0.18-1.83-0.18-0.6 0-1.29 0.12-0.66 0.12-0.93 0.21v12.57h-3.63v-14.94q1.05-0.39 2.61-0.72 1.59-0.36 3.51-0.36 0.36 0 0.84 0.06 0.48 0.03 0.96 0.12 0.48 0.06 0.93 0.18 0.45 0.09 0.72 0.18l-0.63 3.06z"/>
  <path d="m141.15 27.23q0-2.07 0.6-3.63 0.63-1.56 1.65-2.58 1.02-1.05 2.34-1.56 1.32-0.54 2.7-0.54 3.24 0 5.04 2.01 1.83 2.01 1.83 6 0 0.3-0.03 0.69 0 0.36-0.03 0.66h-10.35q0.15 1.89 1.32 2.94 1.2 1.02 3.45 1.02 1.32 0 2.4-0.24 1.11-0.24 1.74-0.51l0.48 2.97q-0.3 0.15-0.84 0.33-0.51 0.15-1.2 0.27-0.66 0.15-1.44 0.24t-1.59 0.09q-2.07 0-3.6-0.6-1.53-0.63-2.52-1.71-0.99-1.11-1.47-2.58-0.48-1.5-0.48-3.27zm10.53-1.62q0-0.75-0.21-1.41-0.21-0.69-0.63-1.17-0.39-0.51-0.99-0.78-0.57-0.3-1.38-0.3-0.84 0-1.47 0.33-0.63 0.3-1.08 0.81-0.42 0.51-0.66 1.17t-0.33 1.35h6.75z"/>
  <path d="m168.07 26.75q0-2.46-0.63-3.54-0.6-1.11-2.28-1.11-0.6 0-1.32 0.09t-1.08 0.15v12.66h-3.63v-15.18q1.05-0.3 2.73-0.57 1.71-0.27 3.6-0.27 1.62 0 2.64 0.42 1.05 0.42 1.74 1.11 0.33-0.24 0.84-0.51t1.14-0.48q0.63-0.24 1.32-0.39 0.72-0.15 1.44-0.15 1.83 0 3 0.54 1.2 0.51 1.86 1.47 0.69 0.93 0.93 2.28 0.27 1.32 0.27 2.91v8.82h-3.63v-8.25q0-2.46-0.6-3.54-0.6-1.11-2.31-1.11-0.87 0-1.65 0.3-0.78 0.27-1.17 0.54 0.24 0.75 0.33 1.59t0.09 1.8v8.67h-3.63v-8.25z"/>
  <path d="m188.75 35h-3.63v-15.69h3.63v15.69zm0.39-20.28q0 1.02-0.66 1.62t-1.56 0.6q-0.93 0-1.59-0.6t-0.66-1.62q0-1.05 0.66-1.65t1.59-0.6q0.9 0 1.56 0.6t0.66 1.65z"/>
  <path d="m198.99 24.44 3.33-5.13h3.81l-5.16 7.41q1.62 2.1 3.09 4.26 1.5 2.13 2.46 4.02h-3.93q-0.27-0.57-0.72-1.29-0.42-0.75-0.93-1.53-0.48-0.81-1.02-1.59t-1.05-1.47q-1.05 1.35-2.07 3-0.99 1.62-1.65 2.88h-3.72q0.45-0.9 1.08-1.92t1.35-2.07q0.72-1.08 1.47-2.13 0.78-1.08 1.53-2.04l-5.19-7.53h3.99l3.33 5.13z"/>
 </g>
 <path fill="#404552" d="m221 7a11 11 0 0 0 -11 11 11 11 0 0 0 11 11 11 11 0 0 0 11 -11 11 11 0 0 0 -11 -11zm3.0938 1.65c0.3025 0 0.5775 0.055 0.89375 0.095 1.32 0.2201 2.6675 1.1962 3.4925 2.6126 1.1 1.8974 0.8525 4.1936-0.4125 5.5-0.61875 0.6325-0.825 0.6875-1.2375 0.9625 0.275-0.4539 0.385-0.6325 0.37125-1.0039 0.055-0.22-0.0275-0.4124-0.0687-0.5224-0.1375-0.4126-0.44-0.5776-0.77-0.77-0.4125-0.2476-0.89375-0.3163-1.1962-0.3163-0.20625 0-0.33 0-0.6325 0.082-1.43 0.3574-2.9975-0.2062-3.74-1.5123-0.9075-1.5677-0.34375-3.575 1.265-4.4963 0.4675-0.275 1.0312-0.55 1.54-0.605 0.1375 0 0.275 0 0.4125-0.027h0.1375zm-8.4562 3.7124c0.275 0 0.55 0.028 0.825 0.095 0.88 0.22 1.0038 0.3573 1.4438 0.5775-0.5225-0.056-0.715-0.056-1.0312 0.1374-0.1925 0.1376-0.33 0.2751-0.4125 0.3575-0.275 0.3438-0.275 0.6876-0.275 1.0588 0 0.4674 0.17875 0.9212 0.31625 1.1688 0.1375 0.1924 0.17875 0.2749 0.4125 0.5499 1.0175 1.0313 1.3062 2.6537 0.55 3.9874-0.89375 1.54-2.9288 2.0626-4.5375 1.1276-0.4675-0.2749-0.9625-0.6187-1.2788-1.0313-0.34375-0.4674-0.48125-0.825-0.66-1.2786-0.4675-1.2375-0.3025-2.8876 0.50875-4.3177 0.89375-1.5948 2.5438-2.5161 4.125-2.4749zm9.1438 7.5213c1.7875 0 3.2588 1.5126 3.2588 3.355 0 0.55-0.0412 1.1963-0.2475 1.65-0.23375 0.55-0.4675 0.825-0.78375 1.2376-0.825 1.0313-2.365 1.705-3.9875 1.705-2.2 0-4.07-1.375-4.5375-3.08-0.275-0.8937-0.20625-1.0726-0.23375-1.5676 0.2475 0.4676 0.34375 0.6326 0.66 0.825 0.20625 0.095 0.4125 0.1376 0.5225 0.1376 0.4125 0.069 0.715-0.083 1.045-0.275 0.4125-0.2337 0.715-0.605 0.86625-0.8663 0.11-0.1924 0.165-0.275 0.275-0.5913 0.385-1.4437 1.65-2.5024 3.1625-2.5024z"/>
</svg>
