<?xml version="1.0" encoding="UTF-8" standalone="no"?>
<svg xmlns:rdf="http://www.w3.org/1999/02/22-rdf-syntax-ns#" xmlns="http://www.w3.org/2000/svg" height="16" width="16" version="1.1" xmlns:cc="http://creativecommons.org/ns#" xmlns:dc="http://purl.org/dc/elements/1.1/" viewBox="0 0 16 16">
 <title>budgie-remix Symbolic Icon</title>
 <metadata>
  <rdf:RDF>
   <cc:Work>
    <dc:format>image/svg+xml</dc:format>
    <dc:type rdf:resource="http://purl.org/dc/dcmitype/StillImage"/>
    <dc:title>budgie-remix Symbolic Icon</dc:title>
    <dc:creator>
     <cc:Agent>
      <dc:title>HEXcube and Joshua &quot;Foggalong&quot; Fogg</dc:title>
     </cc:Agent>
    </dc:creator>
    <cc:license rdf:resource="http://creativecommons.org/licenses/by-sa/4.0/"/>
    <dc:source>Budgie Logo by Yuri Henrique</dc:source>
   </cc:Work>
  </rdf:RDF>
 </metadata>
 <path fill="#bebebe" d="m8 0a8 8 0 0 0 -8 8 8 8 0 0 0 8 8 8 8 0 0 0 8 -8 8 8 0 0 0 -8 -8zm2.25 1.2c0.22 0 0.42 0.04 0.65 0.07 0.96 0.16 1.94 0.87 2.54 1.9 0.8 1.38 0.62 3.05-0.3 4-0.45 0.46-0.6 0.5-0.9 0.7 0.2-0.33 0.28-0.46 0.27-0.73 0.04-0.16-0.02-0.3-0.05-0.38-0.1-0.3-0.32-0.42-0.56-0.56-0.3-0.18-0.65-0.23-0.87-0.23-0.15 0-0.24 0-0.46 0.06-1.04 0.26-2.18-0.15-2.72-1.1-0.66-1.14-0.25-2.6 0.92-3.27 0.34-0.2 0.75-0.4 1.12-0.44 0.1 0 0.2 0 0.3-0.02h0.1zm-6.15 2.7c0.2 0 0.4 0.02 0.6 0.07 0.64 0.16 0.73 0.26 1.05 0.42-0.38-0.04-0.52-0.04-0.75 0.1-0.14 0.1-0.24 0.2-0.3 0.26-0.2 0.25-0.2 0.5-0.2 0.77 0 0.34 0.13 0.67 0.23 0.85 0.1 0.14 0.13 0.2 0.3 0.4 0.74 0.75 0.95 1.93 0.4 2.9-0.65 1.12-2.13 1.5-3.3 0.82-0.34-0.2-0.7-0.45-0.93-0.75-0.25-0.34-0.35-0.6-0.48-0.93-0.34-0.9-0.22-2.1 0.37-3.14 0.65-1.16 1.85-1.83 3-1.8zm6.65 5.47c1.3 0 2.37 1.1 2.37 2.44 0 0.4-0.03 0.87-0.18 1.2-0.17 0.4-0.34 0.6-0.57 0.9-0.6 0.75-1.72 1.24-2.9 1.24-1.6 0-2.96-1-3.3-2.24-0.2-0.65-0.15-0.78-0.17-1.14 0.18 0.34 0.25 0.46 0.48 0.6 0.15 0.07 0.3 0.1 0.38 0.1 0.3 0.05 0.52-0.06 0.76-0.2 0.3-0.17 0.52-0.44 0.63-0.63 0.08-0.14 0.12-0.2 0.2-0.43 0.28-1.05 1.2-1.82 2.3-1.82z"/>
</svg>
