<?xml version="1.0" encoding="UTF-8" standalone="no"?>
<svg
   xmlns:dc="http://purl.org/dc/elements/1.1/"
   xmlns:cc="http://creativecommons.org/ns#"
   xmlns:rdf="http://www.w3.org/1999/02/22-rdf-syntax-ns#"
   xmlns:svg="http://www.w3.org/2000/svg"
   xmlns="http://www.w3.org/2000/svg"
   xmlns:sodipodi="http://sodipodi.sourceforge.net/DTD/sodipodi-0.dtd"
   xmlns:inkscape="http://www.inkscape.org/namespaces/inkscape"
   height="22"
   width="22"
   version="1.1"
   viewBox="0 0 22 22"
   id="svg2"
   inkscape:version="0.91 r13725"
   sodipodi:docname="menu.svg">
  <defs
     id="defs12" />
  <sodipodi:namedview
     pagecolor="#ffffff"
     bordercolor="#666666"
     borderopacity="1"
     objecttolerance="10"
     gridtolerance="10"
     guidetolerance="10"
     inkscape:pageopacity="0"
     inkscape:pageshadow="2"
     inkscape:window-width="1126"
     inkscape:window-height="641"
     id="namedview10"
     showgrid="false"
     fit-margin-top="0"
     fit-margin-left="0"
     fit-margin-right="0"
     fit-margin-bottom="0"
     inkscape:zoom="2.6074563"
     inkscape:cx="-60.697228"
     inkscape:cy="25.637156"
     inkscape:window-x="0"
     inkscape:window-y="24"
     inkscape:window-maximized="0"
     inkscape:current-layer="svg2" />
  <title
     id="title4">budgie-remix Logo</title>
  <metadata
     id="metadata6">
    <rdf:RDF>
      <cc:Work
         rdf:about="">
        <dc:format>image/svg+xml</dc:format>
        <dc:type
           rdf:resource="http://purl.org/dc/dcmitype/StillImage" />
        <dc:title>budgie-remix Logo</dc:title>
        <dc:creator>
          <cc:Agent>
            <dc:title>HEXcube and Joshua &quot;Foggalong&quot; Fogg</dc:title>
          </cc:Agent>
        </dc:creator>
        <cc:license
           rdf:resource="http://creativecommons.org/licenses/by-sa/4.0/" />
        <dc:source>Budgie Logo by Yuri Henrique</dc:source>
      </cc:Work>
    </rdf:RDF>
  </metadata>
  <path
     d="M 11,0 A 11,11 0 0 0 0,11 11,11 0 0 0 11,22 11,11 0 0 0 22,11 11,11 0 0 0 11,0 Z m 3.090313,1.6546383 c 0.309374,0.00367 0.580937,0.04455 0.898906,0.096855 1.324296,0.2179375 2.670077,1.1877434 3.485625,2.6010692 1.10086,1.9066942 0.854219,4.2050895 -0.402188,5.4915755 -0.630781,0.64625 -0.818984,0.681487 -1.231485,0.959063 0.281017,-0.442576 0.367813,-0.613589 0.366954,-0.980549 0,-0.230313 -0.07305,-0.418514 -0.114297,-0.525076 C 16.933984,8.891089 16.65039,8.720938 16.318671,8.524569 15.911328,8.283339 15.44039,8.209263 15.144765,8.209868 c -0.229453,5.14e-4 -0.348046,9.17e-4 -0.649686,0.07764 -1.43172,0.361286 -2.994064,-0.201007 -3.748595,-1.5075958 l 8.6e-4,1.741e-4 C 9.845,5.2180883 10.412188,3.20199 12.01664,2.2761842 12.489296,2.0035033 13.043594,1.7419967 13.560079,1.68322 13.701875,1.667087 13.83164,1.658378 13.954531,1.655537 c 0.04641,-9.167e-4 0.0911,-0.00183 0.135782,-8.617e-4 z M 5.623664,5.3437633 C 5.9088047,5.34743 6.1900781,5.38318 6.4622421,5.452645 7.3374297,5.6760825 7.4623829,5.8219242 7.9094297,6.0399442 7.385211,6.0181275 7.1934844,6.0286692 6.8760312,6.2125067 6.6768281,6.3279242 6.5499844,6.4847567 6.4790859,6.5737008 6.2064922,6.9155625 6.2009921,7.2465067 6.1966953,7.6316808 6.1914553,8.10502 6.3627266,8.549576 6.5113125,8.805152 c 0.1151562,0.199375 0.1748828,0.300786 0.3920469,0.524223 1.0287578,1.05875 1.322836,2.693277 0.5684765,4.000388 l 0,-8.61e-4 C 6.5700937,14.89125 4.5405078,15.407737 2.9364844,14.481326 2.464,14.208911 1.9604921,13.859138 1.6514609,13.441487 1.31175,12.982576 1.1694375,12.629375 0.9961875,12.169612 0.52246563,10.913201 0.68973437,9.263201 1.5057109,7.8502142 2.4346094,6.2414642 4.0843515,5.324 5.623664,5.3437633 Z m 9.1575,7.5468617 c 1.802969,0 3.265625,1.499612 3.265625,3.351562 -8.59e-4,0.545701 -0.05156,1.156715 -0.258672,1.632813 -0.227734,0.524214 -0.462343,0.823277 -0.773437,1.203125 -0.850781,1.038987 -2.363281,1.71875 -3.995235,1.71875 -2.201719,0 -4.0691403,-1.362112 -4.5550309,-3.09375 -0.2440625,-0.869688 -0.180125,-1.050161 -0.2148437,-1.546875 0.2432031,0.464924 0.3483906,0.625625 0.6663593,0.808674 0.199375,0.115152 0.3987502,0.146089 0.5113279,0.163277 0.4322661,0.06536 0.7210164,-0.09539 1.0570314,-0.284451 0.4125,-0.232036 0.711562,-0.602424 0.859375,-0.859375 0.114297,-0.199375 0.172735,-0.301638 0.257812,-0.601563 0.402188,-1.420549 1.670625,-2.492187 3.179688,-2.492187 z"
     id="path8"
     inkscape:connector-curvature="0"
     style="fill:#ffffff" />
</svg>

