<?xml version="1.0" encoding="UTF-8" standalone="no"?>
<svg viewBox="0 0 1000 152" height="43" width="245" version="1.1" xmlns:rdf="http://www.w3.org/1999/02/22-rdf-syntax-ns#" xmlns="http://www.w3.org/2000/svg" xmlns:cc="http://creativecommons.org/ns#" xmlns:dc="http://purl.org/dc/elements/1.1/" xmlns:xlink="http://www.w3.org/1999/xlink">
 <title>Ubuntu Budgie wordmark</title>
 <metadata>
  <rdf:RDF>
   <cc:Work rdf:about="">
    <dc:format>image/svg+xml</dc:format>
    <dc:type rdf:resource="http://purl.org/dc/dcmitype/StillImage"/>
    <dc:title>Ubuntu Budgie wordmark</dc:title>
    <dc:creator>
     <cc:Agent>
      <dc:title>HEXcube</dc:title>
     </cc:Agent>
    </dc:creator>
    <cc:license rdf:resource="http://creativecommons.org/licenses/by-sa/4.0/"/>
    <dc:source>Ubuntu and Clear Sans fonts and Ubuntu Budgie logo</dc:source>
    <dc:description>Official wordmark for Ubuntu Budgie</dc:description>
   </cc:Work>
  </rdf:RDF>
 </metadata>
 <path d="m61.13 121.82q-4.64 1.16-12.325 2.465-7.54 1.305-17.545 1.305-8.7 0-14.645-2.465-5.945-2.61-9.57-7.25t-5.22-10.88q-1.595-6.375-1.595-14.06v-42.34h13.485v39.44q0 13.775 4.35 19.72t14.645 5.945q2.175 0 4.495-0.145t4.35-0.29q2.03-0.29 3.625-0.435 1.74-0.29 2.465-0.58v-63.655h13.485v73.225z"/>
 <path d="m97.847 51.935q2.465-1.595 7.395-3.335 5.075-1.74 11.6-1.74 8.12 0 14.355 2.9 6.38 2.9 10.73 8.12t6.525 12.47q2.32 7.25 2.32 15.95 0 9.135-2.755 16.53-2.61 7.25-7.54 12.325t-11.89 7.83-15.66 2.755q-9.425 0-16.675-1.305t-11.89-2.61v-108.02l13.485-2.32v40.455zm0 60.32q2.03 0.58 5.655 1.16 3.77 0.435 9.28 0.435 10.875 0 17.4-7.105 6.525-7.25 6.525-20.445 0-5.8-1.16-10.875t-3.77-8.7q-2.61-3.77-6.815-5.8-4.06-2.175-9.86-2.175-5.51 0-10.15 1.885t-7.105 3.915v47.705z"/>
 <path d="m229.92 121.82q-4.64 1.16-12.325 2.465-7.54 1.305-17.545 1.305-8.7 0-14.645-2.465-5.945-2.61-9.57-7.25t-5.22-10.875q-1.595-6.38-1.595-14.065v-42.34h13.485v39.44q0 13.775 4.35 19.72t14.645 5.945q2.175 0 4.495-0.145t4.35-0.29q2.03-0.29 3.625-0.435 1.74-0.29 2.465-0.58v-63.655h13.485v73.225z"/>
 <path d="m253.15 50.775q4.64-1.16 12.325-2.465t17.69-1.305q8.99 0 14.935 2.61 5.945 2.465 9.425 7.105 3.625 4.495 5.075 10.875t1.45 14.065v42.34h-13.485v-39.44q0-6.96-1.015-11.89-0.87-4.93-3.045-7.975t-5.8-4.35q-3.625-1.45-8.99-1.45-2.175 0-4.495 0.145t-4.495 0.435q-2.03 0.145-3.77 0.435-1.595 0.29-2.32 0.435v63.655h-13.485v-73.225z"/>
 <path d="m349.03 48.6h28.565v11.31h-28.565v34.8q0 5.655 0.87 9.425 0.87 3.625 2.61 5.8 1.74 2.03 4.35 2.9t6.09 0.87q6.09 0 9.715-1.305 3.77-1.45 5.22-2.03l2.61 11.165q-2.03 1.015-7.105 2.465-5.075 1.595-11.6 1.595-7.685 0-12.76-1.885-4.93-2.03-7.975-5.945t-4.35-9.57q-1.16-5.8-1.16-13.34v-67.28l13.485-2.32v23.345z"/>
 <path d="m454.78 121.82q-4.64 1.16-12.325 2.465-7.54 1.305-17.545 1.305-8.7 0-14.645-2.465-5.945-2.61-9.57-7.25t-5.22-10.875q-1.595-6.38-1.595-14.065v-42.34h13.485v39.44q0 13.775 4.35 19.72t14.645 5.945q2.175 0 4.495-0.145t4.35-0.29q2.03-0.29 3.625-0.435 1.74-0.29 2.465-0.58v-63.655h13.485v73.225z"/>
 <g fill="#404552">
  <path d="m558.22 95.85q0 14.769-9.4297 21.494-9.43 6.66-26.9 6.66h-31.271v-95.961h28.428q17.611 0 25.377 5.0615 7.835 4.9922 7.835 16.779 0 9.6377-4.2988 14.699-4.2295 5.0615-10.608 7.0029 9.499 1.3174 15.185 7.0029 5.6856 5.6855 5.6856 17.265zm-19.14-43.127q0-7.3496-4.5762-10.331-4.5762-3.0508-16.294-3.0508h-14.769v28.566h14.145q11.51 0 16.502-3.6748 4.9922-3.6748 4.9922-11.51zm5.8242 42.572q0-5.9629-2.3574-9.3604-2.2881-3.4668-7.1416-5.0615t-15.67-1.5947h-16.294v33.073h13.035q12.203 0 17.681-1.5947 5.4775-1.6641 8.1123-5.3389 2.6348-3.7441 2.6348-10.123z"/>
  <path d="m623.12 124v-10.816q-5.5469 5.5469-12.203 9.291-6.6562 3.6748-13.035 3.6748-7.2803 0-11.856-2.7041-4.5068-2.7734-6.5869-8.251-2.0108-5.5469-2.0108-15.323v-48.604h11.926v42.919q0 10.4 1.04 13.867 1.1094 3.4668 3.4668 5.0615 2.3574 1.5254 6.8643 1.5254 4.5068 0 10.608-3.4668 6.1016-3.5361 11.787-8.459v-51.447h11.926v72.733h-11.926z"/>
  <path d="m704.52 124v-7.2109q-4.0908 3.9522-9.8457 6.6562-5.7549 2.7041-12.272 2.7041-13.104 0-20.246-9.8457-7.1416-9.915-7.1416-28.081 0-17.819 7.7656-28.428 7.7656-10.608 21.494-10.608 11.024 0 20.246 8.043v-36.471h11.995v103.24h-11.995zm0-56.37q-9.499-7.835-18.721-7.835-8.1123 0-13.312 6.8643-5.1308 6.7949-5.1308 21.286 0 27.526 17.334 27.526 5.6856 0 10.816-2.8428 5.2002-2.8428 9.0137-6.5176v-38.481z"/>
  <path d="m798.05 122.41q0 14.63-7.2803 21.771-7.2109 7.2109-23.99 7.2109-16.017 0-26.417-6.7949l4.4375-9.6377q9.3604 6.5176 21.979 6.5176 10.192 0 14.699-4.2988 4.5762-4.2295 4.5762-14.006v-8.5283q-4.0908 3.9522-9.7764 6.6562-5.67 2.7-12.33 2.7-13.382 0-20.385-9.499-7.0029-9.5684-7.0029-27.596 0-17.75 7.835-27.734 7.835-9.9844 21.425-9.9844 11.024 0 20.246 8.043v-5.9629h11.995v71.139zm-11.99-54.78q-9.499-7.835-18.721-7.835-9.083 0-13.798 7.0723-4.6455 7.0723-4.6455 19.761 0 14.006 4.3682 20.385 4.3682 6.3096 12.966 6.3096 9.9844 0 19.83-9.3604v-36.332z"/>
  <path d="m835.57 32.823q0 4.1602-1.8721 5.6855-1.8721 1.4561-5.9629 1.4561-4.3682 0-6.0322-1.8721-1.6641-1.8721-1.6641-5.2695 0-3.6748 1.8027-5.3389 1.8027-1.7334 5.8936-1.7334 4.2295 0 6.0322 1.6641 1.8027 1.5947 1.8027 5.4082zm-13.8 91.177v-72.733h11.926v72.733h-11.926z"/>
  <path d="m865.93 89.055q0 14.422 4.9228 20.593 4.9228 6.1016 15.809 6.1016 4.8535 0 8.5283-2.0107 3.6748-2.0801 7.0723-6.6562l9.8457 6.1016q-4.1602 6.2402-10.123 9.6377-5.9629 3.3281-16.155 3.3281-16.225 0-24.268-9.4297-7.9736-9.4297-7.9736-28.497 0-19.969 7.7656-29.468 7.835-9.5684 23.574-9.5684 14.145 0 21.217 8.1816 7.0723 8.1123 7.0723 25.03v6.6562h-47.287zm35.639-9.3604q-0.13867-9.7764-4.1602-15.185-3.9522-5.4082-12.896-5.4082-8.5283 0-12.827 4.9229-4.2295 4.8535-5.6162 15.67h35.5z"/>
 </g>
 <circle fill="#404552" cy="32" cx="968" r="32"/>
 <path id="budgie-shape" fill="#fff" d="m979 37.508c-4.39 0-8.08 3.118-9.25 7.25-0.247 0.872-0.417 1.17-0.75 1.75-0.43 0.747-1.3 1.825-2.5 2.5-0.977 0.55-1.818 1.017-3.076 0.827-0.327-0.05-0.907-0.14-1.488-0.474-0.925-0.53-1.23-1-1.937-2.35 0.1 1.444-0.088 1.97 0.622 4.5 1.413 5.036 6.845 9 13.25 9 4.748 0 9.148-1.98 11.624-5 0.905-1.104 1.587-1.975 2.25-3.5 0.603-1.385 0.75-3.162 0.75-4.75 0.002-5.39-4.252-9.75-9.5-9.75z"/>
 <use xlink:href="#budgie-shape" transform="rotate(120 968 32)" width="100%" height="100%"/>
 <use xlink:href="#budgie-shape" transform="rotate(240 968 32)" width="100%" height="100%"/>
</svg>
