<svg width="84.000000pt" height="199.000000pt" viewBox="0 0 84.000000 199.000000" xmlns="http://www.w3.org/2000/svg">
  <g transform="translate(0.000000,199.000000) scale(0.100000,-0.100000)" fill="#fefefe" stroke="none">
    <path d="M0 995 l0 -995 183 0 182 0 35 10 35 10 3 -10 4 -10 199 0 199 0 0
995 0 995 -420 0 -420 0 0 -995z m390 811 c0 -3 -5 -8 -12 -12 l-11 -7 7 11
c7 12 16 16 16 8z m-4 -61 c19 -18 31 -49 39 -95 4 -25 12 -50 17 -57 l10 -12
-15 -16 c-9 -8 -20 -15 -26 -15 -6 0 -11 -7 -11 -15 0 -18 26 -20 33 -2 l5 12
1 -19 1 -18 23 6 c12 3 30 6 41 6 l18 0 -6 25 -6 25 15 0 c8 0 15 7 15 15 0 8
6 15 14 15 8 0 30 19 50 43 l36 42 0 -17 c0 -26 25 -22 37 5 l11 24 34 -5 c18
-3 27 -7 21 -9 -7 -3 -13 -11 -13 -19 l0 -14 -30 0 -30 0 0 -15 c0 -8 8 -15
18 -16 9 0 -5 -8 -32 -18 -26 -9 -65 -31 -85 -47 -20 -17 -51 -39 -70 -48
l-33 -18 5 -27 6 -28 -52 -9 -52 -9 -10 -38 c-6 -21 -17 -42 -24 -46 -7 -5
-15 -27 -18 -50 l-6 -41 12 0 c6 0 15 -10 20 -22 l9 -23 -32 -17 c-17 -9 -48
-17 -68 -18 l-38 0 0 -15 0 -15 45 0 46 0 37 19 c20 10 43 16 50 14 6 -3 12
-16 12 -29 l0 -24 19 0 19 0 4 -40 c2 -22 0 -40 -5 -40 -5 0 -7 -11 -4 -25 l4
-26 -18 -10 c-20 -10 -26 -39 -9 -39 5 0 21 5 36 12 l26 12 19 -23 19 -23 0
-47 0 -46 -34 -22 -34 -22 -6 30 c-3 16 -11 29 -18 29 -7 -1 -24 -10 -37 -21
l-24 -20 6 -94 6 -95 30 -69 30 -70 6 -83 7 -83 23 -41 22 -42 -15 -38 c-8
-22 -16 -55 -19 -75 l-5 -35 -29 -11 -29 -11 0 14 c0 8 6 14 14 14 13 0 26 20
26 41 0 5 -13 9 -30 9 -16 0 -30 3 -31 8 -1 4 -2 47 -4 97 -1 50 -9 119 -18
155 -23 91 -67 322 -67 348 l0 22 -25 0 -25 0 6 28 c4 15 11 37 15 50 13 34
11 52 -6 52 l-15 0 1 18 1 17 5 -12 c2 -7 12 -13 20 -13 l15 0 -6 23 c-3 12
-6 34 -6 50 l0 27 -21 0 -21 0 6 -25 6 -25 -10 0 c-5 0 -10 15 -10 33 l0 33
28 -1 c15 0 29 -3 32 -6 3 -4 35 -10 73 -13 l67 -8 0 16 c0 9 -7 16 -15 16
l-15 0 0 21 0 21 -25 -6 -25 -6 0 15 c0 8 -4 15 -10 15 -5 0 -10 7 -10 16 l0
16 -32 -5 c-18 -2 -48 -9 -65 -15 l-33 -11 0 30 c0 16 5 29 10 29 6 0 10 7 10
15 0 8 -7 15 -16 15 l-16 0 6 16 c3 9 6 20 6 24 0 5 24 10 52 12 l53 3 3 16 3
17 -28 7 -27 7 -4 -11 c-2 -6 -13 -11 -24 -11 l-20 0 -5 20 c-3 10 -14 22 -24
25 l-19 6 0 25 0 24 25 -6 25 -6 0 21 c0 12 -4 21 -9 21 -16 0 -17 42 -3 98
l13 53 -21 17 -20 17 -2 46 -1 47 27 46 27 46 29 15 30 15 25 -6 25 -6 0 11 0
11 28 -13 c15 -6 32 -16 38 -22z m-301 -362 c9 -81 13 -91 36 -95 l20 -3 -17
-23 -16 -23 -15 21 -15 22 -19 -5 -19 -5 -10 19 -11 19 16 0 c16 0 21 26 6 32
-5 2 -12 15 -16 30 l-7 26 21 7 c12 3 21 13 21 21 0 8 4 14 9 14 5 0 13 -26
16 -57z m-68 -60 c-4 -3 -7 0 -7 7 0 7 3 10 7 7 3 -4 3 -10 0 -14z m252 -278
l-15 -16 -19 7 -19 7 20 8 c10 4 26 8 34 8 l14 1 -15 -15z" />
    <path d="M200 1647 l0 -16 23 -3 22 -3 3 -22 c4 -27 29 -31 35 -5 l5 17 1 -17
c0 -10 8 -18 16 -18 l15 0 0 29 0 29 -30 6 c-16 3 -43 9 -60 12 l-30 6 0 -15z" />
    <path d="M200 1573 l0 -26 32 -29 c17 -15 38 -28 45 -28 16 0 17 22 1 38 l-12
12 12 0 c7 0 12 7 12 15 0 8 -7 15 -15 15 -8 0 -15 -5 -15 -11 0 -5 -4 -7 -10
-4 -5 3 -10 15 -10 26 l0 19 -20 0 -20 0 0 -27z" />
    <path d="M322 1548 c-16 -16 -15 -38 1 -38 17 0 37 20 37 37 0 16 -22 17 -38
1z" />
    <path d="M367 1482 c-20 -22 -22 -42 -4 -42 16 0 47 32 47 48 0 18 -25 14 -43
-6z" />
    <path d="M267 1473 c-14 -13 -6 -33 13 -33 l20 0 0 20 0 20 -13 0 c-8 0 -17
-3 -20 -7z" />
    <path d="M303 1403 l-13 -5 0 -34 0 -34 14 0 c12 0 36 47 36 71 0 10 -17 11
-37 2z" />
    <path d="M335 1130 c-8 -13 3 -50 15 -50 17 0 40 12 40 22 0 12 -26 38 -39 38
-5 0 -13 -5 -16 -10z" />
    <path d="M400 905 c0 -8 7 -15 15 -15 8 0 15 7 15 15 0 8 -7 15 -15 15 -8 0
-15 -7 -15 -15z" />
  </g>
  <g transform="translate(0.000000,199.000000) scale(0.100000,-0.100000)" fill="#fcf9ee" stroke="none">
    <path d="M355 1980 c-3 -5 -2 -10 4 -10 5 0 13 5 16 10 3 6 2 10 -4 10 -5 0
-13 -4 -16 -10z" />
    <path d="M375 1959 c-4 -6 -5 -12 -2 -15 2 -3 7 2 10 11 7 17 1 20 -8 4z" />
    <path d="M267 1923 c-4 -3 -7 -13 -7 -22 l1 -16 10 18 c11 19 8 33 -4 20z" />
    <path d="M290 1891 c-5 -11 -10 -25 -10 -32 l0 -12 20 18 c21 19 27 45 10 45
-5 0 -14 -9 -20 -19z" />
    <path d="M335 1890 c-4 -12 -5 -24 -2 -27 3 -2 8 5 12 17 4 12 5 24 2 27 -3 2
-8 -5 -12 -17z" />
    <path d="M520 1899 c0 -5 5 -7 10 -4 6 3 10 8 10 11 0 2 -4 4 -10 4 -5 0 -10
-5 -10 -11z" />
    <path d="M475 1890 c-3 -5 -2 -10 4 -10 5 0 13 5 16 10 3 6 2 10 -4 10 -5 0
-13 -4 -16 -10z" />
    <path d="M370 1880 c0 -3 -4 -19 -9 -37 l-9 -32 12 -17 13 -17 13 8 12 8 -13
8 -14 9 17 0 17 0 -6 15 -5 16 -21 -18 -20 -18 16 25 16 25 -9 15 c-5 8 -10
13 -10 10z" />
    <path d="M436 1872 c2 -2 -1 -13 -7 -23 l-10 -19 15 0 c22 0 30 20 14 35 -8 7
-13 10 -12 7z" />
    <path d="M294 1835 l-6 -25 12 -15 c16 -19 37 -19 37 -1 l0 14 -15 -6 -15 -5
6 31 7 32 -10 0 c-5 0 -12 -11 -16 -25z" />
    <path d="M506 1843 l-7 -18 12 12 c7 7 10 15 7 18 -3 3 -9 -2 -12 -12z" />
    <path d="M260 1801 c0 -5 5 -13 10 -16 6 -3 10 -2 10 4 0 5 -4 13 -10 16 -5 3
-10 2 -10 -4z" />
    <path d="M464 1795 c-10 -8 -14 -14 -9 -15 15 0 40 18 34 24 -3 3 -14 -1 -25
-9z" />
    <path d="M676 1754 c-8 -21 -8 -21 9 -21 l15 0 0 19 c0 22 -16 24 -24 2z" />
    <path d="M776 1751 c-19 -7 -33 -45 -14 -39 5 2 9 8 8 13 -1 6 9 12 22 15 12
3 18 8 13 12 -6 3 -19 2 -29 -1z" />
    <path d="M390 1740 c0 -5 5 -10 10 -10 6 0 10 5 10 10 0 6 -4 10 -10 10 -5 0
-10 -4 -10 -10z" />
    <path d="M176 1711 c-4 -7 -5 -15 -2 -18 9 -9 19 4 14 18 l-4 13 -8 -13z" />
    <path d="M672 1710 c2 -18 -3 -30 -10 -26 -4 2 -7 -7 -6 -22 2 -41 3 -42 20
-42 l15 0 -6 10 c-3 6 -1 10 4 10 6 0 11 9 11 19 0 11 5 23 10 26 l10 6 0 -25
0 -26 16 0 16 0 -6 15 -5 15 11 -3 c5 -1 12 6 13 15 l3 16 -27 11 c-26 11 -70
12 -69 1z m55 -7 c-4 -3 -10 -3 -14 0 -3 4 0 7 7 7 7 0 10 -3 7 -7z" />
    <path d="M783 1687 l0 -14 24 5 c13 2 23 8 23 13 0 5 -10 9 -23 9 l-24 0 0
-13z" />
    <path d="M606 1671 c-4 -7 -5 -15 -2 -18 9 -9 19 4 14 18 l-4 13 -8 -13z" />
    <path d="M420 1656 c0 -9 5 -16 10 -16 6 0 10 4 10 9 0 6 -4 13 -10 16 l-10 6
0 -15z" />
    <path d="M233 1640 l-2 -20 15 0 15 0 -7 12 -7 11 11 -7 c7 -4 12 -16 12 -26
l0 -19 -15 5 -15 6 -6 -17 -7 -16 -13 5 -14 5 0 -14 0 -14 17 6 16 6 -8 -14
-8 -14 8 8 c5 4 17 0 27 -10 l18 -16 0 11 c0 7 7 12 15 12 8 0 15 -7 15 -15 0
-8 7 -15 16 -15 8 0 13 4 9 9 -3 5 2 17 11 26 l17 16 -18 34 -18 33 -15 -6
-15 -5 8 12 8 13 -14 9 c-8 5 -23 9 -34 9 l-21 0 -1 -20z" />
    <path d="M142 1618 c6 -18 28 -21 28 -4 0 9 -7 16 -16 16 -9 0 -14 -5 -12 -12z" />
    <path d="M710 1620 c0 -5 4 -10 9 -10 6 0 13 5 16 10 l6 10 -15 0 c-9 0 -16
-4 -16 -10z" />
    <path d="M525 1600 l-6 -10 15 0 c9 0 16 5 16 10 0 6 -4 10 -9 10 -6 0 -13 -4
-16 -10z" />
    <path d="M660 1600 c0 -5 4 -10 9 -10 6 0 13 5 16 10 l6 10 -15 0 c-9 0 -16
-4 -16 -10z" />
    <path d="M780 1600 c0 -5 5 -10 11 -10 5 0 7 5 4 10 -3 6 -8 10 -11 10 -2 0
-4 -4 -4 -10z" />
    <path d="M590 1570 c0 -5 4 -10 9 -10 6 0 13 5 16 10 l6 10 -15 0 c-9 0 -16
-4 -16 -10z" />
    <path d="M465 1561 c3 -5 1 -12 -5 -16 -6 -4 -7 -11 -4 -17 l7 -11 -12 8 -13
7 -23 -12 -22 -12 0 -25 0 -25 40 6 c23 4 48 13 57 20 8 6 27 17 43 24 15 6
27 16 27 22 l0 11 -29 -4 -30 -5 6 16 6 17 -24 -20 c-13 -11 -18 -13 -11 -5
16 19 15 30 -4 30 -8 0 -13 -4 -9 -9z" />
    <path d="M165 1530 c3 -5 10 -10 16 -10 5 0 9 5 9 10 0 6 -7 10 -16 10 l-15 0
6 -10z" />
    <path d="M287 1464 l6 -16 -21 7 -22 6 0 -15 c0 -20 27 -21 46 -2 18 19 18 36
-1 36 l-14 0 6 -16z" />
    <path d="M50 1440 c0 -5 9 -10 20 -10 11 0 20 5 20 10 0 6 -9 10 -20 10 -11 0
-20 -4 -20 -10z" />
    <path d="M166 1431 c-4 -7 -5 -15 -2 -18 9 -9 19 4 14 18 l-4 13 -8 -13z" />
    <path d="M480 1430 c0 -5 5 -10 10 -10 6 0 10 5 10 10 0 6 -4 10 -10 10 -5 0
-10 -4 -10 -10z" />
    <path d="M7 1423 c-10 -9 -9 -23 2 -23 5 0 11 7 15 15 5 15 -5 20 -17 8z" />
    <path d="M27 1389 c-10 -11 -16 -23 -13 -26 3 -3 1 -14 -5 -25 -5 -10 -7 -23
-3 -29 l7 -12 9 16 c5 9 15 14 22 11 l13 -5 7 23 c3 13 6 33 6 46 l0 22 -13 0
c-7 0 -21 -9 -30 -21z" />
    <path d="M317 1383 c3 -7 9 -13 14 -13 5 0 9 6 9 13 0 8 -6 14 -14 14 l-14 0
5 -14z" />
    <path d="M350 1385 c0 -8 7 -15 15 -15 8 0 15 7 15 15 0 8 -7 15 -15 15 -8 0
-15 -7 -15 -15z" />
    <path d="M132 1363 c-5 -10 -7 -24 -4 -32 l5 -14 -10 6 -10 7 3 -42 c2 -22 6
-43 8 -45 2 -3 10 5 16 17 l12 22 -11 11 c-13 13 -15 28 -3 26 4 -1 17 2 29 6
l22 7 -12 19 -11 18 -20 -17 -21 -17 14 18 c8 9 11 20 8 23 -3 3 -10 -3 -15
-13z" />
    <path d="M350 1329 l0 -20 -10 6 -10 6 0 -15 c0 -9 7 -16 15 -16 8 0 15 6 15
14 0 8 3 21 6 30 l6 16 -11 0 c-6 0 -11 -9 -11 -21z" />
    <path d="M22 1279 c2 -7 10 -15 17 -17 l14 -4 -5 13 c-2 7 -10 15 -17 17 l-13
5 4 -14z" />
    <path d="M285 1260 c-3 -5 -4 -14 0 -19 10 -16 -15 -23 -32 -9 l-17 13 8 -14
9 -14 -37 5 -36 4 0 -19 c0 -10 -3 -16 -7 -14 -5 3 -8 -6 -8 -19 l0 -24 18 0
c10 0 16 -4 13 -9 -7 -11 41 -24 55 -16 5 4 6 11 3 17 l-7 11 36 -5 c20 -2 34
-1 31 3 -6 10 26 20 38 12 l11 -6 -8 13 -8 13 14 -5 15 -6 -1 22 c0 20 -35 81
-35 61 0 -5 -5 -4 -12 3 -15 15 -35 16 -43 2z" />
    <path d="M160 1248 l0 -13 25 -1 c28 -2 34 11 9 20 -24 9 -34 7 -34 -6z" />
    <path d="M263 1233 c4 -3 10 -3 14 0 3 4 0 7 -7 7 -7 0 -10 -3 -7 -7z" />
    <path d="M400 1165 c0 -6 14 -25 36 -48 6 -6 9 -19 6 -29 -2 -10 0 -18 6 -18
5 0 12 9 15 20 l5 20 -30 30 c-29 30 -38 35 -38 25z" />
    <path d="M330 1124 l0 -16 15 12 c8 7 15 14 15 16 0 2 -7 4 -15 4 -8 0 -15 -7
-15 -16z" />
    <path d="M180 1080 c0 -22 3 -40 6 -40 4 0 12 7 19 16 15 21 7 64 -11 64 l-14
0 0 -40z" />
    <path d="M353 1108 l6 -17 -11 -7 c-5 -4 -14 -1 -18 6 l-8 13 -47 -7 -47 -7 6
-15 5 -14 -14 0 c-18 0 -20 -26 -2 -33 l12 -5 -12 -1 -13 -1 0 -45 0 -45 20 0
20 0 0 16 0 15 10 -6 11 -7 -10 -12 -11 -12 13 -14 12 -13 -11 6 -12 7 -6 -16
c-3 -9 -6 -23 -6 -32 l0 -17 11 15 11 15 -6 -18 c-3 -10 -6 -23 -6 -28 0 -6
-5 -7 -10 -4 l-11 7 7 -27 6 -26 -8 2 c-21 4 -34 -2 -34 -16 l0 -14 17 6 16 6
-5 -15 -6 -16 16 2 17 1 -2 -12 c-2 -7 4 -13 13 -13 l16 0 -5 14 -5 14 16 -2
17 -1 2 30 c1 17 13 55 27 85 14 30 26 65 26 78 l0 22 14 0 14 0 7 31 c4 17
13 33 21 36 8 3 14 11 14 19 l0 14 -40 0 -40 0 0 15 c0 8 7 15 15 15 20 0 19
14 -2 31 l-17 14 7 -17z m-78 -28 c-3 -5 -12 -10 -18 -10 l-12 0 15 10 c19 12
23 12 15 0z m26 -17 c-12 -20 -14 -14 -5 12 4 9 9 14 11 11 3 -2 0 -13 -6 -23z
m20 -26 l-12 -12 7 18 c3 10 9 15 12 12 3 -3 0 -11 -7 -18z m-31 -1 c0 -3 -5
-8 -12 -12 l-11 -7 7 11 c7 12 16 16 16 8z m90 0 c0 -3 -5 -8 -12 -12 l-11 -7
7 11 c7 12 16 16 16 8z m-123 -23 c-4 -3 -10 -3 -14 0 -3 4 0 7 7 7 7 0 10 -3
7 -7z m83 -14 c0 -5 7 -9 16 -9 l15 0 -6 10 c-3 6 -1 10 5 10 24 0 3 -25 -23
-28 l-27 -3 -15 14 c-8 8 -12 17 -9 20 8 7 44 -4 44 -14z m-83 -26 c-4 -3 -10
-3 -14 0 -3 4 0 7 7 7 7 0 10 -3 7 -7z" />
    <path d="M446 1044 c-9 -24 -7 -31 9 -31 l15 0 0 18 c0 24 -16 33 -24 13z" />
    <path d="M180 1021 c0 -17 18 -21 24 -6 l5 15 -14 0 c-8 0 -15 -4 -15 -9z" />
    <path d="M400 954 c0 -17 22 -14 28 4 2 7 -3 12 -12 12 -9 0 -16 -7 -16 -16z" />
    <path d="M185 900 c3 -5 10 -10 16 -10 5 0 9 5 9 10 0 6 -7 10 -16 10 l-15 0
6 -10z" />
    <path d="M430 811 c0 -6 5 -13 10 -16 l10 -6 0 15 c0 9 -4 16 -10 16 -5 0 -10
-4 -10 -9z" />
    <path d="M480 790 c0 -5 4 -10 9 -10 6 0 13 5 16 10 l6 10 -15 0 c-9 0 -16 -4
-16 -10z" />
    <path d="M440 764 c0 -17 22 -14 28 4 2 7 -3 12 -12 12 -9 0 -16 -7 -16 -16z" />
    <path d="M370 666 c0 -9 5 -16 10 -16 6 0 10 4 10 9 0 6 -4 13 -10 16 l-10 6
0 -15z" />
    <path d="M330 421 c0 -6 5 -13 10 -16 l10 -6 0 15 c0 9 -4 16 -10 16 -5 0 -10
-4 -10 -9z" />
    <path d="M440 396 c0 -9 5 -16 10 -16 6 0 10 4 10 9 0 6 -4 13 -10 16 l-10 6
0 -15z" />
    <path d="M450 296 c0 -9 5 -16 10 -16 6 0 10 4 10 9 0 6 -4 13 -10 16 l-10 6
0 -15z" />
    <path d="M470 258 c0 -10 5 -18 10 -18 6 0 10 -7 10 -15 0 -8 5 -15 10 -15 15
0 12 12 -10 40 l-20 25 0 -17z" />
    <path d="M400 100 c0 -5 6 -11 13 -13 l12 -5 -16 -1 c-9 -1 -20 -9 -23 -18
l-7 -17 15 -12 c9 -6 13 -14 9 -17 -3 -4 2 -7 11 -7 l18 0 -5 14 -6 14 15 6
15 6 -6 -9 c-3 -5 -1 -12 4 -15 16 -10 21 9 11 46 l-10 36 -25 0 c-14 0 -25
-4 -25 -8z" />
    <path d="M370 75 c-7 -9 -10 -18 -7 -21 3 -3 10 4 17 15 13 25 8 27 -10 6z" />
  </g>
  <g transform="translate(0.000000,199.000000) scale(0.100000,-0.100000)" fill="#e6e3e5" stroke="none">
    <path d="M354 1978 l-7 -11 13 8 12 8 9 -14 9 -14 0 18 c0 19 -25 23 -36 5z" />
    <path d="M295 1944 l-30 -26 35 23 c45 29 45 29 34 29 -5 0 -22 -12 -39 -26z" />
    <path d="M373 1910 c0 -25 2 -35 4 -22 2 12 2 32 0 45 -2 12 -4 2 -4 -23z" />
    <path d="M480 1895 c-19 -7 -30 -14 -23 -14 6 -1 24 4 38 9 l27 10 -6 -27 -7
-28 11 15 c11 18 13 50 3 49 -5 0 -24 -7 -43 -14z" />
    <path d="M255 1889 c-4 -6 -5 -12 -2 -15 2 -3 7 2 10 11 7 17 1 20 -8 4z" />
    <path d="M394 1865 c-12 -8 -23 -12 -25 -10 -3 2 -12 -10 -21 -26 -21 -36 -5
-39 19 -3 9 15 31 33 48 40 16 7 23 13 15 14 -9 0 -25 -7 -36 -15z" />
    <path d="M297 1833 c-5 -25 20 -73 39 -73 8 0 20 5 27 10 7 6 21 18 32 26 l20
15 -13 6 -13 5 12 16 c6 10 -4 0 -22 -20 l-34 -37 -16 9 -16 9 5 26 4 25 -10
0 c-6 0 -12 -8 -15 -17z" />
    <path d="M487 1814 c-10 -13 -24 -24 -32 -24 -8 0 -16 -4 -19 -9 l-6 -9 19 5
c20 5 67 50 60 57 -2 2 -12 -7 -22 -20z" />
    <path d="M250 1822 c0 -6 5 -14 11 -17 6 -4 8 -13 5 -21 l-5 -14 14 0 c20 0
19 7 -5 37 -11 14 -20 21 -20 15z" />
    <path d="M390 1770 c-8 -5 -12 -11 -9 -14 3 -3 14 1 25 9 21 16 8 20 -16 5z" />
    <path d="M685 1760 c3 -5 8 -10 11 -10 2 0 4 5 4 10 0 6 -5 10 -11 10 -5 0 -7
-4 -4 -10z" />
    <path d="M671 1743 c0 -6 -4 -20 -7 -30 l-7 -18 12 11 c7 7 11 20 8 30 -3 11
-5 14 -6 7z" />
    <path d="M746 1737 l-19 -14 17 -6 17 -7 -6 9 c-3 6 3 14 12 20 10 6 13 11 7
11 -5 0 -18 -6 -28 -13z" />
    <path d="M790 1739 c0 -5 5 -7 10 -4 6 3 10 8 10 11 0 2 -4 4 -10 4 -5 0 -10
-5 -10 -11z" />
    <path d="M410 1706 c0 -9 5 -16 10 -16 6 0 10 4 10 9 0 6 -4 13 -10 16 l-10 6
0 -15z" />
    <path d="M155 1665 l-17 -39 10 -4 c6 -2 8 -10 5 -18 l-5 -14 12 0 12 0 -6 25
-6 25 10 21 c6 11 9 25 7 32 -3 7 -12 -6 -22 -28z" />
    <path d="M770 1671 c0 -5 9 -11 21 -14 l20 -5 -12 14 c-13 16 -29 19 -29 5z" />
    <path d="M200 1656 l0 -14 20 5 c11 3 20 9 20 14 0 5 -9 9 -20 9 l-20 0 0 -14z" />
    <path d="M820 1650 c0 -5 5 -10 10 -10 6 0 10 5 10 10 0 6 -4 10 -10 10 -5 0
-10 -4 -10 -10z" />
    <path d="M310 1614 c0 -13 42 -74 51 -74 16 0 9 25 -11 40 -11 8 -20 20 -20
27 0 7 -4 13 -10 13 -5 0 -10 -3 -10 -6z" />
    <path d="M570 1605 c0 -8 7 -15 15 -15 8 0 15 7 15 15 0 8 -7 15 -15 15 -8 0
-15 -7 -15 -15z" />
    <path d="M745 1610 c3 -5 11 -10 16 -10 6 0 7 5 4 10 -3 6 -11 10 -16 10 -6 0
-7 -4 -4 -10z" />
    <path d="M200 1597 c0 -7 9 -13 20 -13 11 0 20 6 20 13 0 7 -9 13 -20 13 -11
0 -20 -6 -20 -13z" />
    <path d="M440 1596 c0 -9 5 -16 10 -16 6 0 10 4 10 9 0 6 -4 13 -10 16 l-10 6
0 -15z" />
    <path d="M505 1590 c-3 -5 -2 -10 4 -10 5 0 13 5 16 10 3 6 2 10 -4 10 -5 0
-13 -4 -16 -10z" />
    <path d="M620 1590 c0 -5 6 -10 14 -10 8 0 18 5 21 10 l6 10 -20 0 c-12 0 -21
-4 -21 -10z" />
    <path d="M380 1560 l0 -20 15 0 15 0 0 20 0 20 -15 0 -15 0 0 -20z" />
    <path d="M470 1570 c0 -13 18 -22 24 -11 3 5 -1 11 -9 15 -8 3 -15 1 -15 -4z" />
    <path d="M190 1540 l0 -20 14 0 c21 0 31 21 15 31 -22 14 -29 11 -29 -11z" />
    <path d="M230 1505 c0 -8 7 -15 15 -15 8 0 15 7 15 15 0 8 -7 15 -15 15 -8 0
-15 -7 -15 -15z" />
    <path d="M508 1513 c-10 -2 -18 -9 -18 -14 0 -13 13 -11 36 6 19 14 14 17 -18
8z" />
    <path d="M360 1477 c0 -8 6 -14 13 -14 8 0 14 6 14 14 0 7 -6 13 -14 13 -7 0
-13 -6 -13 -13z" />
    <path d="M177 1473 c-11 -10 -8 -43 3 -43 6 0 10 11 10 25 0 26 -2 29 -13 18z" />
    <path d="M35 1436 l-17 -12 36 0 36 0 -3 10 c-5 14 -34 16 -52 2z" />
    <path d="M480 1434 l0 -15 10 6 c6 4 8 11 5 16 -9 14 -15 11 -15 -7z" />
    <path d="M323 1408 l6 -21 -15 -28 c-17 -35 -18 -39 0 -39 l14 0 -5 -19 -5
-20 18 3 17 3 13 49 c16 62 16 63 -1 40 l-15 -20 0 37 0 37 -16 0 -16 0 5 -22z
m24 -105 c-4 -3 -7 0 -7 7 0 7 3 10 7 7 3 -4 3 -10 0 -14z" />
    <path d="M410 1420 c0 -5 4 -10 9 -10 6 0 13 5 16 10 l6 10 -15 0 c-9 0 -16
-4 -16 -10z" />
    <path d="M80 1396 c0 -9 5 -16 10 -16 6 0 10 4 10 9 0 6 -4 13 -10 16 l-10 6
0 -15z" />
    <path d="M200 1375 l0 -15 20 0 20 0 0 15 0 15 -20 0 -20 0 0 -15z" />
    <path d="M167 1373 c-12 -12 -7 -22 8 -17 8 4 15 10 15 15 0 11 -14 12 -23 2z" />
    <path d="M90 1305 c0 -8 7 -15 15 -15 l14 0 -5 15 c-4 8 -10 15 -15 15 -5 0
-9 -7 -9 -15z" />
    <path d="M160 1277 c0 -8 7 -14 15 -14 8 0 15 6 15 14 0 7 -7 13 -15 13 -8 0
-15 -6 -15 -13z" />
    <path d="M230 1259 l0 -21 15 5 c8 4 17 2 21 -4 l6 -10 17 15 17 16 12 -12 12
-12 0 11 c0 14 -36 27 -49 18 -5 -3 -12 -1 -16 5 -3 5 -13 10 -21 10 l-14 0 0
-21z" />
    <path d="M295 1241 c-3 -5 -1 -12 5 -16 l10 -6 0 15 c0 18 -6 21 -15 7z" />
    <path d="M90 1230 c0 -5 4 -10 9 -10 6 0 13 5 16 10 l6 10 -15 0 c-9 0 -16 -4
-16 -10z" />
    <path d="M340 1233 c0 -3 5 -13 10 -24 l11 -19 19 13 c11 6 20 15 20 18 0 4
-13 9 -30 11 -16 3 -30 3 -30 1z m27 -30 c-4 -3 -7 0 -7 7 0 7 3 10 7 7 3 -4
3 -10 0 -14z" />
    <path d="M145 1170 c-16 -30 -13 -50 6 -50 l10 0 -6 20 c-3 10 -1 28 5 40 6
11 8 20 6 20 -3 0 -13 -14 -21 -30z" />
    <path d="M390 1190 c0 -5 5 -10 10 -10 6 0 10 5 10 10 0 6 -4 10 -10 10 -5 0
-10 -4 -10 -10z" />
    <path d="M310 1171 c0 -5 7 -12 16 -15 l17 -6 -13 15 c-14 17 -20 19 -20 6z" />
    <path d="M394 1146 l6 -24 -30 -4 -30 -4 -4 10 -4 11 -9 -11 c-4 -6 -29 -16
-55 -24 -27 -7 -48 -17 -48 -22 l0 -10 18 7 c9 4 32 9 50 12 l32 6 0 -17 c0
-10 4 -15 9 -12 5 3 8 -2 7 -12 l-1 -17 45 3 45 3 -17 -11 c-10 -6 -18 -18
-18 -26 0 -8 4 -12 10 -9 l10 6 -6 -15 -6 -16 23 -1 c27 -1 63 2 67 5 1 2 -4
16 -13 32 -8 16 -15 39 -15 52 l0 22 -15 0 c-8 0 -15 -6 -16 -12 0 -7 -5 -2
-10 11 l-10 24 12 7 c6 4 10 11 9 16 -4 20 -21 44 -31 44 l-11 0 6 -24z m-19
-46 c-3 -5 -12 -10 -18 -10 l-12 0 15 10 c19 12 23 12 15 0z m85 -81 c0 -4 3
-16 6 -26 l6 -18 -12 18 c-6 9 -15 15 -21 12 -5 -4 -9 0 -9 8 0 7 7 14 15 14
8 0 15 -4 15 -8z" />
    <path d="M450 1104 l0 -15 10 6 c6 4 8 11 5 16 -9 14 -15 11 -15 -7z" />
    <path d="M180 1074 l0 -15 10 6 c6 3 10 10 10 16 0 5 -4 9 -10 9 -5 0 -10 -7
-10 -16z" />
    <path d="M210 1000 c0 -5 14 -10 30 -10 17 0 30 5 30 10 0 6 -13 10 -30 10
-16 0 -30 -4 -30 -10z" />
    <path d="M260 960 c0 -11 4 -20 9 -20 11 0 22 26 14 34 -12 12 -23 5 -23 -14z" />
    <path d="M427 948 c2 -5 -2 -8 -9 -8 -13 0 -38 -52 -38 -78 0 -7 10 -12 23
-12 l23 0 22 25 c12 14 22 31 22 39 0 7 9 16 21 19 l21 6 -7 11 -6 10 -39 -2
c-21 -2 -36 -6 -33 -10z m10 -35 c-4 -3 -7 0 -7 7 0 7 3 10 7 7 3 -4 3 -10 0
-14z" />
    <path d="M184 919 l-7 -11 14 -9 c29 -18 39 -7 15 17 l-15 14 -7 -11z" />
    <path d="M230 854 l0 -15 10 6 c6 3 10 10 10 16 0 5 -4 9 -10 9 -5 0 -10 -7
-10 -16z" />
    <path d="M504 838 l-10 -33 -27 -3 -27 -3 0 -23 c0 -13 8 -33 19 -44 19 -23
41 -29 41 -12 0 6 -6 10 -13 10 -7 0 -18 10 -26 23 -7 12 -10 19 -6 15 4 -4
19 1 33 12 13 11 28 17 33 14 l9 -5 0 40 c0 23 -4 41 -9 41 -4 0 -12 -15 -17
-32z" />
    <path d="M220 820 c-8 -5 -11 -12 -7 -16 4 -4 13 -2 19 4 15 15 7 24 -12 12z" />
    <path d="M373 795 c-16 -17 -17 -35 -3 -35 6 0 10 5 10 11 0 7 8 18 18 25 l17
13 -15 0 c-8 0 -21 -6 -27 -14z" />
    <path d="M207 783 c-4 -3 -7 -11 -7 -17 l0 -10 12 12 c6 6 9 14 7 17 -3 3 -9
2 -12 -2z" />
    <path d="M235 720 c3 -5 11 -10 16 -10 6 0 7 5 4 10 -3 6 -11 10 -16 10 -6 0
-7 -4 -4 -10z" />
    <path d="M280 681 c0 -6 5 -13 10 -16 l10 -6 0 15 c0 9 -4 16 -10 16 -5 0 -10
-4 -10 -9z" />
    <path d="M290 631 c0 -6 5 -13 10 -16 l10 -6 0 15 c0 9 -4 16 -10 16 -5 0 -10
-4 -10 -9z" />
    <path d="M300 591 c0 -6 5 -13 10 -16 l10 -6 0 15 c0 9 -4 16 -10 16 -5 0 -10
-4 -10 -9z" />
    <path d="M310 531 c0 -6 5 -13 10 -16 l10 -6 0 15 c0 9 -4 16 -10 16 -5 0 -10
-4 -10 -9z" />
    <path d="M403 524 l-6 -16 12 -8 12 -7 -30 -13 c-17 -7 -31 -19 -31 -26 0 -8
3 -14 7 -14 5 0 71 21 81 26 4 2 -28 74 -33 74 -3 0 -8 -7 -12 -16z" />
    <path d="M440 381 c0 -12 5 -21 10 -21 6 0 10 6 10 14 0 8 -4 18 -10 21 l-10
6 0 -20z" />
    <path d="M340 381 c0 -6 5 -13 10 -16 l10 -6 0 15 c0 9 -4 16 -10 16 -5 0 -10
-4 -10 -9z" />
    <path d="M350 341 c0 -6 5 -13 10 -16 l10 -6 0 15 c0 9 -4 16 -10 16 -5 0 -10
-4 -10 -9z" />
    <path d="M360 281 c0 -6 5 -13 10 -16 l10 -6 0 15 c0 9 -4 16 -10 16 -5 0 -10
-4 -10 -9z" />
    <path d="M360 215 c0 -8 7 -15 15 -15 8 0 15 7 15 15 0 8 -7 15 -15 15 -8 0
-15 -7 -15 -15z" />
    <path d="M490 210 l0 -24 12 12 12 12 -12 12 -12 12 0 -24z" />
    <path d="M366 181 c-4 -7 -5 -15 -2 -18 9 -9 19 4 14 18 l-4 13 -8 -13z" />
    <path d="M370 121 c0 -6 5 -13 10 -16 l10 -6 0 15 c0 9 -4 16 -10 16 -5 0 -10
-4 -10 -9z" />
    <path d="M438 90 c9 -16 20 -30 25 -30 4 0 7 14 7 30 l0 30 -25 0 -24 0 17
-30z" />
    <path d="M364 65 c-3 -8 -4 -20 -2 -27 3 -7 7 -1 10 15 6 29 1 36 -8 12z" />
    <path d="M416 21 c-7 -11 22 -23 35 -15 5 3 9 9 9 15 0 12 -37 12 -44 0z" />
  </g>
  <g transform="translate(0.000000,199.000000) scale(0.100000,-0.100000)" fill="#fdf5dc" stroke="none">
    <path d="M345 1770 l-6 -10 16 0 16 0 -6 10 c-3 6 -8 10 -10 10 -2 0 -7 -4
-10 -10z" />
    <path d="M280 1731 c0 -6 -13 -11 -30 -11 l-30 0 0 -15 c0 -8 10 -19 21 -26
l22 -11 -13 -8 -12 -7 9 -6 c11 -7 53 28 53 43 0 6 7 10 16 10 l15 0 -3 18 -3
17 -23 3 -22 3 0 -10z" />
    <path d="M653 1703 c-7 -3 -13 -12 -13 -21 l1 -17 14 19 15 20 0 -21 c0 -27
25 -47 50 -40 l19 5 11 -13 11 -13 -13 -4 -12 -4 16 -7 17 -6 -5 22 c-3 12 -6
36 -8 52 l-2 30 -24 -3 c-14 -2 -31 -11 -39 -20 l-14 -17 6 17 6 16 -12 5 c-7
2 -18 2 -24 0z m97 -34 c0 -6 -4 -7 -10 -4 -5 3 -10 11 -10 16 0 6 5 7 10 4 6
-3 10 -11 10 -16z" />
    <path d="M795 1690 c3 -5 11 -10 16 -10 6 0 7 5 4 10 -3 6 -11 10 -16 10 -6 0
-7 -4 -4 -10z" />
    <path d="M166 1664 c-4 -15 -6 -28 -4 -29 2 -2 15 -6 31 -10 l27 -7 0 10 c0 6
-8 16 -17 21 l-18 10 13 1 c6 0 12 7 12 15 l0 15 -19 0 -19 0 -6 -26z" />
    <path d="M795 1650 l-6 -10 20 0 c12 0 21 5 21 10 0 6 -6 10 -14 10 -8 0 -18
-4 -21 -10z" />
    <path d="M335 1580 c7 -12 -20 -42 -29 -33 -3 4 -6 1 -6 -6 l0 -12 -20 6 -20
6 0 -10 c0 -5 4 -12 9 -15 4 -3 6 -16 4 -29 l-5 -23 22 0 21 0 -4 18 c-3 10
-1 18 5 18 l10 0 -6 16 -6 16 14 -5 c17 -7 46 23 46 46 l0 17 -21 0 -20 0 6
-10z m25 -24 c0 -2 -8 -10 -17 -17 l-18 -14 14 18 c13 16 21 21 21 13z" />
    <path d="M500 1580 c0 -5 5 -10 10 -10 6 0 10 5 10 10 0 6 -4 10 -10 10 -5 0
-10 -4 -10 -10z" />
    <path d="M270 1569 c0 -5 5 -7 10 -4 6 3 10 8 10 11 0 2 -4 4 -10 4 -5 0 -10
-5 -10 -11z" />
    <path d="M150 1551 c0 -6 5 -13 10 -16 l10 -6 0 15 c0 9 -4 16 -10 16 -5 0
-10 -4 -10 -9z" />
    <path d="M500 1554 c0 -3 5 -15 12 -27 l11 -22 -15 12 -14 13 -12 -12 -12 -12
-12 13 -13 14 17 -6 c20 -7 34 8 18 18 -16 10 -39 -14 -35 -35 2 -10 -3 -24
-12 -31 l-15 -13 -18 12 -19 11 4 -21 c3 -11 6 -23 9 -25 9 -9 71 19 104 47
l34 28 -7 21 c-3 12 -11 21 -16 21 -5 0 -9 -3 -9 -6z m-10 -58 c0 -2 -7 -7
-16 -10 l-15 -6 6 10 c6 10 25 14 25 6z" />
    <path d="M245 1510 c3 -5 11 -10 16 -10 6 0 7 5 4 10 -3 6 -11 10 -16 10 -6 0
-7 -4 -4 -10z" />
    <path d="M400 1511 c0 -5 6 -11 13 -14 l14 -5 0 14 c0 8 -6 14 -14 14 -7 0
-13 -4 -13 -9z" />
    <path d="M350 1455 l0 -25 15 0 c8 0 15 7 15 16 0 8 -4 12 -10 9 l-10 -6 6 15
6 16 -11 0 c-6 0 -11 -11 -11 -25z" />
    <path d="M23 1425 c-13 -9 -23 -21 -23 -26 l0 -11 30 7 30 7 0 -21 c0 -22 -16
-29 -22 -9 l-4 12 -17 -7 c-17 -6 -24 -46 -9 -48 4 0 15 -2 24 -4 l17 -3 -6
16 c-4 10 -3 14 2 10 13 -12 35 19 37 54 l3 33 -20 3 c-11 1 -30 -5 -42 -13z
m10 -81 l-6 -16 -8 13 c-9 15 -2 32 11 24 5 -3 6 -13 3 -21z" />
    <path d="M350 1385 c0 -14 5 -25 11 -25 l11 0 -6 16 -6 15 10 -6 c6 -3 10 1
10 9 0 9 -7 16 -15 16 l-15 0 0 -25z" />
    <path d="M324 1375 c-4 -8 -11 -12 -16 -9 l-11 7 5 -13 c2 -7 11 -14 19 -15
l14 -2 0 23 c0 28 -3 30 -11 9z" />
    <path d="M165 1369 c-4 -6 -5 -12 -2 -15 2 -3 7 2 10 11 7 17 1 20 -8 4z" />
    <path d="M140 1316 l-10 -27 -10 6 c-5 3 -10 -1 -10 -9 l0 -15 19 2 19 1 6 30
c8 38 -1 46 -14 12z" />
    <path d="M160 1255 c0 -6 7 -12 15 -12 8 0 15 6 15 12 0 6 -7 12 -15 12 -8 0
-15 -6 -15 -12z" />
    <path d="M303 1263 c4 -3 1 -13 -6 -21 l-12 -15 23 14 c26 16 29 29 5 29 -9 0
-13 -3 -10 -7z" />
    <path d="M85 1241 c-6 -11 9 -23 19 -14 9 9 7 23 -3 23 -6 0 -12 -4 -16 -9z" />
    <path d="M260 1240 c0 -5 5 -10 10 -10 6 0 10 5 10 10 0 6 -4 10 -10 10 -5 0
-10 -4 -10 -10z" />
    <path d="M312 1180 c0 -14 2 -19 5 -12 2 6 2 18 0 25 -3 6 -5 1 -5 -13z" />
    <path d="M314 1145 c-10 -8 -14 -15 -7 -15 19 0 43 11 43 21 0 13 -14 11 -36
-6z" />
    <path d="M160 1130 l0 -10 60 0 c33 0 60 4 60 9 0 5 -27 9 -60 10 l-60 1 0
-10z" />
    <path d="M200 1099 c0 -5 -4 -7 -10 -4 -5 3 -10 2 -10 -4 0 -16 17 -22 45 -15
14 3 25 12 25 20 l0 14 -25 0 c-14 0 -25 -5 -25 -11z" />
    <path d="M364 1074 l6 -17 -15 13 -15 12 0 -10 c0 -6 -6 -9 -14 -6 l-14 6 -12
-22 c-6 -12 -9 -24 -7 -27 3 -2 11 5 18 18 l12 23 13 -19 14 -19 0 14 c0 7 3
10 7 7 9 -9 33 12 33 29 0 8 -7 14 -16 14 l-16 0 6 -16z" />
    <path d="M388 994 l5 -25 -22 -6 -21 -5 0 -20 c0 -11 -14 -51 -31 -90 -17 -38
-28 -76 -25 -84 3 -7 0 -16 -6 -20 l-11 -7 8 13 8 13 -12 -7 c-14 -9 -5 -26
15 -26 l15 0 10 30 11 30 20 0 20 0 -5 21 -6 21 17 37 c9 20 21 39 25 42 5 3
5 18 1 32 l-6 27 10 0 10 0 -11 25 c-15 32 -26 32 -19 -1z" />
    <path d="M330 1003 c-28 -8 -60 -26 -60 -34 0 -8 79 0 99 11 l14 8 -19 9 c-10
6 -26 8 -34 6z" />
    <path d="M241 924 l-24 -24 12 0 12 0 -5 -31 -5 -32 8 9 c5 5 13 23 19 39 5
17 13 38 17 48 10 23 -5 20 -34 -9z" />
    <path d="M226 813 l-7 -18 12 12 c7 7 10 15 7 18 -3 3 -9 -2 -12 -12z" />
    <path d="M520 785 c0 -8 5 -15 10 -15 6 0 10 7 10 15 0 8 -4 15 -10 15 -5 0
-10 -7 -10 -15z" />
    <path d="M207 776 l-6 -15 15 6 c7 3 14 9 14 14 0 14 -17 10 -23 -5z" />
    <path d="M250 765 c0 -8 0 -18 1 -21 0 -4 -5 -10 -11 -14 l-12 -7 15 -6 16 -6
-4 19 c-2 11 0 22 6 25 12 8 12 25 -1 25 -5 0 -10 -7 -10 -15z" />
    <path d="M517 753 c-4 -3 -7 -11 -7 -17 l0 -10 12 12 c6 6 9 14 7 17 -3 3 -9
2 -12 -2z" />
    <path d="M290 666 c0 -7 3 -28 6 -45 l7 -31 13 0 c15 0 17 12 8 59 l-6 31 -14
0 c-8 0 -14 -6 -14 -14z" />
    <path d="M375 570 l7 -30 -16 -6 c-22 -8 -20 -34 2 -34 9 0 25 7 35 15 l19 14
-13 35 c-7 20 -19 36 -27 36 l-14 0 7 -30z" />
    <path d="M363 483 c-18 -9 -33 -23 -33 -30 0 -17 20 -16 44 2 10 8 23 12 27 9
5 -3 9 -1 9 5 l0 10 16 -6 17 -6 -5 14 c-7 20 -38 21 -75 2z" />
    <path d="M376 83 l-7 -18 12 12 c7 7 10 15 7 18 -3 3 -9 -2 -12 -12z" />
  </g>
  <g transform="translate(0.000000,199.000000) scale(0.100000,-0.100000)" fill="#f3ddc8" stroke="none">
    <path d="M273 1785 c0 -8 7 -15 15 -15 l14 0 -12 15 c-7 8 -13 15 -15 15 -1 0
-2 -7 -2 -15z" />
    <path d="M691 1744 l1 -19 5 13 c3 7 2 16 -1 19 -3 4 -6 -2 -5 -13z" />
    <path d="M773 1736 l0 -14 14 5 c7 3 13 9 13 14 0 5 -6 9 -13 9 -8 0 -14 -6
-14 -14z" />
    <path d="M390 1715 c0 -8 7 -15 15 -15 8 0 15 7 15 15 0 8 -7 15 -15 15 -8 0
-15 -7 -15 -15z" />
    <path d="M666 1713 l-7 -18 12 12 c7 7 10 15 7 18 -3 3 -9 -2 -12 -12z" />
    <path d="M177 1703 c-4 -3 -7 -17 -7 -29 l0 -23 38 2 c40 1 102 -19 102 -34 0
-5 5 -9 10 -9 6 0 10 6 10 13 0 6 -20 23 -45 36 l-45 24 -29 -6 -29 -6 5 19
c5 20 2 25 -10 13z" />
    <path d="M701 1681 l-11 -19 16 -6 c23 -9 24 -8 24 13 0 28 -17 35 -29 12z" />
    <path d="M797 1688 c6 -11 43 -10 43 1 0 5 -11 8 -24 7 -13 0 -22 -4 -19 -8z" />
    <path d="M640 1658 c0 -18 18 -34 28 -24 3 4 -2 14 -11 23 l-17 17 0 -16z" />
    <path d="M800 1650 l-15 -9 23 2 c12 0 22 5 22 9 0 11 -12 10 -30 -2z" />
    <path d="M575 1630 l-18 -20 17 0 c9 0 19 7 23 15 9 25 -2 27 -22 5z" />
    <path d="M146 1631 c-3 -5 1 -11 9 -15 l15 -5 0 14 c0 16 -16 20 -24 6z" />
    <path d="M682 1618 c5 -15 28 -18 29 -3 0 6 -7 12 -17 13 l-16 4 4 -14z" />
    <path d="M190 1585 c0 -8 5 -15 10 -15 6 0 10 7 10 15 0 8 -4 15 -10 15 -5 0
-10 -7 -10 -15z" />
    <path d="M340 1591 c0 -5 7 -11 15 -15 l15 -5 0 14 c0 8 -7 15 -15 15 -8 0
-15 -4 -15 -9z" />
    <path d="M470 1550 l-15 -10 12 0 c6 0 15 5 18 10 8 12 4 12 -15 0z" />
    <path d="M160 1540 c0 -5 5 -10 10 -10 6 0 10 5 10 10 0 6 -4 10 -10 10 -5 0
-10 -4 -10 -10z" />
    <path d="M270 1537 c0 -8 3 -16 6 -20 10 -9 34 4 34 19 l0 14 -20 0 c-11 0
-20 -6 -20 -13z" />
    <path d="M413 1535 c0 -8 6 -15 14 -15 7 0 13 7 13 15 0 8 -6 15 -13 15 -8 0
-14 -7 -14 -15z" />
    <path d="M294 1505 c-10 -8 -14 -15 -7 -15 19 0 43 11 43 21 0 13 -14 11 -36
-6z" />
    <path d="M433 1465 l-32 -14 -5 12 -5 12 -15 -19 -16 -20 0 12 c0 7 -4 12 -10
12 -16 0 -12 -28 7 -49 l16 -20 54 37 c48 34 65 53 46 52 -5 -1 -22 -7 -40
-15z" />
    <path d="M250 1435 c0 -8 7 -15 15 -15 8 0 15 4 15 9 0 5 -7 11 -15 15 l-15 5
0 -14z" />
    <path d="M28 1428 l-13 -10 19 6 18 6 -6 -16 c-3 -8 -6 -18 -6 -20 0 -2 -7 -4
-15 -4 -8 0 -15 -4 -15 -10 0 -17 27 -11 34 7 l7 16 11 -11 c7 -7 17 -12 24
-12 l12 0 -7 28 -7 27 -21 1 c-12 1 -27 -3 -35 -8z m47 -8 c3 -5 4 -10 1 -10
-3 0 -8 5 -11 10 -3 6 -4 10 -1 10 3 0 8 -4 11 -10z" />
    <path d="M51 1347 c-6 -14 -18 -30 -28 -36 l-18 -10 12 -12 13 -13 0 17 c0 9
7 17 15 17 l15 0 6 25 c9 35 -3 44 -15 12z" />
    <path d="M116 1338 l-18 -33 21 25 c18 22 26 40 18 40 -1 0 -11 -15 -21 -32z" />
    <path d="M303 1347 c0 -8 6 -14 14 -14 l13 0 -11 14 c-6 7 -12 13 -14 13 -1 0
-2 -6 -2 -13z" />
    <path d="M150 1330 c0 -5 5 -10 10 -10 6 0 10 5 10 10 0 6 -4 10 -10 10 -5 0
-10 -4 -10 -10z" />
    <path d="M140 1289 l0 -20 10 6 c6 3 10 13 10 21 0 8 -4 14 -10 14 -5 0 -10
-9 -10 -21z" />
    <path d="M100 1290 c0 -5 5 -10 10 -10 6 0 10 5 10 10 0 6 -4 10 -10 10 -5 0
-10 -4 -10 -10z" />
    <path d="M40 1271 c0 -5 6 -11 13 -14 l14 -5 0 14 c0 8 -6 14 -14 14 -7 0 -13
-4 -13 -9z" />
    <path d="M195 1240 c3 -5 10 -10 16 -10 5 0 9 5 9 10 0 6 -7 10 -16 10 l-15 0
6 -10z" />
    <path d="M380 1185 l-12 -15 16 0 c9 0 16 7 16 15 0 8 -2 15 -4 15 -2 0 -9 -7
-16 -15z" />
    <path d="M137 1146 l-6 -16 24 -6 c14 -3 25 -10 25 -16 0 -5 5 -6 10 -3 6 3
10 2 10 -3 0 -6 10 -8 23 -6 l22 5 -30 -15 c-16 -8 -23 -15 -15 -15 29 -1 60
11 60 24 0 13 -48 35 -83 40 -11 1 -22 7 -27 14 l-7 13 -6 -16z" />
    <path d="M340 1141 c0 -5 7 -11 15 -15 l15 -5 0 14 c0 8 -7 15 -15 15 -8 0
-15 -4 -15 -9z" />
    <path d="M265 1130 l-6 -10 15 0 c9 0 16 5 16 10 0 6 -4 10 -9 10 -6 0 -13 -4
-16 -10z" />
    <path d="M342 1060 c0 -14 2 -19 5 -12 2 6 2 18 0 25 -3 6 -5 1 -5 -13z" />
    <path d="M180 1044 l0 -15 10 6 c6 4 8 11 5 16 -9 14 -15 11 -15 -7z" />
    <path d="M271 1011 l-24 -18 10 -6 c10 -7 50 29 42 37 -2 3 -15 -3 -28 -13z" />
    <path d="M390 1000 c0 -7 3 -10 7 -7 3 4 3 10 0 14 -4 3 -7 0 -7 -7z" />
    <path d="M280 980 c0 -5 6 -10 14 -10 8 0 18 5 21 10 l6 10 -20 0 c-12 0 -21
-4 -21 -10z" />
    <path d="M340 986 c0 -4 12 -11 26 -16 14 -6 22 -14 19 -20 -3 -5 -8 -22 -10
-37 -2 -16 -6 -36 -10 -45 l-7 -18 10 0 c13 0 36 56 28 69 l-6 9 30 -4 30 -5
0 15 0 15 -14 -5 c-8 -3 -17 0 -22 7 l-7 12 10 -6 c6 -4 19 0 29 8 l19 14 -40
1 c-22 0 -50 3 -62 6 -13 4 -23 3 -23 0z" />
    <path d="M191 954 l1 -19 5 13 c3 7 2 16 -1 19 -3 4 -6 -2 -5 -13z" />
    <path d="M252 930 l-12 -20 -23 0 -22 -1 18 -13 c9 -7 17 -18 17 -25 0 -25 16
-8 31 34 17 47 13 59 -9 25z" />
    <path d="M325 798 c-10 -21 -16 -40 -13 -44 10 -10 68 26 68 42 l0 16 -14 -5
-15 -6 -4 17 -3 17 -19 -37z" />
    <path d="M520 801 c0 -6 5 -13 10 -16 l10 -6 0 15 c0 9 -4 16 -10 16 -5 0 -10
-4 -10 -9z" />
    <path d="M270 725 l-12 -15 10 0 c5 0 13 -11 16 -25 l7 -26 9 6 c6 3 10 -1 10
-10 l0 -16 -11 7 -12 7 5 -14 c3 -8 11 -13 18 -11 l12 3 -7 -31 c-4 -17 -4
-48 0 -70 l7 -40 25 0 25 0 -5 14 -6 14 15 6 15 6 -6 -10 c-3 -6 -1 -10 5 -10
l12 0 -5 -14 -6 -15 20 4 20 4 -6 -10 c-4 -5 -11 -7 -16 -4 -5 4 -9 1 -9 -6
l0 -13 -12 12 c-7 7 -23 12 -36 12 l-23 0 3 -17 c6 -33 74 -29 95 6 l12 19
-20 23 c-11 13 -17 29 -14 36 l5 14 -10 -6 -9 -5 1 22 c1 13 1 35 0 51 l-2 27
-17 1 -18 1 13 5 c6 2 12 16 12 29 l0 24 -15 0 c-8 0 -15 -6 -15 -14 l0 -14
-19 5 c-11 3 -22 16 -25 29 -7 28 -18 30 -36 9z m105 -265 c3 -5 4 -10 1 -10
-3 0 -8 5 -11 10 -3 6 -4 10 -1 10 3 0 8 -4 11 -10z" />
    <path d="M458 74 c-5 -4 -8 -16 -8 -28 l0 -20 11 11 c6 6 9 19 7 28 -1 9 -6
13 -10 9z" />
    <path d="M360 25 c0 -8 7 -15 16 -15 l16 0 -12 15 c-7 8 -14 15 -16 15 -2 0
-4 -7 -4 -15z" />
  </g>
  <g transform="translate(0.000000,199.000000) scale(0.100000,-0.100000)" fill="#cdcbd1" stroke="none">
    <path d="M252 1850 c0 -19 2 -27 5 -17 2 9 2 25 0 35 -3 9 -5 1 -5 -18z" />
    <path d="M345 1820 c-3 -5 -1 -10 4 -10 6 0 11 5 11 10 0 6 -2 10 -4 10 -3 0
-8 -4 -11 -10z" />
    <path d="M265 1800 c3 -5 8 -10 11 -10 3 0 2 5 -1 10 -3 6 -8 10 -11 10 -3 0
-2 -4 1 -10z" />
    <path d="M310 1779 c0 -5 -7 -6 -15 -3 l-15 6 0 -11 c0 -6 13 -11 28 -11 l29
0 0 13 c0 8 -6 14 -14 14 -7 0 -13 -4 -13 -8z" />
    <path d="M418 1773 c7 -3 16 -2 19 1 4 3 -2 6 -13 5 l-19 -1 13 -5z" />
    <path d="M225 1760 l-6 -10 15 0 c9 0 16 5 16 10 0 6 -4 10 -9 10 -6 0 -13 -4
-16 -10z" />
    <path d="M370 1760 c0 -5 5 -10 10 -10 6 0 10 5 10 10 0 6 -4 10 -10 10 -5 0
-10 -4 -10 -10z" />
    <path d="M685 1760 c3 -5 8 -10 11 -10 3 0 2 5 -1 10 -3 6 -8 10 -11 10 -3 0
-2 -4 1 -10z" />
    <path d="M670 1730 c0 -7 3 -10 7 -7 3 4 3 10 0 14 -4 3 -7 0 -7 -7z" />
    <path d="M690 1725 c0 -8 4 -15 10 -15 5 0 7 7 4 15 -4 8 -8 15 -10 15 -2 0
-4 -7 -4 -15z" />
    <path d="M186 1721 c-4 -7 -5 -15 -2 -18 9 -9 19 4 14 18 l-4 13 -8 -13z" />
    <path d="M724 1718 l-7 -11 11 7 c12 7 16 16 8 16 -3 0 -8 -5 -12 -12z" />
    <path d="M758 1719 c-10 -5 -18 -14 -18 -19 0 -6 8 -10 18 -9 l17 1 -13 5 -13
5 18 14 c21 16 16 18 -9 3z" />
    <path d="M390 1703 c0 -7 7 -13 15 -13 8 0 15 6 15 13 0 8 -7 14 -15 14 -8 0
-15 -6 -15 -14z" />
    <path d="M783 1693 c4 -3 10 -3 14 0 3 4 0 7 -7 7 -7 0 -10 -3 -7 -7z" />
    <path d="M825 1690 c-3 -5 -1 -10 4 -10 6 0 11 5 11 10 0 6 -2 10 -4 10 -3 0
-8 -4 -11 -10z" />
    <path d="M760 1670 c0 -5 5 -10 10 -10 6 0 10 5 10 10 0 6 -4 10 -10 10 -5 0
-10 -4 -10 -10z" />
    <path d="M420 1646 c0 -9 5 -16 10 -16 6 0 10 4 10 9 0 6 -4 13 -10 16 l-10 6
0 -15z" />
    <path d="M237 1608 c-7 -25 -3 -33 12 -23 13 8 15 45 2 45 -5 0 -11 -10 -14
-22z" />
    <path d="M156 1601 c-4 -7 -5 -15 -2 -18 9 -9 19 4 14 18 l-4 13 -8 -13z" />
    <path d="M522 1594 c-26 -18 -29 -34 -6 -34 l16 0 -5 14 -6 14 20 -5 19 -5 0
16 c0 20 -9 20 -38 0z" />
    <path d="M598 1596 c-18 -13 -24 -36 -10 -36 13 0 52 30 52 41 0 13 -22 11
-42 -5z" />
    <path d="M650 1600 c0 -5 4 -10 9 -10 6 0 13 5 16 10 l6 10 -15 0 c-9 0 -16
-4 -16 -10z" />
    <path d="M320 1590 c0 -5 6 -10 14 -10 8 0 18 5 21 10 l6 10 -20 0 c-12 0 -21
-4 -21 -10z" />
    <path d="M394 1574 l7 -26 -11 7 -10 6 0 -15 c0 -24 27 -19 34 7 9 36 7 47
-10 47 l-16 0 6 -26z" />
    <path d="M190 1576 c0 -9 5 -16 10 -16 6 0 10 4 10 9 0 6 -4 13 -10 16 l-10 6
0 -15z" />
    <path d="M430 1565 l0 -14 15 5 c8 4 15 10 15 15 0 5 -7 9 -15 9 -8 0 -15 -7
-15 -15z" />
    <path d="M150 1561 c0 -6 5 -13 10 -16 l10 -6 0 15 c0 9 -4 16 -10 16 -5 0
-10 -4 -10 -9z" />
    <path d="M536 1534 c-4 -9 -4 -19 -1 -22 6 -6 35 18 35 29 0 16 -28 10 -34 -7z" />
    <path d="M186 1511 c-4 -7 -5 -15 -2 -18 9 -9 19 4 14 18 l-4 13 -8 -13z" />
    <path d="M370 1490 c0 -5 4 -10 9 -10 6 0 13 5 16 10 l6 10 -15 0 c-9 0 -16
-4 -16 -10z" />
    <path d="M310 1475 c0 -8 7 -15 15 -15 8 0 15 7 15 15 0 8 -7 15 -15 15 -8 0
-15 -7 -15 -15z" />
    <path d="M470 1461 c0 -5 -3 -16 -6 -25 l-6 -16 16 0 16 0 0 19 c0 11 -4 23
-10 26 -5 3 -10 2 -10 -4z" />
    <path d="M280 1445 l-12 -15 16 0 c9 0 16 7 16 15 0 8 -2 15 -4 15 -2 0 -9 -7
-16 -15z" />
    <path d="M65 1440 c-3 -5 -1 -10 4 -10 6 0 11 5 11 10 0 6 -2 10 -4 10 -3 0
-8 -4 -11 -10z" />
    <path d="M332 1429 c2 -7 10 -15 17 -17 l14 -4 -5 13 c-2 7 -10 15 -17 17
l-13 5 4 -14z" />
    <path d="M11 1417 l-11 -14 13 0 c8 0 14 6 14 14 0 7 -1 13 -2 13 -2 0 -8 -6
-14 -13z" />
    <path d="M196 1404 c-4 -15 -4 -29 -1 -32 7 -7 45 33 45 48 0 5 -9 10 -19 10
l-19 0 -6 -26z" />
    <path d="M376 1404 c-9 -24 -2 -26 12 -4 7 11 8 20 3 20 -5 0 -12 -7 -15 -16z" />
    <path d="M145 1384 c-9 -15 -12 -23 -6 -20 11 7 35 46 28 46 -3 0 -12 -12 -22
-26z" />
    <path d="M300 1400 c0 -5 4 -10 9 -10 6 0 13 5 16 10 l6 10 -15 0 c-9 0 -16
-4 -16 -10z" />
    <path d="M337 1393 c-4 -7 -2 -15 3 -18 l11 -7 -17 -19 c-9 -10 -21 -16 -26
-13 l-10 7 7 -32 7 -31 -11 0 c-18 0 -12 -17 8 -23 l19 -5 7 42 7 41 7 -20 8
-20 5 35 c3 19 2 37 -2 40 -4 3 -9 12 -12 20 l-4 14 -7 -11z" />
    <path d="M5 1369 c-4 -5 -4 -21 -1 -35 l6 -24 17 0 16 0 -18 20 -17 19 5 16
c7 17 1 20 -8 4z" />
    <path d="M70 1350 l0 -20 15 0 15 0 0 20 0 20 -15 0 -15 0 0 -20z" />
    <path d="M114 1338 l-7 -11 11 7 c7 4 12 9 12 12 0 8 -9 4 -16 -8z" />
    <path d="M80 1305 c0 -8 6 -15 13 -15 8 0 14 7 14 15 0 8 -6 15 -14 15 -7 0
-13 -7 -13 -15z" />
    <path d="M342 1265 l-2 -31 18 -15 c10 -8 24 -19 31 -24 l14 -8 -7 11 -7 12
15 0 c9 0 16 5 16 11 0 5 -8 9 -17 8 -10 -1 -26 -1 -35 0 l-17 1 -4 33 -4 32
-1 -30z" />
    <path d="M104 1245 c-4 -8 -11 -12 -17 -8 l-10 6 7 -11 7 -12 20 10 c20 11 26
30 9 30 -6 0 -13 -7 -16 -15z" />
    <path d="M162 1220 c0 -19 2 -27 5 -17 2 9 2 25 0 35 -3 9 -5 1 -5 -18z" />
    <path d="M145 1130 c3 -5 11 -10 16 -10 6 0 7 5 4 10 -3 6 -11 10 -16 10 -6 0
-7 -4 -4 -10z" />
    <path d="M413 1117 l-22 -12 10 -18 c6 -9 8 -21 4 -26 -3 -5 -1 -11 5 -13 5
-1 10 -20 12 -40 l2 -38 16 0 15 0 0 70 c0 38 -4 73 -10 79 l-10 10 -22 -12z
m34 -69 l-5 -13 -1 19 c-1 11 2 17 5 13 3 -3 4 -12 1 -19z" />
    <path d="M273 1113 l-23 -4 0 -15 c0 -8 4 -13 9 -9 5 3 23 7 40 9 l31 3 -11
-14 c-7 -7 -8 -17 -4 -21 4 -4 10 -1 12 6 3 6 10 9 16 5 l10 -6 -6 16 -6 17 9
0 c6 0 10 3 10 8 0 8 -53 11 -87 5z" />
    <path d="M185 1035 c3 -38 8 -71 11 -74 3 -3 3 25 0 63 -2 37 -7 71 -10 74 -4
3 -4 -25 -1 -63z" />
    <path d="M273 1013 c-17 -6 -17 -33 0 -33 7 0 13 9 13 20 0 11 0 20 -1 19 0 0
-6 -3 -12 -6z" />
    <path d="M466 997 c3 -10 9 -15 12 -12 3 3 0 11 -7 18 l-12 12 7 -18z" />
    <path d="M385 990 c-3 -5 -1 -10 4 -10 6 0 11 5 11 10 0 6 -2 10 -4 10 -3 0
-8 -4 -11 -10z" />
    <path d="M191 934 l1 -19 5 13 c3 7 2 16 -1 19 -3 4 -6 -2 -5 -13z" />
    <path d="M413 938 c3 -9 0 -21 -6 -28 l-12 -13 14 8 14 8 -7 -11 c-4 -6 -13
-9 -21 -5 l-15 5 0 -15 c0 -18 21 -17 46 3 l17 15 -5 -15 c-2 -8 -14 -19 -26
-25 -23 -10 -30 -25 -11 -25 6 0 24 8 39 17 26 15 40 39 40 71 l0 13 -22 -2
c-13 -2 -29 1 -37 5 l-14 9 6 -15z m44 -35 c-4 -3 -7 0 -7 7 0 7 3 10 7 7 3
-4 3 -10 0 -14z" />
    <path d="M500 936 c0 -9 5 -16 10 -16 6 0 10 4 10 9 0 6 -4 13 -10 16 l-10 6
0 -15z" />
    <path d="M230 870 c0 -7 3 -10 7 -7 3 4 3 10 0 14 -4 3 -7 0 -7 -7z" />
    <path d="M230 840 c0 -7 3 -10 7 -7 3 4 3 10 0 14 -4 3 -7 0 -7 -7z" />
    <path d="M491 825 c-13 -13 -30 -21 -37 -18 l-14 5 1 -28 0 -29 9 20 c5 11 9
14 9 7 l1 -12 25 16 c14 9 25 23 25 31 0 8 5 11 10 8 6 -3 10 -2 10 4 0 20
-15 18 -39 -4z" />
    <path d="M400 814 l0 -16 15 12 c8 7 15 14 15 16 0 2 -7 4 -15 4 -8 0 -15 -7
-15 -16z" />
    <path d="M210 800 c0 -5 5 -10 10 -10 6 0 10 5 10 10 0 6 -4 10 -10 10 -5 0
-10 -4 -10 -10z" />
    <path d="M362 780 l-2 -30 11 0 11 0 -5 15 c-4 8 -2 17 3 20 14 9 12 25 -3 25
l-13 0 -2 -30z" />
    <path d="M200 756 c0 -8 4 -17 9 -20 l9 -6 -5 20 c-6 23 -13 26 -13 6z" />
    <path d="M253 713 c4 -3 10 -3 14 0 3 4 0 7 -7 7 -7 0 -10 -3 -7 -7z" />
    <path d="M370 656 c0 -9 5 -16 10 -16 6 0 10 4 10 9 0 6 -4 13 -10 16 l-10 6
0 -15z" />
    <path d="M290 641 c0 -6 4 -13 10 -16 l10 -6 -6 15 c-7 18 -14 21 -14 7z" />
    <path d="M386 597 c3 -10 9 -15 12 -12 3 3 0 11 -7 18 l-12 12 7 -18z" />
    <path d="M310 541 c0 -5 5 -13 10 -16 6 -3 10 -2 10 4 0 5 -4 13 -10 16 -5 3
-10 2 -10 -4z" />
    <path d="M407 533 c-11 -11 -8 -20 7 -20 l14 0 -5 14 c-6 15 -7 15 -16 6z" />
    <path d="M320 486 c0 -8 5 -18 10 -21 l10 -6 0 20 c0 12 -4 21 -10 21 -5 0
-10 -6 -10 -14z" />
    <path d="M430 455 c0 -8 5 -15 10 -15 6 0 10 7 10 15 0 8 -4 15 -10 15 -5 0
-10 -7 -10 -15z" />
    <path d="M440 361 c0 -12 5 -21 10 -21 6 0 10 6 10 14 0 8 -4 18 -10 21 l-10
6 0 -20z" />
    <path d="M360 291 c0 -6 5 -13 10 -16 l10 -6 0 15 c0 9 -4 16 -10 16 -5 0 -10
-4 -10 -9z" />
    <path d="M460 278 c0 -30 13 -58 26 -58 8 0 14 2 14 3 0 8 -32 67 -36 67 -2 0
-4 -6 -4 -12z" />
    <path d="M367 233 c-8 -15 -5 -103 4 -109 5 -3 9 5 9 18 0 13 3 40 6 61 l7 37
-11 0 c-6 0 -13 -3 -15 -7z" />
    <path d="M435 110 c4 -6 11 -8 16 -5 14 9 11 15 -7 15 l-15 0 6 -10z" />
    <path d="M380 100 c0 -7 3 -10 7 -7 3 4 3 10 0 14 -4 3 -7 0 -7 -7z" />
    <path d="M461 84 l1 -19 5 13 c3 7 2 16 -1 19 -3 4 -6 -2 -5 -13z" />
  </g>
  <g transform="translate(0.000000,199.000000) scale(0.100000,-0.100000)" fill="#e2c4ae" stroke="none">
    <path d="M300 1760 c0 -5 7 -10 15 -10 8 0 15 5 15 10 0 6 -7 10 -15 10 -8 0
-15 -4 -15 -10z" />
    <path d="M744 1708 l-7 -11 11 7 c12 7 16 16 8 16 -3 0 -8 -5 -12 -12z" />
    <path d="M410 1696 c0 -9 5 -16 10 -16 6 0 10 4 10 9 0 6 -4 13 -10 16 l-10 6
0 -15z" />
    <path d="M650 1700 c-8 -5 -12 -12 -9 -15 4 -3 12 1 19 10 14 17 11 19 -10 5z" />
    <path d="M213 1693 c-7 -2 -13 -10 -13 -17 l0 -13 26 5 27 5 -8 -14 c-5 -8 -5
-11 0 -7 4 4 20 1 36 -7 33 -17 39 -18 39 -6 0 5 -15 14 -32 22 -18 7 -37 19
-41 26 -8 14 -14 15 -34 6z" />
    <path d="M750 1670 c0 -5 5 -10 10 -10 6 0 10 5 10 10 0 6 -4 10 -10 10 -5 0
-10 -4 -10 -10z" />
    <path d="M154 1657 c-6 -18 2 -37 17 -37 10 0 7 35 -4 46 -4 4 -9 0 -13 -9z" />
    <path d="M640 1640 l0 -20 22 0 21 0 -18 20 c-10 11 -20 20 -22 20 -1 0 -3 -9
-3 -20z" />
    <path d="M820 1650 c0 -7 3 -10 7 -7 3 4 3 10 0 14 -4 3 -7 0 -7 -7z" />
    <path d="M586 1635 l-5 -15 14 0 c8 0 15 7 15 15 0 8 -4 15 -9 15 -5 0 -11 -7
-15 -15z" />
    <path d="M783 1643 c4 -3 10 -3 14 0 3 4 0 7 -7 7 -7 0 -10 -3 -7 -7z" />
    <path d="M764 1614 c2 -10 8 -20 14 -22 17 -5 15 13 -2 27 l-14 12 2 -17z" />
    <path d="M430 1606 c0 -9 5 -16 10 -16 6 0 10 4 10 9 0 6 -4 13 -10 16 l-10 6
0 -15z" />
    <path d="M190 1580 l0 -30 11 0 11 0 -6 16 c-4 9 -1 23 5 30 l11 14 -16 0 -16
0 0 -30z" />
    <path d="M153 1584 c-3 -8 -1 -20 6 -27 l11 -11 0 27 c0 30 -7 35 -17 11z" />
    <path d="M357 1580 c3 -11 9 -20 14 -20 5 0 9 9 9 20 l0 20 -14 0 -14 0 5 -20z" />
    <path d="M420 1565 c0 -8 4 -15 9 -15 5 0 11 7 15 15 l5 15 -14 0 c-8 0 -15
-7 -15 -15z" />
    <path d="M260 1539 c0 -16 17 -18 35 -5 l19 14 -27 0 c-15 0 -27 -4 -27 -9z" />
    <path d="M340 1535 l-12 -15 16 0 c9 0 16 7 16 15 0 8 -2 15 -4 15 -2 0 -9 -7
-16 -15z" />
    <path d="M505 1509 l-20 -21 28 13 c15 7 27 16 27 21 0 13 -14 8 -35 -13z" />
    <path d="M288 1503 c-10 -2 -18 -11 -18 -19 0 -8 -4 -14 -10 -14 -5 0 -10 -8
-10 -17 l1 -18 20 24 20 25 10 -15 9 -14 10 15 c5 8 10 21 10 28 0 12 -10 13
-42 5z" />
    <path d="M445 1460 l-6 -10 15 0 c9 0 16 5 16 10 0 6 -4 10 -9 10 -6 0 -13 -4
-16 -10z" />
    <path d="M365 1440 c-10 -11 -21 -18 -24 -15 -11 6 -36 -13 -28 -22 5 -4 12
-1 16 6 l9 13 4 -12 c2 -8 12 -14 21 -16 l17 -2 -6 10 c-4 6 3 18 16 28 l22
17 -15 6 -15 6 -17 -19z" />
    <path d="M169 1429 l-11 -21 14 -13 13 -14 28 6 27 5 0 14 0 13 -16 -6 -15 -6
-6 22 c-7 27 -19 27 -34 0z" />
    <path d="M63 1433 c4 -3 10 -3 14 0 3 4 0 7 -7 7 -7 0 -10 -3 -7 -7z" />
    <path d="M77 1413 c-4 -3 -7 -18 -7 -33 l0 -27 15 0 c17 0 20 22 5 32 -5 3 -7
12 -3 20 5 16 1 20 -10 8z" />
    <path d="M383 1413 c4 -3 10 -3 14 0 3 4 0 7 -7 7 -7 0 -10 -3 -7 -7z" />
    <path d="M5 1392 c3 -8 5 -16 5 -18 0 -3 9 0 20 6 28 15 25 30 -5 28 l-25 -2
5 -14z" />
    <path d="M144 1378 l-7 -11 11 7 c12 7 16 16 8 16 -3 0 -8 -5 -12 -12z" />
    <path d="M186 1345 l-5 -15 14 0 c8 0 15 7 15 15 0 8 -4 15 -9 15 -5 0 -11 -7
-15 -15z" />
    <path d="M0 1334 c0 -10 28 -34 39 -34 6 0 11 5 11 10 0 6 -7 10 -15 10 -8 0
-15 5 -15 10 0 6 -4 10 -10 10 -5 0 -10 -3 -10 -6z" />
    <path d="M365 1170 c-3 -6 -21 -18 -38 -27 l-32 -16 -57 1 -58 2 0 -12 c0 -6
3 -9 6 -5 4 3 21 0 38 -7 l31 -13 28 8 c15 4 27 5 27 2 0 -4 9 2 20 12 12 10
30 19 40 20 26 2 34 11 27 30 -7 17 -23 20 -32 5z" />
    <path d="M140 1136 c0 -2 7 -7 16 -10 l15 -6 -6 10 c-6 10 -25 14 -25 6z" />
    <path d="M440 1105 c0 -8 5 -15 10 -15 6 0 10 7 10 15 0 8 -4 15 -10 15 -5 0
-10 -7 -10 -15z" />
    <path d="M260 980 c0 -5 6 -10 14 -10 8 0 18 5 21 10 l6 10 -20 0 c-12 0 -21
-4 -21 -10z" />
    <path d="M355 980 c3 -5 17 -10 31 -10 l25 0 -6 10 c-3 6 -17 10 -31 10 l-25
0 6 -10z" />
    <path d="M405 934 c-18 -28 -14 -44 8 -26 8 7 17 9 20 5 4 -3 7 -1 7 5 0 7 -5
12 -11 12 l-11 0 6 15 c8 23 0 18 -19 -11z" />
    <path d="M230 884 l0 -15 10 6 c6 3 10 10 10 16 0 5 -4 9 -10 9 -5 0 -10 -7
-10 -16z" />
    <path d="M356 848 c-8 -13 -22 -39 -30 -58 -8 -20 -23 -44 -34 -54 l-20 -18
10 -30 11 -30 7 12 8 13 16 -6 c23 -9 31 -36 18 -58 -16 -25 -15 -34 1 -20 8
6 17 8 20 4 4 -3 7 4 7 16 l0 22 12 -7 11 -7 -6 17 c-4 10 -7 22 -7 27 0 6 -4
7 -10 4 l-10 -6 0 16 0 16 11 -6 10 -7 -3 51 c-2 28 -4 51 -6 51 -2 0 -12 -5
-23 -11 l-21 -11 12 22 c6 11 15 18 21 15 l9 -6 0 20 0 21 21 0 21 0 -12 15
c-17 21 -27 19 -44 -7z m-59 -160 l-5 -13 -1 19 c-1 11 2 17 5 13 3 -3 4 -12
1 -19z" />
    <path d="M230 830 c0 -7 3 -10 7 -7 3 4 3 10 0 14 -4 3 -7 0 -7 -7z" />
    <path d="M390 810 c0 -5 5 -10 10 -10 6 0 10 5 10 10 0 6 -4 10 -10 10 -5 0
-10 -4 -10 -10z" />
    <path d="M442 808 c6 -18 28 -21 28 -4 0 9 -7 16 -16 16 -9 0 -14 -5 -12 -12z" />
    <path d="M520 811 c0 -5 5 -13 10 -16 6 -3 10 -2 10 4 0 5 -4 13 -10 16 -5 3
-10 2 -10 -4z" />
    <path d="M210 790 c0 -5 5 -10 10 -10 6 0 10 5 10 10 0 6 -4 10 -10 10 -5 0
-10 -4 -10 -10z" />
    <path d="M450 743 c0 -13 29 -38 35 -31 3 3 -4 13 -15 23 -11 10 -20 13 -20 8z" />
    <path d="M301 613 c-1 -12 4 -25 9 -28 12 -7 12 2 0 30 l-9 20 0 -22z" />
    <path d="M317 529 c6 -23 9 -24 16 -5 3 8 0 17 -7 19 l-14 6 5 -20z" />
    <path d="M367 508 l-17 -13 9 -14 8 -13 21 11 21 11 -5 15 c-7 18 -15 19 -37
3z" />
    <path d="M446 45 l-16 -25 14 0 c7 0 16 10 19 22 4 12 5 24 3 25 -2 2 -11 -8
-20 -22z" />
    <path d="M365 10 c3 -5 10 -10 16 -10 5 0 9 5 9 10 0 6 -7 10 -16 10 l-15 0 6
-10z" />
  </g>
  <g transform="translate(0.000000,199.000000) scale(0.100000,-0.100000)" fill="#c2b7b1" stroke="none">
    <path d="M320 1760 c0 -5 14 -10 30 -10 17 0 30 5 30 10 0 6 -13 10 -30 10
-16 0 -30 -4 -30 -10z" />
    <path d="M205 1750 l-6 -10 20 0 c12 0 21 5 21 10 0 6 -6 10 -14 10 -8 0 -18
-4 -21 -10z" />
    <path d="M380 1715 c0 -8 4 -15 9 -15 5 0 11 7 15 15 l5 15 -14 0 c-8 0 -15
-7 -15 -15z" />
    <path d="M698 1713 c6 -2 18 -2 25 0 6 3 1 5 -13 5 -14 0 -19 -2 -12 -5z" />
    <path d="M740 1700 c0 -7 3 -10 7 -7 3 4 3 10 0 14 -4 3 -7 0 -7 -7z" />
    <path d="M768 1693 c7 -3 16 -2 19 1 4 3 -2 6 -13 5 l-19 -1 13 -5z" />
    <path d="M820 1690 l-15 -10 12 0 c6 0 15 5 18 10 8 12 4 12 -15 0z" />
    <path d="M760 1669 c0 -5 5 -7 10 -4 6 3 10 8 10 11 0 2 -4 4 -10 4 -5 0 -10
-5 -10 -11z" />
    <path d="M620 1645 c0 -8 7 -15 15 -15 8 0 15 7 15 15 0 8 -7 15 -15 15 -8 0
-15 -7 -15 -15z" />
    <path d="M202 1641 c1 -3 -2 -14 -7 -24 -4 -10 -5 -20 -3 -22 5 -5 48 29 48
38 0 2 -9 7 -20 10 -10 3 -19 2 -18 -2z" />
    <path d="M420 1636 c0 -9 5 -16 10 -16 6 0 10 4 10 9 0 6 -4 13 -10 16 l-10 6
0 -15z" />
    <path d="M750 1641 c0 -6 5 -13 12 -17 l11 -7 -7 11 -6 10 17 5 18 5 -22 1
c-13 0 -23 -3 -23 -8z" />
    <path d="M720 1626 c0 -2 7 -7 16 -10 l15 -6 -6 10 c-6 10 -25 14 -25 6z" />
    <path d="M767 1599 c7 -7 15 -10 18 -7 3 3 -2 9 -12 12 l-18 7 12 -12z" />
    <path d="M325 1590 c4 -6 11 -8 16 -5 14 9 11 15 -7 15 l-15 0 6 -10z" />
    <path d="M380 1580 c0 -11 2 -20 5 -20 2 0 9 9 15 20 l11 20 -16 0 -15 0 0
-20z" />
    <path d="M155 1581 c-3 -5 -1 -12 5 -16 l10 -6 0 15 c0 18 -6 21 -15 7z" />
    <path d="M406 1571 c-4 -7 -5 -15 -2 -18 9 -9 19 4 14 18 l-4 13 -8 -13z" />
    <path d="M460 1570 c0 -5 3 -10 8 -11 4 0 15 -2 25 -4 l17 -3 0 15 0 15 -15
-12 -15 -12 0 11 c0 6 -4 11 -10 11 -5 0 -10 -4 -10 -10z" />
    <path d="M190 1556 c0 -8 -5 -16 -11 -18 l-11 -4 15 -12 15 -12 4 25 c3 14 1
28 -3 31 -5 3 -9 -1 -9 -10z" />
    <path d="M426 1535 c-9 -7 -16 -15 -16 -19 0 -11 18 -6 40 12 l23 19 -15 0
c-9 0 -23 -6 -32 -12z" />
    <path d="M325 1520 l-6 -10 15 0 c9 0 16 5 16 10 0 6 -4 10 -9 10 -6 0 -13 -4
-16 -10z" />
    <path d="M174 1445 l-11 -36 11 -6 c20 -13 36 -11 36 3 0 8 5 14 11 14 l10 0
-6 -20 -6 -20 15 0 16 0 0 41 0 41 -25 -6 -25 -6 0 15 c0 27 -15 16 -26 -20z
m13 -22 c-4 -3 -7 0 -7 7 0 7 3 10 7 7 3 -4 3 -10 0 -14z" />
    <path d="M260 1470 c0 -5 5 -10 10 -10 6 0 10 5 10 10 0 6 -4 10 -10 10 -5 0
-10 -4 -10 -10z" />
    <path d="M300 1465 c-7 -9 -11 -18 -8 -20 7 -8 38 5 38 15 0 17 -18 19 -30 5z" />
    <path d="M435 1449 c-4 -6 -12 -8 -19 -6 l-12 5 -1 -19 c-2 -24 13 -25 26 -1
l11 17 9 -14 9 -14 11 7 11 7 -14 15 c-17 17 -23 17 -31 3z" />
    <path d="M77 1419 l7 -23 4 13 c2 7 -1 18 -6 23 l-11 11 6 -24z" />
    <path d="M0 1401 c0 -6 4 -13 10 -16 l10 -6 -6 15 c-7 18 -14 21 -14 7z" />
    <path d="M342 1356 l-10 -23 13 0 c15 0 28 34 16 42 -5 2 -13 -6 -19 -19z" />
    <path d="M86 1341 l-8 -13 11 -11 c14 -14 20 -6 11 17 l-7 20 -7 -13z" />
    <path d="M5 1331 c-3 -5 -1 -12 5 -16 l10 -6 0 15 c0 18 -6 21 -15 7z" />
    <path d="M290 1325 c0 -8 7 -15 15 -15 l14 0 -5 15 c-4 8 -10 15 -15 15 -5 0
-9 -7 -9 -15z" />
    <path d="M146 1284 c-3 -8 -10 -12 -16 -9 l-10 6 0 -17 0 -17 18 16 c10 10 22
14 25 10 4 -3 7 1 7 10 0 21 -16 22 -24 1z" />
    <path d="M230 1277 c0 -8 7 -14 15 -14 8 0 15 6 15 14 0 7 -7 13 -15 13 -8 0
-15 -6 -15 -13z" />
    <path d="M366 1218 c3 -4 17 -8 31 -8 15 0 23 3 20 7 -10 9 -56 10 -51 1z" />
    <path d="M160 1210 c0 -7 3 -10 7 -7 3 4 3 10 0 14 -4 3 -7 0 -7 -7z" />
    <path d="M373 1172 l-13 -8 5 -24 c2 -13 10 -27 17 -31 l13 -8 3 9 c2 5 -2 18
-7 29 l-11 20 21 -4 21 -4 -12 14 c-14 17 -20 18 -37 7z" />
    <path d="M133 1133 c4 -3 10 -3 14 0 3 4 0 7 -7 7 -7 0 -10 -3 -7 -7z" />
    <path d="M430 1120 c17 -33 17 -33 24 -22 3 5 -4 18 -16 28 l-21 19 13 -25z" />
    <path d="M166 1122 c6 -4 14 -14 17 -22 l5 -15 1 23 1 22 -17 0 -18 0 11 -8z" />
    <path d="M225 1120 l-20 -9 32 0 c17 -1 39 -4 49 -8 l17 -6 -5 14 c-5 17 -45
22 -73 9z" />
    <path d="M315 1080 c-3 -5 -1 -10 4 -10 6 0 11 5 11 10 0 6 -2 10 -4 10 -3 0
-8 -4 -11 -10z" />
    <path d="M450 1060 c0 -7 3 -10 7 -7 3 4 3 10 0 14 -4 3 -7 0 -7 -7z" />
    <path d="M190 1020 c0 -7 3 -10 7 -7 3 4 3 10 0 14 -4 3 -7 0 -7 -7z" />
    <path d="M460 1010 c0 -7 3 -10 7 -7 3 4 3 10 0 14 -4 3 -7 0 -7 -7z" />
    <path d="M270 972 l0 -14 15 12 c8 7 15 13 15 15 0 1 -7 2 -15 2 -8 0 -15 -7
-15 -15z" />
    <path d="M420 964 l0 -16 15 12 c8 7 15 14 15 16 0 2 -7 4 -15 4 -8 0 -15 -7
-15 -16z" />
    <path d="M458 953 c-25 -6 -22 -20 4 -26 l22 -6 7 11 c8 13 2 29 -9 27 -4 -1
-15 -3 -24 -6z m29 -10 c-4 -3 -10 -3 -14 0 -3 4 0 7 7 7 7 0 10 -3 7 -7z" />
    <path d="M394 918 c0 -10 5 -17 10 -15 14 5 16 34 2 34 -6 0 -12 -9 -12 -19z" />
    <path d="M510 916 c0 -9 5 -16 10 -16 6 0 10 4 10 9 0 6 -4 13 -10 16 l-10 6
0 -15z" />
    <path d="M230 894 l0 -16 15 12 c8 7 15 14 15 16 0 2 -7 4 -15 4 -8 0 -15 -7
-15 -16z" />
    <path d="M433 869 c-18 -12 -33 -27 -33 -35 0 -8 -6 -14 -14 -14 l-15 0 2 -20
1 -20 23 22 22 21 15 -12 14 -12 7 12 8 11 -14 9 -14 9 19 15 c10 7 16 18 15
24 l-4 10 -32 -20z" />
    <path d="M367 853 c-12 -11 -8 -23 8 -23 8 0 15 7 15 15 0 16 -12 20 -23 8z" />
    <path d="M516 827 c3 -10 9 -15 12 -12 3 3 0 11 -7 18 l-12 12 7 -18z" />
    <path d="M213 793 c4 -3 10 -3 14 0 3 4 0 7 -7 7 -7 0 -10 -3 -7 -7z" />
    <path d="M325 760 c-3 -5 -2 -10 4 -10 5 0 13 5 16 10 3 6 2 10 -4 10 -5 0
-13 -4 -16 -10z" />
    <path d="M373 725 l0 -40 4 23 c2 12 2 30 0 40 -3 9 -5 -1 -4 -23z" />
    <path d="M456 737 c3 -10 9 -15 12 -12 3 3 0 11 -7 18 l-12 12 7 -18z" />
    <path d="M210 736 c0 -2 7 -7 16 -10 l15 -6 -6 10 c-6 10 -25 14 -25 6z" />
    <path d="M263 713 c4 -3 10 -3 14 0 3 4 0 7 -7 7 -7 0 -10 -3 -7 -7z" />
    <path d="M280 690 c0 -7 3 -10 7 -7 3 4 3 10 0 14 -4 3 -7 0 -7 -7z" />
    <path d="M291 654 l1 -19 5 13 c3 7 2 16 -1 19 -3 4 -6 -2 -5 -13z" />
    <path d="M382 630 c0 -14 2 -19 5 -12 2 6 2 18 0 25 -3 6 -5 1 -5 -13z" />
    <path d="M300 606 c0 -8 4 -17 9 -20 l9 -6 -5 20 c-6 23 -13 26 -13 6z" />
    <path d="M390 587 c0 -5 5 -17 10 -27 l10 -20 -12 -19 c-7 -11 -10 -23 -7 -26
8 -8 39 5 39 17 0 5 -5 6 -11 2 l-11 -7 5 19 c4 11 0 30 -8 44 -8 14 -14 21
-15 17z" />
    <path d="M311 554 l1 -19 5 13 c3 7 2 16 -1 19 -3 4 -6 -2 -5 -13z" />
    <path d="M323 497 c4 -10 7 -32 7 -48 l0 -29 11 0 11 0 -6 24 -6 24 23 7 22 7
-20 5 c-11 3 -26 10 -34 17 l-15 11 7 -18z" />
    <path d="M426 481 c-9 -14 4 -61 16 -61 l9 0 -5 31 c-5 36 -11 45 -20 30z" />
    <path d="M340 391 c0 -6 5 -13 10 -16 l10 -6 0 15 c0 9 -4 16 -10 16 -5 0 -10
-4 -10 -9z" />
    <path d="M350 351 c0 -6 5 -13 10 -16 l10 -6 0 15 c0 9 -4 16 -10 16 -5 0 -10
-4 -10 -9z" />
    <path d="M440 331 c0 -17 5 -31 10 -31 6 0 10 11 10 24 0 14 -4 28 -10 31
l-10 6 0 -30z" />
    <path d="M360 301 c0 -6 5 -13 10 -16 l10 -6 0 15 c0 9 -4 16 -10 16 -5 0 -10
-4 -10 -9z" />
    <path d="M474 158 c-4 -13 -11 -26 -16 -29 -5 -3 -6 -13 -2 -23 l7 -17 18 41
c22 49 22 50 10 50 -5 0 -13 -10 -17 -22z" />
    <path d="M364 159 c-3 -6 -1 -16 5 -22 l11 -11 0 22 c0 24 -5 28 -16 11z" />
    <path d="M380 109 c0 -5 5 -7 10 -4 6 3 10 8 10 11 0 2 -4 4 -10 4 -5 0 -10
-5 -10 -11z" />
    <path d="M460 70 c0 -7 3 -10 7 -7 3 4 3 10 0 14 -4 3 -7 0 -7 -7z" />
  </g>
  <g transform="translate(0.000000,199.000000) scale(0.100000,-0.100000)" fill="#948f92" stroke="none">
    <path d="M335 1760 l-6 -10 15 0 c9 0 16 5 16 10 0 6 -4 10 -9 10 -6 0 -13 -4
-16 -10z" />
    <path d="M390 1701 c0 -21 13 -41 26 -41 15 0 18 19 6 35 -9 13 -32 17 -32 6z" />
    <path d="M390 1635 l0 -15 20 0 20 0 0 15 0 15 -20 0 -20 0 0 -15z" />
    <path d="M190 1626 c0 -8 8 -16 18 -20 9 -3 23 -9 30 -12 6 -3 12 -1 12 5 0 6
-7 11 -15 11 -8 0 -15 4 -15 9 0 5 -7 11 -15 15 l-15 5 0 -13z" />
    <path d="M550 1600 c0 -6 -4 -9 -8 -6 -12 7 -36 -39 -28 -53 10 -16 55 -9 73
11 9 10 12 18 7 18 -5 0 -2 4 6 10 18 11 13 16 -23 25 l-27 7 0 -12z" />
    <path d="M390 1504 l0 -16 15 12 c8 7 15 14 15 16 0 2 -7 4 -15 4 -8 0 -15 -7
-15 -16z" />
    <path d="M260 1495 c0 -16 16 -20 24 -6 3 5 -1 11 -9 15 l-15 5 0 -14z" />
    <path d="M320 1495 c0 -8 7 -15 15 -15 8 0 15 7 15 15 0 8 -7 15 -15 15 -8 0
-15 -7 -15 -15z" />
    <path d="M184 1478 c3 -13 6 -27 6 -32 0 -4 11 -6 24 -4 l24 5 -3 -39 -3 -38
14 0 14 0 0 44 0 44 -30 12 c-16 7 -30 16 -30 21 0 5 -5 9 -11 9 l-11 0 6 -22z" />
    <path d="M472 1478 c-7 -7 -12 -18 -12 -25 0 -7 -7 -13 -15 -13 -8 0 -15 -5
-15 -11 l0 -11 23 6 c12 3 25 6 28 6 3 0 6 13 5 30 -1 16 -1 30 -1 30 -1 0 -6
-5 -13 -12z" />
    <path d="M300 1445 c0 -8 7 -15 15 -15 8 0 15 7 15 15 0 8 -7 15 -15 15 -8 0
-15 -7 -15 -15z" />
    <path d="M393 1424 c0 -16 13 -19 21 -5 3 5 0 11 -7 14 l-14 5 0 -14z" />
    <path d="M57 1298 l-6 -22 12 -8 c7 -4 12 -13 12 -20 0 -7 9 -13 20 -13 l20 0
3 23 4 24 -21 19 c-11 10 -24 19 -29 19 -6 0 -12 -10 -15 -22z" />
    <path d="M390 1184 l0 -15 10 6 c6 4 8 11 5 16 -9 14 -15 11 -15 -7z" />
    <path d="M390 1147 c-13 -7 -25 -17 -27 -24 l-4 -12 20 2 c12 1 21 7 21 14 l0
12 15 -5 c8 -4 15 -1 15 4 0 18 -15 21 -40 9z" />
    <path d="M320 1140 c0 -5 4 -10 9 -10 6 0 13 5 16 10 l6 10 -15 0 c-9 0 -16
-4 -16 -10z" />
    <path d="M310 1069 c0 -5 5 -7 10 -4 6 3 10 8 10 11 0 2 -4 4 -10 4 -5 0 -10
-5 -10 -11z" />
    <path d="M447 942 c-10 -10 -17 -22 -17 -25 0 -11 39 16 44 30 8 19 -8 16 -27
-5z" />
    <path d="M474 925 c-9 -14 -14 -28 -11 -32 7 -6 46 36 47 50 0 16 -20 6 -36
-18z" />
    <path d="M380 890 c-6 -11 -7 -20 -3 -20 5 0 14 9 21 20 l12 20 -10 0 c-5 0
-14 -9 -20 -20z" />
    <path d="M446 865 c-8 -8 -19 -15 -25 -15 -16 0 -13 -17 4 -24 l15 -5 0 14 c0
21 12 19 33 -6 l18 -21 14 12 14 11 -21 25 c-12 13 -25 24 -29 24 -4 0 -14 -7
-23 -15z" />
    <path d="M510 864 l0 -15 10 6 c6 3 10 10 10 16 0 5 -4 9 -10 9 -5 0 -10 -7
-10 -16z" />
    <path d="M355 841 c-12 -11 -3 -21 20 -21 l25 0 0 14 0 15 -20 -2 c-12 -1 -23
-3 -25 -6z" />
    <path d="M387 513 c-4 -3 -7 -13 -7 -21 l0 -14 15 12 c8 7 15 16 15 21 0 11
-14 12 -23 2z" />
    <path d="M333 488 c2 -7 10 -13 17 -13 7 0 15 6 18 13 l4 12 -22 0 -22 0 5
-12z" />
    <path d="M420 441 c0 -17 12 -41 21 -41 5 0 8 11 7 25 l-2 25 -13 0 c-7 0 -13
-4 -13 -9z" />
    <path d="M357 393 c-3 -15 0 -53 6 -85 l11 -58 23 0 23 0 0 41 c0 22 -5 60
-11 85 l-11 44 -18 0 -18 0 -5 -27z" />
    <path d="M450 265 c0 -8 7 -15 15 -15 l14 0 -5 15 c-4 8 -10 15 -15 15 -5 0
-9 -7 -9 -15z" />
    <path d="M372 183 c-2 -29 0 -58 3 -63 l6 -10 19 10 18 10 4 -12 4 -11 25 6
25 6 12 34 c7 18 12 36 12 40 0 4 -9 7 -20 7 l-20 0 0 19 0 19 -42 0 -43 -1
-3 -54z" />
  </g>
  <g transform="translate(0.000000,199.000000) scale(0.100000,-0.100000)" fill="#7c7b87" stroke="none">
    <path d="M362 1744 c2 -11 11 -20 22 -22 l18 -4 -4 18 c-2 11 -11 20 -22 22
l-18 4 4 -18z" />
    <path d="M400 1658 l0 -18 15 0 15 0 0 18 0 19 -15 0 -15 0 0 -19z" />
    <path d="M190 1615 c0 -6 7 -12 15 -12 8 0 15 6 15 12 0 6 -7 12 -15 12 -8 0
-15 -6 -15 -12z" />
    <path d="M237 1616 c-3 -8 -2 -18 3 -21 13 -8 24 15 12 27 l-9 9 -6 -15z" />
    <path d="M570 1620 c-8 -5 -11 -12 -7 -16 4 -4 13 -2 19 4 15 15 7 24 -12 12z" />
    <path d="M333 1613 c-22 -8 -14 -23 12 -23 l25 0 0 15 c0 15 -14 18 -37 8z" />
    <path d="M520 1575 c-7 -9 -10 -18 -7 -21 3 -3 10 4 17 15 13 25 8 27 -10 6z" />
    <path d="M535 1540 c-3 -5 -1 -10 4 -10 6 0 11 5 11 10 0 6 -2 10 -4 10 -3 0
-8 -4 -11 -10z" />
    <path d="M190 1515 c0 -8 5 -15 10 -15 6 0 10 7 10 15 0 8 -4 15 -10 15 -5 0
-10 -7 -10 -15z" />
    <path d="M230 1498 c0 -4 -7 -8 -15 -8 -22 0 -18 -17 5 -30 11 -6 18 -15 16
-19 -3 -4 1 -8 8 -8 l12 0 2 37 3 37 -16 0 c-8 0 -15 -4 -15 -9z" />
    <path d="M340 1501 c0 -5 3 -17 6 -25 l6 -17 14 11 c7 7 10 18 7 26 -6 15 -33
20 -33 5z" />
    <path d="M435 1445 l-30 -25 28 3 c16 2 33 10 38 18 l9 14 0 -14 c0 -8 2 -12
5 -9 7 6 -5 38 -14 38 -3 0 -19 -11 -36 -25z" />
    <path d="M287 1444 c-4 -4 -7 -14 -7 -21 l0 -14 18 3 c9 2 17 10 17 17 0 16
-18 25 -28 15z" />
    <path d="M100 1291 c0 -5 5 -13 10 -16 6 -3 10 -2 10 4 0 5 -4 13 -10 16 -5 3
-10 2 -10 -4z" />
    <path d="M95 1250 c3 -5 8 -10 11 -10 3 0 2 5 -1 10 -3 6 -8 10 -11 10 -3 0
-2 -4 1 -10z" />
    <path d="M350 1154 l0 -16 15 12 c8 7 15 14 15 16 0 2 -7 4 -15 4 -8 0 -15 -7
-15 -16z" />
    <path d="M400 1140 c0 -5 4 -10 9 -10 6 0 13 5 16 10 l6 10 -15 0 c-9 0 -16
-4 -16 -10z" />
    <path d="M310 1116 c0 -9 5 -16 10 -16 6 0 10 4 10 9 0 6 -4 13 -10 16 l-10 6
0 -15z" />
    <path d="M355 1119 c-11 -17 1 -21 15 -4 l12 15 -10 0 c-6 0 -14 -5 -17 -11z" />
    <path d="M445 940 l-18 -20 11 0 c7 0 12 5 12 11 0 5 4 8 8 5 5 -3 9 1 9 9 0
8 -1 15 -2 15 -1 0 -10 -9 -20 -20z" />
    <path d="M510 890 l0 -31 10 6 c6 3 10 15 10 25 0 10 -4 22 -10 25 l-10 6 0
-31z" />
    <path d="M460 882 c0 -4 6 -14 13 -21 l12 -14 -19 10 -18 10 -24 -11 c-13 -6
-24 -17 -24 -25 l0 -13 15 12 c8 7 15 8 15 4 0 -15 38 -34 55 -28 8 3 15 13
15 21 l0 14 -11 -6 -10 -7 2 13 c3 28 -1 49 -11 49 -5 0 -10 -4 -10 -8z" />
    <path d="M356 832 c-3 -6 -1 -14 5 -17 15 -10 25 3 12 16 l-11 11 -6 -10z" />
    <path d="M365 501 c-16 -9 -31 -23 -33 -31 l-3 -15 12 13 c7 6 21 12 30 12 9
0 20 7 23 16 4 9 5 18 4 19 -2 2 -16 -5 -33 -14z" />
    <path d="M420 453 c0 -8 -4 -12 -10 -8 -15 9 -58 -5 -64 -22 -8 -20 4 -64 15
-57 5 3 9 14 9 25 0 10 4 19 9 19 11 0 31 -79 31 -122 l-1 -33 -14 25 c-16 27
-16 27 -21 -12 -1 -15 1 -30 7 -33 l9 -6 -11 -20 c-5 -11 -8 -28 -4 -38 l5
-18 18 1 c9 1 29 10 44 20 16 10 35 16 43 12 l15 -5 0 30 0 30 -9 -5 c-5 -3
-16 5 -25 19 l-16 25 10 0 11 0 -10 18 c-5 10 -11 44 -12 75 l-2 57 -11 0 -11
0 10 8 c16 11 15 29 -1 29 -7 0 -14 -7 -14 -14z m30 -236 c0 -7 -6 -21 -13
-31 l-14 -18 -20 6 -21 7 5 19 c4 16 13 21 56 29 4 0 7 -5 7 -12z" />
    <path d="M367 353 c-4 -3 -7 -13 -7 -22 l1 -16 10 18 c11 19 8 33 -4 20z" />
    <path d="M470 149 c0 -5 5 -7 10 -4 6 3 10 8 10 11 0 2 -4 4 -10 4 -5 0 -10
-5 -10 -11z" />
    <path d="M377 123 l5 -13 39 2 c21 2 39 6 39 10 0 9 -36 17 -66 15 l-22 -1 5
-13z" />
  </g>
  <g transform="translate(0.000000,199.000000) scale(0.100000,-0.100000)" fill="#f9ed80" stroke="none">
    <path d="M232 1761 l-33 -19 -20 -38 -19 -38 12 -8 13 -7 -13 -13 c-13 -13
-17 -68 -4 -68 9 0 27 33 37 68 l6 22 -15 0 c-9 0 -16 5 -16 11 l0 11 15 -6
15 -5 10 19 11 20 24 0 c13 0 27 -4 30 -10 l6 -10 -18 7 -18 7 15 -19 15 -18
-28 18 -28 18 3 -14 c3 -14 43 -39 63 -39 7 0 15 -7 19 -15 3 -8 14 -15 25
-15 l19 0 6 -25 c7 -28 21 -33 30 -10 6 18 -2 45 -15 45 -5 0 -9 18 -9 39 0
22 -4 42 -10 46 -14 8 0 35 18 35 31 0 1 13 -35 15 -21 1 -47 5 -58 8 l-20 6
-33 -18z m83 -41 l6 -10 -15 0 c-9 0 -16 5 -16 10 0 6 4 10 9 10 6 0 13 -4 16
-10z" />
    <path d="M500 1569 c0 -8 7 -24 15 -35 l14 -19 1 16 c0 8 -7 24 -15 35 l-14
19 -1 -16z" />
    <path d="M300 1461 c-13 -25 -13 -30 3 -27 21 3 37 17 37 33 l0 15 -17 -13
-17 -14 8 13 c4 6 5 12 2 12 -3 0 -10 -9 -16 -19z" />
    <path d="M183 1424 c-15 -16 -17 -54 -3 -54 6 0 10 9 10 19 0 11 4 21 10 23 5
2 6 8 2 14 l-7 12 -12 -14z" />
    <path d="M60 1336 c0 -9 7 -16 16 -16 9 0 14 5 12 12 -6 18 -28 21 -28 4z" />
    <path d="M183 1343 c-12 -2 -27 -11 -33 -19 l-12 -14 12 -14 c13 -17 40 -10
40 10 0 8 7 14 15 14 8 0 15 7 15 15 0 8 -3 14 -7 14 -5 -1 -18 -4 -30 -6z" />
    <path d="M240 1325 c0 -8 7 -15 15 -15 8 0 15 7 15 15 0 8 -7 15 -15 15 -8 0
-15 -7 -15 -15z" />
    <path d="M10 1311 c0 -6 5 -13 10 -16 l10 -6 0 15 c0 9 -4 16 -10 16 -5 0 -10
-4 -10 -9z" />
    <path d="M250 1273 c0 -14 19 -38 25 -32 8 8 -5 39 -16 39 -5 0 -9 -3 -9 -7z" />
    <path d="M180 1251 c0 -10 50 -25 58 -16 8 7 1 11 -30 19 l-28 6 0 -9z" />
    <path d="M265 980 c-3 -5 -1 -10 4 -10 6 0 11 5 11 10 0 6 -2 10 -4 10 -3 0
-8 -4 -11 -10z" />
    <path d="M318 983 c12 -2 30 -2 40 0 9 3 -1 5 -23 4 l-40 0 23 -4z" />
    <path d="M200 906 c0 -2 9 -6 20 -9 11 -3 20 -1 20 4 0 5 -9 9 -20 9 -11 0
-20 -2 -20 -4z" />
    <path d="M380 845 c7 -9 15 -13 17 -11 7 7 -7 26 -19 26 l-10 0 12 -15z" />
    <path d="M385 810 c4 -6 11 -8 16 -5 14 9 11 15 -7 15 l-15 0 6 -10z" />
    <path d="M460 800 c0 -5 4 -10 9 -10 6 0 13 5 16 10 l6 10 -15 0 c-9 0 -16 -4
-16 -10z" />
    <path d="M499 734 l-24 -27 14 5 c13 4 49 48 39 48 -2 0 -15 -12 -29 -26z" />
    <path d="M406 465 c-11 -8 -33 -15 -49 -15 l-28 0 6 -10 c13 -21 88 -2 99 26
7 18 -4 17 -28 -1z" />
    <path d="M398 108 l12 -12 12 12 12 12 -24 0 -24 0 12 -12z" />
    <path d="M375 10 c3 -5 17 -10 31 -10 13 0 24 5 24 10 0 6 -14 10 -31 10 l-30
0 6 -10z" />
  </g>
  <g transform="translate(0.000000,199.000000) scale(0.100000,-0.100000)" fill="#c1a688" stroke="none">
    <path d="M239 1763 l-14 -17 20 9 c11 4 28 8 37 9 9 0 14 4 12 8 -9 14 -41 9
-55 -9z" />
    <path d="M350 1749 c0 -16 29 -41 40 -34 14 9 12 25 -2 23 -7 -2 -12 3 -10 10
1 6 -5 12 -13 12 -8 0 -15 -5 -15 -11z" />
    <path d="M620 1645 l0 -25 23 0 22 1 -19 14 c-11 8 -14 15 -8 15 7 0 12 5 12
10 0 6 -7 10 -15 10 l-15 0 0 -25z" />
    <path d="M300 1651 c0 -6 5 -13 10 -16 6 -4 8 -10 5 -15 -3 -5 -1 -11 4 -15
l10 -6 -2 31 -2 30 -12 0 c-7 0 -13 -4 -13 -9z" />
    <path d="M225 1630 l-6 -10 16 0 16 0 -6 10 c-3 6 -8 10 -10 10 -2 0 -7 -4
-10 -10z" />
    <path d="M420 1626 c0 -9 5 -16 10 -16 6 0 10 4 10 9 0 6 -4 13 -10 16 l-10 6
0 -15z" />
    <path d="M183 1609 c-1 -10 2 -19 8 -19 11 0 12 27 1 34 -4 2 -9 -4 -9 -15z" />
    <path d="M352 1613 c3 -20 26 -33 46 -26 6 3 12 10 12 15 l0 10 -21 -5 -21 -6
6 15 5 14 -15 0 -15 0 3 -17z" />
    <path d="M583 1605 c0 -8 6 -15 14 -15 7 0 13 7 13 15 0 8 -6 15 -13 15 -8 0
-14 -7 -14 -15z" />
    <path d="M445 1570 c3 -5 13 -10 21 -10 8 0 12 5 9 10 -3 6 -13 10 -21 10 -8
0 -12 -4 -9 -10z" />
    <path d="M403 1552 c-6 -26 -33 -30 -33 -5 l0 17 -12 -12 -13 -13 15 -9 15
-10 -10 -7 c-14 -11 -17 -33 -5 -33 15 0 50 33 50 47 0 17 17 17 23 1 2 -7 8
-10 12 -6 4 4 -3 17 -14 30 l-22 23 -6 -23z" />
    <path d="M510 1559 c0 -22 13 -36 33 -36 l18 0 -13 11 c-7 6 -19 17 -25 25
l-13 15 0 -15z" />
    <path d="M172 1553 c-15 -6 -6 -23 14 -23 8 0 14 7 14 15 0 15 -6 17 -28 8z" />
    <path d="M240 1515 c0 -2 7 -10 15 -19 l16 -15 24 9 24 9 -5 -17 -6 -17 16 19
c16 20 21 36 11 36 -4 0 -19 -7 -35 -15 -17 -9 -30 -11 -30 -6 0 5 -7 11 -15
15 -8 3 -15 4 -15 1z" />
    <path d="M484 1488 l-7 -11 11 7 c12 7 16 16 8 16 -3 0 -8 -5 -12 -12z" />
    <path d="M189 1485 c-8 -14 4 -50 19 -52 6 -2 12 2 12 7 0 6 -4 10 -9 10 -5 0
-11 10 -13 23 -2 12 -6 18 -9 12z" />
    <path d="M327 1463 c-9 -14 2 -45 13 -38 4 3 6 -12 3 -34 l-5 -38 10 -7 10 -6
4 45 c2 25 0 45 -3 45 -3 0 -10 10 -16 22 l-9 22 -7 -11z" />
    <path d="M246 1432 c-2 -2 -1 -12 1 -23 l6 -20 16 3 c9 2 17 13 19 25 l3 22
-21 -2 c-11 -1 -23 -3 -24 -5z" />
    <path d="M170 1420 c0 -5 5 -10 11 -10 5 0 7 5 4 10 -3 6 -8 10 -11 10 -2 0
-4 -4 -4 -10z" />
    <path d="M15 1390 c-8 -13 5 -13 25 0 l15 10 -17 0 c-9 0 -20 -4 -23 -10z" />
    <path d="M192 1375 l3 -20 25 0 25 0 0 15 c0 8 -9 16 -20 18 l-20 3 15 -10 c8
-6 10 -11 5 -11 -6 0 -17 6 -24 13 l-13 12 4 -20z" />
    <path d="M56 1308 c-9 -34 -8 -38 10 -31 l15 6 -5 14 -6 14 10 -6 c6 -3 10 1
10 9 0 24 -27 19 -34 -6z" />
    <path d="M313 1323 c-15 -5 -18 -53 -4 -53 8 0 25 49 19 55 -2 1 -9 0 -15 -2z" />
    <path d="M104 1264 l0 -34 13 11 c16 14 17 33 1 47 l-13 10 -1 -34z" />
    <path d="M160 1284 l0 -15 10 6 c6 3 10 10 10 16 0 5 -4 9 -10 9 -5 0 -10 -7
-10 -16z" />
    <path d="M386 1185 c-3 -8 -1 -15 4 -15 6 0 10 7 10 15 0 8 -2 15 -4 15 -2 0
-6 -7 -10 -15z" />
    <path d="M330 1155 c-14 -8 -43 -21 -65 -30 l-40 -16 33 5 32 6 0 -13 0 -12
10 15 c5 8 10 11 10 6 0 -6 6 -1 14 9 l13 18 15 -6 16 -6 -5 20 c-3 10 -6 19
-7 18 0 0 -12 -7 -26 -14z" />
    <path d="M173 1123 c4 -3 10 -3 14 0 3 4 0 7 -7 7 -7 0 -10 -3 -7 -7z" />
    <path d="M426 1112 c-2 -4 4 -9 15 -9 l19 -2 -5 10 c-7 11 -22 12 -29 1z" />
    <path d="M314 1068 l-7 -11 11 7 c12 7 16 16 8 16 -3 0 -8 -5 -12 -12z" />
    <path d="M433 982 c-24 -2 -43 -7 -43 -12 l0 -9 43 5 c40 6 55 11 46 17 -2 1
-23 1 -46 -1z" />
    <path d="M265 970 c3 -5 8 -10 11 -10 2 0 4 5 4 10 0 6 -5 10 -11 10 -5 0 -7
-4 -4 -10z" />
    <path d="M230 890 c0 -11 2 -20 4 -20 2 0 6 9 9 20 3 11 1 20 -4 20 -5 0 -9
-9 -9 -20z" />
    <path d="M360 846 l-16 -33 13 0 c7 0 10 4 7 8 -2 4 3 14 11 22 16 16 20 37 8
37 -5 -1 -15 -16 -23 -34z" />
    <path d="M487 823 c-4 -3 -7 -11 -7 -17 l0 -10 12 12 c6 6 9 14 7 17 -3 3 -9
2 -12 -2z" />
    <path d="M520 815 c0 -5 5 -17 10 -25 5 -8 10 -10 10 -5 0 6 -5 17 -10 25 -5
8 -10 11 -10 5z" />
    <path d="M307 745 c-20 -14 -37 -28 -37 -31 0 -3 12 3 28 14 15 10 36 24 47
30 11 6 15 12 10 12 -6 0 -27 -11 -48 -25z" />
    <path d="M372 680 c0 -14 2 -19 5 -12 2 6 2 18 0 25 -3 6 -5 1 -5 -13z" />
    <path d="M380 610 c0 -7 3 -10 7 -7 3 4 3 10 0 14 -4 3 -7 0 -7 -7z" />
    <path d="M311 574 l1 -19 5 13 c3 7 2 16 -1 19 -3 4 -6 -2 -5 -13z" />
    <path d="M320 511 c0 -6 4 -13 10 -16 l10 -6 -6 15 c-7 18 -14 21 -14 7z" />
    <path d="M470 130 c0 -7 3 -10 7 -7 3 4 3 10 0 14 -4 3 -7 0 -7 -7z" />
    <path d="M388 113 c7 -3 16 -2 19 1 4 3 -2 6 -13 5 l-19 -1 13 -5z" />
  </g>
  <g transform="translate(0.000000,199.000000) scale(0.100000,-0.100000)" fill="#60606c" stroke="none">
    <path d="M350 1755 l0 -14 15 5 c8 4 15 7 15 9 0 2 -7 5 -15 9 l-15 5 0 -14z" />
    <path d="M400 1649 c0 -4 7 -9 15 -13 l15 -5 0 13 c0 7 -7 13 -15 13 -8 0 -15
-4 -15 -8z" />
    <path d="M319 1619 c4 -11 10 -20 14 -20 4 1 7 3 7 6 0 3 0 9 0 14 0 5 -7 11
-14 14 l-15 6 8 -20z" />
    <path d="M400 1528 c0 -9 -6 -18 -12 -21 -7 -2 -10 -8 -6 -12 4 -4 15 0 24 9
l17 17 -12 12 -11 11 0 -16z" />
    <path d="M213 1513 c-7 -2 -13 -13 -13 -24 l0 -18 16 6 17 6 12 -16 12 -17 13
14 c15 19 3 39 -17 32 l-15 -6 6 15 5 15 -12 -1 c-7 0 -18 -3 -24 -6z" />
    <path d="M430 1439 l-35 -31 25 13 c14 7 32 12 40 10 8 -2 12 0 8 5 -4 4 -3
13 3 21 21 25 -6 13 -41 -18z" />
    <path d="M290 1366 c0 -9 5 -16 10 -16 6 0 10 4 10 9 0 6 -4 13 -10 16 l-10 6
0 -15z" />
    <path d="M387 1130 c3 -11 9 -20 14 -20 5 0 9 9 9 20 l0 20 -14 0 -14 0 5 -20z" />
    <path d="M310 1110 c0 -5 5 -10 11 -10 5 0 7 5 4 10 -3 6 -8 10 -11 10 -2 0
-4 -4 -4 -10z" />
    <path d="M180 1050 c0 -7 3 -10 7 -7 3 4 3 10 0 14 -4 3 -7 0 -7 -7z" />
    <path d="M477 920 l-18 -30 18 -30 17 -30 -19 -15 -20 -14 15 0 c8 0 23 11 34
25 l18 25 0 36 c0 19 -6 42 -14 49 l-14 14 -17 -30z" />
    <path d="M363 825 l0 -26 14 5 c8 3 19 6 24 6 5 0 9 9 9 20 0 22 -15 27 -23 8
l-5 -13 -10 14 -9 13 0 -27z" />
    <path d="M445 839 c-10 -15 1 -23 20 -15 9 3 13 10 10 16 -8 13 -22 13 -30 -1z" />
    <path d="M365 499 c-4 -6 -13 -8 -21 -5 -8 3 -14 1 -14 -4 0 -6 13 -9 29 -8
l29 2 -5 13 c-6 16 -10 16 -18 2z" />
    <path d="M408 459 l-17 -9 14 -27 c8 -15 17 -52 21 -82 3 -31 12 -66 20 -78 8
-12 14 -32 14 -43 l0 -21 11 7 c6 3 15 0 20 -7 l8 -14 -2 22 -1 22 -10 -6 -9
-6 6 17 7 17 -15 5 -14 6 6 14 5 14 -12 0 c-6 0 -8 5 -5 10 3 6 1 10 -4 10
l-11 0 -1 43 c0 23 -3 59 -7 79 l-7 37 -17 -10z" />
    <path d="M340 420 c0 -11 2 -20 5 -20 2 0 9 9 15 20 l11 20 -16 0 -15 0 0 -20z" />
    <path d="M380 240 c0 -5 5 -10 11 -10 5 0 7 5 4 10 -3 6 -8 10 -11 10 -2 0 -4
-4 -4 -10z" />
    <path d="M375 170 c3 -5 8 -10 11 -10 3 0 2 5 -1 10 -3 6 -8 10 -11 10 -3 0
-2 -4 1 -10z" />
  </g>
  <g transform="translate(0.000000,199.000000) scale(0.100000,-0.100000)" fill="#dbc482" stroke="none">
    <path d="M238 1761 l-18 -18 15 0 c8 0 15 4 15 9 0 5 5 6 10 3 l10 -6 0 15 c0
20 -11 19 -32 -3z" />
    <path d="M315 1760 l-6 -10 16 0 16 0 -6 10 c-3 6 -8 10 -10 10 -2 0 -7 -4
-10 -10z" />
    <path d="M190 1730 c0 -7 3 -10 7 -7 3 4 3 10 0 14 -4 3 -7 0 -7 -7z" />
    <path d="M380 1706 c0 -9 5 -16 10 -16 6 0 10 4 10 9 0 6 -4 13 -10 16 l-10 6
0 -15z" />
    <path d="M410 1691 c0 -5 5 -13 10 -16 6 -3 10 -2 10 4 0 5 -4 13 -10 16 -5 3
-10 2 -10 -4z" />
    <path d="M163 1673 l-7 -17 12 -4 c7 -2 10 -8 7 -12 -3 -5 -1 -12 5 -15 l10
-6 -2 13 c-2 7 3 12 10 11 l12 -3 0 21 0 21 -15 -12 c-14 -11 -19 -7 -16 13 2
14 -10 7 -16 -10z" />
    <path d="M243 1682 l-13 -8 46 -22 c25 -12 43 -18 39 -12 l-6 10 14 0 c8 0 18
7 21 16 l6 17 -14 -12 -14 -12 -5 13 -5 13 -1 -12 c-1 -7 -5 -13 -11 -13 -5 0
-7 7 -4 15 l6 15 -11 0 c-6 0 -10 -3 -10 -7 3 -21 -2 -25 -13 -10 l-13 17 -12
-8z" />
    <path d="M607 1665 l-18 -25 13 0 c18 1 48 25 48 39 0 19 -24 11 -43 -14z" />
    <path d="M386 1621 c-6 -9 27 -51 40 -51 3 0 4 12 2 27 l-3 28 -17 3 c-9 2
-19 -1 -22 -7z" />
    <path d="M640 1610 l0 -20 28 6 c34 8 36 10 27 23 -3 6 -17 11 -31 11 l-24 0
0 -20z" />
    <path d="M710 1619 c0 -5 5 -7 10 -4 6 3 10 8 10 11 0 2 -4 4 -10 4 -5 0 -10
-5 -10 -11z" />
    <path d="M593 1605 l0 -16 15 3 c9 2 17 9 20 16 l4 12 -19 0 -20 0 0 -15z" />
    <path d="M180 1585 c0 -8 5 -15 10 -15 6 0 10 7 10 15 0 8 -4 15 -10 15 -5 0
-10 -7 -10 -15z" />
    <path d="M440 1585 c0 -8 7 -15 16 -15 l16 0 -12 15 c-7 8 -14 15 -16 15 -2 0
-4 -7 -4 -15z" />
    <path d="M366 1571 c-10 -16 3 -51 20 -51 17 0 17 8 0 39 l-13 24 -7 -12z" />
    <path d="M160 1550 c0 -5 5 -10 10 -10 6 0 10 5 10 10 0 6 -4 10 -10 10 -5 0
-10 -4 -10 -10z" />
    <path d="M430 1546 c0 -9 5 -16 10 -16 6 0 10 4 10 9 0 6 -4 13 -10 16 l-10 6
0 -15z" />
    <path d="M525 1520 c3 -5 8 -10 11 -10 2 0 4 5 4 10 0 6 -5 10 -11 10 -5 0 -7
-4 -4 -10z" />
    <path d="M330 1505 l12 -15 -10 0 -10 0 5 -20 c8 -30 22 -34 31 -9 l9 22 -19
19 c-22 22 -36 24 -18 3z" />
    <path d="M192 1450 c0 -14 2 -19 5 -12 2 6 2 18 0 25 -3 6 -5 1 -5 -13z" />
    <path d="M287 1445 l-17 -24 -14 5 -13 5 -6 -15 c-4 -9 -11 -16 -18 -16 -6 0
-9 6 -6 13 l5 14 -24 -5 c-13 -2 -24 -8 -24 -13 0 -5 8 -5 17 -2 l16 6 -5 -14
-6 -15 24 -2 24 -2 -3 12 c-1 7 4 13 11 14 6 1 15 3 20 4 4 1 13 3 21 4 l14 1
3 28 c1 15 2 27 1 27 -1 0 -10 -12 -20 -25z" />
    <path d="M320 1424 l0 -15 10 6 c6 3 10 10 10 16 0 5 -4 9 -10 9 -5 0 -10 -7
-10 -16z" />
    <path d="M347 1373 c8 -52 13 -54 13 -5 0 23 -4 42 -9 42 l-10 0 6 -37z" />
    <path d="M70 1380 c0 -5 5 -10 10 -10 6 0 10 5 10 10 0 6 -4 10 -10 10 -5 0
-10 -4 -10 -10z" />
    <path d="M227 1363 c-12 -11 -8 -23 8 -23 8 0 15 7 15 15 0 16 -12 20 -23 8z" />
    <path d="M280 1345 c0 -8 6 -15 13 -15 8 0 14 7 14 15 0 8 -6 15 -14 15 -7 0
-13 -7 -13 -15z" />
    <path d="M15 1315 c3 -16 13 -37 21 -45 l14 -14 0 14 c0 8 -10 29 -21 45 l-21
30 7 -30z" />
    <path d="M60 1325 c0 -6 7 -12 15 -12 8 0 15 6 15 12 0 6 -7 12 -15 12 -8 0
-15 -6 -15 -12z" />
    <path d="M220 1291 l0 -20 20 2 20 1 0 18 0 18 -20 0 -20 0 0 -19z" />
    <path d="M300 1294 l0 -16 15 12 c8 7 15 14 15 16 0 2 -7 4 -15 4 -8 0 -15 -7
-15 -16z" />
    <path d="M110 1255 l-12 -15 10 0 c12 0 26 19 19 26 -2 2 -10 -2 -17 -11z" />
    <path d="M270 1254 l0 -16 15 12 c8 7 15 14 15 16 0 2 -7 4 -15 4 -8 0 -15 -7
-15 -16z" />
    <path d="M230 1246 c0 -9 5 -16 10 -16 6 0 10 4 10 9 0 6 -4 13 -10 16 l-10 6
0 -15z" />
    <path d="M320 1139 c0 -5 5 -7 10 -4 6 3 10 8 10 11 0 2 -4 4 -10 4 -5 0 -10
-5 -10 -11z" />
    <path d="M293 1133 c4 -3 10 -3 14 0 3 4 0 7 -7 7 -7 0 -10 -3 -7 -7z" />
    <path d="M293 983 c4 -3 10 -3 14 0 3 4 0 7 -7 7 -7 0 -10 -3 -7 -7z" />
    <path d="M384 971 c3 -5 15 -7 26 -4 28 7 25 13 -6 13 -14 0 -23 -4 -20 -9z" />
    <path d="M453 973 c4 -3 10 -3 14 0 3 4 0 7 -7 7 -7 0 -10 -3 -7 -7z" />
    <path d="M235 910 l-6 -10 15 0 c9 0 16 5 16 10 0 6 -4 10 -9 10 -6 0 -13 -4
-16 -10z" />
    <path d="M193 903 c4 -3 10 -3 14 0 3 4 0 7 -7 7 -7 0 -10 -3 -7 -7z" />
    <path d="M500 840 c0 -5 5 -10 10 -10 6 0 10 5 10 10 0 6 -4 10 -10 10 -5 0
-10 -4 -10 -10z" />
    <path d="M470 810 c-8 -5 -12 -11 -9 -14 2 -3 11 -1 19 4 8 5 12 11 9 14 -2 3
-11 1 -19 -4z" />
    <path d="M520 764 l0 -15 10 6 c6 3 10 10 10 16 0 5 -4 9 -10 9 -5 0 -10 -7
-10 -16z" />
    <path d="M483 713 c4 -3 10 -3 14 0 3 4 0 7 -7 7 -7 0 -10 -3 -7 -7z" />
    <path d="M333 433 c0 -7 5 -12 11 -10 15 5 18 24 3 24 -8 0 -14 -6 -14 -14z" />
    <path d="M438 30 c-20 -19 -23 -30 -8 -30 9 0 35 39 28 45 -2 1 -11 -5 -20
-15z" />
    <path d="M375 10 c3 -5 8 -10 11 -10 3 0 2 5 -1 10 -3 6 -8 10 -11 10 -3 0 -2
-4 1 -10z" />
  </g>
  <g transform="translate(0.000000,199.000000) scale(0.100000,-0.100000)" fill="#fad313" stroke="none">
    <path d="M355 1719 l7 -32 -11 7 -11 7 0 -15 c0 -8 9 -18 20 -21 23 -7 26 -21
8 -28 l-13 -5 14 -11 15 -10 13 17 c15 21 17 58 2 67 -6 4 -8 14 -5 22 l6 14
-10 -6 c-6 -3 -10 -2 -10 3 0 6 -7 13 -16 16 l-16 6 7 -31z" />
    <path d="M617 1683 c-10 -9 -9 -23 2 -23 5 0 11 7 15 15 5 15 -5 20 -17 8z" />
    <path d="M419 1650 c-8 -89 -3 -120 23 -120 l9 0 -12 21 -11 22 21 -6 c21 -5
31 8 11 15 -6 2 -17 21 -25 43 -8 22 -15 33 -16 25z" />
    <path d="M597 1634 c-12 -13 -8 -22 14 -27 l20 -5 -3 15 c-3 18 -21 27 -31 17z" />
    <path d="M640 1614 l0 -11 25 5 c14 2 25 7 25 11 0 3 -11 6 -25 6 -14 0 -25
-5 -25 -11z" />
    <path d="M370 1566 c-5 -13 -14 -27 -19 -31 -14 -8 -14 -35 0 -35 18 0 34 24
37 58 4 38 -5 42 -18 8z" />
    <path d="M172 1558 c4 -31 23 -33 26 -3 l2 25 -16 0 -15 0 3 -22z" />
    <path d="M283 1413 c-16 -16 -33 -36 -36 -46 l-7 -18 -19 10 c-10 6 -22 18
-25 28 l-7 17 -9 -14 -9 -15 20 -21 21 -22 -19 1 -18 2 3 -19 4 -19 -18 7 -17
6 13 -15 c7 -8 16 -12 21 -9 5 3 8 -5 6 -17 l-2 -22 28 -8 27 -7 0 23 c0 13
-4 27 -10 30 -13 8 -13 25 1 25 5 0 15 -13 20 -30 6 -16 13 -30 15 -30 1 0 14
5 28 11 l24 11 -5 14 c-3 8 0 14 6 14 6 0 11 5 11 10 0 6 -6 9 -12 8 -7 -2
-12 3 -10 10 1 6 -2 12 -7 12 -11 0 -2 40 14 60 7 8 15 21 19 28 l7 12 -14 0
c-7 0 -27 -12 -44 -27z m-21 -85 l-11 -11 6 24 7 23 4 -13 c2 -7 -1 -18 -6
-23z" />
    <path d="M57 1343 c-10 -9 -8 -33 2 -33 5 0 11 9 14 20 5 20 -3 26 -16 13z" />
    <path d="M40 1285 c0 -8 4 -15 9 -15 5 0 11 7 15 15 l5 15 -14 0 c-8 0 -15 -7
-15 -15z" />
    <path d="M365 980 c3 -5 10 -10 16 -10 5 0 9 5 9 10 0 6 -7 10 -16 10 l-15 0
6 -10z" />
    <path d="M370 866 c0 -2 7 -9 15 -16 l15 -13 -6 17 c-3 9 -10 16 -15 16 -5 0
-9 -2 -9 -4z" />
    <path d="M360 20 c0 -5 5 -10 11 -10 5 0 7 5 4 10 -3 6 -8 10 -11 10 -2 0 -4
-4 -4 -10z" />
    <path d="M430 20 c-8 -5 -12 -11 -9 -14 2 -3 11 -1 19 4 8 5 12 11 9 14 -2 3
-11 1 -19 -4z" />
  </g>
  <g transform="translate(0.000000,199.000000) scale(0.100000,-0.100000)" fill="#9fa1a9" stroke="none">
    <path d="M255 1770 c3 -5 8 -10 11 -10 2 0 4 5 4 10 0 6 -5 10 -11 10 -5 0 -7
-4 -4 -10z" />
    <path d="M345 1760 c-3 -5 -1 -10 4 -10 6 0 11 5 11 10 0 6 -2 10 -4 10 -3 0
-8 -4 -11 -10z" />
    <path d="M195 1740 l-6 -10 15 6 c18 7 21 14 7 14 -6 0 -13 -4 -16 -10z" />
    <path d="M210 1615 l0 -15 26 0 26 0 -12 15 c-7 8 -19 15 -26 15 -8 0 -14 -7
-14 -15z" />
    <path d="M541 1606 l-24 -13 12 -7 11 -7 0 11 0 11 12 -7 c14 -9 78 -12 83 -4
2 3 -8 7 -22 8 -14 1 -31 6 -37 11 l-11 9 -24 -12z" />
    <path d="M346 1598 c3 -5 10 -6 15 -3 13 9 11 12 -6 12 -8 0 -12 -4 -9 -9z" />
    <path d="M573 1558 c-24 -32 -24 -41 0 -19 15 14 27 26 27 28 0 8 -19 2 -27
-9z" />
    <path d="M185 1501 c-3 -5 -1 -12 5 -16 l10 -6 0 15 c0 18 -6 21 -15 7z" />
    <path d="M314 1483 l-17 -28 15 13 15 12 18 -6 17 -7 -11 21 c-7 12 -13 22
-15 22 -2 0 -12 -12 -22 -27z" />
    <path d="M380 1500 c0 -5 5 -10 11 -10 5 0 7 5 4 10 -3 6 -8 10 -11 10 -2 0
-4 -4 -4 -10z" />
    <path d="M223 1453 c-7 -2 -13 -12 -13 -20 l0 -15 14 5 14 6 -2 -27 c-1 -15
-5 -32 -8 -38 l-7 -11 15 0 15 0 -4 18 -5 18 14 -6 c19 -7 17 4 -6 37 -11 15
-17 30 -13 34 7 7 4 7 -14 -1z" />
    <path d="M450 1429 c0 -5 5 -7 10 -4 6 3 10 8 10 11 0 2 -4 4 -10 4 -5 0 -10
-5 -10 -11z" />
    <path d="M87 1351 l-6 -24 11 11 c5 5 8 16 6 23 l-4 13 -7 -23z" />
    <path d="M290 1360 c0 -5 5 -10 11 -10 5 0 7 5 4 10 -3 6 -8 10 -11 10 -2 0
-4 -4 -4 -10z" />
    <path d="M80 1309 c0 -5 -4 -7 -10 -4 -5 3 -10 2 -10 -4 0 -19 16 -19 28 0
l12 19 -10 0 c-5 0 -10 -5 -10 -11z" />
    <path d="M64 1258 l-7 -11 11 7 c7 4 12 9 12 12 0 8 -9 4 -16 -8z" />
    <path d="M383 1173 c4 -3 10 -3 14 0 3 4 0 7 -7 7 -7 0 -10 -3 -7 -7z" />
    <path d="M372 1139 c-12 -11 -22 -25 -22 -31 0 -6 8 -1 19 10 21 25 36 29 27
7 l-5 -15 16 0 c9 0 13 3 10 7 -4 3 -1 13 5 22 7 9 8 13 4 9 -5 -4 -14 -3 -21
2 l-12 10 -21 -21z" />
    <path d="M315 1110 c3 -5 8 -10 11 -10 3 0 2 5 -1 10 -3 6 -8 10 -11 10 -3 0
-2 -4 1 -10z" />
    <path d="M463 953 c4 -3 10 -3 14 0 3 4 0 7 -7 7 -7 0 -10 -3 -7 -7z" />
    <path d="M375 870 c-3 -5 -1 -10 4 -10 6 0 11 5 11 10 0 6 -2 10 -4 10 -3 0
-8 -4 -11 -10z" />
    <path d="M434 858 l-7 -11 11 7 c12 7 16 16 8 16 -3 0 -8 -5 -12 -12z" />
    <path d="M400 839 c0 -5 5 -7 10 -4 6 3 10 8 10 11 0 2 -4 4 -10 4 -5 0 -10
-5 -10 -11z" />
    <path d="M390 509 c0 -5 5 -7 10 -4 6 3 10 8 10 11 0 2 -4 4 -10 4 -5 0 -10
-5 -10 -11z" />
    <path d="M330 490 c0 -7 3 -10 7 -7 3 4 3 10 0 14 -4 3 -7 0 -7 -7z" />
    <path d="M337 410 c3 -11 10 -23 16 -27 l10 -6 -6 17 c-4 10 -7 22 -7 27 0 5
-4 9 -9 9 -5 0 -7 -9 -4 -20z" />
    <path d="M455 280 c3 -5 8 -10 11 -10 2 0 4 5 4 10 0 6 -5 10 -11 10 -5 0 -7
-4 -4 -10z" />
    <path d="M370 246 c0 -9 5 -16 10 -16 6 0 10 4 10 9 0 6 -4 13 -10 16 l-10 6
0 -15z" />
    <path d="M470 250 c0 -5 5 -10 11 -10 5 0 7 5 4 10 -3 6 -8 10 -11 10 -2 0 -4
-4 -4 -10z" />
    <path d="M367 189 l7 -23 4 13 c2 7 -1 18 -6 23 l-11 11 6 -24z" />
    <path d="M471 144 l1 -19 5 13 c3 7 2 16 -1 19 -3 4 -6 -2 -5 -13z" />
    <path d="M408 133 c6 -2 18 -2 25 0 6 3 1 5 -13 5 -14 0 -19 -2 -12 -5z" />
    <path d="M413 113 c4 -3 10 -3 14 0 3 4 0 7 -7 7 -7 0 -10 -3 -7 -7z" />
    <path d="M455 110 c3 -5 8 -10 11 -10 3 0 2 5 -1 10 -3 6 -8 10 -11 10 -3 0
-2 -4 1 -10z" />
  </g>
  <g transform="translate(0.000000,199.000000) scale(0.100000,-0.100000)" fill="#efcd49" stroke="none">
    <path d="M256 1765 c4 -8 11 -15 16 -15 l10 0 -12 15 c-7 8 -14 15 -16 15 -2
0 -1 -7 2 -15z" />
    <path d="M295 1760 c3 -5 8 -10 11 -10 3 0 2 5 -1 10 -3 6 -8 10 -11 10 -3 0
-2 -4 1 -10z" />
    <path d="M320 1750 c0 -5 7 -7 15 -4 8 4 15 8 15 10 0 2 -7 4 -15 4 -8 0 -15
-4 -15 -10z" />
    <path d="M390 1737 c0 -8 7 -17 15 -21 8 -3 15 -2 15 3 0 5 -7 14 -15 21 l-15
12 0 -15z" />
    <path d="M340 1727 c1 -22 26 -46 48 -44 l21 1 -11 13 c-5 7 -14 10 -19 8 -4
-3 -6 3 -4 13 l3 18 -19 1 c-10 1 -19 -4 -19 -10z" />
    <path d="M202 1698 c5 -15 28 -18 29 -3 0 6 -7 12 -17 13 l-16 4 4 -14z" />
    <path d="M330 1690 c0 -6 6 -13 14 -16 l13 -5 -3 -31 -4 -30 16 13 16 13 -5
-33 c-3 -18 -3 -30 1 -26 4 4 7 12 7 18 1 7 6 11 12 10 6 -1 10 3 8 10 -10 41
-19 57 -31 57 -8 0 -17 7 -20 15 -7 17 -24 20 -24 5z" />
    <path d="M622 1688 c-7 -7 -12 -18 -12 -25 0 -7 -5 -13 -12 -13 l-11 0 17 -19
c10 -11 16 -24 13 -28 -3 -5 5 -10 18 -11 l23 -2 -5 20 c-3 11 -9 20 -13 20
-4 0 -10 11 -12 25 l-5 25 13 0 c8 0 14 5 14 10 0 14 -13 13 -28 -2z" />
    <path d="M250 1681 c0 -5 5 -13 10 -16 6 -3 10 -2 10 4 0 5 -4 13 -10 16 -5 3
-10 2 -10 -4z" />
    <path d="M165 1660 c3 -5 11 -10 16 -10 6 0 7 5 4 10 -3 6 -11 10 -16 10 -6 0
-7 -4 -4 -10z" />
    <path d="M682 1618 c2 -5 8 -9 13 -9 5 0 11 4 13 9 1 5 -4 9 -13 9 -9 0 -14
-4 -13 -9z" />
    <path d="M426 1612 c-2 -4 -1 -14 3 -21 l9 -13 6 11 7 11 -11 0 c-6 0 -8 5 -5
10 3 6 4 10 1 10 -3 0 -7 -4 -10 -8z" />
    <path d="M166 1584 c-10 -26 -7 -34 14 -34 l20 0 -2 25 c-3 28 -23 34 -32 9z" />
    <path d="M510 1554 c0 -13 18 -39 24 -34 2 3 -2 14 -10 24 -8 11 -14 16 -14
10z" />
    <path d="M189 1527 c6 -8 8 -17 4 -20 -3 -4 1 -7 10 -7 22 0 22 26 1 34 -24 9
-28 7 -15 -7z" />
    <path d="M337 1474 c3 -7 9 -14 14 -14 14 0 10 17 -5 23 l-15 6 6 -15z" />
    <path d="M274 1428 l-7 -11 11 7 c12 7 16 16 8 16 -3 0 -8 -5 -12 -12z" />
    <path d="M185 1390 c3 -5 8 -10 11 -10 3 0 2 5 -1 10 -3 6 -8 10 -11 10 -3 0
-2 -4 1 -10z" />
    <path d="M265 1380 c3 -6 0 -13 -9 -16 l-15 -6 11 -24 c6 -13 16 -24 21 -24
l9 0 -5 21 c-3 11 -3 28 0 36 l6 15 8 -14 9 -13 0 18 0 17 -21 0 -20 0 6 -10z" />
    <path d="M189 1357 c14 -15 26 -27 27 -27 1 0 1 8 0 18 -2 9 -7 17 -12 17 -5
0 -16 4 -24 9 -8 5 -4 -3 9 -17z" />
    <path d="M60 1357 c0 -7 -7 -22 -15 -33 l-15 -19 -10 15 c-5 8 -10 11 -10 5 0
-14 40 -72 41 -60 1 6 1 13 0 18 0 4 4 7 10 7 l11 0 -6 25 -6 25 10 0 c5 0 10
7 10 15 0 8 -4 15 -10 15 -5 0 -10 -6 -10 -13z" />
    <path d="M174 1328 l-7 -11 11 7 c12 7 16 16 8 16 -3 0 -8 -5 -12 -12z" />
    <path d="M166 1284 l-6 -15 9 6 c5 3 11 -1 14 -7 2 -7 8 -10 12 -6 9 9 -1 38
-14 38 -5 0 -12 -7 -15 -16z" />
    <path d="M225 1280 c3 -5 8 -10 11 -10 3 0 2 5 -1 10 -3 6 -8 10 -11 10 -3 0
-2 -4 1 -10z" />
    <path d="M295 1270 l-6 -10 15 6 c18 7 21 14 7 14 -6 0 -13 -4 -16 -10z" />
    <path d="M265 1250 c3 -5 8 -10 11 -10 2 0 4 5 4 10 0 6 -5 10 -11 10 -5 0 -7
-4 -4 -10z" />
    <path d="M365 980 c3 -5 8 -10 11 -10 3 0 2 5 -1 10 -3 6 -8 10 -11 10 -3 0
-2 -4 1 -10z" />
    <path d="M464 978 l-7 -11 11 7 c12 7 16 16 8 16 -3 0 -8 -5 -12 -12z" />
    <path d="M423 973 c4 -3 10 -3 14 0 3 4 0 7 -7 7 -7 0 -10 -3 -7 -7z" />
    <path d="M524 758 l-7 -11 11 7 c12 7 16 16 8 16 -3 0 -8 -5 -12 -12z" />
    <path d="M391 450 c-8 -4 -20 -6 -28 -3 -7 3 -13 0 -13 -6 0 -6 8 -11 18 -11
20 0 49 17 41 24 -2 3 -11 1 -18 -4z" />
    <path d="M363 13 c4 -3 10 -3 14 0 3 4 0 7 -7 7 -7 0 -10 -3 -7 -7z" />
    <path d="M420 10 c0 -7 3 -10 7 -7 3 4 3 10 0 14 -4 3 -7 0 -7 -7z" />
  </g>
  <g transform="translate(0.000000,199.000000) scale(0.100000,-0.100000)" fill="#fdee4e" stroke="none">
    <path d="M240 1750 c0 -7 3 -10 7 -7 3 4 3 10 0 14 -4 3 -7 0 -7 -7z" />
    <path d="M263 1753 c4 -3 10 -3 14 0 3 4 0 7 -7 7 -7 0 -10 -3 -7 -7z" />
    <path d="M305 1750 c3 -5 10 -10 16 -10 5 0 9 5 9 10 0 6 -7 10 -16 10 l-15 0
6 -10z" />
    <path d="M341 1753 c1 -5 1 -14 0 -21 l-1 -13 -12 7 -13 7 13 -14 13 -14 9 15
c13 20 13 40 0 40 -5 0 -9 -3 -9 -7z" />
    <path d="M201 1702 l-10 -19 13 0 c6 0 13 9 13 19 1 10 0 18 -2 18 -2 0 -9 -8
-14 -18z" />
    <path d="M325 1690 c4 -6 11 -8 16 -5 14 9 11 15 -7 15 l-15 0 6 -10z" />
    <path d="M365 1690 c3 -5 8 -10 11 -10 3 0 2 5 -1 10 -3 6 -8 10 -11 10 -3 0
-2 -4 1 -10z" />
    <path d="M350 1651 c0 -5 11 -11 25 -13 l25 -5 -11 13 c-13 16 -39 19 -39 5z" />
    <path d="M611 1652 c-1 -7 -5 -11 -9 -8 -5 3 -9 -1 -9 -9 0 -8 4 -12 8 -9 4 2
10 0 14 -6 3 -5 14 -10 23 -10 l16 0 -16 13 c-9 6 -18 19 -21 27 l-5 15 -1
-13z" />
    <path d="M175 1600 l-6 -10 16 0 16 0 -6 10 c-3 6 -8 10 -10 10 -2 0 -7 -4
-10 -10z" />
    <path d="M374 1598 l-7 -11 11 7 c12 7 16 16 8 16 -3 0 -8 -5 -12 -12z" />
    <path d="M460 1570 c0 -7 3 -10 7 -7 3 4 3 10 0 14 -4 3 -7 0 -7 -7z" />
    <path d="M170 1551 c0 -6 5 -13 12 -17 l11 -7 -7 11 c-3 5 0 13 6 15 l13 5
-17 1 c-10 1 -18 -3 -18 -8z" />
    <path d="M420 1549 c0 -5 5 -7 10 -4 6 3 10 8 10 11 0 2 -4 4 -10 4 -5 0 -10
-5 -10 -11z" />
    <path d="M352 1528 c5 -15 28 -23 28 -10 0 5 -7 13 -16 16 l-16 6 4 -12z" />
    <path d="M175 1400 c3 -5 8 -10 11 -10 3 0 2 5 -1 10 -3 6 -8 10 -11 10 -3 0
-2 -4 1 -10z" />
    <path d="M240 1365 c0 -8 5 -15 11 -15 5 0 8 -4 5 -9 -3 -5 1 -11 9 -15 l15
-5 0 23 0 24 -16 6 c-22 9 -24 8 -24 -9z" />
    <path d="M75 1340 c3 -5 8 -10 11 -10 3 0 2 5 -1 10 -3 6 -8 10 -11 10 -3 0
-2 -4 1 -10z" />
    <path d="M165 1330 c3 -5 8 -10 11 -10 3 0 2 5 -1 10 -3 6 -8 10 -11 10 -3 0
-2 -4 1 -10z" />
    <path d="M207 1334 c-3 -3 -3 -13 0 -22 l6 -15 -15 6 c-20 7 -31 -3 -19 -17 9
-11 11 -17 11 -36 0 -5 5 -10 11 -10 l10 0 -6 20 -6 20 11 0 12 0 -5 26 -4 25
13 -5 c8 -3 14 -1 14 4 0 11 -23 14 -33 4z" />
    <path d="M45 1310 c-4 -6 -11 -8 -16 -5 l-9 6 6 -15 c3 -8 12 -17 20 -20 l15
-6 -6 10 c-3 6 -2 10 3 10 5 0 9 7 9 15 0 17 -13 20 -22 5z" />
    <path d="M150 1310 c0 -7 3 -10 7 -7 3 4 3 10 0 14 -4 3 -7 0 -7 -7z" />
    <path d="M263 1265 c0 -8 4 -15 9 -15 4 0 8 4 8 9 0 6 -4 12 -8 15 -5 3 -9 -1
-9 -9z" />
    <path d="M400 449 c0 -5 5 -7 10 -4 6 3 10 8 10 11 0 2 -4 4 -10 4 -5 0 -10
-5 -10 -11z" />
    <path d="M375 440 c-3 -5 -1 -10 4 -10 6 0 11 5 11 10 0 6 -2 10 -4 10 -3 0
-8 -4 -11 -10z" />
  </g>
  <g transform="translate(0.000000,199.000000) scale(0.100000,-0.100000)" fill="#b5b8c8" stroke="none">
    <path d="M390 1730 c0 -7 3 -10 7 -7 3 4 3 10 0 14 -4 3 -7 0 -7 -7z" />
    <path d="M576 1614 c-8 -21 -8 -24 5 -24 5 0 7 5 4 10 -3 6 -1 10 4 10 6 0 11
5 11 10 0 16 -17 12 -24 -6z" />
    <path d="M405 1609 c-4 -6 -5 -12 -2 -15 2 -3 7 2 10 11 7 17 1 20 -8 4z" />
    <path d="M530 1600 c-8 -5 -10 -10 -5 -10 6 0 17 5 25 10 8 5 11 10 5 10 -5 0
-17 -5 -25 -10z" />
    <path d="M604 1588 l-7 -11 11 7 c12 7 16 16 8 16 -3 0 -8 -5 -12 -12z" />
    <path d="M638 1593 c7 -3 16 -2 19 1 4 3 -2 6 -13 5 l-19 -1 13 -5z" />
    <path d="M569 1553 l-14 -18 18 14 c9 7 17 15 17 17 0 8 -8 3 -21 -13z" />
    <path d="M334 1488 l-7 -11 11 7 c12 7 16 16 8 16 -3 0 -8 -5 -12 -12z" />
    <path d="M220 1430 l-15 -10 12 0 c6 0 15 5 18 10 8 12 4 12 -15 0z" />
    <path d="M80 1381 c0 -6 5 -13 10 -16 l10 -6 0 15 c0 9 -4 16 -10 16 -5 0 -10
-4 -10 -9z" />
    <path d="M80 1326 c0 -9 5 -16 10 -16 6 0 10 4 10 9 0 6 -4 13 -10 16 l-10 6
0 -15z" />
    <path d="M293 1333 c4 -3 10 -3 14 0 3 4 0 7 -7 7 -7 0 -10 -3 -7 -7z" />
    <path d="M327 1334 c-4 -4 -7 -14 -7 -23 l0 -15 11 11 c6 6 10 16 7 23 -2 6
-7 8 -11 4z" />
    <path d="M351 1324 l1 -19 5 13 c3 7 2 16 -1 19 -3 4 -6 -2 -5 -13z" />
    <path d="M162 1260 c0 -14 2 -19 5 -12 2 6 2 18 0 25 -3 6 -5 1 -5 -13z" />
    <path d="M60 1256 c0 -2 8 -10 18 -17 l17 -14 -14 18 c-13 16 -21 21 -21 13z" />
    <path d="M395 1150 c3 -5 8 -10 11 -10 3 0 2 5 -1 10 -3 6 -8 10 -11 10 -3 0
-2 -4 1 -10z" />
    <path d="M365 1130 c3 -5 8 -10 11 -10 2 0 4 5 4 10 0 6 -5 10 -11 10 -5 0 -7
-4 -4 -10z" />
    <path d="M390 1114 c0 -3 7 -12 16 -21 8 -9 13 -22 10 -29 l-5 -14 14 0 c18 0
19 9 5 44 -5 14 -16 26 -25 26 -8 0 -15 -3 -15 -6z" />
    <path d="M430 1000 c0 -7 3 -10 7 -7 3 4 3 10 0 14 -4 3 -7 0 -7 -7z" />
    <path d="M395 840 c3 -5 8 -10 11 -10 2 0 4 5 4 10 0 6 -5 10 -11 10 -5 0 -7
-4 -4 -10z" />
    <path d="M435 470 c3 -5 8 -10 11 -10 3 0 2 5 -1 10 -3 6 -8 10 -11 10 -3 0
-2 -4 1 -10z" />
    <path d="M340 430 l-15 -10 12 0 c6 0 15 5 18 10 8 12 4 12 -15 0z" />
    <path d="M481 243 c7 -12 15 -20 18 -17 3 2 -3 12 -13 22 l-18 17 13 -22z" />
    <path d="M360 210 c0 -7 3 -10 7 -7 3 4 3 10 0 14 -4 3 -7 0 -7 -7z" />
  </g>
  <g transform="translate(0.000000,199.000000) scale(0.100000,-0.100000)" fill="#cba548" stroke="none">
    <path d="M343 1753 c4 -3 10 -3 14 0 3 4 0 7 -7 7 -7 0 -10 -3 -7 -7z" />
    <path d="M373 1747 c0 -8 6 -14 14 -14 15 0 12 19 -3 24 -6 2 -11 -3 -11 -10z" />
    <path d="M406 1694 c-4 -20 -5 -39 -2 -42 3 -3 6 3 7 14 l0 19 9 -20 10 -20
-7 40 c-3 22 -7 41 -8 43 -1 2 -6 -13 -9 -34z" />
    <path d="M216 1687 l-17 -13 19 0 c10 0 19 6 19 13 0 7 -1 13 -2 13 -1 0 -9
-6 -19 -13z" />
    <path d="M165 1660 c3 -5 8 -10 11 -10 3 0 2 5 -1 10 -3 6 -8 10 -11 10 -3 0
-2 -4 1 -10z" />
    <path d="M390 1631 c0 -5 7 -11 15 -15 8 -3 15 -1 15 3 0 5 -7 11 -15 15 -8 3
-15 1 -15 -3z" />
    <path d="M590 1620 c0 -7 3 -10 7 -7 3 4 3 10 0 14 -4 3 -7 0 -7 -7z" />
    <path d="M697 1616 l-6 -15 15 6 c7 3 14 9 14 14 0 14 -17 10 -23 -5z" />
    <path d="M415 1579 c-4 -6 -4 -13 -1 -16 3 -4 6 -1 6 5 l0 11 17 -6 16 -6 -7
11 c-9 15 -23 15 -31 1z" />
    <path d="M165 1550 c3 -5 8 -10 11 -10 2 0 4 5 4 10 0 6 -5 10 -11 10 -5 0 -7
-4 -4 -10z" />
    <path d="M354 1538 l-7 -11 11 7 c12 7 16 16 8 16 -3 0 -8 -5 -12 -12z" />
    <path d="M381 1531 c-14 -10 -31 -16 -39 -13 l-15 5 5 -14 5 -14 19 4 19 3
-19 -21 c-24 -26 -12 -28 15 -2 12 11 18 24 14 30 l-6 11 15 0 c9 0 16 7 16
15 0 8 -1 15 -2 15 -2 0 -14 -9 -27 -19z" />
    <path d="M420 1546 c0 -2 7 -9 15 -16 l15 -12 0 10 c0 5 -7 12 -15 16 -8 3
-15 4 -15 2z" />
    <path d="M207 1534 c-11 -11 3 -24 25 -24 l20 0 -12 15 c-13 16 -23 19 -33 9z" />
    <path d="M190 1484 l0 -25 10 6 c6 3 10 15 10 26 0 10 -4 19 -10 19 -5 0 -10
-12 -10 -26z" />
    <path d="M263 1418 c-4 -7 -8 -17 -8 -23 -1 -5 -6 -9 -13 -8 l-11 3 6 -16 6
-15 10 10 c6 6 19 11 28 11 9 0 23 7 30 17 l14 16 -22 -12 -23 -11 6 14 c7 18
-12 30 -23 14z m17 -2 c0 -3 -5 -8 -12 -12 l-11 -7 7 11 c7 12 16 16 16 8z" />
    <path d="M70 1375 l-12 -15 10 0 c12 0 26 19 19 26 -2 2 -10 -2 -17 -11z" />
    <path d="M220 1306 l0 -14 20 5 c11 3 17 9 14 14 -8 14 -34 10 -34 -5z" />
    <path d="M294 1308 l-7 -11 11 7 c12 7 16 16 8 16 -3 0 -8 -5 -12 -12z" />
    <path d="M44 1268 l-7 -11 11 7 c12 7 16 16 8 16 -3 0 -8 -5 -12 -12z" />
    <path d="M375 980 l-6 -10 20 0 c25 0 27 6 6 13 -8 4 -17 2 -20 -3z" />
    <path d="M263 973 c4 -3 10 -3 14 0 3 4 0 7 -7 7 -7 0 -10 -3 -7 -7z" />
    <path d="M240 910 l-15 -10 12 0 c6 0 15 5 18 10 8 12 4 12 -15 0z" />
    <path d="M373 863 c4 -3 10 -3 14 0 3 4 0 7 -7 7 -7 0 -10 -3 -7 -7z" />
    <path d="M394 843 l7 -13 -11 0 c-6 0 -8 -4 -5 -10 3 -5 10 -10 15 -10 10 0 7
27 -5 37 l-8 8 7 -12z" />
    <path d="M470 810 l-15 -10 12 0 c6 0 15 5 18 10 8 12 4 12 -15 0z" />
    <path d="M525 781 c-3 -5 -1 -12 5 -16 l10 -6 0 15 c0 18 -6 21 -15 7z" />
    <path d="M414 458 l-19 -23 23 19 c21 18 27 26 19 26 -2 0 -12 -10 -23 -22z" />
    <path d="M350 442 c0 -4 10 -9 22 -9 l23 -2 -15 9 c-18 12 -30 13 -30 2z" />
    <path d="M403 113 c4 -3 10 -3 14 0 3 4 0 7 -7 7 -7 0 -10 -3 -7 -7z" />
    <path d="M447 33 c-4 -3 -7 -11 -7 -17 l0 -10 12 12 c6 6 9 14 7 17 -3 3 -9 2
-12 -2z" />
  </g>
  <g transform="translate(0.000000,199.000000) scale(0.100000,-0.100000)" fill="#f6e2b0" stroke="none">
    <path d="M213 1743 c4 -3 10 -3 14 0 3 4 0 7 -7 7 -7 0 -10 -3 -7 -7z" />
    <path d="M210 1711 c0 -5 7 -11 14 -14 l15 -6 -6 15 c-6 15 -23 19 -23 5z" />
    <path d="M263 1711 c10 -4 18 -11 17 -16 -1 -5 3 -11 9 -13 6 -2 11 0 11 5 0
15 -23 33 -39 32 l-16 0 18 -8z" />
    <path d="M619 1683 l-14 -18 20 15 c11 8 22 16 24 17 2 2 0 3 -6 3 -6 0 -17
-8 -24 -17z" />
    <path d="M194 1681 l7 -11 -14 -6 c-7 -2 -14 -11 -14 -19 0 -8 1 -15 3 -15 1
0 9 11 18 24 l16 25 -12 7 -11 7 7 -12z" />
    <path d="M255 1680 c3 -5 8 -10 11 -10 3 0 2 5 -1 10 -3 6 -8 10 -11 10 -3 0
-2 -4 1 -10z" />
    <path d="M710 1680 c0 -7 3 -10 7 -7 3 4 3 10 0 14 -4 3 -7 0 -7 -7z" />
    <path d="M287 1659 c7 -7 15 -10 18 -7 3 3 -2 9 -12 12 l-18 7 12 -12z" />
    <path d="M703 1623 c4 -3 10 -3 14 0 3 4 0 7 -7 7 -7 0 -10 -3 -7 -7z" />
    <path d="M365 1600 c3 -5 8 -10 11 -10 3 0 2 5 -1 10 -3 6 -8 10 -11 10 -3 0
-2 -4 1 -10z" />
    <path d="M440 1530 c0 -7 3 -10 7 -7 3 4 3 10 0 14 -4 3 -7 0 -7 -7z" />
    <path d="M255 1500 c-3 -5 -1 -10 4 -10 6 0 11 5 11 10 0 6 -2 10 -4 10 -3 0
-8 -4 -11 -10z" />
    <path d="M394 1438 l-7 -11 11 7 c12 7 16 16 8 16 -3 0 -8 -5 -12 -12z" />
    <path d="M170 1410 c0 -7 3 -10 7 -7 3 4 3 10 0 14 -4 3 -7 0 -7 -7z" />
    <path d="M72 1374 l-13 -14 10 0 c10 0 25 19 20 25 -2 1 -10 -3 -17 -11z" />
    <path d="M350 1360 c0 -7 3 -10 7 -7 3 4 3 10 0 14 -4 3 -7 0 -7 -7z" />
    <path d="M115 1270 c3 -5 8 -10 11 -10 2 0 4 5 4 10 0 6 -5 10 -11 10 -5 0 -7
-4 -4 -10z" />
    <path d="M350 1159 c0 -5 5 -7 10 -4 6 3 10 8 10 11 0 2 -4 4 -10 4 -5 0 -10
-5 -10 -11z" />
    <path d="M283 1133 c4 -3 10 -3 14 0 3 4 0 7 -7 7 -7 0 -10 -3 -7 -7z" />
    <path d="M390 940 c0 -7 3 -10 7 -7 3 4 3 10 0 14 -4 3 -7 0 -7 -7z" />
    <path d="M395 820 c3 -5 8 -10 11 -10 3 0 2 5 -1 10 -3 6 -8 10 -11 10 -3 0
-2 -4 1 -10z" />
    <path d="M525 770 c3 -5 8 -10 11 -10 3 0 2 5 -1 10 -3 6 -8 10 -11 10 -3 0
-2 -4 1 -10z" />
    <path d="M353 443 c4 -3 10 -3 14 0 3 4 0 7 -7 7 -7 0 -10 -3 -7 -7z" />
  </g>
  <g transform="translate(0.000000,199.000000) scale(0.100000,-0.100000)" fill="#e4a109" stroke="none">
    <path d="M383 1743 c4 -3 10 -3 14 0 3 4 0 7 -7 7 -7 0 -10 -3 -7 -7z" />
    <path d="M385 1630 c-3 -5 -1 -10 4 -10 6 0 11 5 11 10 0 6 -2 10 -4 10 -3 0
-8 -4 -11 -10z" />
    <path d="M417 1601 c3 -11 11 -22 19 -25 l14 -6 -10 20 c-5 10 -14 21 -19 24
l-9 6 5 -19z" />
    <path d="M405 1551 c-3 -11 -13 -22 -23 -26 l-17 -6 -3 10 c-4 13 -22 4 -22
-10 0 -6 4 -8 9 -5 5 4 12 0 14 -6 l5 -13 10 14 c5 7 15 10 21 7 l11 -7 0 21
0 21 10 -6 c6 -3 10 -2 10 4 0 19 -19 21 -25 2z" />
    <path d="M307 1435 l-28 -25 7 -12 7 -11 -10 6 c-6 4 -19 0 -29 -8 -21 -16
-11 -18 21 -6 11 5 20 14 20 22 0 7 12 20 28 27 15 7 27 17 27 23 0 15 -13 10
-43 -16z" />
    <path d="M314 1408 l-7 -11 11 7 c12 7 16 16 8 16 -3 0 -8 -5 -12 -12z" />
    <path d="M200 1360 c0 -6 7 -10 15 -10 8 0 15 2 15 4 0 2 -7 6 -15 10 -8 3
-15 1 -15 -4z" />
    <path d="M223 1324 c-15 -16 -17 -44 -3 -44 6 0 10 7 10 15 0 9 6 15 13 14 24
-3 37 1 37 12 l0 11 -14 -11 -14 -12 -9 14 -8 15 -12 -14z" />
    <path d="M383 973 c4 -3 10 -3 14 0 3 4 0 7 -7 7 -7 0 -10 -3 -7 -7z" />
    <path d="M445 29 c-4 -6 -5 -12 -2 -15 2 -3 7 2 10 11 7 17 1 20 -8 4z" />
  </g>
  <g transform="translate(0.000000,199.000000) scale(0.100000,-0.100000)" fill="#2b393e" stroke="none">
    <path d="M224 1615 c8 -8 17 -15 20 -15 3 0 6 7 6 15 l0 15 -21 0 -20 0 15
-15z" />
    <path d="M327 1623 c-14 -13 -6 -23 17 -21 l24 2 -5 13 c-5 14 -25 17 -36 6z" />
    <path d="M263 1473 c4 -3 10 -3 14 0 3 4 0 7 -7 7 -7 0 -10 -3 -7 -7z" />
    <path d="M474 905 l-6 -25 16 -25 c16 -24 36 -26 36 -4 l0 10 -12 -7 -13 -8
14 17 14 18 -13 24 c-7 14 -17 25 -21 25 -5 0 -11 -11 -15 -25z m13 -22 c-4
-3 -7 0 -7 7 0 7 3 10 7 7 3 -4 3 -10 0 -14z" />
    <path d="M388 833 c-10 -2 -18 -9 -18 -14 l0 -10 20 11 c11 6 20 13 20 15 0 3
-1 4 -2 4 -2 -1 -11 -3 -20 -6z" />
  </g>
  <g transform="translate(0.000000,199.000000) scale(0.100000,-0.100000)" fill="#8e7a58" stroke="none">
    <path d="M375 1750 c3 -5 8 -10 11 -10 3 0 2 5 -1 10 -3 6 -8 10 -11 10 -3 0
-2 -4 1 -10z" />
    <path d="M400 1679 c0 -5 5 -7 10 -4 6 3 10 8 10 11 0 2 -4 4 -10 4 -5 0 -10
-5 -10 -11z" />
    <path d="M396 1643 l-7 -18 12 12 c7 7 10 15 7 18 -3 3 -9 -2 -12 -12z" />
    <path d="M410 1620 c0 -7 3 -10 7 -7 3 4 3 10 0 14 -4 3 -7 0 -7 -7z" />
    <path d="M204 1517 l-11 -13 8 -19 8 -20 0 16 c1 9 8 20 17 23 8 3 12 10 9 16
-8 13 -17 12 -31 -3z" />
    <path d="M379 1528 c-1 -2 -3 -13 -4 -25 -1 -12 1 -20 6 -18 4 3 7 14 6 25 -1
18 -5 25 -8 18z" />
    <path d="M340 1500 c0 -7 3 -10 7 -7 3 4 3 10 0 14 -4 3 -7 0 -7 -7z" />
    <path d="M253 1493 c4 -3 10 -3 14 0 3 4 0 7 -7 7 -7 0 -10 -3 -7 -7z" />
    <path d="M329 1453 l-14 -16 23 12 c23 12 28 21 13 21 -5 0 -15 -7 -22 -17z" />
    <path d="M244 1378 l-7 -11 11 7 c12 7 16 16 8 16 -3 0 -8 -5 -12 -12z" />
    <path d="M290 1360 c0 -7 3 -10 7 -7 3 4 3 10 0 14 -4 3 -7 0 -7 -7z" />
    <path d="M353 1159 c-35 -22 -46 -37 -15 -20 22 13 58 40 52 41 -3 0 -20 -10
-37 -21z" />
    <path d="M364 808 l-7 -11 11 7 c12 7 16 16 8 16 -3 0 -8 -5 -12 -12z" />
  </g>
  <g transform="translate(0.000000,199.000000) scale(0.100000,-0.100000)" fill="#a16b16" stroke="none">
    <path d="M400 1540 c0 -7 3 -10 7 -7 3 4 3 10 0 14 -4 3 -7 0 -7 -7z" />
    <path d="M341 1526 l-12 -14 9 -6 c6 -3 12 3 15 14 6 24 4 25 -12 6z" />
    <path d="M210 1526 c0 -2 7 -7 16 -10 l15 -6 -6 10 c-6 10 -25 14 -25 6z" />
    <path d="M365 1510 l-6 -10 16 0 16 0 -6 10 c-3 6 -8 10 -10 10 -2 0 -7 -4
-10 -10z" />
  </g>
</svg>