<?xml version="1.0" encoding="UTF-8" standalone="no"?>
<svg xmlns:rdf="http://www.w3.org/1999/02/22-rdf-syntax-ns#" xmlns="http://www.w3.org/2000/svg" height="128" width="128" version="1.1" xmlns:cc="http://creativecommons.org/ns#" xmlns:xlink="http://www.w3.org/1999/xlink" viewBox="0 0 128 128" xmlns:dc="http://purl.org/dc/elements/1.1/">
 <title>budgie-remix Logo</title>
 <metadata>
  <rdf:RDF>
   <cc:Work rdf:about="">
    <dc:format>image/svg+xml</dc:format>
    <dc:type rdf:resource="http://purl.org/dc/dcmitype/StillImage"/>
    <dc:title>budgie-remix Logo</dc:title>
    <dc:creator>
     <cc:Agent>
      <dc:title>HEXcube and Joshua &quot;Foggalong&quot; Fogg</dc:title>
     </cc:Agent>
    </dc:creator>
    <cc:license rdf:resource="http://creativecommons.org/licenses/by-sa/4.0/"/>
    <dc:source>Budgie Logo by Yuri Henrique</dc:source>
    <dc:description>&apos;Work in Progress&apos; logo for budgie-remix</dc:description>
   </cc:Work>
  </rdf:RDF>
 </metadata>
 <circle cx="64" cy="64" r="64" fill="#404552"/>
 <path id="budgie" fill="#fff" d="m84 77c-7.392 0-13.664 5.4565-15.5 12.5-0.55025 1.434-0.9427 2.0166-1.5 3-0.72535 1.2642-1.79 2.8692-3.7898 4.3152-1.7708 0.998-2.8821 1.2958-5.21 1.1848-1.6022-0.24126-1.9877-0.49967-3-1-1.5695-1.284-1.8084-1.7077-3-4 0.17011 2.4476 0.02335 3.1542 1 7.5 2.598 8.48 12.213 15.5 23 15.5 7.996 0 14.777-3.3562 18.948-8.4785 1.5252-1.8733 2.6736-3.3514 3.7894-5.935 1.015-2.354 1.262-4.898 1.263-7.59 0-9.138-7.164-17-16-17z"/>
 <use xlink:href="#budgie" transform="matrix(-.5 .86603 -.86603 -.5 151.42 40.574)" height="100%" width="100%" y="0" x="0"/>
 <use xlink:href="#budgie" transform="matrix(-.5 -.86603 .86603 -.5 40.574 151.42)" height="100%" width="100%" y="0" x="0"/>
</svg>
