<?xml version="1.0" encoding="UTF-8" standalone="no"?>
<svg
   xmlns:dc="http://purl.org/dc/elements/1.1/"
   xmlns:cc="http://creativecommons.org/ns#"
   xmlns:rdf="http://www.w3.org/1999/02/22-rdf-syntax-ns#"
   xmlns:svg="http://www.w3.org/2000/svg"
   xmlns="http://www.w3.org/2000/svg"
   xmlns:xlink="http://www.w3.org/1999/xlink"
   xmlns:sodipodi="http://sodipodi.sourceforge.net/DTD/sodipodi-0.dtd"
   xmlns:inkscape="http://www.inkscape.org/namespaces/inkscape"
   width="100.44826"
   height="120"
   viewBox="0 0 100.44826 120"
   version="1.1"
   id="svg46"
   sodipodi:docname="Brave-logo-color-RGB.svg"
   inkscape:version="1.0.2 (e86c870879, 2021-01-15)">
  <metadata
     id="metadata50">
    <rdf:RDF>
      <cc:Work
         rdf:about="">
        <dc:format>image/svg+xml</dc:format>
        <dc:type
           rdf:resource="http://purl.org/dc/dcmitype/StillImage" />
      </cc:Work>
    </rdf:RDF>
  </metadata>
  <sodipodi:namedview
     pagecolor="#ffffff"
     bordercolor="#666666"
     borderopacity="1"
     objecttolerance="10"
     gridtolerance="10"
     guidetolerance="10"
     inkscape:pageopacity="0"
     inkscape:pageshadow="2"
     inkscape:window-width="1658"
     inkscape:window-height="849"
     id="namedview48"
     showgrid="false"
     inkscape:zoom="6.9042553"
     inkscape:cx="92.774296"
     inkscape:cy="21.785272"
     inkscape:window-x="0"
     inkscape:window-y="34"
     inkscape:window-maximized="0"
     inkscape:current-layer="svg46"
     inkscape:document-rotation="0" />
  <!-- Generator: Sketch 59.1 (86144) - https://sketch.com -->
  <title
     id="title2">Logotypes/bat/logo-dark@1x</title>
  <desc
     id="desc4">Created with Sketch.</desc>
  <defs
     id="defs21">
    <linearGradient
       x1="2.6667933e-05"
       y1="27.044249"
       x2="53.335892"
       y2="27.044249"
       id="linearGradient-1"
       gradientTransform="matrix(1.8833155,0,0,2.2498931,-5.0224129e-5,-5.1169215e-5)"
       gradientUnits="userSpaceOnUse">
      <stop
         stop-color="#FF5500"
         offset="0%"
         id="stop6" />
      <stop
         stop-color="#FF5500"
         offset="40.9877232%"
         id="stop8" />
      <stop
         stop-color="#FF2000"
         offset="58.1981215%"
         id="stop10" />
      <stop
         stop-color="#FF2000"
         offset="100%"
         id="stop12" />
    </linearGradient>
    <linearGradient
       x1="2.5555034"
       y1="10.458786"
       x2="22.738787"
       y2="10.458786"
       id="linearGradient-2"
       gradientTransform="scale(1.9636043,0.50926757)"
       gradientUnits="userSpaceOnUse">
      <stop
         stop-color="#FF452A"
         offset="0%"
         id="stop15" />
      <stop
         stop-color="#FF2000"
         offset="100%"
         id="stop17" />
    </linearGradient>
    <path
       d="M 38.184274,5.7813753 33.182503,2.4858005e-5 H 24.398906 15.615309 L 10.613538,5.7813753 c 0,0 -4.3917988,-1.2429002 -6.4657037,0.8700302 0,0 5.8557317,-0.5385487 7.8686397,2.7965255 0,0 5.428751,1.056465 6.160717,1.056465 0.731967,0 2.317894,-0.6214499 3.781827,-1.11861 1.463933,-0.4971601 2.439888,-0.5007645 2.439888,-0.5007645 0,0 0.975955,0.0036 2.439888,0.5007645 1.463933,0.4971601 3.04986,1.11861 3.781827,1.11861 0.731966,0 6.160717,-1.056465 6.160717,-1.056465 2.012908,-3.3350742 7.86864,-2.7965255 7.86864,-2.7965255 C 42.576073,4.5384751 38.184274,5.7813753 38.184274,5.7813753"
       id="path-3" />
  </defs>
  <path
     d="M 96.932575,28.786522 99.6949,21.878677 c 0,0 -3.515687,-3.83769 -7.784739,-8.187074 C 87.64111,9.34222 78.600767,11.900681 78.600767,11.900681 L 68.304818,0 H 50.224132 32.143445 L 21.847498,11.900681 c 0,0 -9.040345,-2.558461 -13.3093956,1.790922 -4.2690513,4.349384 -7.78474044,8.187074 -7.78474044,8.187074 L 3.5156892,28.786522 0,39.020367 c 0,0 10.339893,39.900475 11.55155,44.773065 2.385646,9.594229 4.017931,13.303997 10.798189,18.165078 6.780258,4.86107 19.085171,13.30399 21.094136,14.58322 2.008965,1.27922 4.520171,3.45827 6.780257,3.45827 2.260087,0 4.771293,-2.17905 6.780257,-3.45827 2.008966,-1.27923 14.313878,-9.72215 21.094135,-14.58322 6.780258,-4.861081 8.412543,-8.570849 10.79819,-18.165078 1.211406,-4.87259 11.551546,-44.773065 11.551546,-44.773065 z"
     id="Head"
     fill="url(#linearGradient-1)"
     style="fill:url(#linearGradient-1);stroke-width:2.05846" />
  <path
     d="m 50.224083,74.677993 c 0.68832,0 5.098502,1.586247 8.637544,3.451876 3.538792,1.865886 6.103488,3.185285 6.923398,3.707978 0.819659,0.522948 0.319676,1.508724 -0.426905,2.046513 -0.746834,0.537788 -10.781866,8.45469 -11.755712,9.329685 -0.974097,0.875248 -2.405234,2.320522 -3.378325,2.320522 -0.973094,0 -2.404481,-1.445274 -3.378327,-2.320522 C 45.87166,92.33905 35.836877,84.422148 35.090045,83.88436 c -0.746834,-0.537789 -1.246564,-1.523565 -0.426906,-2.046513 0.819909,-0.522693 3.384605,-1.842092 6.923648,-3.707978 3.538541,-1.865629 7.948973,-3.451876 8.637296,-3.451876 z m 0.05384,-56.387506 c 0.337973,0.0096 2.242162,0.103812 4.968615,1.029731 3.013448,1.023384 6.278016,2.302613 7.784742,2.302613 1.506722,0 12.68159,-2.174691 12.68159,-2.174691 0,0 13.243101,16.310189 13.243101,19.796092 0,3.485902 -1.665934,4.405925 -3.340909,6.218082 -1.674975,1.812158 -8.990371,9.726501 -9.929814,10.742722 -0.939441,1.016477 -2.895168,2.557438 -1.744786,5.331065 1.150383,2.773627 2.847457,6.303025 0.960287,9.882823 -1.887423,3.579798 -5.120602,5.969146 -7.192348,5.574118 -2.071745,-0.39528 -6.937208,-2.985724 -8.726442,-4.169012 -1.789235,-1.183287 -7.460043,-5.948165 -7.460043,-7.771323 0,-1.822905 5.861911,-5.096199 6.944742,-5.839943 1.083334,-0.743489 6.022878,-3.622014 6.124079,-4.751831 0.100947,-1.130072 0.06254,-1.461393 -1.395226,-4.253184 -1.457754,-2.792048 -4.08297,-6.51768 -3.646021,-8.996573 0.436951,-2.478638 4.670845,-3.76759 7.692329,-4.930155 3.020982,-1.162307 8.838191,-3.357723 9.564683,-3.699022 0.726995,-0.341555 0.539156,-0.666734 -1.662418,-0.879342 -2.201073,-0.212608 -8.447951,-1.057412 -11.264269,-0.257636 -2.816317,0.799773 -7.627789,2.016577 -8.01753,2.661821 -0.389739,0.645243 -0.733522,0.666991 -0.333235,2.892852 0.400035,2.22586 2.46073,12.906412 2.660623,14.80351 0.200145,1.8971 0.591388,3.151258 -1.416322,3.618944 -2.007959,0.467686 -5.387793,1.27974 -6.549226,1.27974 -1.161433,0 -4.541516,-0.812054 -6.549226,-1.27974 -2.007961,-0.467686 -1.616714,-1.721844 -1.416573,-3.618944 0.200144,-1.897098 2.260589,-12.57765 2.660875,-14.80351 0.400035,-2.225861 0.05625,-2.247609 -0.333235,-2.892852 -0.389742,-0.645244 -5.201465,-1.862048 -8.017782,-2.661821 -2.816318,-0.799776 -9.062944,0.04503 -11.264269,0.257636 -2.201323,0.212608 -2.389161,0.537787 -1.662418,0.879342 0.726743,0.341299 6.543953,2.536715 9.564935,3.699022 3.021232,1.162565 7.255377,2.451517 7.692328,4.930155 0.43695,2.478893 -2.188518,6.204525 -3.646021,8.996573 -1.457756,2.791791 -1.496429,3.123112 -1.395226,4.253184 0.100947,1.129817 5.040745,4.008342 6.123829,4.751831 1.083082,0.743744 6.94474,4.017038 6.94474,5.839943 0,1.823158 -5.670555,6.588036 -7.45979,7.771323 -1.789235,1.183288 -6.654697,3.773732 -8.726443,4.169012 -2.071744,0.395028 -5.304924,-1.99432 -7.192346,-5.574118 -1.887173,-3.579798 -0.190098,-7.109196 0.960034,-9.882823 1.150382,-2.773627 -0.805095,-4.314588 -1.744789,-5.331065 -0.93919,-1.016221 -8.254839,-8.930564 -9.929813,-10.742722 -1.674975,-1.812157 -3.340658,-2.73218 -3.340658,-6.218082 0,-3.485903 13.243101,-19.796092 13.243101,-19.796092 0,0 11.174869,2.174691 12.681591,2.174691 1.506726,0 4.771293,-1.279229 7.784741,-2.302613 2.726454,-0.925919 4.630642,-1.020176 4.968615,-1.029731 z"
     id="Face"
     fill="#ffffff"
     style="stroke-width:2.05846" />
  <mask
     id="mask-4"
     fill="#ffffff"
     transform="translate(0.6004, 0)">
    <use
       xlink:href="#path-3"
       id="use35"
       x="0"
       y="0"
       width="100%"
       height="100%" />
  </mask>
  <use
     id="Top-Head"
     fill="url(#linearGradient-2)"
     xlink:href="#path-3"
     transform="matrix(2.0584604,0,0,2.0584604,-5.0224132e-5,-5.1169219e-5)"
     x="0"
     y="0"
     width="100%"
     height="100%"
     style="fill:url(#linearGradient-2)" />
</svg>
