<?xml version="1.0" encoding="UTF-8" standalone="no"?>
<svg
   xmlns:dc="http://purl.org/dc/elements/1.1/"
   xmlns:cc="http://creativecommons.org/ns#"
   xmlns:rdf="http://www.w3.org/1999/02/22-rdf-syntax-ns#"
   xmlns:svg="http://www.w3.org/2000/svg"
   xmlns="http://www.w3.org/2000/svg"
   xmlns:xlink="http://www.w3.org/1999/xlink"
   version="1.1"
   width="64"
   height="64"
   id="svg4161">
  <defs
     id="defs4163">
    <linearGradient
       id="linearGradient3905">
      <stop
         style="stop-color:#ffffff;stop-opacity:1;"
         offset="0"
         id="stop3907" />
      <stop
         style="stop-color:#ffffff;stop-opacity:0;"
         offset="1"
         id="stop3909" />
    </linearGradient>
    <linearGradient
       id="linearGradient3688-166-749-4-0-3-8">
      <stop
         id="stop2883-4-0-1-8"
         style="stop-color:#181818;stop-opacity:1"
         offset="0" />
      <stop
         id="stop2885-9-2-9-6"
         style="stop-color:#181818;stop-opacity:0"
         offset="1" />
    </linearGradient>
    <linearGradient
       id="linearGradient3688-464-309-9-2-4-2">
      <stop
         id="stop2889-7-9-6-9"
         style="stop-color:#181818;stop-opacity:1"
         offset="0" />
      <stop
         id="stop2891-6-6-1-7"
         style="stop-color:#181818;stop-opacity:0"
         offset="1" />
    </linearGradient>
    <linearGradient
       id="linearGradient3702-501-757-8-4-1-1">
      <stop
         id="stop2895-8-9-9-1"
         style="stop-color:#181818;stop-opacity:0"
         offset="0" />
      <stop
         id="stop2897-7-8-7-7"
         style="stop-color:#181818;stop-opacity:1"
         offset="0.5" />
      <stop
         id="stop2899-4-5-1-5"
         style="stop-color:#181818;stop-opacity:0"
         offset="1" />
    </linearGradient>
    <linearGradient
       xlink:href="#linearGradient3702-501-757-8-4-1-1"
       id="linearGradient3897"
       gradientUnits="userSpaceOnUse"
       x1="25.058096"
       y1="47.027729"
       x2="25.058096"
       y2="39.999443"
       gradientTransform="matrix(1.5789502,0,0,0.7142857,-5.894751,27.928572)" />
    <radialGradient
       xlink:href="#linearGradient3688-464-309-9-2-4-2"
       id="radialGradient3900"
       gradientUnits="userSpaceOnUse"
       gradientTransform="matrix(3.1638751,0,0,0.99999998,-25.702995,-102.5)"
       cx="4.9929786"
       cy="43.5"
       fx="4.9929786"
       fy="43.5"
       r="2.5" />
    <radialGradient
       xlink:href="#linearGradient3688-166-749-4-0-3-8"
       id="radialGradient3903"
       gradientUnits="userSpaceOnUse"
       gradientTransform="matrix(3.1638751,0,0,0.99999998,38.297112,15.500001)"
       cx="4.9929786"
       cy="43.5"
       fx="4.9929786"
       fy="43.5"
       r="2.5" />
    <linearGradient
       xlink:href="#linearGradient3905"
       id="linearGradient3911"
       x1="32"
       y1="4"
       x2="32"
       y2="60"
       gradientUnits="userSpaceOnUse" />
    <linearGradient
       id="linearGradient4100">
      <stop
         id="stop4102"
         offset="0"
         style="stop-color:#aaaaaa;stop-opacity:1;" />
      <stop
         id="stop4104"
         offset="1"
         style="stop-color:#767676;stop-opacity:1;" />
    </linearGradient>
    <linearGradient
       id="linearGradient4084">
      <stop
         style="stop-color:#cd5fc2;stop-opacity:1;"
         offset="0"
         id="stop4086" />
      <stop
         style="stop-color:#9a4993;stop-opacity:1;"
         offset="1"
         id="stop4088" />
    </linearGradient>
    <clipPath
       clipPathUnits="userSpaceOnUse"
       id="clipPath4384">
      <rect
         ry="6.9999843"
         y="184"
         x="318"
         height="13.999969"
         width="35.999939"
         id="rect4386"
         style="opacity:0;color:#bebebe;fill:#000000;fill-opacity:1;fill-rule:nonzero;stroke:none;stroke-width:1;marker:none;visibility:visible;display:inline;overflow:visible;enable-background:accumulate" />
    </clipPath>
    <linearGradient
       id="linearGradient3413">
      <stop
         style="stop-color:#dddddd;stop-opacity:1;"
         offset="0"
         id="stop3415" />
      <stop
         style="stop-color:#f2f2f2;stop-opacity:1;"
         offset="1"
         id="stop3417" />
    </linearGradient>
    <linearGradient
       xlink:href="#linearGradient3413"
       id="linearGradient3993"
       gradientUnits="userSpaceOnUse"
       gradientTransform="matrix(1.4999978,0,0,1.4999978,-459.99927,-345.99947)"
       x1="336"
       y1="273"
       x2="336"
       y2="231" />
    <linearGradient
       xlink:href="#linearGradient4084"
       id="linearGradient3997"
       gradientUnits="userSpaceOnUse"
       gradientTransform="matrix(1.4999978,0,0,1.4999978,-459.99927,-345.99947)"
       x1="324"
       y1="231"
       x2="324"
       y2="273" />
    <linearGradient
       xlink:href="#linearGradient4100"
       id="linearGradient4000"
       gradientUnits="userSpaceOnUse"
       gradientTransform="matrix(1.4999978,0,0,1.4999978,-459.99927,-351.99946)"
       x1="328"
       y1="235"
       x2="328"
       y2="277" />
    <linearGradient
       xlink:href="#linearGradient3413"
       id="linearGradient4004"
       gradientUnits="userSpaceOnUse"
       gradientTransform="matrix(0,-1,-1,0,64,64)"
       x1="4.5"
       y1="32"
       x2="59.5"
       y2="32" />
  </defs>
  <metadata
     id="metadata4166">
    <rdf:RDF>
      <cc:Work
         rdf:about="">
        <dc:format>image/svg+xml</dc:format>
        <dc:type
           rdf:resource="http://purl.org/dc/dcmitype/StillImage" />
        <dc:title />
      </cc:Work>
    </rdf:RDF>
  </metadata>
  <g
     id="layer1"
     style="display:inline">
    <rect
       width="7.8947511"
       height="5"
       x="54.105358"
       y="56.5"
       id="rect2801-5-5-7-9"
       style="opacity:0.6;fill:url(#radialGradient3903);fill-opacity:1;stroke:none" />
    <rect
       width="7.8947511"
       height="5"
       x="-9.8947506"
       y="-61.5"
       transform="scale(-1,-1)"
       id="rect3696-3-0-3-7"
       style="opacity:0.6;fill:url(#radialGradient3900);fill-opacity:1;stroke:none" />
    <rect
       width="44.210606"
       height="5.0000005"
       x="9.8947506"
       y="56.5"
       id="rect3700-5-6-8-4"
       style="opacity:0.6;fill:url(#linearGradient3897);fill-opacity:1;stroke:none" />
    <path
       style="color:#000000;fill:url(#linearGradient4004);fill-opacity:1;fill-rule:nonzero;stroke:none;stroke-width:0.99999994;marker:none;visibility:visible;display:inline;overflow:visible;enable-background:accumulate"
       d="M 7.5,5 C 6.1063514,5 5,6.1063514 5,7.5 l 0,49 C 5,57.893649 6.1063514,59 7.5,59 l 49,0 c 1.393649,0 2.5,-1.106351 2.5,-2.5 l 0,-49 C 59,6.1063514 57.893649,5 56.5,5 l -49,0 z"
       id="rect5505-21-3-8-5-2" />
    <rect
       style="opacity:0.1;fill:none;stroke:url(#linearGradient3911);stroke-width:1;stroke-linecap:round;stroke-linejoin:round;stroke-miterlimit:4;stroke-opacity:1;stroke-dasharray:none;stroke-dashoffset:0"
       id="rect6741-5-0-2-3"
       y="5.4287739"
       x="5.4999986"
       ry="2"
       rx="2"
       height="53.142479"
       width="53" />
    <rect
       style="opacity:0.41;color:#000000;fill:none;stroke:#000000;stroke-width:1;stroke-linecap:round;stroke-linejoin:round;stroke-miterlimit:4;stroke-opacity:1;stroke-dasharray:none;stroke-dashoffset:0;marker:none;visibility:visible;display:inline;overflow:visible;enable-background:accumulate"
       id="rect5505-21-3-8-9-1-1"
       y="4.5000019"
       x="4.4999986"
       ry="3"
       rx="3"
       height="55"
       width="55" />
    <path
       style="opacity:0.15;color:#000000;fill:#ffffff;fill-opacity:1;fill-rule:nonzero;stroke:none;stroke-width:0.99999994;marker:none;visibility:visible;display:inline;overflow:visible;enable-background:accumulate"
       d="M 7.5,5 C 6.1063514,5 5,6.1063514 5,7.5 l 0,1 C 5,7.1063514 6.1063514,6 7.5,6 l 49,0 C 57.893649,6 59,7.1063514 59,8.5 l 0,-1 C 59,6.1063514 57.893649,5 56.5,5 l -49,0 z"
       id="rect3932" />
    <path
       id="path3946"
       d="M 7.5,59 C 6.1063514,59 5,57.893649 5,56.5 l 0,-1 C 5,56.893649 6.1063514,58 7.5,58 l 49,0 c 1.393649,0 2.5,-1.106351 2.5,-2.5 l 0,1 c 0,1.393649 -1.106351,2.5 -2.5,2.5 l -49,0 z"
       style="opacity:0.15;color:#000000;fill:#ffffff;fill-opacity:1;fill-rule:nonzero;stroke:none;stroke-width:0.99999994;marker:none;visibility:visible;display:inline;overflow:visible;enable-background:accumulate" />
  </g>
  <g
     id="layer2"
     style="display:inline">
    <g
       transform="translate(-288,-136.49998)"
       id="g5006"
       style="opacity:0.4;fill:#ffffff;fill-opacity:1;display:inline;enable-background:new">
      <rect
         ry="6.9999843"
         y="173.49998"
         x="302"
         height="13.999969"
         width="35.999939"
         id="rect5008"
         style="color:#bebebe;fill:#ffffff;fill-opacity:1;fill-rule:nonzero;stroke:none;stroke-width:1;marker:none;visibility:visible;display:inline;overflow:visible;enable-background:accumulate" />
      <rect
         style="color:#bebebe;fill:#ffffff;fill-opacity:1;fill-rule:nonzero;stroke:none;stroke-width:1;marker:none;visibility:visible;display:inline;overflow:visible;enable-background:accumulate"
         id="rect5010"
         width="36"
         height="13.999985"
         x="302"
         y="151.50002"
         ry="6.7499886" />
      <rect
         ry="6"
         y="153.49998"
         x="316"
         height="12"
         width="21"
         id="rect5012"
         style="opacity:0.1;color:#bebebe;fill:#ffffff;fill-opacity:1;fill-rule:nonzero;stroke:none;stroke-width:1;marker:none;visibility:visible;display:inline;overflow:visible;enable-background:accumulate" />
      <rect
         style="color:#bebebe;fill:#ffffff;fill-opacity:1;fill-rule:nonzero;stroke:none;stroke-width:1;marker:none;visibility:visible;display:inline;overflow:visible;enable-background:accumulate"
         id="rect5014"
         width="21"
         height="12"
         x="316"
         y="152.49998"
         ry="6" />
      <rect
         style="opacity:0.1;color:#bebebe;fill:#ffffff;fill-opacity:1;fill-rule:nonzero;stroke:none;stroke-width:1;marker:none;visibility:visible;display:inline;overflow:visible;enable-background:accumulate"
         id="rect5016"
         width="21"
         height="12"
         x="303"
         y="175.49998"
         ry="6" />
      <rect
         ry="6"
         y="174.49998"
         x="303"
         height="12"
         width="21"
         id="rect5018"
         style="color:#bebebe;fill:#ffffff;fill-opacity:1;fill-rule:nonzero;stroke:none;stroke-width:1;marker:none;visibility:visible;display:inline;overflow:visible;enable-background:accumulate" />
      <rect
         transform="translate(-16,-10.500015)"
         style="opacity:0;color:#bebebe;fill:#ffffff;fill-opacity:1;stroke:#000000;stroke-width:1;stroke-opacity:1;marker:none;visibility:visible;display:inline;overflow:visible;enable-background:accumulate"
         id="rect5020"
         width="35.999939"
         height="13.999969"
         x="318"
         y="184"
         ry="6.9999843"
         clip-path="url(#clipPath4384)" />
      <rect
         transform="translate(-16,-10.500015)"
         clip-path="url(#clipPath4384)"
         ry="6.9999843"
         y="184"
         x="318"
         height="13.999969"
         width="35.999939"
         id="rect5022"
         style="opacity:0;color:#bebebe;fill:#ffffff;fill-opacity:1;stroke:#000000;stroke-width:2;stroke-miterlimit:4;stroke-opacity:1;stroke-dasharray:none;marker:none;visibility:visible;display:inline;overflow:visible;enable-background:accumulate" />
      <rect
         style="opacity:0;color:#bebebe;fill:#ffffff;fill-opacity:1;stroke:#000000;stroke-width:2;stroke-miterlimit:4;stroke-opacity:1;stroke-dasharray:none;marker:none;visibility:visible;display:inline;overflow:visible;enable-background:accumulate"
         id="rect5024"
         width="35.999939"
         height="13.999969"
         x="318"
         y="184"
         ry="6.9999843"
         clip-path="url(#clipPath4384)"
         transform="translate(-15.999969,-32.5)" />
      <rect
         transform="translate(-15.999969,-32.5)"
         clip-path="url(#clipPath4384)"
         ry="6.9999843"
         y="184"
         x="318"
         height="13.999969"
         width="35.999939"
         id="rect5026"
         style="opacity:0;color:#bebebe;fill:#ffffff;fill-opacity:1;stroke:#000000;stroke-width:1;stroke-miterlimit:4;stroke-opacity:1;stroke-dasharray:none;marker:none;visibility:visible;display:inline;overflow:visible;enable-background:accumulate" />
    </g>
    <rect
       ry="6.9999843"
       y="35.999996"
       x="14"
       height="13.999969"
       width="35.999939"
       id="rect4266"
       style="color:#bebebe;fill:url(#linearGradient4000);fill-opacity:1;fill-rule:nonzero;stroke:none;stroke-width:1;marker:none;visibility:visible;display:inline;overflow:visible;enable-background:accumulate" />
    <rect
       style="color:#bebebe;fill:url(#linearGradient3997);fill-opacity:1;fill-rule:nonzero;stroke:none;stroke-width:1;marker:none;visibility:visible;display:inline;overflow:visible;enable-background:accumulate"
       id="rect4268"
       width="36"
       height="13.999985"
       x="14"
       y="14.000025"
       ry="6.7499886" />
    <path
       style="color:#bebebe;fill:#000000;fill-opacity:1;fill-rule:nonzero;stroke:none;stroke-width:1;marker:none;visibility:visible;display:inline;overflow:visible;enable-background:accumulate;opacity:0.2"
       d="m 34,16 c -3.324,0 -6,2.676 -6,6 0,3.324 2.676,6 6,6 l 9,0 c 3.324,0 6,-2.676 6,-6 0,-3.324 -2.676,-6 -6,-6 l -9,0 z M 21,38 c -3.324,0 -6,2.676 -6,6 0,3.324 2.676,6 6,6 l 9,0 c 3.324,0 6,-2.676 6,-6 0,-3.324 -2.676,-6 -6,-6 l -9,0 z"
       id="path4002" />
    <rect
       ry="6"
       y="15.999994"
       x="28"
       height="12"
       width="21"
       id="rect4376"
       style="opacity:0.15;color:#bebebe;fill:#000000;fill-opacity:1;fill-rule:nonzero;stroke:none;stroke-width:1;marker:none;visibility:visible;display:inline;overflow:visible;enable-background:accumulate" />
    <path
       id="rect4276"
       d="m 34,15 c -3.324,0 -6,2.676 -6,6 0,3.324 2.676,6 6,6 l 9,0 c 3.324,0 6,-2.676 6,-6 0,-3.324 -2.676,-6 -6,-6 l -9,0 z M 21,37 c -3.324,0 -6,2.676 -6,6 0,3.324 2.676,6 6,6 l 9,0 c 3.324,0 6,-2.676 6,-6 0,-3.324 -2.676,-6 -6,-6 l -9,0 z"
       style="color:#bebebe;fill:url(#linearGradient3993);fill-opacity:1;fill-rule:nonzero;stroke:none;stroke-width:1;marker:none;visibility:visible;display:inline;overflow:visible;enable-background:accumulate" />
    <rect
       transform="translate(-304,-148)"
       style="opacity:0;color:#bebebe;fill:none;stroke:#000000;stroke-width:1;stroke-opacity:1;marker:none;visibility:visible;display:inline;overflow:visible;enable-background:accumulate"
       id="rect4380"
       width="35.999939"
       height="13.999969"
       x="318"
       y="184"
       ry="6.9999843"
       clip-path="url(#clipPath4384)" />
    <rect
       transform="translate(-304,-148)"
       clip-path="url(#clipPath4384)"
       ry="6.9999843"
       y="184"
       x="318"
       height="13.999969"
       width="35.999939"
       id="rect4388"
       style="opacity:0;color:#bebebe;fill:none;stroke:#000000;stroke-width:2;stroke-miterlimit:4;stroke-opacity:1;stroke-dasharray:none;marker:none;visibility:visible;display:inline;overflow:visible;enable-background:accumulate" />
    <rect
       style="opacity:0;color:#bebebe;fill:none;stroke:#000000;stroke-width:2;stroke-miterlimit:4;stroke-opacity:1;stroke-dasharray:none;marker:none;visibility:visible;display:inline;overflow:visible;enable-background:accumulate"
       id="rect4390"
       width="35.999939"
       height="13.999969"
       x="318"
       y="184"
       ry="6.9999843"
       clip-path="url(#clipPath4384)"
       transform="translate(-303.99997,-169.99999)" />
    <rect
       transform="translate(-303.99997,-169.99999)"
       clip-path="url(#clipPath4384)"
       ry="6.9999843"
       y="184"
       x="318"
       height="13.999969"
       width="35.999939"
       id="rect4392"
       style="opacity:0;color:#bebebe;fill:none;stroke:#000000;stroke-width:1;stroke-miterlimit:4;stroke-opacity:1;stroke-dasharray:none;marker:none;visibility:visible;display:inline;overflow:visible;enable-background:accumulate" />
    <path
       id="rect3957"
       d="M 20.75,14 C 17.010506,14 14,17.010506 14,20.75 l 0,0.5 c 0,0.08481 -0.0031,0.165963 0,0.25 0.132315,-3.621213 3.095323,-6.5 6.75,-6.5 l 22.5,0 c 3.654677,0 6.617685,2.878787 6.75,6.5 0.0031,-0.08404 0,-0.165187 0,-0.25 l 0,-0.5 C 50,17.010506 46.989494,14 43.25,14 l -22.5,0 z M 21,36 c -3.877991,0 -7,3.122009 -7,7 0,0.168747 0.01962,0.33431 0.03125,0.5 C 14.286845,39.857971 17.290757,37 21,37 l 22,0 c 3.709243,0 6.713155,2.857971 6.96875,6.5 C 49.980378,43.33431 50,43.168747 50,43 50,39.122009 46.877991,36 43,36 l -22,0 z"
       style="opacity:0.1;color:#bebebe;fill:#000000;fill-opacity:1;fill-rule:nonzero;stroke:none;stroke-width:1;marker:none;visibility:visible;display:inline;overflow:visible;enable-background:accumulate" />
    <path
       id="rect3967"
       d="m 34,15 c -3.324,0 -6,2.676 -6,6 0,0.124857 0.02381,0.252079 0.03125,0.375 C 28.337417,18.342114 30.88375,16 34,16 l 9,0 c 3.11625,0 5.662583,2.342114 5.96875,5.375 C 48.976194,21.252079 49,21.124857 49,21 49,17.676 46.324,15 43,15 l -9,0 z M 21,37 c -3.324,0 -6,2.676 -6,6 0,0.124857 0.02381,0.252079 0.03125,0.375 C 15.337417,40.342114 17.88375,38 21,38 l 9,0 c 3.11625,0 5.662583,2.342114 5.96875,5.375 C 35.976194,43.252079 36,43.124857 36,43 36,39.676 33.324,37 30,37 l -9,0 z"
       style="opacity:0.4;color:#bebebe;fill:#ffffff;fill-opacity:1;fill-rule:nonzero;stroke:none;stroke-width:1;marker:none;visibility:visible;display:inline;overflow:visible;enable-background:accumulate" />
  </g>
</svg>
