<?xml version="1.0" encoding="UTF-8" standalone="no"?>
<svg xmlns:rdf="http://www.w3.org/1999/02/22-rdf-syntax-ns#" style="enable-background:new" xmlns="http://www.w3.org/2000/svg" height="64" width="64" version="1.0" xmlns:cc="http://creativecommons.org/ns#" xmlns:xlink="http://www.w3.org/1999/xlink" xmlns:dc="http://purl.org/dc/elements/1.1/">
 <defs>
  <linearGradient id="linearGradient4002" x1="291" gradientUnits="userSpaceOnUse" y1="172" gradientTransform="matrix(0,-1,1,0,-140,352)" x2="349" y2="172">
   <stop stop-color="#846389" offset="0"/>
   <stop stop-color="#a38ea6" offset="1"/>
  </linearGradient>
  <linearGradient id="linearGradient3202" x1="444" gradientUnits="userSpaceOnUse" y1="1044" gradientTransform="matrix(-2.625,0,0,2.625,1186.4,-2734.2)" x2="444" y2="1060">
   <stop stop-color="#f8e6fe" offset="0"/>
   <stop stop-color="#d1addd" offset="1"/>
  </linearGradient>
  <linearGradient id="linearGradient3198" x1="441.74" gradientUnits="userSpaceOnUse" y1="1047.1" gradientTransform="matrix(2.625 0 0 2.625 -1123 -2729.5)" x2="441.74" y2="1060.8">
   <stop stop-color="#f8e6fe" offset="0"/>
   <stop stop-color="#edddf2" offset="1"/>
  </linearGradient>
 </defs>
 <metadata>
  <rdf:RDF>
   <cc:Work rdf:about="">
    <dc:format>image/svg+xml</dc:format>
    <dc:type rdf:resource="http://purl.org/dc/dcmitype/StillImage"/>
    <dc:creator>
     <cc:Agent>
      <dc:title>Sam Hewitt</dc:title>
     </cc:Agent>
    </dc:creator>
    <dc:source/>
    <cc:license rdf:resource=""/>
    <dc:title/>
    <dc:subject>
     <rdf:Bag/>
    </dc:subject>
    <dc:date/>
    <dc:rights>
     <cc:Agent>
      <dc:title/>
     </cc:Agent>
    </dc:rights>
    <dc:publisher>
     <cc:Agent>
      <dc:title/>
     </cc:Agent>
    </dc:publisher>
    <dc:identifier/>
    <dc:relation/>
    <dc:language/>
    <dc:coverage/>
    <dc:description/>
    <dc:contributor>
     <cc:Agent>
      <dc:title/>
     </cc:Agent>
    </dc:contributor>
   </cc:Work>
   <cc:Work rdf:about="">
    <dc:format>image/svg+xml</dc:format>
    <dc:type rdf:resource="http://purl.org/dc/dcmitype/StillImage"/>
   </cc:Work>
  </rdf:RDF>
 </metadata>
 <rect opacity=".15" style="color:#bebebe;enable-background:accumulate" ry="12.5" height="60" width="60" y="3" x="2"/>
 <path style="color:#bebebe;enable-background:accumulate" fill="url(#linearGradient4002)" d="m14.5 2.5c-6.66 0-12 5.34-12 12v35c0 6.66 5.34 12 12 12h35c6.66 0 12-5.34 12-12v-35c0-6.66-5.34-12-12-12h-35z"/>
 <path opacity=".2" d="m12 16v30c0 5 5 5 5 5h30c5 0 5-5 5-5v-22s0-1 0.00002-1c0 0 0-2-2-2l-12.563 0.0497c-3.1666 0.0125-4.8438-1.6562-6.3438-3.1562s-2.8229-2.8325-5.6562-2.8438l-12.44-0.05s-1 0-1 1z" style="color:#000000;block-progression:tb;enable-background:accumulate;text-transform:none;text-indent:0"/>
 <path opacity=".2" d="m10.51 28s-0.36698 0.00029-0.75 0.1875c-0.1546 0.077-0.3778 0.203-0.5312 0.437-0.1535 0.234-0.2613 0.525-0.2188 0.875l2.002 16.5s-0.002 1.2473 0.625 2.5c0.61755 1.2352 1.8862 2.5 4.375 2.5h32c2.4888 0 3.7574-1.2648 4.375-2.5 0.62651-1.2527 0.625-2.5 0.625-2.5l2-16.5c0.043-0.35-0.065-0.641-0.219-0.875-0.153-0.234-0.376-0.36-0.531-0.437-0.387-0.194-0.75-0.188-0.75-0.188h-43.002z" style="color:#000000;block-progression:tb;enable-background:accumulate;text-transform:none;text-indent:0"/>
 <path opacity=".2" d="m10.51 29s-0.36698 0.00029-0.75 0.1875c-0.1546 0.077-0.3778 0.203-0.5312 0.437-0.1535 0.234-0.2613 0.525-0.2188 0.875l2.002 16.5s-0.002 1.2473 0.625 2.5c0.61755 1.2352 1.8862 2.5 4.375 2.5h32c2.4888 0 3.7574-1.2648 4.375-2.5 0.62651-1.2527 0.625-2.5 0.625-2.5l2-16.5c0.043-0.35-0.065-0.641-0.219-0.875-0.153-0.234-0.376-0.36-0.531-0.437-0.387-0.194-0.75-0.188-0.75-0.188h-43.002z" style="color:#000000;block-progression:tb;enable-background:accumulate;text-transform:none;text-indent:0"/>
 <path style="color:#000000;block-progression:tb;enable-background:accumulate;text-transform:none;text-indent:0" fill="url(#linearGradient3202)" d="m12 15v30c0 5 5 5 5 5h30c5 0 5-5 5-5v-22s0-1 0.00002-1c0 0 0-2-2-2l-12.563 0.0497c-3.1666 0.0125-4.8438-1.6562-6.3438-3.1562s-2.8229-2.8325-5.6562-2.8438l-12.437-0.05s-1 0-1 1z"/>
 <path opacity=".1" style="color:#000000;block-progression:tb;enable-background:accumulate;text-transform:none;text-indent:0" d="m10.51 27s-0.36698 0.00029-0.75 0.1875c-0.1546 0.077-0.3778 0.203-0.5312 0.437-0.1535 0.234-0.2613 0.525-0.2188 0.875l2.002 16.5s-0.002 1.2473 0.625 2.5c0.61755 1.2352 1.8862 2.5 4.375 2.5h32c2.4888 0 3.7574-1.2648 4.375-2.5 0.62651-1.2527 0.625-2.5 0.625-2.5l2-16.5c0.043-0.35-0.065-0.641-0.219-0.875-0.153-0.234-0.376-0.36-0.531-0.437-0.387-0.194-0.75-0.188-0.75-0.188h-43.002z"/>
 <path style="color:#000000;block-progression:tb;enable-background:accumulate;text-transform:none;text-indent:0" fill="url(#linearGradient3198)" d="m10.51 28s-0.36698 0.00029-0.75 0.1875c-0.1546 0.077-0.3778 0.203-0.5312 0.437-0.1535 0.234-0.2613 0.525-0.2188 0.875l2.002 16.5s-0.002 1.2473 0.625 2.5c0.61755 1.2352 1.8862 2.5 4.375 2.5h32c2.4888 0 3.7574-1.2648 4.375-2.5 0.62651-1.2527 0.625-2.5 0.625-2.5l2-16.5c0.043-0.35-0.065-0.641-0.219-0.875-0.153-0.234-0.376-0.36-0.531-0.437-0.387-0.194-0.75-0.188-0.75-0.188h-43.002z"/>
 <g fill="#fff">
  <path d="m12.84 14c-0.28125 0.0469-0.84375 0.25-0.84375 1v1c0-1 1-1 1-1l12.438 0.0625c2.8333 0.0113 4.1562 1.3438 5.6562 2.8438s3.1771 3.1688 6.3438 3.1562l12.562-0.062c2 0 2 2 2 2s-0.00002-1 0-1c0 0 0-2-2-2l-12.562 0.0625c-3.1666 0.0125-4.8438-1.6562-6.3438-3.1562s-2.8229-2.8324-5.6562-2.8438l-12.438-0.062s-0.0625-0.0156-0.15625 0z" style="color:#000000;block-progression:tb;enable-background:accumulate;text-transform:none;text-indent:0"/>
  <path d="m10.5 28s-0.36698 0.00029-0.75 0.1875c-0.1546 0.077-0.3778 0.203-0.5312 0.437-0.1535 0.234-0.2613 0.525-0.2188 0.875l0.0625 0.46875c0.0406-0.119 0.0915-0.245 0.1563-0.344 0.1534-0.234 0.3766-0.36 0.5312-0.437 0.383-0.188 0.75-0.188 0.75-0.188h43s0.36294-0.006 0.75 0.1875c0.15457 0.0773 0.37778 0.20366 0.53125 0.4375 0.0648 0.0987 0.11563 0.22455 0.15625 0.34375l0.063-0.469c0.042-0.35-0.065-0.641-0.219-0.875-0.153-0.234-0.376-0.36-0.531-0.437-0.387-0.194-0.75-0.188-0.75-0.188h-43z" style="color:#000000;block-progression:tb;enable-background:accumulate;text-transform:none;text-indent:0"/>
  <path opacity="0.13" style="color:#bebebe;enable-background:accumulate" d="m14.5 3c-6.3883 0-11.5 5.1117-11.5 11.5v1c0-6.3883 5.1117-11.5 11.5-11.5h35c6.388 0 11.5 5.1117 11.5 11.5v-1c0-6.3883-5.112-11.5-11.5-11.5h-35z"/>
 </g>
 <path opacity="0.13" d="m49.5 62c6.388 0 11.5-5.112 11.5-11.5v-1c0 6.388-5.112 11.5-11.5 11.5h-35c-6.3883 0-11.5-5.112-11.5-11.5v1c0 6.388 5.1117 11.5 11.5 11.5h35z" style="color:#bebebe;enable-background:accumulate"/>
 <path opacity=".1" style="color:#bebebe;enable-background:accumulate" d="m14.5 61c-6.3883 0-11.5-5.112-11.5-11.5v-1c0 6.388 5.1117 11.5 11.5 11.5h35c6.388 0 11.5-5.112 11.5-11.5v1c0 6.388-5.112 11.5-11.5 11.5h-35z" fill="#fff"/>
 <path opacity="0.41" style="color:#bebebe;enable-background:accumulate" d="m14.5 2c-6.925 0-12.5 5.575-12.5 12.5v35c0 6.925 5.575 12.5 12.5 12.5h35c6.925 0 12.5-5.575 12.5-12.5v-35c0-6.925-5.575-12.5-12.5-12.5h-35zm0 1h35c6.388 0 11.5 5.1117 11.5 11.5v35c0 6.388-5.112 11.5-11.5 11.5h-35c-6.3883 0-11.5-5.112-11.5-11.5v-35c0-6.3883 5.1117-11.5 11.5-11.5z"/>
</svg>
