<?xml version="1.0" encoding="UTF-8" standalone="no"?>
<svg xmlns:rdf="http://www.w3.org/1999/02/22-rdf-syntax-ns#" style="enable-background:new" xmlns="http://www.w3.org/2000/svg" height="64" width="64" version="1.0" xmlns:cc="http://creativecommons.org/ns#" xmlns:xlink="http://www.w3.org/1999/xlink" xmlns:dc="http://purl.org/dc/elements/1.1/">
 <defs>
  <linearGradient id="linearGradient4002" x1="291" xlink:href="#outerBackgroundGradient-7" gradientUnits="userSpaceOnUse" y1="172" gradientTransform="matrix(0,-1,1,0,-140,352)" x2="349" y2="172"/>
  <clipPath id="clipPath4384" clipPathUnits="userSpaceOnUse">
   <rect opacity="0" style="color:#bebebe;enable-background:accumulate" ry="7" height="14" width="36" y="184" x="318"/>
  </clipPath>
  <linearGradient id="outerBackgroundGradient-7">
   <stop stop-color="#ddd" offset="0"/>
   <stop stop-color="#f2f2f2" offset="1"/>
  </linearGradient>
  <linearGradient id="linearGradient4914" x1="328" gradientUnits="userSpaceOnUse" y1="235" gradientTransform="matrix(1.5,0,0,1.5,-460,-352)" x2="328" y2="277">
   <stop stop-color="#aaa" offset="0"/>
   <stop stop-color="#767676" offset="1"/>
  </linearGradient>
  <linearGradient id="linearGradient4916" x1="324" gradientUnits="userSpaceOnUse" y1="231" gradientTransform="matrix(1.5,0,0,1.5,-460,-346)" x2="324" y2="273">
   <stop stop-color="#cd5fc2" offset="0"/>
   <stop stop-color="#9a4993" offset="1"/>
  </linearGradient>
  <linearGradient id="linearGradient4918" x1="336" xlink:href="#outerBackgroundGradient-7" gradientUnits="userSpaceOnUse" y1="273" gradientTransform="matrix(1.5,0,0,1.5,-460,-346)" x2="336" y2="231"/>
 </defs>
 <metadata>
  <rdf:RDF>
   <cc:Work rdf:about="">
    <dc:format>image/svg+xml</dc:format>
    <dc:type rdf:resource="http://purl.org/dc/dcmitype/StillImage"/>
    <dc:creator>
     <cc:Agent>
      <dc:title>Sam Hewitt</dc:title>
     </cc:Agent>
    </dc:creator>
    <dc:source/>
    <cc:license rdf:resource=""/>
    <dc:title/>
    <dc:subject>
     <rdf:Bag/>
    </dc:subject>
    <dc:date/>
    <dc:rights>
     <cc:Agent>
      <dc:title/>
     </cc:Agent>
    </dc:rights>
    <dc:publisher>
     <cc:Agent>
      <dc:title/>
     </cc:Agent>
    </dc:publisher>
    <dc:identifier/>
    <dc:relation/>
    <dc:language/>
    <dc:coverage/>
    <dc:description/>
    <dc:contributor>
     <cc:Agent>
      <dc:title/>
     </cc:Agent>
    </dc:contributor>
   </cc:Work>
   <cc:Work rdf:about="">
    <dc:format>image/svg+xml</dc:format>
    <dc:type rdf:resource="http://purl.org/dc/dcmitype/StillImage"/>
   </cc:Work>
  </rdf:RDF>
 </metadata>
 <rect opacity=".15" style="color:#bebebe;enable-background:accumulate" ry="12.5" height="60" width="60" y="3" x="2"/>
 <path style="color:#bebebe;enable-background:accumulate" fill="url(#linearGradient4002)" d="m14.5 3c-6.39 0-11.5 5.11-11.5 11.5v35c0 6.39 5.11 11.5 11.5 11.5h35c6.39 0 11.5-5.11 11.5-11.5v-35c0-6.39-5.11-11.5-11.5-11.5h-35z"/>
 <path opacity="0.41" d="m14.5 2c-6.925 0-12.5 5.575-12.5 12.5v35c0 6.925 5.575 12.5 12.5 12.5h35c6.925 0 12.5-5.575 12.5-12.5v-35c0-6.925-5.575-12.5-12.5-12.5h-35zm0 1h35c6.388 0 11.5 5.1117 11.5 11.5v35c0 6.388-5.112 11.5-11.5 11.5h-35c-6.3883 0-11.5-5.112-11.5-11.5v-35c0-6.3883 5.1117-11.5 11.5-11.5z" style="color:#bebebe;enable-background:accumulate"/>
 <g fill="#fff">
  <rect style="color:#bebebe;enable-background:accumulate" ry="7" height="14" width="36" y="37" x="14"/>
  <rect style="color:#bebebe;enable-background:accumulate" ry="6.75" height="14" width="36" y="15" x="14"/>
  <rect opacity=".1" style="color:#bebebe;enable-background:accumulate" ry="6" height="12" width="21" y="17" x="28"/>
  <rect style="color:#bebebe;enable-background:accumulate" ry="6" height="12" width="21" y="16" x="28"/>
  <rect opacity=".1" style="color:#bebebe;enable-background:accumulate" ry="6" height="12" width="21" y="39" x="15"/>
  <rect style="color:#bebebe;enable-background:accumulate" ry="6" height="12" width="21" y="38" x="15"/>
 </g>
 <rect opacity="0" ry="7" style="color:#bebebe;enable-background:accumulate" clip-path="url(#clipPath4384)" transform="translate(-304,-147)" height="14" width="36" y="184" x="318"/>
 <rect opacity="0" style="color:#bebebe;enable-background:accumulate" transform="translate(-304,-147)" clip-path="url(#clipPath4384)" ry="7" height="14" width="36" y="184" x="318" stroke-width="2"/>
 <rect opacity="0" style="color:#bebebe;enable-background:accumulate" transform="translate(-304,-169)" clip-path="url(#clipPath4384)" ry="7" height="14" width="36" y="184" x="318" stroke-width="2"/>
 <rect opacity="0" style="color:#bebebe;enable-background:accumulate" transform="translate(-304,-169)" clip-path="url(#clipPath4384)" ry="7" height="14" width="36" y="184" x="318"/>
 <rect style="color:#bebebe;enable-background:accumulate" ry="7" height="14" width="36" y="36" x="14" fill="url(#linearGradient4914)"/>
 <rect style="color:#bebebe;enable-background:accumulate" ry="6.75" height="14" width="36" y="14" x="14" fill="url(#linearGradient4916)"/>
 <rect opacity=".15" style="color:#bebebe;enable-background:accumulate" ry="6" height="12" width="21" y="16" x="28"/>
 <rect style="color:#bebebe;enable-background:accumulate" ry="6" height="12" width="21" y="15" x="28" fill="url(#linearGradient4918)"/>
 <rect opacity=".15" style="color:#bebebe;enable-background:accumulate" ry="6" height="12" width="21" y="38" x="15"/>
 <rect style="color:#bebebe;enable-background:accumulate" ry="6" height="12" width="21" y="37" x="15" fill="url(#linearGradient4918)"/>
 <rect opacity="0" style="color:#bebebe;enable-background:accumulate" transform="translate(-304,-148)" clip-path="url(#clipPath4384)" ry="7" height="14" width="36" y="184" x="318"/>
 <rect opacity="0" style="color:#bebebe;enable-background:accumulate" transform="translate(-304,-148)" clip-path="url(#clipPath4384)" ry="7" height="14" width="36" y="184" x="318" stroke-width="2"/>
 <rect opacity="0" style="color:#bebebe;enable-background:accumulate" transform="translate(-304,-170)" clip-path="url(#clipPath4384)" ry="7" height="14" width="36" y="184" x="318" stroke-width="2"/>
 <rect opacity="0" style="color:#bebebe;enable-background:accumulate" transform="translate(-304,-170)" clip-path="url(#clipPath4384)" ry="7" height="14" width="36" y="184" x="318"/>
 <path opacity="0.13" style="color:#bebebe;enable-background:accumulate" d="m14.5 3c-6.3883 0-11.5 5.1117-11.5 11.5v1c0-6.3883 5.1117-11.5 11.5-11.5h35c6.388 0 11.5 5.1117 11.5 11.5v-1c0-6.3883-5.112-11.5-11.5-11.5h-35z" fill="#fff"/>
 <path opacity="0.13" d="m49.5 62c6.388 0 11.5-5.112 11.5-11.5v-1c0 6.388-5.112 11.5-11.5 11.5h-35c-6.3883 0-11.5-5.112-11.5-11.5v1c0 6.388 5.1117 11.5 11.5 11.5h35z" style="color:#bebebe;enable-background:accumulate"/>
 <path opacity=".1" style="color:#bebebe;enable-background:accumulate" d="m14.5 61c-6.3883 0-11.5-5.112-11.5-11.5v-1c0 6.388 5.1117 11.5 11.5 11.5h35c6.388 0 11.5-5.112 11.5-11.5v1c0 6.388-5.112 11.5-11.5 11.5h-35z" fill="#fff"/>
</svg>
