<?xml version="1.0" encoding="UTF-8" standalone="no"?>
<svg xmlns:rdf="http://www.w3.org/1999/02/22-rdf-syntax-ns#" style="enable-background:new" xmlns="http://www.w3.org/2000/svg" height="64" width="64" version="1.0" xmlns:cc="http://creativecommons.org/ns#" xmlns:dc="http://purl.org/dc/elements/1.1/">
 <defs>
  <linearGradient id="linearGradient4266" y2="172" gradientUnits="userSpaceOnUse" x2="349" gradientTransform="matrix(0,-1,1,0,-140,352)" y1="172" x1="291">
   <stop stop-color="#5f5f5f" offset="0"/>
   <stop stop-color="#878787" offset="1"/>
  </linearGradient>
 </defs>
 <metadata>
  <rdf:RDF>
   <cc:Work rdf:about="">
    <dc:format>image/svg+xml</dc:format>
    <dc:type rdf:resource="http://purl.org/dc/dcmitype/StillImage"/>
    <dc:creator>
     <cc:Agent>
      <dc:title>Sam Hewitt</dc:title>
     </cc:Agent>
    </dc:creator>
    <dc:source/>
    <cc:license rdf:resource=""/>
    <dc:title/>
    <dc:subject>
     <rdf:Bag/>
    </dc:subject>
    <dc:date/>
    <dc:rights>
     <cc:Agent>
      <dc:title/>
     </cc:Agent>
    </dc:rights>
    <dc:publisher>
     <cc:Agent>
      <dc:title/>
     </cc:Agent>
    </dc:publisher>
    <dc:identifier/>
    <dc:relation/>
    <dc:language/>
    <dc:coverage/>
    <dc:description/>
    <dc:contributor>
     <cc:Agent>
      <dc:title/>
     </cc:Agent>
    </dc:contributor>
   </cc:Work>
   <cc:Work rdf:about="">
    <dc:format>image/svg+xml</dc:format>
    <dc:type rdf:resource="http://purl.org/dc/dcmitype/StillImage"/>
   </cc:Work>
  </rdf:RDF>
 </metadata>
 <rect opacity=".1" style="color:#bebebe;enable-background:accumulate" ry="12.5" height="60" width="60" y="3" x="2"/>
 <path style="color:#bebebe;enable-background:accumulate" d="m14.5 2.5c-6.66 0-12 5.34-12 12v35c0 6.66 5.34 12 12 12h35c6.66 0 12-5.34 12-12v-35c0-6.66-5.34-12-12-12h-35z" fill="url(#linearGradient4266)"/>
 <path opacity=".2" style="color:#000000;enable-background:new" d="m18 13c-1.108 0-2 0.892-2 2v36c0 1.108 0.892 2 2 2h28c1.108 0 2-0.892 2-2v-28.31l-9.69-9.69zm21.688 0 8.31 8.31v-6.31c0-1.108-0.892-2-2-2z"/>
 <path style="color:#000000;enable-background:new" d="m18 12c-1.108 0-2 0.892-2 2v36c0 1.108 0.892 2 2 2h28c1.108 0 2-0.892 2-2v-28.31l-9.69-9.69zm21.688 0 8.31 8.31v-6.31c0-1.108-0.892-2-2-2z" fill="#fff"/>
 <path opacity=".13" style="color:#bebebe;enable-background:accumulate" d="m14.5 3c-6.3883 0-11.5 5.1117-11.5 11.5v1c0-6.3883 5.1117-11.5 11.5-11.5h35c6.388 0 11.5 5.1117 11.5 11.5v-1c0-6.3883-5.112-11.5-11.5-11.5h-35z" fill="#fff"/>
 <path opacity=".5" style="color:#bebebe;enable-background:accumulate" d="m49.5 62c6.388 0 11.5-5.112 11.5-11.5v-1c0 6.388-5.112 11.5-11.5 11.5h-35c-6.3883 0-11.5-5.112-11.5-11.5v1c0 6.388 5.1117 11.5 11.5 11.5h35z"/>
 <path opacity=".1" style="color:#bebebe;enable-background:accumulate" d="m14.5 61c-6.3883 0-11.5-5.112-11.5-11.5v-1c0 6.388 5.1117 11.5 11.5 11.5h35c6.388 0 11.5-5.112 11.5-11.5v1c0 6.388-5.112 11.5-11.5 11.5h-35z" fill="#fff"/>
 <path opacity=".41" style="color:#bebebe;enable-background:accumulate" d="m14.5 2c-6.925 0-12.5 5.575-12.5 12.5v35c0 6.925 5.575 12.5 12.5 12.5h35c6.925 0 12.5-5.575 12.5-12.5v-35c0-6.925-5.575-12.5-12.5-12.5h-35zm0 1h35c6.388 0 11.5 5.1117 11.5 11.5v35c0 6.388-5.112 11.5-11.5 11.5h-35c-6.3883 0-11.5-5.112-11.5-11.5v-35c0-6.3883 5.1117-11.5 11.5-11.5z"/>
</svg>
