<svg xmlns:svg="http://www.w3.org/2000/svg" xmlns="http://www.w3.org/2000/svg" viewBox="0 0 120 120" height="120" width="120" xml:space="preserve" version="1.1"><defs><linearGradient id="gradiant1" spreadMethod="pad" gradientTransform="matrix(0,97.396584,-97.396584,0,51.620814,11.389501)" gradientUnits="userSpaceOnUse" y2="0" x2="1" y1="0" x1="0"><stop offset="0" style="stop-color:#ff1b2d;stop-opacity:1"/><stop offset="0.3" style="stop-color:#ff1b2d;stop-opacity:1"/><stop offset="0.61" style="stop-color:#ff1b2d;stop-opacity:1"/><stop offset="1" style="stop-color:#a70014;stop-opacity:1"/></linearGradient><linearGradient id="gradiant2" spreadMethod="pad" gradientTransform="matrix(0,86.142511,-86.142511,0,76.85435,17.130095)" gradientUnits="userSpaceOnUse" y2="0" x2="1" y1="0" x1="0"><stop offset="0" style="stop-color:#9c0000;stop-opacity:1"/><stop offset="0.7" style="stop-color:#ff4b4b;stop-opacity:1"/><stop offset="1" style="stop-color:#ff4b4b;stop-opacity:1"/></linearGradient></defs><path d="m60 9.75c-27.75 0-50.25 22.5-50.25 50.25l0 0c0 26.95 21.22 48.94 47.86 50.19l0 0c0.8 0.04 1.59 0.06 2.39 0.06l0 0c12.87 0 24.6-4.84 33.49-12.79l0 0c-5.89 3.91-12.78 6.15-20.14 6.15l0 0c-11.97 0-22.68-5.94-29.89-15.3l0 0c-5.56-6.56-9.15-16.25-9.4-27.13l0 0c0-0.03 0-2.34 0-2.37l0 0c0.25-10.88 3.84-20.58 9.4-27.13l0 0c7.21-9.36 17.93-15.3 29.89-15.3l0 0c7.36 0 14.25 2.25 20.14 6.16l0 0C84.65 14.63 72.98 9.8 60.19 9.75l0 0c-0.06 0-0.13 0-0.19 0z" fill="url(#gradiant1)"/><path d="m43.46 31.68c4.61-5.44 10.57-8.73 17.07-8.73l0 0c14.63 0 26.49 16.59 26.49 37.04l0 0c0 20.46-11.86 37.04-26.49 37.04l0 0c-6.51 0-12.46-3.28-17.07-8.72l0 0c7.21 9.36 17.92 15.3 29.89 15.3l0 0c7.36 0 14.25-2.25 20.14-6.15l0 0c10.29-9.2 16.76-22.57 16.76-37.46l0 0c0-14.88-6.47-28.26-16.76-37.46l0 0C87.6 18.63 80.71 16.39 73.35 16.39l0 0c-11.97 0-22.68 5.94-29.89 15.3" fill="url(#gradiant2)"/></svg>