<?xml version="1.0" encoding="UTF-8" standalone="no"?>
<svg xmlns:rdf="http://www.w3.org/1999/02/22-rdf-syntax-ns#" style="enable-background:new" xmlns="http://www.w3.org/2000/svg" height="64" width="64" version="1.0" xmlns:cc="http://creativecommons.org/ns#" xmlns:xlink="http://www.w3.org/1999/xlink" xmlns:dc="http://purl.org/dc/elements/1.1/">
 <defs>
  <linearGradient id="linearGradient4002" x1="291" gradientUnits="userSpaceOnUse" y1="172" gradientTransform="matrix(0,-1,1,0,-140,352)" x2="349" y2="172">
   <stop stop-color="#d6d5c7" offset="0"/>
   <stop stop-color="#f8f9ec" offset="1"/>
  </linearGradient>
 </defs>
 <metadata>
  <rdf:RDF>
   <cc:Work rdf:about="">
    <dc:format>image/svg+xml</dc:format>
    <dc:type rdf:resource="http://purl.org/dc/dcmitype/StillImage"/>
    <dc:creator>
     <cc:Agent>
      <dc:title>Sam Hewitt</dc:title>
     </cc:Agent>
    </dc:creator>
    <dc:source/>
    <cc:license rdf:resource=""/>
    <dc:title/>
    <dc:subject>
     <rdf:Bag/>
    </dc:subject>
    <dc:date/>
    <dc:rights>
     <cc:Agent>
      <dc:title/>
     </cc:Agent>
    </dc:rights>
    <dc:publisher>
     <cc:Agent>
      <dc:title/>
     </cc:Agent>
    </dc:publisher>
    <dc:identifier/>
    <dc:relation/>
    <dc:language/>
    <dc:coverage/>
    <dc:description/>
    <dc:contributor>
     <cc:Agent>
      <dc:title/>
     </cc:Agent>
    </dc:contributor>
   </cc:Work>
   <cc:Work rdf:about="">
    <dc:format>image/svg+xml</dc:format>
    <dc:type rdf:resource="http://purl.org/dc/dcmitype/StillImage"/>
   </cc:Work>
  </rdf:RDF>
 </metadata>
 <rect opacity=".15" style="color:#bebebe;enable-background:accumulate" ry="12.5" height="60" width="60" y="3" x="2"/>
 <path style="color:#bebebe;enable-background:accumulate" fill="url(#linearGradient4002)" d="m14.5 3c-6.39 0-11.5 5.11-11.5 11.5v35c0 6.39 5.11 11.5 11.5 11.5h35c6.39 0 11.5-5.11 11.5-11.5v-35c0-6.39-5.11-11.5-11.5-11.5h-35z"/>
 <path opacity="0.41" d="m14.5 2c-6.925 0-12.5 5.575-12.5 12.5v35c0 6.925 5.575 12.5 12.5 12.5h35c6.925 0 12.5-5.575 12.5-12.5v-35c0-6.925-5.575-12.5-12.5-12.5h-35zm0 1h35c6.388 0 11.5 5.1117 11.5 11.5v35c0 6.388-5.112 11.5-11.5 11.5h-35c-6.3883 0-11.5-5.112-11.5-11.5v-35c0-6.3883 5.1117-11.5 11.5-11.5z" style="color:#bebebe;enable-background:accumulate"/>
 <g fill="#fff">
  <path style="color:#bebebe;enable-background:accumulate" d="m21 39.02c-3.866 0-7 3.134-7 7s3.134 7 7 7 7-3.134 7-7-3.134-7-7-7z"/>
  <path style="color:#000000;block-progression:tb;enable-background:accumulate;text-transform:none;text-indent:0" d="m50 13.98-24 3.501v28.5h2v-22.365l20-2.7505v22.115h2v-25z"/>
  <path style="color:#bebebe;enable-background:accumulate" d="m43 36.14c-3.866 0-7 3.134-7 7s3.134 7 7 7 7-3.134 7-7-3.134-7-7-7z"/>
 </g>
 <g fill="#2d2d2d">
  <path style="color:#bebebe;enable-background:accumulate" d="m21 38.02c-3.866 0-7 3.134-7 7s3.134 7 7 7 7-3.134 7-7-3.134-7-7-7z"/>
  <path style="color:#000000;block-progression:tb;enable-background:accumulate;text-transform:none;text-indent:0" d="m50 12.98-24 3.501v28.5h2v-22.365l20-2.7505v22.115h2v-25z"/>
  <path style="color:#bebebe;enable-background:accumulate" d="m43 35.14c-3.866 0-7 3.134-7 7s3.134 7 7 7 7-3.134 7-7-3.134-7-7-7z"/>
 </g>
 <path opacity="0.13" style="color:#bebebe;enable-background:accumulate" d="m14.5 3c-6.3883 0-11.5 5.1117-11.5 11.5v1c0-6.3883 5.1117-11.5 11.5-11.5h35c6.388 0 11.5 5.1117 11.5 11.5v-1c0-6.3883-5.112-11.5-11.5-11.5h-35z" fill="#fff"/>
 <path opacity="0.13" d="m49.5 62c6.388 0 11.5-5.112 11.5-11.5v-1c0 6.388-5.112 11.5-11.5 11.5h-35c-6.3883 0-11.5-5.112-11.5-11.5v1c0 6.388 5.1117 11.5 11.5 11.5h35z" style="color:#bebebe;enable-background:accumulate"/>
 <path opacity=".1" style="color:#bebebe;enable-background:accumulate" d="m14.5 61c-6.3883 0-11.5-5.112-11.5-11.5v-1c0 6.388 5.1117 11.5 11.5 11.5h35c6.388 0 11.5-5.112 11.5-11.5v1c0 6.388-5.112 11.5-11.5 11.5h-35z" fill="#fff"/>
</svg>
