<?xml version="1.0" encoding="UTF-8" standalone="no"?>
<svg xmlns:rdf="http://www.w3.org/1999/02/22-rdf-syntax-ns#" style="enable-background:new" xmlns="http://www.w3.org/2000/svg" height="64" width="64" version="1.0" xmlns:cc="http://creativecommons.org/ns#" xmlns:xlink="http://www.w3.org/1999/xlink" xmlns:dc="http://purl.org/dc/elements/1.1/">
 <defs>
  <linearGradient id="linearGradient4266" x1="291" gradientUnits="userSpaceOnUse" y1="172" gradientTransform="matrix(0,-1,1,0,-140,352)" x2="349" y2="172">
   <stop stop-color="#128dc2" offset="0"/>
   <stop stop-color="#111d2f" offset="1"/>
  </linearGradient>
  <linearGradient id="linearGradient3886" x1="320" gradientUnits="userSpaceOnUse" x2="320" gradientTransform="translate(-288,-140)" y1="176" y2="142">
   <stop stop-color="#fff" offset="0"/>
   <stop stop-color="#506372" offset="1"/>
  </linearGradient>
 </defs>
 <metadata>
  <rdf:RDF>
   <cc:Work rdf:about="">
    <dc:format>image/svg+xml</dc:format>
    <dc:type rdf:resource="http://purl.org/dc/dcmitype/StillImage"/>
    <dc:creator>
     <cc:Agent>
      <dc:title>Sam Hewitt</dc:title>
     </cc:Agent>
    </dc:creator>
    <dc:source/>
    <cc:license rdf:resource=""/>
    <dc:title/>
    <dc:subject>
     <rdf:Bag/>
    </dc:subject>
    <dc:date/>
    <dc:rights>
     <cc:Agent>
      <dc:title/>
     </cc:Agent>
    </dc:rights>
    <dc:publisher>
     <cc:Agent>
      <dc:title/>
     </cc:Agent>
    </dc:publisher>
    <dc:identifier/>
    <dc:relation/>
    <dc:language/>
    <dc:coverage/>
    <dc:description/>
    <dc:contributor>
     <cc:Agent>
      <dc:title/>
     </cc:Agent>
    </dc:contributor>
   </cc:Work>
   <cc:Work rdf:about="">
    <dc:format>image/svg+xml</dc:format>
    <dc:type rdf:resource="http://purl.org/dc/dcmitype/StillImage"/>
   </cc:Work>
  </rdf:RDF>
 </metadata>
 <rect opacity=".1" style="color:#bebebe;enable-background:accumulate" ry="12.5" height="60" width="60" y="3" x="2"/>
 <path style="color:#bebebe;enable-background:accumulate" fill="url(#linearGradient4266)" d="m14.5 2.5c-6.66 0-12 5.34-12 12v35c0 6.66 5.34 12 12 12h35c6.66 0 12-5.34 12-12v-35c0-6.66-5.34-12-12-12h-35z"/>
 <path opacity=".2" d="m47.04 23.19c-3.0311 0.13607-5.39 2.6333-5.4311 5.6444l-3.8211 5.2953c-0.0643 0.00003-0.12907-0.003-0.19397 0-0.78078 0.0351-1.498 0.28699-2.1142 0.67888l-15.944-6.8082c-0.41849-1.9614-2.1316-3.4332-4.2091-3.4332-2.3907 0-4.3254 1.9411-4.3254 4.3448 0 2.4038 1.9348 4.3642 4.3254 4.3642 0.85776 0 1.6555-0.26362 2.3276-0.69828l15.905 6.8082c0.43365 2.0428 2.2781 3.5295 4.4224 3.4332 2.2909-0.10283 4.0841-1.9756 4.1315-4.2479l5.1983-3.9181c0.0843-0.00006 0.16706 0.004 0.25215 0 3.1452-0.14118 5.573-2.8312 5.4311-5.9936-0.14195-3.1624-2.8096-5.611-5.9548-5.4699zm0.097 1.8039c2.1534-0.0967 3.9761 1.5784 4.0733 3.7436s-1.5708 3.996-3.7242 4.0927-3.9761-1.5784-4.0733-3.7436 1.5708-3.996 3.7242-4.0927zm-32.16 0.48491c0.1153-0.0118 0.23075 0 0.34913 0 1.4056 0 2.6115 0.84369 3.1423 2.056l-2.1724-0.93104a2.483 2.483 0 0 0 -1.222 -0.21337 2.483 2.483 0 0 0 -0.73707 4.7716l2.25 0.96983c-0.38881 0.15392-0.81803 0.23276-1.2608 0.23276-1.8943 0-3.4332-1.548-3.4332-3.4526 0-1.7856 1.3545-3.2566 3.0841-3.4332zm32.198 0.56251c-1.5792 0.0709-2.8062 1.4187-2.7349 3.0065s1.4079 2.8252 2.9871 2.7543 2.8062-1.4187 2.7349-3.0065-1.4079-2.8252-2.9871-2.7543zm-9.5432 8.9806c1.8924-0.085 3.503 1.3947 3.5884 3.2974s-1.3856 3.5228-3.278 3.6078c-1.4623 0.0656-2.7506-0.79927-3.2974-2.0754l2.1142 0.89225a2.483 2.483 0 1 0 1.9591 -4.5582l-2.1724-0.93104c0.33933-0.13386 0.70115-0.21547 1.0862-0.23275z" style="color:#000000;enable-background:accumulate"/>
 <path style="color:#000000;enable-background:accumulate" fill="url(#linearGradient3886)" d="m47.04 22.19c-3.0311 0.13607-5.39 2.6333-5.4311 5.6444l-3.8211 5.2953c-0.0643 0.00003-0.12907-0.003-0.19397 0-0.78078 0.0351-1.498 0.28699-2.1142 0.67888l-15.944-6.8082c-0.41849-1.9614-2.1316-3.4332-4.2091-3.4332-2.3907 0-4.3254 1.9411-4.3254 4.3448 0 2.4038 1.9348 4.3642 4.3254 4.3642 0.85776 0 1.6555-0.26362 2.3276-0.69828l15.905 6.8082c0.43365 2.0428 2.2781 3.5295 4.4224 3.4332 2.2909-0.10283 4.0841-1.9756 4.1315-4.2479l5.1983-3.9181c0.0843-0.00006 0.16706 0.004 0.25215 0 3.1452-0.14118 5.573-2.8312 5.4311-5.9936-0.14195-3.1624-2.8096-5.611-5.9548-5.4699zm0.097 1.8039c2.1534-0.0967 3.9761 1.5784 4.0733 3.7436s-1.5708 3.996-3.7242 4.0927-3.9761-1.5784-4.0733-3.7436 1.5708-3.996 3.7242-4.0927zm-32.16 0.48491c0.1153-0.0118 0.23075 0 0.34913 0 1.4056 0 2.6115 0.84369 3.1423 2.056l-2.1724-0.93104a2.483 2.483 0 0 0 -1.222 -0.21337 2.483 2.483 0 0 0 -0.73707 4.7716l2.25 0.96983c-0.38881 0.15392-0.81803 0.23276-1.2608 0.23276-1.8943 0-3.4332-1.548-3.4332-3.4526 0-1.7856 1.3545-3.2566 3.0841-3.4332zm32.198 0.56251c-1.5792 0.0709-2.8062 1.4187-2.7349 3.0065s1.4079 2.8252 2.9871 2.7543 2.8062-1.4187 2.7349-3.0065-1.4079-2.8252-2.9871-2.7543zm-9.5432 8.9806c1.8924-0.085 3.503 1.3947 3.5884 3.2974s-1.3856 3.5228-3.278 3.6078c-1.4623 0.0656-2.7506-0.79927-3.2974-2.0754l2.1142 0.89225a2.483 2.483 0 1 0 1.9591 -4.5582l-2.1724-0.93104c0.33933-0.13386 0.70115-0.21547 1.0862-0.23275z"/>
 <path opacity="0.13" style="color:#bebebe;enable-background:accumulate" d="m14.5 3c-6.3883 0-11.5 5.1117-11.5 11.5v1c0-6.3883 5.1117-11.5 11.5-11.5h35c6.388 0 11.5 5.1117 11.5 11.5v-1c0-6.3883-5.112-11.5-11.5-11.5h-35z" fill="#fff"/>
 <path opacity="0.41" d="m49.5 62c6.388 0 11.5-5.112 11.5-11.5v-1c0 6.388-5.112 11.5-11.5 11.5h-35c-6.3883 0-11.5-5.112-11.5-11.5v1c0 6.388 5.1117 11.5 11.5 11.5h35z" style="color:#bebebe;enable-background:accumulate"/>
 <path opacity=".1" style="color:#bebebe;enable-background:accumulate" d="m14.5 61c-6.3883 0-11.5-5.112-11.5-11.5v-1c0 6.388 5.1117 11.5 11.5 11.5h35c6.388 0 11.5-5.112 11.5-11.5v1c0 6.388-5.112 11.5-11.5 11.5h-35z" fill="#fff"/>
 <path opacity="0.41" style="color:#bebebe;enable-background:accumulate" d="m14.5 2c-6.925 0-12.5 5.575-12.5 12.5v35c0 6.925 5.575 12.5 12.5 12.5h35c6.925 0 12.5-5.575 12.5-12.5v-35c0-6.925-5.575-12.5-12.5-12.5h-35zm0 1h35c6.388 0 11.5 5.1117 11.5 11.5v35c0 6.388-5.112 11.5-11.5 11.5h-35c-6.3883 0-11.5-5.112-11.5-11.5v-35c0-6.3883 5.1117-11.5 11.5-11.5z"/>
</svg>
