<?xml version="1.0" encoding="UTF-8" standalone="no"?>
<svg xmlns:rdf="http://www.w3.org/1999/02/22-rdf-syntax-ns#" style="enable-background:new" xmlns="http://www.w3.org/2000/svg" height="64" width="64" version="1.0" xmlns:cc="http://creativecommons.org/ns#" xmlns:xlink="http://www.w3.org/1999/xlink" xmlns:dc="http://purl.org/dc/elements/1.1/">
 <defs>
  <linearGradient id="linearGradient5324" x1="291" gradientUnits="userSpaceOnUse" y1="172" gradientTransform="matrix(0,-1,1,0,-140,352)" x2="349" y2="172">
   <stop stop-color="#2ba051" offset="0"/>
   <stop stop-color="#46bc6c" offset="1"/>
  </linearGradient>
 </defs>
 <metadata>
  <rdf:RDF>
   <cc:Work rdf:about="">
    <dc:format>image/svg+xml</dc:format>
    <dc:type rdf:resource="http://purl.org/dc/dcmitype/StillImage"/>
    <dc:creator>
     <cc:Agent>
      <dc:title>Sam Hewitt</dc:title>
     </cc:Agent>
    </dc:creator>
    <dc:source/>
    <cc:license rdf:resource=""/>
    <dc:title/>
    <dc:subject>
     <rdf:Bag/>
    </dc:subject>
    <dc:date/>
    <dc:rights>
     <cc:Agent>
      <dc:title/>
     </cc:Agent>
    </dc:rights>
    <dc:publisher>
     <cc:Agent>
      <dc:title/>
     </cc:Agent>
    </dc:publisher>
    <dc:identifier/>
    <dc:relation/>
    <dc:language/>
    <dc:coverage/>
    <dc:description/>
    <dc:contributor>
     <cc:Agent>
      <dc:title/>
     </cc:Agent>
    </dc:contributor>
   </cc:Work>
   <cc:Work rdf:about="">
    <dc:format>image/svg+xml</dc:format>
    <dc:type rdf:resource="http://purl.org/dc/dcmitype/StillImage"/>
   </cc:Work>
  </rdf:RDF>
 </metadata>
 <rect opacity=".1" style="color:#bebebe;enable-background:accumulate" ry="12.5" height="60" width="60" y="3" x="2"/>
 <path style="color:#bebebe;enable-background:accumulate" fill="url(#linearGradient5324)" d="m14.5 2.5c-6.66 0-12 5.34-12 12v35c0 6.66 5.34 12 12 12h35c6.66 0 12-5.34 12-12v-35c0-6.66-5.34-12-12-12h-35z"/>
 <path opacity=".2" d="m32.03 16.33c3.384 0 6.7013 1.016 9.5333 3 0.90533 0.63333 1.1 1.8614 0.46666 2.7667-0.63201 0.90538-1.8627 1.1346-2.7667 0.5-2.188-1.5321-4.7494-2.2906-7.3667-2.2667-0.376 0-0.73334 0-1.1 0.0333-0.11205 0.0128-0.22133 0.0525-0.33333 0.0667-0.30133 0.0372-0.60667 0.0756-0.89999 0.13333-0.13067 0.0257-0.27335 0.0372-0.4 0.0667-0.28934 0.0654-0.58534 0.14795-0.86667 0.23334-0.0894 0.0282-0.17733 0.0705-0.26667 0.1-0.32133 0.10512-0.62266 0.2041-0.93333 0.33333-0.0321 0.0141-0.0694 0.0205-0.1 0.0333-1.864 0.80128-3.4907 2.056-4.7667 3.6-0.008 0.0128-0.0254 0.0243-0.0333 0.0333-1.7947 2.1852-2.8653 4.9572-2.8667 8h3.3333l-5.3333 8-5.3333-8h3.3333c0.001-3.496 1.0853-6.7173 2.9333-9.4 0.0267-0.0461 0.036-0.091 0.0667-0.13333 0.22934-0.32795 0.484-0.62667 0.73334-0.93334 0.0293-0.0372 0.0694-0.0962 0.1-0.13333 1.6907-2.052 3.7933-3.6308 6.2-4.6667 0.0667-0.0295 0.13333-0.0718 0.2-0.1 0.384-0.15872 0.77066-0.30128 1.1667-0.43333 0.14267-0.0474 0.288-0.0897 0.43334-0.13333 0.34526-0.10513 0.71326-0.18539 1.0666-0.26667 0.19467-0.0449 0.36934-0.0949 0.56667-0.13333 0.0973-0.0179 0.204-0.05 0.3-0.0667 0.264-0.0461 0.536-0.0654 0.8-0.1 0.18267-0.0218 0.34933-0.0487 0.53333-0.0667 0.44267-0.041 0.89334-0.059 1.3333-0.0667h0.23333 0.0333zm14.633 8.6667 5.3333 8h-3.3333c0 3.5067-1.1093 6.7454-2.9667 9.4333-0.0227 0.0372-0.0413 0.0628-0.0667 0.1-0.192 0.27461-0.39333 0.54-0.6 0.8-0.0773 0.0987-0.15333 0.20397-0.23333 0.3-0.304 0.36923-0.63467 0.69461-0.96667 1.0333-0.0321 0.0333-0.036 0.0692-0.0667 0.1-1.1147 1.1159-2.396 2.0813-3.7667 2.8333-0.036 0.0218-0.0613 0.0461-0.1 0.0667-0.39467 0.21205-0.788 0.38538-1.2 0.56666-0.10269 0.0436-0.22933 0.0885-0.33333 0.13334-0.352 0.14538-0.70267 0.27872-1.0667 0.40001-0.172 0.059-0.32533 0.11282-0.5 0.16667-0.31867 0.0949-0.672 0.18936-1 0.26666-0.21733 0.05-0.412 0.091-0.63333 0.13334-0.0921 0.0179-0.176 0.0513-0.26667 0.0667-0.30933 0.0539-0.624 0.0962-0.93333 0.13334-0.11206 0.0128-0.22134 0.0218-0.33334 0.0333-0.556 0.0539-1.1133 0.1-1.6667 0.1-3.388 0-6.6973-1.0467-9.5333-3.0333-0.904-0.63462-1.1333-1.8948-0.5-2.8 0.63467-0.90665 1.8973-1.1013 2.8-0.46666 2.204 1.544 4.764 2.3026 7.4 2.2667 0.348 0 0.692 0 1.0333-0.0333 0.14-0.0141 0.29333-0.05 0.43333-0.0667 0.26933-0.0359 0.53733-0.082 0.8-0.13333 0.16133-0.0307 0.308-0.0628 0.46667-0.1 0.25733-0.0603 0.516-0.12564 0.76666-0.2 0.12128-0.0372 0.24667-0.0603 0.36667-0.1 0.28933-0.0974 0.58667-0.21603 0.86667-0.33333 0.064-0.0257 0.13733-0.0385 0.2-0.0667 0.328-0.14398 0.62-0.29744 0.93333-0.46667 0.0146-0.0128 0.0521-0.0257 0.0667-0.0333 1.06-0.58257 2.016-1.3174 2.8667-2.1667 0.0133-0.0141 0.0187-0.0179 0.0333-0.0333 0.264-0.26525 0.52666-0.54397 0.76666-0.83333 0.0507-0.0615 0.11603-0.13743 0.16667-0.2 1.732-2.1667 2.7667-4.8841 2.7667-7.8667h-3.3333l5.3333-8z" style="enable-background:new"/>
 <path d="m32.03 15.33c3.384 0 6.7013 1.016 9.5333 3 0.90533 0.63333 1.1 1.8614 0.46666 2.7667-0.63201 0.90538-1.8627 1.1346-2.7667 0.5-2.188-1.5321-4.7494-2.2906-7.3667-2.2667-0.376 0-0.73334 0-1.1 0.0333-0.11205 0.0128-0.22133 0.0525-0.33333 0.0667-0.30133 0.0372-0.60667 0.0756-0.89999 0.13333-0.13067 0.0257-0.27335 0.0372-0.4 0.0667-0.28934 0.0654-0.58534 0.14795-0.86667 0.23334-0.0894 0.0282-0.17733 0.0705-0.26667 0.1-0.32133 0.10512-0.62266 0.2041-0.93333 0.33333-0.0321 0.0141-0.0694 0.0205-0.1 0.0333-1.864 0.80128-3.4907 2.056-4.7667 3.6-0.008 0.0128-0.0254 0.0243-0.0333 0.0333-1.7947 2.1852-2.8653 4.9572-2.8667 8h3.3333l-5.3333 8-5.3333-8h3.3333c0.001-3.496 1.0853-6.7173 2.9333-9.4 0.0267-0.0461 0.036-0.091 0.0667-0.13333 0.22934-0.32795 0.484-0.62667 0.73334-0.93334 0.0293-0.0372 0.0694-0.0962 0.1-0.13333 1.6907-2.052 3.7933-3.6308 6.2-4.6667 0.0667-0.0295 0.13333-0.0718 0.2-0.1 0.384-0.15872 0.77066-0.30128 1.1667-0.43333 0.14267-0.0474 0.288-0.0897 0.43334-0.13333 0.34526-0.10513 0.71326-0.18539 1.0666-0.26667 0.19467-0.0449 0.36934-0.0949 0.56667-0.13333 0.0973-0.0179 0.204-0.05 0.3-0.0667 0.264-0.0461 0.536-0.0654 0.8-0.1 0.18267-0.0218 0.34933-0.0487 0.53333-0.0667 0.44267-0.041 0.89334-0.059 1.3333-0.0667h0.23333 0.0333zm14.633 8.6667 5.3333 8h-3.3333c0 3.5067-1.1093 6.7454-2.9667 9.4333-0.0227 0.0372-0.0413 0.0628-0.0667 0.1-0.192 0.27461-0.39333 0.54-0.6 0.8-0.0773 0.0987-0.15333 0.20397-0.23333 0.3-0.304 0.36923-0.63467 0.69461-0.96667 1.0333-0.0321 0.0333-0.036 0.0692-0.0667 0.1-1.1147 1.1159-2.396 2.0813-3.7667 2.8333-0.036 0.0218-0.0613 0.0461-0.1 0.0667-0.39467 0.21205-0.788 0.38538-1.2 0.56666-0.10269 0.0436-0.22933 0.0885-0.33333 0.13334-0.352 0.14538-0.70267 0.27872-1.0667 0.40001-0.172 0.059-0.32533 0.11282-0.5 0.16667-0.31867 0.0949-0.672 0.18936-1 0.26666-0.21733 0.05-0.412 0.091-0.63333 0.13334-0.0921 0.0179-0.176 0.0513-0.26667 0.0667-0.30933 0.0539-0.624 0.0962-0.93333 0.13334-0.11206 0.0128-0.22134 0.0218-0.33334 0.0333-0.556 0.0539-1.1133 0.1-1.6667 0.1-3.388 0-6.6973-1.0467-9.5333-3.0333-0.904-0.63462-1.1333-1.8948-0.5-2.8 0.63467-0.90665 1.8973-1.1013 2.8-0.46666 2.204 1.544 4.764 2.3026 7.4 2.2667 0.348 0 0.692 0 1.0333-0.0333 0.14-0.0141 0.29333-0.05 0.43333-0.0667 0.26933-0.0359 0.53733-0.082 0.8-0.13333 0.16133-0.0307 0.308-0.0628 0.46667-0.1 0.25733-0.0603 0.516-0.12564 0.76666-0.2 0.12128-0.0372 0.24667-0.0603 0.36667-0.1 0.28933-0.0974 0.58667-0.21603 0.86667-0.33333 0.064-0.0257 0.13733-0.0385 0.2-0.0667 0.328-0.14398 0.62-0.29744 0.93333-0.46667 0.0146-0.0128 0.0521-0.0257 0.0667-0.0333 1.06-0.58257 2.016-1.3174 2.8667-2.1667 0.0133-0.0141 0.0187-0.0179 0.0333-0.0333 0.264-0.26525 0.52666-0.54397 0.76666-0.83333 0.0507-0.0615 0.11603-0.13743 0.16667-0.2 1.732-2.1667 2.7667-4.8841 2.7667-7.8667h-3.3333l5.3333-8z" style="enable-background:new" fill="#fff"/>
 <path opacity="0.13" style="color:#bebebe;enable-background:accumulate" d="m14.5 3c-6.3883 0-11.5 5.1117-11.5 11.5v1c0-6.3883 5.1117-11.5 11.5-11.5h35c6.388 0 11.5 5.1117 11.5 11.5v-1c0-6.3883-5.112-11.5-11.5-11.5h-35z" fill="#fff"/>
 <path opacity=".5" d="m49.5 62c6.388 0 11.5-5.112 11.5-11.5v-1c0 6.388-5.112 11.5-11.5 11.5h-35c-6.3883 0-11.5-5.112-11.5-11.5v1c0 6.388 5.1117 11.5 11.5 11.5h35z" style="color:#bebebe;enable-background:accumulate"/>
 <path opacity=".1" style="color:#bebebe;enable-background:accumulate" d="m14.5 61c-6.3883 0-11.5-5.112-11.5-11.5v-1c0 6.388 5.1117 11.5 11.5 11.5h35c6.388 0 11.5-5.112 11.5-11.5v1c0 6.388-5.112 11.5-11.5 11.5h-35z" fill="#fff"/>
 <path opacity="0.41" style="color:#bebebe;enable-background:accumulate" d="m14.5 2c-6.925 0-12.5 5.575-12.5 12.5v35c0 6.925 5.575 12.5 12.5 12.5h35c6.925 0 12.5-5.575 12.5-12.5v-35c0-6.925-5.575-12.5-12.5-12.5h-35zm0 1h35c6.388 0 11.5 5.1117 11.5 11.5v35c0 6.388-5.112 11.5-11.5 11.5h-35c-6.3883 0-11.5-5.112-11.5-11.5v-35c0-6.3883 5.1117-11.5 11.5-11.5z"/>
</svg>
